G04 #@! TF.GenerationSoftware,KiCad,Pcbnew,8.0.1*
G04 #@! TF.CreationDate,2024-12-04T18:09:28+05:30*
G04 #@! TF.ProjectId,V1,56312e6b-6963-4616-945f-706362585858,r0.1*
G04 #@! TF.SameCoordinates,Original*
G04 #@! TF.FileFunction,Copper,L1,Top*
G04 #@! TF.FilePolarity,Positive*
%FSLAX46Y46*%
G04 Gerber Fmt 4.6, Leading zero omitted, Abs format (unit mm)*
G04 Created by KiCad (PCBNEW 8.0.1) date 2024-12-04 18:09:28*
%MOMM*%
%LPD*%
G01*
G04 APERTURE LIST*
G04 Aperture macros list*
%AMRoundRect*
0 Rectangle with rounded corners*
0 $1 Rounding radius*
0 $2 $3 $4 $5 $6 $7 $8 $9 X,Y pos of 4 corners*
0 Add a 4 corners polygon primitive as box body*
4,1,4,$2,$3,$4,$5,$6,$7,$8,$9,$2,$3,0*
0 Add four circle primitives for the rounded corners*
1,1,$1+$1,$2,$3*
1,1,$1+$1,$4,$5*
1,1,$1+$1,$6,$7*
1,1,$1+$1,$8,$9*
0 Add four rect primitives between the rounded corners*
20,1,$1+$1,$2,$3,$4,$5,0*
20,1,$1+$1,$4,$5,$6,$7,0*
20,1,$1+$1,$6,$7,$8,$9,0*
20,1,$1+$1,$8,$9,$2,$3,0*%
G04 Aperture macros list end*
G04 #@! TA.AperFunction,Conductor*
%ADD10C,0.200000*%
G04 #@! TD*
%ADD11C,0.200000*%
G04 #@! TA.AperFunction,NonConductor*
%ADD12C,0.200000*%
G04 #@! TD*
G04 #@! TA.AperFunction,SMDPad,CuDef*
%ADD13R,0.550000X0.550000*%
G04 #@! TD*
G04 #@! TA.AperFunction,ComponentPad*
%ADD14C,1.500000*%
G04 #@! TD*
G04 #@! TA.AperFunction,SMDPad,CuDef*
%ADD15R,1.270000X1.524000*%
G04 #@! TD*
G04 #@! TA.AperFunction,SMDPad,CuDef*
%ADD16R,1.524000X1.270000*%
G04 #@! TD*
G04 #@! TA.AperFunction,SMDPad,CuDef*
%ADD17RoundRect,0.193750X0.281250X-0.193750X0.281250X0.193750X-0.281250X0.193750X-0.281250X-0.193750X0*%
G04 #@! TD*
G04 #@! TA.AperFunction,SMDPad,CuDef*
%ADD18RoundRect,0.140000X-0.170000X0.140000X-0.170000X-0.140000X0.170000X-0.140000X0.170000X0.140000X0*%
G04 #@! TD*
G04 #@! TA.AperFunction,SMDPad,CuDef*
%ADD19RoundRect,0.075000X-0.550000X0.225000X-0.550000X-0.225000X0.550000X-0.225000X0.550000X0.225000X0*%
G04 #@! TD*
G04 #@! TA.AperFunction,SMDPad,CuDef*
%ADD20RoundRect,0.075000X-0.550000X0.075000X-0.550000X-0.075000X0.550000X-0.075000X0.550000X0.075000X0*%
G04 #@! TD*
G04 #@! TA.AperFunction,ComponentPad*
%ADD21O,1.900000X1.000000*%
G04 #@! TD*
G04 #@! TA.AperFunction,ComponentPad*
%ADD22O,1.600000X1.000000*%
G04 #@! TD*
G04 #@! TA.AperFunction,SMDPad,CuDef*
%ADD23RoundRect,0.225000X-0.250000X0.225000X-0.250000X-0.225000X0.250000X-0.225000X0.250000X0.225000X0*%
G04 #@! TD*
G04 #@! TA.AperFunction,SMDPad,CuDef*
%ADD24RoundRect,0.135000X-0.185000X0.135000X-0.185000X-0.135000X0.185000X-0.135000X0.185000X0.135000X0*%
G04 #@! TD*
G04 #@! TA.AperFunction,SMDPad,CuDef*
%ADD25RoundRect,0.140000X0.170000X-0.140000X0.170000X0.140000X-0.170000X0.140000X-0.170000X-0.140000X0*%
G04 #@! TD*
G04 #@! TA.AperFunction,SMDPad,CuDef*
%ADD26RoundRect,0.062500X-0.337500X-0.062500X0.337500X-0.062500X0.337500X0.062500X-0.337500X0.062500X0*%
G04 #@! TD*
G04 #@! TA.AperFunction,SMDPad,CuDef*
%ADD27RoundRect,0.062500X-0.062500X-0.337500X0.062500X-0.337500X0.062500X0.337500X-0.062500X0.337500X0*%
G04 #@! TD*
G04 #@! TA.AperFunction,HeatsinkPad*
%ADD28R,3.350000X3.350000*%
G04 #@! TD*
G04 #@! TA.AperFunction,SMDPad,CuDef*
%ADD29RoundRect,0.135000X0.185000X-0.135000X0.185000X0.135000X-0.185000X0.135000X-0.185000X-0.135000X0*%
G04 #@! TD*
G04 #@! TA.AperFunction,SMDPad,CuDef*
%ADD30RoundRect,0.093750X0.093750X0.106250X-0.093750X0.106250X-0.093750X-0.106250X0.093750X-0.106250X0*%
G04 #@! TD*
G04 #@! TA.AperFunction,HeatsinkPad*
%ADD31C,0.500000*%
G04 #@! TD*
G04 #@! TA.AperFunction,HeatsinkPad*
%ADD32R,1.000000X1.600000*%
G04 #@! TD*
G04 #@! TA.AperFunction,SMDPad,CuDef*
%ADD33RoundRect,0.150000X0.650000X0.150000X-0.650000X0.150000X-0.650000X-0.150000X0.650000X-0.150000X0*%
G04 #@! TD*
G04 #@! TA.AperFunction,SMDPad,CuDef*
%ADD34R,0.600000X0.200000*%
G04 #@! TD*
G04 #@! TA.AperFunction,SMDPad,CuDef*
%ADD35R,0.200000X0.600000*%
G04 #@! TD*
G04 #@! TA.AperFunction,SMDPad,CuDef*
%ADD36R,4.350000X4.350000*%
G04 #@! TD*
G04 #@! TA.AperFunction,SMDPad,CuDef*
%ADD37RoundRect,0.135000X-0.135000X-0.185000X0.135000X-0.185000X0.135000X0.185000X-0.135000X0.185000X0*%
G04 #@! TD*
G04 #@! TA.AperFunction,SMDPad,CuDef*
%ADD38R,0.400000X0.500000*%
G04 #@! TD*
G04 #@! TA.AperFunction,SMDPad,CuDef*
%ADD39R,0.300000X0.500000*%
G04 #@! TD*
G04 #@! TA.AperFunction,SMDPad,CuDef*
%ADD40R,0.600000X1.100000*%
G04 #@! TD*
G04 #@! TA.AperFunction,SMDPad,CuDef*
%ADD41RoundRect,0.147500X0.147500X0.172500X-0.147500X0.172500X-0.147500X-0.172500X0.147500X-0.172500X0*%
G04 #@! TD*
G04 #@! TA.AperFunction,SMDPad,CuDef*
%ADD42RoundRect,0.140000X-0.140000X-0.170000X0.140000X-0.170000X0.140000X0.170000X-0.140000X0.170000X0*%
G04 #@! TD*
G04 #@! TA.AperFunction,SMDPad,CuDef*
%ADD43R,0.900000X0.800000*%
G04 #@! TD*
G04 #@! TA.AperFunction,SMDPad,CuDef*
%ADD44RoundRect,0.135000X0.540000X0.540000X-0.540000X0.540000X-0.540000X-0.540000X0.540000X-0.540000X0*%
G04 #@! TD*
G04 #@! TA.AperFunction,SMDPad,CuDef*
%ADD45RoundRect,0.218750X-0.218750X-0.381250X0.218750X-0.381250X0.218750X0.381250X-0.218750X0.381250X0*%
G04 #@! TD*
G04 #@! TA.AperFunction,SMDPad,CuDef*
%ADD46RoundRect,0.150000X0.825000X0.150000X-0.825000X0.150000X-0.825000X-0.150000X0.825000X-0.150000X0*%
G04 #@! TD*
G04 #@! TA.AperFunction,SMDPad,CuDef*
%ADD47RoundRect,0.135000X0.135000X0.185000X-0.135000X0.185000X-0.135000X-0.185000X0.135000X-0.185000X0*%
G04 #@! TD*
G04 #@! TA.AperFunction,SMDPad,CuDef*
%ADD48RoundRect,0.100000X-0.130000X-0.100000X0.130000X-0.100000X0.130000X0.100000X-0.130000X0.100000X0*%
G04 #@! TD*
G04 #@! TA.AperFunction,ViaPad*
%ADD49C,0.800000*%
G04 #@! TD*
G04 #@! TA.AperFunction,ViaPad*
%ADD50C,0.450000*%
G04 #@! TD*
G04 #@! TA.AperFunction,ViaPad*
%ADD51C,0.600000*%
G04 #@! TD*
G04 #@! TA.AperFunction,ViaPad*
%ADD52C,0.500000*%
G04 #@! TD*
G04 #@! TA.AperFunction,Conductor*
%ADD53C,0.400000*%
G04 #@! TD*
G04 #@! TA.AperFunction,Conductor*
%ADD54C,0.300000*%
G04 #@! TD*
G04 #@! TA.AperFunction,Conductor*
%ADD55C,0.180000*%
G04 #@! TD*
G04 #@! TA.AperFunction,Conductor*
%ADD56C,0.170000*%
G04 #@! TD*
G04 APERTURE END LIST*
D10*
X117880000Y-106610000D02*
X118710000Y-106060000D01*
D11*
D12*
X105079523Y-92602780D02*
X104508095Y-92602780D01*
X104793809Y-91602780D02*
X104793809Y-92602780D01*
X103984285Y-92602780D02*
X103793809Y-92602780D01*
X103793809Y-92602780D02*
X103698571Y-92555161D01*
X103698571Y-92555161D02*
X103603333Y-92459923D01*
X103603333Y-92459923D02*
X103555714Y-92269447D01*
X103555714Y-92269447D02*
X103555714Y-91936114D01*
X103555714Y-91936114D02*
X103603333Y-91745638D01*
X103603333Y-91745638D02*
X103698571Y-91650400D01*
X103698571Y-91650400D02*
X103793809Y-91602780D01*
X103793809Y-91602780D02*
X103984285Y-91602780D01*
X103984285Y-91602780D02*
X104079523Y-91650400D01*
X104079523Y-91650400D02*
X104174761Y-91745638D01*
X104174761Y-91745638D02*
X104222380Y-91936114D01*
X104222380Y-91936114D02*
X104222380Y-92269447D01*
X104222380Y-92269447D02*
X104174761Y-92459923D01*
X104174761Y-92459923D02*
X104079523Y-92555161D01*
X104079523Y-92555161D02*
X103984285Y-92602780D01*
X103127142Y-91602780D02*
X103127142Y-92602780D01*
X103127142Y-92602780D02*
X102746190Y-92602780D01*
X102746190Y-92602780D02*
X102650952Y-92555161D01*
X102650952Y-92555161D02*
X102603333Y-92507542D01*
X102603333Y-92507542D02*
X102555714Y-92412304D01*
X102555714Y-92412304D02*
X102555714Y-92269447D01*
X102555714Y-92269447D02*
X102603333Y-92174209D01*
X102603333Y-92174209D02*
X102650952Y-92126590D01*
X102650952Y-92126590D02*
X102746190Y-92078971D01*
X102746190Y-92078971D02*
X103127142Y-92078971D01*
D13*
X111590600Y-108249000D03*
X111590600Y-107499000D03*
X108940600Y-107499000D03*
X108940600Y-108249000D03*
D14*
X134290000Y-100000000D03*
D15*
X134925000Y-100000000D03*
D14*
X135560000Y-100000000D03*
X134290000Y-102540000D03*
D15*
X134925000Y-102540000D03*
D14*
X135560000Y-102540000D03*
X129300000Y-107721500D03*
D16*
X129300000Y-108356500D03*
D14*
X129300000Y-108991500D03*
X129200000Y-92380000D03*
D16*
X129200000Y-91745000D03*
D14*
X129200000Y-91110000D03*
X124130000Y-92380000D03*
D16*
X124130000Y-91745000D03*
D14*
X124130000Y-91110000D03*
X121600000Y-92400000D03*
D16*
X121600000Y-91765000D03*
D14*
X121600000Y-91130000D03*
X126800000Y-107700000D03*
D16*
X126800000Y-108335000D03*
D14*
X126800000Y-108970000D03*
X134300000Y-92400000D03*
D16*
X134300000Y-91765000D03*
D14*
X134300000Y-91130000D03*
X131700000Y-92400000D03*
D16*
X131700000Y-91765000D03*
D14*
X131700000Y-91130000D03*
X134300000Y-107721500D03*
D16*
X134300000Y-108356500D03*
D14*
X134300000Y-108991500D03*
X131800000Y-107721500D03*
D16*
X131800000Y-108356500D03*
D14*
X131800000Y-108991500D03*
D17*
X115443200Y-93856500D03*
X115443200Y-92681500D03*
D18*
X114071600Y-103634800D03*
X114071600Y-104594800D03*
D14*
X134290000Y-97460000D03*
D15*
X134925000Y-97460000D03*
D14*
X135560000Y-97460000D03*
X134290000Y-94920000D03*
D15*
X134925000Y-94920000D03*
D14*
X135560000Y-94920000D03*
X124300000Y-107700000D03*
D16*
X124300000Y-108335000D03*
D14*
X124300000Y-108970000D03*
X121800000Y-107700000D03*
D16*
X121800000Y-108335000D03*
D14*
X121800000Y-108970000D03*
X126670000Y-92380000D03*
D16*
X126670000Y-91745000D03*
D14*
X126670000Y-91110000D03*
D19*
X106245000Y-96250000D03*
X106245000Y-97050000D03*
D20*
X106245000Y-98250000D03*
X106245000Y-99250000D03*
X106245000Y-99750000D03*
X106245000Y-100750000D03*
D19*
X106245000Y-101950000D03*
X106245000Y-102750000D03*
X106245000Y-102750000D03*
X106245000Y-101950000D03*
D20*
X106245000Y-101250000D03*
X106245000Y-100250000D03*
X106245000Y-98750000D03*
X106245000Y-97750000D03*
D19*
X106245000Y-97050000D03*
X106245000Y-96250000D03*
D21*
X105530000Y-95180000D03*
D22*
X101350000Y-95180000D03*
D21*
X105530000Y-103820000D03*
D22*
X101350000Y-103820000D03*
D23*
X115290800Y-103670000D03*
X115290800Y-105220000D03*
D24*
X116738600Y-92657400D03*
X116738600Y-93677400D03*
X112522200Y-106551200D03*
X112522200Y-107571200D03*
D25*
X117780000Y-93647400D03*
X117780000Y-92687400D03*
D26*
X108550000Y-98500000D03*
X108550000Y-99000000D03*
X108550000Y-99500000D03*
X108550000Y-100000000D03*
X108550000Y-100500000D03*
X108550000Y-101000000D03*
X108550000Y-101500000D03*
D27*
X109500000Y-102450000D03*
X110000000Y-102450000D03*
X110500000Y-102450000D03*
X111000000Y-102450000D03*
X111500000Y-102450000D03*
X112000000Y-102450000D03*
X112500000Y-102450000D03*
D26*
X113450000Y-101500000D03*
X113450000Y-101000000D03*
X113450000Y-100500000D03*
X113450000Y-100000000D03*
X113450000Y-99500000D03*
X113450000Y-99000000D03*
X113450000Y-98500000D03*
D27*
X112500000Y-97550000D03*
X112000000Y-97550000D03*
X111500000Y-97550000D03*
X111000000Y-97550000D03*
X110500000Y-97550000D03*
X110000000Y-97550000D03*
X109500000Y-97550000D03*
D28*
X111000000Y-100000000D03*
D29*
X115570200Y-107571200D03*
X115570200Y-106551200D03*
D30*
X104213400Y-107076200D03*
X104213400Y-106426200D03*
X104213400Y-105776200D03*
X102438400Y-105776200D03*
X102438400Y-106426200D03*
X102438400Y-107076200D03*
D31*
X103325900Y-106976200D03*
D32*
X103325900Y-106426200D03*
D31*
X103325900Y-105876200D03*
D25*
X113538200Y-107541200D03*
X113538200Y-106581200D03*
D33*
X131971800Y-98425200D03*
X131971800Y-97155200D03*
X131971800Y-95885200D03*
X131971800Y-94615200D03*
X124771800Y-94615200D03*
X124771800Y-95885200D03*
X124771800Y-97155200D03*
X124771800Y-98425200D03*
D29*
X108305800Y-104624800D03*
X108305800Y-103604800D03*
D34*
X121349549Y-101499999D03*
X121349549Y-101099999D03*
X121349549Y-100699999D03*
X121349549Y-100299999D03*
X121349549Y-99899999D03*
X121349549Y-99499999D03*
X121349549Y-99099999D03*
X121349549Y-98699999D03*
X121349549Y-98299999D03*
X121349549Y-97899999D03*
X121349549Y-97499999D03*
X121349549Y-97099999D03*
D35*
X120599549Y-96349999D03*
X120199549Y-96349999D03*
X119799549Y-96349999D03*
X119399549Y-96349999D03*
X118999549Y-96349999D03*
X118599549Y-96349999D03*
X118199549Y-96349999D03*
X117799549Y-96349999D03*
X117399549Y-96349999D03*
X116999549Y-96349999D03*
X116599549Y-96349999D03*
X116199549Y-96349999D03*
D34*
X115449549Y-97099999D03*
X115449549Y-97499999D03*
X115449549Y-97899999D03*
X115449549Y-98299999D03*
X115449549Y-98699999D03*
X115449549Y-99099999D03*
X115449549Y-99499999D03*
X115449549Y-99899999D03*
X115449549Y-100299999D03*
X115449549Y-100699999D03*
X115449549Y-101099999D03*
X115449549Y-101499999D03*
D35*
X116199549Y-102249999D03*
X116599549Y-102249999D03*
X116999549Y-102249999D03*
X117399549Y-102249999D03*
X117799549Y-102249999D03*
X118199549Y-102249999D03*
X118599549Y-102249999D03*
X118999549Y-102249999D03*
X119399549Y-102249999D03*
X119799549Y-102249999D03*
X120199549Y-102249999D03*
X120599549Y-102249999D03*
D36*
X118399549Y-99299999D03*
D37*
X111732800Y-95783600D03*
X112752800Y-95783600D03*
D23*
X122834600Y-100444200D03*
X122834600Y-101994200D03*
D38*
X128587000Y-100906400D03*
D39*
X129087000Y-100906400D03*
X129587000Y-100906400D03*
D38*
X130087000Y-100906400D03*
X130087000Y-99906400D03*
D39*
X129587000Y-99906400D03*
X129087000Y-99906400D03*
D38*
X128587000Y-99906400D03*
D40*
X108107600Y-94386600D03*
X110007600Y-94386600D03*
X109057600Y-92186600D03*
D41*
X125148400Y-100025400D03*
X124178400Y-100025400D03*
D18*
X124155400Y-101272600D03*
X124155400Y-102232600D03*
D25*
X108305800Y-106525200D03*
X108305800Y-105565200D03*
D13*
X117059800Y-107473600D03*
X117059800Y-108223600D03*
X119709800Y-108223600D03*
X119709800Y-107473600D03*
D25*
X120243800Y-106042600D03*
X120243800Y-105082600D03*
D24*
X105283200Y-105535200D03*
X105283200Y-106555200D03*
D29*
X111252200Y-104624800D03*
X111252200Y-103604800D03*
D42*
X131270000Y-100203200D03*
X132230000Y-100203200D03*
X126266200Y-100025400D03*
X127226200Y-100025400D03*
D18*
X125146000Y-101272600D03*
X125146000Y-102232600D03*
D43*
X118725000Y-104810600D03*
X117075000Y-104810600D03*
X117075000Y-106060600D03*
X118725000Y-106060600D03*
D18*
X112192000Y-103609400D03*
X112192000Y-104569400D03*
D25*
X122860000Y-97051000D03*
X122860000Y-96091000D03*
D29*
X109296400Y-104624800D03*
X109296400Y-103604800D03*
D25*
X121183600Y-106042600D03*
X121183600Y-105082600D03*
D40*
X111724600Y-94394400D03*
X113624600Y-94394400D03*
X112674600Y-92194400D03*
D44*
X122597800Y-103547800D03*
X124747800Y-105697800D03*
X124747800Y-103547800D03*
X122597800Y-105697800D03*
D25*
X106299200Y-106499800D03*
X106299200Y-105539800D03*
D45*
X105490700Y-107899400D03*
X107615700Y-107899400D03*
D24*
X110287000Y-103604800D03*
X110287000Y-104624800D03*
D46*
X131775000Y-105670000D03*
X131775000Y-104400000D03*
X131775000Y-103130000D03*
X131775000Y-101860000D03*
X126825000Y-101860000D03*
X126825000Y-103130000D03*
X126825000Y-104400000D03*
X126825000Y-105670000D03*
D18*
X114554200Y-106581200D03*
X114554200Y-107541200D03*
D23*
X101016000Y-105625800D03*
X101016000Y-107175800D03*
D29*
X107289800Y-106555200D03*
X107289800Y-105535200D03*
D47*
X121287200Y-103429000D03*
X120267200Y-103429000D03*
D48*
X120635000Y-104267200D03*
X121275000Y-104267200D03*
D37*
X108100600Y-95758200D03*
X109120600Y-95758200D03*
D18*
X113081000Y-103609400D03*
X113081000Y-104569400D03*
D49*
X106553200Y-107899400D03*
D50*
X119933597Y-104259968D03*
D51*
X116383000Y-106883400D03*
D49*
X116738600Y-94361200D03*
X108559800Y-102362200D03*
D50*
X118516600Y-103708400D03*
D49*
X112522200Y-108280400D03*
X118745200Y-93650000D03*
D51*
X115404775Y-102349175D03*
D49*
X128397200Y-105715000D03*
X129006800Y-98831600D03*
X121412200Y-102286000D03*
D51*
X117805400Y-94361200D03*
D49*
X126136600Y-98450600D03*
X110287000Y-106400800D03*
X112166600Y-105359400D03*
X116941800Y-99300000D03*
X111226800Y-105334000D03*
X110972800Y-101041400D03*
X118400000Y-99300000D03*
X117780000Y-91872000D03*
X114554200Y-108305800D03*
X111000000Y-100000000D03*
X127228800Y-98933200D03*
X130454600Y-94615200D03*
X102387600Y-107975600D03*
X119786600Y-99263400D03*
X118400000Y-97815600D03*
X123672800Y-105697800D03*
X109779000Y-107899400D03*
X107086600Y-95478800D03*
X104216400Y-107975600D03*
X116967200Y-97841000D03*
X120066000Y-106858000D03*
X103327400Y-107975600D03*
X119786600Y-97815600D03*
X116941800Y-100736600D03*
X132232600Y-101092200D03*
X122834600Y-95199400D03*
X119761200Y-100762000D03*
X109931400Y-100025400D03*
D52*
X117880000Y-106620000D03*
D49*
X111023600Y-98958600D03*
X111988800Y-100025400D03*
X113081000Y-105384800D03*
X118389600Y-100762000D03*
D52*
X107652412Y-100500000D03*
X107645400Y-98755400D03*
D49*
X107416800Y-97053600D03*
X107442200Y-101981200D03*
X101879600Y-105130800D03*
D52*
X128397200Y-104495800D03*
X126136600Y-97180600D03*
X113182600Y-97536200D03*
X130276800Y-103200400D03*
X113436600Y-96494800D03*
X129184600Y-95885200D03*
X128829000Y-102438400D03*
X119405600Y-95402600D03*
X130327600Y-105715000D03*
X133528000Y-98704600D03*
X117703800Y-107467600D03*
D50*
X123317200Y-98653802D03*
D52*
X109728200Y-92202200D03*
X128575000Y-101625600D03*
X123469600Y-101270000D03*
X122580600Y-104622800D03*
D50*
X116814800Y-103810000D03*
D52*
X110007600Y-95758200D03*
D50*
X117373600Y-104085598D03*
D52*
X110845800Y-95758200D03*
X126162000Y-95047000D03*
D50*
X114174537Y-99914012D03*
D52*
X130480000Y-97155200D03*
D50*
X114379060Y-100436167D03*
D52*
X130276800Y-104495800D03*
X110795000Y-107924800D03*
X117424400Y-95402600D03*
X113436600Y-92202200D03*
D50*
X122631400Y-99441200D03*
D52*
X133502600Y-96190000D03*
D50*
X122148800Y-97409200D03*
D52*
X127940000Y-93650000D03*
D50*
X122670072Y-98772765D03*
D52*
X132994600Y-93624600D03*
D50*
X122834600Y-97773600D03*
D52*
X130454600Y-93650000D03*
D50*
X122275800Y-101219200D03*
D52*
X125933400Y-100838200D03*
D50*
X114361273Y-99387834D03*
X126136600Y-95910600D03*
D52*
X128270200Y-103200400D03*
X127330400Y-95809000D03*
X130200600Y-101625600D03*
X130708600Y-98425200D03*
D50*
X114218422Y-98828070D03*
X117932400Y-103657631D03*
X116179800Y-103784600D03*
D52*
X125552400Y-106934200D03*
D50*
X116052800Y-103175000D03*
D52*
X123063200Y-106959600D03*
X114250000Y-102362200D03*
X114538801Y-101588801D03*
D50*
X114175000Y-101023607D03*
D10*
X134612200Y-102862200D02*
X134290000Y-102540000D01*
X115199800Y-102250000D02*
X115163800Y-102286000D01*
D53*
X107615700Y-106881100D02*
X107289800Y-106555200D01*
D10*
X116738600Y-93652400D02*
X116738600Y-94361200D01*
X117780000Y-93652400D02*
X117780000Y-94335800D01*
D53*
X113081000Y-103609400D02*
X112192000Y-103609400D01*
D10*
X115288500Y-103629800D02*
X115316200Y-103657500D01*
X107234400Y-106499800D02*
X107289800Y-106555200D01*
X129006800Y-98831600D02*
X129083000Y-98907800D01*
D54*
X122834600Y-100362400D02*
X124771800Y-98425200D01*
D10*
X108550000Y-101500000D02*
X108550000Y-102352400D01*
D53*
X106299200Y-106499800D02*
X107234400Y-106499800D01*
D10*
X129083000Y-98907800D02*
X129083000Y-99902400D01*
X126261200Y-98910200D02*
X126261200Y-100025400D01*
X124229200Y-98425200D02*
X124771800Y-98425200D01*
D53*
X115316200Y-103657500D02*
X115316200Y-102438400D01*
D10*
X131699200Y-99390400D02*
X132562800Y-99390400D01*
D53*
X114071600Y-103629800D02*
X115288500Y-103629800D01*
D10*
X133070800Y-101320800D02*
X134290000Y-102540000D01*
X116738600Y-93652400D02*
X117780000Y-93652400D01*
X112522200Y-107546200D02*
X112522200Y-108280400D01*
X115570200Y-106551200D02*
X116050800Y-106551200D01*
X132562800Y-99390400D02*
X133070800Y-99898400D01*
D53*
X107615700Y-107899400D02*
X106553200Y-107899400D01*
D55*
X118600000Y-102250000D02*
X118600000Y-103625000D01*
D10*
X117780000Y-93652400D02*
X118742800Y-93652400D01*
X131265000Y-100203200D02*
X130962600Y-100203200D01*
X122702900Y-100300000D02*
X122834600Y-100431700D01*
D53*
X114071600Y-103629800D02*
X113101400Y-103629800D01*
D10*
X129083000Y-99902400D02*
X129087000Y-99906400D01*
D55*
X114962174Y-97500000D02*
X114599400Y-97137226D01*
X119800000Y-103027986D02*
X119747200Y-103080786D01*
D10*
X122860000Y-97056000D02*
X124229200Y-98425200D01*
X108275800Y-106555200D02*
X108305800Y-106525200D01*
X116050800Y-106551200D02*
X116383000Y-106883400D01*
X122834600Y-100431700D02*
X122834600Y-100362400D01*
D53*
X110287000Y-104624800D02*
X110287000Y-106502400D01*
D10*
X130649800Y-99906400D02*
X130087000Y-99906400D01*
X112192000Y-103609400D02*
X112138600Y-103609400D01*
X129587000Y-99906400D02*
X129087000Y-99906400D01*
X114554200Y-106576200D02*
X115545200Y-106576200D01*
X133070800Y-99898400D02*
X133070800Y-101320800D01*
D55*
X118745200Y-94945400D02*
X118200000Y-95490600D01*
X114599400Y-97137226D02*
X114599400Y-96500400D01*
X119800000Y-102250000D02*
X119800000Y-103027986D01*
D10*
X122809200Y-100406300D02*
X122834600Y-100431700D01*
X108550000Y-101000000D02*
X108550000Y-101500000D01*
X121350000Y-101500000D02*
X121350000Y-102223800D01*
D55*
X115450000Y-97500000D02*
X114962174Y-97500000D01*
X121350000Y-100700000D02*
X122566300Y-100700000D01*
D53*
X107289800Y-106555200D02*
X108275800Y-106555200D01*
D54*
X124771800Y-98425200D02*
X125781000Y-98425200D01*
D10*
X131265000Y-100203200D02*
X131265000Y-99824600D01*
X121350000Y-102223800D02*
X121412200Y-102286000D01*
X126836600Y-105715000D02*
X128397200Y-105715000D01*
D55*
X114599400Y-96500400D02*
X116738600Y-94361200D01*
D10*
X108550000Y-102352400D02*
X108559800Y-102362200D01*
X130087000Y-99906400D02*
X129587000Y-99906400D01*
X126263600Y-98907800D02*
X126261200Y-98910200D01*
D55*
X118200000Y-95490600D02*
X118200000Y-96350000D01*
D10*
X129087000Y-99906400D02*
X128587000Y-99906400D01*
X118742800Y-93652400D02*
X118745200Y-93650000D01*
D55*
X119881078Y-104259968D02*
X119933597Y-104259968D01*
X119747200Y-103080786D02*
X119747200Y-104126090D01*
D10*
X130962600Y-100203200D02*
X130657800Y-99898400D01*
X131265000Y-99824600D02*
X131699200Y-99390400D01*
X122566300Y-100700000D02*
X122834600Y-100431700D01*
D55*
X118745200Y-93650000D02*
X118745200Y-94945400D01*
D10*
X115316200Y-102438400D02*
X115163800Y-102286000D01*
X115545200Y-106576200D02*
X115570200Y-106551200D01*
D55*
X121350000Y-100300000D02*
X122702900Y-100300000D01*
D10*
X130657800Y-99898400D02*
X130649800Y-99906400D01*
X113101400Y-103629800D02*
X113081000Y-103609400D01*
X116200000Y-102250000D02*
X115199800Y-102250000D01*
X117780000Y-94335800D02*
X117805400Y-94361200D01*
D53*
X107615700Y-107899400D02*
X107615700Y-106881100D01*
D10*
X125781000Y-98425200D02*
X126263600Y-98907800D01*
D55*
X119747200Y-104126090D02*
X119881078Y-104259968D01*
X118600000Y-103625000D02*
X118516600Y-103708400D01*
D54*
X106324600Y-104800600D02*
X104401500Y-104800600D01*
D53*
X122597800Y-105697800D02*
X124747800Y-105697800D01*
D10*
X127231200Y-100025400D02*
X127231200Y-98935600D01*
X132235000Y-100203200D02*
X132235000Y-101456600D01*
X127231200Y-98935600D02*
X127228800Y-98933200D01*
X111226800Y-104650200D02*
X111252200Y-104624800D01*
X109804400Y-107924800D02*
X109779000Y-107899400D01*
D54*
X106908800Y-104216400D02*
X106324600Y-104800600D01*
D10*
X113081000Y-104630200D02*
X113111400Y-104599800D01*
X112166600Y-104594800D02*
X112192000Y-104569400D01*
D54*
X112192000Y-104569400D02*
X111307600Y-104569400D01*
D10*
X106315400Y-96250000D02*
X107086600Y-95478800D01*
X106245000Y-96250000D02*
X106315400Y-96250000D01*
D54*
X108305800Y-105565200D02*
X109014400Y-105565200D01*
D10*
X105154200Y-106426200D02*
X105283200Y-106555200D01*
X108550000Y-99500000D02*
X110500000Y-99500000D01*
X122834600Y-102006700D02*
X123164900Y-102006700D01*
D54*
X106908800Y-103413800D02*
X106908800Y-104216400D01*
D10*
X101890000Y-107076200D02*
X102438400Y-107076200D01*
D54*
X114071600Y-104599800D02*
X113111400Y-104599800D01*
X109296400Y-105283200D02*
X109296400Y-104624800D01*
X104213400Y-106426200D02*
X105154200Y-106426200D01*
D10*
X113111400Y-104599800D02*
X113081000Y-104569400D01*
D54*
X125146000Y-102768600D02*
X125146000Y-102237600D01*
X119709800Y-108223600D02*
X119709800Y-107473600D01*
D10*
X108940600Y-105639000D02*
X109014400Y-105565200D01*
X117075000Y-104810600D02*
X115738100Y-104810600D01*
D54*
X108940600Y-107499000D02*
X108940600Y-108249000D01*
D10*
X103325900Y-107974100D02*
X103327400Y-107975600D01*
X130454600Y-94615200D02*
X131971800Y-94615200D01*
X102438400Y-107076200D02*
X103225900Y-107076200D01*
D54*
X115316200Y-105232500D02*
X114683500Y-104599800D01*
X123164900Y-102006700D02*
X123395800Y-102237600D01*
D10*
X109429400Y-108249000D02*
X109779000Y-107899400D01*
X124739600Y-103556000D02*
X124747800Y-103547800D01*
X119709800Y-107473600D02*
X119709800Y-107214200D01*
D54*
X123395800Y-102237600D02*
X124155400Y-102237600D01*
X104401500Y-104800600D02*
X103325900Y-105876200D01*
X104213400Y-106426200D02*
X103325900Y-106426200D01*
D53*
X124747800Y-105697800D02*
X124747800Y-103547800D01*
D54*
X106245000Y-102750000D02*
X106908800Y-103413800D01*
X111226800Y-105334000D02*
X111226800Y-104650200D01*
X124155400Y-102237600D02*
X125146000Y-102237600D01*
D10*
X101790400Y-107175800D02*
X101890000Y-107076200D01*
D54*
X118738000Y-106047600D02*
X120243800Y-106047600D01*
X120243800Y-106047600D02*
X121178600Y-106047600D01*
D10*
X122834600Y-96060600D02*
X122860000Y-96086000D01*
D54*
X121183600Y-106042600D02*
X122253000Y-106042600D01*
D10*
X111307600Y-104569400D02*
X111252200Y-104624800D01*
X115738100Y-104810600D02*
X115316200Y-105232500D01*
X117075000Y-104607400D02*
X117075000Y-104810600D01*
D53*
X103325900Y-106976200D02*
X103325900Y-107974100D01*
D54*
X109014400Y-105565200D02*
X109296400Y-105283200D01*
D53*
X103327400Y-107975600D02*
X104216400Y-107975600D01*
D10*
X117780000Y-92682400D02*
X117780000Y-91872000D01*
X101016000Y-107175800D02*
X101790400Y-107175800D01*
X108940600Y-108249000D02*
X109429400Y-108249000D01*
X121178600Y-106047600D02*
X121183600Y-106042600D01*
X113538200Y-107546200D02*
X114554200Y-107546200D01*
X122834600Y-95199400D02*
X122834600Y-96060600D01*
D54*
X113081000Y-105384800D02*
X113081000Y-104630200D01*
X124747800Y-103166800D02*
X125146000Y-102768600D01*
X118725000Y-106060600D02*
X118738000Y-106047600D01*
X112166600Y-105359400D02*
X112166600Y-104594800D01*
X114683500Y-104599800D02*
X114071600Y-104599800D01*
D53*
X114554200Y-108305800D02*
X114554200Y-107546200D01*
D54*
X113081000Y-104569400D02*
X112192000Y-104569400D01*
X119709800Y-107214200D02*
X120243800Y-106680200D01*
D10*
X132235000Y-101456600D02*
X131786600Y-101905000D01*
D54*
X120243800Y-106680200D02*
X120243800Y-106047600D01*
X108940600Y-107499000D02*
X108940600Y-105639000D01*
D10*
X122253000Y-106042600D02*
X122597800Y-105697800D01*
D53*
X103327400Y-107975600D02*
X102235200Y-107975600D01*
D10*
X124747800Y-103547800D02*
X124747800Y-103166800D01*
X107652410Y-100500000D02*
X108550000Y-100500000D01*
X106245000Y-98750000D02*
X107538400Y-98750000D01*
X106902410Y-99750000D02*
X107652410Y-100500000D01*
X106245000Y-99750000D02*
X106902410Y-99750000D01*
X107538400Y-98750000D02*
X107569200Y-98780800D01*
X107718096Y-100000000D02*
X108550000Y-100000000D01*
X106245000Y-100250000D02*
X105658302Y-100250000D01*
X105658302Y-100250000D02*
X105359400Y-99951098D01*
X106245000Y-99250000D02*
X106968096Y-99250000D01*
X105359400Y-99548902D02*
X105658302Y-99250000D01*
X106968096Y-99250000D02*
X107718096Y-100000000D01*
X105658302Y-99250000D02*
X106245000Y-99250000D01*
X105359400Y-99951098D02*
X105359400Y-99548902D01*
X101156000Y-105765800D02*
X102428000Y-105765800D01*
X101016000Y-105625800D02*
X101156000Y-105765800D01*
D54*
X108305800Y-103604800D02*
X107668800Y-103604800D01*
D53*
X106245000Y-97050000D02*
X107413200Y-97050000D01*
D54*
X101511000Y-105130800D02*
X101016000Y-105625800D01*
X107411000Y-103347000D02*
X107411000Y-101950000D01*
D10*
X102428000Y-105765800D02*
X102438400Y-105776200D01*
X102438400Y-105776200D02*
X102438400Y-106426200D01*
D54*
X107668800Y-103604800D02*
X107411000Y-103347000D01*
D53*
X106245000Y-101950000D02*
X107411000Y-101950000D01*
D10*
X107413200Y-97050000D02*
X107416800Y-97053600D01*
X107411000Y-101950000D02*
X107442200Y-101981200D01*
X101879600Y-105130800D02*
X101511000Y-105130800D01*
D55*
X113513452Y-97536200D02*
X114627252Y-98650000D01*
X113182600Y-97536200D02*
X113513452Y-97536200D01*
X114627252Y-98650000D02*
X114839000Y-98650000D01*
D10*
X124797200Y-97180600D02*
X124771800Y-97155200D01*
X126136600Y-97180600D02*
X124797200Y-97180600D01*
X128397200Y-104495800D02*
X126887400Y-104495800D01*
D55*
X114889000Y-98700000D02*
X115450000Y-98700000D01*
X114839000Y-98650000D02*
X114889000Y-98700000D01*
D10*
X126887400Y-104495800D02*
X126836600Y-104445000D01*
X129184600Y-95885200D02*
X131971800Y-95885200D01*
D55*
X114772226Y-98300000D02*
X113436600Y-96964374D01*
D10*
X130302200Y-103175000D02*
X130276800Y-103200400D01*
X131786600Y-103175000D02*
X130302200Y-103175000D01*
D55*
X115450000Y-98300000D02*
X114772226Y-98300000D01*
X113436600Y-96964374D02*
X113436600Y-96494800D01*
D10*
X119380200Y-95402600D02*
X119405600Y-95428000D01*
D55*
X119405600Y-95428000D02*
X119405600Y-96344400D01*
D10*
X129087000Y-100906400D02*
X129087000Y-102180400D01*
X131786600Y-105715000D02*
X130327600Y-105715000D01*
X119405600Y-96344400D02*
X119400000Y-96350000D01*
X129087000Y-102180400D02*
X128829000Y-102438400D01*
D55*
X122961600Y-98298200D02*
X123317200Y-98653800D01*
D54*
X117059800Y-108223600D02*
X117059800Y-107473600D01*
D10*
X116962200Y-107571200D02*
X117059800Y-107473600D01*
X128587000Y-100906400D02*
X128587000Y-101613600D01*
X134290000Y-97460000D02*
X134290000Y-97942600D01*
X115545200Y-107444600D02*
X115570200Y-107469600D01*
X109728200Y-92202200D02*
X109073200Y-92202200D01*
X115570200Y-107571200D02*
X116962200Y-107571200D01*
X117697800Y-107473600D02*
X117703800Y-107467600D01*
X109073200Y-92202200D02*
X109057600Y-92186600D01*
D55*
X121351800Y-98298200D02*
X122961600Y-98298200D01*
D10*
X121350000Y-98300000D02*
X121351800Y-98298200D01*
X128587000Y-101613600D02*
X128575000Y-101625600D01*
X134290000Y-97942600D02*
X133528000Y-98704600D01*
X117059800Y-107473600D02*
X117697800Y-107473600D01*
X124155400Y-100048400D02*
X124178400Y-100025400D01*
X122580600Y-103565000D02*
X122597800Y-103547800D01*
X124155400Y-101267600D02*
X123472000Y-101267600D01*
X123472000Y-101267600D02*
X123469600Y-101270000D01*
X122580600Y-104622800D02*
X122580600Y-103565000D01*
D54*
X124155400Y-101267600D02*
X124155400Y-100048400D01*
D10*
X110007600Y-95758200D02*
X110500000Y-96250600D01*
D55*
X117400000Y-102250000D02*
X117400000Y-103034624D01*
X116814800Y-103619824D02*
X116814800Y-103810000D01*
D10*
X110500000Y-96250600D02*
X110500000Y-97550000D01*
D55*
X117400000Y-103034624D02*
X116814800Y-103619824D01*
D10*
X111000000Y-95912400D02*
X111000000Y-97550000D01*
D55*
X117800000Y-102250000D02*
X117800000Y-103129601D01*
X117399000Y-103530600D02*
X117399000Y-104064000D01*
X117800000Y-103129601D02*
X117399000Y-103530600D01*
D10*
X117399000Y-104064000D02*
X117373600Y-104089400D01*
X110845800Y-95758200D02*
X111000000Y-95912400D01*
D55*
X114188549Y-99900000D02*
X115450000Y-99900000D01*
D10*
X126162000Y-94615200D02*
X124771800Y-94615200D01*
X126847800Y-94615200D02*
X126162000Y-94615200D01*
X126162000Y-95047000D02*
X126162000Y-94615200D01*
D55*
X114174537Y-99914012D02*
X114188549Y-99900000D01*
D10*
X126862000Y-101828800D02*
X127925800Y-100765000D01*
X127925800Y-95693200D02*
X126847800Y-94615200D01*
X127925800Y-100765000D02*
X127925800Y-95693200D01*
D55*
X114523833Y-100436167D02*
X114660000Y-100300000D01*
X114379060Y-100436167D02*
X114523833Y-100436167D01*
D10*
X131971800Y-97155200D02*
X130480000Y-97155200D01*
X131735800Y-104495800D02*
X131786600Y-104445000D01*
X130276800Y-104495800D02*
X131735800Y-104495800D01*
D55*
X114660000Y-100300000D02*
X115450000Y-100300000D01*
D10*
X115443200Y-92681500D02*
X116737700Y-92681500D01*
X116737700Y-92681500D02*
X116738600Y-92682400D01*
D55*
X114249400Y-97282200D02*
X114249400Y-95050300D01*
X115450000Y-97900000D02*
X114867200Y-97900000D01*
X114867200Y-97900000D02*
X114249400Y-97282200D01*
X114249400Y-95050300D02*
X115443200Y-93856500D01*
D10*
X111624400Y-108282800D02*
X111590600Y-108249000D01*
X110795000Y-107924800D02*
X110845800Y-107924800D01*
X111590600Y-107499000D02*
X111590600Y-107027600D01*
X110795000Y-107924800D02*
X110795000Y-107899400D01*
D55*
X116600000Y-95725000D02*
X116922400Y-95402600D01*
D10*
X112042000Y-106576200D02*
X112522200Y-106576200D01*
D55*
X116600000Y-96350000D02*
X116600000Y-95725000D01*
D10*
X113436600Y-92202200D02*
X112682400Y-92202200D01*
D55*
X116922400Y-95402600D02*
X117424400Y-95402600D01*
D10*
X112682400Y-92202200D02*
X112674600Y-92194400D01*
X111590600Y-107027600D02*
X112042000Y-106576200D01*
X111170000Y-108249000D02*
X111590600Y-108249000D01*
X110845800Y-107924800D02*
X111170000Y-108249000D01*
D54*
X111590600Y-108249000D02*
X111590600Y-107499000D01*
D55*
X121350000Y-99100000D02*
X122290200Y-99100000D01*
D10*
X134290000Y-95402600D02*
X133502600Y-96190000D01*
X134290000Y-94920000D02*
X134290000Y-95402600D01*
D55*
X122290200Y-99100000D02*
X122631400Y-99441200D01*
D10*
X127940000Y-93650000D02*
X127940000Y-93640000D01*
X127940000Y-93640000D02*
X129200000Y-92380000D01*
D55*
X121350000Y-97500000D02*
X122058000Y-97500000D01*
D10*
X122160577Y-97397423D02*
X122198380Y-97397423D01*
D55*
X122058000Y-97500000D02*
X122160577Y-97397423D01*
D10*
X134219200Y-92400000D02*
X132994600Y-93624600D01*
D55*
X121350000Y-98700000D02*
X122597307Y-98700000D01*
D10*
X134300000Y-92400000D02*
X134219200Y-92400000D01*
D55*
X122597307Y-98700000D02*
X122670072Y-98772765D01*
X121350000Y-97900000D02*
X122708200Y-97900000D01*
D10*
X130454600Y-93645400D02*
X131700000Y-92400000D01*
D55*
X122708200Y-97900000D02*
X122834600Y-97773600D01*
D10*
X130454600Y-93650000D02*
X130454600Y-93645400D01*
D55*
X118129400Y-104160600D02*
X118775600Y-104160600D01*
D10*
X117045600Y-106031200D02*
X114083200Y-106031200D01*
X117075000Y-106060600D02*
X117045600Y-106031200D01*
X117075000Y-106060600D02*
X117383600Y-106060600D01*
D55*
X117932400Y-104357600D02*
X118129400Y-104160600D01*
D56*
X118775600Y-104160600D02*
X119000000Y-103936200D01*
D55*
X117383600Y-106060600D02*
X117932400Y-105511800D01*
X117932400Y-105511800D02*
X117932400Y-104357600D01*
X119000000Y-103936200D02*
X119000000Y-102250000D01*
D10*
X114083200Y-106031200D02*
X113538200Y-106576200D01*
D55*
X119397200Y-104580400D02*
X119167000Y-104810600D01*
X119400000Y-102250000D02*
X119400000Y-102933012D01*
D10*
X119427600Y-105077600D02*
X120243800Y-105077600D01*
X119167000Y-104810600D02*
X118725000Y-104810600D01*
D55*
X119397200Y-102935811D02*
X119397200Y-104580400D01*
D10*
X119160600Y-104810600D02*
X119427600Y-105077600D01*
X118725000Y-104810600D02*
X119160600Y-104810600D01*
D55*
X121350000Y-101100000D02*
X122156600Y-101100000D01*
D10*
X125146000Y-101267600D02*
X125504000Y-101267600D01*
D54*
X125148400Y-100025400D02*
X125148400Y-101265200D01*
D55*
X122156600Y-101100000D02*
X122275800Y-101219200D01*
D10*
X125148400Y-101265200D02*
X125146000Y-101267600D01*
X125504000Y-101267600D02*
X125933400Y-100838200D01*
X121236400Y-103429000D02*
X121236400Y-104228600D01*
D55*
X120600000Y-102792600D02*
X121236400Y-103429000D01*
D10*
X121275000Y-104991200D02*
X121183600Y-105082600D01*
X121236400Y-104228600D02*
X121275000Y-104267200D01*
X121275000Y-104267200D02*
X121275000Y-104991200D01*
D55*
X120600000Y-102250000D02*
X120600000Y-102792600D01*
D10*
X120216400Y-103429000D02*
X120635000Y-103847600D01*
D55*
X120200000Y-102250000D02*
X120200000Y-103412600D01*
D10*
X120635000Y-103847600D02*
X120635000Y-104267200D01*
X120200000Y-103412600D02*
X120216400Y-103429000D01*
X112752800Y-93728200D02*
X112752800Y-95783600D01*
X111500000Y-97150001D02*
X112104401Y-96545600D01*
X112567400Y-93542800D02*
X112752800Y-93728200D01*
X112752800Y-96391200D02*
X112752800Y-95783600D01*
X111500000Y-97550000D02*
X111500000Y-97150001D01*
X110601400Y-93542800D02*
X112567400Y-93542800D01*
X110007600Y-94136600D02*
X110601400Y-93542800D01*
X112598400Y-96545600D02*
X112752800Y-96391200D01*
X112104401Y-96545600D02*
X112598400Y-96545600D01*
X108107600Y-94386600D02*
X108107600Y-95751200D01*
X108107600Y-95751200D02*
X108100600Y-95758200D01*
X111724600Y-94394400D02*
X111724600Y-95775400D01*
X109120600Y-96471400D02*
X109500000Y-96850800D01*
X113624600Y-93507800D02*
X113624600Y-94394400D01*
X109120600Y-95758200D02*
X109120600Y-93800400D01*
X109500000Y-96850800D02*
X109500000Y-97550000D01*
X109120600Y-93800400D02*
X109855200Y-93065800D01*
X113182600Y-93065800D02*
X113624600Y-93507800D01*
X109855200Y-93065800D02*
X113182600Y-93065800D01*
X109120600Y-95758200D02*
X109120600Y-96471400D01*
X109296400Y-103604800D02*
X109296400Y-103634200D01*
X109500000Y-103401200D02*
X109296400Y-103604800D01*
X109296400Y-103634200D02*
X108305800Y-104624800D01*
X109500000Y-102450000D02*
X109500000Y-103401200D01*
X110000000Y-102450000D02*
X110000000Y-103317800D01*
X110000000Y-103317800D02*
X110287000Y-103604800D01*
X111000000Y-102450000D02*
X111000000Y-103352600D01*
X111000000Y-103352600D02*
X111252200Y-103604800D01*
X105287800Y-105539800D02*
X105283200Y-105535200D01*
X107289800Y-105535200D02*
X106303800Y-105535200D01*
X105283200Y-105535200D02*
X104454400Y-105535200D01*
X104454400Y-105535200D02*
X104213400Y-105776200D01*
X106299200Y-105539800D02*
X105287800Y-105539800D01*
X106303800Y-105535200D02*
X106299200Y-105539800D01*
X104667500Y-107076200D02*
X105490700Y-107899400D01*
X104213400Y-107076200D02*
X104667500Y-107076200D01*
X126836600Y-103175000D02*
X129184600Y-103175000D01*
D55*
X114473439Y-99500000D02*
X115450000Y-99500000D01*
D10*
X129587000Y-102772600D02*
X129587000Y-100906400D01*
X124797200Y-95910600D02*
X124771800Y-95885200D01*
X126111200Y-95910600D02*
X124797200Y-95910600D01*
D55*
X114361273Y-99387834D02*
X114473439Y-99500000D01*
D10*
X129184600Y-103175000D02*
X129587000Y-102772600D01*
X126136600Y-95936000D02*
X126111200Y-95910600D01*
D55*
X114224000Y-98833648D02*
X114393986Y-98833648D01*
D10*
X130708600Y-98425200D02*
X131971800Y-98425200D01*
X130099000Y-101524000D02*
X130099000Y-100918400D01*
X130200600Y-101625600D02*
X130099000Y-101524000D01*
D55*
X114393986Y-98833648D02*
X114660338Y-99100000D01*
X114660338Y-99100000D02*
X115450000Y-99100000D01*
D10*
X130099000Y-100918400D02*
X130087000Y-100906400D01*
X121600000Y-92400000D02*
X120200000Y-93800000D01*
D55*
X120200000Y-93800000D02*
X120200000Y-96350000D01*
D10*
X121350000Y-97100000D02*
X121350000Y-95058400D01*
X121350000Y-95058400D02*
X122885400Y-93523000D01*
X122885400Y-93523000D02*
X125527000Y-93523000D01*
X125527000Y-93523000D02*
X126670000Y-92380000D01*
X124130000Y-92380000D02*
X123114000Y-92380000D01*
X120599400Y-96349400D02*
X120600000Y-96350000D01*
D55*
X120599400Y-94894600D02*
X120599400Y-96349400D01*
D10*
X123114000Y-92380000D02*
X120599400Y-94894600D01*
D55*
X118200000Y-103263000D02*
X118200000Y-102250000D01*
X117932400Y-103657631D02*
X117932400Y-103530600D01*
X117932400Y-103530600D02*
X118200000Y-103263000D01*
D10*
X127202600Y-108102600D02*
X126800000Y-107700000D01*
D55*
X116200000Y-103780000D02*
X116175252Y-103780000D01*
D10*
X125552400Y-106934200D02*
X125065800Y-106934200D01*
D55*
X117000000Y-102250000D02*
X117000000Y-102964400D01*
D10*
X125065800Y-106934200D02*
X124300000Y-107700000D01*
D55*
X116995452Y-102984548D02*
X116200000Y-103780000D01*
X116269676Y-103175000D02*
X116600000Y-102844676D01*
D10*
X123063200Y-106959600D02*
X122540400Y-106959600D01*
D55*
X116600000Y-102844676D02*
X116600000Y-102250000D01*
X116052800Y-103175000D02*
X116269676Y-103175000D01*
D10*
X122540400Y-106959600D02*
X121800000Y-107700000D01*
D55*
X114401799Y-102362200D02*
X114250000Y-102362200D01*
D10*
X129503100Y-108153400D02*
X129300000Y-108356500D01*
D55*
X115263999Y-101500000D02*
X114401799Y-102362200D01*
D10*
X115450000Y-101500000D02*
X115263999Y-101500000D01*
D55*
X115450000Y-101500000D02*
X115125000Y-101500000D01*
D10*
X129300000Y-108356500D02*
X129300000Y-107721500D01*
D55*
X115027602Y-101100000D02*
X115450000Y-101100000D01*
X114538801Y-101588801D02*
X115027602Y-101100000D01*
D10*
X134315400Y-107706100D02*
X134300000Y-107721500D01*
D55*
X115450000Y-100700000D02*
X114699400Y-100700000D01*
X114395590Y-101023607D02*
X114699400Y-100719797D01*
X114175000Y-101023607D02*
X114395590Y-101023607D01*
G04 #@! TA.AperFunction,Conductor*
G36*
X102242108Y-91620185D02*
G01*
X102287863Y-91672989D01*
X102299069Y-91724500D01*
X102299069Y-92859425D01*
X105335023Y-92859425D01*
X105335023Y-91724500D01*
X105354708Y-91657461D01*
X105407512Y-91611706D01*
X105459023Y-91600500D01*
X108483100Y-91600500D01*
X108550139Y-91620185D01*
X108595894Y-91672989D01*
X108607100Y-91724500D01*
X108607100Y-92751420D01*
X108607100Y-92751422D01*
X108607099Y-92751422D01*
X108615831Y-92795317D01*
X108615834Y-92795324D01*
X108645688Y-92840004D01*
X108649096Y-92845104D01*
X108698878Y-92878367D01*
X108698881Y-92878367D01*
X108698882Y-92878368D01*
X108742777Y-92887100D01*
X109378512Y-92887100D01*
X109378512Y-92889441D01*
X109436947Y-92900516D01*
X109487663Y-92948574D01*
X109504346Y-93016423D01*
X109481699Y-93082520D01*
X109468150Y-93098588D01*
X108978703Y-93588036D01*
X108908237Y-93658501D01*
X108908236Y-93658502D01*
X108870100Y-93750570D01*
X108870100Y-95234902D01*
X108850415Y-95301941D01*
X108828567Y-95324442D01*
X108829584Y-95325459D01*
X108745984Y-95409059D01*
X108745980Y-95409066D01*
X108724032Y-95458771D01*
X108678945Y-95512147D01*
X108612159Y-95532673D01*
X108544877Y-95513834D01*
X108498462Y-95461609D01*
X108497190Y-95458824D01*
X108475216Y-95409059D01*
X108399741Y-95333584D01*
X108399740Y-95333583D01*
X108394418Y-95328261D01*
X108360934Y-95266937D01*
X108358100Y-95240580D01*
X108358100Y-95201658D01*
X108377785Y-95134619D01*
X108430589Y-95088864D01*
X108457907Y-95080040D01*
X108466322Y-95078367D01*
X108516104Y-95045104D01*
X108549367Y-94995322D01*
X108555457Y-94964709D01*
X108558100Y-94951422D01*
X108558100Y-93821777D01*
X108549368Y-93777882D01*
X108549367Y-93777881D01*
X108549367Y-93777878D01*
X108516104Y-93728096D01*
X108516103Y-93728095D01*
X108466324Y-93694834D01*
X108466317Y-93694831D01*
X108422422Y-93686100D01*
X108422420Y-93686100D01*
X107792780Y-93686100D01*
X107792778Y-93686100D01*
X107748882Y-93694831D01*
X107748875Y-93694834D01*
X107699096Y-93728095D01*
X107699095Y-93728096D01*
X107665834Y-93777875D01*
X107665831Y-93777882D01*
X107657100Y-93821777D01*
X107657100Y-93821780D01*
X107657100Y-94951420D01*
X107657100Y-94951422D01*
X107657099Y-94951422D01*
X107665831Y-94995317D01*
X107665834Y-94995324D01*
X107698203Y-95043768D01*
X107699096Y-95045104D01*
X107748878Y-95078367D01*
X107757290Y-95080040D01*
X107819201Y-95112425D01*
X107853776Y-95173140D01*
X107857100Y-95201658D01*
X107857100Y-95230107D01*
X107837415Y-95297146D01*
X107803178Y-95332406D01*
X107801460Y-95333582D01*
X107725984Y-95409059D01*
X107725981Y-95409063D01*
X107682870Y-95506699D01*
X107680100Y-95530575D01*
X107680100Y-95985815D01*
X107680101Y-95985824D01*
X107682869Y-96009695D01*
X107682869Y-96009698D01*
X107725980Y-96107335D01*
X107725983Y-96107339D01*
X107725984Y-96107341D01*
X107801459Y-96182816D01*
X107801462Y-96182817D01*
X107801463Y-96182818D01*
X107899099Y-96225929D01*
X107899100Y-96225929D01*
X107899102Y-96225930D01*
X107922977Y-96228700D01*
X108278222Y-96228699D01*
X108302098Y-96225930D01*
X108399735Y-96182819D01*
X108399736Y-96182818D01*
X108399741Y-96182816D01*
X108475216Y-96107341D01*
X108497166Y-96057630D01*
X108542251Y-96004254D01*
X108609038Y-95983726D01*
X108676320Y-96002564D01*
X108722736Y-96054787D01*
X108724034Y-96057630D01*
X108745034Y-96105191D01*
X108745984Y-96107341D01*
X108745986Y-96107343D01*
X108829584Y-96190941D01*
X108827478Y-96193046D01*
X108860352Y-96233304D01*
X108870100Y-96281496D01*
X108870100Y-96521229D01*
X108902736Y-96600018D01*
X108908236Y-96613297D01*
X109077873Y-96782934D01*
X109213181Y-96918241D01*
X109246666Y-96979564D01*
X109249500Y-97005922D01*
X109249500Y-97074205D01*
X109240062Y-97121655D01*
X109236857Y-97129391D01*
X109224500Y-97191515D01*
X109224500Y-97908484D01*
X109236857Y-97970609D01*
X109251295Y-97992216D01*
X109283935Y-98041065D01*
X109322124Y-98066582D01*
X109354390Y-98088142D01*
X109416515Y-98100499D01*
X109416519Y-98100500D01*
X109416520Y-98100500D01*
X109583481Y-98100500D01*
X109583482Y-98100499D01*
X109645609Y-98088142D01*
X109681110Y-98064421D01*
X109747784Y-98043543D01*
X109815165Y-98062026D01*
X109818850Y-98064394D01*
X109854391Y-98088142D01*
X109911156Y-98099433D01*
X109916515Y-98100499D01*
X109916519Y-98100500D01*
X109916520Y-98100500D01*
X110083481Y-98100500D01*
X110083482Y-98100499D01*
X110145609Y-98088142D01*
X110181110Y-98064421D01*
X110247784Y-98043543D01*
X110315165Y-98062026D01*
X110318850Y-98064394D01*
X110354391Y-98088142D01*
X110411156Y-98099433D01*
X110416515Y-98100499D01*
X110416519Y-98100500D01*
X110416520Y-98100500D01*
X110583481Y-98100500D01*
X110583482Y-98100499D01*
X110645609Y-98088142D01*
X110681110Y-98064421D01*
X110747784Y-98043543D01*
X110815165Y-98062026D01*
X110818850Y-98064394D01*
X110854391Y-98088142D01*
X110911156Y-98099433D01*
X110916515Y-98100499D01*
X110916519Y-98100500D01*
X110916520Y-98100500D01*
X111083481Y-98100500D01*
X111083482Y-98100499D01*
X111145609Y-98088142D01*
X111181110Y-98064421D01*
X111247784Y-98043543D01*
X111315165Y-98062026D01*
X111318850Y-98064394D01*
X111354391Y-98088142D01*
X111411156Y-98099433D01*
X111416515Y-98100499D01*
X111416519Y-98100500D01*
X111416520Y-98100500D01*
X111583481Y-98100500D01*
X111583482Y-98100499D01*
X111645609Y-98088142D01*
X111681110Y-98064421D01*
X111747784Y-98043543D01*
X111815165Y-98062026D01*
X111818850Y-98064394D01*
X111854391Y-98088142D01*
X111911156Y-98099433D01*
X111916515Y-98100499D01*
X111916519Y-98100500D01*
X111916520Y-98100500D01*
X112083481Y-98100500D01*
X112083482Y-98100499D01*
X112145609Y-98088142D01*
X112181110Y-98064421D01*
X112247784Y-98043543D01*
X112315165Y-98062026D01*
X112318850Y-98064394D01*
X112354391Y-98088142D01*
X112411156Y-98099433D01*
X112416515Y-98100499D01*
X112416519Y-98100500D01*
X112416520Y-98100500D01*
X112583481Y-98100500D01*
X112583482Y-98100499D01*
X112645609Y-98088142D01*
X112716065Y-98041065D01*
X112763142Y-97970609D01*
X112767060Y-97950907D01*
X112799444Y-97888997D01*
X112860159Y-97854422D01*
X112929929Y-97858161D01*
X112944963Y-97864609D01*
X113057296Y-97921846D01*
X113057299Y-97921847D01*
X113182597Y-97941692D01*
X113182600Y-97941692D01*
X113182603Y-97941692D01*
X113307900Y-97921847D01*
X113307901Y-97921846D01*
X113307904Y-97921846D01*
X113393960Y-97877997D01*
X113462628Y-97865102D01*
X113527368Y-97891378D01*
X113537935Y-97900802D01*
X113649952Y-98012819D01*
X113683437Y-98074142D01*
X113678453Y-98143834D01*
X113636581Y-98199767D01*
X113571117Y-98224184D01*
X113562271Y-98224500D01*
X113091515Y-98224500D01*
X113029390Y-98236857D01*
X112958935Y-98283935D01*
X112911857Y-98354390D01*
X112899500Y-98416515D01*
X112899500Y-98583484D01*
X112911857Y-98645609D01*
X112935578Y-98681109D01*
X112956456Y-98747786D01*
X112937972Y-98815166D01*
X112935578Y-98818891D01*
X112911857Y-98854390D01*
X112899500Y-98916515D01*
X112899500Y-99083484D01*
X112911857Y-99145609D01*
X112935578Y-99181109D01*
X112956456Y-99247786D01*
X112937972Y-99315166D01*
X112935578Y-99318891D01*
X112911857Y-99354390D01*
X112899500Y-99416515D01*
X112899500Y-99583484D01*
X112911857Y-99645609D01*
X112935578Y-99681109D01*
X112956456Y-99747786D01*
X112937972Y-99815166D01*
X112935578Y-99818891D01*
X112911857Y-99854390D01*
X112899500Y-99916515D01*
X112899500Y-100083484D01*
X112911857Y-100145609D01*
X112935578Y-100181109D01*
X112956456Y-100247786D01*
X112937972Y-100315166D01*
X112935578Y-100318891D01*
X112911857Y-100354390D01*
X112899500Y-100416515D01*
X112899500Y-100583484D01*
X112911857Y-100645609D01*
X112935578Y-100681109D01*
X112956456Y-100747786D01*
X112937972Y-100815166D01*
X112935578Y-100818891D01*
X112911857Y-100854390D01*
X112899500Y-100916515D01*
X112899500Y-101083484D01*
X112911857Y-101145609D01*
X112935578Y-101181109D01*
X112956456Y-101247786D01*
X112937972Y-101315166D01*
X112935578Y-101318891D01*
X112911857Y-101354390D01*
X112899500Y-101416515D01*
X112899500Y-101583484D01*
X112911857Y-101645609D01*
X112931825Y-101675492D01*
X112958935Y-101716065D01*
X112998239Y-101742327D01*
X113029390Y-101763142D01*
X113091515Y-101775499D01*
X113091519Y-101775500D01*
X113091520Y-101775500D01*
X113808481Y-101775500D01*
X113808482Y-101775499D01*
X113870609Y-101763142D01*
X113941065Y-101716065D01*
X113944423Y-101711039D01*
X113998032Y-101666235D01*
X114067357Y-101657525D01*
X114130385Y-101687678D01*
X114158009Y-101723633D01*
X114197929Y-101801979D01*
X114210826Y-101870648D01*
X114184550Y-101935389D01*
X114133140Y-101971631D01*
X114133391Y-101972124D01*
X114129965Y-101973869D01*
X114127444Y-101975647D01*
X114125778Y-101976201D01*
X114124704Y-101976549D01*
X114063404Y-102007784D01*
X114011658Y-102034150D01*
X114011657Y-102034151D01*
X114011652Y-102034154D01*
X113921954Y-102123852D01*
X113921951Y-102123857D01*
X113921950Y-102123858D01*
X113918209Y-102131200D01*
X113864352Y-102236898D01*
X113864352Y-102236899D01*
X113844508Y-102362196D01*
X113844508Y-102362203D01*
X113864352Y-102487500D01*
X113864352Y-102487501D01*
X113864354Y-102487504D01*
X113921950Y-102600542D01*
X113921952Y-102600544D01*
X113921954Y-102600547D01*
X114011652Y-102690245D01*
X114011654Y-102690246D01*
X114011658Y-102690250D01*
X114124696Y-102747846D01*
X114124697Y-102747846D01*
X114124699Y-102747847D01*
X114249997Y-102767692D01*
X114250000Y-102767692D01*
X114250003Y-102767692D01*
X114375300Y-102747847D01*
X114375301Y-102747847D01*
X114375302Y-102747846D01*
X114375304Y-102747846D01*
X114488342Y-102690250D01*
X114578050Y-102600542D01*
X114626269Y-102505908D01*
X114640078Y-102478807D01*
X114640789Y-102479169D01*
X114665855Y-102438261D01*
X114739605Y-102364511D01*
X114800926Y-102331028D01*
X114870618Y-102336012D01*
X114926551Y-102377884D01*
X114941845Y-102404742D01*
X114956110Y-102439181D01*
X114951960Y-102440899D01*
X114965676Y-102484394D01*
X114965700Y-102486858D01*
X114965700Y-102986339D01*
X114946015Y-103053378D01*
X114896161Y-103097739D01*
X114819588Y-103135174D01*
X114819587Y-103135174D01*
X114730973Y-103223788D01*
X114728427Y-103227355D01*
X114673451Y-103270476D01*
X114627511Y-103279300D01*
X114488291Y-103279300D01*
X114421252Y-103259615D01*
X114418276Y-103257217D01*
X114418096Y-103257481D01*
X114408616Y-103250987D01*
X114309263Y-103207118D01*
X114284973Y-103204300D01*
X113858234Y-103204300D01*
X113858211Y-103204302D01*
X113833940Y-103207117D01*
X113833937Y-103207118D01*
X113734584Y-103250986D01*
X113725104Y-103257481D01*
X113722635Y-103253877D01*
X113681267Y-103276466D01*
X113654909Y-103279300D01*
X113523091Y-103279300D01*
X113456052Y-103259615D01*
X113435410Y-103242981D01*
X113418016Y-103225587D01*
X113318663Y-103181718D01*
X113294373Y-103178900D01*
X112867634Y-103178900D01*
X112867611Y-103178902D01*
X112843340Y-103181717D01*
X112843337Y-103181718D01*
X112743984Y-103225586D01*
X112734504Y-103232081D01*
X112733166Y-103230129D01*
X112685667Y-103256066D01*
X112659309Y-103258900D01*
X112613691Y-103258900D01*
X112546652Y-103239215D01*
X112533848Y-103228897D01*
X112529362Y-103225824D01*
X112528069Y-103224240D01*
X112526010Y-103222581D01*
X112520891Y-103217462D01*
X112521797Y-103216555D01*
X112485181Y-103171696D01*
X112477278Y-103102275D01*
X112508161Y-103039601D01*
X112568025Y-103003573D01*
X112577541Y-103001871D01*
X112577505Y-103001689D01*
X112645609Y-102988142D01*
X112650365Y-102984964D01*
X112716065Y-102941065D01*
X112763142Y-102870609D01*
X112775500Y-102808480D01*
X112775500Y-102091520D01*
X112767789Y-102052754D01*
X112763142Y-102029390D01*
X112731441Y-101981947D01*
X112716065Y-101958935D01*
X112680826Y-101935389D01*
X112645609Y-101911857D01*
X112583484Y-101899500D01*
X112583480Y-101899500D01*
X112416520Y-101899500D01*
X112416515Y-101899500D01*
X112354390Y-101911857D01*
X112318891Y-101935578D01*
X112252214Y-101956456D01*
X112184834Y-101937972D01*
X112181109Y-101935578D01*
X112145609Y-101911857D01*
X112083484Y-101899500D01*
X112083480Y-101899500D01*
X111916520Y-101899500D01*
X111916515Y-101899500D01*
X111854390Y-101911857D01*
X111818891Y-101935578D01*
X111752214Y-101956456D01*
X111684834Y-101937972D01*
X111681109Y-101935578D01*
X111645609Y-101911857D01*
X111583484Y-101899500D01*
X111583480Y-101899500D01*
X111416520Y-101899500D01*
X111416515Y-101899500D01*
X111354390Y-101911857D01*
X111318891Y-101935578D01*
X111252214Y-101956456D01*
X111184834Y-101937972D01*
X111181109Y-101935578D01*
X111145609Y-101911857D01*
X111083484Y-101899500D01*
X111083480Y-101899500D01*
X110916520Y-101899500D01*
X110916515Y-101899500D01*
X110854390Y-101911857D01*
X110818891Y-101935578D01*
X110752214Y-101956456D01*
X110684834Y-101937972D01*
X110681109Y-101935578D01*
X110645609Y-101911857D01*
X110583484Y-101899500D01*
X110583480Y-101899500D01*
X110416520Y-101899500D01*
X110416515Y-101899500D01*
X110354390Y-101911857D01*
X110318891Y-101935578D01*
X110252214Y-101956456D01*
X110184834Y-101937972D01*
X110181109Y-101935578D01*
X110145609Y-101911857D01*
X110083484Y-101899500D01*
X110083480Y-101899500D01*
X109916520Y-101899500D01*
X109916515Y-101899500D01*
X109854390Y-101911857D01*
X109818891Y-101935578D01*
X109752214Y-101956456D01*
X109684834Y-101937972D01*
X109681109Y-101935578D01*
X109645609Y-101911857D01*
X109583484Y-101899500D01*
X109583480Y-101899500D01*
X109416520Y-101899500D01*
X109416515Y-101899500D01*
X109354390Y-101911857D01*
X109283935Y-101958935D01*
X109236855Y-102029394D01*
X109235420Y-102032859D01*
X109230270Y-102039248D01*
X109230072Y-102039546D01*
X109230045Y-102039528D01*
X109191578Y-102087261D01*
X109125283Y-102109323D01*
X109057584Y-102092042D01*
X109022488Y-102060891D01*
X108952421Y-101969579D01*
X108952418Y-101969576D01*
X108952416Y-101969574D01*
X108946674Y-101963832D01*
X108948063Y-101962442D01*
X108913161Y-101914647D01*
X108909003Y-101844901D01*
X108943212Y-101783979D01*
X108960957Y-101769591D01*
X108970608Y-101763142D01*
X108970609Y-101763142D01*
X109041065Y-101716065D01*
X109088142Y-101645609D01*
X109100500Y-101583480D01*
X109100500Y-101416520D01*
X109088142Y-101354391D01*
X109064421Y-101318889D01*
X109043543Y-101252216D01*
X109062026Y-101184835D01*
X109064394Y-101181149D01*
X109088142Y-101145609D01*
X109100500Y-101083480D01*
X109100500Y-100916520D01*
X109088142Y-100854391D01*
X109064421Y-100818889D01*
X109043543Y-100752216D01*
X109062026Y-100684835D01*
X109064394Y-100681149D01*
X109088142Y-100645609D01*
X109100500Y-100583480D01*
X109100500Y-100416520D01*
X109088142Y-100354391D01*
X109064421Y-100318889D01*
X109043543Y-100252216D01*
X109062026Y-100184835D01*
X109064394Y-100181149D01*
X109088142Y-100145609D01*
X109100500Y-100083480D01*
X109100500Y-99916520D01*
X109088142Y-99854391D01*
X109088142Y-99854390D01*
X109066361Y-99821794D01*
X109041065Y-99783935D01*
X109000010Y-99756503D01*
X108970609Y-99736857D01*
X108908484Y-99724500D01*
X108908480Y-99724500D01*
X108191520Y-99724500D01*
X108191515Y-99724500D01*
X108129391Y-99736857D01*
X108121660Y-99740060D01*
X108074206Y-99749500D01*
X107873219Y-99749500D01*
X107806180Y-99729815D01*
X107785538Y-99713181D01*
X107425541Y-99353184D01*
X107392056Y-99291861D01*
X107397040Y-99222169D01*
X107438912Y-99166236D01*
X107504376Y-99141819D01*
X107532620Y-99143030D01*
X107645398Y-99160892D01*
X107645400Y-99160892D01*
X107645403Y-99160892D01*
X107770700Y-99141047D01*
X107770702Y-99141046D01*
X107770704Y-99141046D01*
X107850154Y-99100563D01*
X107918822Y-99087667D01*
X107983563Y-99113943D01*
X108009551Y-99142157D01*
X108011858Y-99145609D01*
X108058935Y-99216065D01*
X108091129Y-99237576D01*
X108129390Y-99263142D01*
X108191515Y-99275499D01*
X108191519Y-99275500D01*
X108191520Y-99275500D01*
X108908481Y-99275500D01*
X108908482Y-99275499D01*
X108970609Y-99263142D01*
X109041065Y-99216065D01*
X109088142Y-99145609D01*
X109100500Y-99083480D01*
X109100500Y-98916520D01*
X109088142Y-98854391D01*
X109064421Y-98818889D01*
X109043543Y-98752216D01*
X109062026Y-98684835D01*
X109064394Y-98681149D01*
X109088142Y-98645609D01*
X109100500Y-98583480D01*
X109100500Y-98416520D01*
X109095660Y-98392185D01*
X109088142Y-98354390D01*
X109064464Y-98318954D01*
X109041065Y-98283935D01*
X109009413Y-98262786D01*
X108970609Y-98236857D01*
X108908484Y-98224500D01*
X108908480Y-98224500D01*
X108191520Y-98224500D01*
X108191515Y-98224500D01*
X108129390Y-98236857D01*
X108058935Y-98283935D01*
X108005072Y-98364546D01*
X108001674Y-98362276D01*
X107972040Y-98399030D01*
X107905739Y-98421075D01*
X107845056Y-98407638D01*
X107770704Y-98369754D01*
X107770703Y-98369753D01*
X107770700Y-98369752D01*
X107645403Y-98349908D01*
X107645397Y-98349908D01*
X107520099Y-98369752D01*
X107520098Y-98369752D01*
X107445745Y-98407638D01*
X107407058Y-98427350D01*
X107407057Y-98427351D01*
X107407053Y-98427353D01*
X107371228Y-98463180D01*
X107309906Y-98496666D01*
X107283546Y-98499500D01*
X107141302Y-98499500D01*
X107074263Y-98479815D01*
X107028508Y-98427011D01*
X107018564Y-98357853D01*
X107019680Y-98351329D01*
X107020500Y-98347211D01*
X107020499Y-98152790D01*
X107007417Y-98087014D01*
X107007415Y-98087012D01*
X107007415Y-98087010D01*
X106996904Y-98071280D01*
X106995307Y-98068891D01*
X106974429Y-98002215D01*
X106992913Y-97934835D01*
X106995308Y-97931108D01*
X107007417Y-97912986D01*
X107020500Y-97847211D01*
X107020499Y-97670882D01*
X107040183Y-97603843D01*
X107092987Y-97558088D01*
X107162145Y-97548144D01*
X107191947Y-97556319D01*
X107273091Y-97589930D01*
X107392874Y-97605700D01*
X107416799Y-97608850D01*
X107416800Y-97608850D01*
X107416801Y-97608850D01*
X107440726Y-97605700D01*
X107560509Y-97589930D01*
X107694425Y-97534461D01*
X107809421Y-97446221D01*
X107897661Y-97331225D01*
X107953130Y-97197309D01*
X107972050Y-97053600D01*
X107971263Y-97047626D01*
X107968930Y-97029899D01*
X107953130Y-96909891D01*
X107905522Y-96794954D01*
X107897662Y-96775977D01*
X107897661Y-96775976D01*
X107897661Y-96775975D01*
X107809421Y-96660979D01*
X107694425Y-96572739D01*
X107694424Y-96572738D01*
X107694422Y-96572737D01*
X107560512Y-96517271D01*
X107560510Y-96517270D01*
X107560509Y-96517270D01*
X107488654Y-96507810D01*
X107416801Y-96498350D01*
X107416799Y-96498350D01*
X107273091Y-96517270D01*
X107273087Y-96517271D01*
X107139176Y-96572738D01*
X107139175Y-96572738D01*
X107062665Y-96631446D01*
X106997496Y-96656639D01*
X106929051Y-96642600D01*
X106918289Y-96636171D01*
X106882988Y-96612583D01*
X106850098Y-96606041D01*
X106817211Y-96599500D01*
X106817209Y-96599500D01*
X105672791Y-96599500D01*
X105607013Y-96612583D01*
X105595728Y-96617258D01*
X105594887Y-96615229D01*
X105543572Y-96631292D01*
X105476193Y-96612802D01*
X105429507Y-96560820D01*
X105421596Y-96539412D01*
X105396503Y-96445763D01*
X105340485Y-96348737D01*
X105261263Y-96269515D01*
X105172333Y-96218171D01*
X105164239Y-96213498D01*
X105164238Y-96213497D01*
X105164237Y-96213497D01*
X105056018Y-96184500D01*
X104943982Y-96184500D01*
X104835763Y-96213497D01*
X104835760Y-96213498D01*
X104738740Y-96269513D01*
X104738734Y-96269517D01*
X104659517Y-96348734D01*
X104659513Y-96348740D01*
X104603498Y-96445760D01*
X104603497Y-96445763D01*
X104574500Y-96553982D01*
X104574500Y-96666018D01*
X104599137Y-96757963D01*
X104603497Y-96774236D01*
X104603498Y-96774239D01*
X104622169Y-96806579D01*
X104659515Y-96871263D01*
X104738737Y-96950485D01*
X104835763Y-97006503D01*
X104943982Y-97035500D01*
X104943984Y-97035500D01*
X105056016Y-97035500D01*
X105056018Y-97035500D01*
X105164237Y-97006503D01*
X105261263Y-96950485D01*
X105261271Y-96950476D01*
X105267709Y-96945538D01*
X105269328Y-96947648D01*
X105319116Y-96920449D01*
X105388808Y-96925418D01*
X105444751Y-96967277D01*
X105469182Y-97032736D01*
X105469500Y-97041609D01*
X105469500Y-97297207D01*
X105482583Y-97362986D01*
X105482585Y-97362991D01*
X105511396Y-97406109D01*
X105532274Y-97472786D01*
X105513789Y-97540166D01*
X105511397Y-97543889D01*
X105482583Y-97587012D01*
X105469500Y-97652790D01*
X105469500Y-97847207D01*
X105482583Y-97912986D01*
X105482584Y-97912988D01*
X105488503Y-97921846D01*
X105494690Y-97931106D01*
X105494692Y-97931108D01*
X105515570Y-97997785D01*
X105497086Y-98065165D01*
X105494693Y-98068889D01*
X105482583Y-98087012D01*
X105469500Y-98152790D01*
X105469500Y-98347207D01*
X105482583Y-98412986D01*
X105482584Y-98412988D01*
X105484944Y-98416520D01*
X105492181Y-98427351D01*
X105494692Y-98431108D01*
X105515570Y-98497785D01*
X105497086Y-98565165D01*
X105494693Y-98568889D01*
X105482583Y-98587012D01*
X105469500Y-98652790D01*
X105469500Y-98847207D01*
X105482583Y-98912986D01*
X105482584Y-98912988D01*
X105489520Y-98923368D01*
X105510398Y-98990046D01*
X105491913Y-99057426D01*
X105474099Y-99079940D01*
X105217503Y-99336538D01*
X105147037Y-99407003D01*
X105147036Y-99407004D01*
X105108900Y-99499072D01*
X105108900Y-100000927D01*
X105147036Y-100092995D01*
X105474099Y-100420058D01*
X105507584Y-100481381D01*
X105502600Y-100551073D01*
X105489522Y-100576627D01*
X105482583Y-100587011D01*
X105469500Y-100652790D01*
X105469500Y-100847207D01*
X105482583Y-100912986D01*
X105482584Y-100912988D01*
X105488627Y-100922032D01*
X105494690Y-100931106D01*
X105494692Y-100931108D01*
X105515570Y-100997785D01*
X105497086Y-101065165D01*
X105494693Y-101068889D01*
X105482583Y-101087012D01*
X105469500Y-101152790D01*
X105469500Y-101347207D01*
X105482583Y-101412986D01*
X105482585Y-101412991D01*
X105511396Y-101456109D01*
X105532274Y-101522786D01*
X105513789Y-101590166D01*
X105511397Y-101593889D01*
X105482583Y-101637012D01*
X105469500Y-101702790D01*
X105469500Y-101958390D01*
X105449815Y-102025429D01*
X105397011Y-102071184D01*
X105327853Y-102081128D01*
X105268164Y-102053869D01*
X105267709Y-102054462D01*
X105265131Y-102052484D01*
X105264297Y-102052103D01*
X105262714Y-102050629D01*
X105261267Y-102049519D01*
X105261263Y-102049515D01*
X105190010Y-102008377D01*
X105164239Y-101993498D01*
X105164238Y-101993497D01*
X105164237Y-101993497D01*
X105056018Y-101964500D01*
X104943982Y-101964500D01*
X104835763Y-101993497D01*
X104835760Y-101993498D01*
X104738740Y-102049513D01*
X104738734Y-102049517D01*
X104659517Y-102128734D01*
X104659513Y-102128740D01*
X104603498Y-102225760D01*
X104603497Y-102225763D01*
X104574500Y-102333982D01*
X104574500Y-102446018D01*
X104603497Y-102554235D01*
X104603497Y-102554236D01*
X104603498Y-102554239D01*
X104618748Y-102580653D01*
X104659515Y-102651263D01*
X104738737Y-102730485D01*
X104835763Y-102786503D01*
X104943982Y-102815500D01*
X104943984Y-102815500D01*
X105056016Y-102815500D01*
X105056018Y-102815500D01*
X105164237Y-102786503D01*
X105261263Y-102730485D01*
X105340485Y-102651263D01*
X105396503Y-102554237D01*
X105421594Y-102460593D01*
X105457957Y-102400935D01*
X105520804Y-102370405D01*
X105590180Y-102378699D01*
X105603821Y-102386095D01*
X105607010Y-102387415D01*
X105607011Y-102387415D01*
X105607014Y-102387417D01*
X105672789Y-102400500D01*
X106817210Y-102400499D01*
X106882986Y-102387417D01*
X106907625Y-102370953D01*
X106974298Y-102350075D01*
X107041679Y-102368558D01*
X107051992Y-102375672D01*
X107061983Y-102383339D01*
X107103187Y-102439762D01*
X107110500Y-102481716D01*
X107110500Y-103386562D01*
X107114986Y-103403302D01*
X107130979Y-103462990D01*
X107140896Y-103480166D01*
X107154368Y-103503500D01*
X107154369Y-103503501D01*
X107168772Y-103528450D01*
X107170540Y-103531511D01*
X107428340Y-103789311D01*
X107484289Y-103845260D01*
X107484291Y-103845261D01*
X107484295Y-103845264D01*
X107552804Y-103884817D01*
X107552811Y-103884821D01*
X107629238Y-103905300D01*
X107708362Y-103905300D01*
X107831181Y-103905300D01*
X107898220Y-103924985D01*
X107918862Y-103941619D01*
X107956659Y-103979416D01*
X107980410Y-103989903D01*
X108006370Y-104001366D01*
X108059746Y-104046452D01*
X108080273Y-104113238D01*
X108061434Y-104180520D01*
X108009211Y-104226937D01*
X108006370Y-104228234D01*
X107956663Y-104250182D01*
X107956661Y-104250183D01*
X107956659Y-104250184D01*
X107956658Y-104250184D01*
X107956656Y-104250186D01*
X107881186Y-104325656D01*
X107881181Y-104325663D01*
X107838070Y-104423299D01*
X107835300Y-104447175D01*
X107835300Y-104802415D01*
X107835302Y-104802438D01*
X107838069Y-104826295D01*
X107838069Y-104826298D01*
X107881180Y-104923935D01*
X107881183Y-104923939D01*
X107881184Y-104923941D01*
X107956659Y-104999416D01*
X107956662Y-104999417D01*
X107956663Y-104999418D01*
X108054299Y-105042529D01*
X108054300Y-105042529D01*
X108054302Y-105042530D01*
X108078177Y-105045300D01*
X108533422Y-105045299D01*
X108557298Y-105042530D01*
X108654935Y-104999419D01*
X108654936Y-104999418D01*
X108654941Y-104999416D01*
X108730416Y-104923941D01*
X108773530Y-104826298D01*
X108776300Y-104802423D01*
X108776299Y-104559922D01*
X108795983Y-104492883D01*
X108812613Y-104472246D01*
X109223242Y-104061618D01*
X109284565Y-104028133D01*
X109310923Y-104025299D01*
X109524016Y-104025299D01*
X109524022Y-104025299D01*
X109547898Y-104022530D01*
X109645535Y-103979419D01*
X109645536Y-103979418D01*
X109645541Y-103979416D01*
X109704019Y-103920938D01*
X109765342Y-103887453D01*
X109835034Y-103892437D01*
X109879381Y-103920938D01*
X109937859Y-103979416D01*
X109961610Y-103989903D01*
X109987570Y-104001366D01*
X110040946Y-104046452D01*
X110061473Y-104113238D01*
X110042634Y-104180520D01*
X109990411Y-104226937D01*
X109987570Y-104228234D01*
X109937863Y-104250182D01*
X109937861Y-104250183D01*
X109937859Y-104250184D01*
X109937858Y-104250184D01*
X109937856Y-104250186D01*
X109862386Y-104325656D01*
X109862381Y-104325663D01*
X109819270Y-104423299D01*
X109816500Y-104447175D01*
X109816500Y-104802415D01*
X109816502Y-104802438D01*
X109819269Y-104826295D01*
X109819269Y-104826298D01*
X109862380Y-104923935D01*
X109862386Y-104923943D01*
X109900181Y-104961738D01*
X109933666Y-105023061D01*
X109936500Y-105049419D01*
X109936500Y-105914708D01*
X109916815Y-105981747D01*
X109898913Y-106001212D01*
X109900129Y-106002428D01*
X109894384Y-106008172D01*
X109806137Y-106123177D01*
X109750671Y-106257087D01*
X109750670Y-106257091D01*
X109731750Y-106400799D01*
X109731750Y-106400800D01*
X109750670Y-106544508D01*
X109750671Y-106544512D01*
X109806137Y-106678422D01*
X109806138Y-106678424D01*
X109806139Y-106678425D01*
X109894379Y-106793421D01*
X110009375Y-106881661D01*
X110009376Y-106881661D01*
X110009377Y-106881662D01*
X110019131Y-106885702D01*
X110143291Y-106937130D01*
X110270280Y-106953848D01*
X110286999Y-106956050D01*
X110287000Y-106956050D01*
X110287001Y-106956050D01*
X110301977Y-106954078D01*
X110430709Y-106937130D01*
X110564625Y-106881661D01*
X110679621Y-106793421D01*
X110767861Y-106678425D01*
X110823330Y-106544509D01*
X110842250Y-106400800D01*
X110823330Y-106257091D01*
X110783374Y-106160627D01*
X110767862Y-106123177D01*
X110767861Y-106123176D01*
X110767861Y-106123175D01*
X110679621Y-106008179D01*
X110679619Y-106008177D01*
X110679615Y-106008172D01*
X110673871Y-106002428D01*
X110676387Y-105999911D01*
X110644797Y-105956617D01*
X110637500Y-105914708D01*
X110637500Y-105049419D01*
X110657185Y-104982380D01*
X110673819Y-104961738D01*
X110684712Y-104950845D01*
X110711616Y-104923941D01*
X110754730Y-104826298D01*
X110757500Y-104802423D01*
X110757499Y-104447178D01*
X110754730Y-104423302D01*
X110750584Y-104413912D01*
X110711619Y-104325664D01*
X110711617Y-104325661D01*
X110711616Y-104325659D01*
X110636141Y-104250184D01*
X110612587Y-104239784D01*
X110586428Y-104228233D01*
X110533053Y-104183146D01*
X110512526Y-104116360D01*
X110531365Y-104049078D01*
X110583589Y-104002662D01*
X110586344Y-104001403D01*
X110636141Y-103979416D01*
X110681919Y-103933638D01*
X110743242Y-103900153D01*
X110812934Y-103905137D01*
X110857281Y-103933638D01*
X110903059Y-103979416D01*
X110903062Y-103979417D01*
X110903063Y-103979418D01*
X111000699Y-104022529D01*
X111000700Y-104022529D01*
X111000702Y-104022530D01*
X111024577Y-104025300D01*
X111479822Y-104025299D01*
X111503698Y-104022530D01*
X111601335Y-103979419D01*
X111601336Y-103979418D01*
X111601341Y-103979416D01*
X111633583Y-103947174D01*
X111694906Y-103913689D01*
X111764598Y-103918673D01*
X111808945Y-103947174D01*
X111854984Y-103993213D01*
X111954338Y-104037082D01*
X111978627Y-104039900D01*
X112405372Y-104039899D01*
X112429662Y-104037082D01*
X112529016Y-103993213D01*
X112529018Y-103993210D01*
X112538496Y-103986719D01*
X112539833Y-103988670D01*
X112587333Y-103962734D01*
X112613691Y-103959900D01*
X112659309Y-103959900D01*
X112726348Y-103979585D01*
X112739152Y-103989903D01*
X112743983Y-103993212D01*
X112743984Y-103993213D01*
X112843338Y-104037082D01*
X112867627Y-104039900D01*
X113294372Y-104039899D01*
X113318662Y-104037082D01*
X113418016Y-103993213D01*
X113418015Y-103993213D01*
X113423332Y-103990866D01*
X113473418Y-103980300D01*
X113644909Y-103980300D01*
X113711948Y-103999985D01*
X113732590Y-104016619D01*
X113734584Y-104018613D01*
X113833938Y-104062482D01*
X113858227Y-104065300D01*
X114284972Y-104065299D01*
X114309262Y-104062482D01*
X114408616Y-104018613D01*
X114410610Y-104016619D01*
X114415128Y-104014151D01*
X114418096Y-104012119D01*
X114418301Y-104012419D01*
X114471933Y-103983134D01*
X114498291Y-103980300D01*
X114587127Y-103980300D01*
X114654166Y-103999985D01*
X114698526Y-104049837D01*
X114718311Y-104090308D01*
X114730975Y-104116213D01*
X114819589Y-104204827D01*
X114912366Y-104250182D01*
X114932175Y-104259866D01*
X115005164Y-104270500D01*
X115005170Y-104270500D01*
X115576430Y-104270500D01*
X115576436Y-104270500D01*
X115649425Y-104259866D01*
X115762011Y-104204826D01*
X115838528Y-104128308D01*
X115899849Y-104094825D01*
X115969541Y-104099809D01*
X115982502Y-104105506D01*
X116062318Y-104146174D01*
X116062322Y-104146175D01*
X116179797Y-104164781D01*
X116179800Y-104164781D01*
X116179803Y-104164781D01*
X116297277Y-104146175D01*
X116297278Y-104146175D01*
X116297279Y-104146174D01*
X116297282Y-104146174D01*
X116403265Y-104092173D01*
X116403269Y-104092168D01*
X116411164Y-104086434D01*
X116413420Y-104089540D01*
X116458022Y-104065082D01*
X116527723Y-104069940D01*
X116572280Y-104098519D01*
X116591329Y-104117568D01*
X116591333Y-104117571D01*
X116591335Y-104117573D01*
X116697318Y-104171574D01*
X116697320Y-104171574D01*
X116697322Y-104171575D01*
X116814797Y-104190181D01*
X116814800Y-104190181D01*
X116814802Y-104190181D01*
X116889578Y-104178337D01*
X116902234Y-104176333D01*
X116971527Y-104185288D01*
X117024979Y-104230284D01*
X117032116Y-104242510D01*
X117066026Y-104309061D01*
X117066031Y-104309068D01*
X117150129Y-104393166D01*
X117150133Y-104393169D01*
X117150135Y-104393171D01*
X117256118Y-104447172D01*
X117256120Y-104447172D01*
X117256122Y-104447173D01*
X117373597Y-104465779D01*
X117373600Y-104465779D01*
X117373603Y-104465779D01*
X117491077Y-104447173D01*
X117491077Y-104447172D01*
X117491082Y-104447172D01*
X117511608Y-104436713D01*
X117580274Y-104423818D01*
X117645014Y-104450094D01*
X117685272Y-104507200D01*
X117691900Y-104547199D01*
X117691900Y-105360819D01*
X117672215Y-105427858D01*
X117655581Y-105448500D01*
X117630300Y-105473781D01*
X117568977Y-105507266D01*
X117542619Y-105510100D01*
X116610178Y-105510100D01*
X116566282Y-105518831D01*
X116566275Y-105518834D01*
X116516496Y-105552095D01*
X116516495Y-105552096D01*
X116483234Y-105601875D01*
X116483231Y-105601882D01*
X116474500Y-105645777D01*
X116474500Y-105656700D01*
X116454815Y-105723739D01*
X116402011Y-105769494D01*
X116350500Y-105780700D01*
X114033370Y-105780700D01*
X113941303Y-105818836D01*
X113645756Y-106114382D01*
X113584433Y-106147866D01*
X113558076Y-106150700D01*
X113324834Y-106150700D01*
X113324811Y-106150702D01*
X113300540Y-106153517D01*
X113300537Y-106153518D01*
X113201185Y-106197386D01*
X113133589Y-106264982D01*
X113072265Y-106298466D01*
X113002574Y-106293481D01*
X112956290Y-106258834D01*
X112954941Y-106260184D01*
X112871343Y-106176586D01*
X112871341Y-106176584D01*
X112871338Y-106176583D01*
X112871336Y-106176581D01*
X112773700Y-106133470D01*
X112773701Y-106133470D01*
X112749823Y-106130700D01*
X112294584Y-106130700D01*
X112294561Y-106130702D01*
X112270704Y-106133469D01*
X112270701Y-106133469D01*
X112173064Y-106176580D01*
X112173056Y-106176586D01*
X112097586Y-106252056D01*
X112091090Y-106261540D01*
X112090061Y-106260835D01*
X112052618Y-106305163D01*
X112003538Y-106320247D01*
X112004149Y-106323318D01*
X111992170Y-106325700D01*
X111900102Y-106363836D01*
X111378236Y-106885702D01*
X111340099Y-106977773D01*
X111337858Y-106989041D01*
X111305472Y-107050951D01*
X111263700Y-107079406D01*
X111256879Y-107082231D01*
X111207096Y-107115495D01*
X111207095Y-107115496D01*
X111173834Y-107165275D01*
X111173831Y-107165282D01*
X111165100Y-107209177D01*
X111165100Y-107461534D01*
X111145415Y-107528573D01*
X111092611Y-107574328D01*
X111023453Y-107584272D01*
X110984805Y-107572019D01*
X110947994Y-107553263D01*
X110920304Y-107539154D01*
X110920303Y-107539153D01*
X110920300Y-107539152D01*
X110795003Y-107519308D01*
X110794997Y-107519308D01*
X110669699Y-107539152D01*
X110669698Y-107539152D01*
X110605195Y-107572019D01*
X110556658Y-107596750D01*
X110556657Y-107596751D01*
X110556652Y-107596754D01*
X110466954Y-107686452D01*
X110466951Y-107686457D01*
X110466950Y-107686458D01*
X110451377Y-107717022D01*
X110409352Y-107799498D01*
X110409352Y-107799499D01*
X110389508Y-107924796D01*
X110389508Y-107924803D01*
X110409352Y-108050100D01*
X110409352Y-108050101D01*
X110427805Y-108086317D01*
X110466950Y-108163142D01*
X110466952Y-108163144D01*
X110466954Y-108163147D01*
X110491626Y-108187819D01*
X110525111Y-108249142D01*
X110520127Y-108318834D01*
X110478255Y-108374767D01*
X110412791Y-108399184D01*
X110403945Y-108399500D01*
X108327700Y-108399500D01*
X108260661Y-108379815D01*
X108214906Y-108327011D01*
X108203700Y-108275500D01*
X108203699Y-107483106D01*
X108198952Y-107450521D01*
X108193243Y-107411333D01*
X108139119Y-107300620D01*
X108139117Y-107300618D01*
X108139117Y-107300617D01*
X108051983Y-107213483D01*
X108051981Y-107213482D01*
X108051980Y-107213481D01*
X108035737Y-107205540D01*
X107984156Y-107158412D01*
X107966200Y-107094141D01*
X107966200Y-107079699D01*
X107985885Y-107012660D01*
X108038689Y-106966905D01*
X108090200Y-106955699D01*
X108092418Y-106955699D01*
X108092427Y-106955700D01*
X108519172Y-106955699D01*
X108543462Y-106952882D01*
X108642816Y-106909013D01*
X108719613Y-106832216D01*
X108763482Y-106732862D01*
X108766300Y-106708573D01*
X108766299Y-106341828D01*
X108763482Y-106317538D01*
X108719613Y-106218184D01*
X108642816Y-106141387D01*
X108627674Y-106134701D01*
X108543463Y-106097518D01*
X108519173Y-106094700D01*
X108092434Y-106094700D01*
X108092411Y-106094702D01*
X108068140Y-106097517D01*
X108068137Y-106097518D01*
X107968784Y-106141386D01*
X107968783Y-106141387D01*
X107941790Y-106168381D01*
X107880467Y-106201866D01*
X107854109Y-106204700D01*
X107712544Y-106204700D01*
X107645505Y-106185015D01*
X107642465Y-106182998D01*
X107638942Y-106180584D01*
X107589228Y-106158633D01*
X107535853Y-106113546D01*
X107515326Y-106046760D01*
X107534165Y-105979478D01*
X107586389Y-105933062D01*
X107589144Y-105931803D01*
X107638941Y-105909816D01*
X107714416Y-105834341D01*
X107757530Y-105736698D01*
X107760300Y-105712823D01*
X107760299Y-105357578D01*
X107757530Y-105333702D01*
X107757530Y-105333701D01*
X107714419Y-105236064D01*
X107714417Y-105236061D01*
X107714416Y-105236059D01*
X107638941Y-105160584D01*
X107638938Y-105160583D01*
X107638936Y-105160581D01*
X107541300Y-105117470D01*
X107541301Y-105117470D01*
X107517423Y-105114700D01*
X107062184Y-105114700D01*
X107062161Y-105114702D01*
X107038304Y-105117469D01*
X107038301Y-105117469D01*
X106940664Y-105160580D01*
X106940656Y-105160586D01*
X106878417Y-105222826D01*
X106817094Y-105256311D01*
X106747402Y-105251327D01*
X106703055Y-105222826D01*
X106636216Y-105155987D01*
X106536863Y-105112118D01*
X106512573Y-105109300D01*
X106085834Y-105109300D01*
X106085811Y-105109302D01*
X106061540Y-105112117D01*
X106061537Y-105112118D01*
X105962184Y-105155986D01*
X105962183Y-105155987D01*
X105882645Y-105235526D01*
X105821322Y-105269011D01*
X105751630Y-105264027D01*
X105707283Y-105235526D01*
X105632343Y-105160586D01*
X105632341Y-105160584D01*
X105632338Y-105160583D01*
X105632336Y-105160581D01*
X105534700Y-105117470D01*
X105534701Y-105117470D01*
X105510823Y-105114700D01*
X105055584Y-105114700D01*
X105055561Y-105114702D01*
X105031704Y-105117469D01*
X105031701Y-105117469D01*
X104934064Y-105160580D01*
X104934056Y-105160586D01*
X104850459Y-105244184D01*
X104848355Y-105242080D01*
X104808077Y-105274960D01*
X104759903Y-105284700D01*
X104504227Y-105284700D01*
X104404572Y-105284700D01*
X104404570Y-105284700D01*
X104404568Y-105284701D01*
X104312505Y-105322833D01*
X104312502Y-105322835D01*
X104245955Y-105389382D01*
X104184631Y-105422867D01*
X104158277Y-105425700D01*
X104095598Y-105425700D01*
X104024347Y-105439872D01*
X103943555Y-105493855D01*
X103889572Y-105574648D01*
X103889570Y-105574652D01*
X103875400Y-105645891D01*
X103875400Y-105906501D01*
X103889572Y-105977752D01*
X103943555Y-106058544D01*
X103964001Y-106072205D01*
X104024348Y-106112528D01*
X104024351Y-106112528D01*
X104024352Y-106112529D01*
X104041737Y-106115987D01*
X104095595Y-106126700D01*
X104331204Y-106126699D01*
X104402452Y-106112528D01*
X104483244Y-106058544D01*
X104537228Y-105977752D01*
X104551400Y-105906505D01*
X104551399Y-105906497D01*
X104551997Y-105900444D01*
X104554058Y-105900646D01*
X104571085Y-105842661D01*
X104623889Y-105796906D01*
X104675400Y-105785700D01*
X104759903Y-105785700D01*
X104826942Y-105805385D01*
X104849442Y-105827232D01*
X104850459Y-105826216D01*
X104858584Y-105834341D01*
X104934059Y-105909816D01*
X104934062Y-105909817D01*
X104934063Y-105909818D01*
X105031699Y-105952929D01*
X105031700Y-105952929D01*
X105031702Y-105952930D01*
X105055577Y-105955700D01*
X105510822Y-105955699D01*
X105534698Y-105952930D01*
X105632335Y-105909819D01*
X105632336Y-105909818D01*
X105632341Y-105909816D01*
X105702683Y-105839474D01*
X105764006Y-105805989D01*
X105833698Y-105810973D01*
X105878045Y-105839474D01*
X105970309Y-105931738D01*
X105967322Y-105934724D01*
X105997452Y-105971645D01*
X106005347Y-106041067D01*
X105974456Y-106103737D01*
X105970024Y-106107577D01*
X105970309Y-106107862D01*
X105885387Y-106192783D01*
X105841518Y-106292135D01*
X105841518Y-106292137D01*
X105838700Y-106316425D01*
X105838700Y-106683165D01*
X105838702Y-106683188D01*
X105841517Y-106707459D01*
X105841518Y-106707462D01*
X105885386Y-106806815D01*
X105885387Y-106806816D01*
X105962184Y-106883613D01*
X106061538Y-106927482D01*
X106085827Y-106930300D01*
X106512572Y-106930299D01*
X106536862Y-106927482D01*
X106636216Y-106883613D01*
X106636218Y-106883610D01*
X106645696Y-106877119D01*
X106647033Y-106879070D01*
X106694533Y-106853134D01*
X106720891Y-106850300D01*
X106809781Y-106850300D01*
X106876820Y-106869985D01*
X106897462Y-106886619D01*
X106940659Y-106929816D01*
X106940662Y-106929817D01*
X106940663Y-106929818D01*
X107038299Y-106972929D01*
X107038300Y-106972929D01*
X107038302Y-106972930D01*
X107062177Y-106975700D01*
X107129829Y-106975699D01*
X107196868Y-106995383D01*
X107242624Y-107048186D01*
X107252568Y-107117344D01*
X107223544Y-107180900D01*
X107184296Y-107211097D01*
X107179419Y-107213481D01*
X107179417Y-107213483D01*
X107092281Y-107300618D01*
X107045629Y-107396046D01*
X106998501Y-107447628D01*
X106930967Y-107465542D01*
X106864468Y-107444101D01*
X106858743Y-107439961D01*
X106830825Y-107418539D01*
X106830823Y-107418538D01*
X106696912Y-107363071D01*
X106696910Y-107363070D01*
X106696909Y-107363070D01*
X106591748Y-107349225D01*
X106553201Y-107344150D01*
X106553199Y-107344150D01*
X106409491Y-107363070D01*
X106409487Y-107363071D01*
X106275576Y-107418538D01*
X106275574Y-107418539D01*
X106247656Y-107439962D01*
X106182487Y-107465156D01*
X106114042Y-107451118D01*
X106064053Y-107402304D01*
X106060778Y-107396064D01*
X106014119Y-107300620D01*
X106014117Y-107300618D01*
X106014117Y-107300617D01*
X105926982Y-107213482D01*
X105816267Y-107159357D01*
X105744495Y-107148900D01*
X105744489Y-107148900D01*
X105236904Y-107148900D01*
X105174139Y-107158045D01*
X105104962Y-107148230D01*
X105068582Y-107123021D01*
X104809397Y-106863836D01*
X104717329Y-106825700D01*
X104717328Y-106825700D01*
X104566450Y-106825700D01*
X104499411Y-106806015D01*
X104489558Y-106798075D01*
X104483242Y-106793855D01*
X104472618Y-106786756D01*
X104402451Y-106739871D01*
X104402447Y-106739870D01*
X104331208Y-106725700D01*
X104095598Y-106725700D01*
X104024347Y-106739872D01*
X103943555Y-106793855D01*
X103889572Y-106874648D01*
X103889570Y-106874652D01*
X103875400Y-106945891D01*
X103875400Y-107206501D01*
X103889572Y-107277752D01*
X103943555Y-107358544D01*
X103965295Y-107373070D01*
X104024348Y-107412528D01*
X104024351Y-107412528D01*
X104024352Y-107412529D01*
X104059971Y-107419614D01*
X104095595Y-107426700D01*
X104331204Y-107426699D01*
X104402452Y-107412528D01*
X104465975Y-107370082D01*
X104532649Y-107349206D01*
X104600029Y-107367690D01*
X104622544Y-107385505D01*
X104866381Y-107629341D01*
X104899866Y-107690664D01*
X104902700Y-107717022D01*
X104902701Y-108275500D01*
X104883017Y-108342539D01*
X104830213Y-108388294D01*
X104778701Y-108399500D01*
X101306092Y-108399500D01*
X101293938Y-108398903D01*
X101285267Y-108398049D01*
X101260549Y-108395614D01*
X101156180Y-108385335D01*
X101132340Y-108380593D01*
X101005728Y-108342186D01*
X100983271Y-108332883D01*
X100866593Y-108270517D01*
X100846381Y-108257012D01*
X100744108Y-108173079D01*
X100726920Y-108155891D01*
X100642987Y-108053618D01*
X100629482Y-108033406D01*
X100567114Y-107916725D01*
X100557815Y-107894277D01*
X100519404Y-107767652D01*
X100514665Y-107743824D01*
X100501097Y-107606060D01*
X100500500Y-107593907D01*
X100500500Y-106335292D01*
X100520185Y-106268253D01*
X100572989Y-106222498D01*
X100642147Y-106212554D01*
X100653412Y-106215088D01*
X100657373Y-106215665D01*
X100657375Y-106215666D01*
X100730364Y-106226300D01*
X100730370Y-106226300D01*
X101301630Y-106226300D01*
X101301636Y-106226300D01*
X101374625Y-106215666D01*
X101437323Y-106185015D01*
X101487210Y-106160627D01*
X101575824Y-106072013D01*
X101575826Y-106072011D01*
X101575827Y-106072008D01*
X101578512Y-106068249D01*
X101633486Y-106025126D01*
X101679431Y-106016300D01*
X102021799Y-106016300D01*
X102088838Y-106035985D01*
X102134593Y-106088789D01*
X102144537Y-106157947D01*
X102124900Y-106209190D01*
X102122653Y-106212554D01*
X102114572Y-106224648D01*
X102114570Y-106224652D01*
X102100400Y-106295891D01*
X102100400Y-106556501D01*
X102114572Y-106627752D01*
X102168555Y-106708544D01*
X102194233Y-106725701D01*
X102249348Y-106762528D01*
X102249351Y-106762528D01*
X102249352Y-106762529D01*
X102284971Y-106769614D01*
X102320595Y-106776700D01*
X102556204Y-106776699D01*
X102627452Y-106762528D01*
X102708244Y-106708544D01*
X102762228Y-106627752D01*
X102776400Y-106556505D01*
X102776399Y-106295896D01*
X102762228Y-106224648D01*
X102725771Y-106170087D01*
X102704895Y-106103414D01*
X102723379Y-106036034D01*
X102725735Y-106032366D01*
X102762228Y-105977752D01*
X102776400Y-105906505D01*
X102776399Y-105645896D01*
X102762228Y-105574648D01*
X102724934Y-105518834D01*
X102708244Y-105493855D01*
X102642627Y-105450012D01*
X102627452Y-105439872D01*
X102627450Y-105439871D01*
X102627447Y-105439870D01*
X102556209Y-105425700D01*
X102556205Y-105425700D01*
X102537018Y-105425700D01*
X102469979Y-105406015D01*
X102424224Y-105353211D01*
X102414280Y-105284053D01*
X102415377Y-105278700D01*
X102415928Y-105274513D01*
X102415930Y-105274509D01*
X102434850Y-105130800D01*
X102415930Y-104987091D01*
X102375854Y-104890338D01*
X102360462Y-104853177D01*
X102360461Y-104853176D01*
X102360461Y-104853175D01*
X102272221Y-104738179D01*
X102157225Y-104649939D01*
X102157224Y-104649938D01*
X102157222Y-104649937D01*
X102069470Y-104613590D01*
X102015066Y-104569750D01*
X101993001Y-104503456D01*
X102010280Y-104435756D01*
X102048032Y-104395927D01*
X102096222Y-104363727D01*
X102096229Y-104363721D01*
X102193724Y-104266226D01*
X102270332Y-104151573D01*
X102304121Y-104070000D01*
X104425879Y-104070000D01*
X104459667Y-104151573D01*
X104536275Y-104266226D01*
X104633773Y-104363724D01*
X104748420Y-104440328D01*
X104748433Y-104440335D01*
X104875813Y-104493097D01*
X104875823Y-104493100D01*
X105011053Y-104520000D01*
X105280000Y-104520000D01*
X105280000Y-104120000D01*
X105780000Y-104120000D01*
X105780000Y-104520000D01*
X106048946Y-104520000D01*
X106184176Y-104493100D01*
X106184186Y-104493097D01*
X106311566Y-104440335D01*
X106311579Y-104440328D01*
X106426226Y-104363724D01*
X106523724Y-104266226D01*
X106600332Y-104151573D01*
X106634121Y-104070000D01*
X106146988Y-104070000D01*
X106164205Y-104060060D01*
X106220060Y-104004205D01*
X106259556Y-103935796D01*
X106280000Y-103859496D01*
X106280000Y-103780504D01*
X106259556Y-103704204D01*
X106220060Y-103635795D01*
X106164205Y-103579940D01*
X106146988Y-103570000D01*
X106634121Y-103570000D01*
X106634120Y-103569999D01*
X106600332Y-103488426D01*
X106523724Y-103373773D01*
X106426226Y-103276275D01*
X106311579Y-103199671D01*
X106311566Y-103199664D01*
X106184186Y-103146902D01*
X106184176Y-103146899D01*
X106048946Y-103120000D01*
X105780000Y-103120000D01*
X105780000Y-103520000D01*
X105280000Y-103520000D01*
X105280000Y-103120000D01*
X105011054Y-103120000D01*
X104875823Y-103146899D01*
X104875813Y-103146902D01*
X104748433Y-103199664D01*
X104748420Y-103199671D01*
X104633773Y-103276275D01*
X104536275Y-103373773D01*
X104459667Y-103488426D01*
X104425879Y-103569999D01*
X104425879Y-103570000D01*
X104913012Y-103570000D01*
X104895795Y-103579940D01*
X104839940Y-103635795D01*
X104800444Y-103704204D01*
X104780000Y-103780504D01*
X104780000Y-103859496D01*
X104800444Y-103935796D01*
X104839940Y-104004205D01*
X104895795Y-104060060D01*
X104913012Y-104070000D01*
X104425879Y-104070000D01*
X102304121Y-104070000D01*
X101816988Y-104070000D01*
X101834205Y-104060060D01*
X101890060Y-104004205D01*
X101929556Y-103935796D01*
X101950000Y-103859496D01*
X101950000Y-103780504D01*
X101929556Y-103704204D01*
X101890060Y-103635795D01*
X101834205Y-103579940D01*
X101816988Y-103570000D01*
X102304121Y-103570000D01*
X102304120Y-103569999D01*
X102270332Y-103488426D01*
X102193724Y-103373773D01*
X102096226Y-103276275D01*
X101981579Y-103199671D01*
X101981566Y-103199664D01*
X101854186Y-103146902D01*
X101854176Y-103146899D01*
X101718946Y-103120000D01*
X101600000Y-103120000D01*
X101600000Y-103520000D01*
X101100000Y-103520000D01*
X101100000Y-103120000D01*
X100981054Y-103120000D01*
X100845823Y-103146899D01*
X100845813Y-103146902D01*
X100718433Y-103199664D01*
X100718424Y-103199669D01*
X100693389Y-103216397D01*
X100626711Y-103237273D01*
X100559331Y-103218787D01*
X100512642Y-103166807D01*
X100500500Y-103113293D01*
X100500500Y-95886706D01*
X100520185Y-95819667D01*
X100572989Y-95773912D01*
X100642147Y-95763968D01*
X100693391Y-95783604D01*
X100718420Y-95800328D01*
X100718433Y-95800335D01*
X100845813Y-95853097D01*
X100845823Y-95853100D01*
X100981053Y-95880000D01*
X101100000Y-95880000D01*
X101100000Y-95480000D01*
X101600000Y-95480000D01*
X101600000Y-95880000D01*
X101718946Y-95880000D01*
X101854176Y-95853100D01*
X101854186Y-95853097D01*
X101981566Y-95800335D01*
X101981579Y-95800328D01*
X102096226Y-95723724D01*
X102193724Y-95626226D01*
X102270332Y-95511573D01*
X102304121Y-95430000D01*
X104425879Y-95430000D01*
X104459667Y-95511573D01*
X104536275Y-95626226D01*
X104633773Y-95723724D01*
X104748420Y-95800328D01*
X104748433Y-95800335D01*
X104875813Y-95853097D01*
X104875823Y-95853100D01*
X105011053Y-95880000D01*
X105280000Y-95880000D01*
X105280000Y-95480000D01*
X105780000Y-95480000D01*
X105780000Y-95880000D01*
X106048946Y-95880000D01*
X106184176Y-95853100D01*
X106184186Y-95853097D01*
X106311566Y-95800335D01*
X106311579Y-95800328D01*
X106426226Y-95723724D01*
X106523724Y-95626226D01*
X106600332Y-95511573D01*
X106634121Y-95430000D01*
X106146988Y-95430000D01*
X106164205Y-95420060D01*
X106220060Y-95364205D01*
X106259556Y-95295796D01*
X106280000Y-95219496D01*
X106280000Y-95140504D01*
X106259556Y-95064204D01*
X106220060Y-94995795D01*
X106164205Y-94939940D01*
X106146988Y-94930000D01*
X106634121Y-94930000D01*
X106634120Y-94929999D01*
X106600332Y-94848426D01*
X106523724Y-94733773D01*
X106426226Y-94636275D01*
X106311579Y-94559671D01*
X106311566Y-94559664D01*
X106184186Y-94506902D01*
X106184176Y-94506899D01*
X106048946Y-94480000D01*
X105780000Y-94480000D01*
X105780000Y-94880000D01*
X105280000Y-94880000D01*
X105280000Y-94480000D01*
X105011054Y-94480000D01*
X104875823Y-94506899D01*
X104875813Y-94506902D01*
X104748433Y-94559664D01*
X104748420Y-94559671D01*
X104633773Y-94636275D01*
X104536275Y-94733773D01*
X104459667Y-94848426D01*
X104425879Y-94929999D01*
X104425879Y-94930000D01*
X104913012Y-94930000D01*
X104895795Y-94939940D01*
X104839940Y-94995795D01*
X104800444Y-95064204D01*
X104780000Y-95140504D01*
X104780000Y-95219496D01*
X104800444Y-95295796D01*
X104839940Y-95364205D01*
X104895795Y-95420060D01*
X104913012Y-95430000D01*
X104425879Y-95430000D01*
X102304121Y-95430000D01*
X101816988Y-95430000D01*
X101834205Y-95420060D01*
X101890060Y-95364205D01*
X101929556Y-95295796D01*
X101950000Y-95219496D01*
X101950000Y-95140504D01*
X101929556Y-95064204D01*
X101890060Y-94995795D01*
X101834205Y-94939940D01*
X101816988Y-94930000D01*
X102304121Y-94930000D01*
X102304120Y-94929999D01*
X102270332Y-94848426D01*
X102193724Y-94733773D01*
X102096226Y-94636275D01*
X101981579Y-94559671D01*
X101981566Y-94559664D01*
X101854186Y-94506902D01*
X101854176Y-94506899D01*
X101718946Y-94480000D01*
X101600000Y-94480000D01*
X101600000Y-94880000D01*
X101100000Y-94880000D01*
X101100000Y-94480000D01*
X100981054Y-94480000D01*
X100845823Y-94506899D01*
X100845813Y-94506902D01*
X100718433Y-94559664D01*
X100718424Y-94559669D01*
X100693389Y-94576397D01*
X100626711Y-94597273D01*
X100559331Y-94578787D01*
X100512642Y-94526807D01*
X100500500Y-94473293D01*
X100500500Y-92406092D01*
X100501097Y-92393939D01*
X100501960Y-92385170D01*
X100514665Y-92256173D01*
X100519403Y-92232349D01*
X100557816Y-92105719D01*
X100567113Y-92083278D01*
X100629485Y-91966587D01*
X100642982Y-91946387D01*
X100726924Y-91844103D01*
X100744103Y-91826924D01*
X100846387Y-91742982D01*
X100866587Y-91729485D01*
X100983278Y-91667113D01*
X101005719Y-91657816D01*
X101132349Y-91619403D01*
X101156173Y-91614665D01*
X101285268Y-91601951D01*
X101293939Y-91601097D01*
X101306092Y-91600500D01*
X101365892Y-91600500D01*
X102175069Y-91600500D01*
X102242108Y-91620185D01*
G37*
G04 #@! TD.AperFunction*
G04 #@! TA.AperFunction,Conductor*
G36*
X115157423Y-106862335D02*
G01*
X115161188Y-106865945D01*
X115221059Y-106925816D01*
X115258774Y-106942469D01*
X115270770Y-106947766D01*
X115324146Y-106992852D01*
X115344673Y-107059638D01*
X115325834Y-107126920D01*
X115273611Y-107173337D01*
X115270770Y-107174634D01*
X115221063Y-107196582D01*
X115221061Y-107196583D01*
X115221059Y-107196584D01*
X115221058Y-107196584D01*
X115221056Y-107196586D01*
X115145586Y-107272056D01*
X115145581Y-107272063D01*
X115102470Y-107369699D01*
X115099700Y-107393575D01*
X115099700Y-107748815D01*
X115099702Y-107748838D01*
X115102469Y-107772695D01*
X115102469Y-107772698D01*
X115145580Y-107870335D01*
X115145583Y-107870339D01*
X115145584Y-107870341D01*
X115221059Y-107945816D01*
X115221062Y-107945817D01*
X115221063Y-107945818D01*
X115318699Y-107988929D01*
X115318700Y-107988929D01*
X115318702Y-107988930D01*
X115342577Y-107991700D01*
X115797822Y-107991699D01*
X115821698Y-107988930D01*
X115919335Y-107945819D01*
X115919336Y-107945818D01*
X115919341Y-107945816D01*
X115994816Y-107870341D01*
X115994816Y-107870340D01*
X116002941Y-107862216D01*
X116005044Y-107864319D01*
X116045323Y-107831440D01*
X116093497Y-107821700D01*
X116510300Y-107821700D01*
X116577339Y-107841385D01*
X116623094Y-107894189D01*
X116634300Y-107945700D01*
X116634300Y-108275500D01*
X116614615Y-108342539D01*
X116561811Y-108388294D01*
X116510300Y-108399500D01*
X113201450Y-108399500D01*
X113134411Y-108379815D01*
X113088656Y-108327011D01*
X113080220Y-108288232D01*
X113078511Y-108288458D01*
X113073823Y-108252850D01*
X113058530Y-108136691D01*
X113022664Y-108050101D01*
X113003061Y-108002774D01*
X112974995Y-107966198D01*
X112949801Y-107901029D01*
X112959937Y-107840624D01*
X112989930Y-107772698D01*
X112992700Y-107748823D01*
X112992699Y-107393578D01*
X112989930Y-107369702D01*
X112989042Y-107367690D01*
X112946819Y-107272064D01*
X112946817Y-107272061D01*
X112946816Y-107272059D01*
X112871341Y-107196584D01*
X112844427Y-107184700D01*
X112821628Y-107174633D01*
X112768253Y-107129546D01*
X112747726Y-107062760D01*
X112766565Y-106995478D01*
X112818789Y-106949062D01*
X112821544Y-106947803D01*
X112871341Y-106925816D01*
X112931213Y-106865943D01*
X112992532Y-106832461D01*
X113062224Y-106837445D01*
X113118158Y-106879316D01*
X113121189Y-106883548D01*
X113124386Y-106888215D01*
X113124387Y-106888216D01*
X113201184Y-106965013D01*
X113300538Y-107008882D01*
X113324827Y-107011700D01*
X113751572Y-107011699D01*
X113775862Y-107008882D01*
X113875216Y-106965013D01*
X113952013Y-106888216D01*
X113952013Y-106888215D01*
X113958519Y-106881710D01*
X114019842Y-106848225D01*
X114089534Y-106853209D01*
X114133881Y-106881710D01*
X114140387Y-106888216D01*
X114217184Y-106965013D01*
X114316538Y-107008882D01*
X114340827Y-107011700D01*
X114767572Y-107011699D01*
X114791862Y-107008882D01*
X114891216Y-106965013D01*
X114968013Y-106888216D01*
X114968017Y-106888206D01*
X114971202Y-106883558D01*
X115025325Y-106839371D01*
X115094745Y-106831459D01*
X115157423Y-106862335D01*
G37*
G04 #@! TD.AperFunction*
G04 #@! TA.AperFunction,Conductor*
G36*
X132474716Y-99660585D02*
G01*
X132495358Y-99677219D01*
X132783981Y-99965842D01*
X132817466Y-100027165D01*
X132820300Y-100053523D01*
X132820300Y-101370629D01*
X132858436Y-101462697D01*
X133434793Y-102039054D01*
X133468278Y-102100377D01*
X133463645Y-102165151D01*
X133464829Y-102165536D01*
X133409438Y-102336012D01*
X133404326Y-102351744D01*
X133384540Y-102540000D01*
X133404326Y-102728256D01*
X133404327Y-102728259D01*
X133462818Y-102908277D01*
X133462821Y-102908284D01*
X133557467Y-103072216D01*
X133660882Y-103187070D01*
X133684129Y-103212888D01*
X133837265Y-103324148D01*
X133837270Y-103324151D01*
X134010192Y-103401142D01*
X134010197Y-103401144D01*
X134195354Y-103440500D01*
X134202642Y-103440500D01*
X134226835Y-103442883D01*
X134231277Y-103443766D01*
X134231278Y-103443767D01*
X134250890Y-103447668D01*
X134275179Y-103452500D01*
X134275180Y-103452500D01*
X134935500Y-103452500D01*
X135002539Y-103472185D01*
X135048294Y-103524989D01*
X135059500Y-103576500D01*
X135059500Y-106916866D01*
X135039815Y-106983905D01*
X134987011Y-107029660D01*
X134917853Y-107039604D01*
X134862615Y-107017184D01*
X134752734Y-106937351D01*
X134752729Y-106937348D01*
X134579807Y-106860357D01*
X134579802Y-106860355D01*
X134434001Y-106829365D01*
X134394646Y-106821000D01*
X134205354Y-106821000D01*
X134172897Y-106827898D01*
X134020197Y-106860355D01*
X134020192Y-106860357D01*
X133847270Y-106937348D01*
X133847265Y-106937351D01*
X133694129Y-107048611D01*
X133567466Y-107189285D01*
X133472821Y-107353215D01*
X133472818Y-107353222D01*
X133414327Y-107533239D01*
X133414325Y-107533250D01*
X133404111Y-107630414D01*
X133397459Y-107656612D01*
X133387500Y-107706678D01*
X133387500Y-108275500D01*
X133367815Y-108342539D01*
X133315011Y-108388294D01*
X133263500Y-108399500D01*
X132836500Y-108399500D01*
X132769461Y-108379815D01*
X132723706Y-108327011D01*
X132712500Y-108275500D01*
X132712500Y-107706677D01*
X132702540Y-107656607D01*
X132695886Y-107630411D01*
X132685674Y-107533244D01*
X132627179Y-107353216D01*
X132532533Y-107189284D01*
X132405871Y-107048612D01*
X132405285Y-107048186D01*
X132252734Y-106937351D01*
X132252729Y-106937348D01*
X132079807Y-106860357D01*
X132079802Y-106860355D01*
X131934001Y-106829365D01*
X131894646Y-106821000D01*
X131705354Y-106821000D01*
X131672897Y-106827898D01*
X131520197Y-106860355D01*
X131520192Y-106860357D01*
X131347270Y-106937348D01*
X131347265Y-106937351D01*
X131194129Y-107048611D01*
X131067466Y-107189285D01*
X130972821Y-107353215D01*
X130972818Y-107353222D01*
X130914327Y-107533239D01*
X130914325Y-107533250D01*
X130904111Y-107630414D01*
X130897459Y-107656612D01*
X130887500Y-107706678D01*
X130887500Y-108275500D01*
X130867815Y-108342539D01*
X130815011Y-108388294D01*
X130763500Y-108399500D01*
X130336500Y-108399500D01*
X130269461Y-108379815D01*
X130223706Y-108327011D01*
X130212500Y-108275500D01*
X130212500Y-107706677D01*
X130202540Y-107656607D01*
X130195886Y-107630411D01*
X130185674Y-107533244D01*
X130127179Y-107353216D01*
X130032533Y-107189284D01*
X129905871Y-107048612D01*
X129905285Y-107048186D01*
X129752734Y-106937351D01*
X129752729Y-106937348D01*
X129579807Y-106860357D01*
X129579802Y-106860355D01*
X129434001Y-106829365D01*
X129394646Y-106821000D01*
X129205354Y-106821000D01*
X129172897Y-106827898D01*
X129020197Y-106860355D01*
X129020192Y-106860357D01*
X128847270Y-106937348D01*
X128847265Y-106937351D01*
X128694129Y-107048611D01*
X128567466Y-107189285D01*
X128472821Y-107353215D01*
X128472818Y-107353222D01*
X128414327Y-107533239D01*
X128414325Y-107533250D01*
X128404111Y-107630414D01*
X128397459Y-107656612D01*
X128387500Y-107706678D01*
X128387500Y-108275500D01*
X128367815Y-108342539D01*
X128315011Y-108388294D01*
X128263500Y-108399500D01*
X127836500Y-108399500D01*
X127769461Y-108379815D01*
X127723706Y-108327011D01*
X127712500Y-108275500D01*
X127712500Y-107685177D01*
X127702540Y-107635107D01*
X127695886Y-107608911D01*
X127685674Y-107511744D01*
X127627179Y-107331716D01*
X127532533Y-107167784D01*
X127405871Y-107027112D01*
X127405870Y-107027111D01*
X127252734Y-106915851D01*
X127252729Y-106915848D01*
X127079807Y-106838857D01*
X127079802Y-106838855D01*
X126925297Y-106806015D01*
X126894646Y-106799500D01*
X126705354Y-106799500D01*
X126674703Y-106806015D01*
X126520197Y-106838855D01*
X126520192Y-106838857D01*
X126347270Y-106915848D01*
X126347265Y-106915851D01*
X126194131Y-107027110D01*
X126169718Y-107054223D01*
X126110230Y-107090870D01*
X126040373Y-107089539D01*
X125982326Y-107050651D01*
X125954517Y-106986554D01*
X125955095Y-106951854D01*
X125957892Y-106934200D01*
X125957892Y-106934197D01*
X125957892Y-106934196D01*
X125938047Y-106808899D01*
X125938047Y-106808898D01*
X125932532Y-106798075D01*
X125880450Y-106695858D01*
X125880446Y-106695854D01*
X125880445Y-106695852D01*
X125790747Y-106606154D01*
X125790744Y-106606152D01*
X125790742Y-106606150D01*
X125677704Y-106548554D01*
X125677703Y-106548553D01*
X125677700Y-106548552D01*
X125552403Y-106528708D01*
X125552397Y-106528708D01*
X125427099Y-106548552D01*
X125427098Y-106548552D01*
X125351737Y-106586951D01*
X125314058Y-106606150D01*
X125314057Y-106606151D01*
X125314053Y-106606153D01*
X125272828Y-106647380D01*
X125211505Y-106680866D01*
X125185146Y-106683700D01*
X125130070Y-106683700D01*
X125130062Y-106683699D01*
X125115628Y-106683699D01*
X125015972Y-106683699D01*
X125015970Y-106683699D01*
X125015968Y-106683700D01*
X124950872Y-106710663D01*
X124950869Y-106710665D01*
X124925313Y-106721252D01*
X124923903Y-106721836D01*
X124923899Y-106721839D01*
X124853436Y-106792303D01*
X124853433Y-106792304D01*
X124853434Y-106792305D01*
X124797186Y-106848551D01*
X124735862Y-106882035D01*
X124666170Y-106877049D01*
X124659071Y-106874148D01*
X124579802Y-106838855D01*
X124425297Y-106806015D01*
X124394646Y-106799500D01*
X124205354Y-106799500D01*
X124174703Y-106806015D01*
X124020197Y-106838855D01*
X124020192Y-106838857D01*
X123847270Y-106915848D01*
X123847265Y-106915851D01*
X123694129Y-107027111D01*
X123694128Y-107027112D01*
X123684841Y-107037427D01*
X123625354Y-107074075D01*
X123555497Y-107072744D01*
X123497449Y-107033857D01*
X123469640Y-106969760D01*
X123469215Y-106962899D01*
X123448847Y-106834299D01*
X123448847Y-106834298D01*
X123439134Y-106815236D01*
X123391250Y-106721258D01*
X123391246Y-106721254D01*
X123391245Y-106721252D01*
X123301547Y-106631554D01*
X123301544Y-106631552D01*
X123301542Y-106631550D01*
X123188504Y-106573954D01*
X123188503Y-106573953D01*
X123188500Y-106573952D01*
X123063203Y-106554108D01*
X123063197Y-106554108D01*
X122937899Y-106573952D01*
X122937898Y-106573952D01*
X122874708Y-106606150D01*
X122824858Y-106631550D01*
X122824857Y-106631551D01*
X122824853Y-106631553D01*
X122783628Y-106672780D01*
X122722305Y-106706266D01*
X122695946Y-106709100D01*
X122604670Y-106709100D01*
X122604662Y-106709099D01*
X122590228Y-106709099D01*
X122490573Y-106709099D01*
X122490570Y-106709099D01*
X122442955Y-106728823D01*
X122442954Y-106728822D01*
X122398505Y-106747234D01*
X122398501Y-106747237D01*
X122328036Y-106817703D01*
X122328031Y-106817705D01*
X122328032Y-106817706D01*
X122297184Y-106848552D01*
X122235860Y-106882035D01*
X122166169Y-106877048D01*
X122159071Y-106874148D01*
X122079802Y-106838855D01*
X121925297Y-106806015D01*
X121894646Y-106799500D01*
X121705354Y-106799500D01*
X121674703Y-106806015D01*
X121520197Y-106838855D01*
X121520192Y-106838857D01*
X121347270Y-106915848D01*
X121347265Y-106915851D01*
X121194129Y-107027111D01*
X121067466Y-107167785D01*
X120972821Y-107331715D01*
X120972818Y-107331722D01*
X120914327Y-107511739D01*
X120914325Y-107511750D01*
X120904111Y-107608914D01*
X120897459Y-107635112D01*
X120887500Y-107685178D01*
X120887500Y-108275500D01*
X120867815Y-108342539D01*
X120815011Y-108388294D01*
X120763500Y-108399500D01*
X117609300Y-108399500D01*
X117542261Y-108379815D01*
X117496506Y-108327011D01*
X117485300Y-108275500D01*
X117485300Y-107983670D01*
X117504985Y-107916631D01*
X117557789Y-107870876D01*
X117626947Y-107860932D01*
X117628678Y-107861194D01*
X117648409Y-107864319D01*
X117703798Y-107873092D01*
X117703800Y-107873092D01*
X117703803Y-107873092D01*
X117829100Y-107853247D01*
X117829101Y-107853247D01*
X117829102Y-107853246D01*
X117829104Y-107853246D01*
X117942142Y-107795650D01*
X118031850Y-107705942D01*
X118089446Y-107592904D01*
X118089446Y-107592902D01*
X118089447Y-107592901D01*
X118089447Y-107592900D01*
X118109292Y-107467603D01*
X118109292Y-107467596D01*
X118089447Y-107342299D01*
X118089447Y-107342298D01*
X118078442Y-107320700D01*
X118031850Y-107229258D01*
X118031846Y-107229254D01*
X118031845Y-107229252D01*
X117942147Y-107139554D01*
X117942144Y-107139552D01*
X117942142Y-107139550D01*
X117829104Y-107081954D01*
X117829103Y-107081953D01*
X117829100Y-107081952D01*
X117703803Y-107062108D01*
X117703797Y-107062108D01*
X117578498Y-107081952D01*
X117578497Y-107081953D01*
X117559631Y-107091565D01*
X117490961Y-107104458D01*
X117434452Y-107084181D01*
X117393522Y-107056833D01*
X117393521Y-107056832D01*
X117393520Y-107056832D01*
X117393517Y-107056831D01*
X117349622Y-107048100D01*
X117349620Y-107048100D01*
X116957556Y-107048100D01*
X116890517Y-107028415D01*
X116844762Y-106975611D01*
X116834818Y-106906453D01*
X116838133Y-106883400D01*
X116819697Y-106755174D01*
X116819696Y-106755173D01*
X116819348Y-106752747D01*
X116829292Y-106683588D01*
X116875047Y-106630784D01*
X116942086Y-106611100D01*
X117539822Y-106611100D01*
X117583717Y-106602368D01*
X117583717Y-106602367D01*
X117583722Y-106602367D01*
X117633504Y-106569104D01*
X117666767Y-106519322D01*
X117675500Y-106475420D01*
X117675500Y-106160180D01*
X117695185Y-106093141D01*
X117711819Y-106072499D01*
X117919462Y-105864856D01*
X125699500Y-105864856D01*
X125699502Y-105864882D01*
X125702413Y-105889987D01*
X125702415Y-105889991D01*
X125747793Y-105992764D01*
X125747794Y-105992765D01*
X125827235Y-106072206D01*
X125930009Y-106117585D01*
X125955135Y-106120500D01*
X127694864Y-106120499D01*
X127694879Y-106120497D01*
X127694882Y-106120497D01*
X127719987Y-106117586D01*
X127719988Y-106117585D01*
X127719991Y-106117585D01*
X127822765Y-106072206D01*
X127822771Y-106072199D01*
X127827192Y-106069172D01*
X127893623Y-106047523D01*
X127961213Y-106065226D01*
X127995648Y-106095982D01*
X128004579Y-106107621D01*
X128119575Y-106195861D01*
X128119576Y-106195861D01*
X128119577Y-106195862D01*
X128151759Y-106209192D01*
X128253491Y-106251330D01*
X128380480Y-106268048D01*
X128397199Y-106270250D01*
X128397200Y-106270250D01*
X128397201Y-106270250D01*
X128412368Y-106268253D01*
X128540909Y-106251330D01*
X128674825Y-106195861D01*
X128789821Y-106107621D01*
X128878061Y-105992625D01*
X128933530Y-105858709D01*
X128952450Y-105715003D01*
X129922108Y-105715003D01*
X129941952Y-105840300D01*
X129941952Y-105840301D01*
X129954470Y-105864868D01*
X129999550Y-105953342D01*
X129999552Y-105953344D01*
X129999554Y-105953347D01*
X130089252Y-106043045D01*
X130089254Y-106043046D01*
X130089258Y-106043050D01*
X130202296Y-106100646D01*
X130202297Y-106100646D01*
X130202299Y-106100647D01*
X130327597Y-106120492D01*
X130327600Y-106120492D01*
X130327603Y-106120492D01*
X130452900Y-106100647D01*
X130452901Y-106100647D01*
X130452902Y-106100646D01*
X130452904Y-106100646D01*
X130565942Y-106043050D01*
X130569326Y-106039665D01*
X130630646Y-106006179D01*
X130700338Y-106011160D01*
X130744690Y-106039662D01*
X130763573Y-106058544D01*
X130777235Y-106072206D01*
X130880009Y-106117585D01*
X130905135Y-106120500D01*
X132644864Y-106120499D01*
X132644879Y-106120497D01*
X132644882Y-106120497D01*
X132669987Y-106117586D01*
X132669988Y-106117585D01*
X132669991Y-106117585D01*
X132772765Y-106072206D01*
X132852206Y-105992765D01*
X132897585Y-105889991D01*
X132900500Y-105864865D01*
X132900499Y-105475136D01*
X132900342Y-105473781D01*
X132897586Y-105450012D01*
X132897585Y-105450010D01*
X132897585Y-105450009D01*
X132852206Y-105347235D01*
X132772765Y-105267794D01*
X132764234Y-105264027D01*
X132669992Y-105222415D01*
X132644865Y-105219500D01*
X130905143Y-105219500D01*
X130905117Y-105219502D01*
X130880012Y-105222413D01*
X130880008Y-105222415D01*
X130777236Y-105267793D01*
X130690683Y-105354346D01*
X130629359Y-105387830D01*
X130559668Y-105382846D01*
X130546707Y-105377149D01*
X130452900Y-105329352D01*
X130327603Y-105309508D01*
X130327597Y-105309508D01*
X130202299Y-105329352D01*
X130202298Y-105329352D01*
X130139991Y-105361100D01*
X130089258Y-105386950D01*
X130089257Y-105386951D01*
X130089252Y-105386954D01*
X129999554Y-105476652D01*
X129999551Y-105476657D01*
X129941952Y-105589698D01*
X129941952Y-105589699D01*
X129922108Y-105714996D01*
X129922108Y-105715003D01*
X128952450Y-105715003D01*
X128952450Y-105715000D01*
X128952449Y-105714996D01*
X128950248Y-105698280D01*
X128933530Y-105571291D01*
X128879095Y-105439872D01*
X128878062Y-105437377D01*
X128878061Y-105437376D01*
X128878061Y-105437375D01*
X128789821Y-105322379D01*
X128674825Y-105234139D01*
X128674824Y-105234138D01*
X128674822Y-105234137D01*
X128540912Y-105178671D01*
X128540910Y-105178670D01*
X128540909Y-105178670D01*
X128469054Y-105169210D01*
X128397201Y-105159750D01*
X128397199Y-105159750D01*
X128253491Y-105178670D01*
X128253487Y-105178671D01*
X128119577Y-105234137D01*
X128117066Y-105236064D01*
X128018861Y-105311419D01*
X127953693Y-105336613D01*
X127885249Y-105322575D01*
X127855695Y-105300724D01*
X127822765Y-105267794D01*
X127719992Y-105222415D01*
X127694865Y-105219500D01*
X125955143Y-105219500D01*
X125955117Y-105219502D01*
X125930012Y-105222413D01*
X125930008Y-105222415D01*
X125827235Y-105267793D01*
X125747794Y-105347234D01*
X125702415Y-105450006D01*
X125702415Y-105450008D01*
X125699500Y-105475131D01*
X125699500Y-105864856D01*
X117919462Y-105864856D01*
X118136285Y-105648033D01*
X118136286Y-105648032D01*
X118172900Y-105559638D01*
X118172900Y-105485100D01*
X118192585Y-105418061D01*
X118245389Y-105372306D01*
X118296900Y-105361100D01*
X119189822Y-105361100D01*
X119233717Y-105352368D01*
X119233717Y-105352367D01*
X119233722Y-105352367D01*
X119256158Y-105337375D01*
X119322835Y-105316498D01*
X119372499Y-105325916D01*
X119377772Y-105328100D01*
X119477428Y-105328100D01*
X119722487Y-105328100D01*
X119789526Y-105347785D01*
X119824788Y-105382025D01*
X119829985Y-105389613D01*
X119829987Y-105389616D01*
X119906784Y-105466413D01*
X120006138Y-105510282D01*
X120030427Y-105513100D01*
X120457172Y-105513099D01*
X120481462Y-105510282D01*
X120580816Y-105466413D01*
X120626019Y-105421210D01*
X120687342Y-105387725D01*
X120757034Y-105392709D01*
X120801381Y-105421210D01*
X120846584Y-105466413D01*
X120945938Y-105510282D01*
X120970227Y-105513100D01*
X121396972Y-105513099D01*
X121421262Y-105510282D01*
X121520616Y-105466413D01*
X121597413Y-105389616D01*
X121641282Y-105290262D01*
X121644100Y-105265973D01*
X121644099Y-104899228D01*
X121641282Y-104874938D01*
X121597413Y-104775584D01*
X121562975Y-104741146D01*
X121529490Y-104679823D01*
X121534474Y-104610131D01*
X121576346Y-104554198D01*
X121581765Y-104550363D01*
X121585601Y-104547801D01*
X121640966Y-104464940D01*
X121655500Y-104391874D01*
X121655500Y-104388619D01*
X121655982Y-104386975D01*
X121656097Y-104385814D01*
X121656317Y-104385835D01*
X121675185Y-104321580D01*
X121727989Y-104275825D01*
X121797147Y-104265881D01*
X121860703Y-104294906D01*
X121867181Y-104300938D01*
X121893659Y-104327416D01*
X121893662Y-104327417D01*
X121893663Y-104327418D01*
X121991299Y-104370529D01*
X121991300Y-104370529D01*
X121991302Y-104370530D01*
X122015177Y-104373300D01*
X122069439Y-104373299D01*
X122136477Y-104392982D01*
X122182232Y-104445786D01*
X122192177Y-104514944D01*
X122191912Y-104516696D01*
X122175108Y-104622796D01*
X122175108Y-104622803D01*
X122194952Y-104748100D01*
X122194952Y-104748101D01*
X122204065Y-104765985D01*
X122252550Y-104861142D01*
X122252552Y-104861144D01*
X122252554Y-104861147D01*
X122342252Y-104950845D01*
X122342254Y-104950846D01*
X122342258Y-104950850D01*
X122455296Y-105008446D01*
X122455297Y-105008446D01*
X122455299Y-105008447D01*
X122580597Y-105028292D01*
X122580600Y-105028292D01*
X122580603Y-105028292D01*
X122705900Y-105008447D01*
X122705901Y-105008447D01*
X122705902Y-105008446D01*
X122705904Y-105008446D01*
X122818942Y-104950850D01*
X122908650Y-104861142D01*
X122966246Y-104748104D01*
X122966246Y-104748102D01*
X122966247Y-104748101D01*
X122966247Y-104748100D01*
X122986092Y-104622803D01*
X122986092Y-104622796D01*
X122981667Y-104594856D01*
X125699500Y-104594856D01*
X125699502Y-104594882D01*
X125702413Y-104619987D01*
X125702415Y-104619991D01*
X125747793Y-104722764D01*
X125747794Y-104722765D01*
X125827235Y-104802206D01*
X125930009Y-104847585D01*
X125955135Y-104850500D01*
X127694864Y-104850499D01*
X127694879Y-104850497D01*
X127694882Y-104850497D01*
X127719987Y-104847586D01*
X127719988Y-104847585D01*
X127719991Y-104847585D01*
X127822765Y-104802206D01*
X127842352Y-104782619D01*
X127903675Y-104749134D01*
X127930033Y-104746300D01*
X128029946Y-104746300D01*
X128096985Y-104765985D01*
X128117628Y-104782620D01*
X128158853Y-104823846D01*
X128158855Y-104823847D01*
X128158858Y-104823850D01*
X128271896Y-104881446D01*
X128271897Y-104881446D01*
X128271899Y-104881447D01*
X128397197Y-104901292D01*
X128397200Y-104901292D01*
X128397203Y-104901292D01*
X128522500Y-104881447D01*
X128522501Y-104881447D01*
X128522502Y-104881446D01*
X128522504Y-104881446D01*
X128635542Y-104823850D01*
X128725250Y-104734142D01*
X128782846Y-104621104D01*
X128782846Y-104621102D01*
X128782847Y-104621101D01*
X128782847Y-104621100D01*
X128802692Y-104495803D01*
X129871308Y-104495803D01*
X129891152Y-104621100D01*
X129891152Y-104621101D01*
X129893350Y-104625414D01*
X129948750Y-104734142D01*
X129948752Y-104734144D01*
X129948754Y-104734147D01*
X130038452Y-104823845D01*
X130038454Y-104823846D01*
X130038458Y-104823850D01*
X130151496Y-104881446D01*
X130151497Y-104881446D01*
X130151499Y-104881447D01*
X130276797Y-104901292D01*
X130276800Y-104901292D01*
X130276803Y-104901292D01*
X130402100Y-104881447D01*
X130402101Y-104881447D01*
X130402102Y-104881446D01*
X130402104Y-104881446D01*
X130515142Y-104823850D01*
X130556372Y-104782620D01*
X130617695Y-104749134D01*
X130644054Y-104746300D01*
X130669967Y-104746300D01*
X130737006Y-104765985D01*
X130757648Y-104782619D01*
X130777235Y-104802206D01*
X130880009Y-104847585D01*
X130905135Y-104850500D01*
X132644864Y-104850499D01*
X132644879Y-104850497D01*
X132644882Y-104850497D01*
X132669987Y-104847586D01*
X132669988Y-104847585D01*
X132669991Y-104847585D01*
X132772765Y-104802206D01*
X132852206Y-104722765D01*
X132897585Y-104619991D01*
X132900500Y-104594865D01*
X132900499Y-104205136D01*
X132898765Y-104190181D01*
X132897586Y-104180012D01*
X132897585Y-104180010D01*
X132897585Y-104180009D01*
X132852206Y-104077235D01*
X132772765Y-103997794D01*
X132752101Y-103988670D01*
X132669992Y-103952415D01*
X132644865Y-103949500D01*
X130905143Y-103949500D01*
X130905117Y-103949502D01*
X130880012Y-103952413D01*
X130880008Y-103952415D01*
X130777235Y-103997793D01*
X130697793Y-104077235D01*
X130684563Y-104107198D01*
X130639476Y-104160573D01*
X130572689Y-104181099D01*
X130514836Y-104167594D01*
X130402104Y-104110154D01*
X130402103Y-104110153D01*
X130402100Y-104110152D01*
X130276803Y-104090308D01*
X130276797Y-104090308D01*
X130151499Y-104110152D01*
X130151498Y-104110152D01*
X130082940Y-104145085D01*
X130038458Y-104167750D01*
X130038457Y-104167751D01*
X130038452Y-104167754D01*
X129948754Y-104257452D01*
X129948751Y-104257457D01*
X129948750Y-104257458D01*
X129942105Y-104270500D01*
X129891152Y-104370498D01*
X129891152Y-104370499D01*
X129871308Y-104495796D01*
X129871308Y-104495803D01*
X128802692Y-104495803D01*
X128802692Y-104495796D01*
X128782847Y-104370499D01*
X128782847Y-104370498D01*
X128779394Y-104363721D01*
X128725250Y-104257458D01*
X128725246Y-104257454D01*
X128725245Y-104257452D01*
X128635547Y-104167754D01*
X128635544Y-104167752D01*
X128635542Y-104167750D01*
X128522504Y-104110154D01*
X128522503Y-104110153D01*
X128522500Y-104110152D01*
X128397203Y-104090308D01*
X128397197Y-104090308D01*
X128271899Y-104110152D01*
X128271898Y-104110152D01*
X128203340Y-104145085D01*
X128158858Y-104167750D01*
X128158857Y-104167751D01*
X128158852Y-104167754D01*
X128136541Y-104190066D01*
X128075218Y-104223551D01*
X128005526Y-104218567D01*
X127949593Y-104176695D01*
X127935426Y-104152471D01*
X127902206Y-104077235D01*
X127822765Y-103997794D01*
X127719992Y-103952415D01*
X127694865Y-103949500D01*
X125955143Y-103949500D01*
X125955117Y-103949502D01*
X125930012Y-103952413D01*
X125930008Y-103952415D01*
X125827235Y-103997793D01*
X125747794Y-104077234D01*
X125702415Y-104180006D01*
X125702415Y-104180008D01*
X125699500Y-104205131D01*
X125699500Y-104594856D01*
X122981667Y-104594856D01*
X122969288Y-104516696D01*
X122978243Y-104447403D01*
X123023239Y-104393951D01*
X123089991Y-104373312D01*
X123091761Y-104373299D01*
X123180416Y-104373299D01*
X123180422Y-104373299D01*
X123204298Y-104370530D01*
X123301935Y-104327419D01*
X123301936Y-104327418D01*
X123301941Y-104327416D01*
X123377416Y-104251941D01*
X123420530Y-104154298D01*
X123423300Y-104130423D01*
X123423299Y-102965178D01*
X123420530Y-102941302D01*
X123420530Y-102941301D01*
X123377419Y-102843664D01*
X123377417Y-102843661D01*
X123377416Y-102843659D01*
X123301941Y-102768184D01*
X123301938Y-102768183D01*
X123301936Y-102768181D01*
X123204300Y-102725070D01*
X123204301Y-102725070D01*
X123180424Y-102722300D01*
X122012914Y-102722300D01*
X121945875Y-102702615D01*
X121900120Y-102649811D01*
X121890176Y-102580653D01*
X121898353Y-102550848D01*
X121948530Y-102429709D01*
X121967450Y-102286000D01*
X121948530Y-102142291D01*
X121910102Y-102049517D01*
X121893062Y-102008377D01*
X121893061Y-102008376D01*
X121893061Y-102008375D01*
X121804821Y-101893379D01*
X121784378Y-101877692D01*
X121743178Y-101821267D01*
X121739023Y-101751521D01*
X121756766Y-101710427D01*
X121758050Y-101708504D01*
X121758053Y-101708503D01*
X121791316Y-101658721D01*
X121791775Y-101656412D01*
X121800049Y-101614821D01*
X121800049Y-101573850D01*
X121819734Y-101506811D01*
X121872538Y-101461056D01*
X121941696Y-101451112D01*
X122005252Y-101480137D01*
X122011730Y-101486169D01*
X122052329Y-101526768D01*
X122052333Y-101526771D01*
X122052335Y-101526773D01*
X122158318Y-101580774D01*
X122158320Y-101580774D01*
X122158322Y-101580775D01*
X122275797Y-101599381D01*
X122275800Y-101599381D01*
X122275803Y-101599381D01*
X122393277Y-101580775D01*
X122393278Y-101580775D01*
X122393279Y-101580774D01*
X122393282Y-101580774D01*
X122499265Y-101526773D01*
X122583373Y-101442665D01*
X122637374Y-101336682D01*
X122637890Y-101333426D01*
X122655981Y-101219203D01*
X122655981Y-101219199D01*
X122651712Y-101192247D01*
X122651055Y-101188097D01*
X122660009Y-101118805D01*
X122705005Y-101065353D01*
X122771757Y-101044713D01*
X122773528Y-101044700D01*
X122954606Y-101044700D01*
X123021645Y-101064385D01*
X123067400Y-101117189D01*
X123077344Y-101186347D01*
X123077079Y-101188097D01*
X123064108Y-101269996D01*
X123064108Y-101270003D01*
X123083952Y-101395300D01*
X123083952Y-101395301D01*
X123094764Y-101416520D01*
X123141550Y-101508342D01*
X123141552Y-101508344D01*
X123141554Y-101508347D01*
X123231252Y-101598045D01*
X123231254Y-101598046D01*
X123231258Y-101598050D01*
X123344296Y-101655646D01*
X123344297Y-101655646D01*
X123344299Y-101655647D01*
X123469597Y-101675492D01*
X123469600Y-101675492D01*
X123469603Y-101675492D01*
X123594900Y-101655647D01*
X123594902Y-101655646D01*
X123594904Y-101655646D01*
X123662170Y-101621371D01*
X123730838Y-101608475D01*
X123795579Y-101634751D01*
X123806146Y-101644175D01*
X123818384Y-101656413D01*
X123917738Y-101700282D01*
X123942027Y-101703100D01*
X124368772Y-101703099D01*
X124393062Y-101700282D01*
X124492416Y-101656413D01*
X124563019Y-101585810D01*
X124624342Y-101552325D01*
X124694034Y-101557309D01*
X124738381Y-101585810D01*
X124808984Y-101656413D01*
X124908338Y-101700282D01*
X124932627Y-101703100D01*
X125359372Y-101703099D01*
X125383662Y-101700282D01*
X125483016Y-101656413D01*
X125487819Y-101651609D01*
X125549137Y-101618125D01*
X125618829Y-101623107D01*
X125674764Y-101664976D01*
X125699184Y-101730439D01*
X125699500Y-101739290D01*
X125699500Y-102054856D01*
X125699502Y-102054882D01*
X125702413Y-102079987D01*
X125702415Y-102079991D01*
X125747793Y-102182764D01*
X125747794Y-102182765D01*
X125827235Y-102262206D01*
X125930009Y-102307585D01*
X125955135Y-102310500D01*
X127694864Y-102310499D01*
X127694879Y-102310497D01*
X127694882Y-102310497D01*
X127719987Y-102307586D01*
X127719988Y-102307585D01*
X127719991Y-102307585D01*
X127822765Y-102262206D01*
X127902206Y-102182765D01*
X127947585Y-102079991D01*
X127950500Y-102054865D01*
X127950499Y-101798620D01*
X127970183Y-101731583D01*
X128018846Y-101689415D01*
X128015994Y-101689375D01*
X127957761Y-101650765D01*
X127939190Y-101620995D01*
X127916260Y-101569064D01*
X127902206Y-101537235D01*
X127822765Y-101457794D01*
X127813286Y-101451301D01*
X127814332Y-101449773D01*
X127771614Y-101413689D01*
X127751088Y-101346902D01*
X127769928Y-101279620D01*
X127787391Y-101257668D01*
X128024820Y-101020240D01*
X128086142Y-100986756D01*
X128155834Y-100991740D01*
X128211767Y-101033612D01*
X128236184Y-101099076D01*
X128236500Y-101107922D01*
X128236500Y-101171220D01*
X128236500Y-101171222D01*
X128236499Y-101171222D01*
X128245231Y-101215117D01*
X128245233Y-101215123D01*
X128258332Y-101234727D01*
X128279209Y-101301405D01*
X128260723Y-101368784D01*
X128252475Y-101379210D01*
X128252686Y-101379363D01*
X128246952Y-101387255D01*
X128246950Y-101387257D01*
X128246950Y-101387258D01*
X128239281Y-101402310D01*
X128189352Y-101500298D01*
X128175097Y-101590307D01*
X128145168Y-101653442D01*
X128101941Y-101680357D01*
X128155701Y-101704909D01*
X128184984Y-101742327D01*
X128189353Y-101750903D01*
X128189354Y-101750904D01*
X128246950Y-101863942D01*
X128246952Y-101863944D01*
X128246954Y-101863947D01*
X128336652Y-101953645D01*
X128336654Y-101953646D01*
X128336658Y-101953650D01*
X128449696Y-102011246D01*
X128449698Y-102011246D01*
X128457858Y-102015404D01*
X128508654Y-102063379D01*
X128525449Y-102131200D01*
X128505011Y-102191174D01*
X128505381Y-102191363D01*
X128504070Y-102193934D01*
X128502912Y-102197335D01*
X128501891Y-102198761D01*
X128500954Y-102200050D01*
X128443352Y-102313098D01*
X128443352Y-102313099D01*
X128423508Y-102438396D01*
X128423508Y-102438403D01*
X128443352Y-102563700D01*
X128443352Y-102563701D01*
X128476215Y-102628197D01*
X128489111Y-102696867D01*
X128462834Y-102761607D01*
X128405728Y-102801864D01*
X128346333Y-102806966D01*
X128327270Y-102803946D01*
X128270200Y-102794908D01*
X128270198Y-102794908D01*
X128270197Y-102794908D01*
X128144899Y-102814752D01*
X128144895Y-102814753D01*
X128065856Y-102855026D01*
X127997187Y-102867922D01*
X127932447Y-102841645D01*
X127907260Y-102814615D01*
X127902208Y-102807240D01*
X127902206Y-102807235D01*
X127822765Y-102727794D01*
X127811391Y-102722772D01*
X127719992Y-102682415D01*
X127694865Y-102679500D01*
X125955143Y-102679500D01*
X125955117Y-102679502D01*
X125930012Y-102682413D01*
X125930008Y-102682415D01*
X125827235Y-102727793D01*
X125747794Y-102807234D01*
X125702415Y-102910006D01*
X125702415Y-102910008D01*
X125699500Y-102935131D01*
X125699500Y-103324856D01*
X125699502Y-103324882D01*
X125702413Y-103349987D01*
X125702415Y-103349991D01*
X125747793Y-103452764D01*
X125747794Y-103452765D01*
X125827235Y-103532206D01*
X125930009Y-103577585D01*
X125955135Y-103580500D01*
X127694864Y-103580499D01*
X127694879Y-103580497D01*
X127694882Y-103580497D01*
X127719987Y-103577586D01*
X127719988Y-103577585D01*
X127719991Y-103577585D01*
X127822765Y-103532206D01*
X127841508Y-103513463D01*
X127902831Y-103479978D01*
X127972523Y-103484962D01*
X128016870Y-103513463D01*
X128031852Y-103528445D01*
X128031854Y-103528446D01*
X128031858Y-103528450D01*
X128144896Y-103586046D01*
X128144897Y-103586046D01*
X128144899Y-103586047D01*
X128270197Y-103605892D01*
X128270200Y-103605892D01*
X128270203Y-103605892D01*
X128395500Y-103586047D01*
X128395501Y-103586047D01*
X128395502Y-103586046D01*
X128395504Y-103586046D01*
X128508542Y-103528450D01*
X128575174Y-103461817D01*
X128636495Y-103428334D01*
X128662854Y-103425500D01*
X129234426Y-103425500D01*
X129234428Y-103425500D01*
X129326497Y-103387364D01*
X129668800Y-103045059D01*
X129730118Y-103011577D01*
X129799810Y-103016561D01*
X129855744Y-103058432D01*
X129880161Y-103123896D01*
X129878951Y-103152139D01*
X129874713Y-103178900D01*
X129871424Y-103199671D01*
X129871308Y-103200401D01*
X129871308Y-103200403D01*
X129891152Y-103325700D01*
X129891152Y-103325701D01*
X129891154Y-103325704D01*
X129948750Y-103438742D01*
X129948752Y-103438744D01*
X129948754Y-103438747D01*
X130038452Y-103528445D01*
X130038454Y-103528446D01*
X130038458Y-103528450D01*
X130151496Y-103586046D01*
X130151497Y-103586046D01*
X130151499Y-103586047D01*
X130276797Y-103605892D01*
X130276800Y-103605892D01*
X130276803Y-103605892D01*
X130402100Y-103586047D01*
X130402101Y-103586047D01*
X130402102Y-103586046D01*
X130402104Y-103586046D01*
X130515142Y-103528450D01*
X130556628Y-103486964D01*
X130617951Y-103453478D01*
X130687642Y-103458462D01*
X130731990Y-103486962D01*
X130758492Y-103513463D01*
X130777235Y-103532206D01*
X130880009Y-103577585D01*
X130905135Y-103580500D01*
X132644864Y-103580499D01*
X132644879Y-103580497D01*
X132644882Y-103580497D01*
X132669987Y-103577586D01*
X132669988Y-103577585D01*
X132669991Y-103577585D01*
X132772765Y-103532206D01*
X132852206Y-103452765D01*
X132897585Y-103349991D01*
X132900500Y-103324865D01*
X132900499Y-102935136D01*
X132900497Y-102935117D01*
X132897586Y-102910012D01*
X132897585Y-102910010D01*
X132897585Y-102910009D01*
X132852206Y-102807235D01*
X132772765Y-102727794D01*
X132761391Y-102722772D01*
X132669992Y-102682415D01*
X132644865Y-102679500D01*
X130905143Y-102679500D01*
X130905117Y-102679502D01*
X130880012Y-102682413D01*
X130880008Y-102682415D01*
X130777235Y-102727793D01*
X130697794Y-102807234D01*
X130697793Y-102807236D01*
X130693708Y-102816488D01*
X130648621Y-102869863D01*
X130581834Y-102890389D01*
X130525010Y-102874477D01*
X130523837Y-102876781D01*
X130515143Y-102872351D01*
X130515142Y-102872350D01*
X130402104Y-102814754D01*
X130402103Y-102814753D01*
X130402100Y-102814752D01*
X130276803Y-102794908D01*
X130276797Y-102794908D01*
X130151499Y-102814752D01*
X130151498Y-102814752D01*
X130038451Y-102872353D01*
X130034378Y-102875313D01*
X129968570Y-102898787D01*
X129900517Y-102882956D01*
X129851826Y-102832847D01*
X129837501Y-102774989D01*
X129837501Y-102712783D01*
X129837500Y-102712769D01*
X129837500Y-102092432D01*
X129857185Y-102025393D01*
X129909989Y-101979638D01*
X129979147Y-101969694D01*
X130017791Y-101981945D01*
X130075296Y-102011246D01*
X130075297Y-102011246D01*
X130075299Y-102011247D01*
X130200597Y-102031092D01*
X130200600Y-102031092D01*
X130200603Y-102031092D01*
X130325900Y-102011247D01*
X130325901Y-102011247D01*
X130325902Y-102011246D01*
X130325904Y-102011246D01*
X130438942Y-101953650D01*
X130528650Y-101863942D01*
X130586246Y-101750904D01*
X130586246Y-101750902D01*
X130586247Y-101750901D01*
X130586247Y-101750900D01*
X130606092Y-101625603D01*
X130606092Y-101625596D01*
X130586247Y-101500299D01*
X130586247Y-101500298D01*
X130569046Y-101466540D01*
X130528650Y-101387258D01*
X130528646Y-101387254D01*
X130528645Y-101387252D01*
X130463646Y-101322253D01*
X130430161Y-101260930D01*
X130429710Y-101210381D01*
X130437500Y-101171220D01*
X130437500Y-100641580D01*
X130437500Y-100641577D01*
X130428768Y-100597682D01*
X130428767Y-100597681D01*
X130428767Y-100597678D01*
X130420416Y-100585179D01*
X130395505Y-100547897D01*
X130395504Y-100547896D01*
X130345722Y-100514633D01*
X130345720Y-100514632D01*
X130338043Y-100509503D01*
X130293237Y-100455891D01*
X130284530Y-100386566D01*
X130314684Y-100323538D01*
X130338043Y-100303297D01*
X130345719Y-100298167D01*
X130345722Y-100298167D01*
X130395504Y-100264904D01*
X130421525Y-100225959D01*
X130475136Y-100181155D01*
X130544460Y-100172446D01*
X130607488Y-100202600D01*
X130612308Y-100207169D01*
X130823014Y-100417875D01*
X130848767Y-100455469D01*
X130873915Y-100512423D01*
X130886187Y-100540216D01*
X130962984Y-100617013D01*
X131062338Y-100660882D01*
X131086627Y-100663700D01*
X131453372Y-100663699D01*
X131477662Y-100660882D01*
X131577016Y-100617013D01*
X131653813Y-100540216D01*
X131697682Y-100440862D01*
X131700500Y-100416573D01*
X131700499Y-99989828D01*
X131697682Y-99965538D01*
X131664800Y-99891068D01*
X131655729Y-99821794D01*
X131685552Y-99758609D01*
X131690531Y-99753327D01*
X131766642Y-99677218D01*
X131827965Y-99643733D01*
X131854322Y-99640900D01*
X132407677Y-99640900D01*
X132474716Y-99660585D01*
G37*
G04 #@! TD.AperFunction*
G04 #@! TA.AperFunction,Conductor*
G36*
X101600000Y-104541283D02*
G01*
X101607884Y-104555722D01*
X101602900Y-104625414D01*
X101562205Y-104680455D01*
X101486977Y-104738180D01*
X101420018Y-104825442D01*
X101383643Y-104857341D01*
X101372204Y-104863945D01*
X101326492Y-104890338D01*
X101326486Y-104890342D01*
X101227848Y-104988981D01*
X101166525Y-105022466D01*
X101140167Y-105025300D01*
X100730364Y-105025300D01*
X100657375Y-105035934D01*
X100657373Y-105035934D01*
X100647845Y-105037323D01*
X100647502Y-105034974D01*
X100591233Y-105035761D01*
X100531932Y-104998813D01*
X100502021Y-104935670D01*
X100500500Y-104916307D01*
X100500500Y-104526706D01*
X100520185Y-104459667D01*
X100572989Y-104413912D01*
X100642147Y-104403968D01*
X100693391Y-104423604D01*
X100718420Y-104440328D01*
X100718433Y-104440335D01*
X100845813Y-104493097D01*
X100845823Y-104493100D01*
X100981053Y-104520000D01*
X101100000Y-104520000D01*
X101100000Y-104120000D01*
X101600000Y-104120000D01*
X101600000Y-104541283D01*
G37*
G04 #@! TD.AperFunction*
G04 #@! TA.AperFunction,Conductor*
G36*
X120432965Y-96790202D02*
G01*
X120484726Y-96800499D01*
X120484729Y-96800499D01*
X120714370Y-96800499D01*
X120742244Y-96794954D01*
X120758271Y-96791766D01*
X120758271Y-96791765D01*
X120762890Y-96790847D01*
X120832482Y-96797074D01*
X120887660Y-96839936D01*
X120910905Y-96905825D01*
X120908701Y-96936654D01*
X120903989Y-96960343D01*
X120899049Y-96985179D01*
X120899049Y-97214819D01*
X120899049Y-97214821D01*
X120899048Y-97214821D01*
X120910164Y-97270699D01*
X120907239Y-97271280D01*
X120912689Y-97322032D01*
X120909343Y-97333426D01*
X120899049Y-97385176D01*
X120899049Y-97385179D01*
X120899049Y-97614819D01*
X120899049Y-97614821D01*
X120899048Y-97614821D01*
X120910164Y-97670699D01*
X120907239Y-97671280D01*
X120912689Y-97722032D01*
X120909343Y-97733426D01*
X120899049Y-97785176D01*
X120899049Y-97785179D01*
X120899049Y-98014819D01*
X120899049Y-98014821D01*
X120899048Y-98014821D01*
X120910164Y-98070699D01*
X120907239Y-98071280D01*
X120912689Y-98122032D01*
X120909343Y-98133426D01*
X120899049Y-98185176D01*
X120899049Y-98185179D01*
X120899049Y-98414819D01*
X120899049Y-98414821D01*
X120899048Y-98414821D01*
X120910164Y-98470699D01*
X120907239Y-98471280D01*
X120912689Y-98522032D01*
X120909343Y-98533426D01*
X120899049Y-98585176D01*
X120899049Y-98585179D01*
X120899049Y-98814819D01*
X120899049Y-98814821D01*
X120899048Y-98814821D01*
X120910164Y-98870699D01*
X120907239Y-98871280D01*
X120912689Y-98922032D01*
X120909343Y-98933426D01*
X120899049Y-98985176D01*
X120899049Y-98985179D01*
X120899049Y-99214819D01*
X120899049Y-99214821D01*
X120899048Y-99214821D01*
X120910164Y-99270699D01*
X120907239Y-99271280D01*
X120912689Y-99322032D01*
X120909343Y-99333426D01*
X120899049Y-99385176D01*
X120899049Y-99385179D01*
X120899049Y-99614819D01*
X120899049Y-99614821D01*
X120899048Y-99614821D01*
X120910164Y-99670699D01*
X120907239Y-99671280D01*
X120912689Y-99722032D01*
X120909343Y-99733426D01*
X120899049Y-99785176D01*
X120899049Y-99785179D01*
X120899049Y-100014819D01*
X120899049Y-100014821D01*
X120899048Y-100014821D01*
X120910164Y-100070699D01*
X120907239Y-100071280D01*
X120912689Y-100122032D01*
X120909343Y-100133426D01*
X120899049Y-100185176D01*
X120899049Y-100185179D01*
X120899049Y-100414819D01*
X120899049Y-100414821D01*
X120899048Y-100414821D01*
X120910164Y-100470699D01*
X120907239Y-100471280D01*
X120912689Y-100522032D01*
X120909343Y-100533426D01*
X120899049Y-100585176D01*
X120899049Y-100585179D01*
X120899049Y-100814819D01*
X120899049Y-100814821D01*
X120899048Y-100814821D01*
X120910164Y-100870699D01*
X120907239Y-100871280D01*
X120912689Y-100922032D01*
X120909343Y-100933426D01*
X120899049Y-100985176D01*
X120899049Y-100985179D01*
X120899049Y-101214819D01*
X120899049Y-101214821D01*
X120899048Y-101214821D01*
X120910164Y-101270699D01*
X120907239Y-101271280D01*
X120912689Y-101322032D01*
X120909343Y-101333426D01*
X120899049Y-101385176D01*
X120899049Y-101614823D01*
X120908700Y-101663342D01*
X120902473Y-101732934D01*
X120859610Y-101788111D01*
X120793720Y-101811355D01*
X120762892Y-101809150D01*
X120714373Y-101799499D01*
X120714369Y-101799499D01*
X120484729Y-101799499D01*
X120484727Y-101799499D01*
X120428849Y-101810614D01*
X120428267Y-101807689D01*
X120377516Y-101813139D01*
X120366121Y-101809793D01*
X120314371Y-101799499D01*
X120314369Y-101799499D01*
X120084729Y-101799499D01*
X120084727Y-101799499D01*
X120028849Y-101810614D01*
X120028267Y-101807689D01*
X119977516Y-101813139D01*
X119966121Y-101809793D01*
X119914371Y-101799499D01*
X119914369Y-101799499D01*
X119684729Y-101799499D01*
X119684727Y-101799499D01*
X119628849Y-101810614D01*
X119628267Y-101807689D01*
X119577516Y-101813139D01*
X119566121Y-101809793D01*
X119514371Y-101799499D01*
X119514369Y-101799499D01*
X119284729Y-101799499D01*
X119284727Y-101799499D01*
X119228849Y-101810614D01*
X119228267Y-101807689D01*
X119177516Y-101813139D01*
X119166121Y-101809793D01*
X119114371Y-101799499D01*
X119114369Y-101799499D01*
X118884729Y-101799499D01*
X118884727Y-101799499D01*
X118828849Y-101810614D01*
X118828267Y-101807689D01*
X118777516Y-101813139D01*
X118766121Y-101809793D01*
X118714371Y-101799499D01*
X118714369Y-101799499D01*
X118484729Y-101799499D01*
X118484727Y-101799499D01*
X118428849Y-101810614D01*
X118428267Y-101807689D01*
X118377516Y-101813139D01*
X118366121Y-101809793D01*
X118314371Y-101799499D01*
X118314369Y-101799499D01*
X118084729Y-101799499D01*
X118084727Y-101799499D01*
X118028849Y-101810614D01*
X118028267Y-101807689D01*
X117977516Y-101813139D01*
X117966121Y-101809793D01*
X117914371Y-101799499D01*
X117914369Y-101799499D01*
X117684729Y-101799499D01*
X117684727Y-101799499D01*
X117628849Y-101810614D01*
X117628267Y-101807689D01*
X117577516Y-101813139D01*
X117566121Y-101809793D01*
X117514371Y-101799499D01*
X117514369Y-101799499D01*
X117284729Y-101799499D01*
X117284727Y-101799499D01*
X117228849Y-101810614D01*
X117228267Y-101807689D01*
X117177516Y-101813139D01*
X117166121Y-101809793D01*
X117114371Y-101799499D01*
X117114369Y-101799499D01*
X116884729Y-101799499D01*
X116884727Y-101799499D01*
X116828849Y-101810614D01*
X116828267Y-101807689D01*
X116777516Y-101813139D01*
X116766121Y-101809793D01*
X116714371Y-101799499D01*
X116714369Y-101799499D01*
X116484729Y-101799499D01*
X116484727Y-101799499D01*
X116428849Y-101810614D01*
X116428267Y-101807689D01*
X116377516Y-101813139D01*
X116366121Y-101809793D01*
X116314371Y-101799499D01*
X116314369Y-101799499D01*
X116084729Y-101799499D01*
X116036204Y-101809151D01*
X115966613Y-101802923D01*
X115911436Y-101760059D01*
X115888192Y-101694169D01*
X115890397Y-101663340D01*
X115900049Y-101614820D01*
X115900049Y-101385176D01*
X115888934Y-101329299D01*
X115891860Y-101328716D01*
X115886404Y-101277986D01*
X115889752Y-101266582D01*
X115891527Y-101257662D01*
X115896089Y-101234727D01*
X115900049Y-101214821D01*
X115900049Y-100985176D01*
X115888934Y-100929299D01*
X115891860Y-100928716D01*
X115886404Y-100877986D01*
X115889752Y-100866582D01*
X115892178Y-100854390D01*
X115894070Y-100844875D01*
X115900049Y-100814821D01*
X115900049Y-100585176D01*
X115888934Y-100529299D01*
X115891860Y-100528716D01*
X115886404Y-100477986D01*
X115889752Y-100466582D01*
X115900049Y-100414821D01*
X115900049Y-100185176D01*
X115888934Y-100129299D01*
X115891860Y-100128716D01*
X115886404Y-100077986D01*
X115889752Y-100066582D01*
X115900049Y-100014821D01*
X115900049Y-99785176D01*
X115888934Y-99729299D01*
X115891860Y-99728716D01*
X115886404Y-99677986D01*
X115889752Y-99666582D01*
X115900049Y-99614821D01*
X115900049Y-99385176D01*
X115888934Y-99329299D01*
X115891860Y-99328716D01*
X115886404Y-99277986D01*
X115889752Y-99266582D01*
X115900049Y-99214821D01*
X115900049Y-98985176D01*
X115888934Y-98929299D01*
X115891860Y-98928716D01*
X115886404Y-98877986D01*
X115889752Y-98866582D01*
X115892178Y-98854390D01*
X115894399Y-98843221D01*
X115900049Y-98814821D01*
X115900049Y-98585176D01*
X115888934Y-98529299D01*
X115891860Y-98528716D01*
X115886404Y-98477986D01*
X115889752Y-98466582D01*
X115900049Y-98414821D01*
X115900049Y-98185176D01*
X115888934Y-98129299D01*
X115891860Y-98128716D01*
X115886404Y-98077986D01*
X115889752Y-98066582D01*
X115891464Y-98057979D01*
X115898423Y-98022993D01*
X115900049Y-98014821D01*
X115900049Y-97785176D01*
X115888934Y-97729299D01*
X115891860Y-97728716D01*
X115886404Y-97677986D01*
X115889752Y-97666582D01*
X115900049Y-97614821D01*
X115900049Y-97385176D01*
X115888934Y-97329299D01*
X115891860Y-97328716D01*
X115886404Y-97277986D01*
X115889752Y-97266582D01*
X115900049Y-97214821D01*
X115900049Y-96985177D01*
X115890397Y-96936657D01*
X115896624Y-96867065D01*
X115939486Y-96811887D01*
X116005376Y-96788642D01*
X116036207Y-96790847D01*
X116084728Y-96800499D01*
X116084729Y-96800499D01*
X116314371Y-96800499D01*
X116370249Y-96789384D01*
X116370831Y-96792310D01*
X116421562Y-96786854D01*
X116432965Y-96790202D01*
X116484726Y-96800499D01*
X116484729Y-96800499D01*
X116714371Y-96800499D01*
X116770249Y-96789384D01*
X116770831Y-96792310D01*
X116821562Y-96786854D01*
X116832965Y-96790202D01*
X116884726Y-96800499D01*
X116884729Y-96800499D01*
X117114371Y-96800499D01*
X117170249Y-96789384D01*
X117170831Y-96792310D01*
X117221562Y-96786854D01*
X117232965Y-96790202D01*
X117284726Y-96800499D01*
X117284729Y-96800499D01*
X117514371Y-96800499D01*
X117570249Y-96789384D01*
X117570831Y-96792310D01*
X117621562Y-96786854D01*
X117632965Y-96790202D01*
X117684726Y-96800499D01*
X117684729Y-96800499D01*
X117914371Y-96800499D01*
X117970249Y-96789384D01*
X117970831Y-96792310D01*
X118021562Y-96786854D01*
X118032965Y-96790202D01*
X118084726Y-96800499D01*
X118084729Y-96800499D01*
X118314371Y-96800499D01*
X118370249Y-96789384D01*
X118370831Y-96792310D01*
X118421562Y-96786854D01*
X118432965Y-96790202D01*
X118484726Y-96800499D01*
X118484729Y-96800499D01*
X118714371Y-96800499D01*
X118770249Y-96789384D01*
X118770831Y-96792310D01*
X118821562Y-96786854D01*
X118832965Y-96790202D01*
X118884726Y-96800499D01*
X118884729Y-96800499D01*
X119114371Y-96800499D01*
X119170249Y-96789384D01*
X119170831Y-96792310D01*
X119221562Y-96786854D01*
X119232965Y-96790202D01*
X119284726Y-96800499D01*
X119284729Y-96800499D01*
X119514371Y-96800499D01*
X119570249Y-96789384D01*
X119570831Y-96792310D01*
X119621562Y-96786854D01*
X119632965Y-96790202D01*
X119684726Y-96800499D01*
X119684729Y-96800499D01*
X119914371Y-96800499D01*
X119970249Y-96789384D01*
X119970831Y-96792310D01*
X120021562Y-96786854D01*
X120032965Y-96790202D01*
X120084726Y-96800499D01*
X120084729Y-96800499D01*
X120314371Y-96800499D01*
X120370249Y-96789384D01*
X120370831Y-96792310D01*
X120421562Y-96786854D01*
X120432965Y-96790202D01*
G37*
G04 #@! TD.AperFunction*
G04 #@! TA.AperFunction,Conductor*
G36*
X128230539Y-91620185D02*
G01*
X128276294Y-91672989D01*
X128287500Y-91724500D01*
X128287500Y-92394822D01*
X128297459Y-92444889D01*
X128304112Y-92471085D01*
X128314326Y-92568256D01*
X128314327Y-92568258D01*
X128314327Y-92568260D01*
X128374829Y-92754465D01*
X128372060Y-92755364D01*
X128379686Y-92812016D01*
X128350089Y-92875307D01*
X128344793Y-92880944D01*
X128017478Y-93208259D01*
X127956155Y-93241744D01*
X127949195Y-93243051D01*
X127814698Y-93264352D01*
X127761405Y-93291507D01*
X127701658Y-93321950D01*
X127701657Y-93321951D01*
X127701652Y-93321954D01*
X127611954Y-93411652D01*
X127611951Y-93411657D01*
X127554352Y-93524698D01*
X127554352Y-93524699D01*
X127534508Y-93649996D01*
X127534508Y-93650003D01*
X127554352Y-93775300D01*
X127554352Y-93775301D01*
X127559638Y-93785675D01*
X127611950Y-93888342D01*
X127611952Y-93888344D01*
X127611954Y-93888347D01*
X127701652Y-93978045D01*
X127701654Y-93978046D01*
X127701658Y-93978050D01*
X127814696Y-94035646D01*
X127814697Y-94035646D01*
X127814699Y-94035647D01*
X127939997Y-94055492D01*
X127940000Y-94055492D01*
X127940003Y-94055492D01*
X128065300Y-94035647D01*
X128065301Y-94035647D01*
X128065302Y-94035646D01*
X128065304Y-94035646D01*
X128178342Y-93978050D01*
X128268050Y-93888342D01*
X128325646Y-93775304D01*
X128325646Y-93775302D01*
X128325647Y-93775301D01*
X128325647Y-93775300D01*
X128345492Y-93650003D01*
X128345492Y-93640241D01*
X128349619Y-93640241D01*
X128355559Y-93591167D01*
X128381792Y-93552467D01*
X128702812Y-93231447D01*
X128764133Y-93197964D01*
X128833825Y-93202948D01*
X128840927Y-93205851D01*
X128920192Y-93241142D01*
X128920197Y-93241144D01*
X129105354Y-93280500D01*
X129105355Y-93280500D01*
X129294644Y-93280500D01*
X129294646Y-93280500D01*
X129479803Y-93241144D01*
X129652730Y-93164151D01*
X129805871Y-93052888D01*
X129932533Y-92912216D01*
X130027179Y-92748284D01*
X130085674Y-92568256D01*
X130095886Y-92471084D01*
X130102536Y-92444904D01*
X130103765Y-92438724D01*
X130103767Y-92438722D01*
X130112500Y-92394820D01*
X130112500Y-91724500D01*
X130132185Y-91657461D01*
X130184989Y-91611706D01*
X130236500Y-91600500D01*
X130663500Y-91600500D01*
X130730539Y-91620185D01*
X130776294Y-91672989D01*
X130787500Y-91724500D01*
X130787500Y-92414822D01*
X130797459Y-92464889D01*
X130804112Y-92491085D01*
X130814326Y-92588256D01*
X130814327Y-92588258D01*
X130814327Y-92588260D01*
X130874829Y-92774465D01*
X130872060Y-92775364D01*
X130879686Y-92832016D01*
X130850089Y-92895307D01*
X130844793Y-92900944D01*
X130537549Y-93208189D01*
X130476226Y-93241674D01*
X130464235Y-93242963D01*
X130464238Y-93242981D01*
X130329299Y-93264352D01*
X130329298Y-93264352D01*
X130276005Y-93291507D01*
X130216258Y-93321950D01*
X130216257Y-93321951D01*
X130216252Y-93321954D01*
X130126554Y-93411652D01*
X130126551Y-93411657D01*
X130068952Y-93524698D01*
X130068952Y-93524699D01*
X130049108Y-93649996D01*
X130049108Y-93650003D01*
X130068952Y-93775300D01*
X130068952Y-93775301D01*
X130074238Y-93785675D01*
X130126550Y-93888342D01*
X130126552Y-93888344D01*
X130126554Y-93888347D01*
X130216252Y-93978045D01*
X130216254Y-93978046D01*
X130216258Y-93978050D01*
X130329296Y-94035646D01*
X130329297Y-94035646D01*
X130329299Y-94035647D01*
X130454597Y-94055492D01*
X130454600Y-94055492D01*
X130454603Y-94055492D01*
X130579900Y-94035647D01*
X130579901Y-94035647D01*
X130579902Y-94035646D01*
X130579904Y-94035646D01*
X130692942Y-93978050D01*
X130782650Y-93888342D01*
X130840246Y-93775304D01*
X130840246Y-93775302D01*
X130840247Y-93775301D01*
X130840247Y-93775300D01*
X130860092Y-93650003D01*
X130860092Y-93645530D01*
X130879777Y-93578491D01*
X130896411Y-93557849D01*
X131042608Y-93411652D01*
X131202812Y-93251447D01*
X131264133Y-93217964D01*
X131333824Y-93222948D01*
X131340927Y-93225851D01*
X131420192Y-93261142D01*
X131420197Y-93261144D01*
X131605354Y-93300500D01*
X131605355Y-93300500D01*
X131794644Y-93300500D01*
X131794646Y-93300500D01*
X131979803Y-93261144D01*
X132152730Y-93184151D01*
X132305871Y-93072888D01*
X132432533Y-92932216D01*
X132527179Y-92768284D01*
X132585674Y-92588256D01*
X132595886Y-92491084D01*
X132602536Y-92464904D01*
X132603765Y-92458724D01*
X132603767Y-92458722D01*
X132612500Y-92414820D01*
X132612500Y-91724500D01*
X132632185Y-91657461D01*
X132684989Y-91611706D01*
X132736500Y-91600500D01*
X133263500Y-91600500D01*
X133330539Y-91620185D01*
X133376294Y-91672989D01*
X133387500Y-91724500D01*
X133387500Y-92414822D01*
X133397459Y-92464889D01*
X133404112Y-92491085D01*
X133414326Y-92588256D01*
X133414327Y-92588258D01*
X133414327Y-92588260D01*
X133455184Y-92714005D01*
X133457179Y-92783846D01*
X133424934Y-92840004D01*
X133082149Y-93182789D01*
X133020826Y-93216274D01*
X132994868Y-93219064D01*
X132869299Y-93238952D01*
X132869298Y-93238952D01*
X132793937Y-93277351D01*
X132756258Y-93296550D01*
X132756257Y-93296551D01*
X132756252Y-93296554D01*
X132666554Y-93386252D01*
X132666551Y-93386257D01*
X132666550Y-93386258D01*
X132658580Y-93401900D01*
X132608952Y-93499298D01*
X132608952Y-93499299D01*
X132589108Y-93624596D01*
X132589108Y-93624603D01*
X132608952Y-93749900D01*
X132608952Y-93749901D01*
X132627180Y-93785675D01*
X132666550Y-93862942D01*
X132666552Y-93862944D01*
X132666554Y-93862947D01*
X132756252Y-93952645D01*
X132756254Y-93952646D01*
X132756258Y-93952650D01*
X132869296Y-94010246D01*
X132869297Y-94010246D01*
X132869299Y-94010247D01*
X132994597Y-94030092D01*
X132994600Y-94030092D01*
X132994603Y-94030092D01*
X133119900Y-94010247D01*
X133119901Y-94010247D01*
X133119902Y-94010246D01*
X133119904Y-94010246D01*
X133232942Y-93952650D01*
X133322650Y-93862942D01*
X133380246Y-93749904D01*
X133380246Y-93749902D01*
X133380247Y-93749901D01*
X133380247Y-93749900D01*
X133401619Y-93614962D01*
X133402900Y-93615164D01*
X133419777Y-93557690D01*
X133436407Y-93537052D01*
X133746904Y-93226554D01*
X133808225Y-93193071D01*
X133877916Y-93198055D01*
X133885015Y-93200956D01*
X134020197Y-93261144D01*
X134205354Y-93300500D01*
X134205355Y-93300500D01*
X134394644Y-93300500D01*
X134394646Y-93300500D01*
X134579803Y-93261144D01*
X134752730Y-93184151D01*
X134862616Y-93104314D01*
X134928421Y-93080835D01*
X134996475Y-93096660D01*
X135045170Y-93146766D01*
X135059500Y-93204633D01*
X135059500Y-93883500D01*
X135039815Y-93950539D01*
X134987011Y-93996294D01*
X134935500Y-94007500D01*
X134275179Y-94007500D01*
X134261375Y-94010246D01*
X134231278Y-94016233D01*
X134231277Y-94016233D01*
X134226835Y-94017117D01*
X134202642Y-94019500D01*
X134195354Y-94019500D01*
X134170965Y-94024684D01*
X134010197Y-94058855D01*
X134010192Y-94058857D01*
X133837270Y-94135848D01*
X133837265Y-94135851D01*
X133684129Y-94247111D01*
X133557466Y-94387785D01*
X133462821Y-94551715D01*
X133462818Y-94551722D01*
X133404327Y-94731740D01*
X133404326Y-94731744D01*
X133384540Y-94920000D01*
X133404326Y-95108256D01*
X133404327Y-95108259D01*
X133462818Y-95288277D01*
X133462821Y-95288284D01*
X133557464Y-95452212D01*
X133557465Y-95452214D01*
X133557467Y-95452216D01*
X133634446Y-95537710D01*
X133664675Y-95600699D01*
X133656050Y-95670034D01*
X133629977Y-95708360D01*
X133590150Y-95748188D01*
X133528828Y-95781674D01*
X133502868Y-95784464D01*
X133377299Y-95804352D01*
X133377298Y-95804352D01*
X133320441Y-95833323D01*
X133264258Y-95861950D01*
X133264257Y-95861951D01*
X133264252Y-95861954D01*
X133174554Y-95951652D01*
X133174550Y-95951657D01*
X133156783Y-95986527D01*
X133108807Y-96037322D01*
X133040986Y-96054116D01*
X132974852Y-96031577D01*
X132931401Y-95976861D01*
X132922299Y-95930233D01*
X132922299Y-95690336D01*
X132921927Y-95687129D01*
X132919386Y-95665212D01*
X132919385Y-95665210D01*
X132919385Y-95665209D01*
X132874006Y-95562435D01*
X132794565Y-95482994D01*
X132761130Y-95468231D01*
X132691792Y-95437615D01*
X132666665Y-95434700D01*
X131276943Y-95434700D01*
X131276917Y-95434702D01*
X131251812Y-95437613D01*
X131251808Y-95437615D01*
X131149035Y-95482993D01*
X131069594Y-95562434D01*
X131063101Y-95571914D01*
X131061721Y-95570968D01*
X131025236Y-95614163D01*
X130958450Y-95634690D01*
X130956888Y-95634700D01*
X129551854Y-95634700D01*
X129484815Y-95615015D01*
X129464172Y-95598380D01*
X129422946Y-95557153D01*
X129422944Y-95557152D01*
X129422942Y-95557150D01*
X129309904Y-95499554D01*
X129309903Y-95499553D01*
X129309900Y-95499552D01*
X129184603Y-95479708D01*
X129184597Y-95479708D01*
X129059299Y-95499552D01*
X129059298Y-95499552D01*
X128984731Y-95537547D01*
X128946258Y-95557150D01*
X128946257Y-95557151D01*
X128946252Y-95557154D01*
X128856554Y-95646852D01*
X128856551Y-95646857D01*
X128856550Y-95646858D01*
X128841109Y-95677162D01*
X128798952Y-95759898D01*
X128798952Y-95759899D01*
X128779108Y-95885196D01*
X128779108Y-95885203D01*
X128798952Y-96010500D01*
X128798952Y-96010501D01*
X128816393Y-96044729D01*
X128856550Y-96123542D01*
X128856552Y-96123544D01*
X128856554Y-96123547D01*
X128946252Y-96213245D01*
X128946254Y-96213246D01*
X128946258Y-96213250D01*
X129059296Y-96270846D01*
X129059297Y-96270846D01*
X129059299Y-96270847D01*
X129184597Y-96290692D01*
X129184600Y-96290692D01*
X129184603Y-96290692D01*
X129309900Y-96270847D01*
X129309901Y-96270847D01*
X129309902Y-96270846D01*
X129309904Y-96270846D01*
X129422942Y-96213250D01*
X129464172Y-96172020D01*
X129525495Y-96138534D01*
X129551854Y-96135700D01*
X130956888Y-96135700D01*
X131023927Y-96155385D01*
X131061954Y-96199271D01*
X131063101Y-96198486D01*
X131069594Y-96207965D01*
X131149035Y-96287406D01*
X131251809Y-96332785D01*
X131276935Y-96335700D01*
X132666664Y-96335699D01*
X132666679Y-96335697D01*
X132666682Y-96335697D01*
X132691787Y-96332786D01*
X132691788Y-96332785D01*
X132691791Y-96332785D01*
X132794565Y-96287406D01*
X132874006Y-96207965D01*
X132874007Y-96207960D01*
X132880499Y-96198486D01*
X132883632Y-96200632D01*
X132915297Y-96163115D01*
X132982075Y-96142561D01*
X133049365Y-96161373D01*
X133095802Y-96213578D01*
X133106159Y-96247153D01*
X133116952Y-96315300D01*
X133116952Y-96315301D01*
X133133989Y-96348737D01*
X133174550Y-96428342D01*
X133174552Y-96428344D01*
X133174554Y-96428347D01*
X133264252Y-96518045D01*
X133264254Y-96518046D01*
X133264258Y-96518050D01*
X133377296Y-96575646D01*
X133377297Y-96575646D01*
X133377299Y-96575647D01*
X133502597Y-96595492D01*
X133502600Y-96595492D01*
X133502601Y-96595492D01*
X133519407Y-96592830D01*
X133569701Y-96584864D01*
X133638994Y-96593818D01*
X133692446Y-96638814D01*
X133713086Y-96705565D01*
X133694362Y-96772879D01*
X133681249Y-96790309D01*
X133557466Y-96927784D01*
X133462821Y-97091715D01*
X133462818Y-97091722D01*
X133404327Y-97271740D01*
X133404326Y-97271744D01*
X133384540Y-97460000D01*
X133404326Y-97648256D01*
X133404327Y-97648259D01*
X133462818Y-97828277D01*
X133462821Y-97828284D01*
X133557464Y-97992212D01*
X133557465Y-97992214D01*
X133557467Y-97992216D01*
X133634446Y-98077710D01*
X133664675Y-98140699D01*
X133656050Y-98210034D01*
X133629979Y-98248358D01*
X133615552Y-98262786D01*
X133554230Y-98296273D01*
X133528268Y-98299064D01*
X133402699Y-98318952D01*
X133402698Y-98318952D01*
X133339204Y-98351305D01*
X133289658Y-98376550D01*
X133289657Y-98376551D01*
X133289652Y-98376554D01*
X133199954Y-98466252D01*
X133199949Y-98466259D01*
X133156783Y-98550976D01*
X133108808Y-98601771D01*
X133040987Y-98618566D01*
X132974853Y-98596028D01*
X132931402Y-98541312D01*
X132922299Y-98494683D01*
X132922299Y-98230336D01*
X132922297Y-98230317D01*
X132919386Y-98205212D01*
X132919385Y-98205210D01*
X132919385Y-98205209D01*
X132874006Y-98102435D01*
X132794565Y-98022994D01*
X132776055Y-98014821D01*
X132691792Y-97977615D01*
X132666665Y-97974700D01*
X131276943Y-97974700D01*
X131276917Y-97974702D01*
X131251812Y-97977613D01*
X131251808Y-97977615D01*
X131149036Y-98022993D01*
X131095399Y-98076630D01*
X131034075Y-98110114D01*
X130964384Y-98105129D01*
X130951423Y-98099433D01*
X130836869Y-98041065D01*
X130833904Y-98039554D01*
X130833903Y-98039553D01*
X130833900Y-98039552D01*
X130708603Y-98019708D01*
X130708597Y-98019708D01*
X130583299Y-98039552D01*
X130583298Y-98039552D01*
X130510531Y-98076630D01*
X130470258Y-98097150D01*
X130470257Y-98097151D01*
X130470252Y-98097154D01*
X130380554Y-98186852D01*
X130380551Y-98186857D01*
X130322952Y-98299898D01*
X130322952Y-98299899D01*
X130303108Y-98425196D01*
X130303108Y-98425203D01*
X130322952Y-98550500D01*
X130322952Y-98550501D01*
X130337624Y-98579296D01*
X130380550Y-98663542D01*
X130380552Y-98663544D01*
X130380554Y-98663547D01*
X130470252Y-98753245D01*
X130470254Y-98753246D01*
X130470258Y-98753250D01*
X130583296Y-98810846D01*
X130583297Y-98810846D01*
X130583299Y-98810847D01*
X130708597Y-98830692D01*
X130708600Y-98830692D01*
X130708603Y-98830692D01*
X130833900Y-98810847D01*
X130833901Y-98810846D01*
X130833904Y-98810846D01*
X130946942Y-98753250D01*
X130946943Y-98753248D01*
X130951423Y-98750966D01*
X131020092Y-98738070D01*
X131084832Y-98764346D01*
X131095399Y-98773770D01*
X131149035Y-98827406D01*
X131251809Y-98872785D01*
X131276935Y-98875700D01*
X132666664Y-98875699D01*
X132666679Y-98875697D01*
X132666682Y-98875697D01*
X132691787Y-98872786D01*
X132691788Y-98872785D01*
X132691791Y-98872785D01*
X132794565Y-98827406D01*
X132874006Y-98747965D01*
X132891908Y-98707420D01*
X132936991Y-98654046D01*
X133003777Y-98633517D01*
X133071059Y-98652354D01*
X133117477Y-98704577D01*
X133127814Y-98738109D01*
X133142352Y-98829900D01*
X133142352Y-98829901D01*
X133149139Y-98843221D01*
X133199950Y-98942942D01*
X133199952Y-98942944D01*
X133199954Y-98942947D01*
X133289652Y-99032645D01*
X133289654Y-99032646D01*
X133289658Y-99032650D01*
X133402696Y-99090246D01*
X133402697Y-99090246D01*
X133402699Y-99090247D01*
X133527997Y-99110092D01*
X133528000Y-99110092D01*
X133528003Y-99110092D01*
X133653300Y-99090247D01*
X133653301Y-99090247D01*
X133653302Y-99090246D01*
X133653304Y-99090246D01*
X133766342Y-99032650D01*
X133856050Y-98942942D01*
X133913646Y-98829904D01*
X133913646Y-98829902D01*
X133913647Y-98829901D01*
X133913647Y-98829900D01*
X133935019Y-98694962D01*
X133936300Y-98695164D01*
X133953177Y-98637691D01*
X133969811Y-98617049D01*
X134069802Y-98517058D01*
X134178344Y-98408515D01*
X134239665Y-98375032D01*
X134269088Y-98373323D01*
X134269088Y-98372500D01*
X134275180Y-98372500D01*
X134935500Y-98372500D01*
X135002539Y-98392185D01*
X135048294Y-98444989D01*
X135059500Y-98496500D01*
X135059500Y-101503500D01*
X135039815Y-101570539D01*
X134987011Y-101616294D01*
X134935500Y-101627500D01*
X134275179Y-101627500D01*
X134250890Y-101632331D01*
X134231278Y-101636233D01*
X134231277Y-101636233D01*
X134226835Y-101637117D01*
X134202642Y-101639500D01*
X134195354Y-101639500D01*
X134173360Y-101644175D01*
X134010197Y-101678855D01*
X134010195Y-101678856D01*
X133930927Y-101714149D01*
X133861677Y-101723433D01*
X133798401Y-101693805D01*
X133792811Y-101688550D01*
X133357619Y-101253358D01*
X133324134Y-101192035D01*
X133321300Y-101165677D01*
X133321300Y-99848573D01*
X133321299Y-99848570D01*
X133309198Y-99819355D01*
X133283164Y-99756503D01*
X133212697Y-99686036D01*
X132704697Y-99178036D01*
X132674010Y-99165325D01*
X132612629Y-99139900D01*
X132612628Y-99139900D01*
X131763470Y-99139900D01*
X131763462Y-99139899D01*
X131749028Y-99139899D01*
X131649373Y-99139899D01*
X131649372Y-99139899D01*
X131622406Y-99151069D01*
X131595440Y-99162239D01*
X131557303Y-99178036D01*
X131557301Y-99178037D01*
X131521340Y-99213999D01*
X131486836Y-99248503D01*
X131486835Y-99248504D01*
X131301928Y-99433411D01*
X131105662Y-99629676D01*
X131105661Y-99629676D01*
X131105662Y-99629677D01*
X131052635Y-99682704D01*
X131048591Y-99692467D01*
X131004747Y-99746868D01*
X130938452Y-99768930D01*
X130870754Y-99751648D01*
X130846350Y-99732689D01*
X130799698Y-99686037D01*
X130799697Y-99686036D01*
X130707628Y-99647899D01*
X130607973Y-99647899D01*
X130607972Y-99647899D01*
X130595993Y-99650282D01*
X130595849Y-99649562D01*
X130563991Y-99655900D01*
X130533949Y-99655900D01*
X130466910Y-99636215D01*
X130430847Y-99600791D01*
X130402708Y-99558678D01*
X130395504Y-99547896D01*
X130383500Y-99539875D01*
X130345724Y-99514634D01*
X130345717Y-99514631D01*
X130301822Y-99505900D01*
X130301820Y-99505900D01*
X129872180Y-99505900D01*
X129872177Y-99505900D01*
X129836191Y-99513058D01*
X129787809Y-99513058D01*
X129751823Y-99505900D01*
X129751820Y-99505900D01*
X129457500Y-99505900D01*
X129390461Y-99486215D01*
X129344706Y-99433411D01*
X129333500Y-99381900D01*
X129333500Y-99335953D01*
X129353185Y-99268914D01*
X129382011Y-99237579D01*
X129399421Y-99224221D01*
X129487661Y-99109225D01*
X129543130Y-98975309D01*
X129562050Y-98831600D01*
X129561930Y-98830692D01*
X129559019Y-98808577D01*
X129543130Y-98687891D01*
X129498149Y-98579296D01*
X129487662Y-98553977D01*
X129487661Y-98553976D01*
X129487661Y-98553975D01*
X129399421Y-98438979D01*
X129284425Y-98350739D01*
X129284424Y-98350738D01*
X129284422Y-98350737D01*
X129150512Y-98295271D01*
X129150510Y-98295270D01*
X129150509Y-98295270D01*
X129027673Y-98279098D01*
X129006801Y-98276350D01*
X129006799Y-98276350D01*
X128863091Y-98295270D01*
X128863087Y-98295271D01*
X128729177Y-98350737D01*
X128614179Y-98438979D01*
X128525937Y-98553977D01*
X128470471Y-98687887D01*
X128470470Y-98687891D01*
X128451670Y-98830692D01*
X128451550Y-98831600D01*
X128462729Y-98916515D01*
X128470470Y-98975308D01*
X128470471Y-98975312D01*
X128525937Y-99109222D01*
X128525938Y-99109224D01*
X128525939Y-99109225D01*
X128614179Y-99224221D01*
X128691466Y-99283526D01*
X128732667Y-99339952D01*
X128736822Y-99409698D01*
X128702609Y-99470619D01*
X128640892Y-99503371D01*
X128615978Y-99505900D01*
X128372175Y-99505900D01*
X128324491Y-99515385D01*
X128254899Y-99509158D01*
X128199722Y-99466294D01*
X128176478Y-99400404D01*
X128176300Y-99393768D01*
X128176300Y-97155203D01*
X130074508Y-97155203D01*
X130094352Y-97280500D01*
X130094352Y-97280501D01*
X130102866Y-97297210D01*
X130151950Y-97393542D01*
X130151952Y-97393544D01*
X130151954Y-97393547D01*
X130241652Y-97483245D01*
X130241654Y-97483246D01*
X130241658Y-97483250D01*
X130354696Y-97540846D01*
X130354697Y-97540846D01*
X130354699Y-97540847D01*
X130479997Y-97560692D01*
X130480000Y-97560692D01*
X130480003Y-97560692D01*
X130605300Y-97540847D01*
X130605301Y-97540847D01*
X130605302Y-97540846D01*
X130605304Y-97540846D01*
X130718342Y-97483250D01*
X130759572Y-97442020D01*
X130820895Y-97408534D01*
X130847254Y-97405700D01*
X130956888Y-97405700D01*
X131023927Y-97425385D01*
X131061954Y-97469271D01*
X131063101Y-97468486D01*
X131069594Y-97477965D01*
X131149035Y-97557406D01*
X131251809Y-97602785D01*
X131276935Y-97605700D01*
X132666664Y-97605699D01*
X132666679Y-97605697D01*
X132666682Y-97605697D01*
X132691787Y-97602786D01*
X132691788Y-97602785D01*
X132691791Y-97602785D01*
X132794565Y-97557406D01*
X132874006Y-97477965D01*
X132919385Y-97375191D01*
X132922300Y-97350065D01*
X132922299Y-96960336D01*
X132921157Y-96950485D01*
X132919386Y-96935212D01*
X132919385Y-96935210D01*
X132919385Y-96935209D01*
X132874006Y-96832435D01*
X132794565Y-96752994D01*
X132774590Y-96744174D01*
X132691792Y-96707615D01*
X132666665Y-96704700D01*
X131276943Y-96704700D01*
X131276917Y-96704702D01*
X131251812Y-96707613D01*
X131251808Y-96707615D01*
X131149035Y-96752993D01*
X131069594Y-96832434D01*
X131063101Y-96841914D01*
X131061721Y-96840968D01*
X131025236Y-96884163D01*
X130958450Y-96904690D01*
X130956888Y-96904700D01*
X130847254Y-96904700D01*
X130780215Y-96885015D01*
X130759572Y-96868380D01*
X130718346Y-96827153D01*
X130718344Y-96827152D01*
X130718342Y-96827150D01*
X130605304Y-96769554D01*
X130605303Y-96769553D01*
X130605300Y-96769552D01*
X130480003Y-96749708D01*
X130479997Y-96749708D01*
X130354699Y-96769552D01*
X130354698Y-96769552D01*
X130300685Y-96797074D01*
X130241658Y-96827150D01*
X130241657Y-96827151D01*
X130241652Y-96827154D01*
X130151954Y-96916852D01*
X130151951Y-96916857D01*
X130151950Y-96916858D01*
X130139508Y-96941277D01*
X130094352Y-97029898D01*
X130094352Y-97029899D01*
X130074508Y-97155196D01*
X130074508Y-97155203D01*
X128176300Y-97155203D01*
X128176300Y-95643373D01*
X128176299Y-95643370D01*
X128159590Y-95603031D01*
X128138164Y-95551303D01*
X128067697Y-95480836D01*
X126989697Y-94402836D01*
X126971281Y-94395208D01*
X126897629Y-94364700D01*
X126897628Y-94364700D01*
X126211828Y-94364700D01*
X125786712Y-94364700D01*
X125719673Y-94345015D01*
X125681645Y-94301128D01*
X125680499Y-94301914D01*
X125674005Y-94292434D01*
X125594565Y-94212994D01*
X125491792Y-94167615D01*
X125466665Y-94164700D01*
X124076943Y-94164700D01*
X124076917Y-94164702D01*
X124051812Y-94167613D01*
X124051808Y-94167615D01*
X123949035Y-94212993D01*
X123869594Y-94292434D01*
X123824215Y-94395206D01*
X123824215Y-94395208D01*
X123821300Y-94420331D01*
X123821300Y-94810056D01*
X123821302Y-94810082D01*
X123824213Y-94835187D01*
X123824215Y-94835191D01*
X123869593Y-94937964D01*
X123869594Y-94937965D01*
X123949035Y-95017406D01*
X124051809Y-95062785D01*
X124076935Y-95065700D01*
X125466664Y-95065699D01*
X125466679Y-95065697D01*
X125466682Y-95065697D01*
X125491787Y-95062786D01*
X125491787Y-95062785D01*
X125491791Y-95062785D01*
X125594183Y-95017574D01*
X125663458Y-95008503D01*
X125726644Y-95038326D01*
X125763675Y-95097575D01*
X125766740Y-95111610D01*
X125776353Y-95172301D01*
X125776352Y-95172301D01*
X125793663Y-95206275D01*
X125833950Y-95285342D01*
X125833952Y-95285344D01*
X125833954Y-95285347D01*
X125923652Y-95375045D01*
X125923656Y-95375048D01*
X125923658Y-95375050D01*
X125925272Y-95375872D01*
X125926878Y-95377389D01*
X125931550Y-95380783D01*
X125931111Y-95381386D01*
X125976068Y-95423845D01*
X125992864Y-95491666D01*
X125970328Y-95557801D01*
X125925277Y-95596840D01*
X125913135Y-95603026D01*
X125913129Y-95603031D01*
X125892380Y-95623781D01*
X125831057Y-95657266D01*
X125804699Y-95660100D01*
X125797927Y-95660100D01*
X125730888Y-95640415D01*
X125685133Y-95587611D01*
X125684547Y-95586308D01*
X125674006Y-95562435D01*
X125594565Y-95482994D01*
X125561130Y-95468231D01*
X125491792Y-95437615D01*
X125466665Y-95434700D01*
X124076943Y-95434700D01*
X124076917Y-95434702D01*
X124051812Y-95437613D01*
X124051808Y-95437615D01*
X123949035Y-95482993D01*
X123869594Y-95562434D01*
X123824215Y-95665206D01*
X123824215Y-95665208D01*
X123821300Y-95690331D01*
X123821300Y-96080056D01*
X123821302Y-96080082D01*
X123824213Y-96105187D01*
X123824215Y-96105191D01*
X123869593Y-96207964D01*
X123869594Y-96207965D01*
X123949035Y-96287406D01*
X124051809Y-96332785D01*
X124076935Y-96335700D01*
X125466664Y-96335699D01*
X125466679Y-96335697D01*
X125466682Y-96335697D01*
X125491787Y-96332786D01*
X125491788Y-96332785D01*
X125491791Y-96332785D01*
X125594565Y-96287406D01*
X125674006Y-96207965D01*
X125674006Y-96207964D01*
X125682131Y-96199840D01*
X125684666Y-96202375D01*
X125723283Y-96170846D01*
X125771470Y-96161100D01*
X125804699Y-96161100D01*
X125871738Y-96180785D01*
X125892380Y-96197419D01*
X125913129Y-96218168D01*
X125913133Y-96218171D01*
X125913135Y-96218173D01*
X126019118Y-96272174D01*
X126019120Y-96272174D01*
X126019122Y-96272175D01*
X126136597Y-96290781D01*
X126136600Y-96290781D01*
X126136603Y-96290781D01*
X126254077Y-96272175D01*
X126254078Y-96272175D01*
X126254079Y-96272174D01*
X126254082Y-96272174D01*
X126360065Y-96218173D01*
X126444173Y-96134065D01*
X126498174Y-96028082D01*
X126500361Y-96014272D01*
X126516781Y-95910603D01*
X126516781Y-95910596D01*
X126498175Y-95793122D01*
X126498175Y-95793121D01*
X126498174Y-95793119D01*
X126498174Y-95793118D01*
X126444173Y-95687135D01*
X126444171Y-95687133D01*
X126444168Y-95687129D01*
X126360070Y-95603031D01*
X126360066Y-95603028D01*
X126360065Y-95603027D01*
X126360063Y-95603026D01*
X126355940Y-95600031D01*
X126313271Y-95544703D01*
X126307287Y-95475090D01*
X126339889Y-95413293D01*
X126372522Y-95389224D01*
X126400342Y-95375050D01*
X126490050Y-95285342D01*
X126547646Y-95172304D01*
X126547646Y-95172302D01*
X126547647Y-95172301D01*
X126547647Y-95172300D01*
X126567492Y-95047003D01*
X126567492Y-95046998D01*
X126561489Y-95009098D01*
X126570443Y-94939805D01*
X126615439Y-94886353D01*
X126682191Y-94865713D01*
X126683962Y-94865700D01*
X126692677Y-94865700D01*
X126759716Y-94885385D01*
X126780358Y-94902019D01*
X127148405Y-95270066D01*
X127181890Y-95331389D01*
X127176906Y-95401081D01*
X127135034Y-95457014D01*
X127117020Y-95468231D01*
X127092059Y-95480949D01*
X127092052Y-95480954D01*
X127002354Y-95570652D01*
X127002351Y-95570657D01*
X127002350Y-95570658D01*
X127000371Y-95574542D01*
X126944752Y-95683698D01*
X126944752Y-95683699D01*
X126924908Y-95808996D01*
X126924908Y-95809003D01*
X126944752Y-95934300D01*
X126944752Y-95934301D01*
X126948418Y-95941495D01*
X127002350Y-96047342D01*
X127002352Y-96047344D01*
X127002354Y-96047347D01*
X127092052Y-96137045D01*
X127092054Y-96137046D01*
X127092058Y-96137050D01*
X127205096Y-96194646D01*
X127205097Y-96194646D01*
X127205099Y-96194647D01*
X127330397Y-96214492D01*
X127330400Y-96214492D01*
X127330403Y-96214492D01*
X127455700Y-96194647D01*
X127455702Y-96194646D01*
X127455704Y-96194646D01*
X127495005Y-96174620D01*
X127563673Y-96161724D01*
X127628413Y-96187999D01*
X127668671Y-96245105D01*
X127675300Y-96285105D01*
X127675300Y-100609876D01*
X127655615Y-100676915D01*
X127638981Y-100697557D01*
X126963356Y-101373181D01*
X126902033Y-101406666D01*
X126875675Y-101409500D01*
X126210832Y-101409500D01*
X126143793Y-101389815D01*
X126098038Y-101337011D01*
X126088094Y-101267853D01*
X126117119Y-101204297D01*
X126154536Y-101175016D01*
X126171742Y-101166250D01*
X126261450Y-101076542D01*
X126319046Y-100963504D01*
X126319046Y-100963502D01*
X126319047Y-100963501D01*
X126319047Y-100963500D01*
X126338892Y-100838203D01*
X126338892Y-100838196D01*
X126319047Y-100712899D01*
X126319047Y-100712898D01*
X126295250Y-100666194D01*
X126282354Y-100597524D01*
X126308631Y-100532784D01*
X126365737Y-100492527D01*
X126405735Y-100485899D01*
X126449566Y-100485899D01*
X126449572Y-100485899D01*
X126473862Y-100483082D01*
X126573216Y-100439213D01*
X126650013Y-100362416D01*
X126693882Y-100263062D01*
X126696700Y-100238773D01*
X126696699Y-99812028D01*
X126693882Y-99787738D01*
X126650013Y-99688384D01*
X126573216Y-99611587D01*
X126573213Y-99611585D01*
X126565621Y-99606385D01*
X126521439Y-99552258D01*
X126511700Y-99504086D01*
X126511700Y-98981907D01*
X126514082Y-98957717D01*
X126514100Y-98957626D01*
X126514100Y-98905019D01*
X126533785Y-98837980D01*
X126539713Y-98829547D01*
X126617461Y-98728225D01*
X126672930Y-98594309D01*
X126691850Y-98450600D01*
X126672930Y-98306891D01*
X126630812Y-98205208D01*
X126617462Y-98172977D01*
X126617461Y-98172976D01*
X126617461Y-98172975D01*
X126529221Y-98057979D01*
X126414225Y-97969739D01*
X126414224Y-97969738D01*
X126414222Y-97969737D01*
X126280312Y-97914271D01*
X126280310Y-97914270D01*
X126280309Y-97914270D01*
X126208454Y-97904810D01*
X126136601Y-97895350D01*
X126136599Y-97895350D01*
X125992891Y-97914270D01*
X125992887Y-97914271D01*
X125858976Y-97969738D01*
X125858974Y-97969739D01*
X125765504Y-98041461D01*
X125700335Y-98066655D01*
X125631890Y-98052616D01*
X125602337Y-98030766D01*
X125594565Y-98022994D01*
X125491792Y-97977615D01*
X125466668Y-97974700D01*
X125466665Y-97974700D01*
X124184323Y-97974700D01*
X124117284Y-97955015D01*
X124096642Y-97938381D01*
X123974796Y-97816535D01*
X123941311Y-97755212D01*
X123946295Y-97685520D01*
X123988167Y-97629587D01*
X124053631Y-97605170D01*
X124073346Y-97605606D01*
X124073353Y-97605493D01*
X124076550Y-97605677D01*
X124076787Y-97605682D01*
X124076935Y-97605700D01*
X125466664Y-97605699D01*
X125466679Y-97605697D01*
X125466682Y-97605697D01*
X125491787Y-97602786D01*
X125491788Y-97602785D01*
X125491791Y-97602785D01*
X125594565Y-97557406D01*
X125674006Y-97477965D01*
X125674006Y-97477964D01*
X125682131Y-97469840D01*
X125684974Y-97472683D01*
X125722391Y-97442119D01*
X125791809Y-97434187D01*
X125854495Y-97465045D01*
X125858287Y-97468680D01*
X125898252Y-97508645D01*
X125898254Y-97508646D01*
X125898258Y-97508650D01*
X126011296Y-97566246D01*
X126011297Y-97566246D01*
X126011299Y-97566247D01*
X126136597Y-97586092D01*
X126136600Y-97586092D01*
X126136603Y-97586092D01*
X126261900Y-97566247D01*
X126261901Y-97566247D01*
X126261902Y-97566246D01*
X126261904Y-97566246D01*
X126374942Y-97508650D01*
X126464650Y-97418942D01*
X126522246Y-97305904D01*
X126522246Y-97305902D01*
X126522247Y-97305901D01*
X126522247Y-97305900D01*
X126542092Y-97180603D01*
X126542092Y-97180596D01*
X126522247Y-97055299D01*
X126522247Y-97055298D01*
X126510751Y-97032736D01*
X126464650Y-96942258D01*
X126464646Y-96942254D01*
X126464645Y-96942252D01*
X126374947Y-96852554D01*
X126374944Y-96852552D01*
X126374942Y-96852550D01*
X126261904Y-96794954D01*
X126261903Y-96794953D01*
X126261900Y-96794952D01*
X126136603Y-96775108D01*
X126136597Y-96775108D01*
X126011299Y-96794952D01*
X126011298Y-96794952D01*
X125953780Y-96824260D01*
X125898258Y-96852550D01*
X125898257Y-96852551D01*
X125898255Y-96852552D01*
X125876852Y-96873955D01*
X125815528Y-96907439D01*
X125745836Y-96902453D01*
X125689904Y-96860581D01*
X125675739Y-96836362D01*
X125674006Y-96832435D01*
X125594565Y-96752994D01*
X125574590Y-96744174D01*
X125491792Y-96707615D01*
X125466665Y-96704700D01*
X124076943Y-96704700D01*
X124076917Y-96704702D01*
X124051812Y-96707613D01*
X124051808Y-96707615D01*
X123949035Y-96752993D01*
X123869594Y-96832434D01*
X123824215Y-96935206D01*
X123824215Y-96935208D01*
X123821300Y-96960331D01*
X123821300Y-97350056D01*
X123821302Y-97350085D01*
X123821323Y-97350261D01*
X123821315Y-97350305D01*
X123821508Y-97353639D01*
X123820734Y-97353683D01*
X123809480Y-97419119D01*
X123762289Y-97470644D01*
X123694733Y-97488476D01*
X123628261Y-97466954D01*
X123610465Y-97452204D01*
X123356818Y-97198557D01*
X123323333Y-97137234D01*
X123320499Y-97110876D01*
X123320499Y-96867634D01*
X123320499Y-96867628D01*
X123317682Y-96843338D01*
X123273813Y-96743984D01*
X123197016Y-96667187D01*
X123173127Y-96656639D01*
X123097663Y-96623318D01*
X123073373Y-96620500D01*
X122646634Y-96620500D01*
X122646611Y-96620502D01*
X122622340Y-96623317D01*
X122622337Y-96623318D01*
X122522984Y-96667186D01*
X122446187Y-96743983D01*
X122402318Y-96843335D01*
X122402318Y-96843337D01*
X122399500Y-96867625D01*
X122399500Y-96923540D01*
X122379815Y-96990579D01*
X122327011Y-97036334D01*
X122257853Y-97046278D01*
X122256103Y-97046013D01*
X122148803Y-97029019D01*
X122148797Y-97029019D01*
X122031322Y-97047624D01*
X122031320Y-97047625D01*
X121978562Y-97074506D01*
X121909892Y-97087401D01*
X121845153Y-97061123D01*
X121804896Y-97004016D01*
X121800651Y-96988210D01*
X121800049Y-96985183D01*
X121800049Y-96985179D01*
X121791316Y-96941277D01*
X121758053Y-96891495D01*
X121752914Y-96888061D01*
X121708273Y-96858233D01*
X121708267Y-96858230D01*
X121700306Y-96856647D01*
X121638396Y-96824260D01*
X121603823Y-96763544D01*
X121600500Y-96735030D01*
X121600500Y-95213522D01*
X121620185Y-95146483D01*
X121636819Y-95125841D01*
X122952841Y-93809819D01*
X123014164Y-93776334D01*
X123040522Y-93773500D01*
X125576826Y-93773500D01*
X125576828Y-93773500D01*
X125668897Y-93735364D01*
X126172811Y-93231448D01*
X126234134Y-93197964D01*
X126303825Y-93202948D01*
X126310928Y-93205851D01*
X126340605Y-93219064D01*
X126390197Y-93241144D01*
X126575354Y-93280500D01*
X126575355Y-93280500D01*
X126764644Y-93280500D01*
X126764646Y-93280500D01*
X126949803Y-93241144D01*
X127122730Y-93164151D01*
X127275871Y-93052888D01*
X127402533Y-92912216D01*
X127497179Y-92748284D01*
X127555674Y-92568256D01*
X127565886Y-92471084D01*
X127572536Y-92444904D01*
X127573765Y-92438724D01*
X127573767Y-92438722D01*
X127582500Y-92394820D01*
X127582500Y-91724500D01*
X127602185Y-91657461D01*
X127654989Y-91611706D01*
X127706500Y-91600500D01*
X128163500Y-91600500D01*
X128230539Y-91620185D01*
G37*
G04 #@! TD.AperFunction*
G04 #@! TA.AperFunction,Conductor*
G36*
X120630539Y-91620185D02*
G01*
X120676294Y-91672989D01*
X120687500Y-91724500D01*
X120687500Y-92414822D01*
X120697459Y-92464889D01*
X120704112Y-92491085D01*
X120714326Y-92588256D01*
X120714327Y-92588258D01*
X120714327Y-92588260D01*
X120774829Y-92774465D01*
X120772060Y-92775364D01*
X120779686Y-92832016D01*
X120750089Y-92895307D01*
X120744793Y-92900944D01*
X119987637Y-93658101D01*
X119987636Y-93658102D01*
X119949500Y-93750170D01*
X119949500Y-93849830D01*
X119950059Y-93851178D01*
X119959500Y-93898635D01*
X119959500Y-95093481D01*
X119939815Y-95160520D01*
X119887011Y-95206275D01*
X119817853Y-95216219D01*
X119754297Y-95187194D01*
X119735180Y-95166364D01*
X119733647Y-95164254D01*
X119643947Y-95074554D01*
X119643944Y-95074552D01*
X119643942Y-95074550D01*
X119530904Y-95016954D01*
X119530903Y-95016953D01*
X119530900Y-95016952D01*
X119405603Y-94997108D01*
X119405597Y-94997108D01*
X119280299Y-95016952D01*
X119280298Y-95016952D01*
X119211929Y-95051789D01*
X119167258Y-95074550D01*
X119167257Y-95074550D01*
X119165995Y-95075194D01*
X119097326Y-95088090D01*
X119032585Y-95061814D01*
X118992328Y-95004708D01*
X118985700Y-94964709D01*
X118985700Y-94220498D01*
X119005385Y-94153459D01*
X119034213Y-94122123D01*
X119073830Y-94091723D01*
X119137821Y-94042621D01*
X119226061Y-93927625D01*
X119281530Y-93793709D01*
X119300450Y-93650000D01*
X119300449Y-93649996D01*
X119296818Y-93622410D01*
X119281530Y-93506291D01*
X119242330Y-93411652D01*
X119226062Y-93372377D01*
X119226061Y-93372376D01*
X119226061Y-93372375D01*
X119137821Y-93257379D01*
X119022825Y-93169139D01*
X119022824Y-93169138D01*
X119022822Y-93169137D01*
X118888912Y-93113671D01*
X118888910Y-93113670D01*
X118888909Y-93113670D01*
X118817054Y-93104210D01*
X118745201Y-93094750D01*
X118745199Y-93094750D01*
X118601491Y-93113670D01*
X118601487Y-93113671D01*
X118467577Y-93169137D01*
X118398675Y-93222008D01*
X118353204Y-93256900D01*
X118352578Y-93257380D01*
X118349690Y-93261144D01*
X118334582Y-93280834D01*
X118333683Y-93282005D01*
X118277255Y-93323207D01*
X118207508Y-93327361D01*
X118147627Y-93294198D01*
X118117016Y-93263587D01*
X118017663Y-93219718D01*
X117993373Y-93216900D01*
X117566634Y-93216900D01*
X117566611Y-93216902D01*
X117542340Y-93219717D01*
X117542337Y-93219718D01*
X117442984Y-93263586D01*
X117366189Y-93340381D01*
X117360988Y-93347975D01*
X117306863Y-93392159D01*
X117258687Y-93401900D01*
X117238220Y-93401900D01*
X117171181Y-93382215D01*
X117150539Y-93365582D01*
X117120942Y-93335985D01*
X117087741Y-93302784D01*
X117062201Y-93291507D01*
X117038028Y-93280833D01*
X116984653Y-93235746D01*
X116964126Y-93168960D01*
X116982965Y-93101678D01*
X117035189Y-93055262D01*
X117037944Y-93054003D01*
X117087741Y-93032016D01*
X117163216Y-92956541D01*
X117206330Y-92858898D01*
X117209100Y-92835023D01*
X117209099Y-92479778D01*
X117206330Y-92455902D01*
X117202580Y-92447409D01*
X117163219Y-92358264D01*
X117163216Y-92358260D01*
X117163216Y-92358259D01*
X117087741Y-92282784D01*
X117087738Y-92282783D01*
X117087736Y-92282781D01*
X116990100Y-92239670D01*
X116990101Y-92239670D01*
X116966223Y-92236900D01*
X116510984Y-92236900D01*
X116510961Y-92236902D01*
X116487104Y-92239669D01*
X116487101Y-92239669D01*
X116389464Y-92282780D01*
X116389459Y-92282784D01*
X116313982Y-92358260D01*
X116307491Y-92367737D01*
X116306234Y-92366875D01*
X116269412Y-92410465D01*
X116202625Y-92430990D01*
X116201067Y-92431000D01*
X116156823Y-92431000D01*
X116089784Y-92411315D01*
X116044441Y-92359404D01*
X116010797Y-92287255D01*
X116010793Y-92287249D01*
X115924950Y-92201406D01*
X115924944Y-92201402D01*
X115814929Y-92150102D01*
X115814924Y-92150100D01*
X115814923Y-92150100D01*
X115814920Y-92150099D01*
X115814918Y-92150099D01*
X115764801Y-92143501D01*
X115764796Y-92143500D01*
X115764791Y-92143500D01*
X115764784Y-92143500D01*
X115121607Y-92143500D01*
X115071480Y-92150099D01*
X115071469Y-92150102D01*
X114961455Y-92201402D01*
X114961449Y-92201406D01*
X114875606Y-92287249D01*
X114875602Y-92287255D01*
X114824302Y-92397270D01*
X114824299Y-92397281D01*
X114817701Y-92447398D01*
X114817700Y-92447415D01*
X114817700Y-92915592D01*
X114824299Y-92965719D01*
X114824302Y-92965730D01*
X114875602Y-93075744D01*
X114875606Y-93075750D01*
X114961450Y-93161594D01*
X114969782Y-93167429D01*
X115013404Y-93222008D01*
X115020593Y-93291507D01*
X114989068Y-93353860D01*
X114969782Y-93370571D01*
X114961450Y-93376405D01*
X114875606Y-93462249D01*
X114875602Y-93462255D01*
X114824302Y-93572270D01*
X114824299Y-93572281D01*
X114817701Y-93622398D01*
X114817700Y-93622415D01*
X114817700Y-94090517D01*
X114798015Y-94157556D01*
X114781381Y-94178198D01*
X114286781Y-94672799D01*
X114225458Y-94706284D01*
X114155767Y-94701300D01*
X114099833Y-94659429D01*
X114075416Y-94593964D01*
X114075100Y-94585118D01*
X114075100Y-93829577D01*
X114066368Y-93785682D01*
X114066367Y-93785681D01*
X114066367Y-93785678D01*
X114033104Y-93735896D01*
X114032308Y-93735364D01*
X113983324Y-93702634D01*
X113983315Y-93702630D01*
X113974904Y-93700957D01*
X113912994Y-93668570D01*
X113878423Y-93607853D01*
X113875100Y-93579341D01*
X113875100Y-93457973D01*
X113875099Y-93457970D01*
X113836964Y-93365903D01*
X113766497Y-93295436D01*
X113324497Y-92853436D01*
X113280044Y-92835023D01*
X113262437Y-92827730D01*
X113208034Y-92783889D01*
X113185969Y-92717594D01*
X113203248Y-92649895D01*
X113254386Y-92602285D01*
X113323145Y-92589880D01*
X113329288Y-92590696D01*
X113436598Y-92607692D01*
X113436600Y-92607692D01*
X113436603Y-92607692D01*
X113561900Y-92587847D01*
X113561901Y-92587847D01*
X113561902Y-92587846D01*
X113561904Y-92587846D01*
X113674942Y-92530250D01*
X113764650Y-92440542D01*
X113822246Y-92327504D01*
X113822246Y-92327502D01*
X113822247Y-92327501D01*
X113822247Y-92327500D01*
X113842092Y-92202203D01*
X113842092Y-92202196D01*
X113822247Y-92076899D01*
X113822247Y-92076898D01*
X113820026Y-92072539D01*
X113764650Y-91963858D01*
X113764646Y-91963854D01*
X113764645Y-91963852D01*
X113674947Y-91874154D01*
X113674944Y-91874152D01*
X113674942Y-91874150D01*
X113598075Y-91834984D01*
X113547280Y-91787010D01*
X113530485Y-91719189D01*
X113553023Y-91653054D01*
X113607738Y-91609603D01*
X113654371Y-91600500D01*
X120563500Y-91600500D01*
X120630539Y-91620185D01*
G37*
G04 #@! TD.AperFunction*
M02*
