<?xml version="1.0" encoding="utf-8"?>
<!-- Generator: Adobe Illustrator 28.4.1, SVG Export Plug-In . SVG Version: 6.00 Build 0)  -->
<svg version="1.1" id="Layer_1" xmlns="http://www.w3.org/2000/svg" xmlns:xlink="http://www.w3.org/1999/xlink" x="0px" y="0px"
	 width="500px" height="500px" viewBox="0 0 500 500" style="enable-background:new 0 0 500 500;" xml:space="preserve">
<style type="text/css">
	.st0{fill:#087EA4;}
</style>
<g>
	<g>
		<path class="st0" d="M261.3,334.99c-100.26,0-178.8-37.4-178.8-85.13c0-47.74,78.54-85.14,178.8-85.14s178.8,37.4,178.8,85.14
			C440.09,297.59,361.55,334.99,261.3,334.99z M261.3,181.74c-96.77,0-161.77,35.22-161.77,68.11c0,32.88,65,68.1,161.77,68.1
			s161.77-35.22,161.77-68.1C423.07,216.96,358.06,181.74,261.3,181.74z"/>
	</g>
	<g>
		<path class="st0" d="M326.98,410.78c-16.93,0-36.57-7.67-57.38-22.65c-29.58-21.32-58.71-55.31-82.04-95.72
			s-38.2-82.63-41.86-118.9c-3.91-38.62,5.4-66.5,26.2-78.51c41.35-23.87,113,25.45,163.13,112.28l0,0
			c23.33,40.41,38.2,82.64,41.87,118.89c3.89,38.63-5.4,66.52-26.21,78.51C343.65,408.76,335.66,410.78,326.98,410.78z
			 M195.53,106.04c-5.71,0-10.81,1.23-15.12,3.72c-14.44,8.33-20.92,30.96-17.78,62.05c3.43,33.92,17.52,73.73,39.68,112.1
			c22.15,38.38,49.58,70.47,77.24,90.41c25.36,18.26,48.17,23.96,62.63,15.63c14.43-8.35,20.92-30.95,17.78-62.06
			c-3.43-33.91-17.53-73.72-39.66-112.09l0,0C279.22,144.68,227.62,106.04,195.53,106.04z"/>
	</g>
	<g>
		<path class="st0" d="M195.61,410.78c-8.69,0-16.66-2.03-23.71-6.1c-20.8-11.99-30.11-39.88-26.2-78.51
			c3.67-36.25,18.53-78.48,41.86-118.89C237.69,120.46,309.32,71.15,350.7,95c41.34,23.87,34.46,110.58-15.66,197.41l0,0
			c-23.33,40.41-52.47,74.4-82.03,95.72C232.18,403.12,212.54,410.78,195.61,410.78z M327.07,106.04
			c-32.09,0-83.69,38.63-124.75,109.76c-22.16,38.36-36.24,78.18-39.68,112.09c-3.14,31.1,3.33,53.71,17.78,62.06
			c14.4,8.3,37.27,2.63,62.63-15.63c27.66-19.94,55.09-52.03,77.26-90.41c48.37-83.8,50.37-157.7,21.88-174.15
			C337.87,107.27,332.77,106.04,327.07,106.04z"/>
	</g>
</g>
<path class="st0" d="M262.36,277.18c0.84-9.13-3.1-18.04-10.41-23.56c-3.85-3.03-8.48-4.91-13.36-5.42
	c-1.26-0.16-2.19-1.28-2.11-2.55c0.1-1.29,1.24-2.26,2.53-2.16c0.02,0,0.04,0,0.06,0.01c17.13,1.78,29.61,17.07,27.91,34.21
	c-0.17,1.82-0.51,3.63-1.04,5.38l6.94,1.95c2.05-0.59,4.05-1.35,5.98-2.27c0.52-2.69,0.77-5.43,0.76-8.17
	c-0.02-21.63-15.82-40.01-37.2-43.3c-2.31-0.42-4.67-0.42-6.98,0c-2.92,0.77-5.54,2.4-7.54,4.66c-5.38,6.23-4.69,15.65,1.54,21.03
	c1.5,1.29,3.24,2.27,5.12,2.89c1.24,0.3,2.49,0.52,3.75,0.68c6.72,1.15,11.64,6.97,11.64,13.8c0,2.68-0.78,5.29-2.23,7.54l4.78,3.07
	c2.35,0.64,4.75,1.04,7.18,1.19c1.43-2.87,2.32-5.98,2.63-9.17 M262.88,293.49c-25.11,0-45.5-20.3-45.61-45.41
	c-0.04-12.11,4.77-23.72,13.36-32.26l2.59,2.43c-16.51,16.37-16.63,43.02-0.26,59.54c0.09,0.09,0.18,0.18,0.26,0.26
	c16.37,16.51,43.02,16.63,59.54,0.26c0.09-0.09,0.18-0.18,0.26-0.26l2.43,2.43C286.79,289.03,275.05,293.71,262.88,293.49
	 M301,248.12c0-21.18-17.17-38.35-38.35-38.35c-0.07,0-0.14,0-0.2,0c-1.36,0-2.67,0-3.99,0.2l-0.88,2.55
	c18.91,6.63,33.78,21.49,40.43,40.39l2.55-0.92c0-1.28,0.24-2.55,0.24-3.99 M296.37,266.02c-3.87-26.86-24.97-47.96-51.83-51.82
	c-3.13,1.66-6.01,3.74-8.57,6.18v5.7c26.77,0.02,48.47,21.71,48.52,48.48h5.7C292.61,271.99,294.69,269.12,296.37,266.02
	 M244.9,272.16c0,3.26-2.64,5.9-5.9,5.9c-3.26,0-5.9-2.64-5.9-5.9s2.64-5.9,5.9-5.9c0,0,0,0,0,0
	C242.26,266.26,244.9,268.9,244.9,272.16"/>
<g>
</g>
<g>
</g>
<g>
</g>
<g>
</g>
<g>
</g>
<g>
</g>
<g>
</g>
<g>
</g>
<g>
</g>
<g>
</g>
<g>
</g>
<g>
</g>
<g>
</g>
<g>
</g>
<g>
</g>
</svg>
