G04 #@! TF.GenerationSoftware,KiCad,Pcbnew,8.0.2*
G04 #@! TF.CreationDate,2024-11-02T23:59:00+05:00*
G04 #@! TF.ProjectId,V1,56312e6b-6963-4616-945f-706362585858,r0.1*
G04 #@! TF.SameCoordinates,Original*
G04 #@! TF.FileFunction,Copper,L1,Top*
G04 #@! TF.FilePolarity,Positive*
%FSLAX46Y46*%
G04 Gerber Fmt 4.6, Leading zero omitted, Abs format (unit mm)*
G04 Created by KiCad (PCBNEW 8.0.2) date 2024-11-02 23:59:00*
%MOMM*%
%LPD*%
G01*
G04 APERTURE LIST*
G04 Aperture macros list*
%AMRoundRect*
0 Rectangle with rounded corners*
0 $1 Rounding radius*
0 $2 $3 $4 $5 $6 $7 $8 $9 X,Y pos of 4 corners*
0 Add a 4 corners polygon primitive as box body*
4,1,4,$2,$3,$4,$5,$6,$7,$8,$9,$2,$3,0*
0 Add four circle primitives for the rounded corners*
1,1,$1+$1,$2,$3*
1,1,$1+$1,$4,$5*
1,1,$1+$1,$6,$7*
1,1,$1+$1,$8,$9*
0 Add four rect primitives between the rounded corners*
20,1,$1+$1,$2,$3,$4,$5,0*
20,1,$1+$1,$4,$5,$6,$7,0*
20,1,$1+$1,$6,$7,$8,$9,0*
20,1,$1+$1,$8,$9,$2,$3,0*%
G04 Aperture macros list end*
G04 #@! TA.AperFunction,ComponentPad*
%ADD10C,1.524000*%
G04 #@! TD*
G04 #@! TA.AperFunction,SMDPad,CuDef*
%ADD11R,1.270000X1.524000*%
G04 #@! TD*
G04 #@! TA.AperFunction,SMDPad,CuDef*
%ADD12R,1.524000X1.270000*%
G04 #@! TD*
G04 #@! TA.AperFunction,SMDPad,CuDef*
%ADD13RoundRect,0.193750X0.281250X-0.193750X0.281250X0.193750X-0.281250X0.193750X-0.281250X-0.193750X0*%
G04 #@! TD*
G04 #@! TA.AperFunction,SMDPad,CuDef*
%ADD14RoundRect,0.147500X0.172500X-0.147500X0.172500X0.147500X-0.172500X0.147500X-0.172500X-0.147500X0*%
G04 #@! TD*
G04 #@! TA.AperFunction,SMDPad,CuDef*
%ADD15RoundRect,0.075000X-0.550000X0.225000X-0.550000X-0.225000X0.550000X-0.225000X0.550000X0.225000X0*%
G04 #@! TD*
G04 #@! TA.AperFunction,SMDPad,CuDef*
%ADD16RoundRect,0.075000X-0.550000X0.075000X-0.550000X-0.075000X0.550000X-0.075000X0.550000X0.075000X0*%
G04 #@! TD*
G04 #@! TA.AperFunction,ComponentPad*
%ADD17O,1.900000X1.000000*%
G04 #@! TD*
G04 #@! TA.AperFunction,ComponentPad*
%ADD18O,1.600000X1.000000*%
G04 #@! TD*
G04 #@! TA.AperFunction,SMDPad,CuDef*
%ADD19RoundRect,0.218750X0.256250X-0.218750X0.256250X0.218750X-0.256250X0.218750X-0.256250X-0.218750X0*%
G04 #@! TD*
G04 #@! TA.AperFunction,SMDPad,CuDef*
%ADD20RoundRect,0.147500X-0.172500X0.147500X-0.172500X-0.147500X0.172500X-0.147500X0.172500X0.147500X0*%
G04 #@! TD*
G04 #@! TA.AperFunction,SMDPad,CuDef*
%ADD21RoundRect,0.147500X0.147500X0.172500X-0.147500X0.172500X-0.147500X-0.172500X0.147500X-0.172500X0*%
G04 #@! TD*
G04 #@! TA.AperFunction,SMDPad,CuDef*
%ADD22RoundRect,0.112500X-0.112500X0.112500X-0.112500X-0.112500X0.112500X-0.112500X0.112500X0.112500X0*%
G04 #@! TD*
G04 #@! TA.AperFunction,SMDPad,CuDef*
%ADD23RoundRect,0.062500X-0.337500X-0.062500X0.337500X-0.062500X0.337500X0.062500X-0.337500X0.062500X0*%
G04 #@! TD*
G04 #@! TA.AperFunction,SMDPad,CuDef*
%ADD24RoundRect,0.062500X-0.062500X-0.337500X0.062500X-0.337500X0.062500X0.337500X-0.062500X0.337500X0*%
G04 #@! TD*
G04 #@! TA.AperFunction,HeatsinkPad*
%ADD25R,3.350000X3.350000*%
G04 #@! TD*
G04 #@! TA.AperFunction,SMDPad,CuDef*
%ADD26RoundRect,0.135000X0.135000X0.185000X-0.135000X0.185000X-0.135000X-0.185000X0.135000X-0.185000X0*%
G04 #@! TD*
G04 #@! TA.AperFunction,SMDPad,CuDef*
%ADD27RoundRect,0.093750X0.093750X0.106250X-0.093750X0.106250X-0.093750X-0.106250X0.093750X-0.106250X0*%
G04 #@! TD*
G04 #@! TA.AperFunction,HeatsinkPad*
%ADD28C,0.500000*%
G04 #@! TD*
G04 #@! TA.AperFunction,HeatsinkPad*
%ADD29R,1.000000X1.600000*%
G04 #@! TD*
G04 #@! TA.AperFunction,SMDPad,CuDef*
%ADD30RoundRect,0.150000X0.650000X0.150000X-0.650000X0.150000X-0.650000X-0.150000X0.650000X-0.150000X0*%
G04 #@! TD*
G04 #@! TA.AperFunction,SMDPad,CuDef*
%ADD31RoundRect,0.135000X-0.185000X0.135000X-0.185000X-0.135000X0.185000X-0.135000X0.185000X0.135000X0*%
G04 #@! TD*
G04 #@! TA.AperFunction,SMDPad,CuDef*
%ADD32RoundRect,0.135000X-0.135000X-0.185000X0.135000X-0.185000X0.135000X0.185000X-0.135000X0.185000X0*%
G04 #@! TD*
G04 #@! TA.AperFunction,SMDPad,CuDef*
%ADD33RoundRect,0.218750X-0.218750X-0.256250X0.218750X-0.256250X0.218750X0.256250X-0.218750X0.256250X0*%
G04 #@! TD*
G04 #@! TA.AperFunction,SMDPad,CuDef*
%ADD34R,0.500000X0.400000*%
G04 #@! TD*
G04 #@! TA.AperFunction,SMDPad,CuDef*
%ADD35R,0.500000X0.300000*%
G04 #@! TD*
G04 #@! TA.AperFunction,SMDPad,CuDef*
%ADD36R,0.600000X1.100000*%
G04 #@! TD*
G04 #@! TA.AperFunction,SMDPad,CuDef*
%ADD37RoundRect,0.147500X-0.147500X-0.172500X0.147500X-0.172500X0.147500X0.172500X-0.147500X0.172500X0*%
G04 #@! TD*
G04 #@! TA.AperFunction,SMDPad,CuDef*
%ADD38RoundRect,0.140000X-0.140000X-0.170000X0.140000X-0.170000X0.140000X0.170000X-0.140000X0.170000X0*%
G04 #@! TD*
G04 #@! TA.AperFunction,SMDPad,CuDef*
%ADD39R,0.550000X0.550000*%
G04 #@! TD*
G04 #@! TA.AperFunction,SMDPad,CuDef*
%ADD40RoundRect,0.135000X0.185000X-0.135000X0.185000X0.135000X-0.185000X0.135000X-0.185000X-0.135000X0*%
G04 #@! TD*
G04 #@! TA.AperFunction,SMDPad,CuDef*
%ADD41RoundRect,0.200000X-0.250000X0.200000X-0.250000X-0.200000X0.250000X-0.200000X0.250000X0.200000X0*%
G04 #@! TD*
G04 #@! TA.AperFunction,SMDPad,CuDef*
%ADD42RoundRect,0.140000X0.170000X-0.140000X0.170000X0.140000X-0.170000X0.140000X-0.170000X-0.140000X0*%
G04 #@! TD*
G04 #@! TA.AperFunction,SMDPad,CuDef*
%ADD43RoundRect,0.135000X0.540000X0.540000X-0.540000X0.540000X-0.540000X-0.540000X0.540000X-0.540000X0*%
G04 #@! TD*
G04 #@! TA.AperFunction,SMDPad,CuDef*
%ADD44RoundRect,0.218750X-0.218750X-0.381250X0.218750X-0.381250X0.218750X0.381250X-0.218750X0.381250X0*%
G04 #@! TD*
G04 #@! TA.AperFunction,SMDPad,CuDef*
%ADD45R,0.840000X0.260000*%
G04 #@! TD*
G04 #@! TA.AperFunction,SMDPad,CuDef*
%ADD46R,0.260000X0.840000*%
G04 #@! TD*
G04 #@! TA.AperFunction,SMDPad,CuDef*
%ADD47R,5.150000X5.150000*%
G04 #@! TD*
G04 #@! TA.AperFunction,SMDPad,CuDef*
%ADD48RoundRect,0.150000X0.825000X0.150000X-0.825000X0.150000X-0.825000X-0.150000X0.825000X-0.150000X0*%
G04 #@! TD*
G04 #@! TA.AperFunction,SMDPad,CuDef*
%ADD49RoundRect,0.225000X-0.250000X0.225000X-0.250000X-0.225000X0.250000X-0.225000X0.250000X0.225000X0*%
G04 #@! TD*
G04 #@! TA.AperFunction,SMDPad,CuDef*
%ADD50RoundRect,0.100000X-0.130000X-0.100000X0.130000X-0.100000X0.130000X0.100000X-0.130000X0.100000X0*%
G04 #@! TD*
G04 #@! TA.AperFunction,ViaPad*
%ADD51C,0.300000*%
G04 #@! TD*
G04 #@! TA.AperFunction,Conductor*
%ADD52C,0.200000*%
G04 #@! TD*
G04 #@! TA.AperFunction,Conductor*
%ADD53C,0.300000*%
G04 #@! TD*
G04 APERTURE END LIST*
D10*
X134290000Y-100000000D03*
D11*
X134925000Y-100000000D03*
D10*
X135560000Y-100000000D03*
X134290000Y-102540000D03*
D11*
X134925000Y-102540000D03*
D10*
X135560000Y-102540000D03*
X129300000Y-107721500D03*
D12*
X129300000Y-108356500D03*
D10*
X129300000Y-108991500D03*
X129200000Y-92380000D03*
D12*
X129200000Y-91745000D03*
D10*
X129200000Y-91110000D03*
X124130000Y-92380000D03*
D12*
X124130000Y-91745000D03*
D10*
X124130000Y-91110000D03*
X126800000Y-107700000D03*
D12*
X126800000Y-108335000D03*
D10*
X126800000Y-108970000D03*
X134300000Y-92400000D03*
D12*
X134300000Y-91765000D03*
D10*
X134300000Y-91130000D03*
X131700000Y-92400000D03*
D12*
X131700000Y-91765000D03*
D10*
X131700000Y-91130000D03*
X134300000Y-107721500D03*
D12*
X134300000Y-108356500D03*
D10*
X134300000Y-108991500D03*
X131800000Y-107721500D03*
D12*
X131800000Y-108356500D03*
D10*
X131800000Y-108991500D03*
D13*
X102700000Y-93387500D03*
X102700000Y-92212500D03*
X105500000Y-93287500D03*
X105500000Y-92112500D03*
D14*
X119500000Y-94485000D03*
X119500000Y-93515000D03*
D13*
X108200000Y-93387500D03*
X108200000Y-92212500D03*
D10*
X134290000Y-97460000D03*
D11*
X134925000Y-97460000D03*
D10*
X135560000Y-97460000D03*
X134290000Y-94920000D03*
D11*
X134925000Y-94920000D03*
D10*
X135560000Y-94920000D03*
X124300000Y-107700000D03*
D12*
X124300000Y-108335000D03*
D10*
X124300000Y-108970000D03*
X121800000Y-107700000D03*
D12*
X121800000Y-108335000D03*
D10*
X121800000Y-108970000D03*
X126670000Y-92380000D03*
D12*
X126670000Y-91745000D03*
D10*
X126670000Y-91110000D03*
D15*
X106245000Y-96250000D03*
X106245000Y-97050000D03*
D16*
X106245000Y-98250000D03*
X106245000Y-99250000D03*
X106245000Y-99750000D03*
X106245000Y-100750000D03*
D15*
X106245000Y-101950000D03*
X106245000Y-102750000D03*
X106245000Y-102750000D03*
X106245000Y-101950000D03*
D16*
X106245000Y-101250000D03*
X106245000Y-100250000D03*
X106245000Y-98750000D03*
X106245000Y-97750000D03*
D15*
X106245000Y-97050000D03*
X106245000Y-96250000D03*
D17*
X105530000Y-95180000D03*
D18*
X101350000Y-95180000D03*
D17*
X105530000Y-103820000D03*
D18*
X101350000Y-103820000D03*
D19*
X123200000Y-99987500D03*
X123200000Y-98412500D03*
D20*
X101200000Y-92315000D03*
X101200000Y-93285000D03*
X104000000Y-92215000D03*
X104000000Y-93185000D03*
X106800000Y-92215000D03*
X106800000Y-93185000D03*
D21*
X112085000Y-105600000D03*
X111115000Y-105600000D03*
D14*
X113800000Y-96685000D03*
X113800000Y-95715000D03*
D22*
X118125000Y-91775000D03*
X118125000Y-92425000D03*
X117475000Y-92425000D03*
X117475000Y-91775000D03*
D23*
X108550000Y-98500000D03*
X108550000Y-99000000D03*
X108550000Y-99500000D03*
X108550000Y-100000000D03*
X108550000Y-100500000D03*
X108550000Y-101000000D03*
X108550000Y-101500000D03*
D24*
X109500000Y-102450000D03*
X110000000Y-102450000D03*
X110500000Y-102450000D03*
X111000000Y-102450000D03*
X111500000Y-102450000D03*
X112000000Y-102450000D03*
X112500000Y-102450000D03*
D23*
X113450000Y-101500000D03*
X113450000Y-101000000D03*
X113450000Y-100500000D03*
X113450000Y-100000000D03*
X113450000Y-99500000D03*
X113450000Y-99000000D03*
X113450000Y-98500000D03*
D24*
X112500000Y-97550000D03*
X112000000Y-97550000D03*
X111500000Y-97550000D03*
X111000000Y-97550000D03*
X110500000Y-97550000D03*
X110000000Y-97550000D03*
X109500000Y-97550000D03*
D25*
X111000000Y-100000000D03*
D26*
X114310000Y-105600000D03*
X113290000Y-105600000D03*
D27*
X104187500Y-107050000D03*
X104187500Y-106400000D03*
X104187500Y-105750000D03*
X102412500Y-105750000D03*
X102412500Y-106400000D03*
X102412500Y-107050000D03*
D28*
X103300000Y-106950000D03*
D29*
X103300000Y-106400000D03*
D28*
X103300000Y-105850000D03*
D20*
X115500000Y-104615000D03*
X115500000Y-105585000D03*
D30*
X132200000Y-98605000D03*
X132200000Y-97335000D03*
X132200000Y-96065000D03*
X132200000Y-94795000D03*
X125000000Y-94795000D03*
X125000000Y-96065000D03*
X125000000Y-97335000D03*
X125000000Y-98605000D03*
D31*
X110800000Y-103590000D03*
X110800000Y-104610000D03*
D32*
X109890000Y-96200000D03*
X110910000Y-96200000D03*
D33*
X120912500Y-94400000D03*
X122487500Y-94400000D03*
D34*
X133800000Y-104450000D03*
D35*
X133800000Y-104950000D03*
X133800000Y-105450000D03*
D34*
X133800000Y-105950000D03*
X134800000Y-105950000D03*
D35*
X134800000Y-105450000D03*
X134800000Y-104950000D03*
D34*
X134800000Y-104450000D03*
D36*
X113150000Y-94400000D03*
X115050000Y-94400000D03*
X114100000Y-92200000D03*
D20*
X123100000Y-101215000D03*
X123100000Y-102185000D03*
D37*
X124115000Y-102200000D03*
X125085000Y-102200000D03*
D38*
X108020000Y-104500000D03*
X108980000Y-104500000D03*
D39*
X114425000Y-107425000D03*
X114425000Y-108175000D03*
X117075000Y-108175000D03*
X117075000Y-107425000D03*
D14*
X116400000Y-93085000D03*
X116400000Y-92115000D03*
X120200000Y-106185000D03*
X120200000Y-105215000D03*
D31*
X105400000Y-105390000D03*
X105400000Y-106410000D03*
D40*
X112900000Y-104610000D03*
X112900000Y-103590000D03*
D37*
X129115000Y-100100000D03*
X130085000Y-100100000D03*
D14*
X118300000Y-94485000D03*
X118300000Y-93515000D03*
X117400000Y-94485000D03*
X117400000Y-93515000D03*
D21*
X128085000Y-100100000D03*
X127115000Y-100100000D03*
D37*
X124115000Y-101200000D03*
X125085000Y-101200000D03*
D41*
X118725000Y-104375000D03*
X117075000Y-104375000D03*
X117075000Y-105625000D03*
X118725000Y-105625000D03*
D38*
X108040000Y-103530000D03*
X109000000Y-103530000D03*
D37*
X124515000Y-100200000D03*
X125485000Y-100200000D03*
D40*
X109800000Y-104610000D03*
X109800000Y-103590000D03*
D42*
X121200000Y-106180000D03*
X121200000Y-105220000D03*
D36*
X109650000Y-94400000D03*
X111550000Y-94400000D03*
X110600000Y-92200000D03*
D43*
X122525000Y-103625000D03*
X124675000Y-105775000D03*
X124675000Y-103625000D03*
X122525000Y-105775000D03*
D42*
X107700000Y-106380000D03*
X107700000Y-105420000D03*
D44*
X105537500Y-107800000D03*
X107662500Y-107800000D03*
D31*
X111900000Y-103590000D03*
X111900000Y-104610000D03*
D45*
X121835000Y-102050000D03*
X121835000Y-101550000D03*
X121835000Y-101050000D03*
X121835000Y-100550000D03*
X121835000Y-100050000D03*
X121835000Y-99550000D03*
X121835000Y-99050000D03*
X121835000Y-98550000D03*
X121835000Y-98050000D03*
X121835000Y-97550000D03*
X121835000Y-97050000D03*
X121835000Y-96550000D03*
D46*
X121150000Y-95865000D03*
X120650000Y-95865000D03*
X120150000Y-95865000D03*
X119650000Y-95865000D03*
X119150000Y-95865000D03*
X118650000Y-95865000D03*
X118150000Y-95865000D03*
X117650000Y-95865000D03*
X117150000Y-95865000D03*
X116650000Y-95865000D03*
X116150000Y-95865000D03*
X115650000Y-95865000D03*
D45*
X114965000Y-96550000D03*
X114965000Y-97050000D03*
X114965000Y-97550000D03*
X114965000Y-98050000D03*
X114965000Y-98550000D03*
X114965000Y-99050000D03*
X114965000Y-99550000D03*
X114965000Y-100050000D03*
X114965000Y-100550000D03*
X114965000Y-101050000D03*
X114965000Y-101550000D03*
X114965000Y-102050000D03*
D46*
X115650000Y-102735000D03*
X116150000Y-102735000D03*
X116650000Y-102735000D03*
X117150000Y-102735000D03*
X117650000Y-102735000D03*
X118150000Y-102735000D03*
X118650000Y-102735000D03*
X119150000Y-102735000D03*
X119650000Y-102735000D03*
X120150000Y-102735000D03*
X120650000Y-102735000D03*
X121150000Y-102735000D03*
D47*
X118400000Y-99300000D03*
D48*
X131875000Y-105405000D03*
X131875000Y-104135000D03*
X131875000Y-102865000D03*
X131875000Y-101595000D03*
X126925000Y-101595000D03*
X126925000Y-102865000D03*
X126925000Y-104135000D03*
X126925000Y-105405000D03*
D20*
X114000000Y-103515000D03*
X114000000Y-104485000D03*
D49*
X101100000Y-105925000D03*
X101100000Y-107475000D03*
D40*
X106600000Y-106410000D03*
X106600000Y-105390000D03*
D26*
X121210000Y-104400000D03*
X120190000Y-104400000D03*
D50*
X120480000Y-103700000D03*
X121120000Y-103700000D03*
D26*
X112910000Y-96200000D03*
X111890000Y-96200000D03*
D42*
X108900000Y-106380000D03*
X108900000Y-105420000D03*
D10*
X121600000Y-92400000D03*
D12*
X121600000Y-91765000D03*
D10*
X121600000Y-91130000D03*
D39*
X112575000Y-108075000D03*
X112575000Y-107325000D03*
X109925000Y-107325000D03*
X109925000Y-108075000D03*
D51*
X107250000Y-106650000D03*
X114453524Y-103589921D03*
X126300000Y-98600000D03*
X100600000Y-93700000D03*
X106900000Y-93650000D03*
X108250000Y-106650000D03*
X115202294Y-103350000D03*
X107800000Y-104150000D03*
X122463060Y-100881297D03*
X121650000Y-94100000D03*
X113781801Y-102918199D03*
X114000000Y-97100000D03*
X120135509Y-103199111D03*
X112730000Y-105600000D03*
X127700000Y-106100000D03*
X111535729Y-105133314D03*
X126900000Y-106100000D03*
X113500000Y-97100000D03*
X104100000Y-93800000D03*
X129100000Y-100600000D03*
X118669998Y-103000000D03*
X120550000Y-94800000D03*
X120550000Y-94000000D03*
X118300000Y-91700000D03*
X121604211Y-94859392D03*
X122430000Y-102027919D03*
X113000000Y-97000000D03*
X117700000Y-107400000D03*
X110000000Y-101100000D03*
X117700000Y-108200000D03*
X112100000Y-101200000D03*
X111000000Y-101100000D03*
X114900000Y-104600000D03*
X109900000Y-100000000D03*
X119600000Y-92800000D03*
X109000000Y-102900000D03*
X125400000Y-101800000D03*
X109700000Y-106800000D03*
X120800000Y-98700000D03*
X125400000Y-100800000D03*
X122900000Y-98100000D03*
X122900000Y-93400000D03*
X114300000Y-95900000D03*
X105200000Y-99700000D03*
X105200000Y-98799986D03*
X110800000Y-104400000D03*
X107200000Y-102000000D03*
X115474999Y-98518233D03*
X129109777Y-103250000D03*
X127000000Y-97600000D03*
X131644735Y-96685001D03*
X131034998Y-102444699D03*
X115474999Y-98018230D03*
X119669998Y-96000000D03*
X130300000Y-105400000D03*
X114800000Y-92200000D03*
X133228000Y-104100000D03*
X121398612Y-98029617D03*
X133500004Y-96200004D03*
X114425000Y-106900000D03*
X117149996Y-103496899D03*
X110500000Y-97850000D03*
X117669958Y-103185310D03*
X111025001Y-97891574D03*
X128411748Y-96650000D03*
X115474988Y-100058379D03*
X128853554Y-101346446D03*
X130800000Y-97400000D03*
X130534998Y-104134998D03*
X115475224Y-100558381D03*
X117200000Y-91500000D03*
X117500000Y-93200000D03*
X114000000Y-94300000D03*
X108500004Y-94300000D03*
X115500000Y-95600000D03*
X108900000Y-93400000D03*
X114600000Y-97549514D03*
X103400000Y-94800000D03*
X116150000Y-95865000D03*
X112400000Y-106600000D03*
X122100000Y-99069998D03*
X122744205Y-96919397D03*
X122100000Y-98569998D03*
X122791472Y-97437816D03*
X111005204Y-96550000D03*
X114600002Y-94700002D03*
X109000000Y-96550000D03*
X111600000Y-95400000D03*
X111600000Y-103600000D03*
X110070268Y-102977458D03*
X112600000Y-103600000D03*
X111000160Y-102970004D03*
X127190580Y-96650000D03*
X128899997Y-102500003D03*
X115474999Y-99558377D03*
X133293474Y-105413052D03*
X132400000Y-99200000D03*
X133392460Y-105945239D03*
X115474999Y-99018233D03*
X120630002Y-95500000D03*
X121200000Y-95900000D03*
X118169998Y-102950000D03*
X116600000Y-103600000D03*
X116200000Y-104100000D03*
X115280529Y-102044131D03*
X115474999Y-101581767D03*
X115470423Y-101058361D03*
D52*
X130305000Y-105405000D02*
X130300000Y-105400000D01*
X131875000Y-105405000D02*
X130305000Y-105405000D01*
X133800000Y-104450000D02*
X133578000Y-104450000D01*
X133578000Y-104450000D02*
X133228000Y-104100000D01*
X133500004Y-96670004D02*
X133500004Y-96200004D01*
X134290000Y-97460000D02*
X133500004Y-96670004D01*
X134800000Y-102665000D02*
X134800000Y-105850000D01*
D53*
X127430000Y-99430000D02*
X126605000Y-98605000D01*
D52*
X134800000Y-105850000D02*
X134700000Y-105950000D01*
X104100000Y-93800000D02*
X104100000Y-93285000D01*
D53*
X126300000Y-98600000D02*
X126295000Y-98605000D01*
D52*
X118225000Y-91775000D02*
X118300000Y-91700000D01*
D53*
X129115000Y-100100000D02*
X129115000Y-100585000D01*
D52*
X118150000Y-95350000D02*
X118420000Y-95080000D01*
X122637500Y-100550000D02*
X121835000Y-100550000D01*
X118905000Y-95080000D02*
X119500000Y-94485000D01*
X134925000Y-102540000D02*
X134800000Y-102665000D01*
D53*
X128085000Y-100100000D02*
X128085000Y-100042340D01*
D52*
X118650000Y-102980002D02*
X118669998Y-103000000D01*
D53*
X129115000Y-100585000D02*
X129100000Y-100600000D01*
D52*
X113290000Y-105600000D02*
X112730000Y-105600000D01*
D53*
X127472660Y-99430000D02*
X127430000Y-99430000D01*
X126295000Y-98605000D02*
X125000000Y-98605000D01*
D52*
X122430000Y-102027919D02*
X122407919Y-102050000D01*
X122407919Y-102050000D02*
X121835000Y-102050000D01*
D53*
X126305000Y-98605000D02*
X126300000Y-98600000D01*
X126605000Y-98605000D02*
X126305000Y-98605000D01*
D52*
X106800000Y-93185000D02*
X106800000Y-93550000D01*
X120150000Y-102735000D02*
X120150000Y-103184620D01*
X120150000Y-103184620D02*
X120135509Y-103199111D01*
X104100000Y-93285000D02*
X104000000Y-93185000D01*
X118650000Y-102735000D02*
X118650000Y-102980002D01*
X123200000Y-99987500D02*
X122637500Y-100550000D01*
X118150000Y-95865000D02*
X118150000Y-95350000D01*
X100785000Y-93700000D02*
X101200000Y-93285000D01*
X106800000Y-93550000D02*
X106900000Y-93650000D01*
D53*
X128085000Y-100042340D02*
X127472660Y-99430000D01*
D52*
X100600000Y-93700000D02*
X100785000Y-93700000D01*
X118420000Y-95080000D02*
X118905000Y-95080000D01*
X118125000Y-91775000D02*
X118225000Y-91775000D01*
D53*
X128085000Y-100100000D02*
X129115000Y-100100000D01*
D52*
X106245000Y-99750000D02*
X105250000Y-99750000D01*
X105249986Y-98750000D02*
X105200000Y-98799986D01*
X107652410Y-100500000D02*
X108550000Y-100500000D01*
X106902410Y-99750000D02*
X107652410Y-100500000D01*
X105250000Y-99750000D02*
X105200000Y-99700000D01*
X106245000Y-99750000D02*
X106902410Y-99750000D01*
X106245000Y-98750000D02*
X105249986Y-98750000D01*
X107718096Y-100000000D02*
X108550000Y-100000000D01*
X106245000Y-99250000D02*
X106968096Y-99250000D01*
X106245000Y-100250000D02*
X104850000Y-100250000D01*
X104850000Y-100250000D02*
X104600000Y-100000000D01*
X106968096Y-99250000D02*
X107718096Y-100000000D01*
X104600000Y-100000000D02*
X104600000Y-99450000D01*
X104600000Y-99450000D02*
X104800000Y-99250000D01*
X104800000Y-99250000D02*
X106245000Y-99250000D01*
X110800000Y-104610000D02*
X110800000Y-104400000D01*
X106295000Y-102000000D02*
X106245000Y-101950000D01*
X107200000Y-102000000D02*
X106295000Y-102000000D01*
X117650000Y-95191948D02*
X118300000Y-94541948D01*
X118300000Y-94541948D02*
X118300000Y-94485000D01*
X117650000Y-95865000D02*
X117650000Y-95191948D01*
X117150000Y-95865000D02*
X117150000Y-94735000D01*
X117150000Y-94735000D02*
X117400000Y-94485000D01*
X116650000Y-95865000D02*
X116650000Y-93335000D01*
X116650000Y-93335000D02*
X116400000Y-93085000D01*
D53*
X128224777Y-104135000D02*
X129109777Y-103250000D01*
X125000000Y-97335000D02*
X126735000Y-97335000D01*
X126735000Y-97335000D02*
X127000000Y-97600000D01*
D52*
X114965000Y-98550000D02*
X115443232Y-98550000D01*
D53*
X126925000Y-104135000D02*
X128224777Y-104135000D01*
D52*
X115443232Y-98550000D02*
X115474999Y-98518233D01*
X114965000Y-98050000D02*
X115443229Y-98050000D01*
D53*
X131644735Y-96620265D02*
X132200000Y-96065000D01*
X131875000Y-102865000D02*
X131454699Y-102444699D01*
X131644735Y-96685001D02*
X131644735Y-96620265D01*
X131454699Y-102444699D02*
X131034998Y-102444699D01*
D52*
X115443229Y-98050000D02*
X115474999Y-98018230D01*
X119650000Y-95980002D02*
X119669998Y-96000000D01*
X131875000Y-105405000D02*
X132330000Y-104950000D01*
X132330000Y-104950000D02*
X133800000Y-104950000D01*
X119650000Y-95865000D02*
X119650000Y-95980002D01*
X121418995Y-98050000D02*
X121398612Y-98029617D01*
X114425000Y-106900000D02*
X114425000Y-105715000D01*
X114800000Y-92200000D02*
X114100000Y-92200000D01*
X114425000Y-105715000D02*
X114310000Y-105600000D01*
X114425000Y-108175000D02*
X114425000Y-107425000D01*
X121835000Y-98050000D02*
X121418995Y-98050000D01*
X114425000Y-107425000D02*
X114425000Y-106900000D01*
X123100000Y-102185000D02*
X124100000Y-102185000D01*
X122953553Y-103196447D02*
X122525000Y-103625000D01*
X123100000Y-102185000D02*
X123100000Y-102842893D01*
X124100000Y-102185000D02*
X124115000Y-102200000D01*
X123100000Y-102842893D02*
G75*
G02*
X122953556Y-103196450I-500000J-7D01*
G01*
X110500000Y-97550000D02*
X110500000Y-97850000D01*
X117150000Y-102735000D02*
X117150000Y-103496895D01*
X117150000Y-103496895D02*
X117149996Y-103496899D01*
X117650000Y-103165352D02*
X117669958Y-103185310D01*
X111000000Y-97550000D02*
X111000000Y-97866573D01*
X111000000Y-97866573D02*
X111025001Y-97891574D01*
X117650000Y-102735000D02*
X117650000Y-103165352D01*
D53*
X128605000Y-101595000D02*
X128853554Y-101346446D01*
X126925000Y-101595000D02*
X128605000Y-101595000D01*
D52*
X115466609Y-100050000D02*
X115474988Y-100058379D01*
D53*
X125000000Y-94795000D02*
X126556748Y-94795000D01*
D52*
X114965000Y-100050000D02*
X115466609Y-100050000D01*
D53*
X126556748Y-94795000D02*
X128411748Y-96650000D01*
D52*
X115466843Y-100550000D02*
X115475224Y-100558381D01*
D53*
X130535000Y-104135000D02*
X130534998Y-104134998D01*
X131875000Y-104135000D02*
X130535000Y-104135000D01*
X130800000Y-97400000D02*
X132135000Y-97400000D01*
D52*
X114965000Y-100550000D02*
X115466843Y-100550000D01*
D53*
X132135000Y-97400000D02*
X132200000Y-97335000D01*
D52*
X105500000Y-92112500D02*
X104102500Y-92112500D01*
X104102500Y-92112500D02*
X104000000Y-92215000D01*
X108200000Y-92212500D02*
X106802500Y-92212500D01*
X106802500Y-92212500D02*
X106800000Y-92215000D01*
X102700000Y-92212500D02*
X101302500Y-92212500D01*
X101302500Y-92212500D02*
X101200000Y-92315000D01*
X117200000Y-91500000D02*
X117475000Y-91775000D01*
X117400000Y-93300000D02*
X117500000Y-93200000D01*
X117400000Y-93515000D02*
X117400000Y-93300000D01*
X116400000Y-92115000D02*
X116710000Y-92425000D01*
X116710000Y-92425000D02*
X117475000Y-92425000D01*
X114000000Y-94400000D02*
X114000000Y-94300000D01*
X114965000Y-96064999D02*
X114964994Y-96065005D01*
X106512500Y-94300000D02*
X108500004Y-94300000D01*
X114964994Y-95923046D02*
X114000000Y-94958052D01*
X114965000Y-96065000D02*
X114965000Y-96064999D01*
X105500000Y-93287500D02*
X106512500Y-94300000D01*
X114964994Y-96065012D02*
X114964994Y-95923046D01*
X114000000Y-94958052D02*
X114000000Y-94400000D01*
X114964994Y-96065005D02*
X114964994Y-96065012D01*
X114965000Y-96550000D02*
X114965000Y-96064999D01*
X115650000Y-95865000D02*
X115650000Y-95750000D01*
X115650000Y-95750000D02*
X115500000Y-95600000D01*
X108212500Y-93400000D02*
X108200000Y-93387500D01*
X108900000Y-93400000D02*
X108212500Y-93400000D01*
X114600486Y-97550000D02*
X114600000Y-97549514D01*
X102700000Y-93387500D02*
X102700000Y-94100000D01*
X114965000Y-97550000D02*
X114600486Y-97550000D01*
X102700000Y-94100000D02*
X103400000Y-94800000D01*
X110600000Y-92200000D02*
X110600000Y-92800000D01*
X115258052Y-93200000D02*
X116150000Y-94091948D01*
X112575000Y-107325000D02*
X112575000Y-106775000D01*
X116150000Y-94091948D02*
X116150000Y-95865000D01*
X112400000Y-106600000D02*
X112085000Y-106285000D01*
X111000000Y-93200000D02*
X115258052Y-93200000D01*
X112575000Y-106775000D02*
X112400000Y-106600000D01*
X112085000Y-106285000D02*
X112085000Y-105600000D01*
X112575000Y-107325000D02*
X112575000Y-108075000D01*
X110600000Y-92800000D02*
X111000000Y-93200000D01*
X122080002Y-99050000D02*
X122100000Y-99069998D01*
X121835000Y-99050000D02*
X122080002Y-99050000D01*
X121835000Y-97050000D02*
X121885000Y-97000000D01*
X121885000Y-97000000D02*
X122663602Y-97000000D01*
X122663602Y-97000000D02*
X122744205Y-96919397D01*
X122080002Y-98550000D02*
X122100000Y-98569998D01*
X121835000Y-98550000D02*
X122080002Y-98550000D01*
X118300000Y-92600000D02*
X118125000Y-92425000D01*
X118300000Y-93515000D02*
X118300000Y-92600000D01*
X121835000Y-97550000D02*
X122679288Y-97550000D01*
X122679288Y-97550000D02*
X122791472Y-97437816D01*
X117900000Y-104037352D02*
X118482352Y-103455000D01*
X115500000Y-105585000D02*
X117035000Y-105585000D01*
X117900000Y-104800000D02*
X117900000Y-104037352D01*
X117075000Y-105625000D02*
X117900000Y-104800000D01*
X118945000Y-103455000D02*
X119150000Y-103250000D01*
X118482352Y-103455000D02*
X118945000Y-103455000D01*
X117035000Y-105585000D02*
X117075000Y-105625000D01*
X119150000Y-103250000D02*
X119150000Y-102735000D01*
X118725000Y-104375000D02*
X119650000Y-103450000D01*
X119565000Y-105215000D02*
X118725000Y-104375000D01*
X119650000Y-103450000D02*
X119650000Y-102735000D01*
X120200000Y-105215000D02*
X119565000Y-105215000D01*
X121835520Y-101549480D02*
X122765520Y-101549480D01*
X122765520Y-101549480D02*
X123100000Y-101215000D01*
X121835000Y-101550000D02*
X121835520Y-101549480D01*
X123100000Y-101215000D02*
X124100000Y-101215000D01*
X124100000Y-101215000D02*
X124115000Y-101200000D01*
X121150000Y-102735000D02*
X121120000Y-102765000D01*
X121120000Y-104310000D02*
X121310000Y-104500000D01*
X121120000Y-102765000D02*
X121120000Y-103700000D01*
X121310000Y-104500000D02*
X121200000Y-104610000D01*
X121200000Y-104610000D02*
X121200000Y-105220000D01*
X121120000Y-103700000D02*
X121120000Y-104310000D01*
X120190000Y-103845000D02*
X120190000Y-104400000D01*
X120650000Y-102735000D02*
X120650000Y-103385000D01*
X120650000Y-103385000D02*
X120190000Y-103845000D01*
X110910000Y-96200000D02*
X110910000Y-96454796D01*
X111500000Y-97550000D02*
X111500000Y-97044796D01*
X111500000Y-97044796D02*
X111005204Y-96550000D01*
X114700004Y-94600000D02*
X114600002Y-94700002D01*
X110910000Y-96454796D02*
X111005204Y-96550000D01*
X115050000Y-94600000D02*
X114700004Y-94600000D01*
X112910000Y-94840000D02*
X113150000Y-94600000D01*
X112910000Y-96200000D02*
X112910000Y-94840000D01*
X109650000Y-94600000D02*
X109650000Y-95960000D01*
X109650000Y-95960000D02*
X109890000Y-96200000D01*
X109500000Y-97550000D02*
X109500000Y-97050000D01*
X109500000Y-97050000D02*
X109000000Y-96550000D01*
X111890000Y-95690000D02*
X111600000Y-95400000D01*
X111600000Y-95400000D02*
X111550000Y-95350000D01*
X111890000Y-96200000D02*
X111890000Y-95690000D01*
X111550000Y-95350000D02*
X111550000Y-94600000D01*
X109800000Y-103590000D02*
X109800000Y-103393866D01*
X109500000Y-103093866D02*
X109500000Y-102450000D01*
X110800000Y-103590000D02*
X109800000Y-103590000D01*
X109800000Y-103393866D02*
X109500000Y-103093866D01*
X110070268Y-102977458D02*
X110000000Y-102907190D01*
X111610000Y-103590000D02*
X111600000Y-103600000D01*
X110000000Y-102907190D02*
X110000000Y-102450000D01*
X111900000Y-103590000D02*
X111610000Y-103590000D01*
X111000160Y-102450160D02*
X111000000Y-102450000D01*
X112610000Y-103590000D02*
X112600000Y-103600000D01*
X112900000Y-103590000D02*
X112610000Y-103590000D01*
X111000160Y-102970004D02*
X111000160Y-102450160D01*
X106600000Y-105390000D02*
X107670000Y-105390000D01*
X105040000Y-105750000D02*
X105400000Y-105390000D01*
X104187500Y-105750000D02*
X105040000Y-105750000D01*
X107670000Y-105390000D02*
X107700000Y-105420000D01*
X105400000Y-105390000D02*
X106600000Y-105390000D01*
D53*
X126925000Y-102865000D02*
X127289997Y-102500003D01*
D52*
X114965000Y-99550000D02*
X115466622Y-99550000D01*
D53*
X125000000Y-96065000D02*
X126605580Y-96065000D01*
D52*
X133330422Y-105450000D02*
X133293474Y-105413052D01*
X133800000Y-105450000D02*
X133330422Y-105450000D01*
X115466622Y-99550000D02*
X115474999Y-99558377D01*
D53*
X127289997Y-102500003D02*
X128899997Y-102500003D01*
X126605580Y-96065000D02*
X127190580Y-96650000D01*
D52*
X133397221Y-105950000D02*
X133392460Y-105945239D01*
X114965000Y-99050000D02*
X115443232Y-99050000D01*
X133800000Y-105950000D02*
X133397221Y-105950000D01*
X132400000Y-99200000D02*
X132400000Y-98805000D01*
X132400000Y-98805000D02*
X132200000Y-98605000D01*
X115443232Y-99050000D02*
X115474999Y-99018233D01*
X120650000Y-95865000D02*
X120650000Y-95519998D01*
X120650000Y-95519998D02*
X120630002Y-95500000D01*
X122054448Y-96300000D02*
X122500000Y-96300000D01*
X125974448Y-92380000D02*
X126670000Y-92380000D01*
X122500000Y-96300000D02*
X123900000Y-94900000D01*
X123900000Y-94900000D02*
X123900000Y-94454448D01*
X123900000Y-94454448D02*
X125974448Y-92380000D01*
X121835000Y-96550000D02*
X121835000Y-96519448D01*
X121835000Y-96519448D02*
X122054448Y-96300000D01*
X121150000Y-95865000D02*
X121165000Y-95865000D01*
X121165000Y-95865000D02*
X121200000Y-95900000D01*
X118150000Y-102930002D02*
X118169998Y-102950000D01*
X118150000Y-102735000D02*
X118150000Y-102930002D01*
X116650000Y-102735000D02*
X116650000Y-103550000D01*
X116650000Y-103550000D02*
X116600000Y-103600000D01*
X116150000Y-104050000D02*
X116200000Y-104100000D01*
X116150000Y-102735000D02*
X116150000Y-104050000D01*
X114965000Y-102050000D02*
X115274660Y-102050000D01*
X115274660Y-102050000D02*
X115280529Y-102044131D01*
X115443232Y-101550000D02*
X115474999Y-101581767D01*
X114965000Y-101550000D02*
X115443232Y-101550000D01*
X114965000Y-101050000D02*
X114973361Y-101058361D01*
X114973361Y-101058361D02*
X115470423Y-101058361D01*
G04 #@! TA.AperFunction,Conductor*
G36*
X113531290Y-96201294D02*
G01*
X113594472Y-96210500D01*
X113594477Y-96210500D01*
X114005523Y-96210500D01*
X114005528Y-96210500D01*
X114068709Y-96201294D01*
X114086584Y-96200000D01*
X114086972Y-96200000D01*
X114143265Y-96213514D01*
X114190339Y-96237500D01*
X114190340Y-96237500D01*
X114190342Y-96237501D01*
X114243795Y-96245967D01*
X114306930Y-96275896D01*
X114343862Y-96335207D01*
X114346016Y-96392629D01*
X114344500Y-96400251D01*
X114344500Y-96699752D01*
X114356131Y-96758229D01*
X114356132Y-96758230D01*
X114400447Y-96824552D01*
X114466769Y-96868867D01*
X114466770Y-96868868D01*
X114525247Y-96880499D01*
X114525250Y-96880500D01*
X114525252Y-96880500D01*
X115404749Y-96880500D01*
X115421017Y-96877263D01*
X115451808Y-96871139D01*
X115521399Y-96877366D01*
X115576577Y-96920228D01*
X115599822Y-96986117D01*
X115600000Y-96992756D01*
X115600000Y-97107243D01*
X115580315Y-97174282D01*
X115527511Y-97220037D01*
X115458353Y-97229981D01*
X115451810Y-97228861D01*
X115404748Y-97219500D01*
X114752340Y-97219500D01*
X114714018Y-97213430D01*
X114709655Y-97212012D01*
X114600002Y-97194645D01*
X114599998Y-97194645D01*
X114490341Y-97212012D01*
X114391414Y-97262418D01*
X114391407Y-97262423D01*
X114312909Y-97340921D01*
X114312904Y-97340928D01*
X114262498Y-97439855D01*
X114245131Y-97549511D01*
X114245131Y-97549516D01*
X114262498Y-97659172D01*
X114312904Y-97758099D01*
X114312909Y-97758106D01*
X114315975Y-97761172D01*
X114318512Y-97765818D01*
X114318644Y-97766000D01*
X114318620Y-97766017D01*
X114349460Y-97822495D01*
X114349912Y-97873043D01*
X114344500Y-97900252D01*
X114344500Y-97976000D01*
X114324815Y-98043039D01*
X114272011Y-98088794D01*
X114220500Y-98100000D01*
X113324000Y-98100000D01*
X113256961Y-98080315D01*
X113211206Y-98027511D01*
X113200000Y-97976000D01*
X113200000Y-97347045D01*
X113219685Y-97280006D01*
X113236319Y-97259364D01*
X113287090Y-97208592D01*
X113287095Y-97208587D01*
X113337500Y-97109661D01*
X113337500Y-97109659D01*
X113337501Y-97109658D01*
X113354869Y-97000002D01*
X113354869Y-96999997D01*
X113337501Y-96890341D01*
X113326560Y-96868868D01*
X113287095Y-96791413D01*
X113287092Y-96791410D01*
X113281356Y-96783514D01*
X113282592Y-96782615D01*
X113254272Y-96730751D01*
X113259256Y-96661059D01*
X113287757Y-96616712D01*
X113324065Y-96580404D01*
X113374068Y-96473173D01*
X113380500Y-96424316D01*
X113380500Y-96324000D01*
X113400185Y-96256961D01*
X113452989Y-96211206D01*
X113504500Y-96200000D01*
X113513416Y-96200000D01*
X113531290Y-96201294D01*
G37*
G04 #@! TD.AperFunction*
G04 #@! TA.AperFunction,Conductor*
G36*
X126043039Y-97919685D02*
G01*
X126088794Y-97972489D01*
X126100000Y-98024000D01*
X126100000Y-99176000D01*
X126080315Y-99243039D01*
X126027511Y-99288794D01*
X125976000Y-99300000D01*
X125000000Y-99300000D01*
X125000000Y-99913417D01*
X124998705Y-99931289D01*
X124989500Y-99994472D01*
X124989500Y-100405528D01*
X124998705Y-100468707D01*
X125000000Y-100486583D01*
X125000000Y-100558339D01*
X124980315Y-100625378D01*
X124927511Y-100671133D01*
X124893878Y-100681043D01*
X124836834Y-100689353D01*
X124827631Y-100692198D01*
X124827128Y-100690570D01*
X124786368Y-100700000D01*
X124413632Y-100700000D01*
X124372871Y-100690570D01*
X124372369Y-100692198D01*
X124363170Y-100689355D01*
X124363156Y-100689353D01*
X124295528Y-100679500D01*
X123934472Y-100679500D01*
X123876493Y-100687947D01*
X123866829Y-100689355D01*
X123857631Y-100692198D01*
X123857128Y-100690570D01*
X123816368Y-100700000D01*
X122500000Y-100700000D01*
X122500000Y-100300000D01*
X122415957Y-100300000D01*
X122443867Y-100258231D01*
X122443867Y-100258229D01*
X122443868Y-100258229D01*
X122455499Y-100199752D01*
X122455500Y-100199750D01*
X122455500Y-99900249D01*
X122455499Y-99900247D01*
X122441485Y-99829790D01*
X122444264Y-99829237D01*
X122438749Y-99777999D01*
X122442427Y-99765472D01*
X122455499Y-99699752D01*
X122455500Y-99699750D01*
X122455500Y-99424000D01*
X122475185Y-99356961D01*
X122527989Y-99311206D01*
X122579500Y-99300000D01*
X124000000Y-99300000D01*
X124000000Y-98024000D01*
X124019685Y-97956961D01*
X124072489Y-97911206D01*
X124124000Y-97900000D01*
X125976000Y-97900000D01*
X126043039Y-97919685D01*
G37*
G04 #@! TD.AperFunction*
G04 #@! TA.AperFunction,Conductor*
G36*
X109300000Y-106600000D02*
G01*
X109408067Y-106600906D01*
X109362498Y-106690341D01*
X109345131Y-106799997D01*
X109345131Y-106800002D01*
X109362498Y-106909658D01*
X109412904Y-107008585D01*
X109412906Y-107008588D01*
X109413175Y-107008857D01*
X109413397Y-107009263D01*
X109418644Y-107016486D01*
X109417711Y-107017163D01*
X109446664Y-107070177D01*
X109449500Y-107096544D01*
X109449500Y-107619747D01*
X109460651Y-107675810D01*
X109460651Y-107724190D01*
X109449500Y-107780252D01*
X109449500Y-108369752D01*
X109461131Y-108428228D01*
X109461262Y-108428543D01*
X109461341Y-108429284D01*
X109463515Y-108440210D01*
X109462537Y-108440404D01*
X109468734Y-108498012D01*
X109437461Y-108560492D01*
X109377374Y-108596147D01*
X109346703Y-108600000D01*
X106924000Y-108600000D01*
X106856961Y-108580315D01*
X106811206Y-108527511D01*
X106800000Y-108476000D01*
X106800000Y-107000000D01*
X106700000Y-106900000D01*
X106224000Y-106900000D01*
X106156961Y-106880315D01*
X106111206Y-106827511D01*
X106100000Y-106776000D01*
X106100000Y-106124000D01*
X106119685Y-106056961D01*
X106172489Y-106011206D01*
X106224000Y-106000000D01*
X109300000Y-106000000D01*
X109300000Y-106600000D01*
G37*
G04 #@! TD.AperFunction*
G04 #@! TA.AperFunction,Conductor*
G36*
X121643039Y-93719685D02*
G01*
X121688794Y-93772489D01*
X121700000Y-93824000D01*
X121700000Y-95176000D01*
X121680315Y-95243039D01*
X121627511Y-95288794D01*
X121576000Y-95300000D01*
X121461497Y-95300000D01*
X121394458Y-95280315D01*
X121392606Y-95279102D01*
X121370193Y-95264126D01*
X121358231Y-95256133D01*
X121358229Y-95256132D01*
X121358226Y-95256131D01*
X121299752Y-95244500D01*
X121299748Y-95244500D01*
X121000252Y-95244500D01*
X120956768Y-95253149D01*
X120887176Y-95246920D01*
X120844897Y-95219212D01*
X120838594Y-95212909D01*
X120838590Y-95212906D01*
X120838589Y-95212905D01*
X120834745Y-95210946D01*
X120739660Y-95162498D01*
X120630004Y-95145131D01*
X120630000Y-95145131D01*
X120520343Y-95162498D01*
X120421413Y-95212904D01*
X120413520Y-95218640D01*
X120412702Y-95217514D01*
X120360410Y-95246063D01*
X120309875Y-95246513D01*
X120299755Y-95244500D01*
X120299748Y-95244500D01*
X120000252Y-95244500D01*
X120000249Y-95244500D01*
X119929791Y-95258515D01*
X119929238Y-95255737D01*
X119877972Y-95261245D01*
X119865455Y-95257569D01*
X119799751Y-95244500D01*
X119799748Y-95244500D01*
X119500252Y-95244500D01*
X119500249Y-95244500D01*
X119429791Y-95258515D01*
X119429238Y-95255737D01*
X119377972Y-95261245D01*
X119365455Y-95257569D01*
X119299751Y-95244500D01*
X119299748Y-95244500D01*
X119024000Y-95244500D01*
X118956961Y-95224815D01*
X118911206Y-95172011D01*
X118900000Y-95120500D01*
X118900000Y-94026510D01*
X118919685Y-93959471D01*
X118972489Y-93913716D01*
X119041647Y-93903772D01*
X119105203Y-93932797D01*
X119111681Y-93938829D01*
X119122486Y-93949634D01*
X119122487Y-93949634D01*
X119122489Y-93949636D01*
X119226830Y-94000645D01*
X119294472Y-94010500D01*
X119294478Y-94010500D01*
X119705522Y-94010500D01*
X119705528Y-94010500D01*
X119773170Y-94000645D01*
X119877511Y-93949636D01*
X119959636Y-93867511D01*
X120007531Y-93769537D01*
X120054658Y-93717958D01*
X120118931Y-93700000D01*
X121576000Y-93700000D01*
X121643039Y-93719685D01*
G37*
G04 #@! TD.AperFunction*
G04 #@! TA.AperFunction,Conductor*
G36*
X122500000Y-100700000D02*
G01*
X122500000Y-101114631D01*
X122480315Y-101181670D01*
X122427511Y-101227425D01*
X122358353Y-101237369D01*
X122341915Y-101232859D01*
X122274752Y-101219500D01*
X122274748Y-101219500D01*
X121424000Y-101219500D01*
X121356961Y-101199815D01*
X121311206Y-101147011D01*
X121300000Y-101095500D01*
X121300000Y-100504500D01*
X121319685Y-100437461D01*
X121372489Y-100391706D01*
X121424000Y-100380500D01*
X122274750Y-100380500D01*
X122274751Y-100380499D01*
X122289568Y-100377552D01*
X122333229Y-100368868D01*
X122333229Y-100368867D01*
X122333231Y-100368867D01*
X122399552Y-100324552D01*
X122415957Y-100300000D01*
X122500000Y-100300000D01*
X122500000Y-100700000D01*
G37*
G04 #@! TD.AperFunction*
G04 #@! TA.AperFunction,Conductor*
G36*
X112215677Y-104119685D02*
G01*
X112236319Y-104136319D01*
X112263681Y-104163681D01*
X112297166Y-104225004D01*
X112300000Y-104251362D01*
X112300000Y-104848638D01*
X112280315Y-104915677D01*
X112263681Y-104936319D01*
X112236319Y-104963681D01*
X112174996Y-104997166D01*
X112148638Y-105000000D01*
X111799999Y-105000000D01*
X111700000Y-105099999D01*
X111700000Y-105121490D01*
X111680315Y-105188529D01*
X111663681Y-105209171D01*
X111650365Y-105222486D01*
X111599355Y-105326828D01*
X111599355Y-105326830D01*
X111589500Y-105394472D01*
X111589500Y-105805528D01*
X111599355Y-105873170D01*
X111599355Y-105873171D01*
X111599356Y-105873173D01*
X111602328Y-105879253D01*
X111614085Y-105948126D01*
X111586740Y-106012423D01*
X111578607Y-106021391D01*
X111022606Y-106577393D01*
X110961283Y-106610878D01*
X110933885Y-106613708D01*
X110052320Y-106606311D01*
X109985448Y-106586064D01*
X109965679Y-106569996D01*
X109908592Y-106512909D01*
X109908588Y-106512906D01*
X109908587Y-106512905D01*
X109904743Y-106510946D01*
X109809658Y-106462498D01*
X109700002Y-106445131D01*
X109699998Y-106445131D01*
X109590341Y-106462498D01*
X109491414Y-106512904D01*
X109491407Y-106512909D01*
X109412909Y-106591407D01*
X109412904Y-106591414D01*
X109408067Y-106600906D01*
X109300000Y-106600000D01*
X109300000Y-105862902D01*
X109319685Y-105795863D01*
X109336319Y-105775221D01*
X109353224Y-105758316D01*
X109403972Y-105649487D01*
X109410500Y-105599901D01*
X109410499Y-105240100D01*
X109407296Y-105215768D01*
X109418062Y-105146735D01*
X109464442Y-105094480D01*
X109531711Y-105075595D01*
X109546410Y-105076646D01*
X109575684Y-105080500D01*
X109575686Y-105080500D01*
X110024317Y-105080500D01*
X110040601Y-105078356D01*
X110073173Y-105074068D01*
X110180404Y-105024065D01*
X110180410Y-105024058D01*
X110182745Y-105022425D01*
X110186991Y-105020992D01*
X110190236Y-105019480D01*
X110190404Y-105019841D01*
X110248951Y-105000098D01*
X110253869Y-105000000D01*
X110346131Y-105000000D01*
X110413170Y-105019685D01*
X110417255Y-105022425D01*
X110419591Y-105024060D01*
X110419596Y-105024065D01*
X110526827Y-105074068D01*
X110575683Y-105080500D01*
X110575684Y-105080500D01*
X111024317Y-105080500D01*
X111040601Y-105078356D01*
X111073173Y-105074068D01*
X111180404Y-105024065D01*
X111180410Y-105024058D01*
X111182745Y-105022425D01*
X111186991Y-105020992D01*
X111190236Y-105019480D01*
X111190404Y-105019841D01*
X111248951Y-105000098D01*
X111253869Y-105000000D01*
X111300000Y-105000000D01*
X111400000Y-104900000D01*
X111400000Y-104251362D01*
X111419685Y-104184323D01*
X111436319Y-104163681D01*
X111463681Y-104136319D01*
X111525004Y-104102834D01*
X111551362Y-104100000D01*
X112148638Y-104100000D01*
X112215677Y-104119685D01*
G37*
G04 #@! TD.AperFunction*
G04 #@! TA.AperFunction,Conductor*
G36*
X114287539Y-101919685D02*
G01*
X114333294Y-101972489D01*
X114344500Y-102024000D01*
X114344500Y-102199752D01*
X114356131Y-102258229D01*
X114356132Y-102258230D01*
X114400447Y-102324552D01*
X114466769Y-102368867D01*
X114466770Y-102368868D01*
X114525247Y-102380499D01*
X114525250Y-102380500D01*
X114525252Y-102380500D01*
X115153968Y-102380500D01*
X115173366Y-102382027D01*
X115280527Y-102399000D01*
X115280529Y-102399000D01*
X115280531Y-102399000D01*
X115387692Y-102382027D01*
X115398694Y-102381160D01*
X115398688Y-102381097D01*
X115404742Y-102380500D01*
X115404748Y-102380500D01*
X115419568Y-102377552D01*
X115463229Y-102368868D01*
X115463229Y-102368867D01*
X115463231Y-102368867D01*
X115529552Y-102324552D01*
X115573867Y-102258231D01*
X115576317Y-102245909D01*
X115587473Y-102213759D01*
X115587705Y-102213304D01*
X115635701Y-102162533D01*
X115703530Y-102145769D01*
X115769655Y-102168338D01*
X115813081Y-102223073D01*
X115819676Y-102289145D01*
X115820097Y-102289187D01*
X115819890Y-102291286D01*
X115820021Y-102292597D01*
X115819781Y-102293838D01*
X115819500Y-102295251D01*
X115819500Y-103174752D01*
X115831131Y-103233229D01*
X115835807Y-103244516D01*
X115833605Y-103245427D01*
X115849480Y-103296117D01*
X115849500Y-103298335D01*
X115849500Y-103876000D01*
X115829815Y-103943039D01*
X115777011Y-103988794D01*
X115725500Y-104000000D01*
X114286584Y-104000000D01*
X114268709Y-103998705D01*
X114205528Y-103989500D01*
X113794472Y-103989500D01*
X113731290Y-103998705D01*
X113713416Y-104000000D01*
X113624000Y-104000000D01*
X113556961Y-103980315D01*
X113511206Y-103927511D01*
X113500000Y-103876000D01*
X113500000Y-102024000D01*
X113519685Y-101956961D01*
X113572489Y-101911206D01*
X113624000Y-101900000D01*
X114220500Y-101900000D01*
X114287539Y-101919685D01*
G37*
G04 #@! TD.AperFunction*
G04 #@! TA.AperFunction,Conductor*
G36*
X128143039Y-104819685D02*
G01*
X128188794Y-104872489D01*
X128200000Y-104924000D01*
X128200000Y-106776000D01*
X128180315Y-106843039D01*
X128127511Y-106888794D01*
X128076000Y-106900000D01*
X127376171Y-106900000D01*
X127317718Y-106885358D01*
X127170122Y-106806466D01*
X127170119Y-106806465D01*
X127170118Y-106806464D01*
X127170115Y-106806463D01*
X126988683Y-106751427D01*
X126988681Y-106751426D01*
X126988683Y-106751426D01*
X126800000Y-106732843D01*
X126611318Y-106751426D01*
X126504194Y-106783921D01*
X126429885Y-106806463D01*
X126429882Y-106806464D01*
X126429880Y-106806465D01*
X126429877Y-106806466D01*
X126282282Y-106885358D01*
X126223829Y-106900000D01*
X125824000Y-106900000D01*
X125756961Y-106880315D01*
X125711206Y-106827511D01*
X125700000Y-106776000D01*
X125700000Y-104924000D01*
X125719685Y-104856961D01*
X125772489Y-104811206D01*
X125824000Y-104800000D01*
X128076000Y-104800000D01*
X128143039Y-104819685D01*
G37*
G04 #@! TD.AperFunction*
G04 #@! TA.AperFunction,Conductor*
G36*
X104490539Y-96519685D02*
G01*
X104536294Y-96572489D01*
X104547500Y-96624000D01*
X104547500Y-96669573D01*
X104561412Y-96721492D01*
X104578337Y-96784660D01*
X104608123Y-96836250D01*
X104637910Y-96887842D01*
X104722158Y-96972090D01*
X104825341Y-97031663D01*
X104940427Y-97062500D01*
X104940429Y-97062500D01*
X105059571Y-97062500D01*
X105059573Y-97062500D01*
X105174659Y-97031663D01*
X105277842Y-96972090D01*
X105362090Y-96887842D01*
X105421663Y-96784659D01*
X105421663Y-96784656D01*
X105422660Y-96782931D01*
X105473227Y-96734716D01*
X105541834Y-96721492D01*
X105577505Y-96730372D01*
X105587502Y-96734513D01*
X105587505Y-96734515D01*
X105587508Y-96734515D01*
X105587509Y-96734516D01*
X105588515Y-96734716D01*
X105667867Y-96750500D01*
X106822132Y-96750499D01*
X106902495Y-96734515D01*
X106993624Y-96673624D01*
X107054515Y-96582495D01*
X107054516Y-96582492D01*
X107056981Y-96576543D01*
X107100823Y-96522141D01*
X107167118Y-96500079D01*
X107171540Y-96500000D01*
X107176000Y-96500000D01*
X107243039Y-96519685D01*
X107288794Y-96572489D01*
X107300000Y-96624000D01*
X107300000Y-97542649D01*
X107280315Y-97609688D01*
X107227511Y-97655443D01*
X107158353Y-97665387D01*
X107094797Y-97636362D01*
X107057023Y-97577584D01*
X107054591Y-97567689D01*
X107054515Y-97567507D01*
X107054515Y-97567505D01*
X107034309Y-97537266D01*
X106993624Y-97476375D01*
X106938995Y-97439874D01*
X106902495Y-97415485D01*
X106902493Y-97415484D01*
X106902490Y-97415483D01*
X106822135Y-97399500D01*
X105667870Y-97399500D01*
X105587504Y-97415485D01*
X105496375Y-97476375D01*
X105435485Y-97567505D01*
X105435483Y-97567509D01*
X105419500Y-97647863D01*
X105419500Y-97852129D01*
X105437868Y-97944473D01*
X105435611Y-97944921D01*
X105441319Y-97998018D01*
X105410043Y-98060497D01*
X105349954Y-98096149D01*
X105319289Y-98100000D01*
X105100000Y-98100000D01*
X105100000Y-98381576D01*
X105080315Y-98448615D01*
X105032295Y-98492060D01*
X104991413Y-98512891D01*
X104991412Y-98512892D01*
X104991407Y-98512895D01*
X104912909Y-98591393D01*
X104912904Y-98591400D01*
X104862498Y-98690327D01*
X104845131Y-98799983D01*
X104845131Y-98799984D01*
X104846934Y-98811370D01*
X104837977Y-98880664D01*
X104792980Y-98934115D01*
X104756555Y-98950540D01*
X104684012Y-98969978D01*
X104684010Y-98969978D01*
X104684010Y-98969979D01*
X104615489Y-99009540D01*
X104615486Y-99009542D01*
X104359541Y-99265487D01*
X104359535Y-99265495D01*
X104319982Y-99334004D01*
X104319979Y-99334009D01*
X104306326Y-99384962D01*
X104299500Y-99410438D01*
X104299500Y-100039562D01*
X104313152Y-100090513D01*
X104319979Y-100115990D01*
X104319982Y-100115995D01*
X104359535Y-100184504D01*
X104359539Y-100184509D01*
X104359540Y-100184511D01*
X104609540Y-100434511D01*
X104665489Y-100490460D01*
X104665491Y-100490461D01*
X104665495Y-100490464D01*
X104734004Y-100530017D01*
X104734011Y-100530021D01*
X104810438Y-100550500D01*
X104889562Y-100550500D01*
X104976000Y-100550500D01*
X105043039Y-100570185D01*
X105088794Y-100622989D01*
X105100000Y-100674500D01*
X105100000Y-101400000D01*
X105347493Y-101400000D01*
X105414532Y-101419685D01*
X105450595Y-101455109D01*
X105496375Y-101523624D01*
X105532876Y-101548013D01*
X105587505Y-101584515D01*
X105587508Y-101584515D01*
X105587509Y-101584516D01*
X105614533Y-101589891D01*
X105667867Y-101600500D01*
X106822132Y-101600499D01*
X106902495Y-101584515D01*
X106993624Y-101523624D01*
X107039405Y-101455109D01*
X107093017Y-101410304D01*
X107142507Y-101400000D01*
X107270500Y-101400000D01*
X107337539Y-101419685D01*
X107383294Y-101472489D01*
X107394500Y-101524000D01*
X107394500Y-102054138D01*
X107374815Y-102121177D01*
X107358181Y-102141819D01*
X107236319Y-102263681D01*
X107174996Y-102297166D01*
X107148638Y-102300000D01*
X106991765Y-102300000D01*
X106924726Y-102280315D01*
X106922875Y-102279102D01*
X106902497Y-102265486D01*
X106902490Y-102265483D01*
X106822135Y-102249500D01*
X105667870Y-102249500D01*
X105607867Y-102261434D01*
X105587505Y-102265485D01*
X105587504Y-102265485D01*
X105587501Y-102265486D01*
X105577497Y-102269630D01*
X105508027Y-102277097D01*
X105445549Y-102245821D01*
X105422660Y-102217068D01*
X105421663Y-102215341D01*
X105362090Y-102112158D01*
X105277842Y-102027910D01*
X105226250Y-101998123D01*
X105174660Y-101968337D01*
X105117116Y-101952918D01*
X105059573Y-101937500D01*
X104940427Y-101937500D01*
X104825339Y-101968337D01*
X104722158Y-102027910D01*
X104722155Y-102027912D01*
X104637912Y-102112155D01*
X104637910Y-102112158D01*
X104578336Y-102215341D01*
X104575229Y-102222845D01*
X104572094Y-102221546D01*
X104543853Y-102267809D01*
X104480986Y-102298297D01*
X104460504Y-102300000D01*
X103499999Y-102300000D01*
X102900000Y-102899999D01*
X102900000Y-105275500D01*
X102880315Y-105342539D01*
X102827511Y-105388294D01*
X102786153Y-105397291D01*
X102786312Y-105398903D01*
X102780247Y-105399500D01*
X102721770Y-105411131D01*
X102721769Y-105411132D01*
X102655447Y-105455447D01*
X102611132Y-105521769D01*
X102611131Y-105521770D01*
X102599500Y-105580247D01*
X102599500Y-106476000D01*
X102579815Y-106543039D01*
X102527011Y-106588794D01*
X102475500Y-106600000D01*
X100322393Y-106600000D01*
X100255354Y-106580315D01*
X100209599Y-106527511D01*
X100198401Y-106474580D01*
X100212158Y-105272967D01*
X100223851Y-104251788D01*
X100244302Y-104184980D01*
X100297626Y-104139832D01*
X100366894Y-104130681D01*
X100430113Y-104160432D01*
X100450945Y-104184318D01*
X100505885Y-104266541D01*
X100505888Y-104266545D01*
X100603454Y-104364111D01*
X100603458Y-104364114D01*
X100718182Y-104440771D01*
X100718195Y-104440778D01*
X100845667Y-104493578D01*
X100845672Y-104493580D01*
X100845676Y-104493580D01*
X100845677Y-104493581D01*
X100981004Y-104520500D01*
X100981007Y-104520500D01*
X101718995Y-104520500D01*
X101810041Y-104502389D01*
X101854328Y-104493580D01*
X101981811Y-104440775D01*
X102096542Y-104364114D01*
X102194114Y-104266542D01*
X102270775Y-104151811D01*
X102323580Y-104024328D01*
X102350500Y-103888993D01*
X102350500Y-103751007D01*
X102350500Y-103751004D01*
X102323581Y-103615677D01*
X102323580Y-103615676D01*
X102323580Y-103615672D01*
X102323578Y-103615667D01*
X102270778Y-103488195D01*
X102270771Y-103488182D01*
X102194114Y-103373458D01*
X102194111Y-103373454D01*
X102096545Y-103275888D01*
X102096541Y-103275885D01*
X101981817Y-103199228D01*
X101981804Y-103199221D01*
X101854332Y-103146421D01*
X101854322Y-103146418D01*
X101718995Y-103119500D01*
X101718993Y-103119500D01*
X100981007Y-103119500D01*
X100981005Y-103119500D01*
X100845677Y-103146418D01*
X100845667Y-103146421D01*
X100718195Y-103199221D01*
X100718182Y-103199228D01*
X100603458Y-103275885D01*
X100603454Y-103275888D01*
X100505888Y-103373454D01*
X100505883Y-103373460D01*
X100461037Y-103440576D01*
X100407424Y-103485381D01*
X100338099Y-103494087D01*
X100275072Y-103463931D01*
X100238354Y-103404488D01*
X100233944Y-103370268D01*
X100311204Y-96622578D01*
X100331655Y-96555771D01*
X100384979Y-96510623D01*
X100435196Y-96500000D01*
X104423500Y-96500000D01*
X104490539Y-96519685D01*
G37*
G04 #@! TD.AperFunction*
G04 #@! TA.AperFunction,Conductor*
G36*
X104858505Y-106619685D02*
G01*
X104903848Y-106671594D01*
X104905500Y-106675136D01*
X104935935Y-106740404D01*
X105019596Y-106824065D01*
X105126827Y-106874068D01*
X105175683Y-106880500D01*
X105175684Y-106880500D01*
X105624317Y-106880500D01*
X105634087Y-106879213D01*
X105673173Y-106874068D01*
X105755514Y-106835671D01*
X105824588Y-106825180D01*
X105888372Y-106853699D01*
X105917348Y-106889739D01*
X105955899Y-106962083D01*
X105955901Y-106962086D01*
X106001660Y-107014895D01*
X106019242Y-107032839D01*
X106019246Y-107032843D01*
X106019247Y-107032844D01*
X106019249Y-107032845D01*
X106046700Y-107048200D01*
X106099063Y-107077490D01*
X106110935Y-107080976D01*
X106169713Y-107118751D01*
X106198738Y-107182306D01*
X106200000Y-107199953D01*
X106200000Y-108576000D01*
X106180315Y-108643039D01*
X106127511Y-108688794D01*
X106076000Y-108700000D01*
X103824000Y-108700000D01*
X103756961Y-108680315D01*
X103711206Y-108627511D01*
X103700000Y-108576000D01*
X103700000Y-107524500D01*
X103719685Y-107457461D01*
X103772489Y-107411706D01*
X103813846Y-107402708D01*
X103813688Y-107401097D01*
X103819742Y-107400500D01*
X103819748Y-107400500D01*
X103834568Y-107397552D01*
X103878229Y-107388868D01*
X103878229Y-107388867D01*
X103878231Y-107388867D01*
X103944552Y-107344552D01*
X103988867Y-107278231D01*
X103988867Y-107278229D01*
X103988868Y-107278229D01*
X104000499Y-107219752D01*
X104000500Y-107219750D01*
X104000500Y-106924499D01*
X104020185Y-106857460D01*
X104072989Y-106811705D01*
X104124496Y-106800499D01*
X104325184Y-106800499D01*
X104349786Y-106797646D01*
X104450422Y-106753211D01*
X104528211Y-106675422D01*
X104528877Y-106673912D01*
X104530821Y-106671611D01*
X104534704Y-106665943D01*
X104535277Y-106666335D01*
X104573963Y-106620537D01*
X104640749Y-106600010D01*
X104642311Y-106600000D01*
X104791466Y-106600000D01*
X104858505Y-106619685D01*
G37*
G04 #@! TD.AperFunction*
G04 #@! TA.AperFunction,Conductor*
G36*
X108109158Y-100809940D02*
G01*
X108109885Y-100810241D01*
X108167159Y-100821633D01*
X108186599Y-100825500D01*
X108913400Y-100825499D01*
X108976310Y-100812986D01*
X109045901Y-100819213D01*
X109101078Y-100862076D01*
X109124322Y-100927966D01*
X109124500Y-100934603D01*
X109124500Y-101694754D01*
X109124967Y-101697101D01*
X109124854Y-101698353D01*
X109125097Y-101700813D01*
X109124630Y-101700858D01*
X109118737Y-101766692D01*
X109091030Y-101808968D01*
X108400000Y-102499999D01*
X108400000Y-104776000D01*
X108380315Y-104843039D01*
X108327511Y-104888794D01*
X108276000Y-104900000D01*
X107751362Y-104900000D01*
X107684323Y-104880315D01*
X107663681Y-104863681D01*
X107636319Y-104836319D01*
X107602834Y-104774996D01*
X107600000Y-104748638D01*
X107600000Y-100924500D01*
X107619685Y-100857461D01*
X107672489Y-100811706D01*
X107724000Y-100800500D01*
X108061703Y-100800500D01*
X108109158Y-100809940D01*
G37*
G04 #@! TD.AperFunction*
G04 #@! TA.AperFunction,Conductor*
G36*
X106813835Y-102457374D02*
G01*
X106815966Y-102457798D01*
X106843821Y-102466858D01*
X106854062Y-102471591D01*
X106866823Y-102477488D01*
X106866824Y-102477488D01*
X106866828Y-102477490D01*
X106933867Y-102497175D01*
X106991765Y-102505500D01*
X106991769Y-102505500D01*
X107148639Y-102505500D01*
X107151180Y-102505363D01*
X107170607Y-102504322D01*
X107170614Y-102504321D01*
X107170618Y-102504321D01*
X107196965Y-102501488D01*
X107233446Y-102490064D01*
X107303304Y-102488817D01*
X107362748Y-102525535D01*
X107392903Y-102588562D01*
X107394500Y-102608399D01*
X107394500Y-104748638D01*
X107395678Y-104770618D01*
X107398511Y-104796965D01*
X107398512Y-104796967D01*
X107412161Y-104840556D01*
X107413409Y-104910415D01*
X107376690Y-104969858D01*
X107346233Y-104989991D01*
X107331686Y-104996774D01*
X107275278Y-105053182D01*
X107213954Y-105086666D01*
X107187597Y-105089500D01*
X107145331Y-105089500D01*
X107078292Y-105069815D01*
X107057650Y-105053181D01*
X106980404Y-104975935D01*
X106942084Y-104958066D01*
X106873173Y-104925932D01*
X106873171Y-104925931D01*
X106873172Y-104925931D01*
X106824317Y-104919500D01*
X106824316Y-104919500D01*
X106375684Y-104919500D01*
X106375683Y-104919500D01*
X106326828Y-104925931D01*
X106219595Y-104975935D01*
X106142350Y-105053181D01*
X106081027Y-105086666D01*
X106054669Y-105089500D01*
X105945331Y-105089500D01*
X105878292Y-105069815D01*
X105857650Y-105053181D01*
X105780404Y-104975935D01*
X105742084Y-104958066D01*
X105673173Y-104925932D01*
X105673171Y-104925931D01*
X105673172Y-104925931D01*
X105624317Y-104919500D01*
X105624316Y-104919500D01*
X105175684Y-104919500D01*
X105175683Y-104919500D01*
X105126828Y-104925931D01*
X105019595Y-104975935D01*
X104935935Y-105059595D01*
X104885931Y-105166828D01*
X104879500Y-105215683D01*
X104879500Y-105325500D01*
X104859815Y-105392539D01*
X104807011Y-105438294D01*
X104755500Y-105449500D01*
X104554495Y-105449500D01*
X104487456Y-105429815D01*
X104466814Y-105413181D01*
X104450422Y-105396789D01*
X104349787Y-105352354D01*
X104325185Y-105349500D01*
X104049823Y-105349500D01*
X104049814Y-105349501D01*
X104025213Y-105352354D01*
X104025209Y-105352355D01*
X103924578Y-105396788D01*
X103846789Y-105474577D01*
X103802354Y-105575212D01*
X103799500Y-105599811D01*
X103799500Y-105900176D01*
X103799501Y-105900185D01*
X103802354Y-105924786D01*
X103802355Y-105924790D01*
X103846788Y-106025421D01*
X103846789Y-106025422D01*
X103924578Y-106103211D01*
X104025214Y-106147646D01*
X104049815Y-106150500D01*
X104325184Y-106150499D01*
X104349786Y-106147646D01*
X104450422Y-106103211D01*
X104466814Y-106086819D01*
X104528137Y-106053334D01*
X104554495Y-106050500D01*
X105079560Y-106050500D01*
X105079562Y-106050500D01*
X105155989Y-106030021D01*
X105224511Y-105990460D01*
X105280460Y-105934511D01*
X105318152Y-105896819D01*
X105379475Y-105863334D01*
X105405833Y-105860500D01*
X105624317Y-105860500D01*
X105654555Y-105856519D01*
X105673173Y-105854068D01*
X105772062Y-105807954D01*
X105841138Y-105797463D01*
X105904922Y-105825983D01*
X105943162Y-105884459D01*
X105943717Y-105954326D01*
X105932686Y-105980871D01*
X105922512Y-105999059D01*
X105922509Y-105999064D01*
X105902826Y-106066096D01*
X105902825Y-106066101D01*
X105902825Y-106066102D01*
X105895004Y-106120500D01*
X105894500Y-106124003D01*
X105894500Y-106500115D01*
X105874815Y-106567154D01*
X105822011Y-106612909D01*
X105789122Y-106622709D01*
X105734278Y-106631039D01*
X105724656Y-106632501D01*
X105724654Y-106632501D01*
X105724645Y-106632503D01*
X105668670Y-106649423D01*
X105668661Y-106649426D01*
X105638734Y-106663382D01*
X105586329Y-106675000D01*
X105213670Y-106675000D01*
X105161242Y-106663371D01*
X105160185Y-106662878D01*
X105159072Y-106662359D01*
X105123820Y-106637669D01*
X105122329Y-106636178D01*
X105097626Y-106600898D01*
X105091844Y-106588497D01*
X105091829Y-106588465D01*
X105091737Y-106588268D01*
X105091745Y-106588263D01*
X105091722Y-106588237D01*
X105090090Y-106584738D01*
X105090087Y-106584731D01*
X105058617Y-106536402D01*
X105013274Y-106484493D01*
X105013265Y-106484484D01*
X105013262Y-106484480D01*
X104996220Y-106467157D01*
X104996217Y-106467155D01*
X104935065Y-106432949D01*
X104916403Y-106422510D01*
X104916402Y-106422509D01*
X104916401Y-106422509D01*
X104849369Y-106402826D01*
X104849365Y-106402825D01*
X104849364Y-106402825D01*
X104791466Y-106394500D01*
X104642311Y-106394500D01*
X104642142Y-106394500D01*
X104641021Y-106394503D01*
X104639440Y-106394513D01*
X104639438Y-106394513D01*
X104580373Y-106403579D01*
X104580368Y-106403581D01*
X104513597Y-106424103D01*
X104490059Y-106432946D01*
X104490052Y-106432949D01*
X104416978Y-106487925D01*
X104416967Y-106487936D01*
X104376225Y-106536168D01*
X104369182Y-106543829D01*
X104354335Y-106558677D01*
X104293013Y-106592164D01*
X104266651Y-106594999D01*
X104124496Y-106594999D01*
X104080809Y-106599696D01*
X104080803Y-106599697D01*
X104080796Y-106599698D01*
X104029315Y-106610899D01*
X104029308Y-106610900D01*
X104029302Y-106610902D01*
X104019127Y-106613389D01*
X104019126Y-106613389D01*
X104019123Y-106613390D01*
X103938416Y-106656398D01*
X103938413Y-106656400D01*
X103885604Y-106702159D01*
X103867660Y-106719741D01*
X103867654Y-106719748D01*
X103823011Y-106799558D01*
X103823009Y-106799563D01*
X103803326Y-106866595D01*
X103803325Y-106866600D01*
X103803325Y-106866601D01*
X103795564Y-106920581D01*
X103795000Y-106924502D01*
X103795000Y-107098843D01*
X103775315Y-107165882D01*
X103725229Y-107209281D01*
X103725475Y-107209741D01*
X103723459Y-107210814D01*
X103722511Y-107211637D01*
X103719736Y-107212799D01*
X103637916Y-107256399D01*
X103637913Y-107256401D01*
X103585104Y-107302160D01*
X103567160Y-107319742D01*
X103567154Y-107319749D01*
X103522511Y-107399559D01*
X103522509Y-107399564D01*
X103502826Y-107466596D01*
X103502825Y-107466601D01*
X103502825Y-107466602D01*
X103496396Y-107511318D01*
X103494500Y-107524503D01*
X103494500Y-108576007D01*
X103499197Y-108619686D01*
X103499733Y-108622150D01*
X103499691Y-108622735D01*
X103499729Y-108622970D01*
X103499673Y-108622978D01*
X103494744Y-108691841D01*
X103452869Y-108747772D01*
X103387403Y-108772185D01*
X103378565Y-108772500D01*
X101304875Y-108772500D01*
X101295146Y-108772118D01*
X101126308Y-108758830D01*
X101107090Y-108755786D01*
X100947167Y-108717392D01*
X100928661Y-108711379D01*
X100776710Y-108648438D01*
X100759376Y-108639606D01*
X100619133Y-108553665D01*
X100603403Y-108542236D01*
X100599458Y-108538867D01*
X100478338Y-108435421D01*
X100464578Y-108421661D01*
X100452010Y-108406946D01*
X100357760Y-108296592D01*
X100346336Y-108280869D01*
X100260390Y-108140618D01*
X100251561Y-108123289D01*
X100238694Y-108092227D01*
X100188617Y-107971331D01*
X100182609Y-107952839D01*
X100144212Y-107792904D01*
X100141169Y-107773690D01*
X100140428Y-107764280D01*
X100132011Y-107657329D01*
X100127882Y-107604852D01*
X100127500Y-107595124D01*
X100127500Y-106920581D01*
X100147185Y-106853542D01*
X100199989Y-106807787D01*
X100269143Y-106797843D01*
X100322393Y-106805500D01*
X100322394Y-106805500D01*
X102475491Y-106805500D01*
X102475500Y-106805500D01*
X102515409Y-106801208D01*
X102528661Y-106800499D01*
X102550176Y-106800499D01*
X102550184Y-106800499D01*
X102574786Y-106797646D01*
X102675422Y-106753211D01*
X102753211Y-106675422D01*
X102797646Y-106574786D01*
X102800500Y-106550185D01*
X102800499Y-106516166D01*
X102801762Y-106498512D01*
X102802938Y-106490340D01*
X102805000Y-106476000D01*
X102805000Y-105701156D01*
X102824685Y-105634117D01*
X102874771Y-105590716D01*
X102874527Y-105590258D01*
X102876537Y-105589186D01*
X102877489Y-105588362D01*
X102880271Y-105587196D01*
X102881368Y-105586611D01*
X102881373Y-105586610D01*
X102962085Y-105543600D01*
X103014889Y-105497845D01*
X103032843Y-105480254D01*
X103077490Y-105400437D01*
X103097175Y-105333398D01*
X103105500Y-105275500D01*
X103105500Y-103036481D01*
X103125185Y-102969442D01*
X103141819Y-102948800D01*
X103548800Y-102541819D01*
X103610123Y-102508334D01*
X103636481Y-102505500D01*
X104460504Y-102505500D01*
X104467219Y-102505221D01*
X104535018Y-102522105D01*
X104579753Y-102567112D01*
X104637910Y-102667842D01*
X104722158Y-102752090D01*
X104825341Y-102811663D01*
X104940427Y-102842500D01*
X104940429Y-102842500D01*
X105059571Y-102842500D01*
X105059573Y-102842500D01*
X105174659Y-102811663D01*
X105277842Y-102752090D01*
X105362090Y-102667842D01*
X105421663Y-102564659D01*
X105421664Y-102564654D01*
X105424540Y-102557711D01*
X105468376Y-102503304D01*
X105525853Y-102481864D01*
X105529986Y-102481419D01*
X105529989Y-102481420D01*
X105599459Y-102473953D01*
X105619687Y-102468789D01*
X105626141Y-102467325D01*
X105627594Y-102467035D01*
X105627603Y-102467035D01*
X105647965Y-102462984D01*
X105647964Y-102462983D01*
X105652961Y-102461989D01*
X105676141Y-102457379D01*
X105700315Y-102455000D01*
X106789683Y-102455000D01*
X106813835Y-102457374D01*
G37*
G04 #@! TD.AperFunction*
G04 #@! TA.AperFunction,Conductor*
G36*
X111717483Y-106275648D02*
G01*
X111773417Y-106317519D01*
X111793924Y-106359734D01*
X111804978Y-106400988D01*
X111806474Y-106403579D01*
X111843179Y-106467155D01*
X111843181Y-106467159D01*
X111843182Y-106467159D01*
X111844540Y-106469511D01*
X111844541Y-106469513D01*
X112030768Y-106655739D01*
X112061016Y-106705096D01*
X112062498Y-106709656D01*
X112062499Y-106709659D01*
X112062500Y-106709661D01*
X112108784Y-106800499D01*
X112112904Y-106808585D01*
X112117983Y-106815575D01*
X112141462Y-106881382D01*
X112125636Y-106949436D01*
X112120767Y-106957349D01*
X112111133Y-106971767D01*
X112111131Y-106971770D01*
X112099500Y-107030247D01*
X112099500Y-107030252D01*
X112099500Y-107619748D01*
X112102677Y-107635718D01*
X112110651Y-107675810D01*
X112110651Y-107724190D01*
X112099500Y-107780252D01*
X112099500Y-108369752D01*
X112111131Y-108428229D01*
X112111132Y-108428230D01*
X112155447Y-108494552D01*
X112231543Y-108545398D01*
X112276348Y-108599011D01*
X112285055Y-108668336D01*
X112254900Y-108731363D01*
X112195457Y-108768082D01*
X112162652Y-108772500D01*
X109761881Y-108772500D01*
X109694842Y-108752815D01*
X109649087Y-108700011D01*
X109639143Y-108630853D01*
X109650991Y-108593008D01*
X109651552Y-108591885D01*
X109652500Y-108589992D01*
X109662357Y-108566861D01*
X109673055Y-108476033D01*
X109668287Y-108431709D01*
X109669743Y-108423636D01*
X109666423Y-108406946D01*
X109666420Y-108406924D01*
X109665763Y-108403620D01*
X109664087Y-108392668D01*
X109663684Y-108388925D01*
X109660284Y-108376077D01*
X109657382Y-108361485D01*
X109655000Y-108337298D01*
X109655000Y-107812707D01*
X109657382Y-107788519D01*
X109659428Y-107778231D01*
X109662203Y-107764280D01*
X109666151Y-107724190D01*
X109666151Y-107675810D01*
X109662203Y-107635721D01*
X109657382Y-107611481D01*
X109655000Y-107587294D01*
X109655000Y-107096542D01*
X109654628Y-107089602D01*
X109653822Y-107074567D01*
X109650986Y-107048200D01*
X109627020Y-106971678D01*
X109618598Y-106956258D01*
X109618578Y-106956166D01*
X109593831Y-106910908D01*
X109592159Y-106907741D01*
X109569289Y-106862856D01*
X109557303Y-106825965D01*
X109556261Y-106819382D01*
X109556261Y-106780608D01*
X109557303Y-106774032D01*
X109569289Y-106737138D01*
X109572316Y-106731198D01*
X109595115Y-106699819D01*
X109599817Y-106695117D01*
X109631199Y-106672316D01*
X109637139Y-106669290D01*
X109674029Y-106657304D01*
X109680610Y-106656262D01*
X109719388Y-106656262D01*
X109725965Y-106657303D01*
X109762856Y-106669289D01*
X109768799Y-106672317D01*
X109800183Y-106695120D01*
X109820359Y-106715297D01*
X109820360Y-106715298D01*
X109820369Y-106715306D01*
X109836065Y-106729465D01*
X109855834Y-106745533D01*
X109925898Y-106782747D01*
X109925903Y-106782748D01*
X109925904Y-106782749D01*
X109986874Y-106801209D01*
X109992770Y-106802994D01*
X110050596Y-106811804D01*
X110932161Y-106819201D01*
X110932182Y-106819200D01*
X110932189Y-106819200D01*
X110954983Y-106818121D01*
X110954985Y-106818121D01*
X110954991Y-106818120D01*
X110954999Y-106818120D01*
X110982397Y-106815290D01*
X111059769Y-106791241D01*
X111121092Y-106757756D01*
X111167917Y-106722703D01*
X111586472Y-106304146D01*
X111647791Y-106270664D01*
X111717483Y-106275648D01*
G37*
G04 #@! TD.AperFunction*
G04 #@! TA.AperFunction,Conductor*
G36*
X126510703Y-99006831D02*
G01*
X126517181Y-99012863D01*
X127214788Y-99710470D01*
X127279598Y-99747888D01*
X127294712Y-99756614D01*
X127294713Y-99756614D01*
X127301584Y-99760581D01*
X127327266Y-99780288D01*
X127553181Y-100006203D01*
X127586666Y-100067526D01*
X127589500Y-100093884D01*
X127589500Y-100305528D01*
X127593777Y-100334881D01*
X127599355Y-100373171D01*
X127650365Y-100477513D01*
X127732486Y-100559634D01*
X127732487Y-100559634D01*
X127732489Y-100559636D01*
X127836830Y-100610645D01*
X127904472Y-100620500D01*
X127904478Y-100620500D01*
X128265522Y-100620500D01*
X128265528Y-100620500D01*
X128333170Y-100610645D01*
X128437511Y-100559636D01*
X128471818Y-100525329D01*
X128510329Y-100486819D01*
X128571652Y-100453334D01*
X128598010Y-100450500D01*
X128601990Y-100450500D01*
X128669029Y-100470185D01*
X128689669Y-100486816D01*
X128708811Y-100505958D01*
X128742297Y-100567279D01*
X128745131Y-100593640D01*
X128745131Y-100600000D01*
X128747974Y-100617948D01*
X128749501Y-100637348D01*
X128749501Y-100646142D01*
X128749502Y-100646151D01*
X128755007Y-100666699D01*
X128757704Y-100679384D01*
X128762500Y-100709662D01*
X128765062Y-100714689D01*
X128770115Y-100727852D01*
X128770278Y-100727785D01*
X128773384Y-100735285D01*
X128773386Y-100735288D01*
X128790255Y-100764508D01*
X128793336Y-100770183D01*
X128804903Y-100792883D01*
X128812906Y-100808589D01*
X128817393Y-100814765D01*
X128840871Y-100880572D01*
X128825044Y-100948625D01*
X128774937Y-100997319D01*
X128752767Y-101004702D01*
X128753167Y-101005933D01*
X128743891Y-101008946D01*
X128738857Y-101011511D01*
X128725704Y-101016561D01*
X128725771Y-101016723D01*
X128718261Y-101019833D01*
X128689060Y-101036692D01*
X128683362Y-101039786D01*
X128644967Y-101059350D01*
X128638344Y-101065974D01*
X128496137Y-101208181D01*
X128434814Y-101241666D01*
X128408456Y-101244500D01*
X128096543Y-101244500D01*
X128029504Y-101224815D01*
X128008866Y-101208185D01*
X127956483Y-101155802D01*
X127851393Y-101104427D01*
X127851391Y-101104426D01*
X127783261Y-101094500D01*
X127783260Y-101094500D01*
X126066740Y-101094500D01*
X126066739Y-101094500D01*
X125998608Y-101104426D01*
X125893514Y-101155803D01*
X125810803Y-101238514D01*
X125759426Y-101343608D01*
X125749500Y-101411739D01*
X125749500Y-101778260D01*
X125759426Y-101846391D01*
X125810803Y-101951485D01*
X125893514Y-102034196D01*
X125893515Y-102034196D01*
X125893517Y-102034198D01*
X125998607Y-102085573D01*
X126027825Y-102089830D01*
X126066739Y-102095500D01*
X126899456Y-102095500D01*
X126966495Y-102115185D01*
X127012250Y-102167989D01*
X127022194Y-102237147D01*
X126993169Y-102300703D01*
X126987137Y-102307181D01*
X126966137Y-102328181D01*
X126904814Y-102361666D01*
X126878456Y-102364500D01*
X126066739Y-102364500D01*
X125998608Y-102374426D01*
X125893514Y-102425803D01*
X125810803Y-102508514D01*
X125759426Y-102613608D01*
X125749500Y-102681739D01*
X125749500Y-103048260D01*
X125759426Y-103116391D01*
X125810803Y-103221485D01*
X125893514Y-103304196D01*
X125893515Y-103304196D01*
X125893517Y-103304198D01*
X125998607Y-103355573D01*
X126026644Y-103359658D01*
X126066739Y-103365500D01*
X126066740Y-103365500D01*
X127783261Y-103365500D01*
X127823335Y-103359661D01*
X127851393Y-103355573D01*
X127956483Y-103304198D01*
X128039198Y-103221483D01*
X128090573Y-103116393D01*
X128100500Y-103048260D01*
X128100500Y-102974503D01*
X128120185Y-102907464D01*
X128172989Y-102861709D01*
X128224500Y-102850503D01*
X128714230Y-102850503D01*
X128781269Y-102870188D01*
X128827024Y-102922992D01*
X128836968Y-102992150D01*
X128807943Y-103055706D01*
X128801911Y-103062184D01*
X128150069Y-103714025D01*
X128088746Y-103747510D01*
X128019054Y-103742526D01*
X127974707Y-103714025D01*
X127956485Y-103695803D01*
X127851391Y-103644426D01*
X127783261Y-103634500D01*
X127783260Y-103634500D01*
X126066740Y-103634500D01*
X126066739Y-103634500D01*
X125998608Y-103644426D01*
X125893514Y-103695803D01*
X125810803Y-103778514D01*
X125759426Y-103883608D01*
X125749500Y-103951739D01*
X125749500Y-104318260D01*
X125759426Y-104386391D01*
X125786725Y-104442232D01*
X125798484Y-104511105D01*
X125771140Y-104575402D01*
X125725102Y-104608541D01*
X125725475Y-104609241D01*
X125720297Y-104611999D01*
X125719553Y-104612536D01*
X125718631Y-104612887D01*
X125637916Y-104655899D01*
X125637913Y-104655901D01*
X125585104Y-104701660D01*
X125567160Y-104719242D01*
X125567154Y-104719249D01*
X125522511Y-104799059D01*
X125522509Y-104799064D01*
X125502826Y-104866096D01*
X125502825Y-104866101D01*
X125502825Y-104866102D01*
X125494502Y-104923992D01*
X125494500Y-104924003D01*
X125494500Y-106776007D01*
X125499197Y-106819686D01*
X125510397Y-106871174D01*
X125512890Y-106881372D01*
X125512891Y-106881375D01*
X125555899Y-106962083D01*
X125555901Y-106962086D01*
X125601660Y-107014895D01*
X125616702Y-107030247D01*
X125619246Y-107032843D01*
X125619247Y-107032844D01*
X125619249Y-107032845D01*
X125693837Y-107074567D01*
X125699063Y-107077490D01*
X125766102Y-107097175D01*
X125824000Y-107105500D01*
X125824007Y-107105500D01*
X125828363Y-107105812D01*
X125893827Y-107130227D01*
X125935700Y-107186160D01*
X125940686Y-107255852D01*
X125928878Y-107287948D01*
X125906465Y-107329880D01*
X125906465Y-107329881D01*
X125906463Y-107329885D01*
X125885614Y-107398616D01*
X125851426Y-107511318D01*
X125834987Y-107678231D01*
X125832843Y-107700000D01*
X125835226Y-107724190D01*
X125836903Y-107741220D01*
X125837500Y-107753374D01*
X125837500Y-108648500D01*
X125817815Y-108715539D01*
X125765011Y-108761294D01*
X125713500Y-108772500D01*
X125386500Y-108772500D01*
X125319461Y-108752815D01*
X125273706Y-108700011D01*
X125262500Y-108648500D01*
X125262500Y-107753374D01*
X125263097Y-107741220D01*
X125264774Y-107724190D01*
X125267157Y-107700000D01*
X125248573Y-107511317D01*
X125193537Y-107329885D01*
X125188118Y-107319746D01*
X125104165Y-107162681D01*
X125104161Y-107162674D01*
X124983883Y-107016116D01*
X124837325Y-106895838D01*
X124837318Y-106895834D01*
X124670122Y-106806466D01*
X124670119Y-106806465D01*
X124670118Y-106806464D01*
X124670115Y-106806463D01*
X124488683Y-106751427D01*
X124488681Y-106751426D01*
X124488683Y-106751426D01*
X124300000Y-106732843D01*
X124111318Y-106751426D01*
X124008071Y-106782746D01*
X123929885Y-106806463D01*
X123929882Y-106806464D01*
X123929880Y-106806465D01*
X123929877Y-106806466D01*
X123762681Y-106895834D01*
X123762674Y-106895838D01*
X123616116Y-107016116D01*
X123495838Y-107162674D01*
X123495834Y-107162681D01*
X123406466Y-107329877D01*
X123406465Y-107329880D01*
X123406465Y-107329881D01*
X123406463Y-107329885D01*
X123385614Y-107398616D01*
X123351426Y-107511318D01*
X123334987Y-107678231D01*
X123332843Y-107700000D01*
X123335226Y-107724190D01*
X123336903Y-107741220D01*
X123337500Y-107753374D01*
X123337500Y-108648500D01*
X123317815Y-108715539D01*
X123265011Y-108761294D01*
X123213500Y-108772500D01*
X122886500Y-108772500D01*
X122819461Y-108752815D01*
X122773706Y-108700011D01*
X122762500Y-108648500D01*
X122762500Y-107753374D01*
X122763097Y-107741220D01*
X122764774Y-107724190D01*
X122767157Y-107700000D01*
X122748573Y-107511317D01*
X122693537Y-107329885D01*
X122688118Y-107319746D01*
X122604165Y-107162681D01*
X122604161Y-107162674D01*
X122483883Y-107016116D01*
X122337325Y-106895838D01*
X122337318Y-106895834D01*
X122170122Y-106806466D01*
X122170119Y-106806465D01*
X122170118Y-106806464D01*
X122170115Y-106806463D01*
X121988683Y-106751427D01*
X121988681Y-106751426D01*
X121988683Y-106751426D01*
X121800000Y-106732843D01*
X121611318Y-106751426D01*
X121508071Y-106782746D01*
X121429885Y-106806463D01*
X121429882Y-106806464D01*
X121429880Y-106806465D01*
X121429877Y-106806466D01*
X121262681Y-106895834D01*
X121262674Y-106895838D01*
X121116116Y-107016116D01*
X120995838Y-107162674D01*
X120995834Y-107162681D01*
X120906466Y-107329877D01*
X120906465Y-107329880D01*
X120906465Y-107329881D01*
X120906463Y-107329885D01*
X120885614Y-107398616D01*
X120851426Y-107511318D01*
X120834987Y-107678231D01*
X120832843Y-107700000D01*
X120835226Y-107724190D01*
X120836903Y-107741220D01*
X120837500Y-107753374D01*
X120837500Y-108648500D01*
X120817815Y-108715539D01*
X120765011Y-108761294D01*
X120713500Y-108772500D01*
X114957639Y-108772500D01*
X114890600Y-108752815D01*
X114844845Y-108700011D01*
X114834901Y-108630853D01*
X114854537Y-108579609D01*
X114881760Y-108538867D01*
X114888867Y-108528231D01*
X114888867Y-108528229D01*
X114888868Y-108528229D01*
X114900499Y-108469752D01*
X114900500Y-108469750D01*
X114900500Y-107880249D01*
X114889349Y-107824192D01*
X114889349Y-107775808D01*
X114900500Y-107719750D01*
X114900500Y-107130249D01*
X114900499Y-107130247D01*
X114888868Y-107071770D01*
X114888867Y-107071769D01*
X114844552Y-107005448D01*
X114834976Y-106999049D01*
X114790172Y-106945436D01*
X114782677Y-106909436D01*
X114781396Y-106909639D01*
X114762500Y-106790338D01*
X114739015Y-106744245D01*
X114725500Y-106687951D01*
X114725500Y-106004816D01*
X114737118Y-105952411D01*
X114739040Y-105948290D01*
X114774068Y-105873173D01*
X114774068Y-105873171D01*
X114778077Y-105864575D01*
X114781040Y-105865956D01*
X114809731Y-105821089D01*
X114873221Y-105791920D01*
X114942402Y-105801706D01*
X114995310Y-105847340D01*
X115002547Y-105860156D01*
X115040364Y-105937512D01*
X115122486Y-106019634D01*
X115122487Y-106019634D01*
X115122489Y-106019636D01*
X115226830Y-106070645D01*
X115294472Y-106080500D01*
X115294478Y-106080500D01*
X115705522Y-106080500D01*
X115705528Y-106080500D01*
X115773170Y-106070645D01*
X115877511Y-106019636D01*
X115959636Y-105937511D01*
X115959638Y-105937506D01*
X115959677Y-105937453D01*
X115959760Y-105937387D01*
X115966902Y-105930246D01*
X115967764Y-105931108D01*
X116014650Y-105894327D01*
X116060599Y-105885500D01*
X116330348Y-105885500D01*
X116397387Y-105905185D01*
X116440831Y-105953202D01*
X116496950Y-106063342D01*
X116496952Y-106063344D01*
X116496954Y-106063347D01*
X116586652Y-106153045D01*
X116586654Y-106153046D01*
X116586658Y-106153050D01*
X116699667Y-106210631D01*
X116699698Y-106210647D01*
X116793475Y-106225499D01*
X116793481Y-106225500D01*
X117356518Y-106225499D01*
X117450304Y-106210646D01*
X117563342Y-106153050D01*
X117653050Y-106063342D01*
X117710646Y-105950304D01*
X117710646Y-105950302D01*
X117710647Y-105950301D01*
X117724224Y-105864575D01*
X117725500Y-105856519D01*
X117725499Y-105450831D01*
X117745183Y-105383793D01*
X117761813Y-105363156D01*
X118140460Y-104984511D01*
X118140463Y-104984504D01*
X118145410Y-104978060D01*
X118146702Y-104979052D01*
X118190381Y-104937392D01*
X118258986Y-104924159D01*
X118303510Y-104937113D01*
X118349696Y-104960646D01*
X118349698Y-104960647D01*
X118443475Y-104975499D01*
X118443481Y-104975500D01*
X118849166Y-104975499D01*
X118916205Y-104995183D01*
X118936847Y-105011818D01*
X119324540Y-105399511D01*
X119380489Y-105455460D01*
X119380491Y-105455461D01*
X119380495Y-105455464D01*
X119449004Y-105495017D01*
X119449011Y-105495021D01*
X119525438Y-105515500D01*
X119639401Y-105515500D01*
X119706440Y-105535185D01*
X119732930Y-105560413D01*
X119733098Y-105560246D01*
X119739945Y-105567093D01*
X119740323Y-105567453D01*
X119740367Y-105567515D01*
X119822486Y-105649634D01*
X119822487Y-105649634D01*
X119822489Y-105649636D01*
X119926830Y-105700645D01*
X119994472Y-105710500D01*
X119994478Y-105710500D01*
X120405522Y-105710500D01*
X120405528Y-105710500D01*
X120473170Y-105700645D01*
X120577511Y-105649636D01*
X120593030Y-105634117D01*
X120620123Y-105607025D01*
X120681446Y-105573540D01*
X120751138Y-105578524D01*
X120795485Y-105607025D01*
X120831684Y-105643224D01*
X120940513Y-105693972D01*
X120990099Y-105700500D01*
X121409900Y-105700499D01*
X121459487Y-105693972D01*
X121568316Y-105643224D01*
X121653224Y-105558316D01*
X121703972Y-105449487D01*
X121710500Y-105399901D01*
X121710499Y-105040100D01*
X121703972Y-104990513D01*
X121653224Y-104881684D01*
X121653221Y-104881681D01*
X121648436Y-104874847D01*
X121626108Y-104808641D01*
X121637627Y-104751319D01*
X121674068Y-104673173D01*
X121680500Y-104624316D01*
X121680500Y-104587833D01*
X121700185Y-104520794D01*
X121752989Y-104475039D01*
X121822147Y-104465095D01*
X121856903Y-104475451D01*
X121896827Y-104494068D01*
X121945683Y-104500500D01*
X121945684Y-104500500D01*
X123104317Y-104500500D01*
X123120601Y-104498356D01*
X123153173Y-104494068D01*
X123260404Y-104444065D01*
X123344065Y-104360404D01*
X123394068Y-104253173D01*
X123400500Y-104204316D01*
X123400500Y-103045684D01*
X123399366Y-103037070D01*
X123392830Y-102987422D01*
X123395498Y-102987070D01*
X123393249Y-102951677D01*
X123394802Y-102941870D01*
X123400501Y-102905890D01*
X123400500Y-102842889D01*
X123400500Y-102795294D01*
X123400500Y-102734689D01*
X123420185Y-102667650D01*
X123470039Y-102623288D01*
X123477511Y-102619636D01*
X123488748Y-102608399D01*
X123512319Y-102584829D01*
X123573642Y-102551344D01*
X123643334Y-102556328D01*
X123687681Y-102584829D01*
X123762486Y-102659634D01*
X123762487Y-102659634D01*
X123762489Y-102659636D01*
X123866830Y-102710645D01*
X123934472Y-102720500D01*
X123934478Y-102720500D01*
X124295522Y-102720500D01*
X124295528Y-102720500D01*
X124363170Y-102710645D01*
X124467511Y-102659636D01*
X124549636Y-102577511D01*
X124600645Y-102473170D01*
X124610500Y-102405528D01*
X124610500Y-101994472D01*
X124600645Y-101926830D01*
X124549636Y-101822489D01*
X124549634Y-101822487D01*
X124549634Y-101822486D01*
X124514829Y-101787681D01*
X124481344Y-101726358D01*
X124486328Y-101656666D01*
X124514829Y-101612319D01*
X124549634Y-101577513D01*
X124549636Y-101577511D01*
X124600645Y-101473170D01*
X124610500Y-101405528D01*
X124610500Y-101029500D01*
X124630185Y-100962461D01*
X124682989Y-100916706D01*
X124734500Y-100905500D01*
X124786369Y-100905500D01*
X124795632Y-100904442D01*
X124832688Y-100900212D01*
X124857880Y-100894383D01*
X124867928Y-100892492D01*
X124911788Y-100886103D01*
X124923489Y-100884399D01*
X124923490Y-100884398D01*
X124923502Y-100884397D01*
X124951960Y-100878164D01*
X124985593Y-100868254D01*
X125062085Y-100826439D01*
X125114889Y-100780684D01*
X125132843Y-100763093D01*
X125177490Y-100683276D01*
X125197175Y-100616237D01*
X125205500Y-100558339D01*
X125205500Y-100486583D01*
X125204963Y-100471735D01*
X125203668Y-100453859D01*
X125202058Y-100439079D01*
X125196296Y-100399531D01*
X125195000Y-100381652D01*
X125195000Y-100018349D01*
X125196295Y-100000472D01*
X125202058Y-99960915D01*
X125203668Y-99946141D01*
X125204963Y-99928269D01*
X125205500Y-99913417D01*
X125205500Y-99629500D01*
X125225185Y-99562461D01*
X125277989Y-99516706D01*
X125329500Y-99505500D01*
X125975991Y-99505500D01*
X125976000Y-99505500D01*
X126019684Y-99500803D01*
X126048875Y-99494452D01*
X126071174Y-99489602D01*
X126071190Y-99489598D01*
X126071195Y-99489597D01*
X126081373Y-99487110D01*
X126162085Y-99444100D01*
X126214889Y-99398345D01*
X126232843Y-99380754D01*
X126277490Y-99300937D01*
X126297175Y-99233898D01*
X126305500Y-99176000D01*
X126305500Y-99100544D01*
X126325185Y-99033505D01*
X126377989Y-98987750D01*
X126447147Y-98977806D01*
X126510703Y-99006831D01*
G37*
G04 #@! TD.AperFunction*
G04 #@! TA.AperFunction,Conductor*
G36*
X128180539Y-91247185D02*
G01*
X128226294Y-91299989D01*
X128237500Y-91351500D01*
X128237500Y-92326624D01*
X128236903Y-92338778D01*
X128232843Y-92379999D01*
X128251426Y-92568681D01*
X128264664Y-92612319D01*
X128306463Y-92750115D01*
X128306464Y-92750118D01*
X128306465Y-92750119D01*
X128306466Y-92750122D01*
X128395834Y-92917318D01*
X128395838Y-92917325D01*
X128516116Y-93063883D01*
X128662674Y-93184161D01*
X128662681Y-93184165D01*
X128829877Y-93273533D01*
X128829878Y-93273533D01*
X128829885Y-93273537D01*
X129011317Y-93328573D01*
X129011316Y-93328573D01*
X129028233Y-93330239D01*
X129200000Y-93347157D01*
X129388683Y-93328573D01*
X129570115Y-93273537D01*
X129737324Y-93184162D01*
X129883883Y-93063883D01*
X130004162Y-92917324D01*
X130093537Y-92750115D01*
X130148573Y-92568683D01*
X130167157Y-92380000D01*
X130163097Y-92338778D01*
X130162500Y-92326624D01*
X130162500Y-91351500D01*
X130182185Y-91284461D01*
X130234989Y-91238706D01*
X130286500Y-91227500D01*
X130613500Y-91227500D01*
X130680539Y-91247185D01*
X130726294Y-91299989D01*
X130737500Y-91351500D01*
X130737500Y-92346624D01*
X130736903Y-92358778D01*
X130732843Y-92399999D01*
X130751426Y-92588681D01*
X130758597Y-92612319D01*
X130806463Y-92770115D01*
X130806464Y-92770118D01*
X130806465Y-92770119D01*
X130806466Y-92770122D01*
X130895834Y-92937318D01*
X130895838Y-92937325D01*
X131016116Y-93083883D01*
X131162674Y-93204161D01*
X131162681Y-93204165D01*
X131329877Y-93293533D01*
X131329878Y-93293533D01*
X131329885Y-93293537D01*
X131511317Y-93348573D01*
X131511316Y-93348573D01*
X131528233Y-93350239D01*
X131700000Y-93367157D01*
X131888683Y-93348573D01*
X132070115Y-93293537D01*
X132237324Y-93204162D01*
X132383883Y-93083883D01*
X132504162Y-92937324D01*
X132593537Y-92770115D01*
X132648573Y-92588683D01*
X132667157Y-92400000D01*
X132663097Y-92358778D01*
X132662500Y-92346624D01*
X132662500Y-91351500D01*
X132682185Y-91284461D01*
X132734989Y-91238706D01*
X132786500Y-91227500D01*
X133213500Y-91227500D01*
X133280539Y-91247185D01*
X133326294Y-91299989D01*
X133337500Y-91351500D01*
X133337500Y-92346624D01*
X133336903Y-92358778D01*
X133332843Y-92399999D01*
X133351426Y-92588681D01*
X133358597Y-92612319D01*
X133406463Y-92770115D01*
X133406464Y-92770118D01*
X133406465Y-92770119D01*
X133406466Y-92770122D01*
X133495834Y-92937318D01*
X133495838Y-92937325D01*
X133616116Y-93083883D01*
X133762674Y-93204161D01*
X133762681Y-93204165D01*
X133929877Y-93293533D01*
X133929878Y-93293533D01*
X133929885Y-93293537D01*
X134111317Y-93348573D01*
X134111316Y-93348573D01*
X134128233Y-93350239D01*
X134300000Y-93367157D01*
X134488683Y-93348573D01*
X134670115Y-93293537D01*
X134837324Y-93204162D01*
X134983883Y-93083883D01*
X135104162Y-92937324D01*
X135193537Y-92770115D01*
X135193540Y-92770103D01*
X135193934Y-92769155D01*
X135194280Y-92768724D01*
X135196409Y-92764743D01*
X135197163Y-92765146D01*
X135237769Y-92714747D01*
X135304061Y-92692675D01*
X135371762Y-92709948D01*
X135419378Y-92761080D01*
X135432500Y-92816596D01*
X135432500Y-93833500D01*
X135412815Y-93900539D01*
X135360011Y-93946294D01*
X135308500Y-93957500D01*
X134343375Y-93957500D01*
X134331221Y-93956903D01*
X134290000Y-93952843D01*
X134101318Y-93971426D01*
X134030621Y-93992872D01*
X133919885Y-94026463D01*
X133919882Y-94026464D01*
X133919880Y-94026465D01*
X133919877Y-94026466D01*
X133752681Y-94115834D01*
X133752674Y-94115838D01*
X133606116Y-94236116D01*
X133485838Y-94382674D01*
X133485834Y-94382681D01*
X133396466Y-94549877D01*
X133396465Y-94549880D01*
X133396464Y-94549882D01*
X133396463Y-94549885D01*
X133381109Y-94600500D01*
X133341426Y-94731318D01*
X133322843Y-94920000D01*
X133341426Y-95108681D01*
X133354112Y-95150500D01*
X133396463Y-95290115D01*
X133396464Y-95290118D01*
X133396465Y-95290119D01*
X133396466Y-95290122D01*
X133485834Y-95457318D01*
X133485838Y-95457325D01*
X133581601Y-95574011D01*
X133606117Y-95603883D01*
X133634466Y-95627149D01*
X133642655Y-95633869D01*
X133681990Y-95691615D01*
X133683861Y-95761459D01*
X133647674Y-95821228D01*
X133584918Y-95851944D01*
X133544595Y-95852197D01*
X133508379Y-95846461D01*
X133500004Y-95845135D01*
X133500003Y-95845135D01*
X133500002Y-95845135D01*
X133390345Y-95862502D01*
X133361872Y-95877010D01*
X133293203Y-95889905D01*
X133228463Y-95863627D01*
X133194179Y-95820984D01*
X133190573Y-95813607D01*
X133139198Y-95708517D01*
X133139196Y-95708515D01*
X133139196Y-95708514D01*
X133056485Y-95625803D01*
X132951391Y-95574426D01*
X132883261Y-95564500D01*
X132883260Y-95564500D01*
X131516740Y-95564500D01*
X131516739Y-95564500D01*
X131448608Y-95574426D01*
X131343514Y-95625803D01*
X131260803Y-95708514D01*
X131209426Y-95813608D01*
X131199500Y-95881739D01*
X131199500Y-96248260D01*
X131209426Y-96316391D01*
X131209427Y-96316393D01*
X131260802Y-96421483D01*
X131260803Y-96421484D01*
X131268800Y-96429481D01*
X131302287Y-96490803D01*
X131300897Y-96549257D01*
X131294235Y-96574119D01*
X131294235Y-96647658D01*
X131292708Y-96667056D01*
X131289866Y-96685001D01*
X131292384Y-96700900D01*
X131292708Y-96702942D01*
X131294235Y-96722342D01*
X131294235Y-96731147D01*
X131299742Y-96751699D01*
X131302440Y-96764391D01*
X131307235Y-96794664D01*
X131309797Y-96799692D01*
X131314849Y-96812851D01*
X131315012Y-96812784D01*
X131315970Y-96815097D01*
X131316070Y-96816032D01*
X131319080Y-96823871D01*
X131320220Y-96828123D01*
X131317449Y-96828865D01*
X131323437Y-96884567D01*
X131292161Y-96947045D01*
X131289090Y-96950227D01*
X131260803Y-96978514D01*
X131260802Y-96978514D01*
X131260097Y-96979959D01*
X131258609Y-96981587D01*
X131254832Y-96986878D01*
X131254192Y-96986421D01*
X131212970Y-97031542D01*
X131148696Y-97049500D01*
X130837342Y-97049500D01*
X130817943Y-97047973D01*
X130800000Y-97045131D01*
X130782057Y-97047973D01*
X130762658Y-97049500D01*
X130753851Y-97049500D01*
X130733299Y-97055007D01*
X130720614Y-97057703D01*
X130690341Y-97062499D01*
X130690335Y-97062501D01*
X130685307Y-97065063D01*
X130672150Y-97070114D01*
X130672218Y-97070277D01*
X130664709Y-97073387D01*
X130635501Y-97090249D01*
X130629804Y-97093342D01*
X130591412Y-97112904D01*
X130591412Y-97112905D01*
X130512905Y-97191412D01*
X130512904Y-97191412D01*
X130493342Y-97229804D01*
X130490249Y-97235501D01*
X130473387Y-97264709D01*
X130470277Y-97272218D01*
X130470114Y-97272150D01*
X130465063Y-97285307D01*
X130462501Y-97290335D01*
X130462499Y-97290341D01*
X130457703Y-97320614D01*
X130455007Y-97333299D01*
X130449500Y-97353851D01*
X130449500Y-97362657D01*
X130447973Y-97382055D01*
X130445131Y-97400000D01*
X130447689Y-97416153D01*
X130447973Y-97417941D01*
X130449500Y-97437341D01*
X130449500Y-97446146D01*
X130455007Y-97466698D01*
X130457705Y-97479390D01*
X130462500Y-97509663D01*
X130465062Y-97514691D01*
X130470113Y-97527849D01*
X130470277Y-97527782D01*
X130473387Y-97535291D01*
X130490240Y-97564481D01*
X130493336Y-97570184D01*
X130512902Y-97608582D01*
X130512905Y-97608587D01*
X130591413Y-97687095D01*
X130629807Y-97706657D01*
X130635504Y-97709751D01*
X130645729Y-97715654D01*
X130664712Y-97726614D01*
X130664717Y-97726615D01*
X130672224Y-97729725D01*
X130672155Y-97729890D01*
X130685322Y-97734943D01*
X130690339Y-97737500D01*
X130720617Y-97742295D01*
X130733290Y-97744989D01*
X130753856Y-97750500D01*
X130762658Y-97750500D01*
X130782056Y-97752026D01*
X130800000Y-97754869D01*
X130817943Y-97752026D01*
X130837342Y-97750500D01*
X131270601Y-97750500D01*
X131337640Y-97770185D01*
X131342651Y-97773580D01*
X131343514Y-97774196D01*
X131343515Y-97774196D01*
X131343517Y-97774198D01*
X131448607Y-97825573D01*
X131479760Y-97830112D01*
X131516739Y-97835500D01*
X131516740Y-97835500D01*
X132883261Y-97835500D01*
X132920219Y-97830115D01*
X132951393Y-97825573D01*
X133056483Y-97774198D01*
X133139198Y-97691483D01*
X133139201Y-97691476D01*
X133143805Y-97685029D01*
X133198778Y-97641904D01*
X133268339Y-97635345D01*
X133330403Y-97667435D01*
X133363387Y-97721080D01*
X133396462Y-97830112D01*
X133396466Y-97830122D01*
X133485834Y-97997318D01*
X133485838Y-97997325D01*
X133606116Y-98143883D01*
X133752674Y-98264161D01*
X133752681Y-98264165D01*
X133919877Y-98353533D01*
X133919878Y-98353533D01*
X133919885Y-98353537D01*
X134101317Y-98408573D01*
X134101316Y-98408573D01*
X134118233Y-98410239D01*
X134290000Y-98427157D01*
X134331221Y-98423097D01*
X134343375Y-98422500D01*
X135308500Y-98422500D01*
X135375539Y-98442185D01*
X135421294Y-98494989D01*
X135432500Y-98546500D01*
X135432500Y-101453500D01*
X135412815Y-101520539D01*
X135360011Y-101566294D01*
X135308500Y-101577500D01*
X134343375Y-101577500D01*
X134331221Y-101576903D01*
X134290000Y-101572843D01*
X134101318Y-101591426D01*
X133994194Y-101623921D01*
X133919885Y-101646463D01*
X133919882Y-101646464D01*
X133919880Y-101646465D01*
X133919877Y-101646466D01*
X133752681Y-101735834D01*
X133752674Y-101735838D01*
X133606116Y-101856116D01*
X133485838Y-102002674D01*
X133485834Y-102002681D01*
X133396466Y-102169877D01*
X133396465Y-102169880D01*
X133396464Y-102169882D01*
X133396463Y-102169885D01*
X133383412Y-102212909D01*
X133341426Y-102351318D01*
X133322843Y-102540000D01*
X133341426Y-102728681D01*
X133348526Y-102752087D01*
X133396463Y-102910115D01*
X133396464Y-102910118D01*
X133396465Y-102910119D01*
X133396466Y-102910122D01*
X133485834Y-103077318D01*
X133485838Y-103077325D01*
X133606116Y-103223883D01*
X133752674Y-103344161D01*
X133752681Y-103344165D01*
X133919877Y-103433533D01*
X133919878Y-103433533D01*
X133919885Y-103433537D01*
X134101317Y-103488573D01*
X134101316Y-103488573D01*
X134118233Y-103490239D01*
X134290000Y-103507157D01*
X134331221Y-103503097D01*
X134343375Y-103502500D01*
X134375500Y-103502500D01*
X134442539Y-103522185D01*
X134488294Y-103574989D01*
X134499500Y-103626500D01*
X134499500Y-103976324D01*
X134479815Y-104043363D01*
X134444392Y-104079425D01*
X134405447Y-104105447D01*
X134403101Y-104108959D01*
X134349488Y-104153764D01*
X134280163Y-104162470D01*
X134217136Y-104132314D01*
X134196899Y-104108959D01*
X134194553Y-104105448D01*
X134128230Y-104061132D01*
X134128229Y-104061131D01*
X134069752Y-104049500D01*
X134069748Y-104049500D01*
X133671631Y-104049500D01*
X133604592Y-104029815D01*
X133561147Y-103981796D01*
X133515095Y-103891413D01*
X133515093Y-103891411D01*
X133515090Y-103891407D01*
X133436592Y-103812909D01*
X133436588Y-103812906D01*
X133436587Y-103812905D01*
X133379836Y-103783989D01*
X133337658Y-103762498D01*
X133228002Y-103745131D01*
X133227998Y-103745131D01*
X133118341Y-103762498D01*
X133102447Y-103770597D01*
X133033778Y-103783492D01*
X132969038Y-103757214D01*
X132958474Y-103747792D01*
X132906485Y-103695803D01*
X132801391Y-103644426D01*
X132733261Y-103634500D01*
X132733260Y-103634500D01*
X131016740Y-103634500D01*
X131016739Y-103634500D01*
X130948608Y-103644426D01*
X130843516Y-103695802D01*
X130825294Y-103714025D01*
X130791136Y-103748182D01*
X130729816Y-103781666D01*
X130703457Y-103784500D01*
X130588754Y-103784500D01*
X130588738Y-103784499D01*
X130581142Y-103784499D01*
X130572346Y-103784499D01*
X130552947Y-103782972D01*
X130534998Y-103780129D01*
X130517049Y-103782972D01*
X130497650Y-103784499D01*
X130488854Y-103784499D01*
X130488852Y-103784499D01*
X130488845Y-103784500D01*
X130468298Y-103790005D01*
X130455613Y-103792702D01*
X130425337Y-103797498D01*
X130425335Y-103797498D01*
X130425333Y-103797499D01*
X130420297Y-103800065D01*
X130407145Y-103805114D01*
X130407213Y-103805277D01*
X130399711Y-103808383D01*
X130399710Y-103808384D01*
X130399708Y-103808384D01*
X130399701Y-103808388D01*
X130370497Y-103825248D01*
X130364798Y-103828343D01*
X130326408Y-103847904D01*
X130247904Y-103926408D01*
X130228343Y-103964798D01*
X130225248Y-103970497D01*
X130208388Y-103999701D01*
X130205277Y-104007213D01*
X130205114Y-104007145D01*
X130200065Y-104020297D01*
X130197499Y-104025333D01*
X130197498Y-104025335D01*
X130197498Y-104025337D01*
X130193150Y-104052788D01*
X130192702Y-104055614D01*
X130190005Y-104068298D01*
X130184500Y-104088845D01*
X130184499Y-104088856D01*
X130184499Y-104097649D01*
X130182971Y-104117048D01*
X130180129Y-104134998D01*
X130182421Y-104149471D01*
X130182972Y-104152946D01*
X130184499Y-104172346D01*
X130184499Y-104181140D01*
X130184500Y-104181149D01*
X130190005Y-104201697D01*
X130192702Y-104214382D01*
X130197498Y-104244660D01*
X130200060Y-104249687D01*
X130205113Y-104262850D01*
X130205276Y-104262783D01*
X130208382Y-104270283D01*
X130208384Y-104270286D01*
X130225253Y-104299506D01*
X130228334Y-104305181D01*
X130230073Y-104308592D01*
X130247904Y-104343587D01*
X130326405Y-104422088D01*
X130326407Y-104422089D01*
X130326411Y-104422093D01*
X130364807Y-104441657D01*
X130370484Y-104444739D01*
X130388029Y-104454869D01*
X130397676Y-104460439D01*
X130397678Y-104460440D01*
X130397677Y-104460440D01*
X130399712Y-104461614D01*
X130407222Y-104464725D01*
X130407154Y-104464888D01*
X130420318Y-104469940D01*
X130425337Y-104472498D01*
X130455599Y-104477290D01*
X130468274Y-104479984D01*
X130488856Y-104485500D01*
X130497669Y-104485500D01*
X130517066Y-104487026D01*
X130534998Y-104489867D01*
X130552929Y-104487026D01*
X130572327Y-104485500D01*
X130703457Y-104485500D01*
X130770496Y-104505185D01*
X130791133Y-104521814D01*
X130843517Y-104574198D01*
X130948607Y-104625573D01*
X130982673Y-104630536D01*
X131016739Y-104635500D01*
X131920167Y-104635500D01*
X131987206Y-104655185D01*
X132032961Y-104707989D01*
X132042905Y-104777147D01*
X132013880Y-104840703D01*
X132007848Y-104847181D01*
X131986848Y-104868181D01*
X131925525Y-104901666D01*
X131899167Y-104904500D01*
X131016739Y-104904500D01*
X130948608Y-104914426D01*
X130843514Y-104965803D01*
X130760805Y-105048512D01*
X130757923Y-105052550D01*
X130702949Y-105095674D01*
X130657003Y-105104500D01*
X130521861Y-105104500D01*
X130465567Y-105090985D01*
X130409658Y-105062498D01*
X130300002Y-105045131D01*
X130299998Y-105045131D01*
X130190341Y-105062498D01*
X130091414Y-105112904D01*
X130091407Y-105112909D01*
X130012909Y-105191407D01*
X130012904Y-105191414D01*
X129962498Y-105290341D01*
X129945131Y-105399997D01*
X129945131Y-105400002D01*
X129962498Y-105509658D01*
X130012904Y-105608585D01*
X130012909Y-105608592D01*
X130091407Y-105687090D01*
X130091410Y-105687092D01*
X130091413Y-105687095D01*
X130171647Y-105727976D01*
X130190341Y-105737501D01*
X130299998Y-105754869D01*
X130300000Y-105754869D01*
X130300002Y-105754869D01*
X130409658Y-105737501D01*
X130409659Y-105737500D01*
X130409661Y-105737500D01*
X130445940Y-105719014D01*
X130502234Y-105705500D01*
X130657003Y-105705500D01*
X130724042Y-105725185D01*
X130757923Y-105757450D01*
X130760805Y-105761487D01*
X130843514Y-105844196D01*
X130843515Y-105844196D01*
X130843517Y-105844198D01*
X130948607Y-105895573D01*
X130980199Y-105900176D01*
X131016739Y-105905500D01*
X131016740Y-105905500D01*
X132733261Y-105905500D01*
X132769801Y-105900176D01*
X132801393Y-105895573D01*
X132862623Y-105865639D01*
X132931494Y-105853880D01*
X132995791Y-105881223D01*
X133035099Y-105938987D01*
X133039555Y-105957642D01*
X133054958Y-106054897D01*
X133105364Y-106153824D01*
X133105369Y-106153831D01*
X133183867Y-106232329D01*
X133183870Y-106232331D01*
X133183873Y-106232334D01*
X133282799Y-106282739D01*
X133282800Y-106282739D01*
X133282802Y-106282740D01*
X133282801Y-106282740D01*
X133393508Y-106300274D01*
X133443000Y-106319644D01*
X133471769Y-106338867D01*
X133471773Y-106338868D01*
X133530247Y-106350499D01*
X133530250Y-106350500D01*
X133530252Y-106350500D01*
X134069750Y-106350500D01*
X134069751Y-106350499D01*
X134086283Y-106347211D01*
X134128229Y-106338868D01*
X134128229Y-106338867D01*
X134128231Y-106338867D01*
X134194552Y-106294552D01*
X134196897Y-106291043D01*
X134250508Y-106246237D01*
X134319833Y-106237528D01*
X134382861Y-106267682D01*
X134403103Y-106291043D01*
X134405447Y-106294552D01*
X134471769Y-106338867D01*
X134471770Y-106338868D01*
X134530247Y-106350499D01*
X134530250Y-106350500D01*
X134530252Y-106350500D01*
X135069750Y-106350500D01*
X135069751Y-106350499D01*
X135086283Y-106347211D01*
X135128229Y-106338868D01*
X135128229Y-106338867D01*
X135128231Y-106338867D01*
X135194552Y-106294552D01*
X135205397Y-106278320D01*
X135259009Y-106233515D01*
X135328334Y-106224808D01*
X135391362Y-106254962D01*
X135428082Y-106314405D01*
X135432500Y-106347211D01*
X135432500Y-107304903D01*
X135412815Y-107371942D01*
X135360011Y-107417697D01*
X135290853Y-107427641D01*
X135227297Y-107398616D01*
X135196918Y-107356484D01*
X135196409Y-107356757D01*
X135194387Y-107352974D01*
X135193937Y-107352350D01*
X135193536Y-107351382D01*
X135104165Y-107184181D01*
X135104161Y-107184174D01*
X134983883Y-107037616D01*
X134837325Y-106917338D01*
X134837318Y-106917334D01*
X134670122Y-106827966D01*
X134670119Y-106827965D01*
X134670118Y-106827964D01*
X134670115Y-106827963D01*
X134488683Y-106772927D01*
X134488681Y-106772926D01*
X134488683Y-106772926D01*
X134300000Y-106754343D01*
X134111318Y-106772926D01*
X134018082Y-106801209D01*
X133929885Y-106827963D01*
X133929882Y-106827964D01*
X133929880Y-106827965D01*
X133929877Y-106827966D01*
X133762681Y-106917334D01*
X133762674Y-106917338D01*
X133616116Y-107037616D01*
X133495838Y-107184174D01*
X133495834Y-107184181D01*
X133406466Y-107351377D01*
X133406465Y-107351380D01*
X133406464Y-107351382D01*
X133406463Y-107351385D01*
X133392136Y-107398616D01*
X133351426Y-107532818D01*
X133333015Y-107719750D01*
X133332843Y-107721500D01*
X133333108Y-107724189D01*
X133336903Y-107762720D01*
X133337500Y-107774874D01*
X133337500Y-108648500D01*
X133317815Y-108715539D01*
X133265011Y-108761294D01*
X133213500Y-108772500D01*
X132886500Y-108772500D01*
X132819461Y-108752815D01*
X132773706Y-108700011D01*
X132762500Y-108648500D01*
X132762500Y-107774874D01*
X132763097Y-107762720D01*
X132767157Y-107721500D01*
X132748573Y-107532817D01*
X132693537Y-107351385D01*
X132682043Y-107329881D01*
X132604165Y-107184181D01*
X132604161Y-107184174D01*
X132483883Y-107037616D01*
X132337325Y-106917338D01*
X132337318Y-106917334D01*
X132170122Y-106827966D01*
X132170119Y-106827965D01*
X132170118Y-106827964D01*
X132170115Y-106827963D01*
X131988683Y-106772927D01*
X131988681Y-106772926D01*
X131988683Y-106772926D01*
X131800000Y-106754343D01*
X131611318Y-106772926D01*
X131518082Y-106801209D01*
X131429885Y-106827963D01*
X131429882Y-106827964D01*
X131429880Y-106827965D01*
X131429877Y-106827966D01*
X131262681Y-106917334D01*
X131262674Y-106917338D01*
X131116116Y-107037616D01*
X130995838Y-107184174D01*
X130995834Y-107184181D01*
X130906466Y-107351377D01*
X130906465Y-107351380D01*
X130906464Y-107351382D01*
X130906463Y-107351385D01*
X130892136Y-107398616D01*
X130851426Y-107532818D01*
X130833015Y-107719750D01*
X130832843Y-107721500D01*
X130833108Y-107724189D01*
X130836903Y-107762720D01*
X130837500Y-107774874D01*
X130837500Y-108648500D01*
X130817815Y-108715539D01*
X130765011Y-108761294D01*
X130713500Y-108772500D01*
X130386500Y-108772500D01*
X130319461Y-108752815D01*
X130273706Y-108700011D01*
X130262500Y-108648500D01*
X130262500Y-107774874D01*
X130263097Y-107762720D01*
X130267157Y-107721500D01*
X130248573Y-107532817D01*
X130193537Y-107351385D01*
X130182043Y-107329881D01*
X130104165Y-107184181D01*
X130104161Y-107184174D01*
X129983883Y-107037616D01*
X129837325Y-106917338D01*
X129837318Y-106917334D01*
X129670122Y-106827966D01*
X129670119Y-106827965D01*
X129670118Y-106827964D01*
X129670115Y-106827963D01*
X129488683Y-106772927D01*
X129488681Y-106772926D01*
X129488683Y-106772926D01*
X129300000Y-106754343D01*
X129111318Y-106772926D01*
X129018082Y-106801209D01*
X128929885Y-106827963D01*
X128929882Y-106827964D01*
X128929880Y-106827965D01*
X128929877Y-106827966D01*
X128762681Y-106917334D01*
X128762674Y-106917338D01*
X128616116Y-107037616D01*
X128495838Y-107184174D01*
X128495834Y-107184181D01*
X128406466Y-107351377D01*
X128406465Y-107351380D01*
X128406464Y-107351382D01*
X128406463Y-107351385D01*
X128392136Y-107398616D01*
X128351426Y-107532818D01*
X128333015Y-107719750D01*
X128332843Y-107721500D01*
X128333108Y-107724189D01*
X128336903Y-107762720D01*
X128337500Y-107774874D01*
X128337500Y-108648500D01*
X128317815Y-108715539D01*
X128265011Y-108761294D01*
X128213500Y-108772500D01*
X127886500Y-108772500D01*
X127819461Y-108752815D01*
X127773706Y-108700011D01*
X127762500Y-108648500D01*
X127762500Y-107753374D01*
X127763097Y-107741220D01*
X127764774Y-107724190D01*
X127767157Y-107700000D01*
X127748573Y-107511317D01*
X127693537Y-107329885D01*
X127671123Y-107287952D01*
X127656882Y-107219551D01*
X127681881Y-107154307D01*
X127738186Y-107112936D01*
X127780482Y-107105500D01*
X128075991Y-107105500D01*
X128076000Y-107105500D01*
X128119684Y-107100803D01*
X128148875Y-107094452D01*
X128171174Y-107089602D01*
X128171190Y-107089598D01*
X128171195Y-107089597D01*
X128181373Y-107087110D01*
X128262085Y-107044100D01*
X128314889Y-106998345D01*
X128332843Y-106980754D01*
X128377490Y-106900937D01*
X128397175Y-106833898D01*
X128405500Y-106776000D01*
X128405500Y-104924000D01*
X128400803Y-104880316D01*
X128396626Y-104861116D01*
X128389602Y-104828825D01*
X128389156Y-104827001D01*
X128387110Y-104818627D01*
X128344100Y-104737915D01*
X128307358Y-104695513D01*
X128298339Y-104685104D01*
X128286288Y-104672805D01*
X128253430Y-104611143D01*
X128259125Y-104541506D01*
X128301565Y-104486003D01*
X128342759Y-104466250D01*
X128360065Y-104461614D01*
X128362102Y-104460438D01*
X128439989Y-104415470D01*
X129390247Y-103465212D01*
X129396872Y-103458587D01*
X129416445Y-103420170D01*
X129419508Y-103414528D01*
X129436391Y-103385288D01*
X129436392Y-103385282D01*
X129439502Y-103377776D01*
X129439666Y-103377844D01*
X129444717Y-103364684D01*
X129447277Y-103359661D01*
X129452073Y-103329377D01*
X129454766Y-103316703D01*
X129460276Y-103296144D01*
X129460276Y-103287348D01*
X129461803Y-103267948D01*
X129464646Y-103250000D01*
X129464646Y-103249999D01*
X129461803Y-103232050D01*
X129460276Y-103212651D01*
X129460276Y-103203858D01*
X129460276Y-103203856D01*
X129454767Y-103183297D01*
X129452073Y-103170621D01*
X129447277Y-103140339D01*
X129444714Y-103135308D01*
X129439664Y-103122153D01*
X129439501Y-103122221D01*
X129436392Y-103114716D01*
X129436391Y-103114712D01*
X129419529Y-103085506D01*
X129416430Y-103079799D01*
X129415169Y-103077325D01*
X129396872Y-103041413D01*
X129318364Y-102962905D01*
X129279960Y-102943336D01*
X129274285Y-102940255D01*
X129245065Y-102923386D01*
X129245062Y-102923384D01*
X129237562Y-102920278D01*
X129237629Y-102920115D01*
X129224466Y-102915062D01*
X129214998Y-102910238D01*
X129164201Y-102862264D01*
X129147405Y-102794443D01*
X129169941Y-102728308D01*
X129183608Y-102712073D01*
X129187092Y-102708590D01*
X129206658Y-102670188D01*
X129209734Y-102664519D01*
X129226611Y-102635291D01*
X129226612Y-102635285D01*
X129226614Y-102635283D01*
X129229724Y-102627776D01*
X129229888Y-102627844D01*
X129234938Y-102614684D01*
X129237497Y-102609664D01*
X129242292Y-102579385D01*
X129244986Y-102566712D01*
X129250497Y-102546147D01*
X129250497Y-102537344D01*
X129252024Y-102517944D01*
X129254040Y-102505221D01*
X129254866Y-102500003D01*
X129253094Y-102488817D01*
X129252024Y-102482058D01*
X129250497Y-102462660D01*
X129250497Y-102453861D01*
X129250497Y-102453859D01*
X129248042Y-102444699D01*
X130680129Y-102444699D01*
X130682379Y-102458906D01*
X130682971Y-102462640D01*
X130684498Y-102482040D01*
X130684498Y-102490845D01*
X130690005Y-102511397D01*
X130692703Y-102524089D01*
X130697498Y-102554363D01*
X130700514Y-102563643D01*
X130698173Y-102564403D01*
X130708477Y-102619266D01*
X130707802Y-102624755D01*
X130699500Y-102681740D01*
X130699500Y-102681745D01*
X130699500Y-103048260D01*
X130709426Y-103116391D01*
X130760803Y-103221485D01*
X130843514Y-103304196D01*
X130843515Y-103304196D01*
X130843517Y-103304198D01*
X130948607Y-103355573D01*
X130976644Y-103359658D01*
X131016739Y-103365500D01*
X131016740Y-103365500D01*
X132733261Y-103365500D01*
X132773335Y-103359661D01*
X132801393Y-103355573D01*
X132906483Y-103304198D01*
X132989198Y-103221483D01*
X133040573Y-103116393D01*
X133050500Y-103048260D01*
X133050500Y-102681740D01*
X133040573Y-102613607D01*
X132989198Y-102508517D01*
X132989196Y-102508515D01*
X132989196Y-102508514D01*
X132906485Y-102425803D01*
X132801391Y-102374426D01*
X132733261Y-102364500D01*
X132733260Y-102364500D01*
X131921544Y-102364500D01*
X131854505Y-102344815D01*
X131833863Y-102328181D01*
X131669912Y-102164230D01*
X131669907Y-102164226D01*
X131589989Y-102118086D01*
X131589988Y-102118085D01*
X131589987Y-102118085D01*
X131500843Y-102094199D01*
X131500842Y-102094199D01*
X131072340Y-102094199D01*
X131052941Y-102092672D01*
X131034998Y-102089830D01*
X131017055Y-102092672D01*
X130997656Y-102094199D01*
X130988849Y-102094199D01*
X130968297Y-102099706D01*
X130955612Y-102102402D01*
X130925339Y-102107198D01*
X130925333Y-102107200D01*
X130920305Y-102109762D01*
X130907148Y-102114813D01*
X130907216Y-102114976D01*
X130899707Y-102118086D01*
X130870499Y-102134948D01*
X130864802Y-102138041D01*
X130826410Y-102157603D01*
X130826410Y-102157604D01*
X130747903Y-102236111D01*
X130747902Y-102236111D01*
X130728340Y-102274503D01*
X130725247Y-102280200D01*
X130708385Y-102309408D01*
X130705275Y-102316917D01*
X130705112Y-102316849D01*
X130700061Y-102330006D01*
X130697499Y-102335034D01*
X130697497Y-102335040D01*
X130692701Y-102365313D01*
X130690005Y-102377998D01*
X130684498Y-102398550D01*
X130684498Y-102407356D01*
X130682971Y-102426754D01*
X130680233Y-102444044D01*
X130680129Y-102444699D01*
X129248042Y-102444699D01*
X129244986Y-102433293D01*
X129242291Y-102420614D01*
X129241737Y-102417114D01*
X129237497Y-102390342D01*
X129234940Y-102385325D01*
X129229887Y-102372158D01*
X129229722Y-102372227D01*
X129226612Y-102364720D01*
X129226611Y-102364715D01*
X129218876Y-102351318D01*
X129209748Y-102335507D01*
X129206649Y-102329800D01*
X129200050Y-102316849D01*
X129187092Y-102291416D01*
X129108584Y-102212908D01*
X129108581Y-102212906D01*
X129108579Y-102212905D01*
X129070181Y-102193339D01*
X129064478Y-102190243D01*
X129035288Y-102173390D01*
X129027779Y-102170280D01*
X129027846Y-102170116D01*
X129014688Y-102165065D01*
X129009660Y-102162503D01*
X129009661Y-102162503D01*
X128979387Y-102157708D01*
X128966695Y-102155010D01*
X128946143Y-102149503D01*
X128946141Y-102149503D01*
X128937339Y-102149503D01*
X128917940Y-102147976D01*
X128899997Y-102145134D01*
X128882054Y-102147976D01*
X128862655Y-102149503D01*
X128808348Y-102149503D01*
X128741309Y-102129818D01*
X128695554Y-102077014D01*
X128685610Y-102007856D01*
X128714635Y-101944300D01*
X128746346Y-101918117D01*
X128759631Y-101910446D01*
X128759645Y-101910438D01*
X128820212Y-101875470D01*
X129134023Y-101561659D01*
X129140649Y-101555033D01*
X129160231Y-101516598D01*
X129163289Y-101510965D01*
X129180168Y-101481734D01*
X129180168Y-101481731D01*
X129183279Y-101474223D01*
X129183443Y-101474291D01*
X129188499Y-101461121D01*
X129191053Y-101456108D01*
X129191054Y-101456107D01*
X129195850Y-101425823D01*
X129198543Y-101413149D01*
X129204053Y-101392590D01*
X129204053Y-101383794D01*
X129205580Y-101364394D01*
X129208423Y-101346446D01*
X129208423Y-101346445D01*
X129205580Y-101328496D01*
X129204053Y-101309097D01*
X129204053Y-101300304D01*
X129204053Y-101300303D01*
X129198546Y-101279751D01*
X129195850Y-101267069D01*
X129191054Y-101236785D01*
X129188492Y-101231758D01*
X129183442Y-101218599D01*
X129183278Y-101218667D01*
X129180169Y-101211162D01*
X129180168Y-101211158D01*
X129170550Y-101194500D01*
X129163305Y-101181950D01*
X129160206Y-101176243D01*
X129159478Y-101174815D01*
X129140649Y-101137859D01*
X129140648Y-101137857D01*
X129136165Y-101131687D01*
X129112683Y-101065882D01*
X129128505Y-100997827D01*
X129178609Y-100949131D01*
X129200781Y-100941751D01*
X129200380Y-100940516D01*
X129209652Y-100937503D01*
X129209656Y-100937500D01*
X129209661Y-100937500D01*
X129214684Y-100934940D01*
X129227844Y-100929889D01*
X129227776Y-100929725D01*
X129235282Y-100926615D01*
X129235288Y-100926614D01*
X129264528Y-100909731D01*
X129270170Y-100906668D01*
X129308587Y-100887095D01*
X129387095Y-100808587D01*
X129395470Y-100800212D01*
X129441614Y-100720288D01*
X129443114Y-100714689D01*
X129447050Y-100700002D01*
X129447050Y-100700001D01*
X129453084Y-100677480D01*
X129465500Y-100631144D01*
X129465500Y-100613010D01*
X129485185Y-100545971D01*
X129501819Y-100525329D01*
X129549634Y-100477513D01*
X129549636Y-100477511D01*
X129600645Y-100373170D01*
X129610500Y-100305528D01*
X129610500Y-99894472D01*
X129600645Y-99826830D01*
X129549636Y-99722489D01*
X129549634Y-99722487D01*
X129549634Y-99722486D01*
X129467513Y-99640365D01*
X129363171Y-99589355D01*
X129353506Y-99587947D01*
X129295528Y-99579500D01*
X128934472Y-99579500D01*
X128883740Y-99586891D01*
X128866828Y-99589355D01*
X128762486Y-99640365D01*
X128689671Y-99713181D01*
X128628348Y-99746666D01*
X128601990Y-99749500D01*
X128598010Y-99749500D01*
X128530971Y-99729815D01*
X128510329Y-99713181D01*
X128437513Y-99640365D01*
X128333171Y-99589355D01*
X128323506Y-99587947D01*
X128265528Y-99579500D01*
X128265522Y-99579500D01*
X128169204Y-99579500D01*
X128102165Y-99559815D01*
X128081523Y-99543181D01*
X127687873Y-99149531D01*
X127687868Y-99149527D01*
X127601074Y-99099417D01*
X127575393Y-99079711D01*
X126917421Y-98421739D01*
X131199500Y-98421739D01*
X131199500Y-98788260D01*
X131209426Y-98856391D01*
X131260803Y-98961485D01*
X131343514Y-99044196D01*
X131343515Y-99044196D01*
X131343517Y-99044198D01*
X131448607Y-99095573D01*
X131473480Y-99099197D01*
X131516739Y-99105500D01*
X131516740Y-99105500D01*
X131924258Y-99105500D01*
X131991297Y-99125185D01*
X132037052Y-99177989D01*
X132046731Y-99210102D01*
X132062498Y-99309658D01*
X132112904Y-99408585D01*
X132112909Y-99408592D01*
X132191407Y-99487090D01*
X132191410Y-99487092D01*
X132191413Y-99487095D01*
X132290339Y-99537500D01*
X132290341Y-99537501D01*
X132399998Y-99554869D01*
X132400000Y-99554869D01*
X132400002Y-99554869D01*
X132509658Y-99537501D01*
X132509659Y-99537500D01*
X132509661Y-99537500D01*
X132608587Y-99487095D01*
X132687095Y-99408587D01*
X132737500Y-99309661D01*
X132737500Y-99309659D01*
X132737501Y-99309658D01*
X132753269Y-99210102D01*
X132783198Y-99146968D01*
X132842509Y-99110036D01*
X132875742Y-99105500D01*
X132883261Y-99105500D01*
X132920082Y-99100135D01*
X132951393Y-99095573D01*
X133056483Y-99044198D01*
X133139198Y-98961483D01*
X133190573Y-98856393D01*
X133200500Y-98788260D01*
X133200500Y-98421740D01*
X133199022Y-98411599D01*
X133190573Y-98353608D01*
X133190573Y-98353607D01*
X133139198Y-98248517D01*
X133139196Y-98248515D01*
X133139196Y-98248514D01*
X133056485Y-98165803D01*
X132951391Y-98114426D01*
X132883261Y-98104500D01*
X132883260Y-98104500D01*
X131516740Y-98104500D01*
X131516739Y-98104500D01*
X131448608Y-98114426D01*
X131343514Y-98165803D01*
X131260803Y-98248514D01*
X131209426Y-98353608D01*
X131199500Y-98421739D01*
X126917421Y-98421739D01*
X126820213Y-98324531D01*
X126820208Y-98324527D01*
X126740290Y-98278387D01*
X126740283Y-98278384D01*
X126729324Y-98275447D01*
X126729324Y-98275448D01*
X126665068Y-98258231D01*
X126651144Y-98254500D01*
X126651143Y-98254500D01*
X126429500Y-98254500D01*
X126362461Y-98234815D01*
X126316706Y-98182011D01*
X126305500Y-98130500D01*
X126305500Y-98024008D01*
X126305499Y-98023992D01*
X126304880Y-98018232D01*
X126300803Y-97980316D01*
X126294317Y-97950500D01*
X126289602Y-97928825D01*
X126289348Y-97927789D01*
X126287110Y-97918627D01*
X126260032Y-97867814D01*
X126245878Y-97799394D01*
X126270960Y-97734182D01*
X126327318Y-97692883D01*
X126369465Y-97685500D01*
X126538456Y-97685500D01*
X126605495Y-97705185D01*
X126626137Y-97721819D01*
X126712905Y-97808587D01*
X126791413Y-97887095D01*
X126829811Y-97906659D01*
X126835506Y-97909752D01*
X126864712Y-97926614D01*
X126864716Y-97926615D01*
X126872221Y-97929724D01*
X126872153Y-97929888D01*
X126885312Y-97934938D01*
X126890339Y-97937500D01*
X126920615Y-97942294D01*
X126933310Y-97944994D01*
X126953857Y-97950500D01*
X126962658Y-97950500D01*
X126982056Y-97952026D01*
X127000000Y-97954869D01*
X127017943Y-97952026D01*
X127037342Y-97950500D01*
X127046142Y-97950500D01*
X127046144Y-97950500D01*
X127066709Y-97944989D01*
X127079382Y-97942295D01*
X127109661Y-97937500D01*
X127114681Y-97934941D01*
X127127845Y-97929889D01*
X127127777Y-97929725D01*
X127135285Y-97926614D01*
X127135288Y-97926614D01*
X127164514Y-97909739D01*
X127170170Y-97906668D01*
X127208587Y-97887095D01*
X127287095Y-97808587D01*
X127306668Y-97770170D01*
X127309739Y-97764514D01*
X127326614Y-97735288D01*
X127326614Y-97735285D01*
X127329725Y-97727777D01*
X127329889Y-97727845D01*
X127334941Y-97714681D01*
X127337500Y-97709661D01*
X127342295Y-97679382D01*
X127344989Y-97666709D01*
X127350500Y-97646144D01*
X127350500Y-97637341D01*
X127352027Y-97617941D01*
X127353510Y-97608582D01*
X127354869Y-97600000D01*
X127354171Y-97595595D01*
X127352027Y-97582055D01*
X127350500Y-97562657D01*
X127350500Y-97553856D01*
X127350499Y-97553854D01*
X127348789Y-97547474D01*
X127344994Y-97533310D01*
X127342293Y-97520607D01*
X127337500Y-97490339D01*
X127334938Y-97485312D01*
X127329888Y-97472153D01*
X127329724Y-97472221D01*
X127326615Y-97464716D01*
X127326614Y-97464712D01*
X127309752Y-97435506D01*
X127306653Y-97429799D01*
X127305524Y-97427584D01*
X127287095Y-97391413D01*
X127208587Y-97312905D01*
X127112232Y-97216550D01*
X127078747Y-97155227D01*
X127083731Y-97085535D01*
X127125603Y-97029602D01*
X127181323Y-97008819D01*
X127180940Y-97006396D01*
X127190580Y-97004869D01*
X127208529Y-97002025D01*
X127227928Y-97000499D01*
X127236722Y-97000499D01*
X127236724Y-97000499D01*
X127257283Y-96994989D01*
X127269957Y-96992296D01*
X127300241Y-96987500D01*
X127305264Y-96984940D01*
X127318424Y-96979889D01*
X127318356Y-96979725D01*
X127325862Y-96976615D01*
X127325868Y-96976614D01*
X127355108Y-96959731D01*
X127360750Y-96956668D01*
X127399167Y-96937095D01*
X127477675Y-96858587D01*
X127497248Y-96820170D01*
X127500311Y-96814528D01*
X127517194Y-96785288D01*
X127517195Y-96785282D01*
X127520305Y-96777776D01*
X127520469Y-96777844D01*
X127525520Y-96764684D01*
X127528080Y-96759661D01*
X127532876Y-96729377D01*
X127535569Y-96716703D01*
X127541079Y-96696144D01*
X127541079Y-96687348D01*
X127542606Y-96667948D01*
X127545449Y-96650000D01*
X127545449Y-96649999D01*
X127542606Y-96632050D01*
X127541079Y-96612651D01*
X127541079Y-96603858D01*
X127541079Y-96603856D01*
X127540488Y-96601650D01*
X127540534Y-96599719D01*
X127540018Y-96595800D01*
X127540629Y-96595719D01*
X127542151Y-96531803D01*
X127581313Y-96473940D01*
X127645541Y-96446436D01*
X127714444Y-96458022D01*
X127747944Y-96481878D01*
X128124653Y-96858587D01*
X128203161Y-96937095D01*
X128241559Y-96956659D01*
X128247254Y-96959752D01*
X128276460Y-96976614D01*
X128276464Y-96976615D01*
X128283969Y-96979724D01*
X128283901Y-96979887D01*
X128297056Y-96984937D01*
X128299969Y-96986421D01*
X128302087Y-96987500D01*
X128332369Y-96992296D01*
X128345045Y-96994990D01*
X128365604Y-97000499D01*
X128374400Y-97000499D01*
X128393798Y-97002025D01*
X128411748Y-97004869D01*
X128429697Y-97002025D01*
X128449096Y-97000499D01*
X128457890Y-97000499D01*
X128457892Y-97000499D01*
X128478451Y-96994989D01*
X128491125Y-96992296D01*
X128521409Y-96987500D01*
X128526432Y-96984940D01*
X128539592Y-96979889D01*
X128539524Y-96979725D01*
X128547030Y-96976615D01*
X128547036Y-96976614D01*
X128576276Y-96959731D01*
X128581918Y-96956668D01*
X128620335Y-96937095D01*
X128698843Y-96858587D01*
X128718416Y-96820170D01*
X128721479Y-96814528D01*
X128738362Y-96785288D01*
X128738363Y-96785282D01*
X128741473Y-96777776D01*
X128741637Y-96777844D01*
X128746688Y-96764684D01*
X128749248Y-96759661D01*
X128754044Y-96729377D01*
X128756737Y-96716703D01*
X128762247Y-96696144D01*
X128762247Y-96687348D01*
X128763774Y-96667948D01*
X128766617Y-96650000D01*
X128766617Y-96649999D01*
X128763774Y-96632050D01*
X128762247Y-96612651D01*
X128762247Y-96603858D01*
X128762247Y-96603856D01*
X128756738Y-96583297D01*
X128754044Y-96570621D01*
X128749248Y-96540339D01*
X128747870Y-96537635D01*
X128746685Y-96535308D01*
X128741635Y-96522153D01*
X128741472Y-96522221D01*
X128738363Y-96514716D01*
X128738362Y-96514712D01*
X128721500Y-96485506D01*
X128718401Y-96479799D01*
X128711729Y-96466705D01*
X128698843Y-96441413D01*
X128620335Y-96362905D01*
X126771960Y-94514530D01*
X126771959Y-94514529D01*
X126771956Y-94514527D01*
X126692038Y-94468387D01*
X126692037Y-94468386D01*
X126692036Y-94468386D01*
X126602892Y-94444500D01*
X126602891Y-94444500D01*
X125996543Y-94444500D01*
X125929504Y-94424815D01*
X125908866Y-94408185D01*
X125856483Y-94355802D01*
X125776060Y-94316486D01*
X125751391Y-94304426D01*
X125683261Y-94294500D01*
X125683260Y-94294500D01*
X124784281Y-94294500D01*
X124717242Y-94274815D01*
X124671487Y-94222011D01*
X124661543Y-94152853D01*
X124690568Y-94089297D01*
X124696600Y-94082819D01*
X124963550Y-93815869D01*
X125767411Y-93012006D01*
X125828732Y-92978523D01*
X125898423Y-92983507D01*
X125950943Y-93021024D01*
X125986116Y-93063883D01*
X126132674Y-93184161D01*
X126132681Y-93184165D01*
X126299877Y-93273533D01*
X126299878Y-93273533D01*
X126299885Y-93273537D01*
X126481317Y-93328573D01*
X126481316Y-93328573D01*
X126498233Y-93330239D01*
X126670000Y-93347157D01*
X126858683Y-93328573D01*
X127040115Y-93273537D01*
X127207324Y-93184162D01*
X127353883Y-93063883D01*
X127474162Y-92917324D01*
X127563537Y-92750115D01*
X127618573Y-92568683D01*
X127637157Y-92380000D01*
X127633097Y-92338778D01*
X127632500Y-92326624D01*
X127632500Y-91351500D01*
X127652185Y-91284461D01*
X127704989Y-91238706D01*
X127756500Y-91227500D01*
X128113500Y-91227500D01*
X128180539Y-91247185D01*
G37*
G04 #@! TD.AperFunction*
G04 #@! TA.AperFunction,Conductor*
G36*
X109093834Y-102199298D02*
G01*
X109149767Y-102241170D01*
X109174184Y-102306634D01*
X109174500Y-102315480D01*
X109174500Y-102813397D01*
X109184220Y-102862264D01*
X109189760Y-102890117D01*
X109189761Y-102890119D01*
X109190059Y-102890836D01*
X109199500Y-102938295D01*
X109199500Y-103133428D01*
X109219979Y-103209855D01*
X109251559Y-103264553D01*
X109259540Y-103278377D01*
X109259542Y-103278379D01*
X109260739Y-103279939D01*
X109261340Y-103281495D01*
X109263603Y-103285414D01*
X109262991Y-103285766D01*
X109285933Y-103345108D01*
X109285302Y-103371609D01*
X109279500Y-103415682D01*
X109279500Y-103764316D01*
X109285931Y-103813171D01*
X109285932Y-103813173D01*
X109335935Y-103920404D01*
X109419596Y-104004065D01*
X109526827Y-104054068D01*
X109575683Y-104060500D01*
X109575684Y-104060500D01*
X110024317Y-104060500D01*
X110040601Y-104058356D01*
X110073173Y-104054068D01*
X110180404Y-104004065D01*
X110212319Y-103972150D01*
X110273642Y-103938665D01*
X110343334Y-103943649D01*
X110387681Y-103972150D01*
X110427267Y-104011736D01*
X110424443Y-104014559D01*
X110455183Y-104053042D01*
X110462352Y-104122542D01*
X110430808Y-104184886D01*
X110427101Y-104188098D01*
X110427267Y-104188264D01*
X110335935Y-104279595D01*
X110285931Y-104386828D01*
X110279500Y-104435683D01*
X110279500Y-104684491D01*
X110259815Y-104751530D01*
X110207011Y-104797285D01*
X110186059Y-104804667D01*
X110183279Y-104805373D01*
X110169930Y-104809875D01*
X110169885Y-104809876D01*
X110131659Y-104822778D01*
X110125263Y-104823033D01*
X110116754Y-104827001D01*
X110103975Y-104832117D01*
X110099021Y-104833787D01*
X110097802Y-104835107D01*
X110086498Y-104841103D01*
X110053807Y-104856335D01*
X110053674Y-104856415D01*
X110043594Y-104861116D01*
X110040650Y-104862489D01*
X110038739Y-104863380D01*
X109986330Y-104875000D01*
X109597281Y-104875000D01*
X109581095Y-104873939D01*
X109580161Y-104873816D01*
X109573231Y-104872903D01*
X109561048Y-104871666D01*
X109546367Y-104870617D01*
X109476171Y-104877743D01*
X109408905Y-104896626D01*
X109396519Y-104900937D01*
X109385157Y-104904891D01*
X109385156Y-104904891D01*
X109385155Y-104904892D01*
X109310750Y-104958064D01*
X109310747Y-104958067D01*
X109264370Y-105010320D01*
X109248864Y-105030105D01*
X109215015Y-105115070D01*
X109204249Y-105184106D01*
X109204249Y-105184113D01*
X109203553Y-105242584D01*
X109203938Y-105245503D01*
X109204999Y-105261688D01*
X109204999Y-105562440D01*
X109193379Y-105614849D01*
X109188410Y-105625504D01*
X109172581Y-105650901D01*
X109159675Y-105666915D01*
X109127735Y-105727976D01*
X109079219Y-105778255D01*
X109017860Y-105794500D01*
X108326276Y-105794500D01*
X108259237Y-105774815D01*
X108213482Y-105722011D01*
X108203337Y-105654316D01*
X108208532Y-105614849D01*
X108210500Y-105599901D01*
X108210499Y-105240100D01*
X108210499Y-105240096D01*
X108210234Y-105236054D01*
X108211179Y-105235992D01*
X108221269Y-105171208D01*
X108267639Y-105118943D01*
X108316526Y-105102026D01*
X108316449Y-105101554D01*
X108316440Y-105101509D01*
X108316442Y-105101508D01*
X108316414Y-105101333D01*
X108319684Y-105100803D01*
X108371174Y-105089602D01*
X108371190Y-105089598D01*
X108371195Y-105089597D01*
X108381373Y-105087110D01*
X108462085Y-105044100D01*
X108514889Y-104998345D01*
X108532843Y-104980754D01*
X108577490Y-104900937D01*
X108597175Y-104833898D01*
X108605500Y-104776000D01*
X108605500Y-102636480D01*
X108625185Y-102569441D01*
X108641815Y-102548803D01*
X108962819Y-102227798D01*
X109024142Y-102194314D01*
X109093834Y-102199298D01*
G37*
G04 #@! TD.AperFunction*
G04 #@! TA.AperFunction,Conductor*
G36*
X117621398Y-103532487D02*
G01*
X117644847Y-103536201D01*
X117669957Y-103540179D01*
X117672840Y-103540179D01*
X117676216Y-103541170D01*
X117679598Y-103541706D01*
X117679528Y-103542143D01*
X117739879Y-103559864D01*
X117785634Y-103612668D01*
X117795578Y-103681826D01*
X117766553Y-103745382D01*
X117760521Y-103751860D01*
X117659541Y-103852839D01*
X117659535Y-103852847D01*
X117619982Y-103921356D01*
X117619979Y-103921361D01*
X117609714Y-103959673D01*
X117605257Y-103976307D01*
X117599500Y-103997791D01*
X117599500Y-104624166D01*
X117579815Y-104691205D01*
X117563181Y-104711847D01*
X117286846Y-104988181D01*
X117225523Y-105021666D01*
X117199165Y-105024500D01*
X116793482Y-105024500D01*
X116712519Y-105037323D01*
X116699696Y-105039354D01*
X116586658Y-105096950D01*
X116586657Y-105096951D01*
X116586652Y-105096954D01*
X116496954Y-105186652D01*
X116496951Y-105186657D01*
X116496950Y-105186658D01*
X116481593Y-105216796D01*
X116433620Y-105267591D01*
X116371110Y-105284500D01*
X116060599Y-105284500D01*
X115993560Y-105264815D01*
X115967069Y-105239586D01*
X115966902Y-105239754D01*
X115960054Y-105232906D01*
X115959677Y-105232547D01*
X115959632Y-105232484D01*
X115877513Y-105150365D01*
X115773171Y-105099355D01*
X115763506Y-105097947D01*
X115705528Y-105089500D01*
X115294472Y-105089500D01*
X115243740Y-105096891D01*
X115226828Y-105099355D01*
X115122486Y-105150365D01*
X115040364Y-105232487D01*
X114995599Y-105324056D01*
X114948471Y-105375638D01*
X114880937Y-105393552D01*
X114814439Y-105372111D01*
X114771817Y-105322000D01*
X114754330Y-105284500D01*
X114724065Y-105219596D01*
X114640404Y-105135935D01*
X114533173Y-105085932D01*
X114533171Y-105085931D01*
X114533172Y-105085931D01*
X114484317Y-105079500D01*
X114484316Y-105079500D01*
X114135684Y-105079500D01*
X114135683Y-105079500D01*
X114086828Y-105085931D01*
X113979595Y-105135935D01*
X113888264Y-105227267D01*
X113885440Y-105224443D01*
X113846958Y-105255183D01*
X113777458Y-105262352D01*
X113715114Y-105230808D01*
X113711901Y-105227101D01*
X113711736Y-105227267D01*
X113620404Y-105135935D01*
X113571014Y-105112904D01*
X113513173Y-105085932D01*
X113513171Y-105085931D01*
X113513172Y-105085931D01*
X113464317Y-105079500D01*
X113464316Y-105079500D01*
X113115684Y-105079500D01*
X113115683Y-105079500D01*
X113066828Y-105085931D01*
X112959597Y-105135934D01*
X112878613Y-105216918D01*
X112817289Y-105250402D01*
X112771534Y-105251709D01*
X112730002Y-105245131D01*
X112730000Y-105245131D01*
X112702984Y-105249409D01*
X112630347Y-105260914D01*
X112561053Y-105251958D01*
X112523269Y-105226121D01*
X112470902Y-105173754D01*
X112437417Y-105112431D01*
X112442401Y-105042739D01*
X112448708Y-105028598D01*
X112477490Y-104973575D01*
X112497173Y-104906543D01*
X112497173Y-104906542D01*
X112497175Y-104906536D01*
X112505500Y-104848638D01*
X112505500Y-104251362D01*
X112504322Y-104229393D01*
X112502590Y-104213287D01*
X112500837Y-104196979D01*
X112502244Y-104196827D01*
X112507273Y-104134286D01*
X112549637Y-104078724D01*
X112615314Y-104054886D01*
X112639253Y-104055704D01*
X112675683Y-104060500D01*
X112675684Y-104060500D01*
X113124317Y-104060500D01*
X113160746Y-104055704D01*
X113173173Y-104054068D01*
X113213541Y-104035243D01*
X113282617Y-104024751D01*
X113346401Y-104053270D01*
X113359652Y-104066415D01*
X113393474Y-104105448D01*
X113401661Y-104114896D01*
X113418728Y-104132314D01*
X113419246Y-104132843D01*
X113419247Y-104132844D01*
X113419249Y-104132845D01*
X113495834Y-104175684D01*
X113499063Y-104177490D01*
X113566102Y-104197175D01*
X113624000Y-104205500D01*
X113624004Y-104205500D01*
X113713416Y-104205500D01*
X113728266Y-104204963D01*
X113746140Y-104203668D01*
X113746139Y-104203668D01*
X113746154Y-104203667D01*
X113760892Y-104202061D01*
X113760899Y-104202059D01*
X113760917Y-104202058D01*
X113800473Y-104196294D01*
X113818350Y-104195000D01*
X114181650Y-104195000D01*
X114199525Y-104196294D01*
X114239082Y-104202058D01*
X114253860Y-104203668D01*
X114253862Y-104203668D01*
X114253870Y-104203669D01*
X114271733Y-104204963D01*
X114286584Y-104205500D01*
X115725491Y-104205500D01*
X115725500Y-104205500D01*
X115768423Y-104200884D01*
X115837179Y-104213287D01*
X115888318Y-104260896D01*
X115892162Y-104267877D01*
X115912904Y-104308585D01*
X115912909Y-104308592D01*
X115991407Y-104387090D01*
X115991410Y-104387092D01*
X115991413Y-104387095D01*
X116060091Y-104422088D01*
X116090341Y-104437501D01*
X116199998Y-104454869D01*
X116200000Y-104454869D01*
X116200002Y-104454869D01*
X116309658Y-104437501D01*
X116309659Y-104437500D01*
X116309661Y-104437500D01*
X116408587Y-104387095D01*
X116487095Y-104308587D01*
X116537500Y-104209661D01*
X116537500Y-104209659D01*
X116537501Y-104209658D01*
X116554869Y-104100002D01*
X116554869Y-104100000D01*
X116552947Y-104087867D01*
X116561900Y-104018577D01*
X116606895Y-103965123D01*
X116656023Y-103945996D01*
X116709657Y-103937501D01*
X116709658Y-103937500D01*
X116709661Y-103937500D01*
X116808587Y-103887095D01*
X116858018Y-103837663D01*
X116919337Y-103804180D01*
X116989028Y-103809163D01*
X117001980Y-103814856D01*
X117040335Y-103834399D01*
X117040336Y-103834399D01*
X117040338Y-103834400D01*
X117149994Y-103851768D01*
X117149996Y-103851768D01*
X117149998Y-103851768D01*
X117259654Y-103834400D01*
X117259655Y-103834399D01*
X117259657Y-103834399D01*
X117358583Y-103783994D01*
X117437091Y-103705486D01*
X117487496Y-103606560D01*
X117487496Y-103606558D01*
X117491517Y-103598667D01*
X117539491Y-103547871D01*
X117607312Y-103531075D01*
X117621398Y-103532487D01*
G37*
G04 #@! TD.AperFunction*
G04 #@! TA.AperFunction,Conductor*
G36*
X101710732Y-103327382D02*
G01*
X101720838Y-103329392D01*
X101782405Y-103341637D01*
X101805662Y-103348692D01*
X101873192Y-103376664D01*
X101894623Y-103388120D01*
X101953163Y-103427235D01*
X101955393Y-103428725D01*
X101974183Y-103444146D01*
X102025851Y-103495814D01*
X102041272Y-103514604D01*
X102081875Y-103575370D01*
X102093334Y-103596809D01*
X102121304Y-103664336D01*
X102128360Y-103687594D01*
X102133618Y-103714025D01*
X102142209Y-103757214D01*
X102142617Y-103759261D01*
X102145000Y-103783455D01*
X102145000Y-103856541D01*
X102142617Y-103880734D01*
X102128359Y-103952407D01*
X102121303Y-103975666D01*
X102093336Y-104043185D01*
X102081877Y-104064623D01*
X102041274Y-104125390D01*
X102025853Y-104144181D01*
X101974181Y-104195853D01*
X101955391Y-104211274D01*
X101928292Y-104229381D01*
X101895396Y-104251362D01*
X101894625Y-104251877D01*
X101873186Y-104263336D01*
X101805671Y-104291301D01*
X101782421Y-104298355D01*
X101766145Y-104301594D01*
X101766129Y-104301596D01*
X101766130Y-104301597D01*
X101744712Y-104305858D01*
X101710730Y-104312617D01*
X101686542Y-104315000D01*
X101013456Y-104315000D01*
X100989265Y-104312617D01*
X100955286Y-104305858D01*
X100917595Y-104298360D01*
X100894336Y-104291304D01*
X100826809Y-104263334D01*
X100805370Y-104251875D01*
X100802095Y-104249687D01*
X100771706Y-104229381D01*
X100744604Y-104211272D01*
X100725814Y-104195851D01*
X100674147Y-104144184D01*
X100658728Y-104125397D01*
X100621812Y-104070148D01*
X100621810Y-104070145D01*
X100621802Y-104070134D01*
X100605822Y-104049249D01*
X100605816Y-104049242D01*
X100584989Y-104025362D01*
X100584986Y-104025359D01*
X100520041Y-103976324D01*
X100517616Y-103974493D01*
X100454397Y-103944742D01*
X100454395Y-103944741D01*
X100431043Y-103935450D01*
X100431041Y-103935449D01*
X100431040Y-103935449D01*
X100431038Y-103935448D01*
X100422417Y-103933377D01*
X100423040Y-103930783D01*
X100370984Y-103910058D01*
X100330347Y-103853221D01*
X100326889Y-103783437D01*
X100361708Y-103722862D01*
X100423749Y-103690727D01*
X100431991Y-103689409D01*
X100433030Y-103689279D01*
X100433053Y-103689274D01*
X100433058Y-103689274D01*
X100433058Y-103689273D01*
X100457736Y-103684627D01*
X100463227Y-103681826D01*
X100539197Y-103643069D01*
X100539196Y-103643069D01*
X100539203Y-103643066D01*
X100592816Y-103598261D01*
X100631903Y-103554747D01*
X100658724Y-103514605D01*
X100674141Y-103495819D01*
X100725819Y-103444141D01*
X100744597Y-103428730D01*
X100805377Y-103388118D01*
X100826805Y-103376664D01*
X100894332Y-103348694D01*
X100917591Y-103341638D01*
X100989266Y-103327381D01*
X101013456Y-103325000D01*
X101686543Y-103325000D01*
X101710732Y-103327382D01*
G37*
G04 #@! TD.AperFunction*
G04 #@! TA.AperFunction,Conductor*
G36*
X104821717Y-92432685D02*
G01*
X104865162Y-92480704D01*
X104895819Y-92540871D01*
X104895824Y-92540878D01*
X104967265Y-92612319D01*
X105000750Y-92673642D01*
X104995766Y-92743334D01*
X104967265Y-92787681D01*
X104895824Y-92859121D01*
X104895817Y-92859130D01*
X104839122Y-92970399D01*
X104839120Y-92970404D01*
X104824500Y-93062718D01*
X104824500Y-93512281D01*
X104839120Y-93604595D01*
X104839122Y-93604600D01*
X104895817Y-93715869D01*
X104895824Y-93715878D01*
X104984121Y-93804175D01*
X104984130Y-93804182D01*
X105095399Y-93860877D01*
X105095404Y-93860879D01*
X105187719Y-93875500D01*
X105187724Y-93875500D01*
X105611667Y-93875500D01*
X105678706Y-93895185D01*
X105699348Y-93911819D01*
X106272040Y-94484511D01*
X106327989Y-94540460D01*
X106327991Y-94540461D01*
X106327995Y-94540464D01*
X106396504Y-94580017D01*
X106396511Y-94580021D01*
X106472938Y-94600500D01*
X106552062Y-94600500D01*
X108287956Y-94600500D01*
X108344248Y-94614013D01*
X108390343Y-94637500D01*
X108390344Y-94637500D01*
X108390346Y-94637501D01*
X108500002Y-94654869D01*
X108500004Y-94654869D01*
X108500006Y-94654869D01*
X108609662Y-94637501D01*
X108609663Y-94637500D01*
X108609665Y-94637500D01*
X108708591Y-94587095D01*
X108787099Y-94508587D01*
X108837504Y-94409661D01*
X108837504Y-94409659D01*
X108837505Y-94409658D01*
X108854873Y-94300002D01*
X108854873Y-94299997D01*
X108837505Y-94190341D01*
X108832287Y-94180100D01*
X108787099Y-94091413D01*
X108787096Y-94091410D01*
X108787094Y-94091407D01*
X108745551Y-94049864D01*
X108712066Y-93988541D01*
X108717050Y-93918849D01*
X108745551Y-93874502D01*
X108768565Y-93851488D01*
X108804180Y-93815873D01*
X108804182Y-93815870D01*
X108809920Y-93807974D01*
X108812608Y-93809927D01*
X108848816Y-93771552D01*
X108891984Y-93756138D01*
X108899998Y-93754868D01*
X108900000Y-93754869D01*
X108958645Y-93745580D01*
X109006103Y-93738064D01*
X109075396Y-93747019D01*
X109128848Y-93792015D01*
X109149487Y-93858767D01*
X109149500Y-93860537D01*
X109149500Y-94969752D01*
X109161131Y-95028229D01*
X109161132Y-95028230D01*
X109205447Y-95094552D01*
X109271769Y-95138867D01*
X109272949Y-95139356D01*
X109275126Y-95141110D01*
X109281923Y-95145652D01*
X109281516Y-95146259D01*
X109327354Y-95183195D01*
X109349421Y-95249489D01*
X109349500Y-95253918D01*
X109349500Y-95999562D01*
X109357768Y-96030417D01*
X109369979Y-96075990D01*
X109369980Y-96075991D01*
X109380829Y-96094782D01*
X109397302Y-96162683D01*
X109374449Y-96228709D01*
X109319528Y-96271900D01*
X109249974Y-96278541D01*
X109217148Y-96267267D01*
X109109658Y-96212498D01*
X109000002Y-96195131D01*
X108999998Y-96195131D01*
X108890341Y-96212498D01*
X108791414Y-96262904D01*
X108791407Y-96262909D01*
X108712909Y-96341407D01*
X108712904Y-96341414D01*
X108662498Y-96440341D01*
X108645131Y-96549997D01*
X108645131Y-96550002D01*
X108662498Y-96659658D01*
X108712904Y-96758585D01*
X108712909Y-96758592D01*
X108791407Y-96837090D01*
X108791410Y-96837092D01*
X108791413Y-96837095D01*
X108890339Y-96887500D01*
X108890340Y-96887500D01*
X108894900Y-96888982D01*
X108944260Y-96919231D01*
X109138181Y-97113152D01*
X109171666Y-97174475D01*
X109174500Y-97200833D01*
X109174500Y-97913397D01*
X109189760Y-97990118D01*
X109189761Y-97990120D01*
X109212405Y-98024008D01*
X109243934Y-98071195D01*
X109245438Y-98073445D01*
X109246797Y-98077786D01*
X109251552Y-98079560D01*
X109334883Y-98135240D01*
X109334886Y-98135240D01*
X109334887Y-98135241D01*
X109353896Y-98139022D01*
X109411599Y-98150500D01*
X109588400Y-98150499D01*
X109665117Y-98135240D01*
X109681107Y-98124555D01*
X109747783Y-98103676D01*
X109815164Y-98122159D01*
X109818871Y-98124541D01*
X109831197Y-98132777D01*
X109834883Y-98135240D01*
X109834887Y-98135241D01*
X109853896Y-98139022D01*
X109911599Y-98150500D01*
X110088400Y-98150499D01*
X110165117Y-98135240D01*
X110165119Y-98135238D01*
X110176404Y-98130565D01*
X110177781Y-98133890D01*
X110224418Y-98119282D01*
X110282940Y-98132777D01*
X110291411Y-98137093D01*
X110291413Y-98137095D01*
X110390339Y-98187500D01*
X110390341Y-98187500D01*
X110390343Y-98187501D01*
X110499998Y-98204869D01*
X110500000Y-98204869D01*
X110500002Y-98204869D01*
X110609656Y-98187501D01*
X110609656Y-98187500D01*
X110609661Y-98187500D01*
X110672206Y-98155631D01*
X110740873Y-98142736D01*
X110805614Y-98169012D01*
X110816180Y-98178436D01*
X110816408Y-98178664D01*
X110816411Y-98178666D01*
X110816414Y-98178669D01*
X110867835Y-98204869D01*
X110915342Y-98229075D01*
X111024999Y-98246443D01*
X111025001Y-98246443D01*
X111025003Y-98246443D01*
X111134659Y-98229075D01*
X111134660Y-98229074D01*
X111134662Y-98229074D01*
X111233588Y-98178669D01*
X111239748Y-98172507D01*
X111301069Y-98139022D01*
X111351624Y-98138570D01*
X111411599Y-98150500D01*
X111588400Y-98150499D01*
X111665117Y-98135240D01*
X111681107Y-98124555D01*
X111747783Y-98103676D01*
X111815164Y-98122159D01*
X111818871Y-98124541D01*
X111831197Y-98132777D01*
X111834883Y-98135240D01*
X111834887Y-98135241D01*
X111853896Y-98139022D01*
X111911599Y-98150500D01*
X112088400Y-98150499D01*
X112165117Y-98135240D01*
X112181107Y-98124555D01*
X112247783Y-98103676D01*
X112315164Y-98122159D01*
X112318871Y-98124541D01*
X112331197Y-98132777D01*
X112334883Y-98135240D01*
X112334887Y-98135241D01*
X112353896Y-98139022D01*
X112411599Y-98150500D01*
X112588400Y-98150499D01*
X112665117Y-98135240D01*
X112665118Y-98135238D01*
X112665121Y-98135238D01*
X112712356Y-98103676D01*
X112748446Y-98079561D01*
X112815121Y-98058683D01*
X112882502Y-98077167D01*
X112929192Y-98129145D01*
X112940369Y-98198115D01*
X112920439Y-98251553D01*
X112864759Y-98334884D01*
X112864758Y-98334887D01*
X112849500Y-98411595D01*
X112849500Y-98588398D01*
X112864760Y-98665119D01*
X112875446Y-98681111D01*
X112896323Y-98747788D01*
X112877837Y-98815168D01*
X112875446Y-98818889D01*
X112864759Y-98834882D01*
X112849500Y-98911596D01*
X112849500Y-99088398D01*
X112864760Y-99165119D01*
X112875446Y-99181111D01*
X112896323Y-99247788D01*
X112877837Y-99315168D01*
X112875446Y-99318889D01*
X112864759Y-99334882D01*
X112849500Y-99411596D01*
X112849500Y-99588398D01*
X112864760Y-99665119D01*
X112875446Y-99681111D01*
X112896323Y-99747788D01*
X112877837Y-99815168D01*
X112875446Y-99818889D01*
X112864759Y-99834882D01*
X112849500Y-99911596D01*
X112849500Y-100088398D01*
X112864760Y-100165119D01*
X112875446Y-100181111D01*
X112896323Y-100247788D01*
X112877837Y-100315168D01*
X112875446Y-100318889D01*
X112864759Y-100334882D01*
X112849500Y-100411596D01*
X112849500Y-100588398D01*
X112864760Y-100665119D01*
X112875446Y-100681111D01*
X112896323Y-100747788D01*
X112877837Y-100815168D01*
X112875446Y-100818889D01*
X112864759Y-100834882D01*
X112849500Y-100911596D01*
X112849500Y-101088398D01*
X112864760Y-101165119D01*
X112875446Y-101181111D01*
X112896323Y-101247788D01*
X112877837Y-101315168D01*
X112875446Y-101318889D01*
X112864759Y-101334882D01*
X112849500Y-101411596D01*
X112849500Y-101588398D01*
X112864760Y-101665118D01*
X112864761Y-101665120D01*
X112920438Y-101748445D01*
X112921797Y-101752786D01*
X112926552Y-101754560D01*
X113009883Y-101810240D01*
X113009886Y-101810240D01*
X113009887Y-101810241D01*
X113048241Y-101817870D01*
X113086599Y-101825500D01*
X113179938Y-101825499D01*
X113246975Y-101845183D01*
X113292731Y-101897986D01*
X113302675Y-101967145D01*
X113296531Y-102009879D01*
X113294500Y-102024002D01*
X113294500Y-103000510D01*
X113274815Y-103067549D01*
X113222011Y-103113304D01*
X113154316Y-103123449D01*
X113124318Y-103119500D01*
X113124316Y-103119500D01*
X112888959Y-103119500D01*
X112821920Y-103099815D01*
X112776165Y-103047011D01*
X112766221Y-102977853D01*
X112785856Y-102926610D01*
X112788010Y-102923386D01*
X112810240Y-102890117D01*
X112825500Y-102813401D01*
X112825499Y-102086600D01*
X112810240Y-102009883D01*
X112810239Y-102009881D01*
X112810238Y-102009879D01*
X112779210Y-101963444D01*
X112754560Y-101926552D01*
X112753201Y-101922211D01*
X112748446Y-101920438D01*
X112665119Y-101864761D01*
X112665112Y-101864758D01*
X112588404Y-101849500D01*
X112411601Y-101849500D01*
X112334880Y-101864760D01*
X112318889Y-101875446D01*
X112252212Y-101896323D01*
X112184832Y-101877837D01*
X112181111Y-101875446D01*
X112165117Y-101864759D01*
X112088403Y-101849500D01*
X111911601Y-101849500D01*
X111834880Y-101864760D01*
X111818889Y-101875446D01*
X111752212Y-101896323D01*
X111684832Y-101877837D01*
X111681111Y-101875446D01*
X111665117Y-101864759D01*
X111588403Y-101849500D01*
X111411601Y-101849500D01*
X111334880Y-101864760D01*
X111318889Y-101875446D01*
X111252212Y-101896323D01*
X111184832Y-101877837D01*
X111181111Y-101875446D01*
X111165117Y-101864759D01*
X111088403Y-101849500D01*
X110911601Y-101849500D01*
X110834880Y-101864760D01*
X110818889Y-101875446D01*
X110752212Y-101896323D01*
X110684832Y-101877837D01*
X110681111Y-101875446D01*
X110665117Y-101864759D01*
X110588403Y-101849500D01*
X110411601Y-101849500D01*
X110334880Y-101864760D01*
X110318889Y-101875446D01*
X110252212Y-101896323D01*
X110184832Y-101877837D01*
X110181111Y-101875446D01*
X110165117Y-101864759D01*
X110088403Y-101849500D01*
X109911601Y-101849500D01*
X109834880Y-101864760D01*
X109818889Y-101875446D01*
X109752212Y-101896323D01*
X109684832Y-101877837D01*
X109681111Y-101875446D01*
X109665117Y-101864759D01*
X109588403Y-101849500D01*
X109454000Y-101849500D01*
X109386961Y-101829815D01*
X109341206Y-101777011D01*
X109330000Y-101725500D01*
X109330000Y-101717030D01*
X109330494Y-101705974D01*
X109331726Y-101692202D01*
X109330964Y-101690450D01*
X109330000Y-101675015D01*
X109330000Y-100934608D01*
X109329972Y-100932495D01*
X109329926Y-100929094D01*
X109329859Y-100926614D01*
X109329748Y-100922462D01*
X109329748Y-100922457D01*
X109319926Y-100869377D01*
X109318119Y-100859610D01*
X109318118Y-100859608D01*
X109318117Y-100859601D01*
X109294873Y-100793711D01*
X109285075Y-100770560D01*
X109227147Y-100699789D01*
X109227146Y-100699788D01*
X109227145Y-100699787D01*
X109198429Y-100677480D01*
X109157563Y-100620809D01*
X109150499Y-100579560D01*
X109150499Y-100411600D01*
X109135240Y-100334883D01*
X109135239Y-100334881D01*
X109135238Y-100334878D01*
X109124555Y-100318891D01*
X109103676Y-100252214D01*
X109122160Y-100184833D01*
X109124517Y-100181164D01*
X109135240Y-100165117D01*
X109150500Y-100088401D01*
X109150499Y-99911600D01*
X109135240Y-99834883D01*
X109135239Y-99834881D01*
X109135238Y-99834879D01*
X109092026Y-99770209D01*
X109077112Y-99747888D01*
X108990117Y-99689760D01*
X108990115Y-99689759D01*
X108990112Y-99689758D01*
X108913404Y-99674500D01*
X108186602Y-99674500D01*
X108134654Y-99684833D01*
X108109883Y-99689760D01*
X108109882Y-99689760D01*
X108109879Y-99689761D01*
X108109151Y-99690063D01*
X108061703Y-99699500D01*
X107893929Y-99699500D01*
X107826890Y-99679815D01*
X107806248Y-99663181D01*
X107152611Y-99009543D01*
X107152610Y-99009542D01*
X107152607Y-99009540D01*
X107138466Y-99001376D01*
X107127821Y-98995230D01*
X107079607Y-98944661D01*
X107066387Y-98876053D01*
X107068207Y-98863658D01*
X107070500Y-98852133D01*
X107070499Y-98647868D01*
X107054515Y-98567505D01*
X107054513Y-98567502D01*
X107049841Y-98556222D01*
X107051285Y-98555623D01*
X107034563Y-98502211D01*
X107050517Y-98444056D01*
X107049842Y-98443777D01*
X107052070Y-98438396D01*
X107053049Y-98434831D01*
X107054452Y-98432647D01*
X107054516Y-98432493D01*
X107058673Y-98411595D01*
X107949500Y-98411595D01*
X107949500Y-98588398D01*
X107964760Y-98665119D01*
X107975446Y-98681111D01*
X107996323Y-98747788D01*
X107977837Y-98815168D01*
X107975446Y-98818889D01*
X107964759Y-98834882D01*
X107949500Y-98911596D01*
X107949500Y-99088398D01*
X107964760Y-99165118D01*
X107964761Y-99165120D01*
X107987902Y-99199752D01*
X108022888Y-99252112D01*
X108109883Y-99310240D01*
X108109886Y-99310240D01*
X108109887Y-99310241D01*
X108134657Y-99315168D01*
X108186599Y-99325500D01*
X108913400Y-99325499D01*
X108990117Y-99310240D01*
X109077112Y-99252112D01*
X109135240Y-99165117D01*
X109150500Y-99088401D01*
X109150499Y-98911600D01*
X109135240Y-98834883D01*
X109135239Y-98834881D01*
X109135238Y-98834878D01*
X109124555Y-98818891D01*
X109103676Y-98752214D01*
X109122160Y-98684833D01*
X109124517Y-98681164D01*
X109135240Y-98665117D01*
X109150500Y-98588401D01*
X109150499Y-98411600D01*
X109135240Y-98334883D01*
X109135239Y-98334881D01*
X109135238Y-98334879D01*
X109095526Y-98275447D01*
X109079560Y-98251552D01*
X109078201Y-98247211D01*
X109073446Y-98245438D01*
X108990119Y-98189761D01*
X108990112Y-98189758D01*
X108913404Y-98174500D01*
X108186602Y-98174500D01*
X108109881Y-98189760D01*
X108109879Y-98189761D01*
X108022888Y-98247888D01*
X107964760Y-98334883D01*
X107964758Y-98334887D01*
X107949500Y-98411595D01*
X107058673Y-98411595D01*
X107067675Y-98366336D01*
X107070500Y-98352133D01*
X107070499Y-98147868D01*
X107054515Y-98067505D01*
X107054513Y-98067502D01*
X107049841Y-98056222D01*
X107051285Y-98055623D01*
X107034563Y-98002211D01*
X107053049Y-97934831D01*
X107055438Y-97931113D01*
X107061246Y-97922420D01*
X107114857Y-97877613D01*
X107174459Y-97867720D01*
X107187600Y-97868795D01*
X107256758Y-97858851D01*
X107281373Y-97853759D01*
X107362085Y-97810749D01*
X107414889Y-97764994D01*
X107432843Y-97747403D01*
X107477490Y-97667586D01*
X107497175Y-97600547D01*
X107505500Y-97542649D01*
X107505500Y-96624000D01*
X107500803Y-96580316D01*
X107495109Y-96554143D01*
X107489602Y-96528825D01*
X107488781Y-96525466D01*
X107487110Y-96518627D01*
X107444100Y-96437915D01*
X107398345Y-96385111D01*
X107398339Y-96385104D01*
X107380757Y-96367160D01*
X107380756Y-96367159D01*
X107380754Y-96367157D01*
X107380752Y-96367156D01*
X107380750Y-96367154D01*
X107300940Y-96322511D01*
X107300935Y-96322509D01*
X107233903Y-96302826D01*
X107233899Y-96302825D01*
X107233898Y-96302825D01*
X107176000Y-96294500D01*
X107171540Y-96294500D01*
X107171099Y-96294503D01*
X107167847Y-96294533D01*
X107163451Y-96294611D01*
X107163441Y-96294612D01*
X107102226Y-96305093D01*
X107035939Y-96327152D01*
X107012609Y-96336538D01*
X106940816Y-96393190D01*
X106940814Y-96393192D01*
X106907849Y-96434097D01*
X106905367Y-96435819D01*
X106903132Y-96439165D01*
X106897556Y-96446754D01*
X106896970Y-96447598D01*
X106894472Y-96451807D01*
X106890943Y-96457405D01*
X106869238Y-96489889D01*
X106815626Y-96534695D01*
X106766136Y-96544999D01*
X105700318Y-96544999D01*
X105676126Y-96542616D01*
X105649241Y-96537268D01*
X105634630Y-96533423D01*
X105627156Y-96530960D01*
X105627157Y-96530960D01*
X105603505Y-96525072D01*
X105591476Y-96522078D01*
X105591474Y-96522077D01*
X105591469Y-96522077D01*
X105536347Y-96520600D01*
X105469859Y-96499127D01*
X105425535Y-96445116D01*
X105424660Y-96442576D01*
X105421663Y-96435342D01*
X105421663Y-96435341D01*
X105362090Y-96332158D01*
X105277842Y-96247910D01*
X105219940Y-96214480D01*
X105174660Y-96188337D01*
X105117116Y-96172918D01*
X105059573Y-96157500D01*
X104940427Y-96157500D01*
X104825339Y-96188337D01*
X104722158Y-96247910D01*
X104722154Y-96247913D01*
X104677082Y-96292985D01*
X104615759Y-96326469D01*
X104554466Y-96324280D01*
X104481405Y-96302826D01*
X104480756Y-96302732D01*
X104423500Y-96294500D01*
X100435196Y-96294500D01*
X100430748Y-96294965D01*
X100392666Y-96298948D01*
X100342470Y-96309567D01*
X100342455Y-96309570D01*
X100342448Y-96309572D01*
X100338563Y-96310486D01*
X100333388Y-96311704D01*
X100308556Y-96324574D01*
X100239978Y-96337944D01*
X100175057Y-96312115D01*
X100134407Y-96255288D01*
X100127500Y-96214480D01*
X100127500Y-94022545D01*
X100147185Y-93955506D01*
X100199989Y-93909751D01*
X100269147Y-93899807D01*
X100332703Y-93928832D01*
X100339181Y-93934864D01*
X100391407Y-93987090D01*
X100391410Y-93987092D01*
X100391413Y-93987095D01*
X100468770Y-94026510D01*
X100490341Y-94037501D01*
X100599998Y-94054869D01*
X100600000Y-94054869D01*
X100600002Y-94054869D01*
X100709657Y-94037501D01*
X100709658Y-94037500D01*
X100709661Y-94037500D01*
X100755755Y-94014013D01*
X100812048Y-94000500D01*
X100824560Y-94000500D01*
X100824562Y-94000500D01*
X100900989Y-93980021D01*
X100969511Y-93940460D01*
X101025460Y-93884511D01*
X101093152Y-93816819D01*
X101154475Y-93783334D01*
X101180833Y-93780500D01*
X101405522Y-93780500D01*
X101405528Y-93780500D01*
X101473170Y-93770645D01*
X101577511Y-93719636D01*
X101659636Y-93637511D01*
X101710645Y-93533170D01*
X101720500Y-93465528D01*
X101720500Y-93104472D01*
X101710645Y-93036830D01*
X101659636Y-92932489D01*
X101659634Y-92932487D01*
X101659634Y-92932486D01*
X101614829Y-92887681D01*
X101581344Y-92826358D01*
X101586328Y-92756666D01*
X101614829Y-92712319D01*
X101659634Y-92667513D01*
X101659636Y-92667511D01*
X101701176Y-92582538D01*
X101748303Y-92530958D01*
X101812576Y-92513000D01*
X101954678Y-92513000D01*
X102021717Y-92532685D01*
X102065162Y-92580704D01*
X102095819Y-92640871D01*
X102095824Y-92640878D01*
X102167265Y-92712319D01*
X102200750Y-92773642D01*
X102195766Y-92843334D01*
X102167265Y-92887681D01*
X102095824Y-92959121D01*
X102095817Y-92959130D01*
X102039122Y-93070399D01*
X102039120Y-93070404D01*
X102024500Y-93162718D01*
X102024500Y-93612281D01*
X102039120Y-93704595D01*
X102039122Y-93704600D01*
X102095817Y-93815869D01*
X102095824Y-93815878D01*
X102184121Y-93904175D01*
X102184130Y-93904182D01*
X102295399Y-93960877D01*
X102304686Y-93963895D01*
X102304250Y-93965234D01*
X102358024Y-93990720D01*
X102394961Y-94050028D01*
X102399500Y-94083271D01*
X102399500Y-94139562D01*
X102410362Y-94180100D01*
X102419979Y-94215990D01*
X102429499Y-94232479D01*
X102432052Y-94236900D01*
X102448912Y-94266102D01*
X102459539Y-94284509D01*
X102459541Y-94284512D01*
X103030768Y-94855739D01*
X103061016Y-94905096D01*
X103062498Y-94909656D01*
X103062499Y-94909659D01*
X103062500Y-94909661D01*
X103112905Y-95008587D01*
X103112907Y-95008589D01*
X103112909Y-95008592D01*
X103191407Y-95087090D01*
X103191410Y-95087092D01*
X103191413Y-95087095D01*
X103290339Y-95137500D01*
X103290341Y-95137501D01*
X103399998Y-95154869D01*
X103400000Y-95154869D01*
X103400002Y-95154869D01*
X103509658Y-95137501D01*
X103509659Y-95137500D01*
X103509661Y-95137500D01*
X103608587Y-95087095D01*
X103687095Y-95008587D01*
X103737500Y-94909661D01*
X103737500Y-94909659D01*
X103737501Y-94909658D01*
X103754869Y-94800002D01*
X103754869Y-94799997D01*
X103737501Y-94690341D01*
X103710577Y-94637500D01*
X103687095Y-94591413D01*
X103687092Y-94591410D01*
X103687090Y-94591407D01*
X103608592Y-94512909D01*
X103608589Y-94512907D01*
X103608587Y-94512905D01*
X103509661Y-94462500D01*
X103509659Y-94462499D01*
X103509656Y-94462498D01*
X103505096Y-94461016D01*
X103455739Y-94430768D01*
X103146613Y-94121642D01*
X103113128Y-94060319D01*
X103118112Y-93990627D01*
X103159984Y-93934694D01*
X103177983Y-93923485D01*
X103215873Y-93904180D01*
X103304180Y-93815873D01*
X103354639Y-93716843D01*
X103360877Y-93704600D01*
X103360877Y-93704599D01*
X103360878Y-93704598D01*
X103370193Y-93645778D01*
X103400122Y-93582645D01*
X103459433Y-93545713D01*
X103529296Y-93546710D01*
X103580348Y-93577496D01*
X103622487Y-93619635D01*
X103622488Y-93619635D01*
X103622489Y-93619636D01*
X103680478Y-93647985D01*
X103732060Y-93695111D01*
X103749975Y-93762645D01*
X103748491Y-93778782D01*
X103745131Y-93799996D01*
X103745131Y-93800002D01*
X103762498Y-93909658D01*
X103812904Y-94008585D01*
X103812909Y-94008592D01*
X103891407Y-94087090D01*
X103891410Y-94087092D01*
X103891413Y-94087095D01*
X103973853Y-94129100D01*
X103990341Y-94137501D01*
X104099998Y-94154869D01*
X104100000Y-94154869D01*
X104100002Y-94154869D01*
X104209658Y-94137501D01*
X104209659Y-94137500D01*
X104209661Y-94137500D01*
X104308587Y-94087095D01*
X104387095Y-94008587D01*
X104437500Y-93909661D01*
X104437500Y-93909659D01*
X104437501Y-93909658D01*
X104454869Y-93800002D01*
X104454869Y-93799997D01*
X104437500Y-93690338D01*
X104434286Y-93684029D01*
X104421391Y-93615360D01*
X104447669Y-93550620D01*
X104457086Y-93540060D01*
X104459636Y-93537511D01*
X104510645Y-93433170D01*
X104520500Y-93365528D01*
X104520500Y-93004472D01*
X104510645Y-92936830D01*
X104459636Y-92832489D01*
X104459634Y-92832487D01*
X104459634Y-92832486D01*
X104414829Y-92787681D01*
X104381344Y-92726358D01*
X104386328Y-92656666D01*
X104414829Y-92612319D01*
X104459634Y-92567513D01*
X104459636Y-92567511D01*
X104501176Y-92482538D01*
X104548303Y-92430958D01*
X104612576Y-92413000D01*
X104754678Y-92413000D01*
X104821717Y-92432685D01*
G37*
G04 #@! TD.AperFunction*
G04 #@! TA.AperFunction,Conductor*
G36*
X120934527Y-96472427D02*
G01*
X121000247Y-96485499D01*
X121000250Y-96485500D01*
X121000252Y-96485500D01*
X121090500Y-96485500D01*
X121157539Y-96505185D01*
X121203294Y-96557989D01*
X121214500Y-96609500D01*
X121214500Y-96699752D01*
X121228515Y-96770209D01*
X121225737Y-96770761D01*
X121231245Y-96822028D01*
X121227569Y-96834544D01*
X121214500Y-96900247D01*
X121214500Y-97199752D01*
X121228515Y-97270209D01*
X121225737Y-97270761D01*
X121231245Y-97322028D01*
X121227569Y-97334544D01*
X121214500Y-97400247D01*
X121214500Y-97666684D01*
X121194815Y-97733723D01*
X121178181Y-97754365D01*
X121111521Y-97821024D01*
X121111516Y-97821031D01*
X121061110Y-97919958D01*
X121043743Y-98029614D01*
X121043743Y-98029619D01*
X121061110Y-98139275D01*
X121111516Y-98238202D01*
X121111521Y-98238209D01*
X121178325Y-98305013D01*
X121211810Y-98366336D01*
X121213430Y-98394160D01*
X121214500Y-98394160D01*
X121214500Y-98699752D01*
X121228515Y-98770209D01*
X121225737Y-98770761D01*
X121231245Y-98822028D01*
X121227569Y-98834544D01*
X121214500Y-98900247D01*
X121214500Y-99199752D01*
X121228515Y-99270209D01*
X121225737Y-99270761D01*
X121231245Y-99322028D01*
X121227569Y-99334544D01*
X121214500Y-99400247D01*
X121214500Y-99699752D01*
X121228515Y-99770209D01*
X121225737Y-99770761D01*
X121231245Y-99822028D01*
X121227569Y-99834544D01*
X121214500Y-99900247D01*
X121214500Y-100201254D01*
X121194815Y-100268293D01*
X121177283Y-100289824D01*
X121167160Y-100299741D01*
X121167154Y-100299749D01*
X121122511Y-100379559D01*
X121122509Y-100379564D01*
X121102826Y-100446596D01*
X121102825Y-100446601D01*
X121102825Y-100446602D01*
X121097043Y-100486819D01*
X121094500Y-100504503D01*
X121094500Y-101095507D01*
X121099197Y-101139186D01*
X121110397Y-101190674D01*
X121112890Y-101200872D01*
X121112891Y-101200875D01*
X121116137Y-101206967D01*
X121155900Y-101281585D01*
X121155903Y-101281589D01*
X121155905Y-101281591D01*
X121184212Y-101314259D01*
X121213238Y-101377814D01*
X121214500Y-101395462D01*
X121214500Y-101699752D01*
X121228515Y-101770209D01*
X121225737Y-101770761D01*
X121231245Y-101822028D01*
X121227569Y-101834544D01*
X121214500Y-101900247D01*
X121214500Y-101990500D01*
X121194815Y-102057539D01*
X121142011Y-102103294D01*
X121090500Y-102114500D01*
X121000249Y-102114500D01*
X120929791Y-102128515D01*
X120929238Y-102125737D01*
X120877972Y-102131245D01*
X120865455Y-102127569D01*
X120799751Y-102114500D01*
X120799748Y-102114500D01*
X120500252Y-102114500D01*
X120500249Y-102114500D01*
X120429791Y-102128515D01*
X120429238Y-102125737D01*
X120377972Y-102131245D01*
X120365455Y-102127569D01*
X120299751Y-102114500D01*
X120299748Y-102114500D01*
X120000252Y-102114500D01*
X120000249Y-102114500D01*
X119929791Y-102128515D01*
X119929238Y-102125737D01*
X119877972Y-102131245D01*
X119865455Y-102127569D01*
X119799751Y-102114500D01*
X119799748Y-102114500D01*
X119500252Y-102114500D01*
X119500249Y-102114500D01*
X119429791Y-102128515D01*
X119429238Y-102125737D01*
X119377972Y-102131245D01*
X119365455Y-102127569D01*
X119299751Y-102114500D01*
X119299748Y-102114500D01*
X119000252Y-102114500D01*
X119000249Y-102114500D01*
X118929791Y-102128515D01*
X118929238Y-102125737D01*
X118877972Y-102131245D01*
X118865455Y-102127569D01*
X118799751Y-102114500D01*
X118799748Y-102114500D01*
X118500252Y-102114500D01*
X118500249Y-102114500D01*
X118429791Y-102128515D01*
X118429238Y-102125737D01*
X118377972Y-102131245D01*
X118365455Y-102127569D01*
X118299751Y-102114500D01*
X118299748Y-102114500D01*
X118000252Y-102114500D01*
X118000249Y-102114500D01*
X117929791Y-102128515D01*
X117929238Y-102125737D01*
X117877972Y-102131245D01*
X117865455Y-102127569D01*
X117799751Y-102114500D01*
X117799748Y-102114500D01*
X117500252Y-102114500D01*
X117500249Y-102114500D01*
X117429791Y-102128515D01*
X117429238Y-102125737D01*
X117377972Y-102131245D01*
X117365455Y-102127569D01*
X117299751Y-102114500D01*
X117299748Y-102114500D01*
X117000252Y-102114500D01*
X117000249Y-102114500D01*
X116929791Y-102128515D01*
X116929238Y-102125737D01*
X116877972Y-102131245D01*
X116865455Y-102127569D01*
X116799751Y-102114500D01*
X116799748Y-102114500D01*
X116500252Y-102114500D01*
X116500249Y-102114500D01*
X116429791Y-102128515D01*
X116429238Y-102125737D01*
X116377972Y-102131245D01*
X116365455Y-102127569D01*
X116299751Y-102114500D01*
X116299748Y-102114500D01*
X116049170Y-102114500D01*
X115982131Y-102094815D01*
X115952030Y-102067570D01*
X115930660Y-102040634D01*
X115930648Y-102040620D01*
X115930642Y-102040613D01*
X115913844Y-102021915D01*
X115836034Y-101973854D01*
X115836033Y-101973853D01*
X115836029Y-101973851D01*
X115828762Y-101971371D01*
X115771677Y-101931084D01*
X115745435Y-101866330D01*
X115758337Y-101797725D01*
X115762091Y-101790356D01*
X115762094Y-101790354D01*
X115812499Y-101691428D01*
X115812654Y-101690450D01*
X115829868Y-101581769D01*
X115829868Y-101581764D01*
X115812500Y-101472108D01*
X115761425Y-101371867D01*
X115748529Y-101303198D01*
X115761423Y-101259282D01*
X115807923Y-101168022D01*
X115808384Y-101165112D01*
X115825292Y-101058363D01*
X115825292Y-101058358D01*
X115807924Y-100948704D01*
X115807923Y-100948702D01*
X115807923Y-100948700D01*
X115767504Y-100869373D01*
X115754609Y-100800708D01*
X115767503Y-100756793D01*
X115812724Y-100668042D01*
X115814485Y-100656926D01*
X115830093Y-100558383D01*
X115830093Y-100558378D01*
X115812725Y-100448724D01*
X115812724Y-100448722D01*
X115812724Y-100448720D01*
X115769781Y-100364439D01*
X115756886Y-100295774D01*
X115769780Y-100251859D01*
X115812488Y-100168040D01*
X115812951Y-100165117D01*
X115829857Y-100058381D01*
X115829857Y-100058376D01*
X115812489Y-99948722D01*
X115812488Y-99948720D01*
X115812488Y-99948718D01*
X115769668Y-99864678D01*
X115756773Y-99796014D01*
X115769667Y-99752099D01*
X115812499Y-99668038D01*
X115812962Y-99665119D01*
X115829868Y-99558379D01*
X115829868Y-99558374D01*
X115812500Y-99448720D01*
X115812499Y-99448718D01*
X115812499Y-99448716D01*
X115762094Y-99349790D01*
X115762090Y-99349786D01*
X115759448Y-99344600D01*
X115746552Y-99275931D01*
X115759448Y-99232010D01*
X115762090Y-99226823D01*
X115762094Y-99226820D01*
X115812499Y-99127894D01*
X115812928Y-99125185D01*
X115829868Y-99018235D01*
X115829868Y-99018230D01*
X115812500Y-98908576D01*
X115812499Y-98908574D01*
X115812499Y-98908572D01*
X115769674Y-98824522D01*
X115756779Y-98755859D01*
X115769672Y-98711945D01*
X115812499Y-98627894D01*
X115818754Y-98588401D01*
X115829868Y-98518235D01*
X115829868Y-98518230D01*
X115812500Y-98408574D01*
X115789004Y-98362461D01*
X115769674Y-98324524D01*
X115756779Y-98255856D01*
X115769673Y-98211941D01*
X115812499Y-98127891D01*
X115816288Y-98103968D01*
X115829868Y-98018232D01*
X115829868Y-98018227D01*
X115812500Y-97908571D01*
X115801558Y-97887096D01*
X115762094Y-97809643D01*
X115762091Y-97809640D01*
X115762089Y-97809637D01*
X115683585Y-97731133D01*
X115653205Y-97715654D01*
X115602409Y-97667680D01*
X115585500Y-97605170D01*
X115585500Y-97490583D01*
X115605185Y-97423544D01*
X115651188Y-97381150D01*
X115654777Y-97379237D01*
X115662085Y-97375343D01*
X115714889Y-97329588D01*
X115732843Y-97311997D01*
X115777490Y-97232180D01*
X115797175Y-97165141D01*
X115805500Y-97107243D01*
X115805500Y-96992756D01*
X115805426Y-96987248D01*
X115805248Y-96980609D01*
X115797393Y-96938157D01*
X115793617Y-96917750D01*
X115793616Y-96917747D01*
X115770376Y-96851872D01*
X115770363Y-96851840D01*
X115766101Y-96841769D01*
X115760573Y-96828708D01*
X115702642Y-96757939D01*
X115702639Y-96757937D01*
X115702637Y-96757934D01*
X115647489Y-96715095D01*
X115647470Y-96715082D01*
X115647464Y-96715077D01*
X115642804Y-96711894D01*
X115598549Y-96657831D01*
X115590547Y-96588421D01*
X115621341Y-96525703D01*
X115681154Y-96489591D01*
X115712742Y-96485500D01*
X115799750Y-96485500D01*
X115799751Y-96485499D01*
X115817957Y-96481878D01*
X115870210Y-96471485D01*
X115870762Y-96474264D01*
X115922001Y-96468749D01*
X115934527Y-96472427D01*
X116000247Y-96485499D01*
X116000250Y-96485500D01*
X116000252Y-96485500D01*
X116299750Y-96485500D01*
X116299751Y-96485499D01*
X116317957Y-96481878D01*
X116370210Y-96471485D01*
X116370762Y-96474264D01*
X116422001Y-96468749D01*
X116434527Y-96472427D01*
X116500247Y-96485499D01*
X116500250Y-96485500D01*
X116500252Y-96485500D01*
X116799750Y-96485500D01*
X116799751Y-96485499D01*
X116817957Y-96481878D01*
X116870210Y-96471485D01*
X116870762Y-96474264D01*
X116922001Y-96468749D01*
X116934527Y-96472427D01*
X117000247Y-96485499D01*
X117000250Y-96485500D01*
X117000252Y-96485500D01*
X117299750Y-96485500D01*
X117299751Y-96485499D01*
X117317957Y-96481878D01*
X117370210Y-96471485D01*
X117370762Y-96474264D01*
X117422001Y-96468749D01*
X117434527Y-96472427D01*
X117500247Y-96485499D01*
X117500250Y-96485500D01*
X117500252Y-96485500D01*
X117799750Y-96485500D01*
X117799751Y-96485499D01*
X117817957Y-96481878D01*
X117870210Y-96471485D01*
X117870762Y-96474264D01*
X117922001Y-96468749D01*
X117934527Y-96472427D01*
X118000247Y-96485499D01*
X118000250Y-96485500D01*
X118000252Y-96485500D01*
X118299750Y-96485500D01*
X118299751Y-96485499D01*
X118317957Y-96481878D01*
X118370210Y-96471485D01*
X118370762Y-96474264D01*
X118422001Y-96468749D01*
X118434527Y-96472427D01*
X118500247Y-96485499D01*
X118500250Y-96485500D01*
X118500252Y-96485500D01*
X118799750Y-96485500D01*
X118799751Y-96485499D01*
X118817957Y-96481878D01*
X118870210Y-96471485D01*
X118870762Y-96474264D01*
X118922001Y-96468749D01*
X118934527Y-96472427D01*
X119000247Y-96485499D01*
X119000250Y-96485500D01*
X119000252Y-96485500D01*
X119299750Y-96485500D01*
X119299751Y-96485499D01*
X119317957Y-96481878D01*
X119370210Y-96471485D01*
X119370762Y-96474264D01*
X119422001Y-96468749D01*
X119434527Y-96472427D01*
X119500247Y-96485499D01*
X119500250Y-96485500D01*
X119500252Y-96485500D01*
X119799750Y-96485500D01*
X119799751Y-96485499D01*
X119817957Y-96481878D01*
X119870210Y-96471485D01*
X119870762Y-96474264D01*
X119922001Y-96468749D01*
X119934527Y-96472427D01*
X120000247Y-96485499D01*
X120000250Y-96485500D01*
X120000252Y-96485500D01*
X120299750Y-96485500D01*
X120299751Y-96485499D01*
X120317957Y-96481878D01*
X120370210Y-96471485D01*
X120370762Y-96474264D01*
X120422001Y-96468749D01*
X120434527Y-96472427D01*
X120500247Y-96485499D01*
X120500250Y-96485500D01*
X120500252Y-96485500D01*
X120799750Y-96485500D01*
X120799751Y-96485499D01*
X120817957Y-96481878D01*
X120870210Y-96471485D01*
X120870762Y-96474264D01*
X120922001Y-96468749D01*
X120934527Y-96472427D01*
G37*
G04 #@! TD.AperFunction*
G04 #@! TA.AperFunction,Conductor*
G36*
X126427243Y-95165185D02*
G01*
X126447885Y-95181819D01*
X126773700Y-95507634D01*
X126807185Y-95568957D01*
X126802201Y-95638649D01*
X126760329Y-95694582D01*
X126694865Y-95718999D01*
X126653930Y-95715091D01*
X126651725Y-95714500D01*
X126651724Y-95714500D01*
X125996543Y-95714500D01*
X125929504Y-95694815D01*
X125908866Y-95678185D01*
X125856483Y-95625802D01*
X125751393Y-95574427D01*
X125751391Y-95574426D01*
X125683261Y-95564500D01*
X125683260Y-95564500D01*
X124316740Y-95564500D01*
X124316739Y-95564500D01*
X124248608Y-95574426D01*
X124143514Y-95625803D01*
X124060803Y-95708514D01*
X124009426Y-95813608D01*
X123999500Y-95881739D01*
X123999500Y-96248260D01*
X124009426Y-96316391D01*
X124021658Y-96341413D01*
X124046970Y-96393190D01*
X124060803Y-96421485D01*
X124143514Y-96504196D01*
X124143515Y-96504196D01*
X124143517Y-96504198D01*
X124248607Y-96555573D01*
X124265189Y-96557989D01*
X124316739Y-96565500D01*
X124316740Y-96565500D01*
X125683261Y-96565500D01*
X125705971Y-96562191D01*
X125751393Y-96555573D01*
X125856483Y-96504198D01*
X125908863Y-96451817D01*
X125970184Y-96418334D01*
X125996543Y-96415500D01*
X126409036Y-96415500D01*
X126476075Y-96435185D01*
X126496717Y-96451819D01*
X126817717Y-96772819D01*
X126851202Y-96834142D01*
X126846218Y-96903834D01*
X126804346Y-96959767D01*
X126738882Y-96984184D01*
X126730036Y-96984500D01*
X125996543Y-96984500D01*
X125929504Y-96964815D01*
X125908866Y-96948185D01*
X125856483Y-96895802D01*
X125780352Y-96858584D01*
X125751391Y-96844426D01*
X125683261Y-96834500D01*
X125683260Y-96834500D01*
X124316740Y-96834500D01*
X124316739Y-96834500D01*
X124248608Y-96844426D01*
X124143514Y-96895803D01*
X124060803Y-96978514D01*
X124009426Y-97083608D01*
X123999500Y-97151739D01*
X123999500Y-97518260D01*
X124009426Y-97586392D01*
X124012270Y-97595595D01*
X124010055Y-97596279D01*
X124019553Y-97651946D01*
X123992201Y-97716240D01*
X123954712Y-97746949D01*
X123937916Y-97755899D01*
X123937913Y-97755901D01*
X123885104Y-97801660D01*
X123867160Y-97819242D01*
X123867154Y-97819249D01*
X123822511Y-97899059D01*
X123822509Y-97899064D01*
X123802826Y-97966096D01*
X123802825Y-97966101D01*
X123802825Y-97966102D01*
X123794502Y-98023992D01*
X123794500Y-98024003D01*
X123794500Y-98970500D01*
X123774815Y-99037539D01*
X123722011Y-99083294D01*
X123670500Y-99094500D01*
X122579500Y-99094500D01*
X122512461Y-99074815D01*
X122466706Y-99022011D01*
X122455500Y-98970500D01*
X122455500Y-98900249D01*
X122455499Y-98900247D01*
X122441485Y-98829790D01*
X122444264Y-98829237D01*
X122438749Y-98777999D01*
X122442427Y-98765472D01*
X122455499Y-98699752D01*
X122455500Y-98699750D01*
X122455500Y-98400249D01*
X122455499Y-98400247D01*
X122441485Y-98329790D01*
X122444264Y-98329237D01*
X122438749Y-98277999D01*
X122442427Y-98265472D01*
X122455499Y-98199752D01*
X122455500Y-98199750D01*
X122455500Y-97974500D01*
X122475185Y-97907461D01*
X122527989Y-97861706D01*
X122579500Y-97850500D01*
X122718848Y-97850500D01*
X122718850Y-97850500D01*
X122795277Y-97830021D01*
X122863799Y-97790460D01*
X122863799Y-97790459D01*
X122865929Y-97789230D01*
X122892350Y-97779878D01*
X122891848Y-97778333D01*
X122901131Y-97775316D01*
X122901133Y-97775316D01*
X123000059Y-97724911D01*
X123078567Y-97646403D01*
X123128972Y-97547477D01*
X123128972Y-97547475D01*
X123128973Y-97547474D01*
X123146341Y-97437818D01*
X123146341Y-97437813D01*
X123128973Y-97328157D01*
X123109702Y-97290335D01*
X123078567Y-97229229D01*
X123078564Y-97229226D01*
X123078562Y-97229223D01*
X123076784Y-97227445D01*
X123075311Y-97224748D01*
X123072828Y-97221330D01*
X123073269Y-97221009D01*
X123043299Y-97166122D01*
X123048283Y-97096430D01*
X123053971Y-97083488D01*
X123081705Y-97029058D01*
X123084979Y-97008386D01*
X123099074Y-96919399D01*
X123099074Y-96919394D01*
X123081706Y-96809738D01*
X123065455Y-96777844D01*
X123031300Y-96710810D01*
X123031297Y-96710807D01*
X123031295Y-96710804D01*
X122952797Y-96632306D01*
X122952794Y-96632304D01*
X122952792Y-96632302D01*
X122866292Y-96588228D01*
X122815497Y-96540254D01*
X122798702Y-96472433D01*
X122821239Y-96406298D01*
X122834901Y-96390069D01*
X123980140Y-95244830D01*
X124041461Y-95211347D01*
X124111153Y-95216331D01*
X124139873Y-95231596D01*
X124143516Y-95234197D01*
X124143517Y-95234198D01*
X124248607Y-95285573D01*
X124279781Y-95290115D01*
X124316739Y-95295500D01*
X124316740Y-95295500D01*
X125683261Y-95295500D01*
X125718661Y-95290342D01*
X125751393Y-95285573D01*
X125856483Y-95234198D01*
X125908863Y-95181817D01*
X125970184Y-95148334D01*
X125996543Y-95145500D01*
X126360204Y-95145500D01*
X126427243Y-95165185D01*
G37*
G04 #@! TD.AperFunction*
G04 #@! TA.AperFunction,Conductor*
G36*
X112484835Y-96569143D02*
G01*
X112488093Y-96572903D01*
X112488264Y-96572733D01*
X112495935Y-96580404D01*
X112579596Y-96664065D01*
X112686827Y-96714068D01*
X112735683Y-96720500D01*
X112735684Y-96720500D01*
X112949366Y-96720500D01*
X113016405Y-96740185D01*
X113062160Y-96792989D01*
X113068693Y-96810781D01*
X113073906Y-96829232D01*
X113100283Y-96877537D01*
X113101936Y-96880670D01*
X113130706Y-96937135D01*
X113142696Y-96974042D01*
X113143736Y-96980612D01*
X113143735Y-97019392D01*
X113142695Y-97025960D01*
X113130706Y-97062862D01*
X113127683Y-97068795D01*
X113104885Y-97100175D01*
X113091022Y-97114039D01*
X113090992Y-97114070D01*
X113076308Y-97130420D01*
X113059672Y-97151063D01*
X113047811Y-97173738D01*
X112999294Y-97224017D01*
X112931297Y-97240083D01*
X112865408Y-97216837D01*
X112822546Y-97161659D01*
X112816321Y-97140458D01*
X112810240Y-97109883D01*
X112810239Y-97109881D01*
X112810238Y-97109879D01*
X112780292Y-97065063D01*
X112752112Y-97022888D01*
X112665117Y-96964760D01*
X112665115Y-96964759D01*
X112665112Y-96964758D01*
X112588404Y-96949500D01*
X112411601Y-96949500D01*
X112334880Y-96964760D01*
X112318889Y-96975446D01*
X112252212Y-96996323D01*
X112184832Y-96977837D01*
X112181111Y-96975446D01*
X112165117Y-96964759D01*
X112120037Y-96955792D01*
X112058126Y-96923406D01*
X112023553Y-96862690D01*
X112027294Y-96792920D01*
X112068161Y-96736249D01*
X112109534Y-96715128D01*
X112113162Y-96714069D01*
X112113173Y-96714068D01*
X112220404Y-96664065D01*
X112304065Y-96580404D01*
X112304065Y-96580403D01*
X112311736Y-96572733D01*
X112314564Y-96575561D01*
X112352977Y-96544843D01*
X112422474Y-96537635D01*
X112484835Y-96569143D01*
G37*
G04 #@! TD.AperFunction*
G04 #@! TA.AperFunction,Conductor*
G36*
X123110539Y-91247185D02*
G01*
X123156294Y-91299989D01*
X123167500Y-91351500D01*
X123167500Y-92326624D01*
X123166903Y-92338778D01*
X123162843Y-92379999D01*
X123181426Y-92568681D01*
X123194664Y-92612319D01*
X123236463Y-92750115D01*
X123236464Y-92750118D01*
X123236465Y-92750119D01*
X123236466Y-92750122D01*
X123325834Y-92917318D01*
X123325838Y-92917325D01*
X123446116Y-93063883D01*
X123592674Y-93184161D01*
X123592681Y-93184165D01*
X123759877Y-93273533D01*
X123759878Y-93273533D01*
X123759885Y-93273537D01*
X123941317Y-93328573D01*
X123941316Y-93328573D01*
X123959900Y-93330403D01*
X124130000Y-93347157D01*
X124286849Y-93331708D01*
X124355494Y-93344727D01*
X124406205Y-93392791D01*
X124422880Y-93460642D01*
X124400224Y-93526737D01*
X124386684Y-93542792D01*
X123715489Y-94213988D01*
X123659541Y-94269935D01*
X123659535Y-94269943D01*
X123619982Y-94338452D01*
X123619979Y-94338457D01*
X123608131Y-94382674D01*
X123600031Y-94412907D01*
X123599500Y-94414887D01*
X123599500Y-94724167D01*
X123579815Y-94791206D01*
X123563181Y-94811848D01*
X122411848Y-95963181D01*
X122350525Y-95996666D01*
X122324167Y-95999500D01*
X122014886Y-95999500D01*
X121961926Y-96013691D01*
X121938455Y-96019980D01*
X121887309Y-96049510D01*
X121869940Y-96059537D01*
X121869935Y-96059541D01*
X121746296Y-96183181D01*
X121684973Y-96216666D01*
X121658615Y-96219500D01*
X121632931Y-96219500D01*
X121565892Y-96199815D01*
X121520137Y-96147011D01*
X121510193Y-96077853D01*
X121522446Y-96039206D01*
X121526926Y-96030413D01*
X121537500Y-96009661D01*
X121537500Y-96009659D01*
X121537501Y-96009658D01*
X121554869Y-95900002D01*
X121554869Y-95899997D01*
X121537501Y-95790341D01*
X121494015Y-95704994D01*
X121480500Y-95648700D01*
X121480500Y-95627149D01*
X121500185Y-95560110D01*
X121552989Y-95514355D01*
X121591237Y-95503861D01*
X121619684Y-95500803D01*
X121624267Y-95499805D01*
X121671174Y-95489602D01*
X121671190Y-95489598D01*
X121671195Y-95489597D01*
X121681373Y-95487110D01*
X121762085Y-95444100D01*
X121814889Y-95398345D01*
X121832843Y-95380754D01*
X121877490Y-95300937D01*
X121897175Y-95233898D01*
X121905500Y-95176000D01*
X121905500Y-95069891D01*
X121919015Y-95013596D01*
X121927158Y-94997614D01*
X121941711Y-94969053D01*
X121941711Y-94969051D01*
X121941712Y-94969050D01*
X121959080Y-94859394D01*
X121959080Y-94859389D01*
X121941712Y-94749733D01*
X121919015Y-94705187D01*
X121905500Y-94648893D01*
X121905500Y-94391544D01*
X121925185Y-94324505D01*
X121931540Y-94316620D01*
X121931356Y-94316486D01*
X121937089Y-94308592D01*
X121937095Y-94308587D01*
X121987500Y-94209661D01*
X121987500Y-94209659D01*
X121987501Y-94209658D01*
X122004869Y-94100002D01*
X122004869Y-94099997D01*
X121987501Y-93990341D01*
X121977863Y-93971426D01*
X121937095Y-93891413D01*
X121937092Y-93891410D01*
X121931356Y-93883514D01*
X121933563Y-93881909D01*
X121907261Y-93833740D01*
X121905141Y-93820662D01*
X121900803Y-93780316D01*
X121895267Y-93754869D01*
X121889602Y-93728825D01*
X121889348Y-93727789D01*
X121887110Y-93718627D01*
X121844100Y-93637915D01*
X121798345Y-93585111D01*
X121798339Y-93585104D01*
X121780757Y-93567160D01*
X121780756Y-93567159D01*
X121780754Y-93567157D01*
X121780750Y-93567155D01*
X121773708Y-93561770D01*
X121775230Y-93559779D01*
X121735630Y-93519360D01*
X121721477Y-93450938D01*
X121746562Y-93385727D01*
X121802921Y-93344430D01*
X121809032Y-93342400D01*
X121970115Y-93293537D01*
X122137324Y-93204162D01*
X122283883Y-93083883D01*
X122404162Y-92937324D01*
X122493537Y-92770115D01*
X122548573Y-92588683D01*
X122567157Y-92400000D01*
X122563097Y-92358778D01*
X122562500Y-92346624D01*
X122562500Y-91351500D01*
X122582185Y-91284461D01*
X122634989Y-91238706D01*
X122686500Y-91227500D01*
X123043500Y-91227500D01*
X123110539Y-91247185D01*
G37*
G04 #@! TD.AperFunction*
G04 #@! TA.AperFunction,Conductor*
G36*
X113717582Y-95099525D02*
G01*
X113753734Y-95136768D01*
X113754590Y-95136112D01*
X113759541Y-95142564D01*
X114481943Y-95864966D01*
X114515428Y-95926289D01*
X114510444Y-95995981D01*
X114468572Y-96051914D01*
X114403108Y-96076331D01*
X114341147Y-96064695D01*
X114331827Y-96060277D01*
X114331824Y-96060276D01*
X114331822Y-96060275D01*
X114275942Y-96042997D01*
X114275940Y-96042996D01*
X114275935Y-96042995D01*
X114274019Y-96042692D01*
X114272476Y-96042190D01*
X114271626Y-96041993D01*
X114271642Y-96041919D01*
X114240019Y-96031644D01*
X114239916Y-96031880D01*
X114237520Y-96030832D01*
X114237150Y-96030712D01*
X114236572Y-96030417D01*
X114236569Y-96030416D01*
X114236564Y-96030414D01*
X114236562Y-96030413D01*
X114191235Y-96013691D01*
X114191231Y-96013690D01*
X114191232Y-96013690D01*
X114134947Y-96000178D01*
X114134949Y-96000178D01*
X114134943Y-96000177D01*
X114134942Y-96000177D01*
X114086972Y-95994500D01*
X114086584Y-95994500D01*
X114086581Y-95994500D01*
X114071739Y-95995036D01*
X114053874Y-95996329D01*
X114039081Y-95997940D01*
X114003459Y-96003131D01*
X113999526Y-96003704D01*
X113981648Y-96005000D01*
X113618352Y-96005000D01*
X113600473Y-96003704D01*
X113560921Y-95997940D01*
X113546124Y-95996329D01*
X113528260Y-95995036D01*
X113513419Y-95994500D01*
X113513416Y-95994500D01*
X113504500Y-95994500D01*
X113498502Y-95995144D01*
X113429745Y-95982738D01*
X113378609Y-95935126D01*
X113372874Y-95924267D01*
X113324065Y-95819596D01*
X113246819Y-95742350D01*
X113213334Y-95681027D01*
X113210500Y-95654669D01*
X113210500Y-95274500D01*
X113230185Y-95207461D01*
X113282989Y-95161706D01*
X113334500Y-95150500D01*
X113469750Y-95150500D01*
X113469751Y-95150499D01*
X113494885Y-95145500D01*
X113528229Y-95138868D01*
X113528231Y-95138867D01*
X113583525Y-95101920D01*
X113650202Y-95081041D01*
X113717582Y-95099525D01*
G37*
G04 #@! TD.AperFunction*
G04 #@! TA.AperFunction,Conductor*
G36*
X120580539Y-91247185D02*
G01*
X120626294Y-91299989D01*
X120637500Y-91351500D01*
X120637500Y-92346624D01*
X120636903Y-92358778D01*
X120632843Y-92399999D01*
X120651426Y-92588681D01*
X120658597Y-92612319D01*
X120706463Y-92770115D01*
X120706464Y-92770118D01*
X120706465Y-92770119D01*
X120706466Y-92770122D01*
X120795834Y-92937318D01*
X120795838Y-92937325D01*
X120916116Y-93083883D01*
X121062674Y-93204161D01*
X121062681Y-93204165D01*
X121169277Y-93261142D01*
X121219121Y-93310104D01*
X121234582Y-93378242D01*
X121210751Y-93443921D01*
X121155193Y-93486290D01*
X121110824Y-93494500D01*
X120118928Y-93494500D01*
X120063638Y-93502078D01*
X120042970Y-93507853D01*
X119999359Y-93520038D01*
X119999352Y-93520040D01*
X119999346Y-93520042D01*
X119999340Y-93520044D01*
X119992072Y-93522510D01*
X119978115Y-93527245D01*
X119978112Y-93527246D01*
X119978110Y-93527248D01*
X119902952Y-93579339D01*
X119902944Y-93579346D01*
X119855825Y-93630916D01*
X119855813Y-93630932D01*
X119822914Y-93679277D01*
X119822909Y-93679286D01*
X119799160Y-93727865D01*
X119775441Y-93761084D01*
X119771081Y-93765444D01*
X119737870Y-93789159D01*
X119734146Y-93790979D01*
X119731248Y-93792396D01*
X119676780Y-93805000D01*
X119323219Y-93805000D01*
X119268760Y-93792401D01*
X119250213Y-93783334D01*
X119244394Y-93780489D01*
X119229960Y-93772189D01*
X119229333Y-93771770D01*
X119190571Y-93745868D01*
X119190569Y-93745867D01*
X119190566Y-93745865D01*
X119127021Y-93716845D01*
X119103549Y-93707817D01*
X119103546Y-93707816D01*
X119012403Y-93700363D01*
X119012399Y-93700363D01*
X118962147Y-93707589D01*
X118892988Y-93697645D01*
X118840184Y-93651890D01*
X118820500Y-93584851D01*
X118820500Y-93334477D01*
X118820500Y-93334472D01*
X118810645Y-93266830D01*
X118759636Y-93162489D01*
X118759634Y-93162487D01*
X118759634Y-93162486D01*
X118677514Y-93080366D01*
X118677511Y-93080364D01*
X118670037Y-93076710D01*
X118618456Y-93029581D01*
X118600500Y-92965311D01*
X118600500Y-92560439D01*
X118600448Y-92560246D01*
X118580021Y-92484011D01*
X118580020Y-92484010D01*
X118580020Y-92484008D01*
X118580019Y-92484007D01*
X118567112Y-92461651D01*
X118550499Y-92399651D01*
X118550499Y-92275819D01*
X118544499Y-92230243D01*
X118544499Y-92230240D01*
X118508202Y-92152401D01*
X118497711Y-92083329D01*
X118508200Y-92047601D01*
X118544499Y-91969760D01*
X118544499Y-91969758D01*
X118548509Y-91961160D01*
X118550371Y-91962028D01*
X118574613Y-91921068D01*
X118587095Y-91908587D01*
X118637500Y-91809661D01*
X118637500Y-91809659D01*
X118637501Y-91809658D01*
X118654869Y-91700002D01*
X118654869Y-91699997D01*
X118637501Y-91590341D01*
X118611403Y-91539120D01*
X118587095Y-91491413D01*
X118587092Y-91491410D01*
X118587090Y-91491407D01*
X118534864Y-91439181D01*
X118501379Y-91377858D01*
X118506363Y-91308166D01*
X118548235Y-91252233D01*
X118613699Y-91227816D01*
X118622545Y-91227500D01*
X120513500Y-91227500D01*
X120580539Y-91247185D01*
G37*
G04 #@! TD.AperFunction*
M02*
