G04 #@! TF.GenerationSoftware,KiCad,Pcbnew,8.0.2*
G04 #@! TF.CreationDate,2024-11-02T23:59:00+05:00*
G04 #@! TF.ProjectId,V1,56312e6b-6963-4616-945f-706362585858,r0.1*
G04 #@! TF.SameCoordinates,Original*
G04 #@! TF.FileFunction,Copper,L2,Inr*
G04 #@! TF.FilePolarity,Positive*
%FSLAX46Y46*%
G04 Gerber Fmt 4.6, Leading zero omitted, Abs format (unit mm)*
G04 Created by KiCad (PCBNEW 8.0.2) date 2024-11-02 23:59:00*
%MOMM*%
%LPD*%
G01*
G04 APERTURE LIST*
G04 #@! TA.AperFunction,ComponentPad*
%ADD10C,1.524000*%
G04 #@! TD*
G04 #@! TA.AperFunction,ComponentPad*
%ADD11O,1.900000X1.000000*%
G04 #@! TD*
G04 #@! TA.AperFunction,ComponentPad*
%ADD12O,1.600000X1.000000*%
G04 #@! TD*
G04 #@! TA.AperFunction,HeatsinkPad*
%ADD13C,0.500000*%
G04 #@! TD*
G04 #@! TA.AperFunction,ViaPad*
%ADD14C,0.300000*%
G04 #@! TD*
G04 #@! TA.AperFunction,Conductor*
%ADD15C,0.200000*%
G04 #@! TD*
G04 APERTURE END LIST*
D10*
X134290000Y-100000000D03*
X135560000Y-100000000D03*
X134290000Y-102540000D03*
X135560000Y-102540000D03*
X129300000Y-107721500D03*
X129300000Y-108991500D03*
X129200000Y-92380000D03*
X129200000Y-91110000D03*
X124130000Y-92380000D03*
X124130000Y-91110000D03*
X126800000Y-107700000D03*
X126800000Y-108970000D03*
X134300000Y-92400000D03*
X134300000Y-91130000D03*
X131700000Y-92400000D03*
X131700000Y-91130000D03*
X134300000Y-107721500D03*
X134300000Y-108991500D03*
X131800000Y-107721500D03*
X131800000Y-108991500D03*
X134290000Y-97460000D03*
X135560000Y-97460000D03*
X134290000Y-94920000D03*
X135560000Y-94920000D03*
X124300000Y-107700000D03*
X124300000Y-108970000D03*
X121800000Y-107700000D03*
X121800000Y-108970000D03*
X126670000Y-92380000D03*
X126670000Y-91110000D03*
D11*
X105530000Y-95180000D03*
D12*
X101350000Y-95180000D03*
D11*
X105530000Y-103820000D03*
D12*
X101350000Y-103820000D03*
D13*
X103300000Y-106950000D03*
X103300000Y-105850000D03*
D10*
X121600000Y-92400000D03*
X121600000Y-91130000D03*
D14*
X107250000Y-106650000D03*
X114453524Y-103589921D03*
X126300000Y-98600000D03*
X100600000Y-93700000D03*
X106900000Y-93650000D03*
X108250000Y-106650000D03*
X115202294Y-103350000D03*
X107800000Y-104150000D03*
X122463060Y-100881297D03*
X121650000Y-94100000D03*
X113781801Y-102918199D03*
X114000000Y-97100000D03*
X120135509Y-103199111D03*
X112730000Y-105600000D03*
X127700000Y-106100000D03*
X111535729Y-105133314D03*
X126900000Y-106100000D03*
X113500000Y-97100000D03*
X104100000Y-93800000D03*
X129100000Y-100600000D03*
X118669998Y-103000000D03*
X120550000Y-94800000D03*
X120550000Y-94000000D03*
X118300000Y-91700000D03*
X121604211Y-94859392D03*
X122430000Y-102027919D03*
X113000000Y-97000000D03*
X117700000Y-107400000D03*
X110000000Y-101100000D03*
X117700000Y-108200000D03*
X112100000Y-101200000D03*
X111000000Y-101100000D03*
X114900000Y-104600000D03*
X109900000Y-100000000D03*
X119600000Y-92800000D03*
X109000000Y-102900000D03*
X125400000Y-101800000D03*
X109700000Y-106800000D03*
X120800000Y-98700000D03*
X125400000Y-100800000D03*
X122900000Y-98100000D03*
X122900000Y-93400000D03*
X114300000Y-95900000D03*
X105200000Y-99700000D03*
X105200000Y-98799986D03*
X110800000Y-104400000D03*
X107200000Y-102000000D03*
X115474999Y-98518233D03*
X129109777Y-103250000D03*
X127000000Y-97600000D03*
X131644735Y-96685001D03*
X131034998Y-102444699D03*
X115474999Y-98018230D03*
X119669998Y-96000000D03*
X130300000Y-105400000D03*
X114800000Y-92200000D03*
X133228000Y-104100000D03*
X121398612Y-98029617D03*
X133500004Y-96200004D03*
X114425000Y-106900000D03*
X117149996Y-103496899D03*
X110500000Y-97850000D03*
X117669958Y-103185310D03*
X111025001Y-97891574D03*
X128411748Y-96650000D03*
X115474988Y-100058379D03*
X128853554Y-101346446D03*
X130800000Y-97400000D03*
X130534998Y-104134998D03*
X115475224Y-100558381D03*
X117200000Y-91500000D03*
X117500000Y-93200000D03*
X114000000Y-94300000D03*
X108500004Y-94300000D03*
X115500000Y-95600000D03*
X108900000Y-93400000D03*
X114600000Y-97549514D03*
X103400000Y-94800000D03*
X116150000Y-95865000D03*
X112400000Y-106600000D03*
X122100000Y-99069998D03*
X122744205Y-96919397D03*
X122100000Y-98569998D03*
X122791472Y-97437816D03*
X111005204Y-96550000D03*
X114600002Y-94700002D03*
X109000000Y-96550000D03*
X111600000Y-95400000D03*
X111600000Y-103600000D03*
X110070268Y-102977458D03*
X112600000Y-103600000D03*
X111000160Y-102970004D03*
X127190580Y-96650000D03*
X128899997Y-102500003D03*
X115474999Y-99558377D03*
X133293474Y-105413052D03*
X132400000Y-99200000D03*
X133392460Y-105945239D03*
X115474999Y-99018233D03*
X120630002Y-95500000D03*
X121200000Y-95900000D03*
X118169998Y-102950000D03*
X116600000Y-103600000D03*
X116200000Y-104100000D03*
X115280529Y-102044131D03*
X115474999Y-101581767D03*
X115470423Y-101058361D03*
D15*
X112002415Y-105600000D02*
X111535729Y-105133314D01*
X112730000Y-105600000D02*
X112002415Y-105600000D01*
X110800000Y-104400000D02*
X109800000Y-104400000D01*
X109800000Y-104400000D02*
X108800000Y-103400000D01*
X108800000Y-103400000D02*
X107400000Y-102000000D01*
X107400000Y-102000000D02*
X107200000Y-102000000D01*
G04 #@! TA.AperFunction,Conductor*
G36*
X100312035Y-94128808D02*
G01*
X100319242Y-94132839D01*
X100319246Y-94132843D01*
X100399063Y-94177490D01*
X100466102Y-94197175D01*
X100524000Y-94205500D01*
X103337401Y-94205500D01*
X103404324Y-94225151D01*
X103446707Y-94206523D01*
X103462599Y-94205500D01*
X106470500Y-94205500D01*
X106537539Y-94225185D01*
X106583294Y-94277989D01*
X106594500Y-94329500D01*
X106594500Y-99276007D01*
X106599197Y-99319686D01*
X106610397Y-99371174D01*
X106612890Y-99381372D01*
X106612891Y-99381375D01*
X106655899Y-99462083D01*
X106655901Y-99462086D01*
X106701660Y-99514895D01*
X106719242Y-99532839D01*
X106719246Y-99532843D01*
X106719247Y-99532844D01*
X106719249Y-99532845D01*
X106799059Y-99577488D01*
X106799063Y-99577490D01*
X106866102Y-99597175D01*
X106924000Y-99605500D01*
X112770500Y-99605500D01*
X112837539Y-99625185D01*
X112883294Y-99677989D01*
X112894500Y-99729500D01*
X112894500Y-101770500D01*
X112874815Y-101837539D01*
X112822011Y-101883294D01*
X112770500Y-101894500D01*
X111417939Y-101894500D01*
X111379310Y-101898167D01*
X111379307Y-101898167D01*
X111379302Y-101898167D01*
X111379301Y-101898168D01*
X111333487Y-101906942D01*
X111331634Y-101907321D01*
X111328247Y-101908016D01*
X111245488Y-101946942D01*
X111245483Y-101946945D01*
X111190468Y-101990000D01*
X111171656Y-102006675D01*
X111123080Y-102084161D01*
X111123078Y-102084165D01*
X111100071Y-102150137D01*
X111088867Y-102207534D01*
X111088865Y-102207549D01*
X111074057Y-102503693D01*
X111051049Y-102569666D01*
X110996026Y-102612726D01*
X110969610Y-102619973D01*
X110890501Y-102632502D01*
X110791574Y-102682908D01*
X110791567Y-102682913D01*
X110713069Y-102761411D01*
X110713064Y-102761418D01*
X110662659Y-102860345D01*
X110657096Y-102895465D01*
X110627165Y-102958599D01*
X110603349Y-102973427D01*
X110630666Y-102991539D01*
X110658277Y-103051997D01*
X110662659Y-103079662D01*
X110662659Y-103079663D01*
X110662660Y-103079665D01*
X110666458Y-103087119D01*
X110713064Y-103178589D01*
X110713069Y-103178596D01*
X110791567Y-103257094D01*
X110791570Y-103257096D01*
X110791573Y-103257099D01*
X110890499Y-103307504D01*
X110890501Y-103307505D01*
X111000158Y-103324873D01*
X111000160Y-103324873D01*
X111000161Y-103324873D01*
X111023810Y-103321127D01*
X111076465Y-103312787D01*
X111145758Y-103321741D01*
X111195288Y-103362262D01*
X111195579Y-103362043D01*
X111195734Y-103361920D01*
X111195737Y-103361924D01*
X111195784Y-103361890D01*
X111196916Y-103363397D01*
X111212629Y-103383025D01*
X111219100Y-103389090D01*
X111217432Y-103390869D01*
X111252941Y-103435228D01*
X111260699Y-103501705D01*
X111243604Y-103609639D01*
X111241638Y-103609327D01*
X111225446Y-103664473D01*
X111173912Y-103709640D01*
X111156958Y-103717614D01*
X111156950Y-103717620D01*
X111101931Y-103760679D01*
X111101910Y-103760696D01*
X111083122Y-103777351D01*
X111083119Y-103777355D01*
X111034543Y-103854840D01*
X111034543Y-103854841D01*
X111011536Y-103920811D01*
X111004576Y-103956469D01*
X110972411Y-104018495D01*
X110911819Y-104053285D01*
X110863475Y-104055184D01*
X110800002Y-104045131D01*
X110799998Y-104045131D01*
X110690342Y-104062498D01*
X110644245Y-104085986D01*
X110587952Y-104099500D01*
X109975833Y-104099500D01*
X109908794Y-104079815D01*
X109888152Y-104063181D01*
X108802426Y-102977455D01*
X109715399Y-102977455D01*
X109715399Y-102977460D01*
X109732766Y-103087116D01*
X109783172Y-103186043D01*
X109783177Y-103186050D01*
X109861675Y-103264548D01*
X109861678Y-103264550D01*
X109861681Y-103264553D01*
X109933696Y-103301246D01*
X109960609Y-103314959D01*
X110070266Y-103332327D01*
X110070268Y-103332327D01*
X110070270Y-103332327D01*
X110179926Y-103314959D01*
X110179927Y-103314958D01*
X110179929Y-103314958D01*
X110278855Y-103264553D01*
X110357363Y-103186045D01*
X110407768Y-103087119D01*
X110407768Y-103087117D01*
X110407769Y-103087116D01*
X110413331Y-103051999D01*
X110443260Y-102988864D01*
X110467077Y-102974032D01*
X110439759Y-102955919D01*
X110412149Y-102895463D01*
X110407768Y-102867797D01*
X110357363Y-102768871D01*
X110357360Y-102768868D01*
X110357358Y-102768865D01*
X110278860Y-102690367D01*
X110278856Y-102690364D01*
X110278855Y-102690363D01*
X110275011Y-102688404D01*
X110179926Y-102639956D01*
X110070270Y-102622589D01*
X110070266Y-102622589D01*
X109960609Y-102639956D01*
X109861682Y-102690362D01*
X109861675Y-102690367D01*
X109783177Y-102768865D01*
X109783172Y-102768872D01*
X109732766Y-102867799D01*
X109715399Y-102977455D01*
X108802426Y-102977455D01*
X107584510Y-101759539D01*
X107570481Y-101751440D01*
X107562829Y-101747022D01*
X107526061Y-101725794D01*
X107515990Y-101719979D01*
X107489585Y-101712904D01*
X107439562Y-101699500D01*
X107439560Y-101699500D01*
X107412048Y-101699500D01*
X107355755Y-101685986D01*
X107309657Y-101662498D01*
X107200002Y-101645131D01*
X107199998Y-101645131D01*
X107090341Y-101662498D01*
X106991414Y-101712904D01*
X106991407Y-101712909D01*
X106912909Y-101791407D01*
X106912904Y-101791414D01*
X106862498Y-101890341D01*
X106845131Y-101999997D01*
X106845131Y-102000002D01*
X106862498Y-102109658D01*
X106912904Y-102208585D01*
X106912909Y-102208592D01*
X106991407Y-102287090D01*
X106991410Y-102287092D01*
X106991413Y-102287095D01*
X107076461Y-102330429D01*
X107090341Y-102337501D01*
X107199998Y-102354869D01*
X107200000Y-102354869D01*
X107200002Y-102354869D01*
X107249734Y-102346992D01*
X107319027Y-102355946D01*
X107356813Y-102381784D01*
X108557848Y-103582819D01*
X108591333Y-103644142D01*
X108586349Y-103713834D01*
X108544477Y-103769767D01*
X108479013Y-103794184D01*
X108470167Y-103794500D01*
X107223992Y-103794500D01*
X107180313Y-103799197D01*
X107128825Y-103810397D01*
X107118627Y-103812890D01*
X107118624Y-103812891D01*
X107037916Y-103855899D01*
X107037913Y-103855901D01*
X106985104Y-103901660D01*
X106967160Y-103919242D01*
X106967154Y-103919249D01*
X106922511Y-103999059D01*
X106922509Y-103999064D01*
X106902826Y-104066096D01*
X106902825Y-104066101D01*
X106902825Y-104066102D01*
X106897128Y-104105727D01*
X106894500Y-104124003D01*
X106894500Y-105753913D01*
X106880376Y-105811386D01*
X106872511Y-105826420D01*
X106872509Y-105826425D01*
X106852826Y-105893456D01*
X106852825Y-105893464D01*
X106845381Y-105945239D01*
X106844500Y-105951365D01*
X106844500Y-106876007D01*
X106849197Y-106919686D01*
X106860397Y-106971174D01*
X106862890Y-106981372D01*
X106862891Y-106981375D01*
X106905899Y-107062083D01*
X106905901Y-107062086D01*
X106951660Y-107114895D01*
X106969245Y-107132842D01*
X106969247Y-107132844D01*
X107049065Y-107177491D01*
X107089656Y-107189409D01*
X107089657Y-107189410D01*
X107116100Y-107197175D01*
X107174000Y-107205500D01*
X107174003Y-107205500D01*
X108448639Y-107205500D01*
X108451180Y-107205363D01*
X108470607Y-107204322D01*
X108470614Y-107204321D01*
X108470618Y-107204321D01*
X108496965Y-107201488D01*
X108573482Y-107177529D01*
X108634805Y-107144044D01*
X108681629Y-107108991D01*
X108708991Y-107081629D01*
X108723693Y-107065262D01*
X108740327Y-107044620D01*
X108771200Y-106985598D01*
X108819714Y-106935320D01*
X108861092Y-106920694D01*
X109370139Y-106837585D01*
X109391138Y-106833018D01*
X109416113Y-106826201D01*
X109487446Y-106790722D01*
X109529036Y-106758669D01*
X109529035Y-106758668D01*
X109531695Y-106756619D01*
X109541405Y-106749849D01*
X109551315Y-106743623D01*
X109554922Y-106740015D01*
X109556157Y-106738930D01*
X109557814Y-106737123D01*
X109599820Y-106695116D01*
X109631196Y-106672319D01*
X109637134Y-106669293D01*
X109674032Y-106657303D01*
X109680609Y-106656262D01*
X109719394Y-106656262D01*
X109725966Y-106657303D01*
X109762851Y-106669286D01*
X109768791Y-106672313D01*
X109800188Y-106695125D01*
X109806450Y-106701387D01*
X109807532Y-106702351D01*
X109824054Y-106717078D01*
X109824058Y-106717081D01*
X109824059Y-106717082D01*
X109846326Y-106734743D01*
X109876013Y-106749835D01*
X109919187Y-106771784D01*
X109919190Y-106771785D01*
X109919194Y-106771787D01*
X109986530Y-106790430D01*
X110030044Y-106795999D01*
X110044547Y-106797856D01*
X110044548Y-106797855D01*
X110044549Y-106797856D01*
X111954709Y-106768241D01*
X111997253Y-106762084D01*
X112066416Y-106771964D01*
X112104562Y-106803128D01*
X112106004Y-106801687D01*
X112191407Y-106887090D01*
X112191410Y-106887092D01*
X112191413Y-106887095D01*
X112290339Y-106937500D01*
X112290341Y-106937501D01*
X112399998Y-106954869D01*
X112400000Y-106954869D01*
X112400002Y-106954869D01*
X112509658Y-106937501D01*
X112509659Y-106937500D01*
X112509661Y-106937500D01*
X112608587Y-106887095D01*
X112687095Y-106808587D01*
X112687098Y-106808580D01*
X112692832Y-106800690D01*
X112695797Y-106802844D01*
X112731187Y-106765336D01*
X112798999Y-106748506D01*
X112809480Y-106749396D01*
X112848445Y-106754384D01*
X112848448Y-106754383D01*
X112848449Y-106754384D01*
X112936230Y-106753023D01*
X113948793Y-106737324D01*
X114016127Y-106755967D01*
X114062695Y-106808055D01*
X114073710Y-106877051D01*
X114073187Y-106880705D01*
X114070132Y-106899997D01*
X114070131Y-106900001D01*
X114070131Y-106900002D01*
X114087498Y-107009658D01*
X114137904Y-107108585D01*
X114137909Y-107108592D01*
X114216407Y-107187090D01*
X114216410Y-107187092D01*
X114216413Y-107187095D01*
X114315339Y-107237500D01*
X114315341Y-107237501D01*
X114424998Y-107254869D01*
X114425000Y-107254869D01*
X114425002Y-107254869D01*
X114534658Y-107237501D01*
X114534659Y-107237500D01*
X114534661Y-107237500D01*
X114633587Y-107187095D01*
X114712095Y-107108587D01*
X114762500Y-107009661D01*
X114762500Y-107009659D01*
X114762501Y-107009658D01*
X114779869Y-106900002D01*
X114779869Y-106899997D01*
X114774490Y-106866036D01*
X114783445Y-106796742D01*
X114828441Y-106743290D01*
X114895038Y-106722653D01*
X115881108Y-106707367D01*
X115923161Y-106702351D01*
X115972750Y-106691160D01*
X115981373Y-106689017D01*
X116062085Y-106646007D01*
X116114889Y-106600252D01*
X116132843Y-106582661D01*
X116177490Y-106502844D01*
X116177494Y-106502828D01*
X116177584Y-106502617D01*
X116177688Y-106502488D01*
X116180889Y-106496767D01*
X116181890Y-106497327D01*
X116221697Y-106448434D01*
X116288101Y-106426701D01*
X116292700Y-106426646D01*
X124896022Y-106483622D01*
X126686735Y-106495482D01*
X126753643Y-106515610D01*
X126799047Y-106568716D01*
X126808532Y-106637938D01*
X126779087Y-106701301D01*
X126720060Y-106738685D01*
X126698069Y-106742882D01*
X126611318Y-106751426D01*
X126504194Y-106783921D01*
X126429885Y-106806463D01*
X126429882Y-106806464D01*
X126429880Y-106806465D01*
X126429877Y-106806466D01*
X126262681Y-106895834D01*
X126262674Y-106895838D01*
X126116116Y-107016116D01*
X125995838Y-107162674D01*
X125995834Y-107162681D01*
X125906466Y-107329877D01*
X125906465Y-107329880D01*
X125906464Y-107329882D01*
X125906463Y-107329885D01*
X125885614Y-107398616D01*
X125851426Y-107511318D01*
X125832843Y-107700000D01*
X125851426Y-107888681D01*
X125851427Y-107888683D01*
X125906463Y-108070115D01*
X125906464Y-108070118D01*
X125906465Y-108070119D01*
X125906466Y-108070122D01*
X125995834Y-108237318D01*
X125995838Y-108237325D01*
X126011440Y-108256336D01*
X126038752Y-108320647D01*
X126026960Y-108389514D01*
X126011440Y-108413664D01*
X125995838Y-108432674D01*
X125995834Y-108432681D01*
X125906466Y-108599877D01*
X125906465Y-108599880D01*
X125906464Y-108599882D01*
X125906463Y-108599885D01*
X125880796Y-108684496D01*
X125842500Y-108742934D01*
X125778688Y-108771390D01*
X125762137Y-108772500D01*
X125337863Y-108772500D01*
X125270824Y-108752815D01*
X125225069Y-108700011D01*
X125219204Y-108684502D01*
X125193537Y-108599885D01*
X125193533Y-108599877D01*
X125104166Y-108432682D01*
X125104164Y-108432679D01*
X125104160Y-108432674D01*
X125088559Y-108413664D01*
X125061246Y-108349356D01*
X125073036Y-108280489D01*
X125088559Y-108256336D01*
X125104162Y-108237324D01*
X125193537Y-108070115D01*
X125248573Y-107888683D01*
X125267157Y-107700000D01*
X125248573Y-107511317D01*
X125193537Y-107329885D01*
X125144157Y-107237501D01*
X125104165Y-107162681D01*
X125104161Y-107162674D01*
X124983883Y-107016116D01*
X124837325Y-106895838D01*
X124837318Y-106895834D01*
X124670122Y-106806466D01*
X124670119Y-106806465D01*
X124670118Y-106806464D01*
X124670115Y-106806463D01*
X124488683Y-106751427D01*
X124488681Y-106751426D01*
X124488683Y-106751426D01*
X124300000Y-106732843D01*
X124111318Y-106751426D01*
X124004194Y-106783921D01*
X123929885Y-106806463D01*
X123929882Y-106806464D01*
X123929880Y-106806465D01*
X123929877Y-106806466D01*
X123762681Y-106895834D01*
X123762674Y-106895838D01*
X123616116Y-107016116D01*
X123495838Y-107162674D01*
X123495834Y-107162681D01*
X123406466Y-107329877D01*
X123406465Y-107329880D01*
X123406464Y-107329882D01*
X123406463Y-107329885D01*
X123385614Y-107398616D01*
X123351426Y-107511318D01*
X123332843Y-107700000D01*
X123351426Y-107888681D01*
X123351427Y-107888683D01*
X123406463Y-108070115D01*
X123406464Y-108070118D01*
X123406465Y-108070119D01*
X123406466Y-108070122D01*
X123495834Y-108237318D01*
X123495838Y-108237325D01*
X123511440Y-108256336D01*
X123538752Y-108320647D01*
X123526960Y-108389514D01*
X123511440Y-108413664D01*
X123495838Y-108432674D01*
X123495834Y-108432681D01*
X123406466Y-108599877D01*
X123406465Y-108599880D01*
X123406464Y-108599882D01*
X123406463Y-108599885D01*
X123380796Y-108684496D01*
X123342500Y-108742934D01*
X123278688Y-108771390D01*
X123262137Y-108772500D01*
X122837863Y-108772500D01*
X122770824Y-108752815D01*
X122725069Y-108700011D01*
X122719204Y-108684502D01*
X122693537Y-108599885D01*
X122693533Y-108599877D01*
X122604166Y-108432682D01*
X122604164Y-108432679D01*
X122604160Y-108432674D01*
X122588559Y-108413664D01*
X122561246Y-108349356D01*
X122573036Y-108280489D01*
X122588559Y-108256336D01*
X122604162Y-108237324D01*
X122693537Y-108070115D01*
X122748573Y-107888683D01*
X122767157Y-107700000D01*
X122748573Y-107511317D01*
X122693537Y-107329885D01*
X122644157Y-107237501D01*
X122604165Y-107162681D01*
X122604161Y-107162674D01*
X122483883Y-107016116D01*
X122337325Y-106895838D01*
X122337318Y-106895834D01*
X122170122Y-106806466D01*
X122170119Y-106806465D01*
X122170118Y-106806464D01*
X122170115Y-106806463D01*
X121988683Y-106751427D01*
X121988681Y-106751426D01*
X121988683Y-106751426D01*
X121800000Y-106732843D01*
X121611318Y-106751426D01*
X121504194Y-106783921D01*
X121429885Y-106806463D01*
X121429882Y-106806464D01*
X121429880Y-106806465D01*
X121429877Y-106806466D01*
X121262681Y-106895834D01*
X121262674Y-106895838D01*
X121116116Y-107016116D01*
X120995838Y-107162674D01*
X120995834Y-107162681D01*
X120906466Y-107329877D01*
X120906465Y-107329880D01*
X120906464Y-107329882D01*
X120906463Y-107329885D01*
X120885614Y-107398616D01*
X120851426Y-107511318D01*
X120832843Y-107700000D01*
X120851426Y-107888681D01*
X120851427Y-107888683D01*
X120906463Y-108070115D01*
X120906464Y-108070118D01*
X120906465Y-108070119D01*
X120906466Y-108070122D01*
X120995834Y-108237318D01*
X120995838Y-108237325D01*
X121011440Y-108256336D01*
X121038752Y-108320647D01*
X121026960Y-108389514D01*
X121011440Y-108413664D01*
X120995838Y-108432674D01*
X120995834Y-108432681D01*
X120906466Y-108599877D01*
X120906465Y-108599880D01*
X120906464Y-108599882D01*
X120906463Y-108599885D01*
X120880796Y-108684496D01*
X120842500Y-108742934D01*
X120778688Y-108771390D01*
X120762137Y-108772500D01*
X101304875Y-108772500D01*
X101295146Y-108772118D01*
X101126308Y-108758830D01*
X101107090Y-108755786D01*
X100947167Y-108717392D01*
X100928661Y-108711379D01*
X100776710Y-108648438D01*
X100759376Y-108639606D01*
X100619133Y-108553665D01*
X100603403Y-108542236D01*
X100478338Y-108435421D01*
X100464578Y-108421661D01*
X100390563Y-108335000D01*
X100357760Y-108296592D01*
X100346336Y-108280869D01*
X100260390Y-108140618D01*
X100251561Y-108123289D01*
X100229535Y-108070115D01*
X100188617Y-107971331D01*
X100182609Y-107952839D01*
X100144212Y-107792904D01*
X100141169Y-107773690D01*
X100127882Y-107604852D01*
X100127500Y-107595124D01*
X100127500Y-102330427D01*
X104547500Y-102330427D01*
X104547500Y-102449572D01*
X104578337Y-102564660D01*
X104606089Y-102612726D01*
X104637910Y-102667842D01*
X104722158Y-102752090D01*
X104825341Y-102811663D01*
X104940427Y-102842500D01*
X104940429Y-102842500D01*
X105059571Y-102842500D01*
X105059573Y-102842500D01*
X105174659Y-102811663D01*
X105277842Y-102752090D01*
X105362090Y-102667842D01*
X105421663Y-102564659D01*
X105452500Y-102449573D01*
X105452500Y-102330427D01*
X105421663Y-102215341D01*
X105417766Y-102208592D01*
X105413680Y-102201514D01*
X105362090Y-102112158D01*
X105277842Y-102027910D01*
X105212184Y-101990002D01*
X105174660Y-101968337D01*
X105094811Y-101946942D01*
X105059573Y-101937500D01*
X104940427Y-101937500D01*
X104825339Y-101968337D01*
X104722158Y-102027910D01*
X104722155Y-102027912D01*
X104637912Y-102112155D01*
X104637910Y-102112158D01*
X104578337Y-102215339D01*
X104547500Y-102330427D01*
X100127500Y-102330427D01*
X100127500Y-98799983D01*
X104845131Y-98799983D01*
X104845131Y-98799988D01*
X104862498Y-98909644D01*
X104912904Y-99008571D01*
X104912909Y-99008578D01*
X104991407Y-99087076D01*
X104991409Y-99087077D01*
X104991413Y-99087081D01*
X105090339Y-99137486D01*
X105094308Y-99139508D01*
X105145104Y-99187483D01*
X105161899Y-99255304D01*
X105139362Y-99321438D01*
X105094308Y-99360478D01*
X105090339Y-99362499D01*
X105090339Y-99362500D01*
X104991413Y-99412905D01*
X104991412Y-99412906D01*
X104991407Y-99412909D01*
X104912909Y-99491407D01*
X104912904Y-99491414D01*
X104862498Y-99590341D01*
X104845131Y-99699997D01*
X104845131Y-99700002D01*
X104862498Y-99809658D01*
X104912904Y-99908585D01*
X104912909Y-99908592D01*
X104991407Y-99987090D01*
X104991410Y-99987092D01*
X104991413Y-99987095D01*
X105090339Y-100037500D01*
X105090341Y-100037501D01*
X105199998Y-100054869D01*
X105200000Y-100054869D01*
X105200002Y-100054869D01*
X105309658Y-100037501D01*
X105309659Y-100037500D01*
X105309661Y-100037500D01*
X105408587Y-99987095D01*
X105487095Y-99908587D01*
X105537500Y-99809661D01*
X105537500Y-99809659D01*
X105537501Y-99809658D01*
X105554869Y-99700002D01*
X105554869Y-99699997D01*
X105537501Y-99590341D01*
X105510577Y-99537500D01*
X105487095Y-99491413D01*
X105487092Y-99491410D01*
X105487090Y-99491407D01*
X105408592Y-99412909D01*
X105408588Y-99412906D01*
X105408587Y-99412905D01*
X105309661Y-99362500D01*
X105309660Y-99362499D01*
X105305692Y-99360478D01*
X105254895Y-99312504D01*
X105238100Y-99244683D01*
X105260637Y-99178548D01*
X105305692Y-99139508D01*
X105309660Y-99137486D01*
X105309661Y-99137486D01*
X105408587Y-99087081D01*
X105487095Y-99008573D01*
X105537500Y-98909647D01*
X105537500Y-98909645D01*
X105537501Y-98909644D01*
X105554869Y-98799988D01*
X105554869Y-98799983D01*
X105537501Y-98690327D01*
X105519315Y-98654635D01*
X105487095Y-98591399D01*
X105487092Y-98591396D01*
X105487090Y-98591393D01*
X105408592Y-98512895D01*
X105408588Y-98512892D01*
X105408587Y-98512891D01*
X105388284Y-98502546D01*
X105309658Y-98462484D01*
X105200002Y-98445117D01*
X105199998Y-98445117D01*
X105090341Y-98462484D01*
X104991414Y-98512890D01*
X104991407Y-98512895D01*
X104912909Y-98591393D01*
X104912904Y-98591400D01*
X104862498Y-98690327D01*
X104845131Y-98799983D01*
X100127500Y-98799983D01*
X100127500Y-96550427D01*
X104547500Y-96550427D01*
X104547500Y-96669573D01*
X104558548Y-96710804D01*
X104578337Y-96784660D01*
X104603825Y-96828805D01*
X104637910Y-96887842D01*
X104722158Y-96972090D01*
X104825341Y-97031663D01*
X104940427Y-97062500D01*
X104940429Y-97062500D01*
X105059571Y-97062500D01*
X105059573Y-97062500D01*
X105174659Y-97031663D01*
X105277842Y-96972090D01*
X105362090Y-96887842D01*
X105421663Y-96784659D01*
X105452500Y-96669573D01*
X105452500Y-96550427D01*
X105421663Y-96435341D01*
X105362090Y-96332158D01*
X105277842Y-96247910D01*
X105226250Y-96218123D01*
X105174660Y-96188337D01*
X105117116Y-96172918D01*
X105059573Y-96157500D01*
X104940427Y-96157500D01*
X104825339Y-96188337D01*
X104722158Y-96247910D01*
X104722155Y-96247912D01*
X104637912Y-96332155D01*
X104637910Y-96332158D01*
X104578337Y-96435339D01*
X104549282Y-96543776D01*
X104547500Y-96550427D01*
X100127500Y-96550427D01*
X100127500Y-94799997D01*
X103045131Y-94799997D01*
X103045131Y-94800002D01*
X103062498Y-94909658D01*
X103112904Y-95008585D01*
X103112909Y-95008592D01*
X103191407Y-95087090D01*
X103191410Y-95087092D01*
X103191413Y-95087095D01*
X103290339Y-95137500D01*
X103290341Y-95137501D01*
X103399998Y-95154869D01*
X103400000Y-95154869D01*
X103400002Y-95154869D01*
X103509658Y-95137501D01*
X103509659Y-95137500D01*
X103509661Y-95137500D01*
X103608587Y-95087095D01*
X103687095Y-95008587D01*
X103737500Y-94909661D01*
X103737500Y-94909659D01*
X103737501Y-94909658D01*
X103754869Y-94800002D01*
X103754869Y-94799997D01*
X103737501Y-94690341D01*
X103719427Y-94654869D01*
X103687095Y-94591413D01*
X103687092Y-94591410D01*
X103687090Y-94591407D01*
X103608592Y-94512909D01*
X103608588Y-94512906D01*
X103608587Y-94512905D01*
X103600112Y-94508587D01*
X103509658Y-94462498D01*
X103443201Y-94451973D01*
X103399288Y-94431156D01*
X103372336Y-94448477D01*
X103356799Y-94451973D01*
X103290341Y-94462498D01*
X103191414Y-94512904D01*
X103191407Y-94512909D01*
X103112909Y-94591407D01*
X103112904Y-94591414D01*
X103062498Y-94690341D01*
X103045131Y-94799997D01*
X100127500Y-94799997D01*
X100127500Y-94237028D01*
X100147185Y-94169989D01*
X100199989Y-94124234D01*
X100269147Y-94114290D01*
X100312035Y-94128808D01*
G37*
G04 #@! TD.AperFunction*
G04 #@! TA.AperFunction,Conductor*
G36*
X123134908Y-91247185D02*
G01*
X123180663Y-91299989D01*
X123186529Y-91315502D01*
X123236463Y-91480115D01*
X123236464Y-91480118D01*
X123236465Y-91480119D01*
X123236466Y-91480122D01*
X123325834Y-91647318D01*
X123325838Y-91647325D01*
X123341440Y-91666336D01*
X123368752Y-91730647D01*
X123356960Y-91799514D01*
X123341440Y-91823664D01*
X123325838Y-91842674D01*
X123325834Y-91842681D01*
X123236466Y-92009877D01*
X123236465Y-92009880D01*
X123236464Y-92009882D01*
X123236463Y-92009885D01*
X123225154Y-92047167D01*
X123181426Y-92191318D01*
X123162843Y-92380000D01*
X123181426Y-92568681D01*
X123194082Y-92610403D01*
X123236463Y-92750115D01*
X123236464Y-92750118D01*
X123236465Y-92750119D01*
X123236466Y-92750122D01*
X123325834Y-92917318D01*
X123325838Y-92917325D01*
X123446116Y-93063883D01*
X123592674Y-93184161D01*
X123592681Y-93184165D01*
X123759877Y-93273533D01*
X123759878Y-93273533D01*
X123759885Y-93273537D01*
X123941317Y-93328573D01*
X123941316Y-93328573D01*
X123958233Y-93330239D01*
X124130000Y-93347157D01*
X124318683Y-93328573D01*
X124500115Y-93273537D01*
X124667324Y-93184162D01*
X124813883Y-93063883D01*
X124934162Y-92917324D01*
X125023537Y-92750115D01*
X125078573Y-92568683D01*
X125097157Y-92380000D01*
X125078573Y-92191317D01*
X125023537Y-92009885D01*
X125013664Y-91991413D01*
X124934166Y-91842682D01*
X124934164Y-91842679D01*
X124934160Y-91842674D01*
X124918559Y-91823664D01*
X124891246Y-91759356D01*
X124903036Y-91690489D01*
X124918559Y-91666336D01*
X124934162Y-91647324D01*
X124949363Y-91618886D01*
X125012843Y-91500122D01*
X125023537Y-91480115D01*
X125073470Y-91315504D01*
X125111768Y-91257066D01*
X125175580Y-91228610D01*
X125192131Y-91227500D01*
X125607869Y-91227500D01*
X125674908Y-91247185D01*
X125720663Y-91299989D01*
X125726529Y-91315502D01*
X125776463Y-91480115D01*
X125776464Y-91480118D01*
X125776465Y-91480119D01*
X125776466Y-91480122D01*
X125865834Y-91647318D01*
X125865838Y-91647325D01*
X125881440Y-91666336D01*
X125908752Y-91730647D01*
X125896960Y-91799514D01*
X125881440Y-91823664D01*
X125865838Y-91842674D01*
X125865834Y-91842681D01*
X125776466Y-92009877D01*
X125776465Y-92009880D01*
X125776464Y-92009882D01*
X125776463Y-92009885D01*
X125765154Y-92047167D01*
X125721426Y-92191318D01*
X125702843Y-92380000D01*
X125721426Y-92568681D01*
X125734082Y-92610403D01*
X125776463Y-92750115D01*
X125776464Y-92750118D01*
X125776465Y-92750119D01*
X125776466Y-92750122D01*
X125865834Y-92917318D01*
X125865838Y-92917325D01*
X125986116Y-93063883D01*
X126132674Y-93184161D01*
X126132681Y-93184165D01*
X126299877Y-93273533D01*
X126299878Y-93273533D01*
X126299885Y-93273537D01*
X126481317Y-93328573D01*
X126481316Y-93328573D01*
X126498233Y-93330239D01*
X126670000Y-93347157D01*
X126858683Y-93328573D01*
X127040115Y-93273537D01*
X127207324Y-93184162D01*
X127353883Y-93063883D01*
X127474162Y-92917324D01*
X127563537Y-92750115D01*
X127618573Y-92568683D01*
X127637157Y-92380000D01*
X127618573Y-92191317D01*
X127563537Y-92009885D01*
X127553664Y-91991413D01*
X127474166Y-91842682D01*
X127474164Y-91842679D01*
X127474160Y-91842674D01*
X127458559Y-91823664D01*
X127431246Y-91759356D01*
X127443036Y-91690489D01*
X127458559Y-91666336D01*
X127474162Y-91647324D01*
X127489363Y-91618886D01*
X127552843Y-91500122D01*
X127563537Y-91480115D01*
X127613470Y-91315504D01*
X127651768Y-91257066D01*
X127715580Y-91228610D01*
X127732131Y-91227500D01*
X128137869Y-91227500D01*
X128204908Y-91247185D01*
X128250663Y-91299989D01*
X128256529Y-91315502D01*
X128306463Y-91480115D01*
X128306464Y-91480118D01*
X128306465Y-91480119D01*
X128306466Y-91480122D01*
X128395834Y-91647318D01*
X128395838Y-91647325D01*
X128411440Y-91666336D01*
X128438752Y-91730647D01*
X128426960Y-91799514D01*
X128411440Y-91823664D01*
X128395838Y-91842674D01*
X128395834Y-91842681D01*
X128306466Y-92009877D01*
X128306465Y-92009880D01*
X128306464Y-92009882D01*
X128306463Y-92009885D01*
X128295154Y-92047167D01*
X128251426Y-92191318D01*
X128232843Y-92380000D01*
X128251426Y-92568681D01*
X128264082Y-92610403D01*
X128306463Y-92750115D01*
X128306464Y-92750118D01*
X128306465Y-92750119D01*
X128306466Y-92750122D01*
X128395834Y-92917318D01*
X128395838Y-92917325D01*
X128516116Y-93063883D01*
X128662674Y-93184161D01*
X128662681Y-93184165D01*
X128829877Y-93273533D01*
X128829878Y-93273533D01*
X128829885Y-93273537D01*
X129011317Y-93328573D01*
X129011316Y-93328573D01*
X129028233Y-93330239D01*
X129200000Y-93347157D01*
X129388683Y-93328573D01*
X129570115Y-93273537D01*
X129737324Y-93184162D01*
X129883883Y-93063883D01*
X130004162Y-92917324D01*
X130093537Y-92750115D01*
X130148573Y-92568683D01*
X130167157Y-92380000D01*
X130148573Y-92191317D01*
X130093537Y-92009885D01*
X130083664Y-91991413D01*
X130004166Y-91842682D01*
X130004164Y-91842679D01*
X130004160Y-91842674D01*
X129988559Y-91823664D01*
X129961246Y-91759356D01*
X129973036Y-91690489D01*
X129988559Y-91666336D01*
X130004162Y-91647324D01*
X130019363Y-91618886D01*
X130082843Y-91500122D01*
X130093537Y-91480115D01*
X130143470Y-91315504D01*
X130181768Y-91257066D01*
X130245580Y-91228610D01*
X130262131Y-91227500D01*
X130631802Y-91227500D01*
X130698841Y-91247185D01*
X130744596Y-91299989D01*
X130750463Y-91315505D01*
X130751426Y-91318682D01*
X130751427Y-91318683D01*
X130806463Y-91500115D01*
X130806464Y-91500118D01*
X130806465Y-91500119D01*
X130806466Y-91500122D01*
X130895834Y-91667318D01*
X130895838Y-91667325D01*
X130911440Y-91686336D01*
X130938752Y-91750647D01*
X130926960Y-91819514D01*
X130911440Y-91843664D01*
X130895838Y-91862674D01*
X130895834Y-91862681D01*
X130806466Y-92029877D01*
X130806465Y-92029880D01*
X130806464Y-92029882D01*
X130806463Y-92029885D01*
X130796695Y-92062086D01*
X130751426Y-92211318D01*
X130732843Y-92400000D01*
X130751426Y-92588681D01*
X130758770Y-92612890D01*
X130806463Y-92770115D01*
X130806464Y-92770118D01*
X130806465Y-92770119D01*
X130806466Y-92770122D01*
X130895834Y-92937318D01*
X130895838Y-92937325D01*
X131016116Y-93083883D01*
X131162674Y-93204161D01*
X131162681Y-93204165D01*
X131329877Y-93293533D01*
X131329878Y-93293533D01*
X131329885Y-93293537D01*
X131511317Y-93348573D01*
X131511316Y-93348573D01*
X131514464Y-93348883D01*
X131700000Y-93367157D01*
X131888683Y-93348573D01*
X132070115Y-93293537D01*
X132237324Y-93204162D01*
X132383883Y-93083883D01*
X132504162Y-92937324D01*
X132593537Y-92770115D01*
X132648573Y-92588683D01*
X132667157Y-92400000D01*
X132648573Y-92211317D01*
X132593537Y-92029885D01*
X132572974Y-91991414D01*
X132504166Y-91862682D01*
X132504164Y-91862679D01*
X132504160Y-91862674D01*
X132488559Y-91843664D01*
X132461246Y-91779356D01*
X132473036Y-91710489D01*
X132488559Y-91686336D01*
X132504162Y-91667324D01*
X132512446Y-91651827D01*
X132593533Y-91500122D01*
X132593537Y-91500115D01*
X132648573Y-91318683D01*
X132648573Y-91318682D01*
X132649537Y-91315505D01*
X132687835Y-91257066D01*
X132751647Y-91228610D01*
X132768198Y-91227500D01*
X133231802Y-91227500D01*
X133298841Y-91247185D01*
X133344596Y-91299989D01*
X133350463Y-91315505D01*
X133351426Y-91318682D01*
X133351427Y-91318683D01*
X133406463Y-91500115D01*
X133406464Y-91500118D01*
X133406465Y-91500119D01*
X133406466Y-91500122D01*
X133495834Y-91667318D01*
X133495838Y-91667325D01*
X133511440Y-91686336D01*
X133538752Y-91750647D01*
X133526960Y-91819514D01*
X133511440Y-91843664D01*
X133495838Y-91862674D01*
X133495834Y-91862681D01*
X133406466Y-92029877D01*
X133406465Y-92029880D01*
X133406464Y-92029882D01*
X133406463Y-92029885D01*
X133396695Y-92062086D01*
X133351426Y-92211318D01*
X133332843Y-92400000D01*
X133351426Y-92588681D01*
X133358770Y-92612890D01*
X133406463Y-92770115D01*
X133406464Y-92770118D01*
X133406465Y-92770119D01*
X133406466Y-92770122D01*
X133495834Y-92937318D01*
X133495838Y-92937325D01*
X133616116Y-93083883D01*
X133762674Y-93204161D01*
X133762681Y-93204165D01*
X133929877Y-93293533D01*
X133929878Y-93293533D01*
X133929885Y-93293537D01*
X134111317Y-93348573D01*
X134111316Y-93348573D01*
X134114464Y-93348883D01*
X134300000Y-93367157D01*
X134488683Y-93348573D01*
X134670115Y-93293537D01*
X134837324Y-93204162D01*
X134983883Y-93083883D01*
X135104162Y-92937324D01*
X135193537Y-92770115D01*
X135193540Y-92770103D01*
X135193934Y-92769155D01*
X135194280Y-92768724D01*
X135196409Y-92764743D01*
X135197163Y-92765146D01*
X135237769Y-92714747D01*
X135304061Y-92692675D01*
X135371762Y-92709948D01*
X135419378Y-92761080D01*
X135432500Y-92816596D01*
X135432500Y-93860902D01*
X135412815Y-93927941D01*
X135360011Y-93973696D01*
X135344496Y-93979562D01*
X135189885Y-94026463D01*
X135189881Y-94026465D01*
X135189878Y-94026466D01*
X135189877Y-94026466D01*
X135022681Y-94115834D01*
X135022674Y-94115838D01*
X135003664Y-94131440D01*
X134939353Y-94158752D01*
X134870486Y-94146960D01*
X134846336Y-94131440D01*
X134827325Y-94115838D01*
X134827318Y-94115834D01*
X134660122Y-94026466D01*
X134660119Y-94026465D01*
X134660118Y-94026464D01*
X134660115Y-94026463D01*
X134478683Y-93971427D01*
X134478681Y-93971426D01*
X134478683Y-93971426D01*
X134290000Y-93952843D01*
X134101318Y-93971426D01*
X133994194Y-94003921D01*
X133919885Y-94026463D01*
X133919882Y-94026464D01*
X133919880Y-94026465D01*
X133919877Y-94026466D01*
X133752681Y-94115834D01*
X133752674Y-94115838D01*
X133606116Y-94236116D01*
X133485838Y-94382674D01*
X133485834Y-94382681D01*
X133396466Y-94549877D01*
X133396465Y-94549880D01*
X133396464Y-94549882D01*
X133396463Y-94549885D01*
X133374306Y-94622928D01*
X133341426Y-94731318D01*
X133322843Y-94920000D01*
X133341426Y-95108681D01*
X133342709Y-95112909D01*
X133396463Y-95290115D01*
X133396464Y-95290118D01*
X133396465Y-95290119D01*
X133396466Y-95290122D01*
X133485834Y-95457318D01*
X133485838Y-95457325D01*
X133543430Y-95527500D01*
X133606117Y-95603883D01*
X133613157Y-95609661D01*
X133642655Y-95633869D01*
X133681990Y-95691615D01*
X133683861Y-95761459D01*
X133647674Y-95821228D01*
X133584918Y-95851944D01*
X133544595Y-95852197D01*
X133508379Y-95846461D01*
X133500004Y-95845135D01*
X133500003Y-95845135D01*
X133500002Y-95845135D01*
X133390345Y-95862502D01*
X133291418Y-95912908D01*
X133291411Y-95912913D01*
X133212913Y-95991411D01*
X133212908Y-95991418D01*
X133162502Y-96090345D01*
X133145135Y-96200001D01*
X133145135Y-96200006D01*
X133162502Y-96309662D01*
X133212908Y-96408589D01*
X133212913Y-96408596D01*
X133291411Y-96487094D01*
X133291414Y-96487096D01*
X133291417Y-96487099D01*
X133339162Y-96511426D01*
X133390345Y-96537505D01*
X133461718Y-96548809D01*
X133500004Y-96554873D01*
X133514383Y-96552595D01*
X133583672Y-96561548D01*
X133637126Y-96606542D01*
X133657768Y-96673293D01*
X133639046Y-96740607D01*
X133612453Y-96770916D01*
X133606116Y-96776117D01*
X133485838Y-96922674D01*
X133485834Y-96922681D01*
X133396466Y-97089877D01*
X133396465Y-97089880D01*
X133396464Y-97089882D01*
X133396463Y-97089885D01*
X133384906Y-97127984D01*
X133341426Y-97271318D01*
X133322843Y-97460000D01*
X133341426Y-97648681D01*
X133341427Y-97648683D01*
X133396463Y-97830115D01*
X133396464Y-97830118D01*
X133396465Y-97830119D01*
X133396466Y-97830122D01*
X133485834Y-97997318D01*
X133485838Y-97997325D01*
X133606116Y-98143883D01*
X133752674Y-98264161D01*
X133752681Y-98264165D01*
X133919877Y-98353533D01*
X133919878Y-98353533D01*
X133919885Y-98353537D01*
X134101317Y-98408573D01*
X134101316Y-98408573D01*
X134118233Y-98410239D01*
X134290000Y-98427157D01*
X134478683Y-98408573D01*
X134660115Y-98353537D01*
X134827319Y-98264165D01*
X134827320Y-98264164D01*
X134827319Y-98264164D01*
X134827324Y-98264162D01*
X134846335Y-98248559D01*
X134910644Y-98221246D01*
X134979511Y-98233036D01*
X135003662Y-98248557D01*
X135022676Y-98264162D01*
X135022677Y-98264162D01*
X135022679Y-98264164D01*
X135022682Y-98264166D01*
X135189877Y-98353533D01*
X135189878Y-98353533D01*
X135189885Y-98353537D01*
X135344497Y-98400437D01*
X135402934Y-98438734D01*
X135431390Y-98502546D01*
X135432500Y-98519097D01*
X135432500Y-101480902D01*
X135412815Y-101547941D01*
X135360011Y-101593696D01*
X135344496Y-101599562D01*
X135189885Y-101646463D01*
X135189881Y-101646465D01*
X135189878Y-101646466D01*
X135189877Y-101646466D01*
X135022681Y-101735834D01*
X135022674Y-101735838D01*
X135003664Y-101751440D01*
X134939353Y-101778752D01*
X134870486Y-101766960D01*
X134846336Y-101751440D01*
X134827325Y-101735838D01*
X134827318Y-101735834D01*
X134660122Y-101646466D01*
X134660119Y-101646465D01*
X134660118Y-101646464D01*
X134660115Y-101646463D01*
X134478683Y-101591427D01*
X134478681Y-101591426D01*
X134478683Y-101591426D01*
X134306916Y-101574509D01*
X134290000Y-101572843D01*
X134289999Y-101572843D01*
X134241653Y-101577604D01*
X134173007Y-101564584D01*
X134122297Y-101516519D01*
X134105500Y-101454201D01*
X134105500Y-101224008D01*
X134105499Y-101223992D01*
X134100803Y-101180316D01*
X134096897Y-101162364D01*
X134089602Y-101128825D01*
X134089348Y-101127789D01*
X134087110Y-101118627D01*
X134044100Y-101037915D01*
X133998345Y-100985111D01*
X133998339Y-100985104D01*
X133980757Y-100967160D01*
X133980756Y-100967159D01*
X133980754Y-100967157D01*
X133980752Y-100967156D01*
X133980750Y-100967154D01*
X133900940Y-100922511D01*
X133900935Y-100922509D01*
X133833903Y-100902826D01*
X133833899Y-100902825D01*
X133833898Y-100902825D01*
X133776000Y-100894500D01*
X129545669Y-100894500D01*
X129478630Y-100874815D01*
X129432875Y-100822011D01*
X129422931Y-100752853D01*
X129435184Y-100714206D01*
X129435440Y-100713704D01*
X129437500Y-100709661D01*
X129437500Y-100709659D01*
X129437501Y-100709658D01*
X129454869Y-100600002D01*
X129454869Y-100599997D01*
X129437501Y-100490341D01*
X129437500Y-100490339D01*
X129387095Y-100391413D01*
X129387092Y-100391410D01*
X129387090Y-100391407D01*
X129308592Y-100312909D01*
X129308588Y-100312906D01*
X129308587Y-100312905D01*
X129304743Y-100310946D01*
X129209658Y-100262498D01*
X129100002Y-100245131D01*
X129099998Y-100245131D01*
X128990341Y-100262498D01*
X128891414Y-100312904D01*
X128891407Y-100312909D01*
X128812909Y-100391407D01*
X128812904Y-100391414D01*
X128762498Y-100490341D01*
X128745131Y-100599997D01*
X128745131Y-100600002D01*
X128762498Y-100709658D01*
X128812904Y-100808586D01*
X128817393Y-100814764D01*
X128840871Y-100880571D01*
X128825044Y-100948624D01*
X128774937Y-100997318D01*
X128752768Y-101004700D01*
X128753168Y-101005932D01*
X128736838Y-101011237D01*
X128666997Y-101013229D01*
X128609955Y-100980086D01*
X128597290Y-100967160D01*
X128597289Y-100967159D01*
X128597287Y-100967157D01*
X128597285Y-100967156D01*
X128597283Y-100967154D01*
X128517473Y-100922511D01*
X128517468Y-100922509D01*
X128504167Y-100918603D01*
X128494562Y-100915783D01*
X128435786Y-100878008D01*
X128406762Y-100814452D01*
X128405500Y-100796807D01*
X128405500Y-99199997D01*
X132045131Y-99199997D01*
X132045131Y-99200002D01*
X132062498Y-99309658D01*
X132112904Y-99408585D01*
X132112909Y-99408592D01*
X132191407Y-99487090D01*
X132191410Y-99487092D01*
X132191413Y-99487095D01*
X132245974Y-99514895D01*
X132290341Y-99537501D01*
X132399998Y-99554869D01*
X132400000Y-99554869D01*
X132400002Y-99554869D01*
X132509658Y-99537501D01*
X132509659Y-99537500D01*
X132509661Y-99537500D01*
X132608587Y-99487095D01*
X132687095Y-99408587D01*
X132737500Y-99309661D01*
X132737500Y-99309659D01*
X132737501Y-99309658D01*
X132754869Y-99200002D01*
X132754869Y-99199997D01*
X132737501Y-99090341D01*
X132695837Y-99008571D01*
X132687095Y-98991413D01*
X132687092Y-98991410D01*
X132687090Y-98991407D01*
X132608592Y-98912909D01*
X132608588Y-98912906D01*
X132608587Y-98912905D01*
X132602187Y-98909644D01*
X132509658Y-98862498D01*
X132400002Y-98845131D01*
X132399998Y-98845131D01*
X132290341Y-98862498D01*
X132191414Y-98912904D01*
X132191407Y-98912909D01*
X132112909Y-98991407D01*
X132112904Y-98991414D01*
X132062498Y-99090341D01*
X132045131Y-99199997D01*
X128405500Y-99199997D01*
X128405500Y-97924008D01*
X128405499Y-97923992D01*
X128400803Y-97880316D01*
X128394574Y-97851682D01*
X128389602Y-97828825D01*
X128389046Y-97826552D01*
X128387110Y-97818627D01*
X128344100Y-97737915D01*
X128298345Y-97685111D01*
X128298339Y-97685104D01*
X128280757Y-97667160D01*
X128280756Y-97667159D01*
X128280754Y-97667157D01*
X128280752Y-97667156D01*
X128280750Y-97667154D01*
X128200940Y-97622511D01*
X128200935Y-97622509D01*
X128133903Y-97602826D01*
X128133899Y-97602825D01*
X128133898Y-97602825D01*
X128076000Y-97594500D01*
X128075996Y-97594500D01*
X127459904Y-97594500D01*
X127392865Y-97574815D01*
X127347110Y-97522011D01*
X127338369Y-97493012D01*
X127337501Y-97490342D01*
X127337500Y-97490340D01*
X127337500Y-97490339D01*
X127291469Y-97399997D01*
X130445131Y-97399997D01*
X130445131Y-97400002D01*
X130462498Y-97509658D01*
X130512904Y-97608585D01*
X130512909Y-97608592D01*
X130591407Y-97687090D01*
X130591410Y-97687092D01*
X130591413Y-97687095D01*
X130665632Y-97724911D01*
X130690341Y-97737501D01*
X130799998Y-97754869D01*
X130800000Y-97754869D01*
X130800002Y-97754869D01*
X130909658Y-97737501D01*
X130909659Y-97737500D01*
X130909661Y-97737500D01*
X131008587Y-97687095D01*
X131087095Y-97608587D01*
X131137500Y-97509661D01*
X131137500Y-97509659D01*
X131137501Y-97509658D01*
X131154869Y-97400002D01*
X131154869Y-97399997D01*
X131137501Y-97290341D01*
X131123314Y-97262498D01*
X131087095Y-97191413D01*
X131087092Y-97191410D01*
X131087090Y-97191407D01*
X131008592Y-97112909D01*
X131008588Y-97112906D01*
X131008587Y-97112905D01*
X130976253Y-97096430D01*
X130909658Y-97062498D01*
X130800002Y-97045131D01*
X130799998Y-97045131D01*
X130690341Y-97062498D01*
X130591414Y-97112904D01*
X130591407Y-97112909D01*
X130512909Y-97191407D01*
X130512904Y-97191414D01*
X130462498Y-97290341D01*
X130445131Y-97399997D01*
X127291469Y-97399997D01*
X127287095Y-97391413D01*
X127287092Y-97391410D01*
X127287090Y-97391407D01*
X127208592Y-97312909D01*
X127208588Y-97312906D01*
X127208587Y-97312905D01*
X127204743Y-97310946D01*
X127109658Y-97262498D01*
X127000002Y-97245131D01*
X126999998Y-97245131D01*
X126890341Y-97262498D01*
X126791414Y-97312904D01*
X126791407Y-97312909D01*
X126712909Y-97391407D01*
X126712904Y-97391414D01*
X126662498Y-97490342D01*
X126659482Y-97499625D01*
X126658161Y-97499196D01*
X126632638Y-97553034D01*
X126573326Y-97589964D01*
X126540096Y-97594500D01*
X123342862Y-97594500D01*
X123309295Y-97597261D01*
X123309273Y-97597264D01*
X123285651Y-97601177D01*
X123216296Y-97592712D01*
X123162527Y-97548095D01*
X123141416Y-97481491D01*
X123142915Y-97459444D01*
X123146341Y-97437815D01*
X123146341Y-97437813D01*
X123128973Y-97328157D01*
X123100012Y-97271318D01*
X123078567Y-97229229D01*
X123078564Y-97229226D01*
X123078562Y-97229223D01*
X123076784Y-97227445D01*
X123075311Y-97224748D01*
X123072828Y-97221330D01*
X123073269Y-97221009D01*
X123043299Y-97166122D01*
X123048283Y-97096430D01*
X123053971Y-97083488D01*
X123081705Y-97029058D01*
X123082196Y-97025960D01*
X123099074Y-96919399D01*
X123099074Y-96919394D01*
X123081706Y-96809738D01*
X123061925Y-96770916D01*
X123031300Y-96710810D01*
X123031297Y-96710807D01*
X123031295Y-96710804D01*
X122970488Y-96649997D01*
X126835711Y-96649997D01*
X126835711Y-96650002D01*
X126853078Y-96759658D01*
X126903484Y-96858585D01*
X126903489Y-96858592D01*
X126981987Y-96937090D01*
X126981990Y-96937092D01*
X126981993Y-96937095D01*
X127067383Y-96980603D01*
X127080921Y-96987501D01*
X127190578Y-97004869D01*
X127190580Y-97004869D01*
X127190582Y-97004869D01*
X127300238Y-96987501D01*
X127300239Y-96987500D01*
X127300241Y-96987500D01*
X127399167Y-96937095D01*
X127477675Y-96858587D01*
X127528080Y-96759661D01*
X127528080Y-96759659D01*
X127528081Y-96759658D01*
X127545449Y-96650002D01*
X127545449Y-96649997D01*
X128056879Y-96649997D01*
X128056879Y-96650002D01*
X128074246Y-96759658D01*
X128124652Y-96858585D01*
X128124657Y-96858592D01*
X128203155Y-96937090D01*
X128203158Y-96937092D01*
X128203161Y-96937095D01*
X128288551Y-96980603D01*
X128302089Y-96987501D01*
X128411746Y-97004869D01*
X128411748Y-97004869D01*
X128411750Y-97004869D01*
X128521406Y-96987501D01*
X128521407Y-96987500D01*
X128521409Y-96987500D01*
X128620335Y-96937095D01*
X128698843Y-96858587D01*
X128749248Y-96759661D01*
X128749248Y-96759659D01*
X128749249Y-96759658D01*
X128761074Y-96684998D01*
X131289866Y-96684998D01*
X131289866Y-96685003D01*
X131307233Y-96794659D01*
X131357639Y-96893586D01*
X131357644Y-96893593D01*
X131436142Y-96972091D01*
X131436145Y-96972093D01*
X131436148Y-96972096D01*
X131500469Y-97004869D01*
X131535076Y-97022502D01*
X131644733Y-97039870D01*
X131644735Y-97039870D01*
X131644737Y-97039870D01*
X131754393Y-97022502D01*
X131754394Y-97022501D01*
X131754396Y-97022501D01*
X131853322Y-96972096D01*
X131931830Y-96893588D01*
X131982235Y-96794662D01*
X131982235Y-96794660D01*
X131982236Y-96794659D01*
X131999604Y-96685003D01*
X131999604Y-96684998D01*
X131982236Y-96575342D01*
X131982235Y-96575340D01*
X131931830Y-96476414D01*
X131931827Y-96476411D01*
X131931825Y-96476408D01*
X131853327Y-96397910D01*
X131853323Y-96397907D01*
X131853322Y-96397906D01*
X131824992Y-96383471D01*
X131754393Y-96347499D01*
X131644737Y-96330132D01*
X131644733Y-96330132D01*
X131535076Y-96347499D01*
X131436149Y-96397905D01*
X131436142Y-96397910D01*
X131357644Y-96476408D01*
X131357639Y-96476415D01*
X131307233Y-96575342D01*
X131289866Y-96684998D01*
X128761074Y-96684998D01*
X128766617Y-96650002D01*
X128766617Y-96649997D01*
X128749249Y-96540341D01*
X128747804Y-96537505D01*
X128698843Y-96441413D01*
X128698840Y-96441410D01*
X128698838Y-96441407D01*
X128620340Y-96362909D01*
X128620336Y-96362906D01*
X128620335Y-96362905D01*
X128590099Y-96347499D01*
X128521406Y-96312498D01*
X128411750Y-96295131D01*
X128411746Y-96295131D01*
X128302089Y-96312498D01*
X128203162Y-96362904D01*
X128203155Y-96362909D01*
X128124657Y-96441407D01*
X128124652Y-96441414D01*
X128074246Y-96540341D01*
X128056879Y-96649997D01*
X127545449Y-96649997D01*
X127528081Y-96540341D01*
X127526636Y-96537505D01*
X127477675Y-96441413D01*
X127477672Y-96441410D01*
X127477670Y-96441407D01*
X127399172Y-96362909D01*
X127399168Y-96362906D01*
X127399167Y-96362905D01*
X127368931Y-96347499D01*
X127300238Y-96312498D01*
X127190582Y-96295131D01*
X127190578Y-96295131D01*
X127080921Y-96312498D01*
X126981994Y-96362904D01*
X126981987Y-96362909D01*
X126903489Y-96441407D01*
X126903484Y-96441414D01*
X126853078Y-96540341D01*
X126835711Y-96649997D01*
X122970488Y-96649997D01*
X122952797Y-96632306D01*
X122952794Y-96632304D01*
X122952792Y-96632302D01*
X122873204Y-96591750D01*
X122822409Y-96543776D01*
X122805500Y-96481266D01*
X122805500Y-93924008D01*
X122805499Y-93923992D01*
X122805036Y-93919684D01*
X122800803Y-93880316D01*
X122795151Y-93854333D01*
X122789602Y-93828825D01*
X122789348Y-93827789D01*
X122787110Y-93818627D01*
X122744100Y-93737915D01*
X122698345Y-93685111D01*
X122698339Y-93685104D01*
X122680757Y-93667160D01*
X122680756Y-93667159D01*
X122680754Y-93667157D01*
X122680752Y-93667156D01*
X122680750Y-93667154D01*
X122600940Y-93622511D01*
X122600935Y-93622509D01*
X122533903Y-93602826D01*
X122533899Y-93602825D01*
X122533898Y-93602825D01*
X122476000Y-93594500D01*
X122475996Y-93594500D01*
X121811319Y-93594500D01*
X121744280Y-93574815D01*
X121698525Y-93522011D01*
X121688581Y-93452853D01*
X121717606Y-93389297D01*
X121776384Y-93351523D01*
X121787125Y-93348883D01*
X121788677Y-93348573D01*
X121788683Y-93348573D01*
X121970115Y-93293537D01*
X122137324Y-93204162D01*
X122283883Y-93083883D01*
X122404162Y-92937324D01*
X122493537Y-92770115D01*
X122548573Y-92588683D01*
X122567157Y-92400000D01*
X122548573Y-92211317D01*
X122493537Y-92029885D01*
X122472974Y-91991414D01*
X122404166Y-91862682D01*
X122404164Y-91862679D01*
X122404160Y-91862674D01*
X122388559Y-91843664D01*
X122361246Y-91779356D01*
X122373036Y-91710489D01*
X122388559Y-91686336D01*
X122404162Y-91667324D01*
X122412446Y-91651827D01*
X122493533Y-91500122D01*
X122493537Y-91500115D01*
X122548573Y-91318683D01*
X122548573Y-91318682D01*
X122549537Y-91315505D01*
X122587835Y-91257066D01*
X122651647Y-91228610D01*
X122668198Y-91227500D01*
X123067869Y-91227500D01*
X123134908Y-91247185D01*
G37*
G04 #@! TD.AperFunction*
G04 #@! TA.AperFunction,Conductor*
G36*
X116811777Y-91247185D02*
G01*
X116857532Y-91299989D01*
X116867476Y-91369147D01*
X116862669Y-91389820D01*
X116862498Y-91390345D01*
X116845131Y-91499997D01*
X116845131Y-91500002D01*
X116862498Y-91609658D01*
X116912904Y-91708585D01*
X116912909Y-91708592D01*
X116991407Y-91787090D01*
X116991410Y-91787092D01*
X116991413Y-91787095D01*
X117063184Y-91823664D01*
X117090341Y-91837501D01*
X117199998Y-91854869D01*
X117200000Y-91854869D01*
X117200002Y-91854869D01*
X117309656Y-91837501D01*
X117309656Y-91837500D01*
X117309661Y-91837500D01*
X117408587Y-91787095D01*
X117408590Y-91787091D01*
X117415435Y-91783604D01*
X117484104Y-91770708D01*
X117548844Y-91796984D01*
X117589102Y-91854090D01*
X117595019Y-91880831D01*
X117599197Y-91919687D01*
X117610397Y-91971174D01*
X117612342Y-91979133D01*
X117612890Y-91981373D01*
X117647950Y-92047167D01*
X117655899Y-92062083D01*
X117655901Y-92062086D01*
X117701660Y-92114895D01*
X117719242Y-92132839D01*
X117719246Y-92132843D01*
X117719247Y-92132844D01*
X117719249Y-92132845D01*
X117799059Y-92177488D01*
X117799063Y-92177490D01*
X117866102Y-92197175D01*
X117924000Y-92205500D01*
X118323657Y-92205500D01*
X118390696Y-92225185D01*
X118426831Y-92260717D01*
X118815326Y-92843459D01*
X118857473Y-92906680D01*
X118864115Y-92916065D01*
X118872413Y-92927121D01*
X118873978Y-92928872D01*
X118874409Y-92929779D01*
X118875591Y-92931354D01*
X118875271Y-92931593D01*
X118903963Y-92991981D01*
X118902822Y-93032673D01*
X118903456Y-93032765D01*
X118902826Y-93037141D01*
X118902825Y-93037147D01*
X118894500Y-93095045D01*
X118894500Y-93095048D01*
X118894500Y-94976007D01*
X118899197Y-95019686D01*
X118910397Y-95071174D01*
X118912890Y-95081372D01*
X118912891Y-95081375D01*
X118955899Y-95162083D01*
X118955901Y-95162086D01*
X119001660Y-95214895D01*
X119019242Y-95232839D01*
X119019246Y-95232843D01*
X119019247Y-95232844D01*
X119019249Y-95232845D01*
X119099059Y-95277488D01*
X119099063Y-95277490D01*
X119166102Y-95297175D01*
X119224000Y-95305500D01*
X120160753Y-95305500D01*
X120227792Y-95325185D01*
X120273547Y-95377989D01*
X120283491Y-95447147D01*
X120283226Y-95448897D01*
X120275133Y-95499996D01*
X120275133Y-95500002D01*
X120292500Y-95609658D01*
X120342906Y-95708585D01*
X120342911Y-95708592D01*
X120421409Y-95787090D01*
X120421412Y-95787092D01*
X120421415Y-95787095D01*
X120520341Y-95837500D01*
X120520342Y-95837500D01*
X120520344Y-95837501D01*
X120520343Y-95837501D01*
X120605837Y-95851041D01*
X120622376Y-95853661D01*
X120685511Y-95883590D01*
X120722443Y-95942901D01*
X120721445Y-96012764D01*
X120685975Y-96067185D01*
X120686391Y-96067637D01*
X120686467Y-96067714D01*
X120686464Y-96067716D01*
X120686504Y-96067759D01*
X120685110Y-96069043D01*
X120667160Y-96086630D01*
X120667154Y-96086637D01*
X120622511Y-96166447D01*
X120622509Y-96166452D01*
X120602826Y-96233484D01*
X120602825Y-96233489D01*
X120602825Y-96233490D01*
X120595118Y-96287095D01*
X120594500Y-96291391D01*
X120594500Y-97470500D01*
X120574815Y-97537539D01*
X120522011Y-97583294D01*
X120470500Y-97594500D01*
X115940489Y-97594500D01*
X115940383Y-97594500D01*
X115939091Y-97594505D01*
X115937205Y-97594519D01*
X115878014Y-97603683D01*
X115866125Y-97607359D01*
X115796263Y-97608353D01*
X115736953Y-97571420D01*
X115707026Y-97508284D01*
X115705500Y-97488891D01*
X115705500Y-96924008D01*
X115705499Y-96923992D01*
X115705358Y-96922681D01*
X115700803Y-96880316D01*
X115692353Y-96841474D01*
X115689602Y-96828825D01*
X115689348Y-96827789D01*
X115687110Y-96818627D01*
X115644100Y-96737915D01*
X115598345Y-96685111D01*
X115598339Y-96685104D01*
X115580757Y-96667160D01*
X115580756Y-96667159D01*
X115580754Y-96667157D01*
X115580752Y-96667156D01*
X115580750Y-96667154D01*
X115500940Y-96622511D01*
X115500935Y-96622509D01*
X115433903Y-96602826D01*
X115433899Y-96602825D01*
X115433898Y-96602825D01*
X115376000Y-96594500D01*
X115375996Y-96594500D01*
X114629500Y-96594500D01*
X114562461Y-96574815D01*
X114516706Y-96522011D01*
X114505500Y-96470500D01*
X114505500Y-96360782D01*
X114505500Y-96360774D01*
X114503611Y-96332977D01*
X114499073Y-96299737D01*
X114499071Y-96299733D01*
X114499071Y-96299730D01*
X114469903Y-96218906D01*
X114469901Y-96218901D01*
X114457547Y-96199064D01*
X114432966Y-96159592D01*
X114418399Y-96139108D01*
X114346545Y-96082529D01*
X114346540Y-96082525D01*
X114283417Y-96052606D01*
X114279288Y-96050999D01*
X114279368Y-96050792D01*
X114265537Y-96045177D01*
X114253650Y-96039121D01*
X114236559Y-96030413D01*
X114229536Y-96027822D01*
X114191245Y-96013695D01*
X114191238Y-96013693D01*
X114134942Y-96000177D01*
X114134938Y-96000176D01*
X114086977Y-95994500D01*
X114086971Y-95994500D01*
X113224000Y-95994500D01*
X113223992Y-95994500D01*
X113180313Y-95999197D01*
X113128825Y-96010397D01*
X113118627Y-96012890D01*
X113118624Y-96012891D01*
X113037916Y-96055899D01*
X113037913Y-96055901D01*
X112985104Y-96101660D01*
X112967160Y-96119242D01*
X112967154Y-96119249D01*
X112922511Y-96199059D01*
X112922509Y-96199064D01*
X112902826Y-96266096D01*
X112902825Y-96266101D01*
X112902825Y-96266102D01*
X112894500Y-96324000D01*
X112894500Y-96581590D01*
X112897815Y-96606542D01*
X112901629Y-96635250D01*
X112901630Y-96635256D01*
X112918537Y-96697757D01*
X112924958Y-96717482D01*
X112975806Y-96793500D01*
X113026601Y-96841474D01*
X113074409Y-96875176D01*
X113074413Y-96875178D01*
X113076139Y-96876219D01*
X113099791Y-96894728D01*
X113104877Y-96899814D01*
X113127681Y-96931201D01*
X113130706Y-96937138D01*
X113142695Y-96974036D01*
X113143735Y-96980603D01*
X113143735Y-97019392D01*
X113142695Y-97025960D01*
X113130706Y-97062862D01*
X113127683Y-97068795D01*
X113104879Y-97100181D01*
X113099763Y-97105297D01*
X113077742Y-97122438D01*
X113077784Y-97122498D01*
X113076760Y-97123203D01*
X113075570Y-97124130D01*
X113074425Y-97124812D01*
X113029833Y-97155538D01*
X113029828Y-97155541D01*
X112981834Y-97198963D01*
X112981785Y-97199010D01*
X112967159Y-97213651D01*
X112967159Y-97213652D01*
X112967157Y-97213654D01*
X112967157Y-97213655D01*
X112922510Y-97293472D01*
X112922510Y-97293473D01*
X112922509Y-97293473D01*
X112902826Y-97360505D01*
X112902825Y-97360510D01*
X112902825Y-97360511D01*
X112897148Y-97399997D01*
X112894500Y-97418412D01*
X112894500Y-98070500D01*
X112874815Y-98137539D01*
X112822011Y-98183294D01*
X112770500Y-98194500D01*
X111466377Y-98194500D01*
X111399338Y-98174815D01*
X111353583Y-98122011D01*
X111343639Y-98052853D01*
X111355891Y-98014207D01*
X111356522Y-98012969D01*
X111362501Y-98001235D01*
X111362864Y-97998948D01*
X111379870Y-97891576D01*
X111379870Y-97891571D01*
X111362502Y-97781915D01*
X111341318Y-97740339D01*
X111312096Y-97682987D01*
X111312093Y-97682984D01*
X111312091Y-97682981D01*
X111233593Y-97604483D01*
X111233589Y-97604480D01*
X111233588Y-97604479D01*
X111175369Y-97574815D01*
X111134659Y-97554072D01*
X111025003Y-97536705D01*
X111024999Y-97536705D01*
X110915343Y-97554072D01*
X110852794Y-97585942D01*
X110784124Y-97598837D01*
X110719384Y-97572559D01*
X110708820Y-97563137D01*
X110708592Y-97562909D01*
X110708588Y-97562906D01*
X110708587Y-97562905D01*
X110678308Y-97547477D01*
X110609658Y-97512498D01*
X110500002Y-97495131D01*
X110499998Y-97495131D01*
X110390341Y-97512498D01*
X110291414Y-97562904D01*
X110291407Y-97562909D01*
X110212909Y-97641407D01*
X110212904Y-97641414D01*
X110162498Y-97740341D01*
X110145131Y-97849997D01*
X110145131Y-97850002D01*
X110162498Y-97959658D01*
X110190292Y-98014206D01*
X110203188Y-98082875D01*
X110176911Y-98147615D01*
X110119805Y-98187872D01*
X110079807Y-98194500D01*
X108329500Y-98194500D01*
X108262461Y-98174815D01*
X108216706Y-98122011D01*
X108205500Y-98070500D01*
X108205500Y-96549997D01*
X108645131Y-96549997D01*
X108645131Y-96550002D01*
X108662498Y-96659658D01*
X108712904Y-96758585D01*
X108712909Y-96758592D01*
X108791407Y-96837090D01*
X108791410Y-96837092D01*
X108791413Y-96837095D01*
X108833590Y-96858585D01*
X108890341Y-96887501D01*
X108999998Y-96904869D01*
X109000000Y-96904869D01*
X109000002Y-96904869D01*
X109109658Y-96887501D01*
X109109659Y-96887500D01*
X109109661Y-96887500D01*
X109208587Y-96837095D01*
X109287095Y-96758587D01*
X109337500Y-96659661D01*
X109337500Y-96659659D01*
X109337501Y-96659658D01*
X109354869Y-96550002D01*
X109354869Y-96549997D01*
X110650335Y-96549997D01*
X110650335Y-96550002D01*
X110667702Y-96659658D01*
X110718108Y-96758585D01*
X110718113Y-96758592D01*
X110796611Y-96837090D01*
X110796614Y-96837092D01*
X110796617Y-96837095D01*
X110838794Y-96858585D01*
X110895545Y-96887501D01*
X111005202Y-96904869D01*
X111005204Y-96904869D01*
X111005206Y-96904869D01*
X111114862Y-96887501D01*
X111114863Y-96887500D01*
X111114865Y-96887500D01*
X111213791Y-96837095D01*
X111292299Y-96758587D01*
X111342704Y-96659661D01*
X111342704Y-96659659D01*
X111342705Y-96659658D01*
X111360073Y-96550002D01*
X111360073Y-96549997D01*
X111342705Y-96440341D01*
X111326528Y-96408591D01*
X111292299Y-96341413D01*
X111292296Y-96341410D01*
X111292294Y-96341407D01*
X111213796Y-96262909D01*
X111213792Y-96262906D01*
X111213791Y-96262905D01*
X111209947Y-96260946D01*
X111114862Y-96212498D01*
X111005206Y-96195131D01*
X111005202Y-96195131D01*
X110895545Y-96212498D01*
X110796618Y-96262904D01*
X110796611Y-96262909D01*
X110718113Y-96341407D01*
X110718108Y-96341414D01*
X110667702Y-96440341D01*
X110650335Y-96549997D01*
X109354869Y-96549997D01*
X109337501Y-96440341D01*
X109321324Y-96408591D01*
X109287095Y-96341413D01*
X109287092Y-96341410D01*
X109287090Y-96341407D01*
X109208592Y-96262909D01*
X109208588Y-96262906D01*
X109208587Y-96262905D01*
X109204743Y-96260946D01*
X109109658Y-96212498D01*
X109000002Y-96195131D01*
X108999998Y-96195131D01*
X108890341Y-96212498D01*
X108791414Y-96262904D01*
X108791407Y-96262909D01*
X108712909Y-96341407D01*
X108712904Y-96341414D01*
X108662498Y-96440341D01*
X108645131Y-96549997D01*
X108205500Y-96549997D01*
X108205500Y-95399997D01*
X111245131Y-95399997D01*
X111245131Y-95400002D01*
X111262498Y-95509658D01*
X111312904Y-95608585D01*
X111312909Y-95608592D01*
X111391407Y-95687090D01*
X111391410Y-95687092D01*
X111391413Y-95687095D01*
X111490339Y-95737500D01*
X111490341Y-95737501D01*
X111599998Y-95754869D01*
X111600000Y-95754869D01*
X111600002Y-95754869D01*
X111709658Y-95737501D01*
X111709659Y-95737500D01*
X111709661Y-95737500D01*
X111808587Y-95687095D01*
X111887095Y-95608587D01*
X111891472Y-95599997D01*
X115145131Y-95599997D01*
X115145131Y-95600002D01*
X115162498Y-95709658D01*
X115212904Y-95808585D01*
X115212909Y-95808592D01*
X115291407Y-95887090D01*
X115291410Y-95887092D01*
X115291413Y-95887095D01*
X115364238Y-95924201D01*
X115390341Y-95937501D01*
X115499998Y-95954869D01*
X115500000Y-95954869D01*
X115500002Y-95954869D01*
X115609657Y-95937501D01*
X115609658Y-95937500D01*
X115609661Y-95937500D01*
X115645177Y-95919403D01*
X115713845Y-95906507D01*
X115778585Y-95932783D01*
X115811956Y-95973593D01*
X115812499Y-95974660D01*
X115812500Y-95974661D01*
X115862905Y-96073587D01*
X115862907Y-96073589D01*
X115862909Y-96073592D01*
X115941407Y-96152090D01*
X115941410Y-96152092D01*
X115941413Y-96152095D01*
X116035434Y-96200001D01*
X116040341Y-96202501D01*
X116149998Y-96219869D01*
X116150000Y-96219869D01*
X116150002Y-96219869D01*
X116259658Y-96202501D01*
X116259659Y-96202500D01*
X116259661Y-96202500D01*
X116358587Y-96152095D01*
X116437095Y-96073587D01*
X116474591Y-95999997D01*
X119315129Y-95999997D01*
X119315129Y-96000002D01*
X119332496Y-96109658D01*
X119382902Y-96208585D01*
X119382907Y-96208592D01*
X119461405Y-96287090D01*
X119461408Y-96287092D01*
X119461411Y-96287095D01*
X119549847Y-96332155D01*
X119560339Y-96337501D01*
X119669996Y-96354869D01*
X119669998Y-96354869D01*
X119670000Y-96354869D01*
X119779656Y-96337501D01*
X119779657Y-96337500D01*
X119779659Y-96337500D01*
X119878585Y-96287095D01*
X119957093Y-96208587D01*
X120007498Y-96109661D01*
X120007498Y-96109659D01*
X120007499Y-96109658D01*
X120024867Y-96000002D01*
X120024867Y-95999997D01*
X120007499Y-95890341D01*
X119987935Y-95851944D01*
X119957093Y-95791413D01*
X119957090Y-95791410D01*
X119957088Y-95791407D01*
X119878590Y-95712909D01*
X119878586Y-95712906D01*
X119878585Y-95712905D01*
X119870110Y-95708587D01*
X119779656Y-95662498D01*
X119670000Y-95645131D01*
X119669996Y-95645131D01*
X119560339Y-95662498D01*
X119461412Y-95712904D01*
X119461405Y-95712909D01*
X119382907Y-95791407D01*
X119382902Y-95791414D01*
X119332496Y-95890341D01*
X119315129Y-95999997D01*
X116474591Y-95999997D01*
X116487500Y-95974661D01*
X116487500Y-95974659D01*
X116487501Y-95974658D01*
X116504869Y-95865002D01*
X116504869Y-95864997D01*
X116487501Y-95755341D01*
X116478411Y-95737500D01*
X116437095Y-95656413D01*
X116437092Y-95656410D01*
X116437090Y-95656407D01*
X116358592Y-95577909D01*
X116358588Y-95577906D01*
X116358587Y-95577905D01*
X116295179Y-95545597D01*
X116259658Y-95527498D01*
X116150002Y-95510131D01*
X116149998Y-95510131D01*
X116040342Y-95527498D01*
X116004821Y-95545597D01*
X115936151Y-95558492D01*
X115871411Y-95532214D01*
X115838043Y-95491406D01*
X115837500Y-95490340D01*
X115837500Y-95490339D01*
X115787095Y-95391413D01*
X115787093Y-95391411D01*
X115787090Y-95391407D01*
X115708592Y-95312909D01*
X115708588Y-95312906D01*
X115708587Y-95312905D01*
X115677711Y-95297173D01*
X115609658Y-95262498D01*
X115500002Y-95245131D01*
X115499998Y-95245131D01*
X115390341Y-95262498D01*
X115291414Y-95312904D01*
X115291407Y-95312909D01*
X115212909Y-95391407D01*
X115212904Y-95391414D01*
X115162498Y-95490341D01*
X115145131Y-95599997D01*
X111891472Y-95599997D01*
X111937500Y-95509661D01*
X111937500Y-95509659D01*
X111937501Y-95509658D01*
X111954869Y-95400002D01*
X111954869Y-95399997D01*
X111937501Y-95290341D01*
X111923314Y-95262498D01*
X111887095Y-95191413D01*
X111887092Y-95191410D01*
X111887090Y-95191407D01*
X111808592Y-95112909D01*
X111808588Y-95112906D01*
X111808587Y-95112905D01*
X111746700Y-95081372D01*
X111709658Y-95062498D01*
X111600002Y-95045131D01*
X111599998Y-95045131D01*
X111490341Y-95062498D01*
X111391414Y-95112904D01*
X111391407Y-95112909D01*
X111312909Y-95191407D01*
X111312904Y-95191414D01*
X111262498Y-95290341D01*
X111245131Y-95399997D01*
X108205500Y-95399997D01*
X108205500Y-94745666D01*
X108225185Y-94678627D01*
X108277989Y-94632872D01*
X108347147Y-94622928D01*
X108385793Y-94635181D01*
X108390343Y-94637500D01*
X108390345Y-94637500D01*
X108390347Y-94637501D01*
X108500002Y-94654869D01*
X108500004Y-94654869D01*
X108500006Y-94654869D01*
X108609662Y-94637501D01*
X108609663Y-94637500D01*
X108609665Y-94637500D01*
X108708591Y-94587095D01*
X108787099Y-94508587D01*
X108837504Y-94409661D01*
X108837504Y-94409659D01*
X108837505Y-94409658D01*
X108854873Y-94300002D01*
X108854873Y-94299997D01*
X113645131Y-94299997D01*
X113645131Y-94300002D01*
X113662498Y-94409658D01*
X113712904Y-94508585D01*
X113712909Y-94508592D01*
X113791407Y-94587090D01*
X113791410Y-94587092D01*
X113791413Y-94587095D01*
X113799890Y-94591414D01*
X113890341Y-94637501D01*
X113999998Y-94654869D01*
X114000000Y-94654869D01*
X114000002Y-94654869D01*
X114109687Y-94637496D01*
X114178980Y-94646450D01*
X114232432Y-94691446D01*
X114251558Y-94740571D01*
X114262500Y-94809660D01*
X114312906Y-94908587D01*
X114312911Y-94908594D01*
X114391409Y-94987092D01*
X114391412Y-94987094D01*
X114391415Y-94987097D01*
X114433588Y-95008585D01*
X114490343Y-95037503D01*
X114600000Y-95054871D01*
X114600002Y-95054871D01*
X114600004Y-95054871D01*
X114709660Y-95037503D01*
X114709661Y-95037502D01*
X114709663Y-95037502D01*
X114808589Y-94987097D01*
X114887097Y-94908589D01*
X114937502Y-94809663D01*
X114937502Y-94809661D01*
X114937503Y-94809660D01*
X114954871Y-94700004D01*
X114954871Y-94699999D01*
X114937503Y-94590343D01*
X114916886Y-94549880D01*
X114887097Y-94491415D01*
X114887094Y-94491412D01*
X114887092Y-94491409D01*
X114808594Y-94412911D01*
X114808590Y-94412908D01*
X114808589Y-94412907D01*
X114749257Y-94382676D01*
X114709660Y-94362500D01*
X114600004Y-94345133D01*
X114599999Y-94345133D01*
X114490313Y-94362505D01*
X114421020Y-94353550D01*
X114367568Y-94308554D01*
X114348443Y-94259433D01*
X114337500Y-94190339D01*
X114287095Y-94091413D01*
X114287092Y-94091410D01*
X114287090Y-94091407D01*
X114208592Y-94012909D01*
X114208588Y-94012906D01*
X114208587Y-94012905D01*
X114146702Y-93981373D01*
X114109658Y-93962498D01*
X114000002Y-93945131D01*
X113999998Y-93945131D01*
X113890341Y-93962498D01*
X113791414Y-94012904D01*
X113791407Y-94012909D01*
X113712909Y-94091407D01*
X113712904Y-94091414D01*
X113662498Y-94190341D01*
X113645131Y-94299997D01*
X108854873Y-94299997D01*
X108837505Y-94190341D01*
X108815401Y-94146960D01*
X108787099Y-94091413D01*
X108787096Y-94091410D01*
X108787094Y-94091407D01*
X108708596Y-94012909D01*
X108708592Y-94012906D01*
X108708591Y-94012905D01*
X108646706Y-93981373D01*
X108609662Y-93962498D01*
X108500006Y-93945131D01*
X108500002Y-93945131D01*
X108390345Y-93962498D01*
X108385794Y-93964818D01*
X108317124Y-93977714D01*
X108252384Y-93951437D01*
X108212128Y-93894330D01*
X108205500Y-93854333D01*
X108205500Y-93399997D01*
X108545131Y-93399997D01*
X108545131Y-93400002D01*
X108562498Y-93509658D01*
X108612904Y-93608585D01*
X108612909Y-93608592D01*
X108691407Y-93687090D01*
X108691410Y-93687092D01*
X108691413Y-93687095D01*
X108790339Y-93737500D01*
X108790341Y-93737501D01*
X108899998Y-93754869D01*
X108900000Y-93754869D01*
X108900002Y-93754869D01*
X109009658Y-93737501D01*
X109009659Y-93737500D01*
X109009661Y-93737500D01*
X109108587Y-93687095D01*
X109187095Y-93608587D01*
X109237500Y-93509661D01*
X109237500Y-93509659D01*
X109237501Y-93509658D01*
X109254869Y-93400002D01*
X109254869Y-93399997D01*
X109237501Y-93290341D01*
X109228937Y-93273533D01*
X109191469Y-93199997D01*
X117145131Y-93199997D01*
X117145131Y-93200002D01*
X117162498Y-93309658D01*
X117212904Y-93408585D01*
X117212909Y-93408592D01*
X117291407Y-93487090D01*
X117291410Y-93487092D01*
X117291413Y-93487095D01*
X117359940Y-93522011D01*
X117390341Y-93537501D01*
X117499998Y-93554869D01*
X117500000Y-93554869D01*
X117500002Y-93554869D01*
X117609658Y-93537501D01*
X117609659Y-93537500D01*
X117609661Y-93537500D01*
X117708587Y-93487095D01*
X117787095Y-93408587D01*
X117837500Y-93309661D01*
X117837500Y-93309659D01*
X117837501Y-93309658D01*
X117854869Y-93200002D01*
X117854869Y-93199997D01*
X117837501Y-93090341D01*
X117837500Y-93090339D01*
X117787095Y-92991413D01*
X117787092Y-92991410D01*
X117787090Y-92991407D01*
X117708592Y-92912909D01*
X117708588Y-92912906D01*
X117708587Y-92912905D01*
X117656358Y-92886293D01*
X117609658Y-92862498D01*
X117500002Y-92845131D01*
X117499998Y-92845131D01*
X117390341Y-92862498D01*
X117291414Y-92912904D01*
X117291407Y-92912909D01*
X117212909Y-92991407D01*
X117212904Y-92991414D01*
X117162498Y-93090341D01*
X117145131Y-93199997D01*
X109191469Y-93199997D01*
X109187095Y-93191413D01*
X109187092Y-93191410D01*
X109187090Y-93191407D01*
X109108592Y-93112909D01*
X109108588Y-93112906D01*
X109108587Y-93112905D01*
X109104743Y-93110946D01*
X109009658Y-93062498D01*
X108900002Y-93045131D01*
X108899998Y-93045131D01*
X108790341Y-93062498D01*
X108691414Y-93112904D01*
X108691407Y-93112909D01*
X108612909Y-93191407D01*
X108612904Y-93191414D01*
X108562498Y-93290341D01*
X108545131Y-93399997D01*
X108205500Y-93399997D01*
X108205500Y-92924008D01*
X108205499Y-92923992D01*
X108204782Y-92917324D01*
X108200803Y-92880316D01*
X108192785Y-92843459D01*
X108189602Y-92828825D01*
X108189348Y-92827789D01*
X108187110Y-92818627D01*
X108144100Y-92737915D01*
X108098345Y-92685111D01*
X108098339Y-92685104D01*
X108080757Y-92667160D01*
X108080756Y-92667159D01*
X108080754Y-92667157D01*
X108080752Y-92667156D01*
X108080750Y-92667154D01*
X108000940Y-92622511D01*
X108000935Y-92622509D01*
X107933903Y-92602826D01*
X107933899Y-92602825D01*
X107933898Y-92602825D01*
X107876000Y-92594500D01*
X100524000Y-92594500D01*
X100523992Y-92594500D01*
X100480313Y-92599197D01*
X100428825Y-92610397D01*
X100418627Y-92612890D01*
X100418624Y-92612891D01*
X100337916Y-92655899D01*
X100337909Y-92655904D01*
X100332699Y-92660419D01*
X100269143Y-92689441D01*
X100199985Y-92679496D01*
X100147182Y-92633739D01*
X100127500Y-92566703D01*
X100127500Y-92404875D01*
X100127882Y-92395147D01*
X100129839Y-92370277D01*
X100141169Y-92226303D01*
X100144211Y-92207097D01*
X100145916Y-92199997D01*
X114445131Y-92199997D01*
X114445131Y-92200002D01*
X114462498Y-92309658D01*
X114512904Y-92408585D01*
X114512909Y-92408592D01*
X114591407Y-92487090D01*
X114591410Y-92487092D01*
X114591413Y-92487095D01*
X114660276Y-92522182D01*
X114690341Y-92537501D01*
X114799998Y-92554869D01*
X114800000Y-92554869D01*
X114800002Y-92554869D01*
X114909658Y-92537501D01*
X114909659Y-92537500D01*
X114909661Y-92537500D01*
X115008587Y-92487095D01*
X115087095Y-92408587D01*
X115137500Y-92309661D01*
X115137500Y-92309659D01*
X115137501Y-92309658D01*
X115154869Y-92200002D01*
X115154869Y-92199997D01*
X115137501Y-92090341D01*
X115106697Y-92029885D01*
X115087095Y-91991413D01*
X115087092Y-91991410D01*
X115087090Y-91991407D01*
X115008592Y-91912909D01*
X115008588Y-91912906D01*
X115008587Y-91912905D01*
X114945638Y-91880831D01*
X114909658Y-91862498D01*
X114800002Y-91845131D01*
X114799998Y-91845131D01*
X114690341Y-91862498D01*
X114591414Y-91912904D01*
X114591407Y-91912909D01*
X114512909Y-91991407D01*
X114512904Y-91991414D01*
X114462498Y-92090341D01*
X114445131Y-92199997D01*
X100145916Y-92199997D01*
X100182610Y-92047156D01*
X100188616Y-92028671D01*
X100251562Y-91876707D01*
X100260387Y-91859386D01*
X100346340Y-91719124D01*
X100357755Y-91703413D01*
X100464584Y-91578331D01*
X100478331Y-91564584D01*
X100603413Y-91457755D01*
X100619124Y-91446340D01*
X100759386Y-91360387D01*
X100776707Y-91351562D01*
X100928671Y-91288616D01*
X100947156Y-91282610D01*
X101107097Y-91244211D01*
X101126303Y-91241169D01*
X101285896Y-91228610D01*
X101295147Y-91227882D01*
X101304875Y-91227500D01*
X101329101Y-91227500D01*
X116744738Y-91227500D01*
X116811777Y-91247185D01*
G37*
G04 #@! TD.AperFunction*
G04 #@! TA.AperFunction,Conductor*
G36*
X107943039Y-92819685D02*
G01*
X107988794Y-92872489D01*
X108000000Y-92924000D01*
X108000000Y-98400000D01*
X113400000Y-98400000D01*
X113400000Y-99400000D01*
X106924000Y-99400000D01*
X106856961Y-99380315D01*
X106811206Y-99327511D01*
X106800000Y-99276000D01*
X106800000Y-94000000D01*
X100524000Y-94000000D01*
X100456961Y-93980315D01*
X100411206Y-93927511D01*
X100400000Y-93876000D01*
X100400000Y-92924000D01*
X100419685Y-92856961D01*
X100472489Y-92811206D01*
X100524000Y-92800000D01*
X107876000Y-92800000D01*
X107943039Y-92819685D01*
G37*
G04 #@! TD.AperFunction*
G04 #@! TA.AperFunction,Conductor*
G36*
X121717447Y-98341891D02*
G01*
X121757704Y-98398997D01*
X121762807Y-98458393D01*
X121752313Y-98524652D01*
X121745132Y-98569995D01*
X121745131Y-98570000D01*
X121762498Y-98679656D01*
X121805323Y-98763704D01*
X121818219Y-98832373D01*
X121805323Y-98876292D01*
X121793243Y-98900000D01*
X121091470Y-98900000D01*
X121137500Y-98809661D01*
X121137500Y-98809659D01*
X121137501Y-98809658D01*
X121154869Y-98700002D01*
X121154869Y-98699997D01*
X121137501Y-98590341D01*
X121104031Y-98524652D01*
X121091135Y-98455983D01*
X121117412Y-98391243D01*
X121174518Y-98350986D01*
X121244324Y-98347994D01*
X121270806Y-98357871D01*
X121288951Y-98367117D01*
X121288952Y-98367117D01*
X121288954Y-98367118D01*
X121398610Y-98384486D01*
X121398612Y-98384486D01*
X121398614Y-98384486D01*
X121508269Y-98367118D01*
X121508270Y-98367117D01*
X121508273Y-98367117D01*
X121584041Y-98328511D01*
X121652706Y-98315615D01*
X121717447Y-98341891D01*
G37*
G04 #@! TD.AperFunction*
G04 #@! TA.AperFunction,Conductor*
G36*
X122543039Y-93819685D02*
G01*
X122588794Y-93872489D01*
X122600000Y-93924000D01*
X122600000Y-96523510D01*
X122580315Y-96590549D01*
X122542320Y-96624925D01*
X122543512Y-96626566D01*
X122535617Y-96632302D01*
X122457114Y-96710804D01*
X122457109Y-96710811D01*
X122406703Y-96809738D01*
X122389336Y-96919394D01*
X122389336Y-96919399D01*
X122406703Y-97029055D01*
X122457109Y-97127982D01*
X122457114Y-97127989D01*
X122458892Y-97129767D01*
X122460363Y-97132461D01*
X122462849Y-97135883D01*
X122462406Y-97136204D01*
X122492377Y-97191090D01*
X122487393Y-97260782D01*
X122481697Y-97273741D01*
X122453970Y-97328158D01*
X122436603Y-97437813D01*
X122436603Y-97437818D01*
X122453970Y-97547474D01*
X122453972Y-97547477D01*
X122504377Y-97646403D01*
X122563682Y-97705708D01*
X122597166Y-97767029D01*
X122600000Y-97793388D01*
X122600000Y-97916272D01*
X122598505Y-97919674D01*
X122562498Y-97990342D01*
X122545131Y-98099997D01*
X122545131Y-98100002D01*
X122564026Y-98219300D01*
X122560833Y-98219805D01*
X122562348Y-98272905D01*
X122541753Y-98307053D01*
X122600000Y-98313725D01*
X122600000Y-98900000D01*
X122406757Y-98900000D01*
X122394675Y-98876287D01*
X122381780Y-98807624D01*
X122394673Y-98763710D01*
X122437500Y-98679659D01*
X122451647Y-98590341D01*
X122454869Y-98570000D01*
X122454869Y-98569995D01*
X122435974Y-98450698D01*
X122439169Y-98450191D01*
X122437644Y-98397120D01*
X122458240Y-98362950D01*
X122394148Y-98355593D01*
X122354742Y-98329057D01*
X122308592Y-98282907D01*
X122308588Y-98282904D01*
X122308587Y-98282903D01*
X122304743Y-98280944D01*
X122209658Y-98232496D01*
X122100002Y-98215129D01*
X122099998Y-98215129D01*
X121990341Y-98232496D01*
X121914572Y-98271103D01*
X121845903Y-98283999D01*
X121781163Y-98257722D01*
X121740906Y-98200616D01*
X121735805Y-98141220D01*
X121753481Y-98029619D01*
X121753481Y-98029614D01*
X121736113Y-97919958D01*
X121721569Y-97891413D01*
X121685707Y-97821030D01*
X121685704Y-97821027D01*
X121685702Y-97821024D01*
X121607204Y-97742526D01*
X121607200Y-97742523D01*
X121607199Y-97742522D01*
X121603355Y-97740563D01*
X121508270Y-97692115D01*
X121398614Y-97674748D01*
X121398610Y-97674748D01*
X121288953Y-97692115D01*
X121190026Y-97742521D01*
X121190019Y-97742526D01*
X121111521Y-97821024D01*
X121111516Y-97821031D01*
X121061110Y-97919958D01*
X121043743Y-98029614D01*
X121043743Y-98029619D01*
X121061110Y-98139275D01*
X121094580Y-98204964D01*
X121107476Y-98273634D01*
X121081199Y-98338374D01*
X121024092Y-98378630D01*
X120954286Y-98381622D01*
X120927802Y-98371743D01*
X120921256Y-98368407D01*
X120909658Y-98362498D01*
X120800002Y-98345131D01*
X120800000Y-98345131D01*
X120800000Y-96291388D01*
X120819685Y-96224349D01*
X120872489Y-96178594D01*
X120941647Y-96168650D01*
X120981594Y-96184867D01*
X120982717Y-96182664D01*
X121090341Y-96237501D01*
X121199998Y-96254869D01*
X121200000Y-96254869D01*
X121200002Y-96254869D01*
X121309658Y-96237501D01*
X121309659Y-96237500D01*
X121309661Y-96237500D01*
X121408587Y-96187095D01*
X121487095Y-96108587D01*
X121537500Y-96009661D01*
X121537500Y-96009659D01*
X121537501Y-96009658D01*
X121554869Y-95900002D01*
X121554869Y-95899997D01*
X121537501Y-95790341D01*
X121509290Y-95734974D01*
X121487095Y-95691413D01*
X121487092Y-95691410D01*
X121487090Y-95691407D01*
X121408592Y-95612909D01*
X121408588Y-95612906D01*
X121408587Y-95612905D01*
X121402220Y-95609661D01*
X121309658Y-95562498D01*
X121200002Y-95545131D01*
X121199996Y-95545131D01*
X121119581Y-95557867D01*
X121050288Y-95548912D01*
X120996836Y-95503915D01*
X120977711Y-95454792D01*
X120967503Y-95390341D01*
X120967502Y-95390339D01*
X120917097Y-95291413D01*
X120917094Y-95291410D01*
X120917092Y-95291407D01*
X120836319Y-95210634D01*
X120802834Y-95149311D01*
X120800000Y-95122953D01*
X120800000Y-95100000D01*
X119224000Y-95100000D01*
X119156961Y-95080315D01*
X119111206Y-95027511D01*
X119100000Y-94976000D01*
X119100000Y-94300000D01*
X120800000Y-94300000D01*
X120800000Y-93800000D01*
X122476000Y-93800000D01*
X122543039Y-93819685D01*
G37*
G04 #@! TD.AperFunction*
G04 #@! TA.AperFunction,Conductor*
G36*
X119306949Y-91419685D02*
G01*
X119337234Y-91447163D01*
X120773325Y-93266212D01*
X120799416Y-93331027D01*
X120800000Y-93343047D01*
X120800000Y-94300000D01*
X119100000Y-94300000D01*
X119100000Y-93095045D01*
X119119685Y-93028006D01*
X119172489Y-92982251D01*
X119241647Y-92972307D01*
X119305203Y-93001332D01*
X119311681Y-93007364D01*
X119391407Y-93087090D01*
X119391410Y-93087092D01*
X119391413Y-93087095D01*
X119490339Y-93137500D01*
X119490341Y-93137501D01*
X119599998Y-93154869D01*
X119600000Y-93154869D01*
X119600002Y-93154869D01*
X119709658Y-93137501D01*
X119709659Y-93137500D01*
X119709661Y-93137500D01*
X119808587Y-93087095D01*
X119887095Y-93008587D01*
X119937500Y-92909661D01*
X119937500Y-92909659D01*
X119937501Y-92909658D01*
X119954869Y-92800002D01*
X119954869Y-92799997D01*
X119937501Y-92690341D01*
X119937500Y-92690339D01*
X119887095Y-92591413D01*
X119887092Y-92591410D01*
X119887090Y-92591407D01*
X119808592Y-92512909D01*
X119808588Y-92512906D01*
X119808587Y-92512905D01*
X119804743Y-92510946D01*
X119709658Y-92462498D01*
X119600002Y-92445131D01*
X119599998Y-92445131D01*
X119490341Y-92462498D01*
X119391414Y-92512904D01*
X119391407Y-92512909D01*
X119312909Y-92591407D01*
X119312904Y-92591414D01*
X119262499Y-92690341D01*
X119254109Y-92743310D01*
X119224179Y-92806444D01*
X119164867Y-92843374D01*
X119095004Y-92842376D01*
X119036772Y-92803765D01*
X119028462Y-92792693D01*
X118500000Y-92000000D01*
X117924000Y-92000000D01*
X117856961Y-91980315D01*
X117811206Y-91927511D01*
X117800000Y-91876000D01*
X117800000Y-91524000D01*
X117819685Y-91456961D01*
X117872489Y-91411206D01*
X117924000Y-91400000D01*
X119239910Y-91400000D01*
X119306949Y-91419685D01*
G37*
G04 #@! TD.AperFunction*
G04 #@! TA.AperFunction,Conductor*
G36*
X114143265Y-96213515D02*
G01*
X114190339Y-96237500D01*
X114195393Y-96238300D01*
X114258527Y-96268225D01*
X114295462Y-96327534D01*
X114300000Y-96360774D01*
X114300000Y-96800000D01*
X115376000Y-96800000D01*
X115443039Y-96819685D01*
X115488794Y-96872489D01*
X115500000Y-96924000D01*
X115500000Y-97553495D01*
X115480315Y-97620534D01*
X115427511Y-97666289D01*
X115395399Y-97675968D01*
X115365340Y-97680729D01*
X115266413Y-97731134D01*
X115266406Y-97731139D01*
X115187908Y-97809637D01*
X115187903Y-97809644D01*
X115137497Y-97908571D01*
X115123017Y-98000000D01*
X113100000Y-98000000D01*
X113100000Y-97549511D01*
X114245131Y-97549511D01*
X114245131Y-97549516D01*
X114262498Y-97659172D01*
X114312904Y-97758099D01*
X114312909Y-97758106D01*
X114391407Y-97836604D01*
X114391410Y-97836606D01*
X114391413Y-97836609D01*
X114490339Y-97887014D01*
X114490341Y-97887015D01*
X114599998Y-97904383D01*
X114600000Y-97904383D01*
X114600002Y-97904383D01*
X114709658Y-97887015D01*
X114709659Y-97887014D01*
X114709661Y-97887014D01*
X114808587Y-97836609D01*
X114887095Y-97758101D01*
X114937500Y-97659175D01*
X114937500Y-97659173D01*
X114937501Y-97659172D01*
X114954869Y-97549516D01*
X114954869Y-97549511D01*
X114937501Y-97439855D01*
X114926574Y-97418409D01*
X114887095Y-97340927D01*
X114887092Y-97340924D01*
X114887090Y-97340921D01*
X114808592Y-97262423D01*
X114808588Y-97262420D01*
X114808587Y-97262419D01*
X114804743Y-97260460D01*
X114709658Y-97212012D01*
X114600002Y-97194645D01*
X114599998Y-97194645D01*
X114490341Y-97212012D01*
X114391414Y-97262418D01*
X114391407Y-97262423D01*
X114312909Y-97340921D01*
X114312904Y-97340928D01*
X114262498Y-97439855D01*
X114245131Y-97549511D01*
X113100000Y-97549511D01*
X113100000Y-97418409D01*
X113119685Y-97351370D01*
X113167704Y-97307925D01*
X113208587Y-97287095D01*
X113287095Y-97208587D01*
X113337500Y-97109661D01*
X113337500Y-97109659D01*
X113337501Y-97109658D01*
X113354869Y-97000002D01*
X113354869Y-96999997D01*
X113337501Y-96890341D01*
X113291470Y-96800000D01*
X113287095Y-96791413D01*
X113287092Y-96791410D01*
X113287090Y-96791407D01*
X113208592Y-96712909D01*
X113208589Y-96712907D01*
X113208587Y-96712905D01*
X113167704Y-96692074D01*
X113116909Y-96644100D01*
X113100000Y-96581590D01*
X113100000Y-96324000D01*
X113119685Y-96256961D01*
X113172489Y-96211206D01*
X113224000Y-96200000D01*
X114086971Y-96200000D01*
X114143265Y-96213515D01*
G37*
G04 #@! TD.AperFunction*
G04 #@! TA.AperFunction,Conductor*
G36*
X108600000Y-106848638D02*
G01*
X108580315Y-106915677D01*
X108563681Y-106936319D01*
X108536319Y-106963681D01*
X108474996Y-106997166D01*
X108448638Y-107000000D01*
X107174000Y-107000000D01*
X107147557Y-106992235D01*
X108600000Y-106755102D01*
X108600000Y-106848638D01*
G37*
G04 #@! TD.AperFunction*
G04 #@! TA.AperFunction,Conductor*
G36*
X108543039Y-104019685D02*
G01*
X108588794Y-104072489D01*
X108600000Y-104124000D01*
X108600000Y-105850000D01*
X107100000Y-105850000D01*
X107100000Y-104124000D01*
X107119685Y-104056961D01*
X107172489Y-104011206D01*
X107224000Y-104000000D01*
X108476000Y-104000000D01*
X108543039Y-104019685D01*
G37*
G04 #@! TD.AperFunction*
G04 #@! TA.AperFunction,Conductor*
G36*
X113100000Y-106200000D02*
G01*
X116000000Y-106219205D01*
X116000000Y-106377907D01*
X115980315Y-106444946D01*
X115927511Y-106490701D01*
X115877922Y-106501892D01*
X112845259Y-106548909D01*
X112777923Y-106530266D01*
X112732853Y-106481219D01*
X112687095Y-106391413D01*
X112687092Y-106391410D01*
X112687090Y-106391407D01*
X112608592Y-106312909D01*
X112608588Y-106312906D01*
X112608587Y-106312905D01*
X112604743Y-106310946D01*
X112509658Y-106262498D01*
X112400002Y-106245131D01*
X112399998Y-106245131D01*
X112290341Y-106262498D01*
X112191414Y-106312904D01*
X112191407Y-106312909D01*
X112112909Y-106391407D01*
X112112905Y-106391412D01*
X112060086Y-106495076D01*
X112012111Y-106545872D01*
X111951523Y-106562766D01*
X110041363Y-106592381D01*
X109974027Y-106573738D01*
X109951760Y-106556077D01*
X109908592Y-106512909D01*
X109908588Y-106512906D01*
X109908587Y-106512905D01*
X109886973Y-106501892D01*
X109809658Y-106462498D01*
X109700002Y-106445131D01*
X109699998Y-106445131D01*
X109590341Y-106462498D01*
X109491414Y-106512904D01*
X109491407Y-106512909D01*
X109406004Y-106598313D01*
X109403591Y-106595900D01*
X109362001Y-106627953D01*
X109337026Y-106634770D01*
X108600000Y-106755102D01*
X107147557Y-106992235D01*
X107106961Y-106980315D01*
X107061206Y-106927511D01*
X107050000Y-106876000D01*
X107050000Y-105951362D01*
X107069685Y-105884323D01*
X107086319Y-105863681D01*
X107100000Y-105850000D01*
X111300000Y-105850000D01*
X111300000Y-104800000D01*
X111236319Y-104736319D01*
X111202834Y-104674996D01*
X111200000Y-104648638D01*
X111200000Y-104103091D01*
X111200155Y-104096900D01*
X111205575Y-103988482D01*
X111228582Y-103922512D01*
X111283605Y-103879450D01*
X111353173Y-103872972D01*
X111385714Y-103884191D01*
X111490341Y-103937501D01*
X111599998Y-103954869D01*
X111600000Y-103954869D01*
X111600002Y-103954869D01*
X111709658Y-103937501D01*
X111709659Y-103937500D01*
X111709661Y-103937500D01*
X111808587Y-103887095D01*
X111887095Y-103808587D01*
X111937500Y-103709661D01*
X111937500Y-103709659D01*
X111937501Y-103709658D01*
X111954869Y-103600002D01*
X111954869Y-103599997D01*
X112245131Y-103599997D01*
X112245131Y-103600002D01*
X112262498Y-103709658D01*
X112312904Y-103808585D01*
X112312909Y-103808592D01*
X112391407Y-103887090D01*
X112391410Y-103887092D01*
X112391413Y-103887095D01*
X112490339Y-103937500D01*
X112490341Y-103937501D01*
X112599998Y-103954869D01*
X112600000Y-103954869D01*
X112600002Y-103954869D01*
X112709658Y-103937501D01*
X112709659Y-103937500D01*
X112709661Y-103937500D01*
X112808587Y-103887095D01*
X112887095Y-103808587D01*
X112937500Y-103709661D01*
X112937500Y-103709659D01*
X112937501Y-103709658D01*
X112954869Y-103600002D01*
X112954869Y-103599997D01*
X112937501Y-103490341D01*
X112937500Y-103490339D01*
X112887095Y-103391413D01*
X112887092Y-103391410D01*
X112887090Y-103391407D01*
X112808592Y-103312909D01*
X112808588Y-103312906D01*
X112808587Y-103312905D01*
X112797987Y-103307504D01*
X112709658Y-103262498D01*
X112600002Y-103245131D01*
X112599998Y-103245131D01*
X112490341Y-103262498D01*
X112391414Y-103312904D01*
X112391407Y-103312909D01*
X112312909Y-103391407D01*
X112312904Y-103391414D01*
X112262498Y-103490341D01*
X112245131Y-103599997D01*
X111954869Y-103599997D01*
X111937501Y-103490341D01*
X111937500Y-103490339D01*
X111887095Y-103391413D01*
X111887092Y-103391410D01*
X111887090Y-103391407D01*
X111808592Y-103312909D01*
X111808588Y-103312906D01*
X111808587Y-103312905D01*
X111797987Y-103307504D01*
X111709658Y-103262498D01*
X111600002Y-103245131D01*
X111599998Y-103245131D01*
X111490340Y-103262499D01*
X111481063Y-103265514D01*
X111479886Y-103261894D01*
X111429640Y-103271321D01*
X111364905Y-103245031D01*
X111324659Y-103187917D01*
X111321681Y-103118110D01*
X111331551Y-103091653D01*
X111337660Y-103079665D01*
X111348748Y-103009661D01*
X111355029Y-102970006D01*
X111355029Y-102970001D01*
X111337661Y-102860347D01*
X111337660Y-102860345D01*
X111337660Y-102860343D01*
X111287255Y-102761417D01*
X111287252Y-102761414D01*
X111283756Y-102754552D01*
X111270396Y-102692067D01*
X111294110Y-102217807D01*
X111317118Y-102151835D01*
X111372141Y-102108774D01*
X111417955Y-102100000D01*
X113100000Y-102100000D01*
X113100000Y-106200000D01*
G37*
G04 #@! TD.AperFunction*
G04 #@! TA.AperFunction,Conductor*
G36*
X120800000Y-98345131D02*
G01*
X120799998Y-98345131D01*
X120690341Y-98362498D01*
X120591414Y-98412904D01*
X120591407Y-98412909D01*
X120512909Y-98491407D01*
X120512904Y-98491414D01*
X120462498Y-98590341D01*
X120445131Y-98699997D01*
X120445131Y-98700002D01*
X120462498Y-98809658D01*
X120512904Y-98908585D01*
X120512909Y-98908592D01*
X120591407Y-98987090D01*
X120591410Y-98987092D01*
X120591413Y-98987095D01*
X120652529Y-99018235D01*
X120690341Y-99037501D01*
X120799998Y-99054869D01*
X120800000Y-99054869D01*
X120800002Y-99054869D01*
X120909658Y-99037501D01*
X120909659Y-99037500D01*
X120909661Y-99037500D01*
X121008587Y-98987095D01*
X121087095Y-98908587D01*
X121091470Y-98900000D01*
X121793243Y-98900000D01*
X121762498Y-98960339D01*
X121745131Y-99069995D01*
X121745131Y-99070000D01*
X121762498Y-99179656D01*
X121812904Y-99278583D01*
X121812909Y-99278590D01*
X121891407Y-99357088D01*
X121891410Y-99357090D01*
X121891413Y-99357093D01*
X121990339Y-99407498D01*
X121990341Y-99407499D01*
X122099998Y-99424867D01*
X122100000Y-99424867D01*
X122100002Y-99424867D01*
X122209658Y-99407499D01*
X122209659Y-99407498D01*
X122209661Y-99407498D01*
X122308587Y-99357093D01*
X122387095Y-99278585D01*
X122437500Y-99179659D01*
X122437500Y-99179657D01*
X122437501Y-99179656D01*
X122454869Y-99070000D01*
X122454869Y-99069995D01*
X122437501Y-98960341D01*
X122437500Y-98960339D01*
X122437500Y-98960337D01*
X122406757Y-98900000D01*
X122600000Y-98900000D01*
X122600000Y-98313725D01*
X122605825Y-98314393D01*
X122645257Y-98340940D01*
X122691407Y-98387090D01*
X122691410Y-98387092D01*
X122691413Y-98387095D01*
X122790339Y-98437500D01*
X122790341Y-98437501D01*
X122899998Y-98454869D01*
X122900000Y-98454869D01*
X122900002Y-98454869D01*
X123009658Y-98437501D01*
X123009659Y-98437500D01*
X123009661Y-98437500D01*
X123108587Y-98387095D01*
X123187095Y-98308587D01*
X123237500Y-98209661D01*
X123237500Y-98209659D01*
X123237501Y-98209658D01*
X123254869Y-98100002D01*
X123254869Y-98099997D01*
X123237501Y-97990341D01*
X123232381Y-97980292D01*
X123219486Y-97911623D01*
X123245764Y-97846883D01*
X123302871Y-97806627D01*
X123342867Y-97800000D01*
X126652955Y-97800000D01*
X126719994Y-97819685D01*
X126740636Y-97836319D01*
X126791407Y-97887090D01*
X126791410Y-97887092D01*
X126791413Y-97887095D01*
X126855907Y-97919956D01*
X126890341Y-97937501D01*
X126999998Y-97954869D01*
X127000000Y-97954869D01*
X127000002Y-97954869D01*
X127109658Y-97937501D01*
X127109659Y-97937500D01*
X127109661Y-97937500D01*
X127208587Y-97887095D01*
X127223193Y-97872489D01*
X127259364Y-97836319D01*
X127320687Y-97802834D01*
X127347045Y-97800000D01*
X128076000Y-97800000D01*
X128143039Y-97819685D01*
X128188794Y-97872489D01*
X128200000Y-97924000D01*
X128200000Y-101100000D01*
X127700000Y-101100000D01*
X127700000Y-105100000D01*
X128200000Y-105100000D01*
X128200000Y-106175176D01*
X128180315Y-106242215D01*
X128127511Y-106287970D01*
X128075179Y-106299173D01*
X116000000Y-106219204D01*
X116000000Y-106219205D01*
X113100000Y-106200000D01*
X113100000Y-104599997D01*
X114545131Y-104599997D01*
X114545131Y-104600002D01*
X114562498Y-104709658D01*
X114612904Y-104808585D01*
X114612909Y-104808592D01*
X114691407Y-104887090D01*
X114691410Y-104887092D01*
X114691413Y-104887095D01*
X114790339Y-104937500D01*
X114790341Y-104937501D01*
X114899998Y-104954869D01*
X114900000Y-104954869D01*
X114900002Y-104954869D01*
X115009658Y-104937501D01*
X115009659Y-104937500D01*
X115009661Y-104937500D01*
X115108587Y-104887095D01*
X115187095Y-104808587D01*
X115237500Y-104709661D01*
X115237500Y-104709659D01*
X115237501Y-104709658D01*
X115254869Y-104600002D01*
X115254869Y-104599997D01*
X115237501Y-104490341D01*
X115210577Y-104437500D01*
X115187095Y-104391413D01*
X115187092Y-104391410D01*
X115187090Y-104391407D01*
X115108592Y-104312909D01*
X115108588Y-104312906D01*
X115108587Y-104312905D01*
X115100112Y-104308587D01*
X115009658Y-104262498D01*
X114900002Y-104245131D01*
X114899998Y-104245131D01*
X114790341Y-104262498D01*
X114691414Y-104312904D01*
X114691407Y-104312909D01*
X114612909Y-104391407D01*
X114612904Y-104391414D01*
X114562498Y-104490341D01*
X114545131Y-104599997D01*
X113100000Y-104599997D01*
X113100000Y-104099997D01*
X115845131Y-104099997D01*
X115845131Y-104100002D01*
X115862498Y-104209658D01*
X115912904Y-104308585D01*
X115912909Y-104308592D01*
X115991407Y-104387090D01*
X115991410Y-104387092D01*
X115991413Y-104387095D01*
X115999890Y-104391414D01*
X116090341Y-104437501D01*
X116199998Y-104454869D01*
X116200000Y-104454869D01*
X116200002Y-104454869D01*
X116309658Y-104437501D01*
X116309659Y-104437500D01*
X116309661Y-104437500D01*
X116408587Y-104387095D01*
X116487095Y-104308587D01*
X116537500Y-104209661D01*
X116537500Y-104209659D01*
X116537501Y-104209658D01*
X116554869Y-104100002D01*
X116554869Y-104100000D01*
X116552947Y-104087867D01*
X116561900Y-104018577D01*
X116606895Y-103965123D01*
X116656023Y-103945996D01*
X116709657Y-103937501D01*
X116709658Y-103937500D01*
X116709661Y-103937500D01*
X116808587Y-103887095D01*
X116858018Y-103837663D01*
X116919337Y-103804180D01*
X116989028Y-103809163D01*
X117001980Y-103814856D01*
X117040335Y-103834399D01*
X117040336Y-103834399D01*
X117040338Y-103834400D01*
X117149994Y-103851768D01*
X117149996Y-103851768D01*
X117149998Y-103851768D01*
X117259654Y-103834400D01*
X117259655Y-103834399D01*
X117259657Y-103834399D01*
X117358583Y-103783994D01*
X117437091Y-103705486D01*
X117487496Y-103606560D01*
X117487496Y-103606558D01*
X117491517Y-103598667D01*
X117539491Y-103547871D01*
X117607312Y-103531075D01*
X117621398Y-103532487D01*
X117644847Y-103536201D01*
X117669957Y-103540179D01*
X117669958Y-103540179D01*
X117669960Y-103540179D01*
X117779616Y-103522811D01*
X117779617Y-103522810D01*
X117779619Y-103522810D01*
X117878545Y-103472405D01*
X117957053Y-103393897D01*
X117974028Y-103360580D01*
X118022002Y-103309784D01*
X118089823Y-103292989D01*
X118103911Y-103294402D01*
X118169996Y-103304869D01*
X118169998Y-103304869D01*
X118170000Y-103304869D01*
X118279656Y-103287501D01*
X118279657Y-103287500D01*
X118279659Y-103287500D01*
X118378585Y-103237095D01*
X118457093Y-103158587D01*
X118507498Y-103059661D01*
X118507498Y-103059659D01*
X118507499Y-103059658D01*
X118524867Y-102950002D01*
X118524867Y-102949997D01*
X118507499Y-102840341D01*
X118499950Y-102825526D01*
X118457093Y-102741413D01*
X118457090Y-102741410D01*
X118457088Y-102741407D01*
X118378590Y-102662909D01*
X118378586Y-102662906D01*
X118378585Y-102662905D01*
X118374741Y-102660946D01*
X118279656Y-102612498D01*
X118170000Y-102595131D01*
X118169996Y-102595131D01*
X118060339Y-102612498D01*
X117961412Y-102662904D01*
X117961405Y-102662909D01*
X117882907Y-102741407D01*
X117882901Y-102741415D01*
X117865925Y-102774732D01*
X117817950Y-102825526D01*
X117750128Y-102842320D01*
X117736045Y-102840908D01*
X117706006Y-102836150D01*
X117669958Y-102830441D01*
X117669956Y-102830441D01*
X117669955Y-102830441D01*
X117560299Y-102847808D01*
X117461372Y-102898214D01*
X117461365Y-102898219D01*
X117382867Y-102976717D01*
X117382864Y-102976722D01*
X117328436Y-103083542D01*
X117280461Y-103134338D01*
X117212640Y-103151133D01*
X117198554Y-103149720D01*
X117149999Y-103142030D01*
X117149994Y-103142030D01*
X117040337Y-103159397D01*
X116941410Y-103209803D01*
X116941403Y-103209808D01*
X116891978Y-103259233D01*
X116830655Y-103292717D01*
X116760963Y-103287732D01*
X116748005Y-103282037D01*
X116709657Y-103262498D01*
X116600002Y-103245131D01*
X116599998Y-103245131D01*
X116490341Y-103262498D01*
X116391414Y-103312904D01*
X116391407Y-103312909D01*
X116312909Y-103391407D01*
X116312904Y-103391414D01*
X116262498Y-103490341D01*
X116245131Y-103599997D01*
X116247053Y-103612133D01*
X116238097Y-103681427D01*
X116193100Y-103734878D01*
X116143979Y-103754003D01*
X116090341Y-103762499D01*
X115991414Y-103812904D01*
X115991407Y-103812909D01*
X115912909Y-103891407D01*
X115912904Y-103891414D01*
X115862498Y-103990341D01*
X115845131Y-104099997D01*
X113100000Y-104099997D01*
X113100000Y-99400000D01*
X113400000Y-99400000D01*
X113400000Y-98400000D01*
X113100000Y-98400000D01*
X113100000Y-98000000D01*
X115123017Y-98000000D01*
X115120130Y-98018227D01*
X115120130Y-98018232D01*
X115137497Y-98127888D01*
X115137499Y-98127891D01*
X115176769Y-98204964D01*
X115180322Y-98211936D01*
X115193218Y-98280605D01*
X115180323Y-98324523D01*
X115137497Y-98408575D01*
X115120130Y-98518230D01*
X115120130Y-98518235D01*
X115137497Y-98627891D01*
X115180322Y-98711939D01*
X115193218Y-98780608D01*
X115180322Y-98824527D01*
X115137497Y-98908574D01*
X115120130Y-99018230D01*
X115120130Y-99018235D01*
X115137497Y-99127891D01*
X115190549Y-99232011D01*
X115203445Y-99300680D01*
X115190549Y-99344599D01*
X115137497Y-99448718D01*
X115120130Y-99558374D01*
X115120130Y-99558379D01*
X115137497Y-99668035D01*
X115180316Y-99752072D01*
X115193212Y-99820741D01*
X115180317Y-99864659D01*
X115137486Y-99948721D01*
X115120119Y-100058376D01*
X115120119Y-100058381D01*
X115137486Y-100168037D01*
X115180429Y-100252317D01*
X115193325Y-100320986D01*
X115180429Y-100364905D01*
X115137722Y-100448722D01*
X115120355Y-100558378D01*
X115120355Y-100558383D01*
X115137722Y-100668037D01*
X115137723Y-100668040D01*
X115137724Y-100668042D01*
X115178141Y-100747366D01*
X115191037Y-100816032D01*
X115178142Y-100859951D01*
X115132921Y-100948703D01*
X115115554Y-101058358D01*
X115115554Y-101058363D01*
X115132921Y-101168019D01*
X115183996Y-101268260D01*
X115196892Y-101336929D01*
X115183997Y-101380847D01*
X115137497Y-101472109D01*
X115120130Y-101581764D01*
X115120130Y-101581767D01*
X115121657Y-101591406D01*
X115128165Y-101632499D01*
X115119209Y-101701793D01*
X115078582Y-101752210D01*
X115071942Y-101757034D01*
X114993438Y-101835538D01*
X114993433Y-101835545D01*
X114943027Y-101934472D01*
X114925660Y-102044128D01*
X114925660Y-102044133D01*
X114943027Y-102153789D01*
X114993433Y-102252716D01*
X114993438Y-102252723D01*
X115071936Y-102331221D01*
X115071939Y-102331223D01*
X115071942Y-102331226D01*
X115170868Y-102381631D01*
X115170870Y-102381632D01*
X115280527Y-102399000D01*
X115280529Y-102399000D01*
X115280531Y-102399000D01*
X115390187Y-102381632D01*
X115390188Y-102381631D01*
X115390190Y-102381631D01*
X115489116Y-102331226D01*
X115567624Y-102252718D01*
X115618029Y-102153792D01*
X115618029Y-102153790D01*
X115618030Y-102153789D01*
X115635398Y-102044133D01*
X115635398Y-102044128D01*
X115627363Y-101993398D01*
X115636318Y-101924104D01*
X115676954Y-101873680D01*
X115683580Y-101868864D01*
X115683586Y-101868862D01*
X115752451Y-101799997D01*
X125045131Y-101799997D01*
X125045131Y-101800002D01*
X125062498Y-101909658D01*
X125112904Y-102008585D01*
X125112909Y-102008592D01*
X125191407Y-102087090D01*
X125191410Y-102087092D01*
X125191413Y-102087095D01*
X125290339Y-102137500D01*
X125290341Y-102137501D01*
X125399998Y-102154869D01*
X125400000Y-102154869D01*
X125400002Y-102154869D01*
X125509658Y-102137501D01*
X125509659Y-102137500D01*
X125509661Y-102137500D01*
X125608587Y-102087095D01*
X125687095Y-102008587D01*
X125737500Y-101909661D01*
X125737500Y-101909659D01*
X125737501Y-101909658D01*
X125754869Y-101800002D01*
X125754869Y-101799997D01*
X125737501Y-101690341D01*
X125708029Y-101632499D01*
X125687095Y-101591413D01*
X125687092Y-101591410D01*
X125687089Y-101591406D01*
X125608592Y-101512909D01*
X125608588Y-101512906D01*
X125608587Y-101512905D01*
X125604743Y-101510946D01*
X125509658Y-101462498D01*
X125400002Y-101445131D01*
X125399998Y-101445131D01*
X125290341Y-101462498D01*
X125191414Y-101512904D01*
X125191407Y-101512909D01*
X125112911Y-101591406D01*
X125112904Y-101591414D01*
X125062498Y-101690341D01*
X125045131Y-101799997D01*
X115752451Y-101799997D01*
X115762094Y-101790354D01*
X115812499Y-101691428D01*
X115812499Y-101691426D01*
X115812500Y-101691425D01*
X115829868Y-101581769D01*
X115829868Y-101581764D01*
X115812500Y-101472108D01*
X115807603Y-101462498D01*
X115762094Y-101373180D01*
X115761425Y-101371867D01*
X115748529Y-101303198D01*
X115761423Y-101259282D01*
X115807923Y-101168022D01*
X115807924Y-101168017D01*
X115825292Y-101058363D01*
X115825292Y-101058358D01*
X115807924Y-100948704D01*
X115807923Y-100948702D01*
X115807923Y-100948700D01*
X115767504Y-100869373D01*
X115754609Y-100800708D01*
X115754818Y-100799997D01*
X125045131Y-100799997D01*
X125045131Y-100800002D01*
X125062498Y-100909658D01*
X125112904Y-101008585D01*
X125112909Y-101008592D01*
X125191407Y-101087090D01*
X125191410Y-101087092D01*
X125191413Y-101087095D01*
X125290339Y-101137500D01*
X125290341Y-101137501D01*
X125399998Y-101154869D01*
X125400000Y-101154869D01*
X125400002Y-101154869D01*
X125509658Y-101137501D01*
X125509659Y-101137500D01*
X125509661Y-101137500D01*
X125608587Y-101087095D01*
X125687095Y-101008587D01*
X125737500Y-100909661D01*
X125737500Y-100909659D01*
X125737501Y-100909658D01*
X125754869Y-100800002D01*
X125754869Y-100799997D01*
X125737501Y-100690341D01*
X125726137Y-100668037D01*
X125687095Y-100591413D01*
X125687092Y-100591410D01*
X125687090Y-100591407D01*
X125608592Y-100512909D01*
X125608588Y-100512906D01*
X125608587Y-100512905D01*
X125604743Y-100510946D01*
X125509658Y-100462498D01*
X125400002Y-100445131D01*
X125399998Y-100445131D01*
X125290341Y-100462498D01*
X125191414Y-100512904D01*
X125191407Y-100512909D01*
X125112909Y-100591407D01*
X125112904Y-100591414D01*
X125062498Y-100690341D01*
X125045131Y-100799997D01*
X115754818Y-100799997D01*
X115767503Y-100756793D01*
X115812724Y-100668042D01*
X115830093Y-100558381D01*
X115822890Y-100512905D01*
X115812725Y-100448724D01*
X115812724Y-100448722D01*
X115812724Y-100448720D01*
X115769781Y-100364439D01*
X115756886Y-100295774D01*
X115769780Y-100251859D01*
X115812488Y-100168040D01*
X115829857Y-100058379D01*
X115812488Y-99948718D01*
X115769668Y-99864678D01*
X115756773Y-99796014D01*
X115769667Y-99752099D01*
X115812499Y-99668038D01*
X115829868Y-99558377D01*
X115812499Y-99448716D01*
X115762094Y-99349790D01*
X115762090Y-99349786D01*
X115759448Y-99344600D01*
X115746552Y-99275931D01*
X115759448Y-99232010D01*
X115762090Y-99226823D01*
X115762094Y-99226820D01*
X115812499Y-99127894D01*
X115821670Y-99069995D01*
X115829868Y-99018235D01*
X115829868Y-99018230D01*
X115812500Y-98908576D01*
X115812499Y-98908574D01*
X115812499Y-98908572D01*
X115769674Y-98824522D01*
X115756779Y-98755859D01*
X115769672Y-98711945D01*
X115812499Y-98627894D01*
X115818447Y-98590341D01*
X115829868Y-98518235D01*
X115829868Y-98518230D01*
X115812500Y-98408574D01*
X115791377Y-98367117D01*
X115769674Y-98324524D01*
X115756779Y-98255856D01*
X115769673Y-98211941D01*
X115812499Y-98127891D01*
X115812500Y-98127886D01*
X115829868Y-98018232D01*
X115829868Y-98018227D01*
X115818016Y-97943398D01*
X115826971Y-97874105D01*
X115871967Y-97820653D01*
X115938718Y-97800013D01*
X115940489Y-97800000D01*
X120800000Y-97800000D01*
X120800000Y-98345131D01*
G37*
G04 #@! TD.AperFunction*
G04 #@! TA.AperFunction,Conductor*
G36*
X122609185Y-97837023D02*
G01*
X122604201Y-97906715D01*
X122600000Y-97916272D01*
X122600000Y-97820201D01*
X122609185Y-97837023D01*
G37*
G04 #@! TD.AperFunction*
G04 #@! TA.AperFunction,Conductor*
G36*
X128459572Y-101119685D02*
G01*
X128505327Y-101172489D01*
X128515271Y-101241647D01*
X128515006Y-101243398D01*
X128498685Y-101346443D01*
X128498685Y-101346448D01*
X128516052Y-101456104D01*
X128566458Y-101555031D01*
X128566463Y-101555038D01*
X128644961Y-101633536D01*
X128644964Y-101633538D01*
X128644967Y-101633541D01*
X128743893Y-101683946D01*
X128743895Y-101683947D01*
X128853552Y-101701315D01*
X128853554Y-101701315D01*
X128853556Y-101701315D01*
X128963212Y-101683947D01*
X128963213Y-101683946D01*
X128963215Y-101683946D01*
X129062141Y-101633541D01*
X129140649Y-101555033D01*
X129191054Y-101456107D01*
X129191054Y-101456105D01*
X129191055Y-101456104D01*
X129208423Y-101346448D01*
X129208423Y-101346443D01*
X129192102Y-101243398D01*
X129201057Y-101174105D01*
X129246053Y-101120653D01*
X129312804Y-101100013D01*
X129314575Y-101100000D01*
X133776000Y-101100000D01*
X133843039Y-101119685D01*
X133888794Y-101172489D01*
X133900000Y-101224000D01*
X133900000Y-104976000D01*
X133880315Y-105043039D01*
X133827511Y-105088794D01*
X133776000Y-105100000D01*
X133480887Y-105100000D01*
X133424593Y-105086485D01*
X133403135Y-105075551D01*
X133403132Y-105075550D01*
X133293476Y-105058183D01*
X133293472Y-105058183D01*
X133183815Y-105075550D01*
X133183812Y-105075551D01*
X133162355Y-105086485D01*
X133106061Y-105100000D01*
X130513029Y-105100000D01*
X130456735Y-105086485D01*
X130409661Y-105062499D01*
X130409658Y-105062498D01*
X130300002Y-105045131D01*
X130299998Y-105045131D01*
X130190341Y-105062498D01*
X130190338Y-105062499D01*
X130143265Y-105086485D01*
X130086971Y-105100000D01*
X127700000Y-105100000D01*
X127700000Y-104134995D01*
X130180129Y-104134995D01*
X130180129Y-104135000D01*
X130197496Y-104244656D01*
X130247902Y-104343583D01*
X130247907Y-104343590D01*
X130326405Y-104422088D01*
X130326408Y-104422090D01*
X130326411Y-104422093D01*
X130390738Y-104454869D01*
X130425339Y-104472499D01*
X130534996Y-104489867D01*
X130534998Y-104489867D01*
X130535000Y-104489867D01*
X130644656Y-104472499D01*
X130644657Y-104472498D01*
X130644659Y-104472498D01*
X130743585Y-104422093D01*
X130822093Y-104343585D01*
X130872498Y-104244659D01*
X130872498Y-104244657D01*
X130872499Y-104244656D01*
X130889867Y-104135000D01*
X130889867Y-104134995D01*
X130884324Y-104099997D01*
X132873131Y-104099997D01*
X132873131Y-104100002D01*
X132890498Y-104209658D01*
X132940904Y-104308585D01*
X132940909Y-104308592D01*
X133019407Y-104387090D01*
X133019410Y-104387092D01*
X133019413Y-104387095D01*
X133088091Y-104422088D01*
X133118341Y-104437501D01*
X133227998Y-104454869D01*
X133228000Y-104454869D01*
X133228002Y-104454869D01*
X133337658Y-104437501D01*
X133337659Y-104437500D01*
X133337661Y-104437500D01*
X133436587Y-104387095D01*
X133515095Y-104308587D01*
X133565500Y-104209661D01*
X133565500Y-104209659D01*
X133565501Y-104209658D01*
X133582869Y-104100002D01*
X133582869Y-104099997D01*
X133565501Y-103990341D01*
X133565500Y-103990339D01*
X133515095Y-103891413D01*
X133515092Y-103891410D01*
X133515090Y-103891407D01*
X133436592Y-103812909D01*
X133436588Y-103812906D01*
X133436587Y-103812905D01*
X133406345Y-103797496D01*
X133337658Y-103762498D01*
X133228002Y-103745131D01*
X133227998Y-103745131D01*
X133118341Y-103762498D01*
X133019414Y-103812904D01*
X133019407Y-103812909D01*
X132940909Y-103891407D01*
X132940904Y-103891414D01*
X132890498Y-103990341D01*
X132873131Y-104099997D01*
X130884324Y-104099997D01*
X130872499Y-104025339D01*
X130854666Y-103990339D01*
X130822093Y-103926411D01*
X130822090Y-103926408D01*
X130822088Y-103926405D01*
X130743590Y-103847907D01*
X130743586Y-103847904D01*
X130743585Y-103847903D01*
X130739741Y-103845944D01*
X130644656Y-103797496D01*
X130535000Y-103780129D01*
X130534996Y-103780129D01*
X130425339Y-103797496D01*
X130326412Y-103847902D01*
X130326405Y-103847907D01*
X130247907Y-103926405D01*
X130247902Y-103926412D01*
X130197496Y-104025339D01*
X130180129Y-104134995D01*
X127700000Y-104134995D01*
X127700000Y-102500000D01*
X128545128Y-102500000D01*
X128545128Y-102500005D01*
X128562495Y-102609661D01*
X128612901Y-102708588D01*
X128612906Y-102708595D01*
X128691404Y-102787093D01*
X128691410Y-102787098D01*
X128790336Y-102837503D01*
X128790339Y-102837503D01*
X128794776Y-102839764D01*
X128845572Y-102887737D01*
X128862368Y-102955558D01*
X128839831Y-103021693D01*
X128826167Y-103037926D01*
X128822688Y-103041405D01*
X128822681Y-103041414D01*
X128772275Y-103140341D01*
X128754908Y-103249997D01*
X128754908Y-103250002D01*
X128772275Y-103359658D01*
X128822681Y-103458585D01*
X128822686Y-103458592D01*
X128901184Y-103537090D01*
X128901187Y-103537092D01*
X128901190Y-103537095D01*
X129000116Y-103587500D01*
X129000118Y-103587501D01*
X129109775Y-103604869D01*
X129109777Y-103604869D01*
X129109779Y-103604869D01*
X129219435Y-103587501D01*
X129219436Y-103587500D01*
X129219438Y-103587500D01*
X129318364Y-103537095D01*
X129396872Y-103458587D01*
X129447277Y-103359661D01*
X129447277Y-103359659D01*
X129447278Y-103359658D01*
X129464646Y-103250002D01*
X129464646Y-103249997D01*
X129447278Y-103140341D01*
X129447277Y-103140339D01*
X129396872Y-103041413D01*
X129396869Y-103041410D01*
X129396867Y-103041407D01*
X129318369Y-102962909D01*
X129318363Y-102962904D01*
X129278719Y-102942705D01*
X129219438Y-102912500D01*
X129219435Y-102912499D01*
X129214997Y-102910238D01*
X129164201Y-102862264D01*
X129147405Y-102794443D01*
X129169942Y-102728308D01*
X129183614Y-102712068D01*
X129187092Y-102708590D01*
X129237497Y-102609664D01*
X129237497Y-102609662D01*
X129237498Y-102609661D01*
X129254866Y-102500005D01*
X129254866Y-102500000D01*
X129246107Y-102444696D01*
X130680129Y-102444696D01*
X130680129Y-102444701D01*
X130697496Y-102554357D01*
X130747902Y-102653284D01*
X130747907Y-102653291D01*
X130826405Y-102731789D01*
X130826408Y-102731791D01*
X130826411Y-102731794D01*
X130925337Y-102782199D01*
X130925339Y-102782200D01*
X131034996Y-102799568D01*
X131034998Y-102799568D01*
X131035000Y-102799568D01*
X131144656Y-102782200D01*
X131144657Y-102782199D01*
X131144659Y-102782199D01*
X131243585Y-102731794D01*
X131322093Y-102653286D01*
X131372498Y-102554360D01*
X131372498Y-102554358D01*
X131372499Y-102554357D01*
X131389867Y-102444701D01*
X131389867Y-102444696D01*
X131372499Y-102335040D01*
X131350272Y-102291417D01*
X131322093Y-102236112D01*
X131322090Y-102236109D01*
X131322088Y-102236106D01*
X131243590Y-102157608D01*
X131243586Y-102157605D01*
X131243585Y-102157604D01*
X131219111Y-102145134D01*
X131144656Y-102107197D01*
X131035000Y-102089830D01*
X131034996Y-102089830D01*
X130925339Y-102107197D01*
X130826412Y-102157603D01*
X130826405Y-102157608D01*
X130747907Y-102236106D01*
X130747902Y-102236113D01*
X130697496Y-102335040D01*
X130680129Y-102444696D01*
X129246107Y-102444696D01*
X129237498Y-102390344D01*
X129209318Y-102335038D01*
X129187092Y-102291416D01*
X129187089Y-102291413D01*
X129187087Y-102291410D01*
X129108589Y-102212912D01*
X129108585Y-102212909D01*
X129108584Y-102212908D01*
X129104740Y-102210949D01*
X129009655Y-102162501D01*
X128899999Y-102145134D01*
X128899995Y-102145134D01*
X128790338Y-102162501D01*
X128691411Y-102212907D01*
X128691404Y-102212912D01*
X128612906Y-102291410D01*
X128612901Y-102291417D01*
X128562495Y-102390344D01*
X128545128Y-102500000D01*
X127700000Y-102500000D01*
X127700000Y-101100000D01*
X128200000Y-101100000D01*
X128392533Y-101100000D01*
X128459572Y-101119685D01*
G37*
G04 #@! TD.AperFunction*
M02*
