G04 #@! TF.GenerationSoftware,KiCad,Pcbnew,8.0.2*
G04 #@! TF.CreationDate,2024-11-02T18:00:51+05:00*
G04 #@! TF.ProjectId,obsidian-boa-r0.1,6f627369-6469-4616-9e2d-626f612d7230,r0.1*
G04 #@! TF.SameCoordinates,Original*
G04 #@! TF.FileFunction,Paste,Top*
G04 #@! TF.FilePolarity,Positive*
%FSLAX46Y46*%
G04 Gerber Fmt 4.6, Leading zero omitted, Abs format (unit mm)*
G04 Created by KiCad (PCBNEW 8.0.2) date 2024-11-02 18:00:51*
%MOMM*%
%LPD*%
G01*
G04 APERTURE LIST*
G04 Aperture macros list*
%AMRoundRect*
0 Rectangle with rounded corners*
0 $1 Rounding radius*
0 $2 $3 $4 $5 $6 $7 $8 $9 X,Y pos of 4 corners*
0 Add a 4 corners polygon primitive as box body*
4,1,4,$2,$3,$4,$5,$6,$7,$8,$9,$2,$3,0*
0 Add four circle primitives for the rounded corners*
1,1,$1+$1,$2,$3*
1,1,$1+$1,$4,$5*
1,1,$1+$1,$6,$7*
1,1,$1+$1,$8,$9*
0 Add four rect primitives between the rounded corners*
20,1,$1+$1,$2,$3,$4,$5,0*
20,1,$1+$1,$4,$5,$6,$7,0*
20,1,$1+$1,$6,$7,$8,$9,0*
20,1,$1+$1,$8,$9,$2,$3,0*%
G04 Aperture macros list end*
%ADD10C,0.010000*%
%ADD11R,0.550000X0.550000*%
%ADD12RoundRect,0.174375X0.253125X-0.174375X0.253125X0.174375X-0.253125X0.174375X-0.253125X-0.174375X0*%
%ADD13RoundRect,0.147500X0.172500X-0.147500X0.172500X0.147500X-0.172500X0.147500X-0.172500X-0.147500X0*%
%ADD14RoundRect,0.075000X-0.550000X0.225000X-0.550000X-0.225000X0.550000X-0.225000X0.550000X0.225000X0*%
%ADD15RoundRect,0.075000X-0.550000X0.075000X-0.550000X-0.075000X0.550000X-0.075000X0.550000X0.075000X0*%
%ADD16RoundRect,0.218750X0.256250X-0.218750X0.256250X0.218750X-0.256250X0.218750X-0.256250X-0.218750X0*%
%ADD17RoundRect,0.147500X-0.172500X0.147500X-0.172500X-0.147500X0.172500X-0.147500X0.172500X0.147500X0*%
%ADD18RoundRect,0.147500X0.147500X0.172500X-0.147500X0.172500X-0.147500X-0.172500X0.147500X-0.172500X0*%
%ADD19RoundRect,0.112500X-0.112500X0.112500X-0.112500X-0.112500X0.112500X-0.112500X0.112500X0.112500X0*%
%ADD20RoundRect,0.225000X-0.225000X-0.225000X0.225000X-0.225000X0.225000X0.225000X-0.225000X0.225000X0*%
%ADD21RoundRect,0.062500X-0.337500X-0.062500X0.337500X-0.062500X0.337500X0.062500X-0.337500X0.062500X0*%
%ADD22RoundRect,0.062500X-0.062500X-0.337500X0.062500X-0.337500X0.062500X0.337500X-0.062500X0.337500X0*%
%ADD23RoundRect,0.135000X0.135000X0.185000X-0.135000X0.185000X-0.135000X-0.185000X0.135000X-0.185000X0*%
%ADD24RoundRect,0.172500X0.262500X0.172500X-0.262500X0.172500X-0.262500X-0.172500X0.262500X-0.172500X0*%
%ADD25RoundRect,0.093750X0.093750X0.106250X-0.093750X0.106250X-0.093750X-0.106250X0.093750X-0.106250X0*%
%ADD26RoundRect,0.150000X0.650000X0.150000X-0.650000X0.150000X-0.650000X-0.150000X0.650000X-0.150000X0*%
%ADD27RoundRect,0.135000X-0.185000X0.135000X-0.185000X-0.135000X0.185000X-0.135000X0.185000X0.135000X0*%
%ADD28RoundRect,0.135000X-0.135000X-0.185000X0.135000X-0.185000X0.135000X0.185000X-0.135000X0.185000X0*%
%ADD29RoundRect,0.218750X-0.218750X-0.256250X0.218750X-0.256250X0.218750X0.256250X-0.218750X0.256250X0*%
%ADD30R,0.500000X0.400000*%
%ADD31R,0.500000X0.300000*%
%ADD32R,0.600000X1.100000*%
%ADD33RoundRect,0.147500X-0.147500X-0.172500X0.147500X-0.172500X0.147500X0.172500X-0.147500X0.172500X0*%
%ADD34RoundRect,0.140000X-0.140000X-0.170000X0.140000X-0.170000X0.140000X0.170000X-0.140000X0.170000X0*%
%ADD35RoundRect,0.135000X0.185000X-0.135000X0.185000X0.135000X-0.185000X0.135000X-0.185000X-0.135000X0*%
%ADD36RoundRect,0.200000X-0.250000X0.200000X-0.250000X-0.200000X0.250000X-0.200000X0.250000X0.200000X0*%
%ADD37RoundRect,0.135000X0.540000X0.540000X-0.540000X0.540000X-0.540000X-0.540000X0.540000X-0.540000X0*%
%ADD38RoundRect,0.140000X0.170000X-0.140000X0.170000X0.140000X-0.170000X0.140000X-0.170000X-0.140000X0*%
%ADD39RoundRect,0.218750X-0.218750X-0.381250X0.218750X-0.381250X0.218750X0.381250X-0.218750X0.381250X0*%
%ADD40RoundRect,0.150000X0.825000X0.150000X-0.825000X0.150000X-0.825000X-0.150000X0.825000X-0.150000X0*%
%ADD41RoundRect,0.225000X-0.250000X0.225000X-0.250000X-0.225000X0.250000X-0.225000X0.250000X0.225000X0*%
%ADD42RoundRect,0.079500X-0.079500X-0.100500X0.079500X-0.100500X0.079500X0.100500X-0.079500X0.100500X0*%
%ADD43R,0.840000X0.260000*%
%ADD44R,0.260000X0.840000*%
G04 APERTURE END LIST*
D10*
X120598440Y-101495000D02*
X118775000Y-101495000D01*
X118775000Y-99675588D01*
X120598440Y-99675588D01*
X120598440Y-101495000D01*
G36*
X120598440Y-101495000D02*
G01*
X118775000Y-101495000D01*
X118775000Y-99675588D01*
X120598440Y-99675588D01*
X120598440Y-101495000D01*
G37*
X118024385Y-101495000D02*
X116205000Y-101495000D01*
X116205000Y-99675615D01*
X118024385Y-99675615D01*
X118024385Y-101495000D01*
G36*
X118024385Y-101495000D02*
G01*
X116205000Y-101495000D01*
X116205000Y-99675615D01*
X118024385Y-99675615D01*
X118024385Y-101495000D01*
G37*
X120597080Y-98925000D02*
X118775000Y-98925000D01*
X118775000Y-97102920D01*
X120597080Y-97102920D01*
X120597080Y-98925000D01*
G36*
X120597080Y-98925000D02*
G01*
X118775000Y-98925000D01*
X118775000Y-97102920D01*
X120597080Y-97102920D01*
X120597080Y-98925000D01*
G37*
X118024922Y-98925000D02*
X116205000Y-98925000D01*
X116205000Y-97104540D01*
X118024922Y-97104540D01*
X118024922Y-98925000D01*
G36*
X118024922Y-98925000D02*
G01*
X116205000Y-98925000D01*
X116205000Y-97104540D01*
X118024922Y-97104540D01*
X118024922Y-98925000D01*
G37*
D11*
X112575000Y-108075000D03*
X112575000Y-107325000D03*
X109925000Y-107325000D03*
X109925000Y-108075000D03*
D12*
X102700000Y-93387500D03*
X102700000Y-92212500D03*
X105500000Y-93287500D03*
X105500000Y-92112500D03*
D13*
X119500000Y-94485000D03*
X119500000Y-93515000D03*
D12*
X108200000Y-93387500D03*
X108200000Y-92212500D03*
D14*
X106245000Y-96250000D03*
X106245000Y-97050000D03*
D15*
X106245000Y-98250000D03*
X106245000Y-99250000D03*
X106245000Y-99750000D03*
X106245000Y-100750000D03*
D14*
X106245000Y-101950000D03*
X106245000Y-102750000D03*
X106245000Y-102750000D03*
X106245000Y-101950000D03*
D15*
X106245000Y-101250000D03*
X106245000Y-100250000D03*
X106245000Y-98750000D03*
X106245000Y-97750000D03*
D14*
X106245000Y-97050000D03*
X106245000Y-96250000D03*
D16*
X123200000Y-99987500D03*
X123200000Y-98412500D03*
D17*
X101200000Y-92315000D03*
X101200000Y-93285000D03*
X104000000Y-92215000D03*
X104000000Y-93185000D03*
X106800000Y-92215000D03*
X106800000Y-93185000D03*
D18*
X112085000Y-105600000D03*
X111115000Y-105600000D03*
D13*
X113800000Y-96685000D03*
X113800000Y-95715000D03*
D19*
X118125000Y-91775000D03*
X118125000Y-92425000D03*
X117475000Y-92425000D03*
X117475000Y-91775000D03*
D20*
X109880000Y-98880000D03*
X109880000Y-100000000D03*
X109880000Y-101120000D03*
X111000000Y-98880000D03*
X111000000Y-100000000D03*
X111000000Y-101120000D03*
X112120000Y-98880000D03*
X112120000Y-100000000D03*
X112120000Y-101120000D03*
D21*
X108550000Y-98500000D03*
X108550000Y-99000000D03*
X108550000Y-99500000D03*
X108550000Y-100000000D03*
X108550000Y-100500000D03*
X108550000Y-101000000D03*
X108550000Y-101500000D03*
D22*
X109500000Y-102450000D03*
X110000000Y-102450000D03*
X110500000Y-102450000D03*
X111000000Y-102450000D03*
X111500000Y-102450000D03*
X112000000Y-102450000D03*
X112500000Y-102450000D03*
D21*
X113450000Y-101500000D03*
X113450000Y-101000000D03*
X113450000Y-100500000D03*
X113450000Y-100000000D03*
X113450000Y-99500000D03*
X113450000Y-99000000D03*
X113450000Y-98500000D03*
D22*
X112500000Y-97550000D03*
X112000000Y-97550000D03*
X111500000Y-97550000D03*
X111000000Y-97550000D03*
X110500000Y-97550000D03*
X110000000Y-97550000D03*
X109500000Y-97550000D03*
D23*
X114310000Y-105600000D03*
X113290000Y-105600000D03*
D24*
X103300000Y-106800000D03*
X103300000Y-106000000D03*
D25*
X104187500Y-107050000D03*
X104187500Y-106400000D03*
X104187500Y-105750000D03*
X102412500Y-105750000D03*
X102412500Y-106400000D03*
X102412500Y-107050000D03*
D17*
X115500000Y-104615000D03*
X115500000Y-105585000D03*
D26*
X132200000Y-98605000D03*
X132200000Y-97335000D03*
X132200000Y-96065000D03*
X132200000Y-94795000D03*
X125000000Y-94795000D03*
X125000000Y-96065000D03*
X125000000Y-97335000D03*
X125000000Y-98605000D03*
D27*
X110800000Y-103590000D03*
X110800000Y-104610000D03*
D28*
X109890000Y-96200000D03*
X110910000Y-96200000D03*
D29*
X120912500Y-94400000D03*
X122487500Y-94400000D03*
D30*
X133800000Y-104450000D03*
D31*
X133800000Y-104950000D03*
X133800000Y-105450000D03*
D30*
X133800000Y-105950000D03*
X134800000Y-105950000D03*
D31*
X134800000Y-105450000D03*
X134800000Y-104950000D03*
D30*
X134800000Y-104450000D03*
D32*
X113150000Y-94400000D03*
X115050000Y-94400000D03*
X114100000Y-92200000D03*
D17*
X123100000Y-101215000D03*
X123100000Y-102185000D03*
D33*
X124115000Y-102200000D03*
X125085000Y-102200000D03*
D34*
X108020000Y-104500000D03*
X108980000Y-104500000D03*
D11*
X114425000Y-107425000D03*
X114425000Y-108175000D03*
X117075000Y-108175000D03*
X117075000Y-107425000D03*
D13*
X116400000Y-92115000D03*
X116400000Y-93085000D03*
X120200000Y-106185000D03*
X120200000Y-105215000D03*
D27*
X105400000Y-105390000D03*
X105400000Y-106410000D03*
D35*
X112900000Y-104610000D03*
X112900000Y-103590000D03*
D33*
X129115000Y-100100000D03*
X130085000Y-100100000D03*
D13*
X118300000Y-94485000D03*
X118300000Y-93515000D03*
X117400000Y-94485000D03*
X117400000Y-93515000D03*
D18*
X128085000Y-100100000D03*
X127115000Y-100100000D03*
D33*
X124115000Y-101200000D03*
X125085000Y-101200000D03*
D36*
X118725000Y-104375000D03*
X117075000Y-104375000D03*
X117075000Y-105625000D03*
X118725000Y-105625000D03*
D34*
X108040000Y-103530000D03*
X109000000Y-103530000D03*
D33*
X124515000Y-100200000D03*
X125485000Y-100200000D03*
D35*
X109800000Y-104610000D03*
X109800000Y-103590000D03*
D32*
X109650000Y-94400000D03*
X111550000Y-94400000D03*
X110600000Y-92200000D03*
D37*
X122525000Y-103625000D03*
X124675000Y-105775000D03*
X124675000Y-103625000D03*
X122525000Y-105775000D03*
D38*
X107700000Y-106380000D03*
X107700000Y-105420000D03*
D39*
X105537500Y-107800000D03*
X107662500Y-107800000D03*
D27*
X111900000Y-103590000D03*
X111900000Y-104610000D03*
D40*
X131875000Y-105405000D03*
X131875000Y-104135000D03*
X131875000Y-102865000D03*
X131875000Y-101595000D03*
X126925000Y-101595000D03*
X126925000Y-102865000D03*
X126925000Y-104135000D03*
X126925000Y-105405000D03*
D17*
X114000000Y-103515000D03*
X114000000Y-104485000D03*
D41*
X101100000Y-105925000D03*
X101100000Y-107475000D03*
D35*
X106600000Y-106410000D03*
X106600000Y-105390000D03*
D23*
X121210000Y-104400000D03*
X120190000Y-104400000D03*
D42*
X120455000Y-103700000D03*
X121145000Y-103700000D03*
D23*
X112910000Y-96200000D03*
X111890000Y-96200000D03*
D38*
X108900000Y-106380000D03*
X108900000Y-105420000D03*
D43*
X121835000Y-102050000D03*
X121835000Y-101550000D03*
X121835000Y-101050000D03*
X121835000Y-100550000D03*
X121835000Y-100050000D03*
X121835000Y-99550000D03*
X121835000Y-99050000D03*
X121835000Y-98550000D03*
X121835000Y-98050000D03*
X121835000Y-97550000D03*
X121835000Y-97050000D03*
X121835000Y-96550000D03*
D44*
X121150000Y-95865000D03*
X120650000Y-95865000D03*
X120150000Y-95865000D03*
X119650000Y-95865000D03*
X119150000Y-95865000D03*
X118650000Y-95865000D03*
X118150000Y-95865000D03*
X117650000Y-95865000D03*
X117150000Y-95865000D03*
X116650000Y-95865000D03*
X116150000Y-95865000D03*
X115650000Y-95865000D03*
D43*
X114965000Y-96550000D03*
X114965000Y-97050000D03*
X114965000Y-97550000D03*
X114965000Y-98050000D03*
X114965000Y-98550000D03*
X114965000Y-99050000D03*
X114965000Y-99550000D03*
X114965000Y-100050000D03*
X114965000Y-100550000D03*
X114965000Y-101050000D03*
X114965000Y-101550000D03*
X114965000Y-102050000D03*
D44*
X115650000Y-102735000D03*
X116150000Y-102735000D03*
X116650000Y-102735000D03*
X117150000Y-102735000D03*
X117650000Y-102735000D03*
X118150000Y-102735000D03*
X118650000Y-102735000D03*
X119150000Y-102735000D03*
X119650000Y-102735000D03*
X120150000Y-102735000D03*
X120650000Y-102735000D03*
X121150000Y-102735000D03*
D38*
X121200000Y-106180000D03*
X121200000Y-105220000D03*
M02*
