M48
; DRILL file {KiCad 8.0.2} date 2024-11-02T23:59:34+0500
; FORMAT={-:-/ absolute / inch / decimal}
; #@! TF.CreationDate,2024-11-02T23:59:34+05:00
; #@! TF.GenerationSoftware,Kicad,Pcbnew,8.0.2
; #@! TF.FileFunction,Plated,1,4,PTH
FMAT,2
INCH
; #@! TA.AperFunction,Plated,PTH,ViaDrill
T1C0.0059
; #@! TA.AperFunction,Plated,PTH,ComponentDrill
T2C0.0079
; #@! TA.AperFunction,Plated,PTH,ComponentDrill
T3C0.0236
; #@! TA.AperFunction,Plated,PTH,ComponentDrill
T4C0.0380
%
G90
G05
T1
X3.9606Y-3.689
X4.0709Y-3.7323
X4.0984Y-3.6929
X4.1417Y-3.8898
X4.1417Y-3.9252
X4.2087Y-3.687
X4.2205Y-4.0157
X4.2224Y-4.1988
X4.2441Y-4.1004
X4.2618Y-4.1988
X4.2717Y-3.7126
X4.2874Y-3.6772
X4.2913Y-3.8012
X4.2913Y-4.0512
X4.3189Y-4.2047
X4.3268Y-3.937
X4.3307Y-3.9803
X4.3335Y-4.0542
X4.3504Y-3.8524
X4.3622Y-4.1102
X4.3701Y-3.9803
X4.3701Y-4.0539
X4.3703Y-3.8012
X4.3711Y-3.854
X4.3912Y-4.1391
X4.3937Y-3.7559
X4.3937Y-4.0787
X4.4134Y-3.9843
X4.4252Y-4.1969
X4.4331Y-4.0787
X4.4382Y-4.1575
X4.4488Y-3.8189
X4.4685Y-3.8228
X4.4796Y-4.0519
X4.4882Y-3.7126
X4.4882Y-3.8228
X4.5Y-3.7756
X4.5049Y-4.2087
X4.506Y-4.0783
X4.5118Y-3.8405
X4.5118Y-3.7283
X4.5197Y-3.6299
X4.5236Y-4.1181
X4.5355Y-4.0689
X4.5386Y-4.0175
X4.5461Y-3.9787
X4.5463Y-3.9393
X4.5463Y-3.859
X4.5463Y-3.8787
X4.5463Y-3.8984
X4.5463Y-3.9196
X4.5463Y-3.9993
X4.5463Y-3.959
X4.5472Y-3.7638
X4.5728Y-3.7742
X4.5748Y-4.0984
X4.5906Y-4.0787
X4.6122Y-4.0747
X4.6142Y-3.6024
X4.626Y-3.6693
X4.6327Y-4.0624
X4.6339Y-4.2283
X4.6339Y-4.2598
X4.6524Y-4.0531
X4.6575Y-3.6102
X4.672Y-4.0551
X4.7087Y-3.6535
X4.7114Y-3.7795
X4.7297Y-4.063
X4.7461Y-3.7008
X4.7461Y-3.7323
X4.7492Y-3.7598
X4.7559Y-3.8858
X4.7717Y-3.7756
X4.7795Y-3.8594
X4.7876Y-3.7346
X4.7894Y-3.7047
X4.8071Y-3.8807
X4.8071Y-3.9004
X4.8201Y-4.0168
X4.8214Y-3.9717
X4.8324Y-3.8157
X4.8343Y-3.8361
X4.8386Y-3.6772
X4.8386Y-3.8622
X4.937Y-3.9685
X4.937Y-4.0079
X4.9724Y-3.8819
X4.9961Y-4.1772
X5.0Y-3.8425
X5.0075Y-3.8051
X5.0276Y-4.1772
X5.0556Y-3.8051
X5.073Y-3.99
X5.0748Y-4.0354
X5.0827Y-3.9606
X5.0831Y-4.065
X5.1299Y-4.1496
X5.1392Y-4.0998
X5.1496Y-3.8346
X5.1589Y-4.0333
X5.1829Y-3.8065
X5.2126Y-3.9055
X5.2452Y-4.0984
X5.2478Y-4.1501
X5.2517Y-4.1711
X5.2559Y-3.7874
T2
X4.0669Y-4.1673
X4.0669Y-4.2106
T4
X4.7874Y-3.5878
X4.7874Y-3.6378
X4.7953Y-4.2402
X4.7953Y-4.2902
X4.887Y-3.587
X4.887Y-3.637
X4.8937Y-4.2402
X4.8937Y-4.2902
X4.987Y-3.587
X4.987Y-3.637
X4.9921Y-4.2402
X4.9921Y-4.2902
X5.0866Y-3.587
X5.0866Y-3.637
X5.0906Y-4.241
X5.0906Y-4.291
X5.185Y-3.5878
X5.185Y-3.6378
X5.189Y-4.241
X5.189Y-4.291
X5.287Y-3.737
X5.287Y-3.837
X5.287Y-3.937
X5.287Y-4.037
X5.2874Y-3.5878
X5.2874Y-3.6378
X5.2874Y-4.241
X5.2874Y-4.291
X5.337Y-3.737
X5.337Y-3.837
X5.337Y-3.937
X5.337Y-4.037
T3
G00X4.002Y-3.7472
M15
G01X3.9783Y-3.7472
M16
G05
G00X4.002Y-4.0874
M15
G01X3.9783Y-4.0874
M16
G05
G00X4.1724Y-3.7472
M15
G01X4.137Y-3.7472
M16
G05
G00X4.1724Y-4.0874
M15
G01X4.137Y-4.0874
M16
G05
M30
