M48
; DRILL file {KiCad 8.0.6} date 2024-11-11T10:15:46+0100
; FORMAT={-:-/ absolute / metric / decimal}
; #@! TF.CreationDate,2024-11-11T10:15:46+01:00
; #@! TF.GenerationSoftware,Kicad,Pcbnew,8.0.6
; #@! TF.FileFunction,Plated,1,4,PTH
FMAT,2
METRIC
; #@! TA.AperFunction,Plated,PTH,ViaDrill
T1C0.150
; #@! TA.AperFunction,Plated,PTH,ViaDrill
T2C0.200
; #@! TA.AperFunction,Plated,PTH,ComponentDrill
T3C0.200
; #@! TA.AperFunction,Plated,PTH,ComponentDrill
T4C0.600
; #@! TA.AperFunction,Plated,PTH,ComponentDrill
T5C0.965
%
G90
G05
T1
X109.97Y-91.58
T2
X100.6Y-93.7
X103.4Y-94.8
X105.2Y-98.8
X105.2Y-99.7
X107.2Y-102.0
X107.25Y-106.65
X107.8Y-104.15
X108.25Y-106.65
X109.0Y-96.55
X109.0Y-102.9
X109.7Y-106.8
X109.9Y-100.0
X110.0Y-101.1
X110.07Y-102.977
X110.5Y-97.55
X110.8Y-104.4
X111.0Y-101.1
X111.0Y-102.97
X111.005Y-96.47
X111.025Y-97.885
X111.536Y-105.133
X111.6Y-95.4
X111.6Y-103.6
X112.05Y-101.19
X112.4Y-106.6
X112.6Y-103.6
X112.73Y-105.6
X113.729Y-103.131
X113.77Y-97.24
X114.189Y-98.841
X114.197Y-95.733
X114.22Y-100.65
X114.29Y-99.48
X114.298Y-100.1
X114.3Y-98.2
X114.34Y-101.21
X114.385Y-101.798
X114.425Y-106.9
X114.454Y-103.59
X114.6Y-94.337
X114.716Y-98.686
X114.8Y-92.2
X114.9Y-104.6
X115.318Y-95.838
X115.6Y-103.08
X115.848Y-103.897
X115.883Y-101.55
X115.98Y-95.21
X116.42Y-103.68
X116.45Y-108.05
X116.6Y-98.15
X116.6Y-98.6
X117.05Y-98.15
X117.05Y-98.6
X117.06Y-103.53
X117.7Y-103.7
X117.7Y-107.4
X117.746Y-102.938
X118.746Y-103.265
X119.4Y-95.45
X119.6Y-92.8
X119.94Y-103.13
X120.3Y-95.4
X120.551Y-93.936
X120.563Y-94.83
X121.2Y-95.9
X121.604Y-94.859
X121.694Y-93.936
X122.159Y-98.742
X122.23Y-99.36
X122.25Y-101.65
X122.3Y-100.6
X122.36Y-98.23
X122.801Y-97.447
X122.892Y-96.772
X122.9Y-93.4
X122.9Y-98.1
X125.4Y-100.8
X125.4Y-101.8
X126.3Y-98.6
X126.9Y-106.1
X127.0Y-97.6
X127.191Y-96.65
X127.7Y-106.1
X128.412Y-96.65
X128.854Y-101.346
X128.9Y-102.5
X129.1Y-100.6
X129.11Y-103.25
X130.535Y-104.135
X130.8Y-97.4
X131.035Y-102.445
X131.645Y-96.685
X132.4Y-99.2
X133.153Y-104.502
X133.21Y-105.5
X133.23Y-106.2
X133.5Y-96.2
X133.8Y-103.8
T3
X103.3Y-105.85
X103.3Y-106.95
T5
X121.6Y-91.13
X121.6Y-92.4
X121.8Y-107.7
X121.8Y-108.97
X124.13Y-91.11
X124.13Y-92.38
X124.3Y-107.7
X124.3Y-108.97
X126.67Y-91.11
X126.67Y-92.38
X126.8Y-107.7
X126.8Y-108.97
X129.2Y-91.11
X129.2Y-92.38
X129.3Y-107.721
X129.3Y-108.992
X131.7Y-91.13
X131.7Y-92.4
X131.8Y-107.721
X131.8Y-108.992
X134.29Y-94.92
X134.29Y-97.46
X134.29Y-100.0
X134.29Y-102.54
X134.3Y-91.13
X134.3Y-92.4
X134.3Y-107.721
X134.3Y-108.992
X135.56Y-94.92
X135.56Y-97.46
X135.56Y-100.0
X135.56Y-102.54
T4
G00X101.65Y-95.18
M15
G01X101.05Y-95.18
M16
G05
G00X101.65Y-103.82
M15
G01X101.05Y-103.82
M16
G05
G00X105.98Y-95.18
M15
G01X105.08Y-95.18
M16
G05
G00X105.98Y-103.82
M15
G01X105.08Y-103.82
M16
G05
M30
