G04 #@! TF.GenerationSoftware,KiCad,Pcbnew,8.0.6*
G04 #@! TF.CreationDate,2024-11-11T10:15:46+01:00*
G04 #@! TF.ProjectId,V1,56312e6b-6963-4616-945f-706362585858,r0.1*
G04 #@! TF.SameCoordinates,Original*
G04 #@! TF.FileFunction,OtherDrawing,Comment*
%FSLAX46Y46*%
G04 Gerber Fmt 4.6, Leading zero omitted, Abs format (unit mm)*
G04 Created by KiCad (PCBNEW 8.0.6) date 2024-11-11 10:15:46*
%MOMM*%
%LPD*%
G01*
G04 APERTURE LIST*
%ADD10C,0.150000*%
G04 APERTURE END LIST*
D10*
X113113334Y-86874819D02*
X113732381Y-86874819D01*
X113732381Y-86874819D02*
X113399048Y-87255771D01*
X113399048Y-87255771D02*
X113541905Y-87255771D01*
X113541905Y-87255771D02*
X113637143Y-87303390D01*
X113637143Y-87303390D02*
X113684762Y-87351009D01*
X113684762Y-87351009D02*
X113732381Y-87446247D01*
X113732381Y-87446247D02*
X113732381Y-87684342D01*
X113732381Y-87684342D02*
X113684762Y-87779580D01*
X113684762Y-87779580D02*
X113637143Y-87827200D01*
X113637143Y-87827200D02*
X113541905Y-87874819D01*
X113541905Y-87874819D02*
X113256191Y-87874819D01*
X113256191Y-87874819D02*
X113160953Y-87827200D01*
X113160953Y-87827200D02*
X113113334Y-87779580D01*
X114637143Y-86874819D02*
X114160953Y-86874819D01*
X114160953Y-86874819D02*
X114113334Y-87351009D01*
X114113334Y-87351009D02*
X114160953Y-87303390D01*
X114160953Y-87303390D02*
X114256191Y-87255771D01*
X114256191Y-87255771D02*
X114494286Y-87255771D01*
X114494286Y-87255771D02*
X114589524Y-87303390D01*
X114589524Y-87303390D02*
X114637143Y-87351009D01*
X114637143Y-87351009D02*
X114684762Y-87446247D01*
X114684762Y-87446247D02*
X114684762Y-87684342D01*
X114684762Y-87684342D02*
X114637143Y-87779580D01*
X114637143Y-87779580D02*
X114589524Y-87827200D01*
X114589524Y-87827200D02*
X114494286Y-87874819D01*
X114494286Y-87874819D02*
X114256191Y-87874819D01*
X114256191Y-87874819D02*
X114160953Y-87827200D01*
X114160953Y-87827200D02*
X114113334Y-87779580D01*
X115113334Y-87779580D02*
X115160953Y-87827200D01*
X115160953Y-87827200D02*
X115113334Y-87874819D01*
X115113334Y-87874819D02*
X115065715Y-87827200D01*
X115065715Y-87827200D02*
X115113334Y-87779580D01*
X115113334Y-87779580D02*
X115113334Y-87874819D01*
X116065714Y-86874819D02*
X115589524Y-86874819D01*
X115589524Y-86874819D02*
X115541905Y-87351009D01*
X115541905Y-87351009D02*
X115589524Y-87303390D01*
X115589524Y-87303390D02*
X115684762Y-87255771D01*
X115684762Y-87255771D02*
X115922857Y-87255771D01*
X115922857Y-87255771D02*
X116018095Y-87303390D01*
X116018095Y-87303390D02*
X116065714Y-87351009D01*
X116065714Y-87351009D02*
X116113333Y-87446247D01*
X116113333Y-87446247D02*
X116113333Y-87684342D01*
X116113333Y-87684342D02*
X116065714Y-87779580D01*
X116065714Y-87779580D02*
X116018095Y-87827200D01*
X116018095Y-87827200D02*
X115922857Y-87874819D01*
X115922857Y-87874819D02*
X115684762Y-87874819D01*
X115684762Y-87874819D02*
X115589524Y-87827200D01*
X115589524Y-87827200D02*
X115541905Y-87779580D01*
X116970476Y-86874819D02*
X116780000Y-86874819D01*
X116780000Y-86874819D02*
X116684762Y-86922438D01*
X116684762Y-86922438D02*
X116637143Y-86970057D01*
X116637143Y-86970057D02*
X116541905Y-87112914D01*
X116541905Y-87112914D02*
X116494286Y-87303390D01*
X116494286Y-87303390D02*
X116494286Y-87684342D01*
X116494286Y-87684342D02*
X116541905Y-87779580D01*
X116541905Y-87779580D02*
X116589524Y-87827200D01*
X116589524Y-87827200D02*
X116684762Y-87874819D01*
X116684762Y-87874819D02*
X116875238Y-87874819D01*
X116875238Y-87874819D02*
X116970476Y-87827200D01*
X116970476Y-87827200D02*
X117018095Y-87779580D01*
X117018095Y-87779580D02*
X117065714Y-87684342D01*
X117065714Y-87684342D02*
X117065714Y-87446247D01*
X117065714Y-87446247D02*
X117018095Y-87351009D01*
X117018095Y-87351009D02*
X116970476Y-87303390D01*
X116970476Y-87303390D02*
X116875238Y-87255771D01*
X116875238Y-87255771D02*
X116684762Y-87255771D01*
X116684762Y-87255771D02*
X116589524Y-87303390D01*
X116589524Y-87303390D02*
X116541905Y-87351009D01*
X116541905Y-87351009D02*
X116494286Y-87446247D01*
X117684762Y-86874819D02*
X117780000Y-86874819D01*
X117780000Y-86874819D02*
X117875238Y-86922438D01*
X117875238Y-86922438D02*
X117922857Y-86970057D01*
X117922857Y-86970057D02*
X117970476Y-87065295D01*
X117970476Y-87065295D02*
X118018095Y-87255771D01*
X118018095Y-87255771D02*
X118018095Y-87493866D01*
X118018095Y-87493866D02*
X117970476Y-87684342D01*
X117970476Y-87684342D02*
X117922857Y-87779580D01*
X117922857Y-87779580D02*
X117875238Y-87827200D01*
X117875238Y-87827200D02*
X117780000Y-87874819D01*
X117780000Y-87874819D02*
X117684762Y-87874819D01*
X117684762Y-87874819D02*
X117589524Y-87827200D01*
X117589524Y-87827200D02*
X117541905Y-87779580D01*
X117541905Y-87779580D02*
X117494286Y-87684342D01*
X117494286Y-87684342D02*
X117446667Y-87493866D01*
X117446667Y-87493866D02*
X117446667Y-87255771D01*
X117446667Y-87255771D02*
X117494286Y-87065295D01*
X117494286Y-87065295D02*
X117541905Y-86970057D01*
X117541905Y-86970057D02*
X117589524Y-86922438D01*
X117589524Y-86922438D02*
X117684762Y-86874819D01*
X118637143Y-86874819D02*
X118732381Y-86874819D01*
X118732381Y-86874819D02*
X118827619Y-86922438D01*
X118827619Y-86922438D02*
X118875238Y-86970057D01*
X118875238Y-86970057D02*
X118922857Y-87065295D01*
X118922857Y-87065295D02*
X118970476Y-87255771D01*
X118970476Y-87255771D02*
X118970476Y-87493866D01*
X118970476Y-87493866D02*
X118922857Y-87684342D01*
X118922857Y-87684342D02*
X118875238Y-87779580D01*
X118875238Y-87779580D02*
X118827619Y-87827200D01*
X118827619Y-87827200D02*
X118732381Y-87874819D01*
X118732381Y-87874819D02*
X118637143Y-87874819D01*
X118637143Y-87874819D02*
X118541905Y-87827200D01*
X118541905Y-87827200D02*
X118494286Y-87779580D01*
X118494286Y-87779580D02*
X118446667Y-87684342D01*
X118446667Y-87684342D02*
X118399048Y-87493866D01*
X118399048Y-87493866D02*
X118399048Y-87255771D01*
X118399048Y-87255771D02*
X118446667Y-87065295D01*
X118446667Y-87065295D02*
X118494286Y-86970057D01*
X118494286Y-86970057D02*
X118541905Y-86922438D01*
X118541905Y-86922438D02*
X118637143Y-86874819D01*
X120160953Y-87874819D02*
X120160953Y-87208152D01*
X120160953Y-87303390D02*
X120208572Y-87255771D01*
X120208572Y-87255771D02*
X120303810Y-87208152D01*
X120303810Y-87208152D02*
X120446667Y-87208152D01*
X120446667Y-87208152D02*
X120541905Y-87255771D01*
X120541905Y-87255771D02*
X120589524Y-87351009D01*
X120589524Y-87351009D02*
X120589524Y-87874819D01*
X120589524Y-87351009D02*
X120637143Y-87255771D01*
X120637143Y-87255771D02*
X120732381Y-87208152D01*
X120732381Y-87208152D02*
X120875238Y-87208152D01*
X120875238Y-87208152D02*
X120970477Y-87255771D01*
X120970477Y-87255771D02*
X121018096Y-87351009D01*
X121018096Y-87351009D02*
X121018096Y-87874819D01*
X121494286Y-87874819D02*
X121494286Y-87208152D01*
X121494286Y-87303390D02*
X121541905Y-87255771D01*
X121541905Y-87255771D02*
X121637143Y-87208152D01*
X121637143Y-87208152D02*
X121780000Y-87208152D01*
X121780000Y-87208152D02*
X121875238Y-87255771D01*
X121875238Y-87255771D02*
X121922857Y-87351009D01*
X121922857Y-87351009D02*
X121922857Y-87874819D01*
X121922857Y-87351009D02*
X121970476Y-87255771D01*
X121970476Y-87255771D02*
X122065714Y-87208152D01*
X122065714Y-87208152D02*
X122208571Y-87208152D01*
X122208571Y-87208152D02*
X122303810Y-87255771D01*
X122303810Y-87255771D02*
X122351429Y-87351009D01*
X122351429Y-87351009D02*
X122351429Y-87874819D01*
X135560000Y-91110000D02*
X135560000Y-87983580D01*
X100000000Y-91110000D02*
X100000000Y-87983580D01*
X135560000Y-88570000D02*
X100000000Y-88570000D01*
X135560000Y-88570000D02*
X100000000Y-88570000D01*
X135560000Y-88570000D02*
X134433496Y-89156421D01*
X135560000Y-88570000D02*
X134433496Y-87983579D01*
X100000000Y-88570000D02*
X101126504Y-87983579D01*
X100000000Y-88570000D02*
X101126504Y-89156421D01*
X96764819Y-104047618D02*
X96764819Y-104619046D01*
X96764819Y-104333332D02*
X95764819Y-104333332D01*
X95764819Y-104333332D02*
X95907676Y-104428570D01*
X95907676Y-104428570D02*
X96002914Y-104523808D01*
X96002914Y-104523808D02*
X96050533Y-104619046D01*
X95764819Y-103714284D02*
X95764819Y-103047618D01*
X95764819Y-103047618D02*
X96764819Y-103476189D01*
X96669580Y-102666665D02*
X96717200Y-102619046D01*
X96717200Y-102619046D02*
X96764819Y-102666665D01*
X96764819Y-102666665D02*
X96717200Y-102714284D01*
X96717200Y-102714284D02*
X96669580Y-102666665D01*
X96669580Y-102666665D02*
X96764819Y-102666665D01*
X95764819Y-102285713D02*
X95764819Y-101619047D01*
X95764819Y-101619047D02*
X96764819Y-102047618D01*
X96193390Y-101095237D02*
X96145771Y-101190475D01*
X96145771Y-101190475D02*
X96098152Y-101238094D01*
X96098152Y-101238094D02*
X96002914Y-101285713D01*
X96002914Y-101285713D02*
X95955295Y-101285713D01*
X95955295Y-101285713D02*
X95860057Y-101238094D01*
X95860057Y-101238094D02*
X95812438Y-101190475D01*
X95812438Y-101190475D02*
X95764819Y-101095237D01*
X95764819Y-101095237D02*
X95764819Y-100904761D01*
X95764819Y-100904761D02*
X95812438Y-100809523D01*
X95812438Y-100809523D02*
X95860057Y-100761904D01*
X95860057Y-100761904D02*
X95955295Y-100714285D01*
X95955295Y-100714285D02*
X96002914Y-100714285D01*
X96002914Y-100714285D02*
X96098152Y-100761904D01*
X96098152Y-100761904D02*
X96145771Y-100809523D01*
X96145771Y-100809523D02*
X96193390Y-100904761D01*
X96193390Y-100904761D02*
X96193390Y-101095237D01*
X96193390Y-101095237D02*
X96241009Y-101190475D01*
X96241009Y-101190475D02*
X96288628Y-101238094D01*
X96288628Y-101238094D02*
X96383866Y-101285713D01*
X96383866Y-101285713D02*
X96574342Y-101285713D01*
X96574342Y-101285713D02*
X96669580Y-101238094D01*
X96669580Y-101238094D02*
X96717200Y-101190475D01*
X96717200Y-101190475D02*
X96764819Y-101095237D01*
X96764819Y-101095237D02*
X96764819Y-100904761D01*
X96764819Y-100904761D02*
X96717200Y-100809523D01*
X96717200Y-100809523D02*
X96669580Y-100761904D01*
X96669580Y-100761904D02*
X96574342Y-100714285D01*
X96574342Y-100714285D02*
X96383866Y-100714285D01*
X96383866Y-100714285D02*
X96288628Y-100761904D01*
X96288628Y-100761904D02*
X96241009Y-100809523D01*
X96241009Y-100809523D02*
X96193390Y-100904761D01*
X95764819Y-100095237D02*
X95764819Y-99999999D01*
X95764819Y-99999999D02*
X95812438Y-99904761D01*
X95812438Y-99904761D02*
X95860057Y-99857142D01*
X95860057Y-99857142D02*
X95955295Y-99809523D01*
X95955295Y-99809523D02*
X96145771Y-99761904D01*
X96145771Y-99761904D02*
X96383866Y-99761904D01*
X96383866Y-99761904D02*
X96574342Y-99809523D01*
X96574342Y-99809523D02*
X96669580Y-99857142D01*
X96669580Y-99857142D02*
X96717200Y-99904761D01*
X96717200Y-99904761D02*
X96764819Y-99999999D01*
X96764819Y-99999999D02*
X96764819Y-100095237D01*
X96764819Y-100095237D02*
X96717200Y-100190475D01*
X96717200Y-100190475D02*
X96669580Y-100238094D01*
X96669580Y-100238094D02*
X96574342Y-100285713D01*
X96574342Y-100285713D02*
X96383866Y-100333332D01*
X96383866Y-100333332D02*
X96145771Y-100333332D01*
X96145771Y-100333332D02*
X95955295Y-100285713D01*
X95955295Y-100285713D02*
X95860057Y-100238094D01*
X95860057Y-100238094D02*
X95812438Y-100190475D01*
X95812438Y-100190475D02*
X95764819Y-100095237D01*
X95764819Y-99142856D02*
X95764819Y-99047618D01*
X95764819Y-99047618D02*
X95812438Y-98952380D01*
X95812438Y-98952380D02*
X95860057Y-98904761D01*
X95860057Y-98904761D02*
X95955295Y-98857142D01*
X95955295Y-98857142D02*
X96145771Y-98809523D01*
X96145771Y-98809523D02*
X96383866Y-98809523D01*
X96383866Y-98809523D02*
X96574342Y-98857142D01*
X96574342Y-98857142D02*
X96669580Y-98904761D01*
X96669580Y-98904761D02*
X96717200Y-98952380D01*
X96717200Y-98952380D02*
X96764819Y-99047618D01*
X96764819Y-99047618D02*
X96764819Y-99142856D01*
X96764819Y-99142856D02*
X96717200Y-99238094D01*
X96717200Y-99238094D02*
X96669580Y-99285713D01*
X96669580Y-99285713D02*
X96574342Y-99333332D01*
X96574342Y-99333332D02*
X96383866Y-99380951D01*
X96383866Y-99380951D02*
X96145771Y-99380951D01*
X96145771Y-99380951D02*
X95955295Y-99333332D01*
X95955295Y-99333332D02*
X95860057Y-99285713D01*
X95860057Y-99285713D02*
X95812438Y-99238094D01*
X95812438Y-99238094D02*
X95764819Y-99142856D01*
X96764819Y-97619046D02*
X96098152Y-97619046D01*
X96193390Y-97619046D02*
X96145771Y-97571427D01*
X96145771Y-97571427D02*
X96098152Y-97476189D01*
X96098152Y-97476189D02*
X96098152Y-97333332D01*
X96098152Y-97333332D02*
X96145771Y-97238094D01*
X96145771Y-97238094D02*
X96241009Y-97190475D01*
X96241009Y-97190475D02*
X96764819Y-97190475D01*
X96241009Y-97190475D02*
X96145771Y-97142856D01*
X96145771Y-97142856D02*
X96098152Y-97047618D01*
X96098152Y-97047618D02*
X96098152Y-96904761D01*
X96098152Y-96904761D02*
X96145771Y-96809522D01*
X96145771Y-96809522D02*
X96241009Y-96761903D01*
X96241009Y-96761903D02*
X96764819Y-96761903D01*
X96764819Y-96285713D02*
X96098152Y-96285713D01*
X96193390Y-96285713D02*
X96145771Y-96238094D01*
X96145771Y-96238094D02*
X96098152Y-96142856D01*
X96098152Y-96142856D02*
X96098152Y-95999999D01*
X96098152Y-95999999D02*
X96145771Y-95904761D01*
X96145771Y-95904761D02*
X96241009Y-95857142D01*
X96241009Y-95857142D02*
X96764819Y-95857142D01*
X96241009Y-95857142D02*
X96145771Y-95809523D01*
X96145771Y-95809523D02*
X96098152Y-95714285D01*
X96098152Y-95714285D02*
X96098152Y-95571428D01*
X96098152Y-95571428D02*
X96145771Y-95476189D01*
X96145771Y-95476189D02*
X96241009Y-95428570D01*
X96241009Y-95428570D02*
X96764819Y-95428570D01*
X100000000Y-91110000D02*
X96873580Y-91110000D01*
X100000000Y-108890000D02*
X96873580Y-108890000D01*
X97460000Y-91110000D02*
X97460000Y-108890000D01*
X97460000Y-91110000D02*
X97460000Y-108890000D01*
X97460000Y-91110000D02*
X98046421Y-92236504D01*
X97460000Y-91110000D02*
X96873579Y-92236504D01*
X97460000Y-108890000D02*
X96873579Y-107763496D01*
X97460000Y-108890000D02*
X98046421Y-107763496D01*
M02*
