G04 #@! TF.GenerationSoftware,KiCad,Pcbnew,8.0.1*
G04 #@! TF.CreationDate,2024-12-03T00:50:36+05:30*
G04 #@! TF.ProjectId,V1,56312e6b-6963-4616-945f-706362585858,r0.1*
G04 #@! TF.SameCoordinates,Original*
G04 #@! TF.FileFunction,Paste,Top*
G04 #@! TF.FilePolarity,Positive*
%FSLAX46Y46*%
G04 Gerber Fmt 4.6, Leading zero omitted, Abs format (unit mm)*
G04 Created by KiCad (PCBNEW 8.0.1) date 2024-12-03 00:50:36*
%MOMM*%
%LPD*%
G01*
G04 APERTURE LIST*
G04 Aperture macros list*
%AMRoundRect*
0 Rectangle with rounded corners*
0 $1 Rounding radius*
0 $2 $3 $4 $5 $6 $7 $8 $9 X,Y pos of 4 corners*
0 Add a 4 corners polygon primitive as box body*
4,1,4,$2,$3,$4,$5,$6,$7,$8,$9,$2,$3,0*
0 Add four circle primitives for the rounded corners*
1,1,$1+$1,$2,$3*
1,1,$1+$1,$4,$5*
1,1,$1+$1,$6,$7*
1,1,$1+$1,$8,$9*
0 Add four rect primitives between the rounded corners*
20,1,$1+$1,$2,$3,$4,$5,0*
20,1,$1+$1,$4,$5,$6,$7,0*
20,1,$1+$1,$6,$7,$8,$9,0*
20,1,$1+$1,$8,$9,$2,$3,0*%
G04 Aperture macros list end*
%ADD10R,0.600000X1.100000*%
%ADD11R,0.550000X0.550000*%
%ADD12RoundRect,0.174375X0.253125X-0.174375X0.253125X0.174375X-0.253125X0.174375X-0.253125X-0.174375X0*%
%ADD13RoundRect,0.140000X-0.170000X0.140000X-0.170000X-0.140000X0.170000X-0.140000X0.170000X0.140000X0*%
%ADD14RoundRect,0.075000X-0.550000X0.225000X-0.550000X-0.225000X0.550000X-0.225000X0.550000X0.225000X0*%
%ADD15RoundRect,0.075000X-0.550000X0.075000X-0.550000X-0.075000X0.550000X-0.075000X0.550000X0.075000X0*%
%ADD16RoundRect,0.225000X-0.250000X0.225000X-0.250000X-0.225000X0.250000X-0.225000X0.250000X0.225000X0*%
%ADD17RoundRect,0.135000X-0.185000X0.135000X-0.185000X-0.135000X0.185000X-0.135000X0.185000X0.135000X0*%
%ADD18RoundRect,0.140000X0.170000X-0.140000X0.170000X0.140000X-0.170000X0.140000X-0.170000X-0.140000X0*%
%ADD19RoundRect,0.225000X-0.225000X-0.225000X0.225000X-0.225000X0.225000X0.225000X-0.225000X0.225000X0*%
%ADD20RoundRect,0.062500X-0.337500X-0.062500X0.337500X-0.062500X0.337500X0.062500X-0.337500X0.062500X0*%
%ADD21RoundRect,0.062500X-0.062500X-0.337500X0.062500X-0.337500X0.062500X0.337500X-0.062500X0.337500X0*%
%ADD22RoundRect,0.135000X0.185000X-0.135000X0.185000X0.135000X-0.185000X0.135000X-0.185000X-0.135000X0*%
%ADD23RoundRect,0.172500X0.262500X0.172500X-0.262500X0.172500X-0.262500X-0.172500X0.262500X-0.172500X0*%
%ADD24RoundRect,0.093750X0.093750X0.106250X-0.093750X0.106250X-0.093750X-0.106250X0.093750X-0.106250X0*%
%ADD25RoundRect,0.150000X0.650000X0.150000X-0.650000X0.150000X-0.650000X-0.150000X0.650000X-0.150000X0*%
%ADD26R,0.600000X0.200000*%
%ADD27R,0.200000X0.600000*%
%ADD28R,4.350000X4.350000*%
%ADD29RoundRect,0.135000X-0.135000X-0.185000X0.135000X-0.185000X0.135000X0.185000X-0.135000X0.185000X0*%
%ADD30R,0.400000X0.500000*%
%ADD31R,0.300000X0.500000*%
%ADD32RoundRect,0.147500X0.147500X0.172500X-0.147500X0.172500X-0.147500X-0.172500X0.147500X-0.172500X0*%
%ADD33RoundRect,0.140000X-0.140000X-0.170000X0.140000X-0.170000X0.140000X0.170000X-0.140000X0.170000X0*%
%ADD34R,0.900000X0.800000*%
%ADD35RoundRect,0.135000X0.540000X0.540000X-0.540000X0.540000X-0.540000X-0.540000X0.540000X-0.540000X0*%
%ADD36RoundRect,0.218750X-0.218750X-0.381250X0.218750X-0.381250X0.218750X0.381250X-0.218750X0.381250X0*%
%ADD37RoundRect,0.150000X0.825000X0.150000X-0.825000X0.150000X-0.825000X-0.150000X0.825000X-0.150000X0*%
%ADD38RoundRect,0.135000X0.135000X0.185000X-0.135000X0.185000X-0.135000X-0.185000X0.135000X-0.185000X0*%
%ADD39RoundRect,0.079500X-0.079500X-0.100500X0.079500X-0.100500X0.079500X0.100500X-0.079500X0.100500X0*%
G04 APERTURE END LIST*
D10*
X111724600Y-94394400D03*
X113624600Y-94394400D03*
X112674600Y-92194400D03*
X108107600Y-94386600D03*
X110007600Y-94386600D03*
X109057600Y-92186600D03*
D11*
X111590600Y-108249000D03*
X111590600Y-107499000D03*
X108940600Y-107499000D03*
X108940600Y-108249000D03*
D12*
X115443200Y-93856500D03*
X115443200Y-92681500D03*
D13*
X114071600Y-103634800D03*
X114071600Y-104594800D03*
D14*
X106245000Y-96250000D03*
X106245000Y-97050000D03*
D15*
X106245000Y-98250000D03*
X106245000Y-99250000D03*
X106245000Y-99750000D03*
X106245000Y-100750000D03*
D14*
X106245000Y-101950000D03*
X106245000Y-102750000D03*
X106245000Y-102750000D03*
X106245000Y-101950000D03*
D15*
X106245000Y-101250000D03*
X106245000Y-100250000D03*
X106245000Y-98750000D03*
X106245000Y-97750000D03*
D14*
X106245000Y-97050000D03*
X106245000Y-96250000D03*
D16*
X115290800Y-103670000D03*
X115290800Y-105220000D03*
D17*
X116738600Y-92657400D03*
X116738600Y-93677400D03*
X112522200Y-106551200D03*
X112522200Y-107571200D03*
D18*
X117780000Y-93647400D03*
X117780000Y-92687400D03*
D19*
X109880000Y-98880000D03*
X109880000Y-100000000D03*
X109880000Y-101120000D03*
X111000000Y-98880000D03*
X111000000Y-100000000D03*
X111000000Y-101120000D03*
X112120000Y-98880000D03*
X112120000Y-100000000D03*
X112120000Y-101120000D03*
D20*
X108550000Y-98500000D03*
X108550000Y-99000000D03*
X108550000Y-99500000D03*
X108550000Y-100000000D03*
X108550000Y-100500000D03*
X108550000Y-101000000D03*
X108550000Y-101500000D03*
D21*
X109500000Y-102450000D03*
X110000000Y-102450000D03*
X110500000Y-102450000D03*
X111000000Y-102450000D03*
X111500000Y-102450000D03*
X112000000Y-102450000D03*
X112500000Y-102450000D03*
D20*
X113450000Y-101500000D03*
X113450000Y-101000000D03*
X113450000Y-100500000D03*
X113450000Y-100000000D03*
X113450000Y-99500000D03*
X113450000Y-99000000D03*
X113450000Y-98500000D03*
D21*
X112500000Y-97550000D03*
X112000000Y-97550000D03*
X111500000Y-97550000D03*
X111000000Y-97550000D03*
X110500000Y-97550000D03*
X110000000Y-97550000D03*
X109500000Y-97550000D03*
D22*
X115570200Y-107571200D03*
X115570200Y-106551200D03*
D23*
X103325900Y-106826200D03*
X103325900Y-106026200D03*
D24*
X104213400Y-107076200D03*
X104213400Y-106426200D03*
X104213400Y-105776200D03*
X102438400Y-105776200D03*
X102438400Y-106426200D03*
X102438400Y-107076200D03*
D18*
X113538200Y-107541200D03*
X113538200Y-106581200D03*
D25*
X131971800Y-98425200D03*
X131971800Y-97155200D03*
X131971800Y-95885200D03*
X131971800Y-94615200D03*
X124771800Y-94615200D03*
X124771800Y-95885200D03*
X124771800Y-97155200D03*
X124771800Y-98425200D03*
D22*
X108305800Y-104624800D03*
X108305800Y-103604800D03*
D26*
X121349549Y-101499999D03*
X121349549Y-101099999D03*
X121349549Y-100699999D03*
X121349549Y-100299999D03*
X121349549Y-99899999D03*
X121349549Y-99499999D03*
X121349549Y-99099999D03*
X121349549Y-98699999D03*
X121349549Y-98299999D03*
X121349549Y-97899999D03*
X121349549Y-97499999D03*
X121349549Y-97099999D03*
D27*
X120599549Y-96349999D03*
X120199549Y-96349999D03*
X119799549Y-96349999D03*
X119399549Y-96349999D03*
X118999549Y-96349999D03*
X118599549Y-96349999D03*
X118199549Y-96349999D03*
X117799549Y-96349999D03*
X117399549Y-96349999D03*
X116999549Y-96349999D03*
X116599549Y-96349999D03*
X116199549Y-96349999D03*
D26*
X115449549Y-97099999D03*
X115449549Y-97499999D03*
X115449549Y-97899999D03*
X115449549Y-98299999D03*
X115449549Y-98699999D03*
X115449549Y-99099999D03*
X115449549Y-99499999D03*
X115449549Y-99899999D03*
X115449549Y-100299999D03*
X115449549Y-100699999D03*
X115449549Y-101099999D03*
X115449549Y-101499999D03*
D27*
X116199549Y-102249999D03*
X116599549Y-102249999D03*
X116999549Y-102249999D03*
X117399549Y-102249999D03*
X117799549Y-102249999D03*
X118199549Y-102249999D03*
X118599549Y-102249999D03*
X118999549Y-102249999D03*
X119399549Y-102249999D03*
X119799549Y-102249999D03*
X120199549Y-102249999D03*
X120599549Y-102249999D03*
D28*
X118399549Y-99299999D03*
D29*
X111732800Y-95783600D03*
X112752800Y-95783600D03*
D16*
X122834600Y-100444200D03*
X122834600Y-101994200D03*
D30*
X128587000Y-100906400D03*
D31*
X129087000Y-100906400D03*
X129587000Y-100906400D03*
D30*
X130087000Y-100906400D03*
X130087000Y-99906400D03*
D31*
X129587000Y-99906400D03*
X129087000Y-99906400D03*
D30*
X128587000Y-99906400D03*
D32*
X125148400Y-100025400D03*
X124178400Y-100025400D03*
D13*
X124155400Y-101272600D03*
X124155400Y-102232600D03*
D18*
X108305800Y-106525200D03*
X108305800Y-105565200D03*
D11*
X117059800Y-107473600D03*
X117059800Y-108223600D03*
X119709800Y-108223600D03*
X119709800Y-107473600D03*
D18*
X120243800Y-106042600D03*
X120243800Y-105082600D03*
D17*
X105283200Y-105535200D03*
X105283200Y-106555200D03*
D22*
X111252200Y-104624800D03*
X111252200Y-103604800D03*
D33*
X131270000Y-100203200D03*
X132230000Y-100203200D03*
X126266200Y-100025400D03*
X127226200Y-100025400D03*
D13*
X125146000Y-101272600D03*
X125146000Y-102232600D03*
D34*
X118725000Y-104810600D03*
X117075000Y-104810600D03*
X117075000Y-106060600D03*
X118725000Y-106060600D03*
D13*
X112192000Y-103609400D03*
X112192000Y-104569400D03*
D18*
X122860000Y-97051000D03*
X122860000Y-96091000D03*
D22*
X109296400Y-104624800D03*
X109296400Y-103604800D03*
D18*
X121183600Y-106042600D03*
X121183600Y-105082600D03*
D35*
X122597800Y-103547800D03*
X124747800Y-105697800D03*
X124747800Y-103547800D03*
X122597800Y-105697800D03*
D18*
X106299200Y-106499800D03*
X106299200Y-105539800D03*
D36*
X105490700Y-107899400D03*
X107615700Y-107899400D03*
D17*
X110287000Y-103604800D03*
X110287000Y-104624800D03*
D37*
X131775000Y-105670000D03*
X131775000Y-104400000D03*
X131775000Y-103130000D03*
X131775000Y-101860000D03*
X126825000Y-101860000D03*
X126825000Y-103130000D03*
X126825000Y-104400000D03*
X126825000Y-105670000D03*
D13*
X114554200Y-106581200D03*
X114554200Y-107541200D03*
D16*
X101016000Y-105625800D03*
X101016000Y-107175800D03*
D22*
X107289800Y-106555200D03*
X107289800Y-105535200D03*
D38*
X121287200Y-103429000D03*
X120267200Y-103429000D03*
D39*
X120610000Y-104267200D03*
X121300000Y-104267200D03*
D29*
X108100600Y-95758200D03*
X109120600Y-95758200D03*
D13*
X113081000Y-103609400D03*
X113081000Y-104569400D03*
M02*
