G04 #@! TF.GenerationSoftware,KiCad,Pcbnew,8.0.1*
G04 #@! TF.CreationDate,2024-12-04T18:09:28+05:30*
G04 #@! TF.ProjectId,V1,56312e6b-6963-4616-945f-706362585858,r0.1*
G04 #@! TF.SameCoordinates,Original*
G04 #@! TF.FileFunction,Copper,L4,Bot*
G04 #@! TF.FilePolarity,Positive*
%FSLAX46Y46*%
G04 Gerber Fmt 4.6, Leading zero omitted, Abs format (unit mm)*
G04 Created by KiCad (PCBNEW 8.0.1) date 2024-12-04 18:09:28*
%MOMM*%
%LPD*%
G01*
G04 APERTURE LIST*
%ADD10C,0.200000*%
G04 #@! TA.AperFunction,NonConductor*
%ADD11C,0.200000*%
G04 #@! TD*
G04 #@! TA.AperFunction,ComponentPad*
%ADD12C,1.500000*%
G04 #@! TD*
G04 #@! TA.AperFunction,SMDPad,CuDef*
%ADD13R,1.270000X1.524000*%
G04 #@! TD*
G04 #@! TA.AperFunction,SMDPad,CuDef*
%ADD14R,1.524000X1.270000*%
G04 #@! TD*
G04 #@! TA.AperFunction,ComponentPad*
%ADD15O,1.900000X1.000000*%
G04 #@! TD*
G04 #@! TA.AperFunction,ComponentPad*
%ADD16O,1.600000X1.000000*%
G04 #@! TD*
G04 #@! TA.AperFunction,HeatsinkPad*
%ADD17C,0.500000*%
G04 #@! TD*
G04 #@! TA.AperFunction,HeatsinkPad*
%ADD18R,0.500000X1.600000*%
G04 #@! TD*
G04 #@! TA.AperFunction,ViaPad*
%ADD19C,0.800000*%
G04 #@! TD*
G04 #@! TA.AperFunction,ViaPad*
%ADD20C,0.450000*%
G04 #@! TD*
G04 #@! TA.AperFunction,ViaPad*
%ADD21C,0.600000*%
G04 #@! TD*
G04 #@! TA.AperFunction,ViaPad*
%ADD22C,0.500000*%
G04 #@! TD*
G04 #@! TA.AperFunction,Conductor*
%ADD23C,0.200000*%
G04 #@! TD*
G04 APERTURE END LIST*
D10*
D11*
X104533333Y-92683409D02*
X104390476Y-92731028D01*
X104390476Y-92731028D02*
X104342857Y-92778647D01*
X104342857Y-92778647D02*
X104295238Y-92873885D01*
X104295238Y-92873885D02*
X104295238Y-93016742D01*
X104295238Y-93016742D02*
X104342857Y-93111980D01*
X104342857Y-93111980D02*
X104390476Y-93159600D01*
X104390476Y-93159600D02*
X104485714Y-93207219D01*
X104485714Y-93207219D02*
X104866666Y-93207219D01*
X104866666Y-93207219D02*
X104866666Y-92207219D01*
X104866666Y-92207219D02*
X104533333Y-92207219D01*
X104533333Y-92207219D02*
X104438095Y-92254838D01*
X104438095Y-92254838D02*
X104390476Y-92302457D01*
X104390476Y-92302457D02*
X104342857Y-92397695D01*
X104342857Y-92397695D02*
X104342857Y-92492933D01*
X104342857Y-92492933D02*
X104390476Y-92588171D01*
X104390476Y-92588171D02*
X104438095Y-92635790D01*
X104438095Y-92635790D02*
X104533333Y-92683409D01*
X104533333Y-92683409D02*
X104866666Y-92683409D01*
X103676190Y-92207219D02*
X103485714Y-92207219D01*
X103485714Y-92207219D02*
X103390476Y-92254838D01*
X103390476Y-92254838D02*
X103295238Y-92350076D01*
X103295238Y-92350076D02*
X103247619Y-92540552D01*
X103247619Y-92540552D02*
X103247619Y-92873885D01*
X103247619Y-92873885D02*
X103295238Y-93064361D01*
X103295238Y-93064361D02*
X103390476Y-93159600D01*
X103390476Y-93159600D02*
X103485714Y-93207219D01*
X103485714Y-93207219D02*
X103676190Y-93207219D01*
X103676190Y-93207219D02*
X103771428Y-93159600D01*
X103771428Y-93159600D02*
X103866666Y-93064361D01*
X103866666Y-93064361D02*
X103914285Y-92873885D01*
X103914285Y-92873885D02*
X103914285Y-92540552D01*
X103914285Y-92540552D02*
X103866666Y-92350076D01*
X103866666Y-92350076D02*
X103771428Y-92254838D01*
X103771428Y-92254838D02*
X103676190Y-92207219D01*
X102961904Y-92207219D02*
X102390476Y-92207219D01*
X102676190Y-93207219D02*
X102676190Y-92207219D01*
D12*
X134290000Y-100000000D03*
D13*
X134925000Y-100000000D03*
D12*
X135560000Y-100000000D03*
X134290000Y-102540000D03*
D13*
X134925000Y-102540000D03*
D12*
X135560000Y-102540000D03*
X129300000Y-107721500D03*
D14*
X129300000Y-108356500D03*
D12*
X129300000Y-108991500D03*
X129200000Y-92380000D03*
D14*
X129200000Y-91745000D03*
D12*
X129200000Y-91110000D03*
X124130000Y-92380000D03*
D14*
X124130000Y-91745000D03*
D12*
X124130000Y-91110000D03*
X121600000Y-92400000D03*
D14*
X121600000Y-91765000D03*
D12*
X121600000Y-91130000D03*
X126800000Y-107700000D03*
D14*
X126800000Y-108335000D03*
D12*
X126800000Y-108970000D03*
X134300000Y-92400000D03*
D14*
X134300000Y-91765000D03*
D12*
X134300000Y-91130000D03*
X131700000Y-92400000D03*
D14*
X131700000Y-91765000D03*
D12*
X131700000Y-91130000D03*
X134300000Y-107721500D03*
D14*
X134300000Y-108356500D03*
D12*
X134300000Y-108991500D03*
X131800000Y-107721500D03*
D14*
X131800000Y-108356500D03*
D12*
X131800000Y-108991500D03*
X134290000Y-97460000D03*
D13*
X134925000Y-97460000D03*
D12*
X135560000Y-97460000D03*
X134290000Y-94920000D03*
D13*
X134925000Y-94920000D03*
D12*
X135560000Y-94920000D03*
X124300000Y-107700000D03*
D14*
X124300000Y-108335000D03*
D12*
X124300000Y-108970000D03*
X121800000Y-107700000D03*
D14*
X121800000Y-108335000D03*
D12*
X121800000Y-108970000D03*
X126670000Y-92380000D03*
D14*
X126670000Y-91745000D03*
D12*
X126670000Y-91110000D03*
D15*
X105530000Y-95180000D03*
D16*
X101350000Y-95180000D03*
D15*
X105530000Y-103820000D03*
D16*
X101350000Y-103820000D03*
D17*
X103325900Y-106976200D03*
D18*
X103325900Y-106426200D03*
D17*
X103325900Y-105876200D03*
D19*
X106553200Y-107899400D03*
D20*
X119933597Y-104259968D03*
D21*
X116383000Y-106883400D03*
D19*
X116738600Y-94361200D03*
X108559800Y-102362200D03*
D20*
X118516600Y-103708400D03*
D19*
X112522200Y-108280400D03*
X118745200Y-93650000D03*
D21*
X115404775Y-102349175D03*
D19*
X128397200Y-105715000D03*
X129006800Y-98831600D03*
X121412200Y-102286000D03*
D21*
X117805400Y-94361200D03*
D19*
X126136600Y-98450600D03*
X110287000Y-106400800D03*
X112166600Y-105359400D03*
X116941800Y-99300000D03*
X111226800Y-105334000D03*
X110972800Y-101041400D03*
X118400000Y-99300000D03*
X117780000Y-91872000D03*
X114554200Y-108305800D03*
X111000000Y-100000000D03*
X127228800Y-98933200D03*
X130454600Y-94615200D03*
X102387600Y-107975600D03*
X119786600Y-99263400D03*
X118400000Y-97815600D03*
X123672800Y-105697800D03*
X109779000Y-107899400D03*
X107086600Y-95478800D03*
X104216400Y-107975600D03*
X116967200Y-97841000D03*
X120066000Y-106858000D03*
X103327400Y-107975600D03*
X119786600Y-97815600D03*
X116941800Y-100736600D03*
X132232600Y-101092200D03*
X122834600Y-95199400D03*
X119761200Y-100762000D03*
X109931400Y-100025400D03*
D22*
X117880000Y-106620000D03*
D19*
X111023600Y-98958600D03*
X111988800Y-100025400D03*
X113081000Y-105384800D03*
X118389600Y-100762000D03*
D22*
X107652412Y-100500000D03*
X107645400Y-98755400D03*
D19*
X107416800Y-97053600D03*
X107442200Y-101981200D03*
X101879600Y-105130800D03*
D22*
X128397200Y-104495800D03*
X126136600Y-97180600D03*
X113182600Y-97536200D03*
X130276800Y-103200400D03*
X113436600Y-96494800D03*
X129184600Y-95885200D03*
X128829000Y-102438400D03*
X119405600Y-95402600D03*
X130327600Y-105715000D03*
X133528000Y-98704600D03*
X117703800Y-107467600D03*
D20*
X123317200Y-98653802D03*
D22*
X109728200Y-92202200D03*
X128575000Y-101625600D03*
X123469600Y-101270000D03*
X122580600Y-104622800D03*
D20*
X116814800Y-103810000D03*
D22*
X110007600Y-95758200D03*
D20*
X117373600Y-104085598D03*
D22*
X110845800Y-95758200D03*
X126162000Y-95047000D03*
D20*
X114174537Y-99914012D03*
D22*
X130480000Y-97155200D03*
D20*
X114379060Y-100436167D03*
D22*
X130276800Y-104495800D03*
X110795000Y-107924800D03*
X117424400Y-95402600D03*
X113436600Y-92202200D03*
D20*
X122631400Y-99441200D03*
D22*
X133502600Y-96190000D03*
D20*
X122148800Y-97409200D03*
D22*
X127940000Y-93650000D03*
D20*
X122670072Y-98772765D03*
D22*
X132994600Y-93624600D03*
D20*
X122834600Y-97773600D03*
D22*
X130454600Y-93650000D03*
D20*
X122275800Y-101219200D03*
D22*
X125933400Y-100838200D03*
D20*
X114361273Y-99387834D03*
X126136600Y-95910600D03*
D22*
X128270200Y-103200400D03*
X127330400Y-95809000D03*
X130200600Y-101625600D03*
X130708600Y-98425200D03*
D20*
X114218422Y-98828070D03*
X117932400Y-103657631D03*
X116179800Y-103784600D03*
D22*
X125552400Y-106934200D03*
D20*
X116052800Y-103175000D03*
D22*
X123063200Y-106959600D03*
X114250000Y-102362200D03*
X114538801Y-101588801D03*
D20*
X114175000Y-101023607D03*
D23*
X117805400Y-94361200D02*
X118034000Y-94361200D01*
X121349025Y-102349175D02*
X121412200Y-102286000D01*
X107645400Y-100492988D02*
X107652412Y-100500000D01*
X107645400Y-98755400D02*
X107645400Y-100492988D01*
X107442200Y-101981200D02*
X107137400Y-101981200D01*
X107416800Y-97079000D02*
X107416800Y-97053600D01*
X127725000Y-103362307D02*
X128397200Y-104034507D01*
X128397200Y-104034507D02*
X128397200Y-104495800D01*
X126136600Y-97180600D02*
X127025600Y-97180600D01*
X127996400Y-98151400D02*
X127996400Y-100863600D01*
X127996400Y-100863600D02*
X127725000Y-101135000D01*
X127725000Y-101135000D02*
X127725000Y-103362307D01*
X127025600Y-97180600D02*
X127996400Y-98151400D01*
X125012000Y-94570654D02*
X125685654Y-93897000D01*
X124586600Y-95479400D02*
X124586600Y-95268571D01*
X129184600Y-97942600D02*
X129743400Y-98501400D01*
X122923922Y-96063000D02*
X124003000Y-96063000D01*
X125685654Y-93897000D02*
X127196400Y-93897000D01*
X125012000Y-94843171D02*
X125012000Y-94570654D01*
X127196400Y-93897000D02*
X129184600Y-95885200D01*
X124003000Y-96063000D02*
X124586600Y-95479400D01*
X121146475Y-96063000D02*
X121300275Y-95909200D01*
X129700600Y-101414400D02*
X129700600Y-102624200D01*
X121300275Y-95909200D02*
X122770122Y-95909200D01*
X129700600Y-102624200D02*
X130276800Y-103200400D01*
X122770122Y-95909200D02*
X122923922Y-96063000D01*
X129743400Y-98501400D02*
X129743400Y-101371600D01*
X113436600Y-96494800D02*
X113868400Y-96063000D01*
X129184600Y-95885200D02*
X129184600Y-97942600D01*
X113868400Y-96063000D02*
X121146475Y-96063000D01*
X124586600Y-95268571D02*
X125012000Y-94843171D01*
X129743400Y-101371600D02*
X129700600Y-101414400D01*
X129311600Y-102921000D02*
X129311600Y-105435600D01*
X128829000Y-102438400D02*
X129311600Y-102921000D01*
X129311600Y-105435600D02*
X129591000Y-105715000D01*
X129591000Y-105715000D02*
X130327600Y-105715000D01*
X120802600Y-105156200D02*
X122148800Y-103810000D01*
X117703800Y-107467600D02*
X120015200Y-105156200D01*
X122817797Y-99891200D02*
X123317200Y-99391797D01*
X123317200Y-99391797D02*
X123317200Y-98653802D01*
X121767800Y-101397000D02*
X121767800Y-100939800D01*
X122148800Y-101778000D02*
X121767800Y-101397000D01*
X122816400Y-99891200D02*
X122817797Y-99891200D01*
X122148800Y-103810000D02*
X122148800Y-101778000D01*
X121767800Y-100939800D02*
X122816400Y-99891200D01*
X120015200Y-105156200D02*
X120802600Y-105156200D01*
X123469600Y-101270000D02*
X122580600Y-102159000D01*
X122580600Y-102159000D02*
X122580600Y-104622800D01*
X114844785Y-99914012D02*
X115080400Y-99678397D01*
X114174537Y-99914012D02*
X114844785Y-99914012D01*
X121735200Y-96959200D02*
X122335197Y-96959200D01*
X122632797Y-97256800D02*
X124434800Y-97256800D01*
X125636600Y-95703493D02*
X125929493Y-95410600D01*
X126141626Y-95410600D02*
X126162000Y-95390226D01*
X115080400Y-99678397D02*
X115080400Y-98457800D01*
X124434800Y-97256800D02*
X125636600Y-96055000D01*
X116408400Y-97129800D02*
X121564600Y-97129800D01*
X115080400Y-98457800D02*
X116408400Y-97129800D01*
X122335197Y-96959200D02*
X122632797Y-97256800D01*
X125929493Y-95410600D02*
X126141626Y-95410600D01*
X121564600Y-97129800D02*
X121735200Y-96959200D01*
X125636600Y-96055000D02*
X125636600Y-95703493D01*
X126162000Y-95390226D02*
X126162000Y-95047000D01*
X131208600Y-98632307D02*
X130784800Y-99056107D01*
X130784800Y-103987800D02*
X130276800Y-104495800D01*
X131208600Y-97883800D02*
X131208600Y-98632307D01*
X130784800Y-99056107D02*
X130784800Y-103987800D01*
X130480000Y-97155200D02*
X131208600Y-97883800D01*
X113131800Y-102514600D02*
X113131800Y-99288800D01*
X110795000Y-107924800D02*
X111785600Y-106934200D01*
X115468600Y-104851400D02*
X113131800Y-102514600D01*
X114376400Y-106934200D02*
X115468600Y-105842000D01*
X112420600Y-98577600D02*
X112420600Y-96190000D01*
X113131800Y-99288800D02*
X112420600Y-98577600D01*
X112420600Y-96190000D02*
X113208000Y-95402600D01*
X115468600Y-105842000D02*
X115468600Y-104851400D01*
X113208000Y-95402600D02*
X117424400Y-95402600D01*
X111785600Y-106934200D02*
X114376400Y-106934200D01*
X122275800Y-101219200D02*
X122961600Y-100533400D01*
X125628600Y-100533400D02*
X125933400Y-100838200D01*
X122961600Y-100533400D02*
X125628600Y-100533400D01*
X121419625Y-96779800D02*
X116263425Y-96779800D01*
X114730400Y-99018707D02*
X114361273Y-99387834D01*
X122480172Y-96609200D02*
X121590225Y-96609200D01*
X126136600Y-95910600D02*
X126612000Y-95435200D01*
X125712000Y-95133119D02*
X125286600Y-95558519D01*
X125286600Y-95897000D02*
X124403800Y-96779800D01*
X126348397Y-94597000D02*
X125975603Y-94597000D01*
X125975603Y-94597000D02*
X125712000Y-94860603D01*
X126612000Y-95435200D02*
X126612000Y-94860603D01*
X126612000Y-94860603D02*
X126348397Y-94597000D01*
X122650772Y-96779800D02*
X122480172Y-96609200D01*
X128346400Y-101147093D02*
X128075000Y-101418493D01*
X125286600Y-95558519D02*
X125286600Y-95897000D01*
X126136600Y-95910600D02*
X126543000Y-95910600D01*
X116263425Y-96779800D02*
X114730400Y-98312826D01*
X128075000Y-103005200D02*
X128270200Y-103200400D01*
X114730400Y-98312826D02*
X114730400Y-99018707D01*
X125712000Y-94860603D02*
X125712000Y-95133119D01*
X124403800Y-96779800D02*
X122650772Y-96779800D01*
X128075000Y-101418493D02*
X128075000Y-103005200D01*
X128346400Y-97714000D02*
X128346400Y-101147093D01*
X121590225Y-96609200D02*
X121419625Y-96779800D01*
X126543000Y-95910600D02*
X128346400Y-97714000D01*
X124245800Y-96429800D02*
X124936600Y-95739000D01*
X121445250Y-96259200D02*
X122625147Y-96259200D01*
X114351000Y-98695492D02*
X114351000Y-98197250D01*
X122625147Y-96259200D02*
X122795747Y-96429800D01*
X125362000Y-94988145D02*
X125362000Y-94715628D01*
X130200600Y-101625600D02*
X130200600Y-98933200D01*
X127330400Y-95809000D02*
X127305000Y-95809000D01*
X127330400Y-95084028D02*
X127330400Y-95809000D01*
X130200600Y-98933200D02*
X130708600Y-98425200D01*
X125362000Y-94715628D02*
X125830628Y-94247000D01*
X116118450Y-96429800D02*
X121274650Y-96429800D01*
X125830628Y-94247000D02*
X126493372Y-94247000D01*
X114218422Y-98828070D02*
X114351000Y-98695492D01*
X126493372Y-94247000D02*
X127330400Y-95084028D01*
X124936600Y-95739000D02*
X124936600Y-95413545D01*
X114351000Y-98197250D02*
X116118450Y-96429800D01*
X122795747Y-96429800D02*
X124245800Y-96429800D01*
X121274650Y-96429800D02*
X121445250Y-96259200D01*
X124936600Y-95413545D02*
X125362000Y-94988145D01*
G04 #@! TA.AperFunction,Conductor*
G36*
X109385036Y-91620185D02*
G01*
X109430791Y-91672989D01*
X109440735Y-91742147D01*
X109411710Y-91805703D01*
X109399204Y-91818209D01*
X109397076Y-91820052D01*
X109302823Y-91928826D01*
X109302822Y-91928828D01*
X109243034Y-92059743D01*
X109222553Y-92202200D01*
X109243034Y-92344656D01*
X109279578Y-92424674D01*
X109302823Y-92475573D01*
X109397072Y-92584343D01*
X109518147Y-92662153D01*
X109518150Y-92662154D01*
X109518149Y-92662154D01*
X109656236Y-92702699D01*
X109656238Y-92702700D01*
X109656239Y-92702700D01*
X109800162Y-92702700D01*
X109800162Y-92702699D01*
X109938253Y-92662153D01*
X110059328Y-92584343D01*
X110153577Y-92475573D01*
X110213365Y-92344657D01*
X110233847Y-92202200D01*
X110213365Y-92059743D01*
X110153577Y-91928827D01*
X110059328Y-91820057D01*
X110059326Y-91820056D01*
X110059323Y-91820052D01*
X110057196Y-91818209D01*
X110055674Y-91815841D01*
X110053520Y-91813355D01*
X110053877Y-91813045D01*
X110019424Y-91759429D01*
X110019428Y-91689559D01*
X110057205Y-91630783D01*
X110120762Y-91601761D01*
X110138403Y-91600500D01*
X113026397Y-91600500D01*
X113093436Y-91620185D01*
X113139191Y-91672989D01*
X113149135Y-91742147D01*
X113120110Y-91805703D01*
X113107604Y-91818209D01*
X113105476Y-91820052D01*
X113011223Y-91928826D01*
X113011222Y-91928828D01*
X112951434Y-92059743D01*
X112930953Y-92202200D01*
X112951434Y-92344656D01*
X112987978Y-92424674D01*
X113011223Y-92475573D01*
X113105472Y-92584343D01*
X113226547Y-92662153D01*
X113226550Y-92662154D01*
X113226549Y-92662154D01*
X113364636Y-92702699D01*
X113364638Y-92702700D01*
X113364639Y-92702700D01*
X113508562Y-92702700D01*
X113508562Y-92702699D01*
X113646653Y-92662153D01*
X113767728Y-92584343D01*
X113861977Y-92475573D01*
X113921765Y-92344657D01*
X113942247Y-92202200D01*
X113921765Y-92059743D01*
X113861977Y-91928827D01*
X113767728Y-91820057D01*
X113767726Y-91820056D01*
X113767723Y-91820052D01*
X113765596Y-91818209D01*
X113764074Y-91815841D01*
X113761920Y-91813355D01*
X113762277Y-91813045D01*
X113727824Y-91759429D01*
X113727828Y-91689559D01*
X113765605Y-91630783D01*
X113829162Y-91601761D01*
X113846803Y-91600500D01*
X120463500Y-91600500D01*
X120530539Y-91620185D01*
X120576294Y-91672989D01*
X120587500Y-91724500D01*
X120587500Y-92424674D01*
X120600437Y-92489714D01*
X120604416Y-92509714D01*
X120603467Y-92509902D01*
X120606789Y-92523169D01*
X120613975Y-92596128D01*
X120613975Y-92596130D01*
X120613976Y-92596132D01*
X120634004Y-92662154D01*
X120671188Y-92784733D01*
X120764086Y-92958532D01*
X120764090Y-92958539D01*
X120889116Y-93110883D01*
X121041460Y-93235909D01*
X121041467Y-93235913D01*
X121215266Y-93328811D01*
X121215269Y-93328811D01*
X121215273Y-93328814D01*
X121403868Y-93386024D01*
X121600000Y-93405341D01*
X121796132Y-93386024D01*
X121984727Y-93328814D01*
X122013786Y-93313282D01*
X122158532Y-93235913D01*
X122158538Y-93235910D01*
X122310883Y-93110883D01*
X122435910Y-92958538D01*
X122528814Y-92784727D01*
X122586024Y-92596132D01*
X122593209Y-92523173D01*
X122596536Y-92509909D01*
X122595583Y-92509720D01*
X122612500Y-92424676D01*
X122612500Y-91724500D01*
X122632185Y-91657461D01*
X122684989Y-91611706D01*
X122736500Y-91600500D01*
X122993500Y-91600500D01*
X123060539Y-91620185D01*
X123106294Y-91672989D01*
X123117500Y-91724500D01*
X123117500Y-92404676D01*
X123134416Y-92489714D01*
X123133467Y-92489902D01*
X123136789Y-92503169D01*
X123143975Y-92576128D01*
X123143975Y-92576130D01*
X123143976Y-92576132D01*
X123170071Y-92662154D01*
X123201188Y-92764733D01*
X123294086Y-92938532D01*
X123294090Y-92938539D01*
X123419116Y-93090883D01*
X123571460Y-93215909D01*
X123571467Y-93215913D01*
X123745266Y-93308811D01*
X123745269Y-93308811D01*
X123745273Y-93308814D01*
X123933868Y-93366024D01*
X124130000Y-93385341D01*
X124326132Y-93366024D01*
X124514727Y-93308814D01*
X124688538Y-93215910D01*
X124840883Y-93090883D01*
X124965910Y-92938538D01*
X125058814Y-92764727D01*
X125116024Y-92576132D01*
X125123209Y-92503173D01*
X125126536Y-92489909D01*
X125125583Y-92489720D01*
X125142500Y-92404676D01*
X125142500Y-91724500D01*
X125162185Y-91657461D01*
X125214989Y-91611706D01*
X125266500Y-91600500D01*
X125533500Y-91600500D01*
X125600539Y-91620185D01*
X125646294Y-91672989D01*
X125657500Y-91724500D01*
X125657500Y-92404676D01*
X125674416Y-92489714D01*
X125673467Y-92489902D01*
X125676789Y-92503169D01*
X125683975Y-92576128D01*
X125683975Y-92576130D01*
X125683976Y-92576132D01*
X125710071Y-92662154D01*
X125741188Y-92764733D01*
X125834086Y-92938532D01*
X125834090Y-92938539D01*
X125959116Y-93090883D01*
X126111460Y-93215909D01*
X126111467Y-93215913D01*
X126290645Y-93311686D01*
X126289791Y-93313282D01*
X126337564Y-93351781D01*
X126359628Y-93418075D01*
X126342348Y-93485775D01*
X126291210Y-93533384D01*
X126235707Y-93546500D01*
X125639510Y-93546500D01*
X125550366Y-93570386D01*
X125550363Y-93570387D01*
X125470445Y-93616527D01*
X125470440Y-93616531D01*
X124731531Y-94355440D01*
X124731525Y-94355448D01*
X124685505Y-94435159D01*
X124685396Y-94435349D01*
X124685386Y-94435365D01*
X124661500Y-94524510D01*
X124661500Y-94646627D01*
X124641815Y-94713666D01*
X124625181Y-94734308D01*
X124306132Y-95053356D01*
X124306128Y-95053362D01*
X124269888Y-95116132D01*
X124259987Y-95133280D01*
X124259986Y-95133283D01*
X124236100Y-95222427D01*
X124236100Y-95282856D01*
X124216415Y-95349895D01*
X124199781Y-95370537D01*
X123894137Y-95676181D01*
X123832814Y-95709666D01*
X123806456Y-95712500D01*
X123120466Y-95712500D01*
X123053427Y-95692815D01*
X123032785Y-95676181D01*
X122985335Y-95628731D01*
X122985330Y-95628727D01*
X122905412Y-95582587D01*
X122905411Y-95582586D01*
X122905410Y-95582586D01*
X122816266Y-95558700D01*
X121254131Y-95558700D01*
X121164987Y-95582586D01*
X121164984Y-95582587D01*
X121085066Y-95628727D01*
X121085061Y-95628731D01*
X121037612Y-95676181D01*
X120976289Y-95709666D01*
X120949931Y-95712500D01*
X120007244Y-95712500D01*
X119940205Y-95692815D01*
X119894450Y-95640011D01*
X119884506Y-95570853D01*
X119888267Y-95553565D01*
X119890762Y-95545063D01*
X119890765Y-95545057D01*
X119911247Y-95402600D01*
X119890765Y-95260143D01*
X119830977Y-95129227D01*
X119736728Y-95020457D01*
X119615653Y-94942647D01*
X119615651Y-94942646D01*
X119615649Y-94942645D01*
X119615650Y-94942645D01*
X119477563Y-94902100D01*
X119477561Y-94902100D01*
X119333639Y-94902100D01*
X119333636Y-94902100D01*
X119195549Y-94942645D01*
X119074473Y-95020456D01*
X118980223Y-95129226D01*
X118980222Y-95129228D01*
X118920434Y-95260143D01*
X118899953Y-95402600D01*
X118920435Y-95545057D01*
X118922933Y-95553565D01*
X118922933Y-95623434D01*
X118885159Y-95682213D01*
X118821603Y-95711238D01*
X118803956Y-95712500D01*
X118026044Y-95712500D01*
X117959005Y-95692815D01*
X117913250Y-95640011D01*
X117903306Y-95570853D01*
X117907067Y-95553565D01*
X117909562Y-95545063D01*
X117909565Y-95545057D01*
X117930047Y-95402600D01*
X117909565Y-95260143D01*
X117849777Y-95129227D01*
X117830577Y-95107068D01*
X117801552Y-95043516D01*
X117811495Y-94974357D01*
X117857249Y-94921552D01*
X117908103Y-94902928D01*
X117949109Y-94897530D01*
X118083025Y-94842061D01*
X118198021Y-94753821D01*
X118286261Y-94638825D01*
X118303100Y-94598168D01*
X118311321Y-94583981D01*
X118310404Y-94583452D01*
X118314478Y-94576397D01*
X118360614Y-94496488D01*
X118384500Y-94407344D01*
X118384500Y-94389338D01*
X118404185Y-94322299D01*
X118456989Y-94276544D01*
X118526147Y-94266600D01*
X118538163Y-94268938D01*
X118666215Y-94300500D01*
X118824185Y-94300500D01*
X118977565Y-94262696D01*
X119047650Y-94225912D01*
X119117440Y-94189283D01*
X119235683Y-94084530D01*
X119325420Y-93954523D01*
X119381437Y-93806818D01*
X119400478Y-93650000D01*
X119381437Y-93493182D01*
X119377250Y-93482143D01*
X119337234Y-93376628D01*
X119325420Y-93345477D01*
X119235683Y-93215470D01*
X119117440Y-93110717D01*
X119117438Y-93110716D01*
X119117437Y-93110715D01*
X118977565Y-93037303D01*
X118824186Y-92999500D01*
X118824185Y-92999500D01*
X118666215Y-92999500D01*
X118666214Y-92999500D01*
X118512834Y-93037303D01*
X118372962Y-93110715D01*
X118254716Y-93215471D01*
X118164981Y-93345475D01*
X118164980Y-93345476D01*
X118108962Y-93493181D01*
X118089922Y-93649999D01*
X118089922Y-93650001D01*
X118094510Y-93687791D01*
X118083049Y-93756714D01*
X118036145Y-93808500D01*
X117968689Y-93826706D01*
X117955229Y-93825675D01*
X117805402Y-93805950D01*
X117805399Y-93805950D01*
X117661691Y-93824870D01*
X117661687Y-93824871D01*
X117527777Y-93880337D01*
X117504794Y-93897973D01*
X117415056Y-93966831D01*
X117349889Y-93992025D01*
X117281444Y-93977987D01*
X117237521Y-93938895D01*
X117229083Y-93926670D01*
X117110840Y-93821917D01*
X117110838Y-93821916D01*
X117110837Y-93821915D01*
X116970965Y-93748503D01*
X116817586Y-93710700D01*
X116817585Y-93710700D01*
X116659615Y-93710700D01*
X116659614Y-93710700D01*
X116506234Y-93748503D01*
X116366362Y-93821915D01*
X116362118Y-93825675D01*
X116250663Y-93924415D01*
X116248116Y-93926671D01*
X116158381Y-94056675D01*
X116158380Y-94056676D01*
X116102362Y-94204381D01*
X116083322Y-94361199D01*
X116083322Y-94361200D01*
X116102362Y-94518018D01*
X116158380Y-94665723D01*
X116158381Y-94665724D01*
X116248116Y-94795729D01*
X116292765Y-94835284D01*
X116329892Y-94894474D01*
X116329124Y-94964339D01*
X116290707Y-95022699D01*
X116226836Y-95051024D01*
X116210538Y-95052100D01*
X113161856Y-95052100D01*
X113073359Y-95075811D01*
X113073360Y-95075812D01*
X113072713Y-95075985D01*
X113072711Y-95075986D01*
X112992791Y-95122127D01*
X112992786Y-95122131D01*
X112140129Y-95974788D01*
X112118323Y-96012558D01*
X112099889Y-96044488D01*
X112093986Y-96054712D01*
X112070100Y-96143856D01*
X112070100Y-98623744D01*
X112084759Y-98678452D01*
X112093985Y-98712886D01*
X112140127Y-98792808D01*
X112140131Y-98792813D01*
X112744981Y-99397663D01*
X112778466Y-99458986D01*
X112781300Y-99485344D01*
X112781300Y-102560744D01*
X112799000Y-102626800D01*
X112800313Y-102631700D01*
X112805186Y-102649889D01*
X112851327Y-102729808D01*
X112851329Y-102729811D01*
X112851330Y-102729812D01*
X113981014Y-103859496D01*
X115081781Y-104960262D01*
X115115266Y-105021585D01*
X115118100Y-105047943D01*
X115118100Y-105645456D01*
X115098415Y-105712495D01*
X115081781Y-105733137D01*
X114267537Y-106547381D01*
X114206214Y-106580866D01*
X114179856Y-106583700D01*
X111739456Y-106583700D01*
X111657070Y-106605775D01*
X111657069Y-106605775D01*
X111650314Y-106607584D01*
X111650313Y-106607585D01*
X111570391Y-106653727D01*
X111570386Y-106653731D01*
X110836137Y-107387981D01*
X110774814Y-107421466D01*
X110748456Y-107424300D01*
X110723036Y-107424300D01*
X110584949Y-107464845D01*
X110463873Y-107542656D01*
X110369623Y-107651426D01*
X110369622Y-107651428D01*
X110309834Y-107782343D01*
X110289353Y-107924800D01*
X110309834Y-108067256D01*
X110369622Y-108198171D01*
X110374418Y-108205634D01*
X110372116Y-108207113D01*
X110395288Y-108257843D01*
X110385350Y-108327003D01*
X110339600Y-108379810D01*
X110272562Y-108399500D01*
X107234685Y-108399500D01*
X107167646Y-108379815D01*
X107121891Y-108327011D01*
X107111947Y-108257853D01*
X107130384Y-108210804D01*
X107129933Y-108210567D01*
X107132083Y-108206468D01*
X107132637Y-108205057D01*
X107133420Y-108203923D01*
X107189437Y-108056218D01*
X107208478Y-107899400D01*
X107201979Y-107845871D01*
X107189437Y-107742581D01*
X107163928Y-107675321D01*
X107133420Y-107594877D01*
X107043683Y-107464870D01*
X106925440Y-107360117D01*
X106925438Y-107360116D01*
X106925437Y-107360115D01*
X106785565Y-107286703D01*
X106632186Y-107248900D01*
X106632185Y-107248900D01*
X106474215Y-107248900D01*
X106474214Y-107248900D01*
X106320834Y-107286703D01*
X106180962Y-107360115D01*
X106108512Y-107424300D01*
X106068103Y-107460099D01*
X106062716Y-107464871D01*
X105972981Y-107594875D01*
X105972980Y-107594876D01*
X105916962Y-107742581D01*
X105897922Y-107899399D01*
X105897922Y-107899400D01*
X105916962Y-108056218D01*
X105972980Y-108203923D01*
X105973763Y-108205057D01*
X105974080Y-108206019D01*
X105976467Y-108210567D01*
X105975711Y-108210963D01*
X105995648Y-108271411D01*
X105978184Y-108339063D01*
X105926918Y-108386535D01*
X105871715Y-108399500D01*
X101306092Y-108399500D01*
X101293938Y-108398903D01*
X101285267Y-108398049D01*
X101260549Y-108395614D01*
X101156180Y-108385335D01*
X101132340Y-108380593D01*
X101005728Y-108342186D01*
X100983271Y-108332883D01*
X100866593Y-108270517D01*
X100846381Y-108257012D01*
X100744108Y-108173079D01*
X100726920Y-108155891D01*
X100654180Y-108067257D01*
X100642986Y-108053616D01*
X100629482Y-108033406D01*
X100598732Y-107975877D01*
X100567114Y-107916725D01*
X100557815Y-107894277D01*
X100519404Y-107767652D01*
X100514665Y-107743824D01*
X100501661Y-107611784D01*
X100501097Y-107606060D01*
X100500500Y-107593907D01*
X100500500Y-106400800D01*
X109631722Y-106400800D01*
X109650762Y-106557618D01*
X109689905Y-106660827D01*
X109706780Y-106705323D01*
X109796517Y-106835330D01*
X109914760Y-106940083D01*
X109914762Y-106940084D01*
X110054634Y-107013496D01*
X110208014Y-107051300D01*
X110208015Y-107051300D01*
X110365985Y-107051300D01*
X110519365Y-107013496D01*
X110530513Y-107007645D01*
X110659240Y-106940083D01*
X110777483Y-106835330D01*
X110867220Y-106705323D01*
X110923237Y-106557618D01*
X110942278Y-106400800D01*
X110923237Y-106243982D01*
X110867220Y-106096277D01*
X110777483Y-105966270D01*
X110659240Y-105861517D01*
X110659238Y-105861516D01*
X110659237Y-105861515D01*
X110519365Y-105788103D01*
X110365986Y-105750300D01*
X110365985Y-105750300D01*
X110208015Y-105750300D01*
X110208014Y-105750300D01*
X110054634Y-105788103D01*
X109914762Y-105861515D01*
X109914760Y-105861517D01*
X109814543Y-105950301D01*
X109796516Y-105966271D01*
X109706781Y-106096275D01*
X109706780Y-106096276D01*
X109650762Y-106243981D01*
X109631722Y-106400799D01*
X109631722Y-106400800D01*
X100500500Y-106400800D01*
X100500500Y-104526706D01*
X100520185Y-104459667D01*
X100572989Y-104413912D01*
X100642147Y-104403968D01*
X100693391Y-104423604D01*
X100718420Y-104440328D01*
X100718433Y-104440335D01*
X100845813Y-104493097D01*
X100845823Y-104493100D01*
X100981053Y-104520000D01*
X101100000Y-104520000D01*
X101100000Y-104120000D01*
X101600000Y-104120000D01*
X101600000Y-104467935D01*
X101580315Y-104534974D01*
X101533626Y-104577731D01*
X101507362Y-104591515D01*
X101389116Y-104696271D01*
X101299381Y-104826275D01*
X101299380Y-104826276D01*
X101243362Y-104973981D01*
X101224322Y-105130799D01*
X101224322Y-105130800D01*
X101243362Y-105287618D01*
X101272041Y-105363237D01*
X101299380Y-105435323D01*
X101389117Y-105565330D01*
X101507360Y-105670083D01*
X101507362Y-105670084D01*
X101647234Y-105743496D01*
X101800614Y-105781300D01*
X101800615Y-105781300D01*
X101958585Y-105781300D01*
X102111965Y-105743496D01*
X102131702Y-105733137D01*
X102251840Y-105670083D01*
X102370083Y-105565330D01*
X102459820Y-105435323D01*
X102515837Y-105287618D01*
X102534878Y-105130800D01*
X102524818Y-105047943D01*
X102515837Y-104973981D01*
X102481385Y-104883139D01*
X102459820Y-104826277D01*
X102370083Y-104696270D01*
X102281988Y-104618225D01*
X102251837Y-104591514D01*
X102149617Y-104537865D01*
X102099404Y-104489280D01*
X102083430Y-104421261D01*
X102106765Y-104355404D01*
X102119562Y-104340387D01*
X102193725Y-104266224D01*
X102270332Y-104151573D01*
X102304121Y-104070000D01*
X104425879Y-104070000D01*
X104459667Y-104151573D01*
X104536275Y-104266226D01*
X104633773Y-104363724D01*
X104748420Y-104440328D01*
X104748433Y-104440335D01*
X104875813Y-104493097D01*
X104875823Y-104493100D01*
X105011053Y-104520000D01*
X105280000Y-104520000D01*
X105280000Y-104120000D01*
X105780000Y-104120000D01*
X105780000Y-104520000D01*
X106048946Y-104520000D01*
X106184176Y-104493100D01*
X106184186Y-104493097D01*
X106311566Y-104440335D01*
X106311579Y-104440328D01*
X106426226Y-104363724D01*
X106523724Y-104266226D01*
X106600332Y-104151573D01*
X106634121Y-104070000D01*
X106146988Y-104070000D01*
X106164205Y-104060060D01*
X106220060Y-104004205D01*
X106259556Y-103935796D01*
X106280000Y-103859496D01*
X106280000Y-103780504D01*
X106259556Y-103704204D01*
X106220060Y-103635795D01*
X106164205Y-103579940D01*
X106146988Y-103570000D01*
X106634121Y-103570000D01*
X106634120Y-103569999D01*
X106600332Y-103488426D01*
X106523724Y-103373773D01*
X106426226Y-103276275D01*
X106311579Y-103199671D01*
X106311566Y-103199664D01*
X106184186Y-103146902D01*
X106184176Y-103146899D01*
X106048946Y-103120000D01*
X105780000Y-103120000D01*
X105780000Y-103520000D01*
X105280000Y-103520000D01*
X105280000Y-103120000D01*
X105011054Y-103120000D01*
X104875823Y-103146899D01*
X104875813Y-103146902D01*
X104748433Y-103199664D01*
X104748420Y-103199671D01*
X104633773Y-103276275D01*
X104536275Y-103373773D01*
X104459667Y-103488426D01*
X104425879Y-103569999D01*
X104425879Y-103570000D01*
X104913012Y-103570000D01*
X104895795Y-103579940D01*
X104839940Y-103635795D01*
X104800444Y-103704204D01*
X104780000Y-103780504D01*
X104780000Y-103859496D01*
X104800444Y-103935796D01*
X104839940Y-104004205D01*
X104895795Y-104060060D01*
X104913012Y-104070000D01*
X104425879Y-104070000D01*
X102304121Y-104070000D01*
X101816988Y-104070000D01*
X101834205Y-104060060D01*
X101890060Y-104004205D01*
X101929556Y-103935796D01*
X101950000Y-103859496D01*
X101950000Y-103780504D01*
X101929556Y-103704204D01*
X101890060Y-103635795D01*
X101834205Y-103579940D01*
X101816988Y-103570000D01*
X102304121Y-103570000D01*
X102304120Y-103569999D01*
X102270332Y-103488426D01*
X102193724Y-103373773D01*
X102096226Y-103276275D01*
X101981579Y-103199671D01*
X101981566Y-103199664D01*
X101854186Y-103146902D01*
X101854176Y-103146899D01*
X101718946Y-103120000D01*
X101600000Y-103120000D01*
X101600000Y-103520000D01*
X101100000Y-103520000D01*
X101100000Y-103120000D01*
X100981054Y-103120000D01*
X100845823Y-103146899D01*
X100845813Y-103146902D01*
X100718433Y-103199664D01*
X100718424Y-103199669D01*
X100693389Y-103216397D01*
X100626711Y-103237273D01*
X100559331Y-103218787D01*
X100512642Y-103166807D01*
X100500500Y-103113293D01*
X100500500Y-102446018D01*
X104574500Y-102446018D01*
X104603497Y-102554237D01*
X104659515Y-102651263D01*
X104738737Y-102730485D01*
X104835763Y-102786503D01*
X104943982Y-102815500D01*
X104943984Y-102815500D01*
X105056016Y-102815500D01*
X105056018Y-102815500D01*
X105164237Y-102786503D01*
X105261263Y-102730485D01*
X105340485Y-102651263D01*
X105396503Y-102554237D01*
X105425500Y-102446018D01*
X105425500Y-102333982D01*
X105396503Y-102225763D01*
X105340485Y-102128737D01*
X105261263Y-102049515D01*
X105222870Y-102027349D01*
X106786900Y-102027349D01*
X106794918Y-102057271D01*
X106798239Y-102074414D01*
X106805962Y-102138017D01*
X106805963Y-102138021D01*
X106861980Y-102285723D01*
X106951717Y-102415730D01*
X107069960Y-102520483D01*
X107069962Y-102520484D01*
X107209834Y-102593896D01*
X107363214Y-102631700D01*
X107363215Y-102631700D01*
X107521185Y-102631700D01*
X107674565Y-102593896D01*
X107781976Y-102537522D01*
X107850484Y-102523796D01*
X107915537Y-102549288D01*
X107955543Y-102603346D01*
X107975729Y-102656569D01*
X107979580Y-102666723D01*
X108069317Y-102796730D01*
X108187560Y-102901483D01*
X108187562Y-102901484D01*
X108327434Y-102974896D01*
X108480814Y-103012700D01*
X108480815Y-103012700D01*
X108638785Y-103012700D01*
X108792165Y-102974896D01*
X108829675Y-102955209D01*
X108932040Y-102901483D01*
X109050283Y-102796730D01*
X109140020Y-102666723D01*
X109196037Y-102519018D01*
X109215078Y-102362200D01*
X109213497Y-102349175D01*
X109196037Y-102205381D01*
X109167138Y-102129181D01*
X109140020Y-102057677D01*
X109050283Y-101927670D01*
X108932040Y-101822917D01*
X108932038Y-101822916D01*
X108932037Y-101822915D01*
X108792165Y-101749503D01*
X108638786Y-101711700D01*
X108638785Y-101711700D01*
X108480815Y-101711700D01*
X108480814Y-101711700D01*
X108327434Y-101749503D01*
X108220023Y-101805878D01*
X108151515Y-101819604D01*
X108086461Y-101794111D01*
X108046455Y-101740053D01*
X108022420Y-101676677D01*
X107932683Y-101546670D01*
X107814440Y-101441917D01*
X107814438Y-101441916D01*
X107814437Y-101441915D01*
X107674565Y-101368503D01*
X107521186Y-101330700D01*
X107521185Y-101330700D01*
X107363215Y-101330700D01*
X107363214Y-101330700D01*
X107209834Y-101368503D01*
X107069962Y-101441915D01*
X107069960Y-101441917D01*
X106954263Y-101544415D01*
X106951716Y-101546671D01*
X106861981Y-101676675D01*
X106861980Y-101676676D01*
X106805962Y-101824381D01*
X106798240Y-101887978D01*
X106794920Y-101905119D01*
X106786900Y-101935051D01*
X106786900Y-102027349D01*
X105222870Y-102027349D01*
X105164237Y-101993497D01*
X105056018Y-101964500D01*
X104943982Y-101964500D01*
X104835763Y-101993497D01*
X104835760Y-101993498D01*
X104738740Y-102049513D01*
X104738734Y-102049517D01*
X104659517Y-102128734D01*
X104659513Y-102128740D01*
X104603498Y-102225760D01*
X104603497Y-102225763D01*
X104574500Y-102333982D01*
X104574500Y-102446018D01*
X100500500Y-102446018D01*
X100500500Y-98755400D01*
X107139753Y-98755400D01*
X107160234Y-98897856D01*
X107195654Y-98975413D01*
X107220023Y-99028773D01*
X107264613Y-99080233D01*
X107293638Y-99143788D01*
X107294900Y-99161435D01*
X107294900Y-100102055D01*
X107275215Y-100169094D01*
X107264614Y-100183256D01*
X107227037Y-100226622D01*
X107227035Y-100226627D01*
X107167246Y-100357543D01*
X107146765Y-100500000D01*
X107167246Y-100642456D01*
X107204754Y-100724586D01*
X107227035Y-100773373D01*
X107321284Y-100882143D01*
X107442359Y-100959953D01*
X107442362Y-100959954D01*
X107442361Y-100959954D01*
X107512871Y-100980657D01*
X107577767Y-100999712D01*
X107580448Y-101000499D01*
X107580450Y-101000500D01*
X107580451Y-101000500D01*
X107724374Y-101000500D01*
X107724374Y-101000499D01*
X107862465Y-100959953D01*
X107983540Y-100882143D01*
X108077789Y-100773373D01*
X108137577Y-100642457D01*
X108158059Y-100500000D01*
X108137577Y-100357543D01*
X108077789Y-100226627D01*
X108026186Y-100167073D01*
X107997162Y-100103519D01*
X107995900Y-100085872D01*
X107995900Y-99161435D01*
X108015585Y-99094396D01*
X108026182Y-99080237D01*
X108070777Y-99028773D01*
X108130565Y-98897857D01*
X108151047Y-98755400D01*
X108130565Y-98612943D01*
X108070777Y-98482027D01*
X107976528Y-98373257D01*
X107855453Y-98295447D01*
X107855451Y-98295446D01*
X107855449Y-98295445D01*
X107855450Y-98295445D01*
X107717363Y-98254900D01*
X107717361Y-98254900D01*
X107573439Y-98254900D01*
X107573436Y-98254900D01*
X107435349Y-98295445D01*
X107314273Y-98373256D01*
X107220023Y-98482026D01*
X107220022Y-98482028D01*
X107160234Y-98612943D01*
X107139753Y-98755400D01*
X100500500Y-98755400D01*
X100500500Y-97053600D01*
X106761522Y-97053600D01*
X106780562Y-97210418D01*
X106813648Y-97297656D01*
X106836580Y-97358123D01*
X106926317Y-97488130D01*
X107044560Y-97592883D01*
X107044562Y-97592884D01*
X107184434Y-97666296D01*
X107337814Y-97704100D01*
X107337815Y-97704100D01*
X107495785Y-97704100D01*
X107649165Y-97666296D01*
X107662592Y-97659249D01*
X107789040Y-97592883D01*
X107907283Y-97488130D01*
X107997020Y-97358123D01*
X108053037Y-97210418D01*
X108072078Y-97053600D01*
X108070354Y-97039397D01*
X108053037Y-96896781D01*
X108010852Y-96785550D01*
X107997020Y-96749077D01*
X107907283Y-96619070D01*
X107789040Y-96514317D01*
X107789038Y-96514316D01*
X107789037Y-96514315D01*
X107649165Y-96440903D01*
X107495786Y-96403100D01*
X107495785Y-96403100D01*
X107337815Y-96403100D01*
X107337814Y-96403100D01*
X107184434Y-96440903D01*
X107044562Y-96514315D01*
X106926316Y-96619071D01*
X106836581Y-96749075D01*
X106836580Y-96749076D01*
X106780562Y-96896781D01*
X106761522Y-97053599D01*
X106761522Y-97053600D01*
X100500500Y-97053600D01*
X100500500Y-96666018D01*
X104574500Y-96666018D01*
X104596756Y-96749077D01*
X104603497Y-96774236D01*
X104603498Y-96774239D01*
X104617479Y-96798454D01*
X104659515Y-96871263D01*
X104738737Y-96950485D01*
X104835763Y-97006503D01*
X104943982Y-97035500D01*
X104943984Y-97035500D01*
X105056016Y-97035500D01*
X105056018Y-97035500D01*
X105164237Y-97006503D01*
X105261263Y-96950485D01*
X105340485Y-96871263D01*
X105396503Y-96774237D01*
X105425500Y-96666018D01*
X105425500Y-96553982D01*
X105396503Y-96445763D01*
X105340485Y-96348737D01*
X105261263Y-96269515D01*
X105172303Y-96218154D01*
X105164239Y-96213498D01*
X105164238Y-96213497D01*
X105164237Y-96213497D01*
X105056018Y-96184500D01*
X104943982Y-96184500D01*
X104835763Y-96213497D01*
X104835760Y-96213498D01*
X104738740Y-96269513D01*
X104738734Y-96269517D01*
X104659517Y-96348734D01*
X104659513Y-96348740D01*
X104603498Y-96445760D01*
X104603497Y-96445763D01*
X104574500Y-96553982D01*
X104574500Y-96666018D01*
X100500500Y-96666018D01*
X100500500Y-95886706D01*
X100520185Y-95819667D01*
X100572989Y-95773912D01*
X100642147Y-95763968D01*
X100693391Y-95783604D01*
X100718420Y-95800328D01*
X100718433Y-95800335D01*
X100845813Y-95853097D01*
X100845823Y-95853100D01*
X100981053Y-95880000D01*
X101100000Y-95880000D01*
X101100000Y-95480000D01*
X101600000Y-95480000D01*
X101600000Y-95880000D01*
X101718946Y-95880000D01*
X101854176Y-95853100D01*
X101854186Y-95853097D01*
X101981566Y-95800335D01*
X101981579Y-95800328D01*
X102096226Y-95723724D01*
X102193724Y-95626226D01*
X102270332Y-95511573D01*
X102304121Y-95430000D01*
X104425879Y-95430000D01*
X104459667Y-95511573D01*
X104536275Y-95626226D01*
X104633773Y-95723724D01*
X104748420Y-95800328D01*
X104748433Y-95800335D01*
X104875813Y-95853097D01*
X104875823Y-95853100D01*
X105011053Y-95880000D01*
X105280000Y-95880000D01*
X105280000Y-95480000D01*
X105780000Y-95480000D01*
X105780000Y-95880000D01*
X106048946Y-95880000D01*
X106184176Y-95853100D01*
X106184186Y-95853097D01*
X106311566Y-95800335D01*
X106311579Y-95800328D01*
X106374629Y-95758200D01*
X109501953Y-95758200D01*
X109522434Y-95900656D01*
X109545967Y-95952185D01*
X109582223Y-96031573D01*
X109676472Y-96140343D01*
X109797547Y-96218153D01*
X109797550Y-96218154D01*
X109797549Y-96218154D01*
X109935636Y-96258699D01*
X109935638Y-96258700D01*
X109935639Y-96258700D01*
X110079562Y-96258700D01*
X110079562Y-96258699D01*
X110217653Y-96218153D01*
X110338728Y-96140343D01*
X110338734Y-96140335D01*
X110345428Y-96134537D01*
X110347944Y-96137441D01*
X110391252Y-96109345D01*
X110461121Y-96109043D01*
X110505553Y-96137327D01*
X110507972Y-96134537D01*
X110514668Y-96140338D01*
X110514672Y-96140343D01*
X110635747Y-96218153D01*
X110635750Y-96218154D01*
X110635749Y-96218154D01*
X110773836Y-96258699D01*
X110773838Y-96258700D01*
X110773839Y-96258700D01*
X110917762Y-96258700D01*
X110917762Y-96258699D01*
X111055853Y-96218153D01*
X111176928Y-96140343D01*
X111271177Y-96031573D01*
X111330965Y-95900657D01*
X111351447Y-95758200D01*
X111330965Y-95615743D01*
X111271177Y-95484827D01*
X111176928Y-95376057D01*
X111055853Y-95298247D01*
X111055851Y-95298246D01*
X111055849Y-95298245D01*
X111055850Y-95298245D01*
X110917763Y-95257700D01*
X110917761Y-95257700D01*
X110773839Y-95257700D01*
X110773836Y-95257700D01*
X110635749Y-95298245D01*
X110514672Y-95376057D01*
X110507972Y-95381863D01*
X110505526Y-95379041D01*
X110461389Y-95407278D01*
X110391519Y-95407134D01*
X110347849Y-95379068D01*
X110345428Y-95381863D01*
X110338731Y-95376060D01*
X110338728Y-95376057D01*
X110217653Y-95298247D01*
X110217651Y-95298246D01*
X110217649Y-95298245D01*
X110217650Y-95298245D01*
X110079563Y-95257700D01*
X110079561Y-95257700D01*
X109935639Y-95257700D01*
X109935636Y-95257700D01*
X109797549Y-95298245D01*
X109676473Y-95376056D01*
X109582223Y-95484826D01*
X109582222Y-95484828D01*
X109522434Y-95615743D01*
X109501953Y-95758200D01*
X106374629Y-95758200D01*
X106426226Y-95723724D01*
X106523724Y-95626226D01*
X106600332Y-95511573D01*
X106634121Y-95430000D01*
X106146988Y-95430000D01*
X106164205Y-95420060D01*
X106220060Y-95364205D01*
X106259556Y-95295796D01*
X106280000Y-95219496D01*
X106280000Y-95140504D01*
X106259556Y-95064204D01*
X106220060Y-94995795D01*
X106164205Y-94939940D01*
X106146988Y-94930000D01*
X106634121Y-94930000D01*
X106634120Y-94929999D01*
X106600332Y-94848426D01*
X106523724Y-94733773D01*
X106426226Y-94636275D01*
X106311579Y-94559671D01*
X106311566Y-94559664D01*
X106184186Y-94506902D01*
X106184176Y-94506899D01*
X106048946Y-94480000D01*
X105780000Y-94480000D01*
X105780000Y-94880000D01*
X105280000Y-94880000D01*
X105280000Y-94480000D01*
X105011054Y-94480000D01*
X104875823Y-94506899D01*
X104875813Y-94506902D01*
X104748433Y-94559664D01*
X104748420Y-94559671D01*
X104633773Y-94636275D01*
X104536275Y-94733773D01*
X104459667Y-94848426D01*
X104425879Y-94929999D01*
X104425879Y-94930000D01*
X104913012Y-94930000D01*
X104895795Y-94939940D01*
X104839940Y-94995795D01*
X104800444Y-95064204D01*
X104780000Y-95140504D01*
X104780000Y-95219496D01*
X104800444Y-95295796D01*
X104839940Y-95364205D01*
X104895795Y-95420060D01*
X104913012Y-95430000D01*
X104425879Y-95430000D01*
X102304121Y-95430000D01*
X101816988Y-95430000D01*
X101834205Y-95420060D01*
X101890060Y-95364205D01*
X101929556Y-95295796D01*
X101950000Y-95219496D01*
X101950000Y-95140504D01*
X101929556Y-95064204D01*
X101890060Y-94995795D01*
X101834205Y-94939940D01*
X101816988Y-94930000D01*
X102304121Y-94930000D01*
X102304120Y-94929999D01*
X102270332Y-94848426D01*
X102193724Y-94733773D01*
X102096226Y-94636275D01*
X101981579Y-94559671D01*
X101981566Y-94559664D01*
X101854186Y-94506902D01*
X101854176Y-94506899D01*
X101718946Y-94480000D01*
X101600000Y-94480000D01*
X101600000Y-94880000D01*
X101100000Y-94880000D01*
X101100000Y-94480000D01*
X100981054Y-94480000D01*
X100845823Y-94506899D01*
X100845813Y-94506902D01*
X100718433Y-94559664D01*
X100718424Y-94559669D01*
X100693389Y-94576397D01*
X100626711Y-94597273D01*
X100559331Y-94578787D01*
X100512642Y-94526807D01*
X100500500Y-94473293D01*
X100500500Y-92406092D01*
X100501097Y-92393939D01*
X100505951Y-92344656D01*
X100514665Y-92256173D01*
X100519403Y-92232349D01*
X100557816Y-92105719D01*
X100567113Y-92083278D01*
X100629485Y-91966587D01*
X100642982Y-91946387D01*
X100721613Y-91850574D01*
X102034976Y-91850574D01*
X102034976Y-93563864D01*
X105222166Y-93563864D01*
X105222166Y-91850574D01*
X102034976Y-91850574D01*
X100721613Y-91850574D01*
X100726924Y-91844103D01*
X100744103Y-91826924D01*
X100846387Y-91742982D01*
X100866587Y-91729485D01*
X100983278Y-91667113D01*
X101005719Y-91657816D01*
X101132349Y-91619403D01*
X101156173Y-91614665D01*
X101287197Y-91601761D01*
X101293939Y-91601097D01*
X101306092Y-91600500D01*
X101365892Y-91600500D01*
X109317997Y-91600500D01*
X109385036Y-91620185D01*
G37*
G04 #@! TD.AperFunction*
G04 #@! TA.AperFunction,Conductor*
G36*
X128130539Y-91620185D02*
G01*
X128176294Y-91672989D01*
X128187500Y-91724500D01*
X128187500Y-92404676D01*
X128204416Y-92489714D01*
X128203467Y-92489902D01*
X128206789Y-92503169D01*
X128213975Y-92576128D01*
X128213975Y-92576130D01*
X128213976Y-92576132D01*
X128240071Y-92662154D01*
X128271188Y-92764733D01*
X128364086Y-92938532D01*
X128364090Y-92938539D01*
X128489116Y-93090883D01*
X128641460Y-93215909D01*
X128641467Y-93215913D01*
X128815266Y-93308811D01*
X128815269Y-93308811D01*
X128815273Y-93308814D01*
X129003868Y-93366024D01*
X129200000Y-93385341D01*
X129396132Y-93366024D01*
X129584727Y-93308814D01*
X129758538Y-93215910D01*
X129910883Y-93090883D01*
X130035910Y-92938538D01*
X130128814Y-92764727D01*
X130186024Y-92576132D01*
X130193209Y-92503173D01*
X130196536Y-92489909D01*
X130195583Y-92489720D01*
X130212500Y-92404676D01*
X130212500Y-91724500D01*
X130232185Y-91657461D01*
X130284989Y-91611706D01*
X130336500Y-91600500D01*
X130563500Y-91600500D01*
X130630539Y-91620185D01*
X130676294Y-91672989D01*
X130687500Y-91724500D01*
X130687500Y-92424674D01*
X130700437Y-92489714D01*
X130704416Y-92509714D01*
X130703467Y-92509902D01*
X130706789Y-92523169D01*
X130713975Y-92596128D01*
X130713975Y-92596130D01*
X130713976Y-92596132D01*
X130734004Y-92662154D01*
X130771188Y-92784733D01*
X130864086Y-92958532D01*
X130864090Y-92958539D01*
X130989116Y-93110883D01*
X131141460Y-93235909D01*
X131141467Y-93235913D01*
X131315266Y-93328811D01*
X131315269Y-93328811D01*
X131315273Y-93328814D01*
X131503868Y-93386024D01*
X131700000Y-93405341D01*
X131896132Y-93386024D01*
X132084727Y-93328814D01*
X132113786Y-93313282D01*
X132258532Y-93235913D01*
X132258538Y-93235910D01*
X132410883Y-93110883D01*
X132535910Y-92958538D01*
X132628814Y-92784727D01*
X132686024Y-92596132D01*
X132693209Y-92523173D01*
X132696536Y-92509909D01*
X132695583Y-92509720D01*
X132712500Y-92424676D01*
X132712500Y-91724500D01*
X132732185Y-91657461D01*
X132784989Y-91611706D01*
X132836500Y-91600500D01*
X133163500Y-91600500D01*
X133230539Y-91620185D01*
X133276294Y-91672989D01*
X133287500Y-91724500D01*
X133287500Y-92424674D01*
X133300437Y-92489714D01*
X133304416Y-92509714D01*
X133303467Y-92509902D01*
X133306789Y-92523169D01*
X133313975Y-92596128D01*
X133313975Y-92596130D01*
X133313976Y-92596132D01*
X133334004Y-92662154D01*
X133371188Y-92784733D01*
X133464086Y-92958532D01*
X133464090Y-92958539D01*
X133589116Y-93110883D01*
X133741460Y-93235909D01*
X133741467Y-93235913D01*
X133915266Y-93328811D01*
X133915269Y-93328811D01*
X133915273Y-93328814D01*
X134103868Y-93386024D01*
X134300000Y-93405341D01*
X134496132Y-93386024D01*
X134684727Y-93328814D01*
X134713786Y-93313282D01*
X134858532Y-93235913D01*
X134858538Y-93235910D01*
X134858544Y-93235904D01*
X134863601Y-93232527D01*
X134864593Y-93234012D01*
X134921144Y-93209995D01*
X134990012Y-93221786D01*
X135041572Y-93268937D01*
X135059500Y-93333161D01*
X135059500Y-93783500D01*
X135039815Y-93850539D01*
X134987011Y-93896294D01*
X134935500Y-93907500D01*
X134265324Y-93907500D01*
X134180289Y-93924415D01*
X134180100Y-93923467D01*
X134166831Y-93926789D01*
X134093871Y-93933975D01*
X133905266Y-93991188D01*
X133731467Y-94084086D01*
X133731460Y-94084090D01*
X133579116Y-94209116D01*
X133454090Y-94361460D01*
X133454086Y-94361467D01*
X133361188Y-94535266D01*
X133303975Y-94723870D01*
X133284659Y-94920000D01*
X133303975Y-95116129D01*
X133305795Y-95122130D01*
X133354551Y-95282856D01*
X133361188Y-95304733D01*
X133454086Y-95478532D01*
X133454090Y-95478538D01*
X133470174Y-95498137D01*
X133497486Y-95562447D01*
X133485695Y-95631314D01*
X133438542Y-95682874D01*
X133409255Y-95695778D01*
X133292549Y-95730045D01*
X133171473Y-95807856D01*
X133077223Y-95916626D01*
X133077222Y-95916628D01*
X133017434Y-96047543D01*
X132996953Y-96190000D01*
X133017434Y-96332456D01*
X133069179Y-96445760D01*
X133077223Y-96463373D01*
X133171472Y-96572143D01*
X133292547Y-96649953D01*
X133292550Y-96649954D01*
X133292549Y-96649954D01*
X133409254Y-96684221D01*
X133468032Y-96721995D01*
X133497058Y-96785550D01*
X133487115Y-96854709D01*
X133470175Y-96881860D01*
X133454093Y-96901455D01*
X133454086Y-96901467D01*
X133361188Y-97075266D01*
X133303975Y-97263870D01*
X133284659Y-97460000D01*
X133303975Y-97656129D01*
X133309816Y-97675385D01*
X133350521Y-97809571D01*
X133361188Y-97844733D01*
X133454086Y-98018532D01*
X133454087Y-98018533D01*
X133454090Y-98018538D01*
X133458308Y-98023678D01*
X133485621Y-98087987D01*
X133473830Y-98156855D01*
X133426679Y-98208415D01*
X133397390Y-98221320D01*
X133317948Y-98244645D01*
X133196873Y-98322456D01*
X133196872Y-98322456D01*
X133196872Y-98322457D01*
X133185846Y-98335182D01*
X133102623Y-98431226D01*
X133102622Y-98431228D01*
X133042834Y-98562143D01*
X133022353Y-98704600D01*
X133042834Y-98847056D01*
X133101454Y-98975413D01*
X133102623Y-98977973D01*
X133196872Y-99086743D01*
X133317947Y-99164553D01*
X133317950Y-99164554D01*
X133317949Y-99164554D01*
X133389668Y-99185612D01*
X133449956Y-99203314D01*
X133456036Y-99205099D01*
X133456038Y-99205100D01*
X133456039Y-99205100D01*
X133599962Y-99205100D01*
X133599962Y-99205099D01*
X133738053Y-99164553D01*
X133859128Y-99086743D01*
X133953377Y-98977973D01*
X134013165Y-98847057D01*
X134033647Y-98704600D01*
X134017579Y-98592844D01*
X134027523Y-98523687D01*
X134073278Y-98470883D01*
X134140317Y-98451198D01*
X134152455Y-98451794D01*
X134166830Y-98453209D01*
X134180095Y-98456532D01*
X134180284Y-98455584D01*
X134265323Y-98472500D01*
X134265326Y-98472500D01*
X134935500Y-98472500D01*
X135002539Y-98492185D01*
X135048294Y-98544989D01*
X135059500Y-98596500D01*
X135059500Y-101403500D01*
X135039815Y-101470539D01*
X134987011Y-101516294D01*
X134935500Y-101527500D01*
X134265324Y-101527500D01*
X134180289Y-101544415D01*
X134180100Y-101543467D01*
X134166831Y-101546789D01*
X134093871Y-101553975D01*
X133905266Y-101611188D01*
X133731467Y-101704086D01*
X133731460Y-101704090D01*
X133579116Y-101829116D01*
X133454090Y-101981460D01*
X133454086Y-101981467D01*
X133361188Y-102155266D01*
X133303975Y-102343870D01*
X133284659Y-102540000D01*
X133303975Y-102736129D01*
X133303976Y-102736132D01*
X133356363Y-102908829D01*
X133361188Y-102924733D01*
X133454086Y-103098532D01*
X133454090Y-103098539D01*
X133579116Y-103250883D01*
X133731460Y-103375909D01*
X133731467Y-103375913D01*
X133905266Y-103468811D01*
X133905269Y-103468811D01*
X133905273Y-103468814D01*
X134093868Y-103526024D01*
X134166823Y-103533209D01*
X134180095Y-103536533D01*
X134180284Y-103535584D01*
X134265323Y-103552500D01*
X134265326Y-103552500D01*
X134935500Y-103552500D01*
X135002539Y-103572185D01*
X135048294Y-103624989D01*
X135059500Y-103676500D01*
X135059500Y-106788338D01*
X135039815Y-106855377D01*
X134987011Y-106901132D01*
X134917853Y-106911076D01*
X134864527Y-106887586D01*
X134863601Y-106888973D01*
X134858532Y-106885586D01*
X134684733Y-106792688D01*
X134684727Y-106792686D01*
X134496132Y-106735476D01*
X134496129Y-106735475D01*
X134300000Y-106716159D01*
X134103870Y-106735475D01*
X133915266Y-106792688D01*
X133741467Y-106885586D01*
X133741460Y-106885590D01*
X133589116Y-107010616D01*
X133464090Y-107162960D01*
X133464086Y-107162967D01*
X133371188Y-107336766D01*
X133313975Y-107525371D01*
X133306789Y-107598331D01*
X133303467Y-107611600D01*
X133304415Y-107611789D01*
X133287500Y-107696823D01*
X133287500Y-108275500D01*
X133267815Y-108342539D01*
X133215011Y-108388294D01*
X133163500Y-108399500D01*
X132936500Y-108399500D01*
X132869461Y-108379815D01*
X132823706Y-108327011D01*
X132812500Y-108275500D01*
X132812500Y-107696823D01*
X132795584Y-107611784D01*
X132796533Y-107611595D01*
X132793209Y-107598323D01*
X132786024Y-107525368D01*
X132728814Y-107336773D01*
X132728811Y-107336769D01*
X132728811Y-107336766D01*
X132635913Y-107162967D01*
X132635909Y-107162960D01*
X132510883Y-107010616D01*
X132358539Y-106885590D01*
X132358532Y-106885586D01*
X132184733Y-106792688D01*
X132184727Y-106792686D01*
X131996132Y-106735476D01*
X131996129Y-106735475D01*
X131800000Y-106716159D01*
X131603870Y-106735475D01*
X131415266Y-106792688D01*
X131241467Y-106885586D01*
X131241460Y-106885590D01*
X131089116Y-107010616D01*
X130964090Y-107162960D01*
X130964086Y-107162967D01*
X130871188Y-107336766D01*
X130813975Y-107525371D01*
X130806789Y-107598331D01*
X130803467Y-107611600D01*
X130804415Y-107611789D01*
X130787500Y-107696823D01*
X130787500Y-108275500D01*
X130767815Y-108342539D01*
X130715011Y-108388294D01*
X130663500Y-108399500D01*
X130436500Y-108399500D01*
X130369461Y-108379815D01*
X130323706Y-108327011D01*
X130312500Y-108275500D01*
X130312500Y-107696823D01*
X130295584Y-107611784D01*
X130296533Y-107611595D01*
X130293209Y-107598323D01*
X130286024Y-107525368D01*
X130228814Y-107336773D01*
X130228811Y-107336769D01*
X130228811Y-107336766D01*
X130135913Y-107162967D01*
X130135909Y-107162960D01*
X130010883Y-107010616D01*
X129858539Y-106885590D01*
X129858532Y-106885586D01*
X129684733Y-106792688D01*
X129684727Y-106792686D01*
X129496132Y-106735476D01*
X129496129Y-106735475D01*
X129300000Y-106716159D01*
X129103870Y-106735475D01*
X128915266Y-106792688D01*
X128741467Y-106885586D01*
X128741460Y-106885590D01*
X128589116Y-107010616D01*
X128464090Y-107162960D01*
X128464086Y-107162967D01*
X128371188Y-107336766D01*
X128313975Y-107525371D01*
X128306789Y-107598331D01*
X128303467Y-107611600D01*
X128304415Y-107611789D01*
X128287500Y-107696823D01*
X128287500Y-108275500D01*
X128267815Y-108342539D01*
X128215011Y-108388294D01*
X128163500Y-108399500D01*
X127936500Y-108399500D01*
X127869461Y-108379815D01*
X127823706Y-108327011D01*
X127812500Y-108275500D01*
X127812500Y-107675323D01*
X127795584Y-107590284D01*
X127796533Y-107590095D01*
X127793209Y-107576823D01*
X127789002Y-107534108D01*
X127786024Y-107503868D01*
X127728814Y-107315273D01*
X127728811Y-107315269D01*
X127728811Y-107315266D01*
X127635913Y-107141467D01*
X127635909Y-107141460D01*
X127510883Y-106989116D01*
X127358539Y-106864090D01*
X127358532Y-106864086D01*
X127184733Y-106771188D01*
X127184727Y-106771186D01*
X127058997Y-106733046D01*
X126996129Y-106713975D01*
X126800000Y-106694659D01*
X126603870Y-106713975D01*
X126415266Y-106771188D01*
X126241467Y-106864086D01*
X126241453Y-106864095D01*
X126238467Y-106866546D01*
X126236599Y-106867338D01*
X126236399Y-106867473D01*
X126236373Y-106867434D01*
X126174154Y-106893853D01*
X126105288Y-106882054D01*
X126053733Y-106834897D01*
X126041220Y-106799916D01*
X126040065Y-106800256D01*
X126037565Y-106791744D01*
X126028178Y-106771188D01*
X125977777Y-106660827D01*
X125883528Y-106552057D01*
X125762453Y-106474247D01*
X125762451Y-106474246D01*
X125762449Y-106474245D01*
X125762450Y-106474245D01*
X125624363Y-106433700D01*
X125624361Y-106433700D01*
X125480439Y-106433700D01*
X125480436Y-106433700D01*
X125342349Y-106474245D01*
X125221273Y-106552056D01*
X125127023Y-106660826D01*
X125127022Y-106660828D01*
X125067234Y-106791744D01*
X125067234Y-106791745D01*
X125067217Y-106791865D01*
X125067166Y-106791975D01*
X125064735Y-106800256D01*
X125063543Y-106799906D01*
X125038187Y-106855419D01*
X124979406Y-106893189D01*
X124909536Y-106893184D01*
X124865814Y-106870061D01*
X124858968Y-106864443D01*
X124858538Y-106864090D01*
X124858536Y-106864089D01*
X124858532Y-106864086D01*
X124684733Y-106771188D01*
X124684727Y-106771186D01*
X124558997Y-106733046D01*
X124496129Y-106713975D01*
X124300000Y-106694659D01*
X124103870Y-106713975D01*
X123915266Y-106771188D01*
X123741467Y-106864086D01*
X123741455Y-106864094D01*
X123741134Y-106864358D01*
X123740932Y-106864443D01*
X123736399Y-106867473D01*
X123735824Y-106866613D01*
X123676824Y-106891671D01*
X123607957Y-106879878D01*
X123556397Y-106832725D01*
X123549677Y-106820016D01*
X123540653Y-106800256D01*
X123488577Y-106686227D01*
X123394328Y-106577457D01*
X123273253Y-106499647D01*
X123273251Y-106499646D01*
X123273249Y-106499645D01*
X123273250Y-106499645D01*
X123135163Y-106459100D01*
X123135161Y-106459100D01*
X122991239Y-106459100D01*
X122991236Y-106459100D01*
X122853149Y-106499645D01*
X122732073Y-106577456D01*
X122732072Y-106577456D01*
X122732072Y-106577457D01*
X122719490Y-106591977D01*
X122637823Y-106686226D01*
X122637822Y-106686228D01*
X122578032Y-106817149D01*
X122577092Y-106820350D01*
X122575290Y-106823151D01*
X122574351Y-106825210D01*
X122574054Y-106825074D01*
X122539311Y-106879124D01*
X122475753Y-106908142D01*
X122406595Y-106898191D01*
X122379454Y-106881255D01*
X122358539Y-106864090D01*
X122358532Y-106864086D01*
X122184733Y-106771188D01*
X122184727Y-106771186D01*
X122058997Y-106733046D01*
X121996129Y-106713975D01*
X121800000Y-106694659D01*
X121603870Y-106713975D01*
X121415266Y-106771188D01*
X121241467Y-106864086D01*
X121241460Y-106864090D01*
X121089116Y-106989116D01*
X120964090Y-107141460D01*
X120964086Y-107141467D01*
X120871188Y-107315266D01*
X120813975Y-107503871D01*
X120806789Y-107576831D01*
X120803467Y-107590100D01*
X120804415Y-107590289D01*
X120787500Y-107675323D01*
X120787500Y-108275500D01*
X120767815Y-108342539D01*
X120715011Y-108388294D01*
X120663500Y-108399500D01*
X113301478Y-108399500D01*
X113234439Y-108379815D01*
X113188684Y-108327011D01*
X113180117Y-108287634D01*
X113178382Y-108287845D01*
X113158437Y-108123581D01*
X113124238Y-108033406D01*
X113102420Y-107975877D01*
X113012683Y-107845870D01*
X112894440Y-107741117D01*
X112894438Y-107741116D01*
X112894437Y-107741115D01*
X112754565Y-107667703D01*
X112601186Y-107629900D01*
X112601185Y-107629900D01*
X112443215Y-107629900D01*
X112443214Y-107629900D01*
X112289834Y-107667703D01*
X112149962Y-107741115D01*
X112031716Y-107845871D01*
X111941981Y-107975875D01*
X111941980Y-107975876D01*
X111885962Y-108123581D01*
X111866018Y-108287845D01*
X111863390Y-108287526D01*
X111847237Y-108342539D01*
X111794433Y-108388294D01*
X111742922Y-108399500D01*
X111317448Y-108399500D01*
X111250409Y-108379815D01*
X111204654Y-108327011D01*
X111194710Y-108257853D01*
X111217882Y-108207112D01*
X111215582Y-108205634D01*
X111220372Y-108198178D01*
X111220377Y-108198173D01*
X111280165Y-108067257D01*
X111296447Y-107954008D01*
X111325470Y-107890456D01*
X111331488Y-107883992D01*
X111894463Y-107321019D01*
X111955786Y-107287534D01*
X111982144Y-107284700D01*
X114422542Y-107284700D01*
X114422544Y-107284700D01*
X114511688Y-107260814D01*
X114526282Y-107252388D01*
X114591612Y-107214670D01*
X114922882Y-106883400D01*
X115827750Y-106883400D01*
X115844107Y-107007645D01*
X115846670Y-107027108D01*
X115846671Y-107027112D01*
X115902137Y-107161022D01*
X115902138Y-107161024D01*
X115902139Y-107161025D01*
X115990379Y-107276021D01*
X116105375Y-107364261D01*
X116105376Y-107364261D01*
X116105377Y-107364262D01*
X116150013Y-107382750D01*
X116239291Y-107419730D01*
X116366280Y-107436448D01*
X116382999Y-107438650D01*
X116383000Y-107438650D01*
X116383001Y-107438650D01*
X116397977Y-107436678D01*
X116526709Y-107419730D01*
X116660625Y-107364261D01*
X116775621Y-107276021D01*
X116863861Y-107161025D01*
X116919330Y-107027109D01*
X116938250Y-106883400D01*
X116919330Y-106739691D01*
X116863861Y-106605775D01*
X116775621Y-106490779D01*
X116660625Y-106402539D01*
X116660624Y-106402538D01*
X116660622Y-106402537D01*
X116526712Y-106347071D01*
X116526710Y-106347070D01*
X116526709Y-106347070D01*
X116454854Y-106337610D01*
X116383001Y-106328150D01*
X116382999Y-106328150D01*
X116239291Y-106347070D01*
X116239287Y-106347071D01*
X116105377Y-106402537D01*
X115990379Y-106490779D01*
X115902137Y-106605777D01*
X115846671Y-106739687D01*
X115846670Y-106739691D01*
X115830292Y-106864095D01*
X115827750Y-106883400D01*
X114922882Y-106883400D01*
X115749070Y-106057212D01*
X115795214Y-105977288D01*
X115802445Y-105950300D01*
X115819100Y-105888144D01*
X115819100Y-104805256D01*
X115795214Y-104716112D01*
X115784149Y-104696947D01*
X115749073Y-104636194D01*
X115749070Y-104636191D01*
X115749069Y-104636188D01*
X115683812Y-104570931D01*
X114935870Y-103822989D01*
X114187263Y-103074381D01*
X114153778Y-103013058D01*
X114158762Y-102943366D01*
X114200634Y-102887433D01*
X114266098Y-102863016D01*
X114274944Y-102862700D01*
X114321962Y-102862700D01*
X114321962Y-102862699D01*
X114460053Y-102822153D01*
X114581128Y-102744343D01*
X114675377Y-102635573D01*
X114689272Y-102605145D01*
X114735023Y-102552345D01*
X114802062Y-102532659D01*
X114869102Y-102552342D01*
X114914858Y-102605145D01*
X114916625Y-102609205D01*
X114923911Y-102626794D01*
X114923911Y-102626795D01*
X114923913Y-102626797D01*
X114923914Y-102626800D01*
X115012154Y-102741796D01*
X115127150Y-102830036D01*
X115261066Y-102885505D01*
X115384457Y-102901750D01*
X115404774Y-102904425D01*
X115404775Y-102904425D01*
X115404776Y-102904425D01*
X115425093Y-102901750D01*
X115453089Y-102898064D01*
X115522124Y-102908829D01*
X115574380Y-102955209D01*
X115593266Y-103022478D01*
X115592013Y-103038649D01*
X115572410Y-103174999D01*
X115591868Y-103310337D01*
X115591870Y-103310345D01*
X115648667Y-103434714D01*
X115648669Y-103434716D01*
X115648670Y-103434718D01*
X115695208Y-103488426D01*
X115706616Y-103501592D01*
X115735640Y-103565148D01*
X115725698Y-103634302D01*
X115718870Y-103649253D01*
X115718868Y-103649258D01*
X115699410Y-103784600D01*
X115718868Y-103919937D01*
X115718870Y-103919945D01*
X115775667Y-104044314D01*
X115775672Y-104044321D01*
X115865209Y-104147653D01*
X115865213Y-104147657D01*
X115918470Y-104181882D01*
X115980239Y-104221578D01*
X116023934Y-104234408D01*
X116111432Y-104260100D01*
X116111433Y-104260100D01*
X116248167Y-104260100D01*
X116379358Y-104221579D01*
X116379358Y-104221578D01*
X116379361Y-104221578D01*
X116410498Y-104201566D01*
X116477534Y-104181882D01*
X116544574Y-104201565D01*
X116544575Y-104201566D01*
X116568223Y-104216763D01*
X116615239Y-104246978D01*
X116669849Y-104263013D01*
X116746432Y-104285500D01*
X116863319Y-104285500D01*
X116930358Y-104305185D01*
X116967633Y-104342458D01*
X116969471Y-104345318D01*
X117059009Y-104448651D01*
X117059013Y-104448655D01*
X117108255Y-104480300D01*
X117174039Y-104522576D01*
X117188105Y-104526706D01*
X117305232Y-104561098D01*
X117305233Y-104561098D01*
X117441967Y-104561098D01*
X117573161Y-104522576D01*
X117688189Y-104448653D01*
X117777730Y-104345316D01*
X117822640Y-104246978D01*
X117838216Y-104212872D01*
X117839713Y-104213556D01*
X117871941Y-104163415D01*
X117935498Y-104134392D01*
X117953140Y-104133131D01*
X118000767Y-104133131D01*
X118067093Y-104113656D01*
X118131961Y-104094609D01*
X118131967Y-104094604D01*
X118132369Y-104094422D01*
X118132820Y-104094356D01*
X118140470Y-104092111D01*
X118140792Y-104093209D01*
X118201527Y-104084470D01*
X118250929Y-104102892D01*
X118317039Y-104145378D01*
X118317041Y-104145378D01*
X118317042Y-104145379D01*
X118448232Y-104183900D01*
X118448233Y-104183900D01*
X118584967Y-104183900D01*
X118716161Y-104145378D01*
X118831189Y-104071455D01*
X118920730Y-103968118D01*
X118977531Y-103843742D01*
X118996990Y-103708400D01*
X118977531Y-103573058D01*
X118961505Y-103537966D01*
X118920732Y-103448685D01*
X118920727Y-103448678D01*
X118831190Y-103345346D01*
X118831186Y-103345342D01*
X118740336Y-103286958D01*
X118716161Y-103271422D01*
X118716160Y-103271421D01*
X118716159Y-103271421D01*
X118584968Y-103232900D01*
X118584967Y-103232900D01*
X118448233Y-103232900D01*
X118448232Y-103232900D01*
X118317041Y-103271420D01*
X118316614Y-103271616D01*
X118316149Y-103271682D01*
X118308530Y-103273920D01*
X118308208Y-103272824D01*
X118247455Y-103281557D01*
X118198067Y-103263136D01*
X118173575Y-103247396D01*
X118131961Y-103220653D01*
X118131960Y-103220652D01*
X118131959Y-103220652D01*
X118000768Y-103182131D01*
X118000767Y-103182131D01*
X117864033Y-103182131D01*
X117864032Y-103182131D01*
X117732840Y-103220652D01*
X117617813Y-103294573D01*
X117617809Y-103294577D01*
X117528272Y-103397909D01*
X117528269Y-103397914D01*
X117467785Y-103530356D01*
X117466286Y-103529671D01*
X117434063Y-103579811D01*
X117370508Y-103608836D01*
X117352861Y-103610098D01*
X117325080Y-103610098D01*
X117258041Y-103590413D01*
X117220761Y-103553133D01*
X117218934Y-103550291D01*
X117218930Y-103550282D01*
X117148336Y-103468811D01*
X117129390Y-103446946D01*
X117129386Y-103446942D01*
X117038536Y-103388558D01*
X117014361Y-103373022D01*
X117014360Y-103373021D01*
X117014359Y-103373021D01*
X116883168Y-103334500D01*
X116883167Y-103334500D01*
X116746433Y-103334500D01*
X116684977Y-103352544D01*
X116615107Y-103352543D01*
X116556330Y-103314767D01*
X116527306Y-103251211D01*
X116527306Y-103215924D01*
X116533190Y-103175000D01*
X116513731Y-103039658D01*
X116484155Y-102974896D01*
X116456932Y-102915285D01*
X116456927Y-102915278D01*
X116367390Y-102811946D01*
X116367386Y-102811942D01*
X116262197Y-102744343D01*
X116252361Y-102738022D01*
X116252360Y-102738021D01*
X116252359Y-102738021D01*
X116121168Y-102699500D01*
X116121167Y-102699500D01*
X116041101Y-102699500D01*
X115974062Y-102679815D01*
X115928307Y-102627011D01*
X115918363Y-102557853D01*
X115926540Y-102528048D01*
X115931805Y-102515337D01*
X115941105Y-102492884D01*
X115960025Y-102349175D01*
X115941105Y-102205466D01*
X115885636Y-102071550D01*
X115797396Y-101956554D01*
X115682400Y-101868314D01*
X115682399Y-101868313D01*
X115682397Y-101868312D01*
X115548487Y-101812846D01*
X115548485Y-101812845D01*
X115548484Y-101812845D01*
X115476629Y-101803385D01*
X115404776Y-101793925D01*
X115404774Y-101793925D01*
X115261066Y-101812845D01*
X115261065Y-101812845D01*
X115197657Y-101839109D01*
X115128187Y-101846576D01*
X115065709Y-101815301D01*
X115030057Y-101755211D01*
X115027468Y-101706900D01*
X115031813Y-101676677D01*
X115044448Y-101588801D01*
X115023966Y-101446344D01*
X114964178Y-101315428D01*
X114869929Y-101206658D01*
X114812813Y-101169952D01*
X114748853Y-101128847D01*
X114743528Y-101127284D01*
X114684751Y-101089508D01*
X114655727Y-101025954D01*
X114655390Y-101023607D01*
X114640434Y-100919586D01*
X114650378Y-100850429D01*
X114688329Y-100806630D01*
X114686944Y-100805032D01*
X114693643Y-100799225D01*
X114693649Y-100799222D01*
X114783190Y-100695885D01*
X114839991Y-100571509D01*
X114859450Y-100436167D01*
X114852515Y-100387935D01*
X114862458Y-100318781D01*
X114908212Y-100265976D01*
X114943158Y-100250517D01*
X114980073Y-100240626D01*
X115004320Y-100226627D01*
X115059997Y-100194482D01*
X115360870Y-99893609D01*
X115407014Y-99813685D01*
X115411734Y-99796069D01*
X115430900Y-99724541D01*
X115430900Y-98654344D01*
X115450585Y-98587305D01*
X115467219Y-98566663D01*
X116517263Y-97516619D01*
X116578586Y-97483134D01*
X116604944Y-97480300D01*
X121578841Y-97480300D01*
X121645880Y-97499985D01*
X121691634Y-97552787D01*
X121705621Y-97583414D01*
X121744669Y-97668916D01*
X121744672Y-97668921D01*
X121834209Y-97772253D01*
X121834213Y-97772257D01*
X121866687Y-97793126D01*
X121949239Y-97846178D01*
X122014836Y-97865439D01*
X122080432Y-97884700D01*
X122080433Y-97884700D01*
X122217167Y-97884700D01*
X122242308Y-97877318D01*
X122312177Y-97877318D01*
X122370956Y-97915092D01*
X122390037Y-97944783D01*
X122423717Y-98018532D01*
X122430470Y-98033318D01*
X122520011Y-98136655D01*
X122520013Y-98136656D01*
X122521169Y-98137990D01*
X122550194Y-98201546D01*
X122540250Y-98270704D01*
X122494495Y-98323508D01*
X122478089Y-98331019D01*
X122478583Y-98332100D01*
X122470512Y-98335785D01*
X122355485Y-98409707D01*
X122355481Y-98409711D01*
X122265944Y-98513043D01*
X122265939Y-98513050D01*
X122209142Y-98637419D01*
X122209140Y-98637427D01*
X122189682Y-98772765D01*
X122209140Y-98908102D01*
X122209142Y-98908110D01*
X122264050Y-99028341D01*
X122273994Y-99097499D01*
X122244971Y-99161052D01*
X122227272Y-99181477D01*
X122227267Y-99181485D01*
X122170470Y-99305854D01*
X122170468Y-99305862D01*
X122151010Y-99441200D01*
X122170468Y-99576537D01*
X122170470Y-99576545D01*
X122227267Y-99700914D01*
X122227272Y-99700922D01*
X122283386Y-99765682D01*
X122312410Y-99829238D01*
X122302466Y-99898396D01*
X122277353Y-99934564D01*
X121487331Y-100724586D01*
X121487325Y-100724594D01*
X121445758Y-100796592D01*
X121445758Y-100796593D01*
X121441187Y-100804509D01*
X121441186Y-100804512D01*
X121417300Y-100893656D01*
X121417300Y-101443144D01*
X121424640Y-101470539D01*
X121427693Y-101481930D01*
X121426030Y-101551780D01*
X121386867Y-101609642D01*
X121337593Y-101634420D01*
X121179833Y-101673304D01*
X121039962Y-101746715D01*
X121015875Y-101768054D01*
X120952295Y-101824381D01*
X120921716Y-101851471D01*
X120831981Y-101981475D01*
X120831980Y-101981476D01*
X120775962Y-102129181D01*
X120756922Y-102285999D01*
X120756922Y-102286000D01*
X120775962Y-102442818D01*
X120818219Y-102554239D01*
X120831980Y-102590523D01*
X120921717Y-102720530D01*
X121039960Y-102825283D01*
X121039962Y-102825284D01*
X121179834Y-102898696D01*
X121333214Y-102936500D01*
X121333215Y-102936500D01*
X121491185Y-102936500D01*
X121644565Y-102898696D01*
X121644565Y-102898695D01*
X121644625Y-102898681D01*
X121714428Y-102901750D01*
X121771490Y-102942070D01*
X121797695Y-103006840D01*
X121798300Y-103019078D01*
X121798300Y-103613456D01*
X121778615Y-103680495D01*
X121761981Y-103701137D01*
X120693737Y-104769381D01*
X120632414Y-104802866D01*
X120606056Y-104805700D01*
X120361417Y-104805700D01*
X120294378Y-104786015D01*
X120248623Y-104733211D01*
X120238679Y-104664053D01*
X120267703Y-104600498D01*
X120337727Y-104519686D01*
X120338450Y-104518104D01*
X120370168Y-104448651D01*
X120394528Y-104395310D01*
X120413987Y-104259968D01*
X120394528Y-104124626D01*
X120374516Y-104080806D01*
X120337729Y-104000253D01*
X120337724Y-104000246D01*
X120248187Y-103896914D01*
X120248183Y-103896910D01*
X120133156Y-103822989D01*
X120001965Y-103784468D01*
X120001964Y-103784468D01*
X119865230Y-103784468D01*
X119865229Y-103784468D01*
X119734037Y-103822989D01*
X119619010Y-103896910D01*
X119619006Y-103896914D01*
X119529469Y-104000246D01*
X119529464Y-104000253D01*
X119472667Y-104124622D01*
X119472665Y-104124630D01*
X119453207Y-104259968D01*
X119472665Y-104395305D01*
X119472667Y-104395313D01*
X119529464Y-104519682D01*
X119529469Y-104519689D01*
X119619006Y-104623021D01*
X119619010Y-104623025D01*
X119669057Y-104655187D01*
X119734036Y-104696946D01*
X119734038Y-104696946D01*
X119734039Y-104696947D01*
X119739596Y-104699486D01*
X119792397Y-104745244D01*
X119812078Y-104812284D01*
X119792390Y-104879323D01*
X119775759Y-104899958D01*
X117744937Y-106930781D01*
X117683614Y-106964266D01*
X117657256Y-106967100D01*
X117631836Y-106967100D01*
X117493749Y-107007645D01*
X117372673Y-107085456D01*
X117278423Y-107194226D01*
X117278422Y-107194228D01*
X117218634Y-107325143D01*
X117198153Y-107467600D01*
X117218634Y-107610056D01*
X117267936Y-107718011D01*
X117278423Y-107740973D01*
X117372672Y-107849743D01*
X117493747Y-107927553D01*
X117493750Y-107927554D01*
X117493749Y-107927554D01*
X117631836Y-107968099D01*
X117631838Y-107968100D01*
X117631839Y-107968100D01*
X117775762Y-107968100D01*
X117775762Y-107968099D01*
X117913853Y-107927553D01*
X118034928Y-107849743D01*
X118129177Y-107740973D01*
X118188965Y-107610057D01*
X118205247Y-107496808D01*
X118234270Y-107433256D01*
X118240289Y-107426791D01*
X120124063Y-105543019D01*
X120185386Y-105509534D01*
X120211744Y-105506700D01*
X120848742Y-105506700D01*
X120848744Y-105506700D01*
X120937888Y-105482814D01*
X120951826Y-105474767D01*
X121017812Y-105436670D01*
X121869209Y-104585271D01*
X121930530Y-104551788D01*
X122000221Y-104556772D01*
X122056155Y-104598643D01*
X122079626Y-104655306D01*
X122095434Y-104765256D01*
X122155222Y-104896171D01*
X122155223Y-104896173D01*
X122249472Y-105004943D01*
X122370547Y-105082753D01*
X122370550Y-105082754D01*
X122370549Y-105082754D01*
X122508636Y-105123299D01*
X122508638Y-105123300D01*
X122508639Y-105123300D01*
X122652562Y-105123300D01*
X122652562Y-105123299D01*
X122790653Y-105082753D01*
X122911728Y-105004943D01*
X123005977Y-104896173D01*
X123065765Y-104765257D01*
X123086247Y-104622800D01*
X123065765Y-104480343D01*
X123005977Y-104349427D01*
X123005974Y-104349423D01*
X122961386Y-104297964D01*
X122932362Y-104234408D01*
X122931100Y-104216763D01*
X122931100Y-102355544D01*
X122950785Y-102288505D01*
X122967419Y-102267863D01*
X123428463Y-101806819D01*
X123489786Y-101773334D01*
X123516144Y-101770500D01*
X123541562Y-101770500D01*
X123541562Y-101770499D01*
X123675209Y-101731258D01*
X123679650Y-101729954D01*
X123679650Y-101729953D01*
X123679653Y-101729953D01*
X123800728Y-101652143D01*
X123894977Y-101543373D01*
X123954765Y-101412457D01*
X123975247Y-101270000D01*
X123954765Y-101127543D01*
X123923649Y-101059411D01*
X123913706Y-100990254D01*
X123942731Y-100926698D01*
X124001508Y-100888923D01*
X124036444Y-100883900D01*
X125326999Y-100883900D01*
X125394038Y-100903585D01*
X125439793Y-100956389D01*
X125445974Y-100972959D01*
X125448234Y-100980655D01*
X125508020Y-101111569D01*
X125508023Y-101111573D01*
X125602272Y-101220343D01*
X125723347Y-101298153D01*
X125723350Y-101298154D01*
X125723349Y-101298154D01*
X125861436Y-101338699D01*
X125861438Y-101338700D01*
X125861439Y-101338700D01*
X126005362Y-101338700D01*
X126005362Y-101338699D01*
X126143453Y-101298153D01*
X126264528Y-101220343D01*
X126358777Y-101111573D01*
X126418565Y-100980657D01*
X126439047Y-100838200D01*
X126418565Y-100695743D01*
X126358777Y-100564827D01*
X126264528Y-100456057D01*
X126143453Y-100378247D01*
X126143451Y-100378246D01*
X126143449Y-100378245D01*
X126143450Y-100378245D01*
X126005363Y-100337700D01*
X126005361Y-100337700D01*
X125979944Y-100337700D01*
X125912905Y-100318015D01*
X125892263Y-100301381D01*
X125843813Y-100252931D01*
X125843808Y-100252927D01*
X125763890Y-100206787D01*
X125763889Y-100206786D01*
X125763888Y-100206786D01*
X125674744Y-100182900D01*
X125674743Y-100182900D01*
X123321142Y-100182900D01*
X123254103Y-100163215D01*
X123208348Y-100110411D01*
X123198404Y-100041253D01*
X123227429Y-99977697D01*
X123233461Y-99971219D01*
X123503765Y-99700914D01*
X123597669Y-99607010D01*
X123643814Y-99527085D01*
X123649996Y-99504012D01*
X123667700Y-99437941D01*
X123667700Y-99021661D01*
X123687385Y-98954622D01*
X123697980Y-98940467D01*
X123721330Y-98913520D01*
X123778131Y-98789144D01*
X123797590Y-98653802D01*
X123778131Y-98518460D01*
X123761493Y-98482028D01*
X123721332Y-98394087D01*
X123721327Y-98394080D01*
X123631790Y-98290748D01*
X123631786Y-98290744D01*
X123523757Y-98221320D01*
X123516761Y-98216824D01*
X123516760Y-98216823D01*
X123516759Y-98216823D01*
X123385568Y-98178302D01*
X123385567Y-98178302D01*
X123365466Y-98178302D01*
X123298427Y-98158617D01*
X123252672Y-98105813D01*
X123242728Y-98036655D01*
X123252671Y-98002791D01*
X123255702Y-97996154D01*
X123295531Y-97908942D01*
X123314990Y-97773600D01*
X123311445Y-97748945D01*
X123321388Y-97679790D01*
X123367142Y-97626985D01*
X123434182Y-97607300D01*
X124480942Y-97607300D01*
X124480944Y-97607300D01*
X124570088Y-97583414D01*
X124578232Y-97578712D01*
X124650012Y-97537270D01*
X125809774Y-96377506D01*
X125871095Y-96344023D01*
X125932388Y-96346212D01*
X125937038Y-96347577D01*
X125937039Y-96347578D01*
X126005714Y-96367742D01*
X126068232Y-96386100D01*
X126068233Y-96386100D01*
X126204967Y-96386100D01*
X126336159Y-96347579D01*
X126338287Y-96346212D01*
X126342279Y-96343645D01*
X126409318Y-96323962D01*
X126476358Y-96343647D01*
X126496999Y-96360281D01*
X126755137Y-96618419D01*
X126788622Y-96679742D01*
X126783638Y-96749434D01*
X126741766Y-96805367D01*
X126676302Y-96829784D01*
X126667456Y-96830100D01*
X126550495Y-96830100D01*
X126483456Y-96810415D01*
X126469288Y-96799810D01*
X126467732Y-96798462D01*
X126467728Y-96798457D01*
X126346653Y-96720647D01*
X126346651Y-96720646D01*
X126346649Y-96720645D01*
X126346650Y-96720645D01*
X126208563Y-96680100D01*
X126208561Y-96680100D01*
X126064639Y-96680100D01*
X126064636Y-96680100D01*
X125926549Y-96720645D01*
X125805473Y-96798456D01*
X125805472Y-96798456D01*
X125805472Y-96798457D01*
X125795110Y-96810415D01*
X125711223Y-96907226D01*
X125711222Y-96907228D01*
X125651434Y-97038143D01*
X125630953Y-97180600D01*
X125651434Y-97323056D01*
X125689614Y-97406656D01*
X125711223Y-97453973D01*
X125805472Y-97562743D01*
X125906392Y-97627600D01*
X125952146Y-97680403D01*
X125962090Y-97749562D01*
X125933065Y-97813117D01*
X125896979Y-97841711D01*
X125764361Y-97911316D01*
X125646116Y-98016071D01*
X125556381Y-98146075D01*
X125556380Y-98146076D01*
X125500362Y-98293781D01*
X125481322Y-98450599D01*
X125481322Y-98450600D01*
X125500362Y-98607418D01*
X125540362Y-98712888D01*
X125556380Y-98755123D01*
X125646117Y-98885130D01*
X125764360Y-98989883D01*
X125764362Y-98989884D01*
X125904234Y-99063296D01*
X126057614Y-99101100D01*
X126057615Y-99101100D01*
X126215585Y-99101100D01*
X126368965Y-99063296D01*
X126508840Y-98989883D01*
X126627083Y-98885130D01*
X126716820Y-98755123D01*
X126772837Y-98607418D01*
X126791878Y-98450600D01*
X126781620Y-98366112D01*
X126772837Y-98293781D01*
X126745356Y-98221320D01*
X126716820Y-98146077D01*
X126627083Y-98016070D01*
X126508840Y-97911317D01*
X126500761Y-97907077D01*
X126376220Y-97841711D01*
X126326008Y-97793126D01*
X126310034Y-97725107D01*
X126333370Y-97659249D01*
X126366804Y-97627602D01*
X126467728Y-97562743D01*
X126467736Y-97562733D01*
X126469288Y-97561390D01*
X126471171Y-97560529D01*
X126475189Y-97557948D01*
X126475560Y-97558525D01*
X126532843Y-97532363D01*
X126550495Y-97531100D01*
X126829056Y-97531100D01*
X126896095Y-97550785D01*
X126916737Y-97567419D01*
X127609581Y-98260263D01*
X127643066Y-98321586D01*
X127645900Y-98347944D01*
X127645900Y-100667056D01*
X127626215Y-100734095D01*
X127609581Y-100754737D01*
X127444531Y-100919786D01*
X127444529Y-100919789D01*
X127425432Y-100952866D01*
X127406335Y-100985944D01*
X127403847Y-100990254D01*
X127398386Y-100999712D01*
X127374500Y-101088856D01*
X127374500Y-103408450D01*
X127394579Y-103483387D01*
X127394579Y-103483388D01*
X127398385Y-103497593D01*
X127444527Y-103577515D01*
X127444529Y-103577518D01*
X127444530Y-103577519D01*
X127726507Y-103859496D01*
X127947818Y-104080806D01*
X127981303Y-104142129D01*
X127976319Y-104211820D01*
X127972931Y-104219998D01*
X127912035Y-104353341D01*
X127912034Y-104353342D01*
X127891553Y-104495800D01*
X127912034Y-104638256D01*
X127956430Y-104735468D01*
X127971823Y-104769173D01*
X128066072Y-104877943D01*
X128123481Y-104914837D01*
X128169235Y-104967640D01*
X128179179Y-105036798D01*
X128150155Y-105100354D01*
X128114068Y-105128948D01*
X128024961Y-105175716D01*
X127981183Y-105214500D01*
X127923761Y-105265371D01*
X127906716Y-105280471D01*
X127816981Y-105410475D01*
X127816980Y-105410476D01*
X127760962Y-105558181D01*
X127741922Y-105714999D01*
X127741922Y-105715000D01*
X127760962Y-105871818D01*
X127807859Y-105995473D01*
X127816980Y-106019523D01*
X127906717Y-106149530D01*
X128024960Y-106254283D01*
X128024962Y-106254284D01*
X128164834Y-106327696D01*
X128318214Y-106365500D01*
X128318215Y-106365500D01*
X128476185Y-106365500D01*
X128629565Y-106327696D01*
X128769440Y-106254283D01*
X128887683Y-106149530D01*
X128977420Y-106019523D01*
X129025564Y-105892575D01*
X129067741Y-105836876D01*
X129133338Y-105812818D01*
X129201528Y-105828045D01*
X129229184Y-105848866D01*
X129310531Y-105930212D01*
X129375788Y-105995469D01*
X129375791Y-105995470D01*
X129375794Y-105995473D01*
X129455706Y-106041611D01*
X129455707Y-106041611D01*
X129455712Y-106041614D01*
X129544856Y-106065500D01*
X129913705Y-106065500D01*
X129980744Y-106085185D01*
X129994912Y-106095790D01*
X129996466Y-106097137D01*
X129996472Y-106097143D01*
X130117547Y-106174953D01*
X130117550Y-106174954D01*
X130117549Y-106174954D01*
X130255636Y-106215499D01*
X130255638Y-106215500D01*
X130255639Y-106215500D01*
X130399562Y-106215500D01*
X130399562Y-106215499D01*
X130537653Y-106174953D01*
X130658728Y-106097143D01*
X130752977Y-105988373D01*
X130812765Y-105857457D01*
X130833247Y-105715000D01*
X130812765Y-105572543D01*
X130752977Y-105441627D01*
X130658728Y-105332857D01*
X130537653Y-105255047D01*
X130537651Y-105255046D01*
X130537649Y-105255045D01*
X130537650Y-105255045D01*
X130407801Y-105216919D01*
X130349022Y-105179145D01*
X130319997Y-105115590D01*
X130329940Y-105046431D01*
X130375695Y-104993627D01*
X130407801Y-104978965D01*
X130486850Y-104955754D01*
X130486850Y-104955753D01*
X130486853Y-104955753D01*
X130607928Y-104877943D01*
X130702177Y-104769173D01*
X130761965Y-104638257D01*
X130778247Y-104525008D01*
X130807270Y-104461456D01*
X130813274Y-104455006D01*
X131065269Y-104203013D01*
X131111414Y-104123088D01*
X131114880Y-104110154D01*
X131135300Y-104033944D01*
X131135300Y-99252651D01*
X131154985Y-99185612D01*
X131171619Y-99164970D01*
X131314928Y-99021661D01*
X131489070Y-98847519D01*
X131535214Y-98767595D01*
X131543080Y-98738238D01*
X131559100Y-98678451D01*
X131559100Y-97837656D01*
X131535214Y-97748512D01*
X131535213Y-97748511D01*
X131535213Y-97748509D01*
X131523019Y-97727390D01*
X131523017Y-97727387D01*
X131521701Y-97725107D01*
X131489070Y-97668588D01*
X131016503Y-97196021D01*
X130983018Y-97134698D01*
X130981449Y-97126005D01*
X130965165Y-97012743D01*
X130905377Y-96881827D01*
X130811128Y-96773057D01*
X130690053Y-96695247D01*
X130690051Y-96695246D01*
X130690049Y-96695245D01*
X130690050Y-96695245D01*
X130551963Y-96654700D01*
X130551961Y-96654700D01*
X130408039Y-96654700D01*
X130408036Y-96654700D01*
X130269949Y-96695245D01*
X130148873Y-96773056D01*
X130148872Y-96773056D01*
X130148872Y-96773057D01*
X130147850Y-96774237D01*
X130054623Y-96881826D01*
X130054622Y-96881828D01*
X129994834Y-97012743D01*
X129974353Y-97155200D01*
X129994834Y-97297656D01*
X130038716Y-97393743D01*
X130054623Y-97428573D01*
X130148872Y-97537343D01*
X130269947Y-97615153D01*
X130269950Y-97615154D01*
X130269949Y-97615154D01*
X130408036Y-97655699D01*
X130408038Y-97655700D01*
X130408039Y-97655700D01*
X130433456Y-97655700D01*
X130500495Y-97675385D01*
X130521137Y-97692019D01*
X130579441Y-97750323D01*
X130612926Y-97811646D01*
X130607942Y-97881338D01*
X130566070Y-97937271D01*
X130526696Y-97956981D01*
X130498548Y-97965246D01*
X130377473Y-98043056D01*
X130283223Y-98151826D01*
X130283222Y-98151828D01*
X130233642Y-98260392D01*
X130187887Y-98313196D01*
X130120847Y-98332880D01*
X130053808Y-98313195D01*
X130030135Y-98291416D01*
X130029617Y-98291935D01*
X129571419Y-97833737D01*
X129537934Y-97772414D01*
X129535100Y-97746056D01*
X129535100Y-96291235D01*
X129554785Y-96224196D01*
X129565382Y-96210037D01*
X129609977Y-96158573D01*
X129669765Y-96027657D01*
X129690247Y-95885200D01*
X129669765Y-95742743D01*
X129609977Y-95611827D01*
X129515728Y-95503057D01*
X129394653Y-95425247D01*
X129394651Y-95425246D01*
X129394649Y-95425245D01*
X129394650Y-95425245D01*
X129256563Y-95384700D01*
X129256561Y-95384700D01*
X129231143Y-95384700D01*
X129164104Y-95365015D01*
X129143462Y-95348381D01*
X128108135Y-94313053D01*
X128074650Y-94251730D01*
X128079634Y-94182038D01*
X128121506Y-94126105D01*
X128144308Y-94112576D01*
X128150049Y-94109953D01*
X128150053Y-94109953D01*
X128271128Y-94032143D01*
X128365377Y-93923373D01*
X128425165Y-93792457D01*
X128445647Y-93650000D01*
X129948953Y-93650000D01*
X129969434Y-93792456D01*
X129984238Y-93824871D01*
X130029223Y-93923373D01*
X130123472Y-94032143D01*
X130244547Y-94109953D01*
X130244550Y-94109954D01*
X130244549Y-94109954D01*
X130351707Y-94141417D01*
X130367272Y-94145988D01*
X130382636Y-94150499D01*
X130382638Y-94150500D01*
X130382639Y-94150500D01*
X130526562Y-94150500D01*
X130526562Y-94150499D01*
X130664653Y-94109953D01*
X130785728Y-94032143D01*
X130879977Y-93923373D01*
X130939765Y-93792457D01*
X130960247Y-93650000D01*
X130956595Y-93624600D01*
X132488953Y-93624600D01*
X132509434Y-93767056D01*
X132535838Y-93824871D01*
X132569223Y-93897973D01*
X132663472Y-94006743D01*
X132784547Y-94084553D01*
X132784550Y-94084554D01*
X132784549Y-94084554D01*
X132922636Y-94125099D01*
X132922638Y-94125100D01*
X132922639Y-94125100D01*
X133066562Y-94125100D01*
X133066562Y-94125099D01*
X133204653Y-94084553D01*
X133325728Y-94006743D01*
X133419977Y-93897973D01*
X133479765Y-93767057D01*
X133500247Y-93624600D01*
X133479765Y-93482143D01*
X133419977Y-93351227D01*
X133325728Y-93242457D01*
X133204653Y-93164647D01*
X133204651Y-93164646D01*
X133204649Y-93164645D01*
X133204650Y-93164645D01*
X133066563Y-93124100D01*
X133066561Y-93124100D01*
X132922639Y-93124100D01*
X132922636Y-93124100D01*
X132784549Y-93164645D01*
X132663473Y-93242456D01*
X132569223Y-93351226D01*
X132569222Y-93351228D01*
X132509434Y-93482143D01*
X132488953Y-93624600D01*
X130956595Y-93624600D01*
X130939765Y-93507543D01*
X130879977Y-93376627D01*
X130785728Y-93267857D01*
X130664653Y-93190047D01*
X130664651Y-93190046D01*
X130664649Y-93190045D01*
X130664650Y-93190045D01*
X130526563Y-93149500D01*
X130526561Y-93149500D01*
X130382639Y-93149500D01*
X130382636Y-93149500D01*
X130244549Y-93190045D01*
X130123473Y-93267856D01*
X130029223Y-93376626D01*
X130029222Y-93376628D01*
X129969434Y-93507543D01*
X129948953Y-93650000D01*
X128445647Y-93650000D01*
X128425165Y-93507543D01*
X128365377Y-93376627D01*
X128271128Y-93267857D01*
X128150053Y-93190047D01*
X128150051Y-93190046D01*
X128150049Y-93190045D01*
X128150050Y-93190045D01*
X128011963Y-93149500D01*
X128011961Y-93149500D01*
X127868039Y-93149500D01*
X127868036Y-93149500D01*
X127729949Y-93190045D01*
X127608873Y-93267856D01*
X127514623Y-93376626D01*
X127514622Y-93376628D01*
X127459410Y-93497524D01*
X127413655Y-93550328D01*
X127346615Y-93570012D01*
X127314525Y-93565787D01*
X127242544Y-93546500D01*
X127104293Y-93546500D01*
X127037254Y-93526815D01*
X126991499Y-93474011D01*
X126981555Y-93404853D01*
X127010580Y-93341297D01*
X127049991Y-93312876D01*
X127049355Y-93311686D01*
X127191121Y-93235910D01*
X127228538Y-93215910D01*
X127380883Y-93090883D01*
X127505910Y-92938538D01*
X127598814Y-92764727D01*
X127656024Y-92576132D01*
X127663209Y-92503173D01*
X127666536Y-92489909D01*
X127665583Y-92489720D01*
X127682500Y-92404676D01*
X127682500Y-91724500D01*
X127702185Y-91657461D01*
X127754989Y-91611706D01*
X127806500Y-91600500D01*
X128063500Y-91600500D01*
X128130539Y-91620185D01*
G37*
G04 #@! TD.AperFunction*
M02*
