G04 #@! TF.GenerationSoftware,KiCad,Pcbnew,8.0.2*
G04 #@! TF.CreationDate,2024-11-02T23:59:00+05:00*
G04 #@! TF.ProjectId,V1,56312e6b-6963-4616-945f-706362585858,r0.1*
G04 #@! TF.SameCoordinates,Original*
G04 #@! TF.FileFunction,Copper,L4,Bot*
G04 #@! TF.FilePolarity,Positive*
%FSLAX46Y46*%
G04 Gerber Fmt 4.6, Leading zero omitted, Abs format (unit mm)*
G04 Created by KiCad (PCBNEW 8.0.2) date 2024-11-02 23:59:00*
%MOMM*%
%LPD*%
G01*
G04 APERTURE LIST*
G04 #@! TA.AperFunction,ComponentPad*
%ADD10C,1.524000*%
G04 #@! TD*
G04 #@! TA.AperFunction,SMDPad,CuDef*
%ADD11R,1.270000X1.524000*%
G04 #@! TD*
G04 #@! TA.AperFunction,SMDPad,CuDef*
%ADD12R,1.524000X1.270000*%
G04 #@! TD*
G04 #@! TA.AperFunction,ComponentPad*
%ADD13O,1.900000X1.000000*%
G04 #@! TD*
G04 #@! TA.AperFunction,ComponentPad*
%ADD14O,1.600000X1.000000*%
G04 #@! TD*
G04 #@! TA.AperFunction,HeatsinkPad*
%ADD15C,0.500000*%
G04 #@! TD*
G04 #@! TA.AperFunction,HeatsinkPad*
%ADD16R,0.500000X1.600000*%
G04 #@! TD*
G04 #@! TA.AperFunction,ViaPad*
%ADD17C,0.300000*%
G04 #@! TD*
G04 #@! TA.AperFunction,Conductor*
%ADD18C,0.200000*%
G04 #@! TD*
G04 #@! TA.AperFunction,Conductor*
%ADD19C,0.300000*%
G04 #@! TD*
G04 APERTURE END LIST*
D10*
X134290000Y-100000000D03*
D11*
X134925000Y-100000000D03*
D10*
X135560000Y-100000000D03*
X134290000Y-102540000D03*
D11*
X134925000Y-102540000D03*
D10*
X135560000Y-102540000D03*
X129300000Y-107721500D03*
D12*
X129300000Y-108356500D03*
D10*
X129300000Y-108991500D03*
X129200000Y-92380000D03*
D12*
X129200000Y-91745000D03*
D10*
X129200000Y-91110000D03*
X124130000Y-92380000D03*
D12*
X124130000Y-91745000D03*
D10*
X124130000Y-91110000D03*
X126800000Y-107700000D03*
D12*
X126800000Y-108335000D03*
D10*
X126800000Y-108970000D03*
X134300000Y-92400000D03*
D12*
X134300000Y-91765000D03*
D10*
X134300000Y-91130000D03*
X131700000Y-92400000D03*
D12*
X131700000Y-91765000D03*
D10*
X131700000Y-91130000D03*
X134300000Y-107721500D03*
D12*
X134300000Y-108356500D03*
D10*
X134300000Y-108991500D03*
X131800000Y-107721500D03*
D12*
X131800000Y-108356500D03*
D10*
X131800000Y-108991500D03*
X134290000Y-97460000D03*
D11*
X134925000Y-97460000D03*
D10*
X135560000Y-97460000D03*
X134290000Y-94920000D03*
D11*
X134925000Y-94920000D03*
D10*
X135560000Y-94920000D03*
X124300000Y-107700000D03*
D12*
X124300000Y-108335000D03*
D10*
X124300000Y-108970000D03*
X121800000Y-107700000D03*
D12*
X121800000Y-108335000D03*
D10*
X121800000Y-108970000D03*
X126670000Y-92380000D03*
D12*
X126670000Y-91745000D03*
D10*
X126670000Y-91110000D03*
D13*
X105530000Y-95180000D03*
D14*
X101350000Y-95180000D03*
D13*
X105530000Y-103820000D03*
D14*
X101350000Y-103820000D03*
D15*
X103300000Y-106950000D03*
D16*
X103300000Y-106400000D03*
D15*
X103300000Y-105850000D03*
D10*
X121600000Y-92400000D03*
D12*
X121600000Y-91765000D03*
D10*
X121600000Y-91130000D03*
D17*
X107250000Y-106650000D03*
X114453524Y-103589921D03*
X126300000Y-98600000D03*
X100600000Y-93700000D03*
X106900000Y-93650000D03*
X108250000Y-106650000D03*
X115202294Y-103350000D03*
X107800000Y-104150000D03*
X122463060Y-100881297D03*
X121650000Y-94100000D03*
X113781801Y-102918199D03*
X114000000Y-97100000D03*
X120135509Y-103199111D03*
X112730000Y-105600000D03*
X127700000Y-106100000D03*
X111535729Y-105133314D03*
X126900000Y-106100000D03*
X113500000Y-97100000D03*
X104100000Y-93800000D03*
X129100000Y-100600000D03*
X118669998Y-103000000D03*
X120550000Y-94800000D03*
X120550000Y-94000000D03*
X118300000Y-91700000D03*
X121604211Y-94859392D03*
X122430000Y-102027919D03*
X113000000Y-97000000D03*
X117700000Y-107400000D03*
X110000000Y-101100000D03*
X117700000Y-108200000D03*
X112100000Y-101200000D03*
X111000000Y-101100000D03*
X114900000Y-104600000D03*
X109900000Y-100000000D03*
X119600000Y-92800000D03*
X109000000Y-102900000D03*
X125400000Y-101800000D03*
X109700000Y-106800000D03*
X120800000Y-98700000D03*
X125400000Y-100800000D03*
X122900000Y-98100000D03*
X122900000Y-93400000D03*
X114300000Y-95900000D03*
X105200000Y-99700000D03*
X105200000Y-98799986D03*
X110800000Y-104400000D03*
X107200000Y-102000000D03*
X115474999Y-98518233D03*
X129109777Y-103250000D03*
X127000000Y-97600000D03*
X131644735Y-96685001D03*
X131034998Y-102444699D03*
X115474999Y-98018230D03*
X119669998Y-96000000D03*
X130300000Y-105400000D03*
X114800000Y-92200000D03*
X133228000Y-104100000D03*
X121398612Y-98029617D03*
X133500004Y-96200004D03*
X114425000Y-106900000D03*
X117149996Y-103496899D03*
X110500000Y-97850000D03*
X117669958Y-103185310D03*
X111025001Y-97891574D03*
X128411748Y-96650000D03*
X115474988Y-100058379D03*
X128853554Y-101346446D03*
X130800000Y-97400000D03*
X130534998Y-104134998D03*
X115475224Y-100558381D03*
X117200000Y-91500000D03*
X117500000Y-93200000D03*
X114000000Y-94300000D03*
X108500004Y-94300000D03*
X115500000Y-95600000D03*
X108900000Y-93400000D03*
X114600000Y-97549514D03*
X103400000Y-94800000D03*
X116150000Y-95865000D03*
X112400000Y-106600000D03*
X122100000Y-99069998D03*
X122744205Y-96919397D03*
X122100000Y-98569998D03*
X122791472Y-97437816D03*
X111005204Y-96550000D03*
X114600002Y-94700002D03*
X109000000Y-96550000D03*
X111600000Y-95400000D03*
X111600000Y-103600000D03*
X110070268Y-102977458D03*
X112600000Y-103600000D03*
X111000160Y-102970004D03*
X127190580Y-96650000D03*
X128899997Y-102500003D03*
X115474999Y-99558377D03*
X133293474Y-105413052D03*
X132400000Y-99200000D03*
X133392460Y-105945239D03*
X115474999Y-99018233D03*
X120630002Y-95500000D03*
X121200000Y-95900000D03*
X118169998Y-102950000D03*
X116600000Y-103600000D03*
X116200000Y-104100000D03*
X115280529Y-102044131D03*
X115474999Y-101581767D03*
X115470423Y-101058361D03*
D18*
X133228000Y-104128000D02*
X133228000Y-104100000D01*
X133500004Y-96200004D02*
X133228000Y-96472008D01*
X133228000Y-96472008D02*
X133228000Y-104128000D01*
D19*
X130800000Y-97400000D02*
X130534998Y-97665002D01*
X130534998Y-97665002D02*
X130534998Y-104134998D01*
D18*
X126799996Y-96200004D02*
X133500004Y-96200004D01*
X123300000Y-99700000D02*
X126799996Y-96200004D01*
X122000000Y-99700000D02*
X123300000Y-99700000D01*
X121398612Y-98029617D02*
X121398612Y-99098612D01*
X121398612Y-99098612D02*
X122000000Y-99700000D01*
X105200000Y-99700000D02*
X105200000Y-98799986D01*
D19*
X128886396Y-103250000D02*
X129109777Y-103250000D01*
X127000000Y-97600000D02*
X127000000Y-101363604D01*
X127000000Y-101363604D02*
X128886396Y-103250000D01*
X131644735Y-96685001D02*
X131600000Y-96729736D01*
X131600000Y-96729736D02*
X131600000Y-101879697D01*
X131600000Y-101879697D02*
X131034998Y-102444699D01*
D18*
X111300000Y-107200000D02*
X114125000Y-107200000D01*
X120700000Y-98100000D02*
X114800000Y-92200000D01*
X102900000Y-103400000D02*
X105100000Y-105600000D01*
X114800000Y-92200000D02*
X104100000Y-92200000D01*
X102900000Y-93400000D02*
X102900000Y-103400000D01*
X104100000Y-92200000D02*
X102900000Y-93400000D01*
X114125000Y-107200000D02*
X114425000Y-106900000D01*
X109700000Y-105600000D02*
X111300000Y-107200000D01*
X121398612Y-98029617D02*
X121328229Y-98100000D01*
X105100000Y-105600000D02*
X109700000Y-105600000D01*
X121328229Y-98100000D02*
X120700000Y-98100000D01*
X113700000Y-100400000D02*
X113700000Y-102200000D01*
X116900000Y-102900000D02*
X117149996Y-103149996D01*
X113700000Y-102200000D02*
X114400000Y-102900000D01*
X111834314Y-99500000D02*
X112800000Y-99500000D01*
X117149996Y-103149996D02*
X117149996Y-103496899D01*
X110500000Y-98165686D02*
X111834314Y-99500000D01*
X112800000Y-99500000D02*
X113700000Y-100400000D01*
X114400000Y-102900000D02*
X116900000Y-102900000D01*
X110500000Y-97850000D02*
X110500000Y-98165686D01*
X111950000Y-99050000D02*
X112950000Y-99050000D01*
X117669958Y-102877634D02*
X117669958Y-103185310D01*
X117292324Y-102500000D02*
X117669958Y-102877634D01*
X111025001Y-97891574D02*
X111025001Y-98125001D01*
X114100000Y-101537086D02*
X115062914Y-102500000D01*
X111025001Y-98125001D02*
X111950000Y-99050000D01*
X114100000Y-100200000D02*
X114100000Y-101537086D01*
X115062914Y-102500000D02*
X117292324Y-102500000D01*
X112950000Y-99050000D02*
X114100000Y-100200000D01*
D19*
X128411748Y-96650000D02*
X128411748Y-100904640D01*
D18*
X129000000Y-104000000D02*
X129900000Y-103100000D01*
X129900000Y-103100000D02*
X129900000Y-101600000D01*
D19*
X128411748Y-100904640D02*
X128853554Y-101346446D01*
D18*
X123765686Y-104000000D02*
X129000000Y-104000000D01*
X119824067Y-100158381D02*
X119924067Y-100158381D01*
X115474988Y-100058379D02*
X119724065Y-100058379D01*
X128900000Y-101300000D02*
X128853554Y-101346446D01*
X129900000Y-101600000D02*
X129600000Y-101300000D01*
X129600000Y-101300000D02*
X128900000Y-101300000D01*
X119924067Y-100158381D02*
X123765686Y-104000000D01*
X119724065Y-100058379D02*
X119824067Y-100158381D01*
X119758381Y-100558381D02*
X123600000Y-104400000D01*
X115475224Y-100558381D02*
X119758381Y-100558381D01*
X123600000Y-104400000D02*
X130269996Y-104400000D01*
X130269996Y-104400000D02*
X130534998Y-104134998D01*
X117500000Y-91800000D02*
X117200000Y-91500000D01*
X117500000Y-93200000D02*
X117500000Y-91800000D01*
X114000000Y-94300000D02*
X108500004Y-94300000D01*
X115500000Y-94500000D02*
X114700000Y-93700000D01*
X115500000Y-95600000D02*
X115500000Y-94500000D01*
X109200000Y-93700000D02*
X108900000Y-93400000D01*
X114700000Y-93700000D02*
X109200000Y-93700000D01*
X109434315Y-97400000D02*
X103800000Y-97400000D01*
X112815200Y-97549514D02*
X112265686Y-97000000D01*
X103800000Y-97400000D02*
X103400000Y-97000000D01*
X114600000Y-97549514D02*
X112815200Y-97549514D01*
X109834315Y-97000000D02*
X109434315Y-97400000D01*
X103400000Y-97000000D02*
X103400000Y-94800000D01*
X112265686Y-97000000D02*
X109834315Y-97000000D01*
X109700000Y-97900000D02*
X110200000Y-97400000D01*
X111150000Y-100150000D02*
X109700000Y-98700000D01*
X112450000Y-100150000D02*
X111150000Y-100150000D01*
X113180000Y-105820000D02*
X113180000Y-100880000D01*
X114656832Y-98200000D02*
X116150000Y-96706832D01*
X112400000Y-106600000D02*
X113180000Y-105820000D01*
X112900000Y-98200000D02*
X114656832Y-98200000D01*
X116150000Y-96706832D02*
X116150000Y-95865000D01*
X110200000Y-97400000D02*
X112100000Y-97400000D01*
X113180000Y-100880000D02*
X112450000Y-100150000D01*
X112100000Y-97400000D02*
X112900000Y-98200000D01*
X109700000Y-98700000D02*
X109700000Y-97900000D01*
X122100000Y-99069998D02*
X123164317Y-99069998D01*
X123164317Y-99069998D02*
X126734315Y-95500000D01*
X133710000Y-95500000D02*
X134290000Y-94920000D01*
X126734315Y-95500000D02*
X133710000Y-95500000D01*
X129200000Y-92380000D02*
X127680000Y-93900000D01*
X127680000Y-93900000D02*
X125531801Y-93900000D01*
X122744205Y-96687596D02*
X122744205Y-96919397D01*
X125531801Y-93900000D02*
X122744205Y-96687596D01*
X132000000Y-94700000D02*
X134300000Y-92400000D01*
X126968629Y-94700000D02*
X132000000Y-94700000D01*
X122100000Y-98569998D02*
X123098631Y-98569998D01*
X123098631Y-98569998D02*
X126968629Y-94700000D01*
X123262184Y-97437816D02*
X122791472Y-97437816D01*
X131700000Y-92400000D02*
X129800000Y-94300000D01*
X126400000Y-94300000D02*
X123262184Y-97437816D01*
X129800000Y-94300000D02*
X126400000Y-94300000D01*
X114600002Y-94700002D02*
X112750004Y-96550000D01*
X112750004Y-96550000D02*
X111005204Y-96550000D01*
X110150000Y-95400000D02*
X109000000Y-96550000D01*
X111600000Y-95400000D02*
X110150000Y-95400000D01*
X110692810Y-103600000D02*
X110070268Y-102977458D01*
X111600000Y-103600000D02*
X110692810Y-103600000D01*
X111970004Y-102970004D02*
X111000160Y-102970004D01*
X112600000Y-103600000D02*
X111970004Y-102970004D01*
D19*
X127800000Y-97259420D02*
X127800000Y-101400006D01*
X127190580Y-96650000D02*
X127800000Y-97259420D01*
X127800000Y-101400006D02*
X128899997Y-102500003D01*
D18*
X133092612Y-105945239D02*
X132400000Y-105252627D01*
X132400000Y-105252627D02*
X132400000Y-99200000D01*
X133392460Y-105945239D02*
X133092612Y-105945239D01*
X121100000Y-92900000D02*
X121600000Y-92400000D01*
X121100000Y-95100000D02*
X121100000Y-92900000D01*
X120700000Y-95500000D02*
X121100000Y-95100000D01*
X120630002Y-95500000D02*
X120700000Y-95500000D01*
X122000000Y-95900000D02*
X124130000Y-93770000D01*
X121200000Y-95900000D02*
X122000000Y-95900000D01*
X124130000Y-93770000D02*
X124130000Y-92380000D01*
X125200000Y-106100000D02*
X120600000Y-106100000D01*
X120600000Y-106100000D02*
X118219998Y-103719998D01*
X118219998Y-103719998D02*
X118219998Y-103000000D01*
X118219998Y-103000000D02*
X118169998Y-102950000D01*
X126800000Y-107700000D02*
X125200000Y-106100000D01*
X119638000Y-106638000D02*
X123238000Y-106638000D01*
X116600000Y-103600000D02*
X119638000Y-106638000D01*
X123238000Y-106638000D02*
X124300000Y-107700000D01*
X116200000Y-104100000D02*
X119800000Y-107700000D01*
X119800000Y-107700000D02*
X121800000Y-107700000D01*
X121900000Y-105600000D02*
X119119998Y-102819998D01*
X129300000Y-106643870D02*
X128256130Y-105600000D01*
X115306770Y-102070372D02*
X115280529Y-102044131D01*
X118870372Y-102070372D02*
X115306770Y-102070372D01*
X128256130Y-105600000D02*
X121900000Y-105600000D01*
X129300000Y-107721500D02*
X129300000Y-106643870D01*
X119119998Y-102819998D02*
X119119998Y-102319998D01*
X119119998Y-102319998D02*
X118870372Y-102070372D01*
X129278500Y-105200000D02*
X131800000Y-107721500D01*
X115556766Y-101500000D02*
X119568628Y-101500000D01*
X123268628Y-105200000D02*
X129278500Y-105200000D01*
X115474999Y-101581767D02*
X115556766Y-101500000D01*
X119568628Y-101500000D02*
X123268628Y-105200000D01*
X115512062Y-101100000D02*
X119734314Y-101100000D01*
X115470423Y-101058361D02*
X115512062Y-101100000D01*
X123434314Y-104800000D02*
X131378500Y-104800000D01*
X131378500Y-104800000D02*
X134300000Y-107721500D01*
X119734314Y-101100000D02*
X123434314Y-104800000D01*
G04 #@! TA.AperFunction,Conductor*
G36*
X116811777Y-91247185D02*
G01*
X116857532Y-91299989D01*
X116867476Y-91369147D01*
X116862669Y-91389820D01*
X116862498Y-91390345D01*
X116845131Y-91499997D01*
X116845131Y-91500002D01*
X116862498Y-91609658D01*
X116912904Y-91708585D01*
X116912909Y-91708592D01*
X116991407Y-91787090D01*
X116991410Y-91787092D01*
X116991413Y-91787095D01*
X117090339Y-91837500D01*
X117090340Y-91837500D01*
X117094900Y-91838982D01*
X117144260Y-91869231D01*
X117163181Y-91888152D01*
X117196666Y-91949475D01*
X117199500Y-91975833D01*
X117199500Y-92987951D01*
X117185985Y-93044245D01*
X117162499Y-93090338D01*
X117145131Y-93199997D01*
X117145131Y-93200002D01*
X117162498Y-93309658D01*
X117212904Y-93408585D01*
X117212909Y-93408592D01*
X117291407Y-93487090D01*
X117291410Y-93487092D01*
X117291413Y-93487095D01*
X117364768Y-93524471D01*
X117390341Y-93537501D01*
X117499998Y-93554869D01*
X117500000Y-93554869D01*
X117500002Y-93554869D01*
X117609658Y-93537501D01*
X117609659Y-93537500D01*
X117609661Y-93537500D01*
X117708587Y-93487095D01*
X117787095Y-93408587D01*
X117837500Y-93309661D01*
X117837500Y-93309659D01*
X117837501Y-93309658D01*
X117854869Y-93200002D01*
X117854869Y-93199997D01*
X117837500Y-93090338D01*
X117814015Y-93044245D01*
X117800500Y-92987951D01*
X117800500Y-91995545D01*
X117820185Y-91928506D01*
X117872989Y-91882751D01*
X117942147Y-91872807D01*
X118005703Y-91901832D01*
X118012181Y-91907864D01*
X118091407Y-91987090D01*
X118091410Y-91987092D01*
X118091413Y-91987095D01*
X118190339Y-92037500D01*
X118190341Y-92037501D01*
X118299998Y-92054869D01*
X118300000Y-92054869D01*
X118300002Y-92054869D01*
X118409658Y-92037501D01*
X118409659Y-92037500D01*
X118409661Y-92037500D01*
X118508587Y-91987095D01*
X118587095Y-91908587D01*
X118637500Y-91809661D01*
X118637500Y-91809659D01*
X118637501Y-91809658D01*
X118654869Y-91700002D01*
X118654869Y-91699997D01*
X118637501Y-91590341D01*
X118591470Y-91500000D01*
X118587095Y-91491413D01*
X118587092Y-91491410D01*
X118587090Y-91491407D01*
X118534864Y-91439181D01*
X118501379Y-91377858D01*
X118506363Y-91308166D01*
X118548235Y-91252233D01*
X118613699Y-91227816D01*
X118622545Y-91227500D01*
X120513500Y-91227500D01*
X120580539Y-91247185D01*
X120626294Y-91299989D01*
X120637500Y-91351500D01*
X120637500Y-92346624D01*
X120636903Y-92358778D01*
X120632843Y-92399999D01*
X120651426Y-92588681D01*
X120696217Y-92736340D01*
X120704833Y-92764743D01*
X120706464Y-92770118D01*
X120735477Y-92824396D01*
X120784858Y-92916783D01*
X120799500Y-92975234D01*
X120799500Y-93539462D01*
X120779815Y-93606501D01*
X120727011Y-93652256D01*
X120657853Y-93662200D01*
X120656103Y-93661935D01*
X120550003Y-93645131D01*
X120549998Y-93645131D01*
X120440341Y-93662498D01*
X120341414Y-93712904D01*
X120341407Y-93712909D01*
X120262909Y-93791407D01*
X120262904Y-93791414D01*
X120212498Y-93890341D01*
X120195131Y-93999997D01*
X120195131Y-94000002D01*
X120212498Y-94109658D01*
X120262904Y-94208585D01*
X120262909Y-94208592D01*
X120341407Y-94287090D01*
X120341411Y-94287093D01*
X120341413Y-94287095D01*
X120341415Y-94287096D01*
X120346166Y-94289517D01*
X120396960Y-94337492D01*
X120413754Y-94405314D01*
X120391215Y-94471448D01*
X120346166Y-94510483D01*
X120341415Y-94512903D01*
X120341407Y-94512909D01*
X120262909Y-94591407D01*
X120262904Y-94591414D01*
X120212498Y-94690341D01*
X120195131Y-94799997D01*
X120195131Y-94800002D01*
X120212498Y-94909658D01*
X120262904Y-95008585D01*
X120262909Y-95008592D01*
X120341409Y-95087092D01*
X120343157Y-95088362D01*
X120344767Y-95090450D01*
X120348313Y-95093996D01*
X120347854Y-95094454D01*
X120385824Y-95143691D01*
X120391805Y-95213305D01*
X120359200Y-95275100D01*
X120357957Y-95276361D01*
X120342912Y-95291406D01*
X120342906Y-95291414D01*
X120292500Y-95390341D01*
X120275133Y-95499997D01*
X120275133Y-95500002D01*
X120292500Y-95609658D01*
X120342906Y-95708585D01*
X120342911Y-95708592D01*
X120421409Y-95787090D01*
X120421412Y-95787092D01*
X120421415Y-95787095D01*
X120463592Y-95808585D01*
X120520343Y-95837501D01*
X120630000Y-95854869D01*
X120630002Y-95854869D01*
X120630003Y-95854869D01*
X120710418Y-95842132D01*
X120779712Y-95851086D01*
X120833164Y-95896082D01*
X120852290Y-95945206D01*
X120862498Y-96009658D01*
X120912904Y-96108585D01*
X120912909Y-96108592D01*
X120991407Y-96187090D01*
X120991410Y-96187092D01*
X120991413Y-96187095D01*
X121042610Y-96213181D01*
X121090341Y-96237501D01*
X121199998Y-96254869D01*
X121200000Y-96254869D01*
X121200002Y-96254869D01*
X121309657Y-96237501D01*
X121309658Y-96237500D01*
X121309661Y-96237500D01*
X121355755Y-96214013D01*
X121412048Y-96200500D01*
X122039560Y-96200500D01*
X122039562Y-96200500D01*
X122115989Y-96180021D01*
X122184511Y-96140460D01*
X122240460Y-96084511D01*
X124370460Y-93954511D01*
X124371423Y-93952843D01*
X124410021Y-93885989D01*
X124430500Y-93809562D01*
X124430500Y-93385070D01*
X124450185Y-93318031D01*
X124496047Y-93275712D01*
X124653758Y-93191413D01*
X124667324Y-93184162D01*
X124813883Y-93063883D01*
X124934162Y-92917324D01*
X125023537Y-92750115D01*
X125078573Y-92568683D01*
X125097157Y-92380000D01*
X125093097Y-92338778D01*
X125092500Y-92326624D01*
X125092500Y-91351500D01*
X125112185Y-91284461D01*
X125164989Y-91238706D01*
X125216500Y-91227500D01*
X125583500Y-91227500D01*
X125650539Y-91247185D01*
X125696294Y-91299989D01*
X125707500Y-91351500D01*
X125707500Y-92326624D01*
X125706903Y-92338778D01*
X125702843Y-92379999D01*
X125721426Y-92568681D01*
X125721427Y-92568683D01*
X125776463Y-92750115D01*
X125776464Y-92750118D01*
X125776465Y-92750119D01*
X125776466Y-92750122D01*
X125865834Y-92917318D01*
X125865838Y-92917325D01*
X125986116Y-93063883D01*
X126132674Y-93184161D01*
X126132681Y-93184165D01*
X126299877Y-93273533D01*
X126299878Y-93273533D01*
X126299885Y-93273537D01*
X126481317Y-93328573D01*
X126481316Y-93328573D01*
X126498233Y-93330239D01*
X126670000Y-93347157D01*
X126858683Y-93328573D01*
X127040115Y-93273537D01*
X127207324Y-93184162D01*
X127353883Y-93063883D01*
X127474162Y-92917324D01*
X127563537Y-92750115D01*
X127618573Y-92568683D01*
X127637157Y-92380000D01*
X127633097Y-92338778D01*
X127632500Y-92326624D01*
X127632500Y-91351500D01*
X127652185Y-91284461D01*
X127704989Y-91238706D01*
X127756500Y-91227500D01*
X128113500Y-91227500D01*
X128180539Y-91247185D01*
X128226294Y-91299989D01*
X128237500Y-91351500D01*
X128237500Y-92326624D01*
X128236903Y-92338778D01*
X128232843Y-92379999D01*
X128251426Y-92568681D01*
X128307802Y-92754529D01*
X128308425Y-92824396D01*
X128276822Y-92878205D01*
X127591848Y-93563181D01*
X127530525Y-93596666D01*
X127504167Y-93599500D01*
X125492239Y-93599500D01*
X125424840Y-93617559D01*
X125415808Y-93619980D01*
X125363815Y-93649999D01*
X125347293Y-93659537D01*
X125347288Y-93659541D01*
X122503746Y-96503083D01*
X122503740Y-96503091D01*
X122464187Y-96571600D01*
X122464184Y-96571605D01*
X122457519Y-96596479D01*
X122445282Y-96642151D01*
X122443705Y-96648035D01*
X122443705Y-96707348D01*
X122430190Y-96763642D01*
X122406704Y-96809735D01*
X122389336Y-96919394D01*
X122389336Y-96919399D01*
X122406703Y-97029055D01*
X122457109Y-97127982D01*
X122457114Y-97127989D01*
X122458892Y-97129767D01*
X122460363Y-97132461D01*
X122462849Y-97135883D01*
X122462406Y-97136204D01*
X122492377Y-97191090D01*
X122487393Y-97260782D01*
X122481697Y-97273741D01*
X122453970Y-97328158D01*
X122436603Y-97437813D01*
X122436603Y-97437818D01*
X122453970Y-97547474D01*
X122504376Y-97646401D01*
X122504381Y-97646408D01*
X122582879Y-97724906D01*
X122582882Y-97724908D01*
X122582885Y-97724911D01*
X122657995Y-97763181D01*
X122681813Y-97775317D01*
X122791470Y-97792685D01*
X122791472Y-97792685D01*
X122791474Y-97792685D01*
X122901129Y-97775317D01*
X122901130Y-97775316D01*
X122901133Y-97775316D01*
X122947227Y-97751829D01*
X123003520Y-97738316D01*
X123205980Y-97738316D01*
X123273019Y-97758001D01*
X123318774Y-97810805D01*
X123328718Y-97879963D01*
X123299693Y-97943519D01*
X123293661Y-97949997D01*
X123010479Y-98233179D01*
X122949156Y-98266664D01*
X122922798Y-98269498D01*
X122312048Y-98269498D01*
X122255755Y-98255984D01*
X122246966Y-98251506D01*
X122209661Y-98232498D01*
X122209660Y-98232497D01*
X122209657Y-98232496D01*
X122100002Y-98215129D01*
X122099998Y-98215129D01*
X121990341Y-98232496D01*
X121914572Y-98271103D01*
X121845903Y-98283999D01*
X121781163Y-98257722D01*
X121740906Y-98200616D01*
X121735805Y-98141220D01*
X121753481Y-98029619D01*
X121753481Y-98029614D01*
X121736113Y-97919958D01*
X121719327Y-97887014D01*
X121685707Y-97821030D01*
X121685704Y-97821027D01*
X121685702Y-97821024D01*
X121607204Y-97742526D01*
X121607200Y-97742523D01*
X121607199Y-97742522D01*
X121584851Y-97731135D01*
X121508270Y-97692115D01*
X121398614Y-97674748D01*
X121398610Y-97674748D01*
X121288953Y-97692115D01*
X121190026Y-97742521D01*
X121190019Y-97742526D01*
X121169365Y-97763181D01*
X121108042Y-97796666D01*
X121081684Y-97799500D01*
X120875833Y-97799500D01*
X120808794Y-97779815D01*
X120788152Y-97763181D01*
X119591521Y-96566550D01*
X119558036Y-96505227D01*
X119563020Y-96435535D01*
X119604892Y-96379602D01*
X119660735Y-96358773D01*
X119660359Y-96356396D01*
X119779656Y-96337501D01*
X119779657Y-96337500D01*
X119779659Y-96337500D01*
X119878585Y-96287095D01*
X119957093Y-96208587D01*
X120007498Y-96109661D01*
X120007498Y-96109659D01*
X120007499Y-96109658D01*
X120024867Y-96000002D01*
X120024867Y-95999997D01*
X120007499Y-95890341D01*
X119987498Y-95851086D01*
X119957093Y-95791413D01*
X119957090Y-95791410D01*
X119957088Y-95791407D01*
X119878590Y-95712909D01*
X119878586Y-95712906D01*
X119878585Y-95712905D01*
X119870110Y-95708587D01*
X119779656Y-95662498D01*
X119670000Y-95645131D01*
X119669996Y-95645131D01*
X119560339Y-95662498D01*
X119461412Y-95712904D01*
X119461405Y-95712909D01*
X119382907Y-95791407D01*
X119382902Y-95791414D01*
X119332496Y-95890341D01*
X119313602Y-96009639D01*
X119309774Y-96009032D01*
X119295444Y-96057835D01*
X119242640Y-96103590D01*
X119173482Y-96113534D01*
X119109926Y-96084509D01*
X119103448Y-96078477D01*
X115169231Y-92144260D01*
X115138982Y-92094900D01*
X115137500Y-92090340D01*
X115137500Y-92090339D01*
X115087095Y-91991413D01*
X115087092Y-91991410D01*
X115087090Y-91991407D01*
X115008592Y-91912909D01*
X115008588Y-91912906D01*
X115008587Y-91912905D01*
X115000112Y-91908587D01*
X114909658Y-91862498D01*
X114800002Y-91845131D01*
X114799998Y-91845131D01*
X114690342Y-91862498D01*
X114644245Y-91885986D01*
X114587952Y-91899500D01*
X104060438Y-91899500D01*
X104029224Y-91907864D01*
X103984009Y-91919979D01*
X103984008Y-91919980D01*
X103915688Y-91959424D01*
X103915532Y-91959515D01*
X103915489Y-91959540D01*
X103915487Y-91959541D01*
X103915483Y-91959544D01*
X102715489Y-93159540D01*
X102659541Y-93215487D01*
X102659535Y-93215495D01*
X102619982Y-93284004D01*
X102619979Y-93284009D01*
X102609083Y-93324674D01*
X102599500Y-93360438D01*
X102599500Y-103439562D01*
X102612431Y-103487819D01*
X102619979Y-103515990D01*
X102619980Y-103515991D01*
X102628689Y-103531075D01*
X102633945Y-103540179D01*
X102659540Y-103584511D01*
X104859540Y-105784511D01*
X104915489Y-105840460D01*
X104915491Y-105840461D01*
X104915495Y-105840464D01*
X104984004Y-105880017D01*
X104984011Y-105880021D01*
X105060438Y-105900500D01*
X109524167Y-105900500D01*
X109591206Y-105920185D01*
X109611848Y-105936819D01*
X111115489Y-107440460D01*
X111174829Y-107474720D01*
X111184008Y-107480020D01*
X111184012Y-107480022D01*
X111260438Y-107500500D01*
X111260440Y-107500500D01*
X114164560Y-107500500D01*
X114164562Y-107500500D01*
X114240989Y-107480021D01*
X114309511Y-107440460D01*
X114365460Y-107384511D01*
X114480742Y-107269228D01*
X114530107Y-107238979D01*
X114534656Y-107237500D01*
X114534661Y-107237500D01*
X114633587Y-107187095D01*
X114712095Y-107108587D01*
X114762500Y-107009661D01*
X114762500Y-107009659D01*
X114762501Y-107009658D01*
X114779869Y-106900002D01*
X114779869Y-106899997D01*
X114762501Y-106790341D01*
X114762500Y-106790339D01*
X114712095Y-106691413D01*
X114712092Y-106691410D01*
X114712090Y-106691407D01*
X114633592Y-106612909D01*
X114633588Y-106612906D01*
X114633587Y-106612905D01*
X114608263Y-106600002D01*
X114534658Y-106562498D01*
X114425002Y-106545131D01*
X114424998Y-106545131D01*
X114315341Y-106562498D01*
X114216414Y-106612904D01*
X114216407Y-106612909D01*
X114137909Y-106691407D01*
X114137906Y-106691412D01*
X114137905Y-106691413D01*
X114111142Y-106743938D01*
X114087496Y-106790346D01*
X114086016Y-106794902D01*
X114055774Y-106844253D01*
X114036852Y-106863177D01*
X113975530Y-106896665D01*
X113949166Y-106899500D01*
X112843121Y-106899500D01*
X112776082Y-106879815D01*
X112730327Y-106827011D01*
X112720383Y-106757853D01*
X112732635Y-106719207D01*
X112737500Y-106709661D01*
X112737501Y-106709652D01*
X112738980Y-106705103D01*
X112769229Y-106655740D01*
X113420460Y-106004511D01*
X113460022Y-105935988D01*
X113480500Y-105859562D01*
X113480500Y-105780438D01*
X113480500Y-103360402D01*
X113500185Y-103293363D01*
X113552989Y-103247608D01*
X113622147Y-103237664D01*
X113660794Y-103249918D01*
X113665707Y-103252421D01*
X113672142Y-103255700D01*
X113781799Y-103273068D01*
X113781801Y-103273068D01*
X113781803Y-103273068D01*
X113891459Y-103255700D01*
X113891460Y-103255699D01*
X113891462Y-103255699D01*
X113990388Y-103205294D01*
X114047913Y-103147768D01*
X114109232Y-103114285D01*
X114178924Y-103119269D01*
X114211116Y-103137104D01*
X114211883Y-103137693D01*
X114253064Y-103194136D01*
X114257192Y-103263884D01*
X114224041Y-103323721D01*
X114166430Y-103381331D01*
X114166428Y-103381335D01*
X114116022Y-103480262D01*
X114098655Y-103589918D01*
X114098655Y-103589923D01*
X114116022Y-103699579D01*
X114166428Y-103798506D01*
X114166433Y-103798513D01*
X114244931Y-103877011D01*
X114244934Y-103877013D01*
X114244937Y-103877016D01*
X114317550Y-103914014D01*
X114343865Y-103927422D01*
X114453522Y-103944790D01*
X114453524Y-103944790D01*
X114453526Y-103944790D01*
X114563182Y-103927422D01*
X114563183Y-103927421D01*
X114563185Y-103927421D01*
X114662111Y-103877016D01*
X114740619Y-103798508D01*
X114791024Y-103699582D01*
X114791024Y-103699580D01*
X114793525Y-103691885D01*
X114832964Y-103634210D01*
X114897323Y-103607014D01*
X114966169Y-103618930D01*
X114985028Y-103632428D01*
X114985808Y-103631356D01*
X114993704Y-103637092D01*
X114993707Y-103637095D01*
X115044904Y-103663181D01*
X115092635Y-103687501D01*
X115202292Y-103704869D01*
X115202294Y-103704869D01*
X115202296Y-103704869D01*
X115311952Y-103687501D01*
X115311953Y-103687500D01*
X115311955Y-103687500D01*
X115410881Y-103637095D01*
X115489389Y-103558587D01*
X115539794Y-103459661D01*
X115539794Y-103459659D01*
X115539795Y-103459658D01*
X115557163Y-103350002D01*
X115557163Y-103350000D01*
X115556196Y-103343895D01*
X115565152Y-103274604D01*
X115610149Y-103221152D01*
X115676900Y-103200513D01*
X115678670Y-103200500D01*
X116208248Y-103200500D01*
X116275287Y-103220185D01*
X116321042Y-103272989D01*
X116330986Y-103342147D01*
X116315003Y-103381528D01*
X116317336Y-103382717D01*
X116262498Y-103490341D01*
X116245839Y-103595527D01*
X116245131Y-103600000D01*
X116246170Y-103606560D01*
X116247053Y-103612133D01*
X116238097Y-103681427D01*
X116193100Y-103734878D01*
X116143979Y-103754003D01*
X116090341Y-103762499D01*
X115991414Y-103812904D01*
X115991407Y-103812909D01*
X115912909Y-103891407D01*
X115912904Y-103891414D01*
X115862498Y-103990341D01*
X115845131Y-104099997D01*
X115845131Y-104100002D01*
X115862498Y-104209658D01*
X115912904Y-104308585D01*
X115912909Y-104308592D01*
X115991407Y-104387090D01*
X115991410Y-104387092D01*
X115991413Y-104387095D01*
X116090339Y-104437500D01*
X116090340Y-104437500D01*
X116094900Y-104438982D01*
X116144260Y-104469231D01*
X119559540Y-107884511D01*
X119615489Y-107940460D01*
X119615491Y-107940461D01*
X119615495Y-107940464D01*
X119684004Y-107980017D01*
X119684011Y-107980021D01*
X119760438Y-108000500D01*
X120713500Y-108000500D01*
X120780539Y-108020185D01*
X120826294Y-108072989D01*
X120837500Y-108124500D01*
X120837500Y-108648500D01*
X120817815Y-108715539D01*
X120765011Y-108761294D01*
X120713500Y-108772500D01*
X101304875Y-108772500D01*
X101295146Y-108772118D01*
X101126308Y-108758830D01*
X101107090Y-108755786D01*
X100947167Y-108717392D01*
X100928661Y-108711379D01*
X100776710Y-108648438D01*
X100759376Y-108639606D01*
X100619133Y-108553665D01*
X100603403Y-108542236D01*
X100478338Y-108435421D01*
X100464578Y-108421661D01*
X100401814Y-108348173D01*
X100357760Y-108296592D01*
X100346336Y-108280869D01*
X100260390Y-108140618D01*
X100251561Y-108123289D01*
X100230726Y-108072989D01*
X100188617Y-107971331D01*
X100182609Y-107952839D01*
X100144212Y-107792904D01*
X100141169Y-107773690D01*
X100127882Y-107604852D01*
X100127500Y-107595124D01*
X100127500Y-106649997D01*
X106895131Y-106649997D01*
X106895131Y-106650002D01*
X106912498Y-106759658D01*
X106962904Y-106858585D01*
X106962909Y-106858592D01*
X107041407Y-106937090D01*
X107041410Y-106937092D01*
X107041413Y-106937095D01*
X107115451Y-106974819D01*
X107140341Y-106987501D01*
X107249998Y-107004869D01*
X107250000Y-107004869D01*
X107250002Y-107004869D01*
X107359658Y-106987501D01*
X107359659Y-106987500D01*
X107359661Y-106987500D01*
X107458587Y-106937095D01*
X107537095Y-106858587D01*
X107587500Y-106759661D01*
X107587500Y-106759659D01*
X107587501Y-106759658D01*
X107604869Y-106650002D01*
X107604869Y-106649997D01*
X107895131Y-106649997D01*
X107895131Y-106650002D01*
X107912498Y-106759658D01*
X107962904Y-106858585D01*
X107962909Y-106858592D01*
X108041407Y-106937090D01*
X108041410Y-106937092D01*
X108041413Y-106937095D01*
X108115451Y-106974819D01*
X108140341Y-106987501D01*
X108249998Y-107004869D01*
X108250000Y-107004869D01*
X108250002Y-107004869D01*
X108359658Y-106987501D01*
X108359659Y-106987500D01*
X108359661Y-106987500D01*
X108458587Y-106937095D01*
X108537095Y-106858587D01*
X108587500Y-106759661D01*
X108587500Y-106759659D01*
X108587501Y-106759658D01*
X108604869Y-106650002D01*
X108604869Y-106649997D01*
X108587501Y-106540341D01*
X108557350Y-106481166D01*
X108537095Y-106441413D01*
X108537092Y-106441410D01*
X108537090Y-106441407D01*
X108458592Y-106362909D01*
X108458588Y-106362906D01*
X108458587Y-106362905D01*
X108408727Y-106337500D01*
X108359658Y-106312498D01*
X108250002Y-106295131D01*
X108249998Y-106295131D01*
X108140341Y-106312498D01*
X108041414Y-106362904D01*
X108041407Y-106362909D01*
X107962909Y-106441407D01*
X107962904Y-106441414D01*
X107912498Y-106540341D01*
X107895131Y-106649997D01*
X107604869Y-106649997D01*
X107587501Y-106540341D01*
X107557350Y-106481166D01*
X107537095Y-106441413D01*
X107537092Y-106441410D01*
X107537090Y-106441407D01*
X107458592Y-106362909D01*
X107458588Y-106362906D01*
X107458587Y-106362905D01*
X107408727Y-106337500D01*
X107359658Y-106312498D01*
X107250002Y-106295131D01*
X107249998Y-106295131D01*
X107140341Y-106312498D01*
X107041414Y-106362904D01*
X107041407Y-106362909D01*
X106962909Y-106441407D01*
X106962904Y-106441414D01*
X106912498Y-106540341D01*
X106895131Y-106649997D01*
X100127500Y-106649997D01*
X100127500Y-94022545D01*
X100147185Y-93955506D01*
X100199989Y-93909751D01*
X100269147Y-93899807D01*
X100332703Y-93928832D01*
X100339181Y-93934864D01*
X100391407Y-93987090D01*
X100391410Y-93987092D01*
X100391413Y-93987095D01*
X100490339Y-94037500D01*
X100490341Y-94037501D01*
X100599998Y-94054869D01*
X100600000Y-94054869D01*
X100600002Y-94054869D01*
X100709658Y-94037501D01*
X100709659Y-94037500D01*
X100709661Y-94037500D01*
X100808587Y-93987095D01*
X100887095Y-93908587D01*
X100937500Y-93809661D01*
X100937500Y-93809659D01*
X100937501Y-93809658D01*
X100954869Y-93700002D01*
X100954869Y-93699997D01*
X100937501Y-93590341D01*
X100910577Y-93537500D01*
X100887095Y-93491413D01*
X100887092Y-93491410D01*
X100887090Y-93491407D01*
X100808592Y-93412909D01*
X100808588Y-93412906D01*
X100808587Y-93412905D01*
X100800112Y-93408587D01*
X100709658Y-93362498D01*
X100600002Y-93345131D01*
X100599998Y-93345131D01*
X100490341Y-93362498D01*
X100391414Y-93412904D01*
X100391407Y-93412909D01*
X100339181Y-93465136D01*
X100277858Y-93498621D01*
X100208166Y-93493637D01*
X100152233Y-93451765D01*
X100127816Y-93386301D01*
X100127500Y-93377455D01*
X100127500Y-92404875D01*
X100127882Y-92395147D01*
X100133275Y-92326624D01*
X100141169Y-92226303D01*
X100144211Y-92207097D01*
X100182610Y-92047156D01*
X100188616Y-92028671D01*
X100251562Y-91876707D01*
X100260387Y-91859386D01*
X100346340Y-91719124D01*
X100357755Y-91703413D01*
X100464584Y-91578331D01*
X100478331Y-91564584D01*
X100603413Y-91457755D01*
X100619124Y-91446340D01*
X100759386Y-91360387D01*
X100776707Y-91351562D01*
X100928671Y-91288616D01*
X100947156Y-91282610D01*
X101107097Y-91244211D01*
X101126303Y-91241169D01*
X101276938Y-91229315D01*
X101295147Y-91227882D01*
X101304875Y-91227500D01*
X101329101Y-91227500D01*
X116744738Y-91227500D01*
X116811777Y-91247185D01*
G37*
G04 #@! TD.AperFunction*
G04 #@! TA.AperFunction,Conductor*
G36*
X103405703Y-97431120D02*
G01*
X103412181Y-97437152D01*
X103559540Y-97584511D01*
X103615489Y-97640460D01*
X103615491Y-97640461D01*
X103615495Y-97640464D01*
X103684004Y-97680017D01*
X103684011Y-97680021D01*
X103760438Y-97700500D01*
X103760440Y-97700500D01*
X109280755Y-97700500D01*
X109347794Y-97720185D01*
X109393549Y-97772989D01*
X109403493Y-97842147D01*
X109400531Y-97856590D01*
X109399500Y-97860438D01*
X109399500Y-98739562D01*
X109413152Y-98790513D01*
X109419979Y-98815990D01*
X109444320Y-98858148D01*
X109444321Y-98858152D01*
X109444322Y-98858152D01*
X109459540Y-98884511D01*
X110965489Y-100390460D01*
X111034012Y-100430022D01*
X111110438Y-100450500D01*
X112274167Y-100450500D01*
X112341206Y-100470185D01*
X112361848Y-100486819D01*
X112843181Y-100968152D01*
X112876666Y-101029475D01*
X112879500Y-101055833D01*
X112879500Y-103147012D01*
X112859815Y-103214051D01*
X112807011Y-103259806D01*
X112737853Y-103269750D01*
X112717182Y-103264943D01*
X112705102Y-103261018D01*
X112655739Y-103230768D01*
X112154516Y-102729545D01*
X112154511Y-102729541D01*
X112137250Y-102719576D01*
X112137249Y-102719575D01*
X112137248Y-102719575D01*
X112106852Y-102702026D01*
X112085994Y-102689983D01*
X112059179Y-102682798D01*
X112009566Y-102669504D01*
X112009564Y-102669504D01*
X111212208Y-102669504D01*
X111155915Y-102655990D01*
X111125912Y-102640703D01*
X111109821Y-102632504D01*
X111109820Y-102632503D01*
X111109817Y-102632502D01*
X111000162Y-102615135D01*
X111000158Y-102615135D01*
X110890501Y-102632502D01*
X110791574Y-102682908D01*
X110791567Y-102682913D01*
X110713069Y-102761411D01*
X110713064Y-102761418D01*
X110662659Y-102860344D01*
X110661825Y-102865612D01*
X110631893Y-102928745D01*
X110572580Y-102965674D01*
X110502717Y-102964674D01*
X110451671Y-102933890D01*
X110439499Y-102921718D01*
X110409250Y-102872358D01*
X110407768Y-102867798D01*
X110407768Y-102867797D01*
X110357363Y-102768871D01*
X110357360Y-102768868D01*
X110357358Y-102768865D01*
X110278860Y-102690367D01*
X110278856Y-102690364D01*
X110278855Y-102690363D01*
X110264571Y-102683085D01*
X110179926Y-102639956D01*
X110070270Y-102622589D01*
X110070266Y-102622589D01*
X109960609Y-102639956D01*
X109861682Y-102690362D01*
X109861675Y-102690367D01*
X109783177Y-102768865D01*
X109783172Y-102768872D01*
X109732766Y-102867799D01*
X109715399Y-102977455D01*
X109715399Y-102977460D01*
X109732766Y-103087116D01*
X109783172Y-103186043D01*
X109783177Y-103186050D01*
X109861675Y-103264548D01*
X109861678Y-103264550D01*
X109861681Y-103264553D01*
X109960607Y-103314958D01*
X109960608Y-103314958D01*
X109965168Y-103316440D01*
X110014528Y-103346689D01*
X110452350Y-103784511D01*
X110508299Y-103840460D01*
X110508301Y-103840461D01*
X110508305Y-103840464D01*
X110571616Y-103877016D01*
X110576821Y-103880021D01*
X110576828Y-103880023D01*
X110584328Y-103883130D01*
X110583511Y-103885100D01*
X110633549Y-103915590D01*
X110664086Y-103978432D01*
X110655801Y-104047809D01*
X110611323Y-104101693D01*
X110598106Y-104109494D01*
X110591416Y-104112902D01*
X110591407Y-104112909D01*
X110512909Y-104191407D01*
X110512904Y-104191414D01*
X110462498Y-104290341D01*
X110445131Y-104399997D01*
X110445131Y-104400002D01*
X110462498Y-104509658D01*
X110512904Y-104608585D01*
X110512909Y-104608592D01*
X110591407Y-104687090D01*
X110591410Y-104687092D01*
X110591413Y-104687095D01*
X110690339Y-104737500D01*
X110690341Y-104737501D01*
X110799998Y-104754869D01*
X110800000Y-104754869D01*
X110800002Y-104754869D01*
X110909658Y-104737501D01*
X110909659Y-104737500D01*
X110909661Y-104737500D01*
X111008587Y-104687095D01*
X111087095Y-104608587D01*
X111137500Y-104509661D01*
X111137500Y-104509659D01*
X111137501Y-104509658D01*
X111154869Y-104400002D01*
X111154869Y-104399997D01*
X111137501Y-104290341D01*
X111135402Y-104286222D01*
X111087095Y-104191413D01*
X111087092Y-104191410D01*
X111087090Y-104191407D01*
X111007864Y-104112181D01*
X110974379Y-104050858D01*
X110979363Y-103981166D01*
X111021235Y-103925233D01*
X111086699Y-103900816D01*
X111095545Y-103900500D01*
X111387952Y-103900500D01*
X111444244Y-103914013D01*
X111490339Y-103937500D01*
X111490340Y-103937500D01*
X111490342Y-103937501D01*
X111599998Y-103954869D01*
X111600000Y-103954869D01*
X111600002Y-103954869D01*
X111709658Y-103937501D01*
X111709659Y-103937500D01*
X111709661Y-103937500D01*
X111808587Y-103887095D01*
X111887095Y-103808587D01*
X111937500Y-103709661D01*
X111937500Y-103709659D01*
X111937501Y-103709658D01*
X111946901Y-103650309D01*
X111976830Y-103587175D01*
X112036141Y-103550243D01*
X112106004Y-103551241D01*
X112157055Y-103582026D01*
X112230768Y-103655739D01*
X112261016Y-103705096D01*
X112262498Y-103709656D01*
X112262499Y-103709659D01*
X112262500Y-103709661D01*
X112312905Y-103808587D01*
X112312907Y-103808589D01*
X112312909Y-103808592D01*
X112391407Y-103887090D01*
X112391410Y-103887092D01*
X112391413Y-103887095D01*
X112466264Y-103925233D01*
X112490341Y-103937501D01*
X112599998Y-103954869D01*
X112600000Y-103954869D01*
X112600002Y-103954869D01*
X112709650Y-103937502D01*
X112709651Y-103937501D01*
X112709661Y-103937500D01*
X112709669Y-103937495D01*
X112717171Y-103935058D01*
X112787012Y-103933057D01*
X112846848Y-103969132D01*
X112877682Y-104031830D01*
X112879500Y-104052986D01*
X112879500Y-105123624D01*
X112859815Y-105190663D01*
X112807011Y-105236418D01*
X112737853Y-105246362D01*
X112736150Y-105246105D01*
X112730000Y-105245131D01*
X112729998Y-105245131D01*
X112729997Y-105245131D01*
X112620341Y-105262498D01*
X112521414Y-105312904D01*
X112521407Y-105312909D01*
X112442909Y-105391407D01*
X112442904Y-105391414D01*
X112392498Y-105490341D01*
X112375131Y-105599997D01*
X112375131Y-105600002D01*
X112392498Y-105709658D01*
X112442904Y-105808585D01*
X112442909Y-105808592D01*
X112516991Y-105882674D01*
X112550476Y-105943997D01*
X112545492Y-106013689D01*
X112516991Y-106058036D01*
X112344258Y-106230769D01*
X112294901Y-106261017D01*
X112290343Y-106262498D01*
X112290339Y-106262499D01*
X112290339Y-106262500D01*
X112191413Y-106312905D01*
X112191412Y-106312906D01*
X112191407Y-106312909D01*
X112112909Y-106391407D01*
X112112904Y-106391414D01*
X112062498Y-106490341D01*
X112045131Y-106599997D01*
X112045131Y-106600002D01*
X112062498Y-106709657D01*
X112062499Y-106709660D01*
X112062500Y-106709661D01*
X112067363Y-106719205D01*
X112080260Y-106787873D01*
X112053984Y-106852614D01*
X111996879Y-106892871D01*
X111956879Y-106899500D01*
X111475833Y-106899500D01*
X111408794Y-106879815D01*
X111388152Y-106863181D01*
X109884512Y-105359541D01*
X109884511Y-105359540D01*
X109853959Y-105341901D01*
X109853958Y-105341900D01*
X109815989Y-105319979D01*
X109739562Y-105299500D01*
X109739560Y-105299500D01*
X105275833Y-105299500D01*
X105208794Y-105279815D01*
X105188152Y-105263181D01*
X105058282Y-105133311D01*
X111180860Y-105133311D01*
X111180860Y-105133316D01*
X111198227Y-105242972D01*
X111226869Y-105299184D01*
X111248633Y-105341900D01*
X111248638Y-105341906D01*
X111327136Y-105420404D01*
X111327139Y-105420406D01*
X111327142Y-105420409D01*
X111384237Y-105449500D01*
X111426070Y-105470815D01*
X111535727Y-105488183D01*
X111535729Y-105488183D01*
X111535731Y-105488183D01*
X111645387Y-105470815D01*
X111645388Y-105470814D01*
X111645390Y-105470814D01*
X111744316Y-105420409D01*
X111822824Y-105341901D01*
X111873229Y-105242975D01*
X111873229Y-105242973D01*
X111873230Y-105242972D01*
X111890598Y-105133316D01*
X111890598Y-105133311D01*
X111873230Y-105023655D01*
X111873229Y-105023653D01*
X111822824Y-104924727D01*
X111822821Y-104924724D01*
X111822819Y-104924721D01*
X111744321Y-104846223D01*
X111744317Y-104846220D01*
X111744316Y-104846219D01*
X111740472Y-104844260D01*
X111645387Y-104795812D01*
X111535731Y-104778445D01*
X111535727Y-104778445D01*
X111426070Y-104795812D01*
X111327143Y-104846218D01*
X111327136Y-104846223D01*
X111248638Y-104924721D01*
X111248633Y-104924728D01*
X111198227Y-105023655D01*
X111180860Y-105133311D01*
X105058282Y-105133311D01*
X104074968Y-104149997D01*
X107445131Y-104149997D01*
X107445131Y-104150002D01*
X107462498Y-104259658D01*
X107512904Y-104358585D01*
X107512909Y-104358592D01*
X107591407Y-104437090D01*
X107591410Y-104437092D01*
X107591413Y-104437095D01*
X107626297Y-104454869D01*
X107690341Y-104487501D01*
X107799998Y-104504869D01*
X107800000Y-104504869D01*
X107800002Y-104504869D01*
X107909658Y-104487501D01*
X107909659Y-104487500D01*
X107909661Y-104487500D01*
X108008587Y-104437095D01*
X108087095Y-104358587D01*
X108137500Y-104259661D01*
X108137500Y-104259659D01*
X108137501Y-104259658D01*
X108154869Y-104150002D01*
X108154869Y-104149997D01*
X108137501Y-104040341D01*
X108101218Y-103969132D01*
X108087095Y-103941413D01*
X108087092Y-103941410D01*
X108087090Y-103941407D01*
X108008592Y-103862909D01*
X108008588Y-103862906D01*
X108008587Y-103862905D01*
X107964532Y-103840458D01*
X107909658Y-103812498D01*
X107800002Y-103795131D01*
X107799998Y-103795131D01*
X107690341Y-103812498D01*
X107591414Y-103862904D01*
X107591407Y-103862909D01*
X107512909Y-103941407D01*
X107512904Y-103941414D01*
X107462498Y-104040341D01*
X107445131Y-104149997D01*
X104074968Y-104149997D01*
X103236819Y-103311848D01*
X103203334Y-103250525D01*
X103200500Y-103224167D01*
X103200500Y-102330427D01*
X104547500Y-102330427D01*
X104547500Y-102449573D01*
X104552832Y-102469473D01*
X104578337Y-102564660D01*
X104602608Y-102606698D01*
X104637910Y-102667842D01*
X104722158Y-102752090D01*
X104825341Y-102811663D01*
X104940427Y-102842500D01*
X104940429Y-102842500D01*
X105059571Y-102842500D01*
X105059573Y-102842500D01*
X105174659Y-102811663D01*
X105277842Y-102752090D01*
X105362090Y-102667842D01*
X105421663Y-102564659D01*
X105452500Y-102449573D01*
X105452500Y-102330427D01*
X105421663Y-102215341D01*
X105417766Y-102208592D01*
X105398230Y-102174754D01*
X105362090Y-102112158D01*
X105277842Y-102027910D01*
X105229496Y-101999997D01*
X106845131Y-101999997D01*
X106845131Y-102000002D01*
X106862498Y-102109658D01*
X106912904Y-102208585D01*
X106912909Y-102208592D01*
X106991407Y-102287090D01*
X106991410Y-102287092D01*
X106991413Y-102287095D01*
X107086431Y-102335509D01*
X107090341Y-102337501D01*
X107199998Y-102354869D01*
X107200000Y-102354869D01*
X107200002Y-102354869D01*
X107309658Y-102337501D01*
X107309659Y-102337500D01*
X107309661Y-102337500D01*
X107408587Y-102287095D01*
X107487095Y-102208587D01*
X107537500Y-102109661D01*
X107537500Y-102109659D01*
X107537501Y-102109658D01*
X107554869Y-102000002D01*
X107554869Y-101999997D01*
X107537501Y-101890341D01*
X107523344Y-101862557D01*
X107487095Y-101791413D01*
X107487092Y-101791410D01*
X107487090Y-101791407D01*
X107408592Y-101712909D01*
X107408588Y-101712906D01*
X107408587Y-101712905D01*
X107404743Y-101710946D01*
X107309658Y-101662498D01*
X107200002Y-101645131D01*
X107199998Y-101645131D01*
X107090341Y-101662498D01*
X106991414Y-101712904D01*
X106991407Y-101712909D01*
X106912909Y-101791407D01*
X106912904Y-101791414D01*
X106862498Y-101890341D01*
X106845131Y-101999997D01*
X105229496Y-101999997D01*
X105226250Y-101998123D01*
X105174660Y-101968337D01*
X105109426Y-101950858D01*
X105059573Y-101937500D01*
X104940427Y-101937500D01*
X104825339Y-101968337D01*
X104722158Y-102027910D01*
X104722155Y-102027912D01*
X104637912Y-102112155D01*
X104637910Y-102112158D01*
X104578337Y-102215339D01*
X104557953Y-102291416D01*
X104547500Y-102330427D01*
X103200500Y-102330427D01*
X103200500Y-98799983D01*
X104845131Y-98799983D01*
X104845131Y-98799988D01*
X104862498Y-98909644D01*
X104885985Y-98955739D01*
X104899500Y-99012033D01*
X104899500Y-99487951D01*
X104885985Y-99544245D01*
X104862499Y-99590338D01*
X104845131Y-99699997D01*
X104845131Y-99700002D01*
X104862498Y-99809658D01*
X104912904Y-99908585D01*
X104912909Y-99908592D01*
X104991407Y-99987090D01*
X104991410Y-99987092D01*
X104991413Y-99987095D01*
X105047134Y-100015486D01*
X105090341Y-100037501D01*
X105199998Y-100054869D01*
X105200000Y-100054869D01*
X105200002Y-100054869D01*
X105309658Y-100037501D01*
X105309659Y-100037500D01*
X105309661Y-100037500D01*
X105408587Y-99987095D01*
X105487095Y-99908587D01*
X105537500Y-99809661D01*
X105537500Y-99809659D01*
X105537501Y-99809658D01*
X105554869Y-99700002D01*
X105554869Y-99699997D01*
X105537500Y-99590338D01*
X105514015Y-99544245D01*
X105500500Y-99487951D01*
X105500500Y-99012033D01*
X105514015Y-98955739D01*
X105520946Y-98942136D01*
X105537500Y-98909647D01*
X105537500Y-98909645D01*
X105537501Y-98909644D01*
X105554869Y-98799988D01*
X105554869Y-98799983D01*
X105537501Y-98690327D01*
X105532065Y-98679659D01*
X105487095Y-98591399D01*
X105487092Y-98591396D01*
X105487090Y-98591393D01*
X105408592Y-98512895D01*
X105408588Y-98512892D01*
X105408587Y-98512891D01*
X105344068Y-98480017D01*
X105309658Y-98462484D01*
X105200002Y-98445117D01*
X105199998Y-98445117D01*
X105090341Y-98462484D01*
X104991414Y-98512890D01*
X104991407Y-98512895D01*
X104912909Y-98591393D01*
X104912904Y-98591400D01*
X104862498Y-98690327D01*
X104845131Y-98799983D01*
X103200500Y-98799983D01*
X103200500Y-97524833D01*
X103220185Y-97457794D01*
X103272989Y-97412039D01*
X103342147Y-97402095D01*
X103405703Y-97431120D01*
G37*
G04 #@! TD.AperFunction*
G04 #@! TA.AperFunction,Conductor*
G36*
X114644244Y-92514013D02*
G01*
X114690339Y-92537500D01*
X114690344Y-92537500D01*
X114694900Y-92538982D01*
X114744260Y-92569231D01*
X120459540Y-98284511D01*
X120515489Y-98340460D01*
X120515491Y-98340461D01*
X120515495Y-98340464D01*
X120551777Y-98361411D01*
X120584011Y-98380021D01*
X120660438Y-98400500D01*
X120974112Y-98400500D01*
X121041151Y-98420185D01*
X121086906Y-98472989D01*
X121098112Y-98524500D01*
X121098112Y-99138174D01*
X121111764Y-99189125D01*
X121118591Y-99214602D01*
X121128642Y-99232010D01*
X121149779Y-99268620D01*
X121149779Y-99268622D01*
X121158149Y-99283119D01*
X121158151Y-99283122D01*
X121158152Y-99283123D01*
X121759540Y-99884511D01*
X121815489Y-99940460D01*
X121815491Y-99940461D01*
X121815495Y-99940464D01*
X121884004Y-99980017D01*
X121884011Y-99980021D01*
X121960438Y-100000500D01*
X121960440Y-100000500D01*
X123339560Y-100000500D01*
X123339562Y-100000500D01*
X123415989Y-99980021D01*
X123484511Y-99940460D01*
X123540460Y-99884511D01*
X126667605Y-96757364D01*
X126728926Y-96723881D01*
X126798618Y-96728865D01*
X126854551Y-96770737D01*
X126862670Y-96783045D01*
X126880825Y-96814489D01*
X126883916Y-96820183D01*
X126883971Y-96820289D01*
X126903485Y-96858588D01*
X126910107Y-96865209D01*
X127078348Y-97033450D01*
X127111833Y-97094773D01*
X127106849Y-97164465D01*
X127064977Y-97220398D01*
X127009256Y-97241180D01*
X127009640Y-97243604D01*
X126982057Y-97247973D01*
X126962658Y-97249500D01*
X126953851Y-97249500D01*
X126933299Y-97255007D01*
X126920614Y-97257703D01*
X126890341Y-97262499D01*
X126890335Y-97262501D01*
X126885307Y-97265063D01*
X126872150Y-97270114D01*
X126872218Y-97270277D01*
X126864709Y-97273387D01*
X126835501Y-97290249D01*
X126829804Y-97293342D01*
X126791412Y-97312904D01*
X126791412Y-97312905D01*
X126712905Y-97391412D01*
X126712904Y-97391412D01*
X126693342Y-97429804D01*
X126690249Y-97435501D01*
X126673387Y-97464709D01*
X126670277Y-97472218D01*
X126670114Y-97472150D01*
X126665063Y-97485307D01*
X126662501Y-97490335D01*
X126662499Y-97490341D01*
X126657703Y-97520614D01*
X126655007Y-97533299D01*
X126649500Y-97553851D01*
X126649500Y-97562657D01*
X126647973Y-97582055D01*
X126645131Y-97599998D01*
X126645131Y-97599999D01*
X126647973Y-97617941D01*
X126649500Y-97637341D01*
X126649500Y-98182354D01*
X126629815Y-98249393D01*
X126577011Y-98295148D01*
X126507853Y-98305092D01*
X126469206Y-98292839D01*
X126409658Y-98262498D01*
X126300002Y-98245131D01*
X126299998Y-98245131D01*
X126190341Y-98262498D01*
X126091414Y-98312904D01*
X126091407Y-98312909D01*
X126012909Y-98391407D01*
X126012904Y-98391414D01*
X125962498Y-98490341D01*
X125945131Y-98599997D01*
X125945131Y-98600002D01*
X125962498Y-98709658D01*
X125971243Y-98726820D01*
X126012905Y-98808587D01*
X126012907Y-98808589D01*
X126012909Y-98808592D01*
X126091407Y-98887090D01*
X126091410Y-98887092D01*
X126091413Y-98887095D01*
X126190339Y-98937500D01*
X126190341Y-98937501D01*
X126299998Y-98954869D01*
X126300000Y-98954869D01*
X126300002Y-98954869D01*
X126409656Y-98937501D01*
X126409656Y-98937500D01*
X126409661Y-98937500D01*
X126469208Y-98907159D01*
X126537874Y-98894264D01*
X126602615Y-98920540D01*
X126642872Y-98977647D01*
X126649500Y-99017645D01*
X126649500Y-101409748D01*
X126657854Y-101440927D01*
X126666209Y-101472107D01*
X126666209Y-101472108D01*
X126673384Y-101498888D01*
X126673385Y-101498890D01*
X126719527Y-101578812D01*
X126719531Y-101578817D01*
X128628533Y-103487819D01*
X128662018Y-103549142D01*
X128657034Y-103618834D01*
X128615162Y-103674767D01*
X128549698Y-103699184D01*
X128540852Y-103699500D01*
X123941519Y-103699500D01*
X123874480Y-103679815D01*
X123853838Y-103663181D01*
X122659810Y-102469153D01*
X122626325Y-102407830D01*
X122631309Y-102338138D01*
X122659808Y-102293792D01*
X122717095Y-102236506D01*
X122767500Y-102137580D01*
X122767500Y-102137578D01*
X122767501Y-102137577D01*
X122784869Y-102027921D01*
X122784869Y-102027916D01*
X122767501Y-101918260D01*
X122753276Y-101890341D01*
X122717095Y-101819332D01*
X122717092Y-101819329D01*
X122717090Y-101819326D01*
X122638592Y-101740828D01*
X122638588Y-101740825D01*
X122638587Y-101740824D01*
X122626205Y-101734515D01*
X122539658Y-101690417D01*
X122430002Y-101673050D01*
X122429998Y-101673050D01*
X122320341Y-101690417D01*
X122221414Y-101740823D01*
X122221410Y-101740825D01*
X122164127Y-101798109D01*
X122102803Y-101831593D01*
X122033112Y-101826608D01*
X121988765Y-101798108D01*
X121071951Y-100881294D01*
X122108191Y-100881294D01*
X122108191Y-100881299D01*
X122125558Y-100990955D01*
X122175964Y-101089882D01*
X122175969Y-101089889D01*
X122254467Y-101168387D01*
X122254470Y-101168389D01*
X122254473Y-101168392D01*
X122352663Y-101218422D01*
X122353401Y-101218798D01*
X122463058Y-101236166D01*
X122463060Y-101236166D01*
X122463062Y-101236166D01*
X122572718Y-101218798D01*
X122572719Y-101218797D01*
X122572721Y-101218797D01*
X122671647Y-101168392D01*
X122750155Y-101089884D01*
X122800560Y-100990958D01*
X122800560Y-100990956D01*
X122800561Y-100990955D01*
X122817929Y-100881299D01*
X122817929Y-100881294D01*
X122800561Y-100771638D01*
X122768171Y-100708069D01*
X122750155Y-100672710D01*
X122750152Y-100672707D01*
X122750150Y-100672704D01*
X122671652Y-100594206D01*
X122671648Y-100594203D01*
X122671647Y-100594202D01*
X122601348Y-100558383D01*
X122572718Y-100543795D01*
X122463062Y-100526428D01*
X122463058Y-100526428D01*
X122353401Y-100543795D01*
X122254474Y-100594201D01*
X122254467Y-100594206D01*
X122175969Y-100672704D01*
X122175964Y-100672711D01*
X122125558Y-100771638D01*
X122108191Y-100881294D01*
X121071951Y-100881294D01*
X120108580Y-99917922D01*
X120100483Y-99913246D01*
X120100483Y-99913247D01*
X120040056Y-99878360D01*
X120040057Y-99878360D01*
X120008778Y-99869979D01*
X119975105Y-99860956D01*
X119919520Y-99828863D01*
X119908580Y-99817923D01*
X119908576Y-99817919D01*
X119905236Y-99815990D01*
X119905231Y-99815985D01*
X119905230Y-99815987D01*
X119840054Y-99778358D01*
X119763627Y-99757879D01*
X119763625Y-99757879D01*
X115943455Y-99757879D01*
X115876416Y-99738194D01*
X115830661Y-99685390D01*
X115820717Y-99616232D01*
X115820982Y-99614481D01*
X115829868Y-99558378D01*
X115829868Y-99558374D01*
X115812500Y-99448720D01*
X115812499Y-99448718D01*
X115812499Y-99448716D01*
X115762094Y-99349790D01*
X115762090Y-99349786D01*
X115759448Y-99344600D01*
X115746552Y-99275931D01*
X115759448Y-99232010D01*
X115762090Y-99226823D01*
X115762094Y-99226820D01*
X115812499Y-99127894D01*
X115812500Y-99127889D01*
X115829868Y-99018235D01*
X115829868Y-99018230D01*
X115812500Y-98908576D01*
X115812499Y-98908574D01*
X115812499Y-98908572D01*
X115769674Y-98824522D01*
X115756779Y-98755859D01*
X115769672Y-98711945D01*
X115812499Y-98627894D01*
X115812500Y-98627889D01*
X115829868Y-98518235D01*
X115829868Y-98518230D01*
X115812500Y-98408574D01*
X115782756Y-98350197D01*
X115769674Y-98324524D01*
X115756779Y-98255856D01*
X115769673Y-98211941D01*
X115812499Y-98127891D01*
X115828064Y-98029619D01*
X115829868Y-98018232D01*
X115829868Y-98018227D01*
X115812500Y-97908571D01*
X115801516Y-97887014D01*
X115762094Y-97809643D01*
X115704805Y-97752354D01*
X115671322Y-97691034D01*
X115676306Y-97621342D01*
X115704804Y-97576997D01*
X116390460Y-96891343D01*
X116392679Y-96887500D01*
X116430021Y-96822821D01*
X116450500Y-96746394D01*
X116450500Y-96077047D01*
X116464015Y-96020753D01*
X116474589Y-96000000D01*
X116487500Y-95974661D01*
X116487500Y-95974659D01*
X116487501Y-95974658D01*
X116504869Y-95865002D01*
X116504869Y-95864997D01*
X116487501Y-95755341D01*
X116478064Y-95736819D01*
X116437095Y-95656413D01*
X116437092Y-95656410D01*
X116437090Y-95656407D01*
X116358592Y-95577909D01*
X116358588Y-95577906D01*
X116358587Y-95577905D01*
X116354743Y-95575946D01*
X116259658Y-95527498D01*
X116150002Y-95510131D01*
X116149998Y-95510131D01*
X116040341Y-95527498D01*
X116004823Y-95545596D01*
X115936153Y-95558492D01*
X115871413Y-95532215D01*
X115838044Y-95491405D01*
X115814015Y-95444245D01*
X115800500Y-95387951D01*
X115800500Y-94460439D01*
X115800500Y-94460438D01*
X115780021Y-94384011D01*
X115779249Y-94382674D01*
X115740464Y-94315495D01*
X115740458Y-94315487D01*
X115684511Y-94259540D01*
X114884515Y-93459543D01*
X114884514Y-93459542D01*
X114884511Y-93459540D01*
X114870370Y-93451376D01*
X114870367Y-93451374D01*
X114815994Y-93419981D01*
X114815991Y-93419979D01*
X114773467Y-93408585D01*
X114739562Y-93399500D01*
X114739560Y-93399500D01*
X109375833Y-93399500D01*
X109308794Y-93379815D01*
X109288152Y-93363181D01*
X109269231Y-93344260D01*
X109238982Y-93294900D01*
X109237500Y-93290340D01*
X109237500Y-93290339D01*
X109187095Y-93191413D01*
X109187092Y-93191410D01*
X109187090Y-93191407D01*
X109108592Y-93112909D01*
X109108588Y-93112906D01*
X109108587Y-93112905D01*
X109104743Y-93110946D01*
X109009658Y-93062498D01*
X108900002Y-93045131D01*
X108899998Y-93045131D01*
X108790341Y-93062498D01*
X108691414Y-93112904D01*
X108691407Y-93112909D01*
X108612909Y-93191407D01*
X108612904Y-93191414D01*
X108562498Y-93290341D01*
X108545131Y-93399997D01*
X108545131Y-93400002D01*
X108562498Y-93509658D01*
X108612904Y-93608585D01*
X108612909Y-93608592D01*
X108691407Y-93687090D01*
X108691410Y-93687092D01*
X108691413Y-93687095D01*
X108790339Y-93737500D01*
X108790340Y-93737500D01*
X108794900Y-93738982D01*
X108844260Y-93769231D01*
X108862848Y-93787819D01*
X108896333Y-93849142D01*
X108891349Y-93918834D01*
X108849477Y-93974767D01*
X108784013Y-93999184D01*
X108775167Y-93999500D01*
X108712052Y-93999500D01*
X108655759Y-93985986D01*
X108611001Y-93963181D01*
X108609665Y-93962500D01*
X108609664Y-93962499D01*
X108609661Y-93962498D01*
X108500006Y-93945131D01*
X108500002Y-93945131D01*
X108390345Y-93962498D01*
X108291418Y-94012904D01*
X108291411Y-94012909D01*
X108212913Y-94091407D01*
X108212908Y-94091414D01*
X108162502Y-94190341D01*
X108145135Y-94299997D01*
X108145135Y-94300002D01*
X108162502Y-94409658D01*
X108212908Y-94508585D01*
X108212913Y-94508592D01*
X108291411Y-94587090D01*
X108291414Y-94587092D01*
X108291417Y-94587095D01*
X108364772Y-94624471D01*
X108390345Y-94637501D01*
X108500002Y-94654869D01*
X108500004Y-94654869D01*
X108500006Y-94654869D01*
X108609661Y-94637501D01*
X108609662Y-94637500D01*
X108609665Y-94637500D01*
X108655759Y-94614013D01*
X108712052Y-94600500D01*
X113787952Y-94600500D01*
X113844244Y-94614013D01*
X113890339Y-94637500D01*
X113890341Y-94637500D01*
X113890343Y-94637501D01*
X113949692Y-94646901D01*
X114012827Y-94676830D01*
X114049759Y-94736141D01*
X114048761Y-94806004D01*
X114017976Y-94857055D01*
X112661852Y-96213181D01*
X112600529Y-96246666D01*
X112574171Y-96249500D01*
X111217252Y-96249500D01*
X111160959Y-96235986D01*
X111116201Y-96213181D01*
X111114865Y-96212500D01*
X111114864Y-96212499D01*
X111114861Y-96212498D01*
X111005206Y-96195131D01*
X111005202Y-96195131D01*
X110895545Y-96212498D01*
X110796618Y-96262904D01*
X110796611Y-96262909D01*
X110718113Y-96341407D01*
X110718108Y-96341414D01*
X110667702Y-96440341D01*
X110650380Y-96549713D01*
X110650335Y-96550000D01*
X110650403Y-96550427D01*
X110651302Y-96556103D01*
X110642346Y-96625396D01*
X110597349Y-96678848D01*
X110530598Y-96699487D01*
X110528828Y-96699500D01*
X109794753Y-96699500D01*
X109765465Y-96707348D01*
X109718324Y-96719979D01*
X109718323Y-96719980D01*
X109653346Y-96757495D01*
X109649807Y-96759537D01*
X109649801Y-96759542D01*
X109346163Y-97063181D01*
X109284840Y-97096666D01*
X109258482Y-97099500D01*
X109210084Y-97099500D01*
X109143045Y-97079815D01*
X109097290Y-97027011D01*
X109087346Y-96957853D01*
X109116371Y-96894297D01*
X109153788Y-96865015D01*
X109208587Y-96837095D01*
X109287095Y-96758587D01*
X109337500Y-96659661D01*
X109337501Y-96659648D01*
X109338980Y-96655103D01*
X109369229Y-96605740D01*
X110238152Y-95736819D01*
X110299475Y-95703334D01*
X110325833Y-95700500D01*
X111387952Y-95700500D01*
X111444244Y-95714013D01*
X111490339Y-95737500D01*
X111490340Y-95737500D01*
X111490342Y-95737501D01*
X111599998Y-95754869D01*
X111600000Y-95754869D01*
X111600002Y-95754869D01*
X111709658Y-95737501D01*
X111709659Y-95737500D01*
X111709661Y-95737500D01*
X111808587Y-95687095D01*
X111887095Y-95608587D01*
X111937500Y-95509661D01*
X111937500Y-95509659D01*
X111937501Y-95509658D01*
X111954869Y-95400002D01*
X111954869Y-95399997D01*
X111937501Y-95290341D01*
X111937386Y-95290115D01*
X111887095Y-95191413D01*
X111887092Y-95191410D01*
X111887090Y-95191407D01*
X111808592Y-95112909D01*
X111808588Y-95112906D01*
X111808587Y-95112905D01*
X111771476Y-95093996D01*
X111709658Y-95062498D01*
X111600002Y-95045131D01*
X111599998Y-95045131D01*
X111490342Y-95062498D01*
X111444245Y-95085986D01*
X111387952Y-95099500D01*
X110110438Y-95099500D01*
X110034010Y-95119978D01*
X109965489Y-95159540D01*
X109965486Y-95159542D01*
X108944258Y-96180769D01*
X108894901Y-96211017D01*
X108890343Y-96212498D01*
X108890339Y-96212499D01*
X108890339Y-96212500D01*
X108791413Y-96262905D01*
X108791412Y-96262906D01*
X108791407Y-96262909D01*
X108712909Y-96341407D01*
X108712904Y-96341414D01*
X108662498Y-96440341D01*
X108645131Y-96549997D01*
X108645131Y-96550002D01*
X108662498Y-96659658D01*
X108712904Y-96758585D01*
X108712909Y-96758592D01*
X108791407Y-96837090D01*
X108791410Y-96837092D01*
X108791413Y-96837095D01*
X108846210Y-96865015D01*
X108897007Y-96912989D01*
X108913802Y-96980810D01*
X108891265Y-97046945D01*
X108836550Y-97090397D01*
X108789916Y-97099500D01*
X105449794Y-97099500D01*
X105382755Y-97079815D01*
X105337000Y-97027011D01*
X105327056Y-96957853D01*
X105356081Y-96894297D01*
X105362078Y-96887855D01*
X105362081Y-96887850D01*
X105362090Y-96887842D01*
X105421663Y-96784659D01*
X105452500Y-96669573D01*
X105452500Y-96550427D01*
X105421663Y-96435341D01*
X105362090Y-96332158D01*
X105277842Y-96247910D01*
X105217690Y-96213181D01*
X105174660Y-96188337D01*
X105117116Y-96172918D01*
X105059573Y-96157500D01*
X104940427Y-96157500D01*
X104825339Y-96188337D01*
X104722158Y-96247910D01*
X104722155Y-96247912D01*
X104637912Y-96332155D01*
X104637910Y-96332158D01*
X104578337Y-96435339D01*
X104559611Y-96505227D01*
X104547500Y-96550427D01*
X104547500Y-96669573D01*
X104555519Y-96699500D01*
X104578337Y-96784660D01*
X104597713Y-96818219D01*
X104637910Y-96887842D01*
X104637913Y-96887845D01*
X104642857Y-96894288D01*
X104641843Y-96895065D01*
X104671372Y-96949142D01*
X104666388Y-97018834D01*
X104624516Y-97074767D01*
X104559052Y-97099184D01*
X104550206Y-97099500D01*
X103975833Y-97099500D01*
X103908794Y-97079815D01*
X103888152Y-97063181D01*
X103736819Y-96911848D01*
X103703334Y-96850525D01*
X103700500Y-96824167D01*
X103700500Y-95012047D01*
X103714015Y-94955753D01*
X103732232Y-94920000D01*
X103737500Y-94909661D01*
X103737500Y-94909659D01*
X103737501Y-94909658D01*
X103754869Y-94800002D01*
X103754869Y-94799997D01*
X103737501Y-94690341D01*
X103719427Y-94654869D01*
X103687095Y-94591413D01*
X103687092Y-94591410D01*
X103687090Y-94591407D01*
X103608592Y-94512909D01*
X103608588Y-94512906D01*
X103608587Y-94512905D01*
X103600112Y-94508587D01*
X103509658Y-94462498D01*
X103400002Y-94445131D01*
X103399997Y-94445131D01*
X103343897Y-94454016D01*
X103274604Y-94445061D01*
X103221152Y-94400065D01*
X103200513Y-94333313D01*
X103200500Y-94331543D01*
X103200500Y-93799997D01*
X103745131Y-93799997D01*
X103745131Y-93800002D01*
X103762498Y-93909658D01*
X103812904Y-94008585D01*
X103812909Y-94008592D01*
X103891407Y-94087090D01*
X103891410Y-94087092D01*
X103891413Y-94087095D01*
X103916741Y-94100000D01*
X103990341Y-94137501D01*
X104099998Y-94154869D01*
X104100000Y-94154869D01*
X104100002Y-94154869D01*
X104209658Y-94137501D01*
X104209659Y-94137500D01*
X104209661Y-94137500D01*
X104308587Y-94087095D01*
X104387095Y-94008587D01*
X104437500Y-93909661D01*
X104437500Y-93909659D01*
X104437501Y-93909658D01*
X104454869Y-93800002D01*
X104454869Y-93799997D01*
X104437501Y-93690341D01*
X104423314Y-93662498D01*
X104416945Y-93649997D01*
X106545131Y-93649997D01*
X106545131Y-93649999D01*
X106562498Y-93759658D01*
X106612904Y-93858585D01*
X106612909Y-93858592D01*
X106691407Y-93937090D01*
X106691410Y-93937092D01*
X106691413Y-93937095D01*
X106742610Y-93963181D01*
X106790341Y-93987501D01*
X106899998Y-94004869D01*
X106900000Y-94004869D01*
X106900002Y-94004869D01*
X107009658Y-93987501D01*
X107009659Y-93987500D01*
X107009661Y-93987500D01*
X107108587Y-93937095D01*
X107187095Y-93858587D01*
X107237500Y-93759661D01*
X107237500Y-93759659D01*
X107237501Y-93759658D01*
X107254869Y-93649999D01*
X107254869Y-93649997D01*
X107237501Y-93540341D01*
X107213704Y-93493637D01*
X107187095Y-93441413D01*
X107187092Y-93441410D01*
X107187090Y-93441407D01*
X107108592Y-93362909D01*
X107108588Y-93362906D01*
X107108587Y-93362905D01*
X107077678Y-93347156D01*
X107009658Y-93312498D01*
X106900002Y-93295131D01*
X106899998Y-93295131D01*
X106790341Y-93312498D01*
X106691414Y-93362904D01*
X106691407Y-93362909D01*
X106612909Y-93441407D01*
X106612904Y-93441414D01*
X106562498Y-93540341D01*
X106545131Y-93649997D01*
X104416945Y-93649997D01*
X104387095Y-93591413D01*
X104387092Y-93591410D01*
X104387090Y-93591407D01*
X104308592Y-93512909D01*
X104308588Y-93512906D01*
X104308587Y-93512905D01*
X104280553Y-93498621D01*
X104209658Y-93462498D01*
X104100002Y-93445131D01*
X104099998Y-93445131D01*
X103990341Y-93462498D01*
X103891414Y-93512904D01*
X103891407Y-93512909D01*
X103812909Y-93591407D01*
X103812904Y-93591414D01*
X103762498Y-93690341D01*
X103745131Y-93799997D01*
X103200500Y-93799997D01*
X103200500Y-93575833D01*
X103220185Y-93508794D01*
X103236819Y-93488152D01*
X104188152Y-92536819D01*
X104249475Y-92503334D01*
X104275833Y-92500500D01*
X114587952Y-92500500D01*
X114644244Y-92514013D01*
G37*
G04 #@! TD.AperFunction*
G04 #@! TA.AperFunction,Conductor*
G36*
X133731164Y-98246508D02*
G01*
X133752676Y-98264162D01*
X133752677Y-98264162D01*
X133752679Y-98264164D01*
X133752681Y-98264165D01*
X133919877Y-98353533D01*
X133919878Y-98353533D01*
X133919885Y-98353537D01*
X134101317Y-98408573D01*
X134101316Y-98408573D01*
X134118233Y-98410239D01*
X134290000Y-98427157D01*
X134331221Y-98423097D01*
X134343375Y-98422500D01*
X135308500Y-98422500D01*
X135375539Y-98442185D01*
X135421294Y-98494989D01*
X135432500Y-98546500D01*
X135432500Y-101453500D01*
X135412815Y-101520539D01*
X135360011Y-101566294D01*
X135308500Y-101577500D01*
X134343375Y-101577500D01*
X134331221Y-101576903D01*
X134290000Y-101572843D01*
X134101318Y-101591426D01*
X134006513Y-101620185D01*
X133919885Y-101646463D01*
X133919882Y-101646464D01*
X133919880Y-101646465D01*
X133919877Y-101646466D01*
X133752681Y-101735834D01*
X133752675Y-101735838D01*
X133731164Y-101753492D01*
X133666854Y-101780804D01*
X133597987Y-101769013D01*
X133546427Y-101721860D01*
X133528500Y-101657638D01*
X133528500Y-98342361D01*
X133548185Y-98275322D01*
X133600989Y-98229567D01*
X133670147Y-98219623D01*
X133731164Y-98246508D01*
G37*
G04 #@! TD.AperFunction*
G04 #@! TA.AperFunction,Conductor*
G36*
X115112130Y-94612578D02*
G01*
X115170363Y-94651188D01*
X115198477Y-94715151D01*
X115199500Y-94731044D01*
X115199500Y-95387951D01*
X115185985Y-95444245D01*
X115162499Y-95490338D01*
X115145131Y-95599997D01*
X115145131Y-95600002D01*
X115162498Y-95709658D01*
X115212904Y-95808585D01*
X115212909Y-95808592D01*
X115291407Y-95887090D01*
X115291410Y-95887092D01*
X115291413Y-95887095D01*
X115364238Y-95924201D01*
X115390341Y-95937501D01*
X115499998Y-95954869D01*
X115500000Y-95954869D01*
X115500002Y-95954869D01*
X115609657Y-95937501D01*
X115609658Y-95937500D01*
X115609661Y-95937500D01*
X115645177Y-95919403D01*
X115713845Y-95906507D01*
X115778585Y-95932783D01*
X115811956Y-95973593D01*
X115812499Y-95974660D01*
X115812500Y-95974661D01*
X115835985Y-96020753D01*
X115849500Y-96077047D01*
X115849500Y-96530998D01*
X115829815Y-96598037D01*
X115813181Y-96618679D01*
X115075533Y-97356326D01*
X115014210Y-97389811D01*
X114944518Y-97384827D01*
X114894465Y-97347357D01*
X114893996Y-97347827D01*
X114890729Y-97344560D01*
X114888585Y-97342955D01*
X114887535Y-97341531D01*
X114887096Y-97340927D01*
X114808592Y-97262423D01*
X114808588Y-97262420D01*
X114808587Y-97262419D01*
X114774657Y-97245131D01*
X114709658Y-97212012D01*
X114600002Y-97194645D01*
X114599997Y-97194645D01*
X114497963Y-97210805D01*
X114428670Y-97201850D01*
X114375218Y-97156854D01*
X114356093Y-97107729D01*
X114354868Y-97099997D01*
X114348930Y-97062501D01*
X114337501Y-96990342D01*
X114337500Y-96990340D01*
X114337500Y-96990339D01*
X114287095Y-96891413D01*
X114287092Y-96891410D01*
X114287090Y-96891407D01*
X114208592Y-96812909D01*
X114208588Y-96812906D01*
X114208587Y-96812905D01*
X114202367Y-96809736D01*
X114109658Y-96762498D01*
X114000002Y-96745131D01*
X113999998Y-96745131D01*
X113890341Y-96762498D01*
X113806294Y-96805323D01*
X113737625Y-96818219D01*
X113693706Y-96805323D01*
X113682613Y-96799671D01*
X113649983Y-96783045D01*
X113609658Y-96762498D01*
X113500002Y-96745131D01*
X113499998Y-96745131D01*
X113390341Y-96762498D01*
X113291414Y-96812904D01*
X113291407Y-96812909D01*
X113212909Y-96891407D01*
X113212904Y-96891414D01*
X113162498Y-96990341D01*
X113145131Y-97099997D01*
X113146021Y-97105617D01*
X113137065Y-97174911D01*
X113092068Y-97228362D01*
X113025316Y-97249001D01*
X113023547Y-97249014D01*
X112991033Y-97249014D01*
X112923994Y-97229329D01*
X112903352Y-97212695D01*
X112745520Y-97054863D01*
X112712035Y-96993540D01*
X112717019Y-96923848D01*
X112758891Y-96867915D01*
X112801104Y-96847408D01*
X112865993Y-96830021D01*
X112934515Y-96790460D01*
X112990464Y-96734511D01*
X114655742Y-95069231D01*
X114705105Y-95038982D01*
X114709650Y-95037503D01*
X114709663Y-95037502D01*
X114808589Y-94987097D01*
X114887097Y-94908589D01*
X114937502Y-94809663D01*
X114937502Y-94809661D01*
X114937503Y-94809660D01*
X114953027Y-94711646D01*
X114982956Y-94648511D01*
X115042268Y-94611580D01*
X115112130Y-94612578D01*
G37*
G04 #@! TD.AperFunction*
G04 #@! TA.AperFunction,Conductor*
G36*
X123110539Y-91247185D02*
G01*
X123156294Y-91299989D01*
X123167500Y-91351500D01*
X123167500Y-92326624D01*
X123166903Y-92338778D01*
X123162843Y-92379999D01*
X123181426Y-92568681D01*
X123181427Y-92568683D01*
X123236463Y-92750115D01*
X123236464Y-92750118D01*
X123236465Y-92750119D01*
X123236466Y-92750122D01*
X123325834Y-92917318D01*
X123325838Y-92917325D01*
X123446116Y-93063883D01*
X123592674Y-93184161D01*
X123592681Y-93184165D01*
X123763953Y-93275712D01*
X123813797Y-93324674D01*
X123829500Y-93385070D01*
X123829500Y-93594167D01*
X123809815Y-93661206D01*
X123793181Y-93681848D01*
X121911848Y-95563181D01*
X121850525Y-95596666D01*
X121824167Y-95599500D01*
X121412048Y-95599500D01*
X121355755Y-95585986D01*
X121309661Y-95562500D01*
X121309659Y-95562499D01*
X121300967Y-95558071D01*
X121302335Y-95555384D01*
X121257854Y-95524963D01*
X121230661Y-95460602D01*
X121242581Y-95391757D01*
X121266168Y-95358802D01*
X121340460Y-95284511D01*
X121357189Y-95255534D01*
X121407755Y-95207319D01*
X121476362Y-95194095D01*
X121484833Y-95195855D01*
X121484911Y-95195366D01*
X121604209Y-95214261D01*
X121604211Y-95214261D01*
X121604213Y-95214261D01*
X121713869Y-95196893D01*
X121713870Y-95196892D01*
X121713872Y-95196892D01*
X121812798Y-95146487D01*
X121891306Y-95067979D01*
X121941711Y-94969053D01*
X121941711Y-94969051D01*
X121941712Y-94969050D01*
X121959080Y-94859394D01*
X121959080Y-94859389D01*
X121941712Y-94749733D01*
X121932329Y-94731317D01*
X121891306Y-94650805D01*
X121891303Y-94650802D01*
X121891301Y-94650799D01*
X121826247Y-94585745D01*
X121792762Y-94524422D01*
X121797746Y-94454730D01*
X121839618Y-94398797D01*
X121857633Y-94387581D01*
X121858587Y-94387095D01*
X121937095Y-94308587D01*
X121987500Y-94209661D01*
X121987500Y-94209659D01*
X121987501Y-94209658D01*
X122004869Y-94100002D01*
X122004869Y-94099997D01*
X121987501Y-93990341D01*
X121970768Y-93957500D01*
X121937095Y-93891413D01*
X121937092Y-93891410D01*
X121937090Y-93891407D01*
X121858592Y-93812909D01*
X121858588Y-93812906D01*
X121858587Y-93812905D01*
X121833263Y-93800002D01*
X121759658Y-93762498D01*
X121650002Y-93745131D01*
X121649997Y-93745131D01*
X121543897Y-93761935D01*
X121474604Y-93752980D01*
X121421152Y-93707984D01*
X121400513Y-93641232D01*
X121400500Y-93639462D01*
X121400500Y-93484320D01*
X121420185Y-93417281D01*
X121472989Y-93371526D01*
X121536652Y-93360917D01*
X121600000Y-93367157D01*
X121788683Y-93348573D01*
X121970115Y-93293537D01*
X122137324Y-93204162D01*
X122283883Y-93083883D01*
X122404162Y-92937324D01*
X122493537Y-92770115D01*
X122548573Y-92588683D01*
X122567157Y-92400000D01*
X122563097Y-92358778D01*
X122562500Y-92346624D01*
X122562500Y-91351500D01*
X122582185Y-91284461D01*
X122634989Y-91238706D01*
X122686500Y-91227500D01*
X123043500Y-91227500D01*
X123110539Y-91247185D01*
G37*
G04 #@! TD.AperFunction*
M02*
