M48
; DRILL file {KiCad 8.0.1} date 2024-12-04T18:10:26+0530
; FORMAT={-:-/ absolute / metric / decimal}
; #@! TF.CreationDate,2024-12-04T18:10:26+05:30
; #@! TF.GenerationSoftware,Kicad,Pcbnew,8.0.1
; #@! TF.FileFunction,Plated,1,4,PTH
FMAT,2
METRIC
; #@! TA.AperFunction,Plated,PTH,ViaDrill
T1C0.200
; #@! TA.AperFunction,Plated,PTH,ComponentDrill
T2C0.200
; #@! TA.AperFunction,Plated,PTH,ViaDrill
T3C0.250
; #@! TA.AperFunction,Plated,PTH,ViaDrill
T4C0.300
; #@! TA.AperFunction,Plated,PTH,ViaDrill
T5C0.400
; #@! TA.AperFunction,Plated,PTH,ComponentDrill
T6C0.600
; #@! TA.AperFunction,Plated,PTH,ComponentDrill
T7C0.900
%
G90
G05
T1
X114.175Y-99.914
X114.175Y-101.024
X114.218Y-98.828
X114.361Y-99.388
X114.379Y-100.436
X116.053Y-103.175
X116.18Y-103.785
X116.815Y-103.81
X117.374Y-104.086
X117.88Y-106.62
X117.932Y-103.658
X118.517Y-103.708
X119.934Y-104.26
X122.149Y-97.409
X122.276Y-101.219
X122.631Y-99.441
X122.67Y-98.773
X122.835Y-97.774
X123.317Y-98.654
X126.137Y-95.911
T2
X103.326Y-105.876
X103.326Y-106.976
T3
X107.645Y-98.755
X107.652Y-100.5
X109.728Y-92.202
X110.008Y-95.758
X110.846Y-95.758
X113.183Y-97.536
X113.437Y-92.202
X113.437Y-96.495
X114.25Y-102.362
X114.539Y-101.589
X117.424Y-95.403
X119.406Y-95.403
X122.581Y-104.623
X123.063Y-106.96
X123.47Y-101.27
X125.552Y-106.934
X125.933Y-100.838
X126.137Y-97.181
X126.162Y-95.047
X127.33Y-95.809
X127.94Y-93.65
X128.575Y-101.626
X128.829Y-102.438
X129.185Y-95.885
X130.201Y-101.626
X130.328Y-105.715
X130.455Y-93.65
X130.709Y-98.425
X132.995Y-93.625
X133.503Y-96.19
X133.528Y-98.705
T4
X110.795Y-107.925
X116.383Y-106.883
X117.704Y-107.468
X117.805Y-94.361
X128.27Y-103.2
X128.397Y-104.496
X130.277Y-103.2
X130.277Y-104.496
X130.48Y-97.155
T5
X101.88Y-105.131
X102.388Y-107.976
X103.327Y-107.976
X104.216Y-107.976
X106.553Y-107.899
X107.087Y-95.479
X107.417Y-97.054
X107.442Y-101.981
X108.56Y-102.362
X109.779Y-107.899
X109.931Y-100.025
X110.287Y-106.401
X110.973Y-101.041
X111.0Y-100.0
X111.024Y-98.959
X111.227Y-105.334
X111.989Y-100.025
X112.167Y-105.359
X112.522Y-108.28
X113.081Y-105.385
X114.554Y-108.306
X115.405Y-102.349
X116.739Y-94.361
X116.942Y-99.3
X116.942Y-100.737
X116.967Y-97.841
X117.78Y-91.872
X118.39Y-100.762
X118.4Y-97.816
X118.4Y-99.3
X118.745Y-93.65
X119.761Y-100.762
X119.787Y-97.816
X119.787Y-99.263
X120.066Y-106.858
X121.412Y-102.286
X122.835Y-95.199
X123.673Y-105.698
X126.137Y-98.451
X127.229Y-98.933
X128.397Y-105.715
X129.007Y-98.832
X130.455Y-94.615
X132.233Y-101.092
T7
X121.6Y-91.13
X121.6Y-92.4
X121.8Y-107.7
X121.8Y-108.97
X124.13Y-91.11
X124.13Y-92.38
X124.3Y-107.7
X124.3Y-108.97
X126.67Y-91.11
X126.67Y-92.38
X126.8Y-107.7
X126.8Y-108.97
X129.2Y-91.11
X129.2Y-92.38
X129.3Y-107.721
X129.3Y-108.992
X131.7Y-91.13
X131.7Y-92.4
X131.8Y-107.721
X131.8Y-108.992
X134.29Y-94.92
X134.29Y-97.46
X134.29Y-100.0
X134.29Y-102.54
X134.3Y-91.13
X134.3Y-92.4
X134.3Y-107.721
X134.3Y-108.992
X135.56Y-94.92
X135.56Y-97.46
X135.56Y-100.0
X135.56Y-102.54
T6
X101.65Y-95.18G85X101.05Y-95.18
G05
X101.65Y-103.82G85X101.05Y-103.82
G05
X105.98Y-95.18G85X105.08Y-95.18
G05
X105.98Y-103.82G85X105.08Y-103.82
G05
M30
