G04 #@! TF.GenerationSoftware,KiCad,Pcbnew,8.0.2*
G04 #@! TF.CreationDate,2024-11-10T02:28:46+05:00*
G04 #@! TF.ProjectId,V1,56312e6b-6963-4616-945f-706362585858,r0.1*
G04 #@! TF.SameCoordinates,Original*
G04 #@! TF.FileFunction,Legend,Top*
G04 #@! TF.FilePolarity,Positive*
%FSLAX46Y46*%
G04 Gerber Fmt 4.6, Leading zero omitted, Abs format (unit mm)*
G04 Created by KiCad (PCBNEW 8.0.2) date 2024-11-10 02:28:46*
%MOMM*%
%LPD*%
G01*
G04 APERTURE LIST*
G04 Aperture macros list*
%AMRoundRect*
0 Rectangle with rounded corners*
0 $1 Rounding radius*
0 $2 $3 $4 $5 $6 $7 $8 $9 X,Y pos of 4 corners*
0 Add a 4 corners polygon primitive as box body*
4,1,4,$2,$3,$4,$5,$6,$7,$8,$9,$2,$3,0*
0 Add four circle primitives for the rounded corners*
1,1,$1+$1,$2,$3*
1,1,$1+$1,$4,$5*
1,1,$1+$1,$6,$7*
1,1,$1+$1,$8,$9*
0 Add four rect primitives between the rounded corners*
20,1,$1+$1,$2,$3,$4,$5,0*
20,1,$1+$1,$4,$5,$6,$7,0*
20,1,$1+$1,$6,$7,$8,$9,0*
20,1,$1+$1,$8,$9,$2,$3,0*%
G04 Aperture macros list end*
%ADD10C,0.100000*%
%ADD11C,0.150000*%
%ADD12C,0.075000*%
%ADD13C,0.050000*%
%ADD14C,0.200000*%
%ADD15C,0.120000*%
%ADD16R,0.550000X0.550000*%
%ADD17C,1.524000*%
%ADD18R,1.270000X1.524000*%
%ADD19R,1.524000X1.270000*%
%ADD20RoundRect,0.193750X0.281250X-0.193750X0.281250X0.193750X-0.281250X0.193750X-0.281250X-0.193750X0*%
%ADD21RoundRect,0.147500X0.172500X-0.147500X0.172500X0.147500X-0.172500X0.147500X-0.172500X-0.147500X0*%
%ADD22C,0.650000*%
%ADD23RoundRect,0.075000X-0.550000X0.225000X-0.550000X-0.225000X0.550000X-0.225000X0.550000X0.225000X0*%
%ADD24RoundRect,0.075000X-0.550000X0.075000X-0.550000X-0.075000X0.550000X-0.075000X0.550000X0.075000X0*%
%ADD25O,1.900000X1.000000*%
%ADD26O,1.600000X1.000000*%
%ADD27RoundRect,0.218750X0.256250X-0.218750X0.256250X0.218750X-0.256250X0.218750X-0.256250X-0.218750X0*%
%ADD28RoundRect,0.147500X-0.172500X0.147500X-0.172500X-0.147500X0.172500X-0.147500X0.172500X0.147500X0*%
%ADD29RoundRect,0.147500X0.147500X0.172500X-0.147500X0.172500X-0.147500X-0.172500X0.147500X-0.172500X0*%
%ADD30RoundRect,0.135000X0.135000X0.185000X-0.135000X0.185000X-0.135000X-0.185000X0.135000X-0.185000X0*%
%ADD31RoundRect,0.093750X0.093750X0.106250X-0.093750X0.106250X-0.093750X-0.106250X0.093750X-0.106250X0*%
%ADD32R,1.000000X1.600000*%
%ADD33RoundRect,0.150000X0.650000X0.150000X-0.650000X0.150000X-0.650000X-0.150000X0.650000X-0.150000X0*%
%ADD34RoundRect,0.135000X-0.185000X0.135000X-0.185000X-0.135000X0.185000X-0.135000X0.185000X0.135000X0*%
%ADD35RoundRect,0.135000X-0.135000X-0.185000X0.135000X-0.185000X0.135000X0.185000X-0.135000X0.185000X0*%
%ADD36RoundRect,0.218750X-0.218750X-0.256250X0.218750X-0.256250X0.218750X0.256250X-0.218750X0.256250X0*%
%ADD37R,0.500000X0.400000*%
%ADD38R,0.500000X0.300000*%
%ADD39R,0.600000X1.100000*%
%ADD40RoundRect,0.147500X-0.147500X-0.172500X0.147500X-0.172500X0.147500X0.172500X-0.147500X0.172500X0*%
%ADD41RoundRect,0.140000X-0.140000X-0.170000X0.140000X-0.170000X0.140000X0.170000X-0.140000X0.170000X0*%
%ADD42RoundRect,0.135000X0.185000X-0.135000X0.185000X0.135000X-0.185000X0.135000X-0.185000X-0.135000X0*%
%ADD43RoundRect,0.200000X-0.250000X0.200000X-0.250000X-0.200000X0.250000X-0.200000X0.250000X0.200000X0*%
%ADD44RoundRect,0.140000X0.170000X-0.140000X0.170000X0.140000X-0.170000X0.140000X-0.170000X-0.140000X0*%
%ADD45RoundRect,0.135000X0.540000X0.540000X-0.540000X0.540000X-0.540000X-0.540000X0.540000X-0.540000X0*%
%ADD46RoundRect,0.218750X-0.218750X-0.381250X0.218750X-0.381250X0.218750X0.381250X-0.218750X0.381250X0*%
%ADD47R,0.850000X0.200000*%
%ADD48R,0.200000X0.850000*%
%ADD49R,4.350000X4.350000*%
%ADD50RoundRect,0.150000X0.825000X0.150000X-0.825000X0.150000X-0.825000X-0.150000X0.825000X-0.150000X0*%
%ADD51RoundRect,0.225000X-0.250000X0.225000X-0.250000X-0.225000X0.250000X-0.225000X0.250000X0.225000X0*%
%ADD52RoundRect,0.100000X-0.130000X-0.100000X0.130000X-0.100000X0.130000X0.100000X-0.130000X0.100000X0*%
%ADD53R,3.350000X3.350000*%
%ADD54RoundRect,0.062500X-0.062500X-0.337500X0.062500X-0.337500X0.062500X0.337500X-0.062500X0.337500X0*%
%ADD55RoundRect,0.062500X-0.337500X-0.062500X0.337500X-0.062500X0.337500X0.062500X-0.337500X0.062500X0*%
G04 APERTURE END LIST*
D10*
X127480952Y-97826109D02*
X127480952Y-97326109D01*
X127480952Y-97326109D02*
X127671428Y-97326109D01*
X127671428Y-97326109D02*
X127719047Y-97349919D01*
X127719047Y-97349919D02*
X127742857Y-97373728D01*
X127742857Y-97373728D02*
X127766666Y-97421347D01*
X127766666Y-97421347D02*
X127766666Y-97492776D01*
X127766666Y-97492776D02*
X127742857Y-97540395D01*
X127742857Y-97540395D02*
X127719047Y-97564204D01*
X127719047Y-97564204D02*
X127671428Y-97588014D01*
X127671428Y-97588014D02*
X127480952Y-97588014D01*
X127957143Y-97802300D02*
X128028571Y-97826109D01*
X128028571Y-97826109D02*
X128147619Y-97826109D01*
X128147619Y-97826109D02*
X128195238Y-97802300D01*
X128195238Y-97802300D02*
X128219047Y-97778490D01*
X128219047Y-97778490D02*
X128242857Y-97730871D01*
X128242857Y-97730871D02*
X128242857Y-97683252D01*
X128242857Y-97683252D02*
X128219047Y-97635633D01*
X128219047Y-97635633D02*
X128195238Y-97611823D01*
X128195238Y-97611823D02*
X128147619Y-97588014D01*
X128147619Y-97588014D02*
X128052381Y-97564204D01*
X128052381Y-97564204D02*
X128004762Y-97540395D01*
X128004762Y-97540395D02*
X127980952Y-97516585D01*
X127980952Y-97516585D02*
X127957143Y-97468966D01*
X127957143Y-97468966D02*
X127957143Y-97421347D01*
X127957143Y-97421347D02*
X127980952Y-97373728D01*
X127980952Y-97373728D02*
X128004762Y-97349919D01*
X128004762Y-97349919D02*
X128052381Y-97326109D01*
X128052381Y-97326109D02*
X128171428Y-97326109D01*
X128171428Y-97326109D02*
X128242857Y-97349919D01*
X128742856Y-97826109D02*
X128576190Y-97588014D01*
X128457142Y-97826109D02*
X128457142Y-97326109D01*
X128457142Y-97326109D02*
X128647618Y-97326109D01*
X128647618Y-97326109D02*
X128695237Y-97349919D01*
X128695237Y-97349919D02*
X128719047Y-97373728D01*
X128719047Y-97373728D02*
X128742856Y-97421347D01*
X128742856Y-97421347D02*
X128742856Y-97492776D01*
X128742856Y-97492776D02*
X128719047Y-97540395D01*
X128719047Y-97540395D02*
X128695237Y-97564204D01*
X128695237Y-97564204D02*
X128647618Y-97588014D01*
X128647618Y-97588014D02*
X128457142Y-97588014D01*
X128933333Y-97683252D02*
X129171428Y-97683252D01*
X128885714Y-97826109D02*
X129052380Y-97326109D01*
X129052380Y-97326109D02*
X129219047Y-97826109D01*
X129385713Y-97826109D02*
X129385713Y-97326109D01*
X129385713Y-97326109D02*
X129552380Y-97683252D01*
X129552380Y-97683252D02*
X129719046Y-97326109D01*
X129719046Y-97326109D02*
X129719046Y-97826109D01*
X128454762Y-103964204D02*
X128288095Y-103964204D01*
X128288095Y-104226109D02*
X128288095Y-103726109D01*
X128288095Y-103726109D02*
X128526190Y-103726109D01*
X128954761Y-104226109D02*
X128716666Y-104226109D01*
X128716666Y-104226109D02*
X128716666Y-103726109D01*
X129097619Y-104083252D02*
X129335714Y-104083252D01*
X129050000Y-104226109D02*
X129216666Y-103726109D01*
X129216666Y-103726109D02*
X129383333Y-104226109D01*
X129526190Y-104202300D02*
X129597618Y-104226109D01*
X129597618Y-104226109D02*
X129716666Y-104226109D01*
X129716666Y-104226109D02*
X129764285Y-104202300D01*
X129764285Y-104202300D02*
X129788094Y-104178490D01*
X129788094Y-104178490D02*
X129811904Y-104130871D01*
X129811904Y-104130871D02*
X129811904Y-104083252D01*
X129811904Y-104083252D02*
X129788094Y-104035633D01*
X129788094Y-104035633D02*
X129764285Y-104011823D01*
X129764285Y-104011823D02*
X129716666Y-103988014D01*
X129716666Y-103988014D02*
X129621428Y-103964204D01*
X129621428Y-103964204D02*
X129573809Y-103940395D01*
X129573809Y-103940395D02*
X129549999Y-103916585D01*
X129549999Y-103916585D02*
X129526190Y-103868966D01*
X129526190Y-103868966D02*
X129526190Y-103821347D01*
X129526190Y-103821347D02*
X129549999Y-103773728D01*
X129549999Y-103773728D02*
X129573809Y-103749919D01*
X129573809Y-103749919D02*
X129621428Y-103726109D01*
X129621428Y-103726109D02*
X129740475Y-103726109D01*
X129740475Y-103726109D02*
X129811904Y-103749919D01*
X130026189Y-104226109D02*
X130026189Y-103726109D01*
X130026189Y-103964204D02*
X130311903Y-103964204D01*
X130311903Y-104226109D02*
X130311903Y-103726109D01*
X110621428Y-106464204D02*
X110692856Y-106488014D01*
X110692856Y-106488014D02*
X110716666Y-106511823D01*
X110716666Y-106511823D02*
X110740475Y-106559442D01*
X110740475Y-106559442D02*
X110740475Y-106630871D01*
X110740475Y-106630871D02*
X110716666Y-106678490D01*
X110716666Y-106678490D02*
X110692856Y-106702300D01*
X110692856Y-106702300D02*
X110645237Y-106726109D01*
X110645237Y-106726109D02*
X110454761Y-106726109D01*
X110454761Y-106726109D02*
X110454761Y-106226109D01*
X110454761Y-106226109D02*
X110621428Y-106226109D01*
X110621428Y-106226109D02*
X110669047Y-106249919D01*
X110669047Y-106249919D02*
X110692856Y-106273728D01*
X110692856Y-106273728D02*
X110716666Y-106321347D01*
X110716666Y-106321347D02*
X110716666Y-106368966D01*
X110716666Y-106368966D02*
X110692856Y-106416585D01*
X110692856Y-106416585D02*
X110669047Y-106440395D01*
X110669047Y-106440395D02*
X110621428Y-106464204D01*
X110621428Y-106464204D02*
X110454761Y-106464204D01*
X111049999Y-106226109D02*
X111145237Y-106226109D01*
X111145237Y-106226109D02*
X111192856Y-106249919D01*
X111192856Y-106249919D02*
X111240475Y-106297538D01*
X111240475Y-106297538D02*
X111264285Y-106392776D01*
X111264285Y-106392776D02*
X111264285Y-106559442D01*
X111264285Y-106559442D02*
X111240475Y-106654680D01*
X111240475Y-106654680D02*
X111192856Y-106702300D01*
X111192856Y-106702300D02*
X111145237Y-106726109D01*
X111145237Y-106726109D02*
X111049999Y-106726109D01*
X111049999Y-106726109D02*
X111002380Y-106702300D01*
X111002380Y-106702300D02*
X110954761Y-106654680D01*
X110954761Y-106654680D02*
X110930952Y-106559442D01*
X110930952Y-106559442D02*
X110930952Y-106392776D01*
X110930952Y-106392776D02*
X110954761Y-106297538D01*
X110954761Y-106297538D02*
X111002380Y-106249919D01*
X111002380Y-106249919D02*
X111049999Y-106226109D01*
X111573809Y-106226109D02*
X111669047Y-106226109D01*
X111669047Y-106226109D02*
X111716666Y-106249919D01*
X111716666Y-106249919D02*
X111764285Y-106297538D01*
X111764285Y-106297538D02*
X111788095Y-106392776D01*
X111788095Y-106392776D02*
X111788095Y-106559442D01*
X111788095Y-106559442D02*
X111764285Y-106654680D01*
X111764285Y-106654680D02*
X111716666Y-106702300D01*
X111716666Y-106702300D02*
X111669047Y-106726109D01*
X111669047Y-106726109D02*
X111573809Y-106726109D01*
X111573809Y-106726109D02*
X111526190Y-106702300D01*
X111526190Y-106702300D02*
X111478571Y-106654680D01*
X111478571Y-106654680D02*
X111454762Y-106559442D01*
X111454762Y-106559442D02*
X111454762Y-106392776D01*
X111454762Y-106392776D02*
X111478571Y-106297538D01*
X111478571Y-106297538D02*
X111526190Y-106249919D01*
X111526190Y-106249919D02*
X111573809Y-106226109D01*
X111930953Y-106226109D02*
X112216667Y-106226109D01*
X112073810Y-106726109D02*
X112073810Y-106226109D01*
X114973809Y-106826109D02*
X114807143Y-106588014D01*
X114688095Y-106826109D02*
X114688095Y-106326109D01*
X114688095Y-106326109D02*
X114878571Y-106326109D01*
X114878571Y-106326109D02*
X114926190Y-106349919D01*
X114926190Y-106349919D02*
X114950000Y-106373728D01*
X114950000Y-106373728D02*
X114973809Y-106421347D01*
X114973809Y-106421347D02*
X114973809Y-106492776D01*
X114973809Y-106492776D02*
X114950000Y-106540395D01*
X114950000Y-106540395D02*
X114926190Y-106564204D01*
X114926190Y-106564204D02*
X114878571Y-106588014D01*
X114878571Y-106588014D02*
X114688095Y-106588014D01*
X115188095Y-106564204D02*
X115354762Y-106564204D01*
X115426190Y-106826109D02*
X115188095Y-106826109D01*
X115188095Y-106826109D02*
X115188095Y-106326109D01*
X115188095Y-106326109D02*
X115426190Y-106326109D01*
X115616667Y-106802300D02*
X115688095Y-106826109D01*
X115688095Y-106826109D02*
X115807143Y-106826109D01*
X115807143Y-106826109D02*
X115854762Y-106802300D01*
X115854762Y-106802300D02*
X115878571Y-106778490D01*
X115878571Y-106778490D02*
X115902381Y-106730871D01*
X115902381Y-106730871D02*
X115902381Y-106683252D01*
X115902381Y-106683252D02*
X115878571Y-106635633D01*
X115878571Y-106635633D02*
X115854762Y-106611823D01*
X115854762Y-106611823D02*
X115807143Y-106588014D01*
X115807143Y-106588014D02*
X115711905Y-106564204D01*
X115711905Y-106564204D02*
X115664286Y-106540395D01*
X115664286Y-106540395D02*
X115640476Y-106516585D01*
X115640476Y-106516585D02*
X115616667Y-106468966D01*
X115616667Y-106468966D02*
X115616667Y-106421347D01*
X115616667Y-106421347D02*
X115640476Y-106373728D01*
X115640476Y-106373728D02*
X115664286Y-106349919D01*
X115664286Y-106349919D02*
X115711905Y-106326109D01*
X115711905Y-106326109D02*
X115830952Y-106326109D01*
X115830952Y-106326109D02*
X115902381Y-106349919D01*
X116116666Y-106564204D02*
X116283333Y-106564204D01*
X116354761Y-106826109D02*
X116116666Y-106826109D01*
X116116666Y-106826109D02*
X116116666Y-106326109D01*
X116116666Y-106326109D02*
X116354761Y-106326109D01*
X116497619Y-106326109D02*
X116783333Y-106326109D01*
X116640476Y-106826109D02*
X116640476Y-106326109D01*
D11*
X104303571Y-92896307D02*
X104410714Y-92932021D01*
X104410714Y-92932021D02*
X104446428Y-92967735D01*
X104446428Y-92967735D02*
X104482142Y-93039164D01*
X104482142Y-93039164D02*
X104482142Y-93146307D01*
X104482142Y-93146307D02*
X104446428Y-93217735D01*
X104446428Y-93217735D02*
X104410714Y-93253450D01*
X104410714Y-93253450D02*
X104339285Y-93289164D01*
X104339285Y-93289164D02*
X104053571Y-93289164D01*
X104053571Y-93289164D02*
X104053571Y-92539164D01*
X104053571Y-92539164D02*
X104303571Y-92539164D01*
X104303571Y-92539164D02*
X104375000Y-92574878D01*
X104375000Y-92574878D02*
X104410714Y-92610592D01*
X104410714Y-92610592D02*
X104446428Y-92682021D01*
X104446428Y-92682021D02*
X104446428Y-92753450D01*
X104446428Y-92753450D02*
X104410714Y-92824878D01*
X104410714Y-92824878D02*
X104375000Y-92860592D01*
X104375000Y-92860592D02*
X104303571Y-92896307D01*
X104303571Y-92896307D02*
X104053571Y-92896307D01*
D12*
X103734885Y-93821428D02*
X103434885Y-93821428D01*
X103434885Y-93821428D02*
X103434885Y-93749999D01*
X103434885Y-93749999D02*
X103449171Y-93707142D01*
X103449171Y-93707142D02*
X103477742Y-93678571D01*
X103477742Y-93678571D02*
X103506314Y-93664285D01*
X103506314Y-93664285D02*
X103563457Y-93649999D01*
X103563457Y-93649999D02*
X103606314Y-93649999D01*
X103606314Y-93649999D02*
X103663457Y-93664285D01*
X103663457Y-93664285D02*
X103692028Y-93678571D01*
X103692028Y-93678571D02*
X103720600Y-93707142D01*
X103720600Y-93707142D02*
X103734885Y-93749999D01*
X103734885Y-93749999D02*
X103734885Y-93821428D01*
X103434885Y-93549999D02*
X103434885Y-93364285D01*
X103434885Y-93364285D02*
X103549171Y-93464285D01*
X103549171Y-93464285D02*
X103549171Y-93421428D01*
X103549171Y-93421428D02*
X103563457Y-93392857D01*
X103563457Y-93392857D02*
X103577742Y-93378571D01*
X103577742Y-93378571D02*
X103606314Y-93364285D01*
X103606314Y-93364285D02*
X103677742Y-93364285D01*
X103677742Y-93364285D02*
X103706314Y-93378571D01*
X103706314Y-93378571D02*
X103720600Y-93392857D01*
X103720600Y-93392857D02*
X103734885Y-93421428D01*
X103734885Y-93421428D02*
X103734885Y-93507142D01*
X103734885Y-93507142D02*
X103720600Y-93535714D01*
X103720600Y-93535714D02*
X103706314Y-93549999D01*
D10*
X120241752Y-93966666D02*
X120260800Y-93985714D01*
X120260800Y-93985714D02*
X120279847Y-94042856D01*
X120279847Y-94042856D02*
X120279847Y-94080952D01*
X120279847Y-94080952D02*
X120260800Y-94138095D01*
X120260800Y-94138095D02*
X120222704Y-94176190D01*
X120222704Y-94176190D02*
X120184609Y-94195237D01*
X120184609Y-94195237D02*
X120108419Y-94214285D01*
X120108419Y-94214285D02*
X120051276Y-94214285D01*
X120051276Y-94214285D02*
X119975085Y-94195237D01*
X119975085Y-94195237D02*
X119936990Y-94176190D01*
X119936990Y-94176190D02*
X119898895Y-94138095D01*
X119898895Y-94138095D02*
X119879847Y-94080952D01*
X119879847Y-94080952D02*
X119879847Y-94042856D01*
X119879847Y-94042856D02*
X119898895Y-93985714D01*
X119898895Y-93985714D02*
X119917942Y-93966666D01*
X120279847Y-93776190D02*
X120279847Y-93699999D01*
X120279847Y-93699999D02*
X120260800Y-93661904D01*
X120260800Y-93661904D02*
X120241752Y-93642856D01*
X120241752Y-93642856D02*
X120184609Y-93604761D01*
X120184609Y-93604761D02*
X120108419Y-93585714D01*
X120108419Y-93585714D02*
X119956038Y-93585714D01*
X119956038Y-93585714D02*
X119917942Y-93604761D01*
X119917942Y-93604761D02*
X119898895Y-93623809D01*
X119898895Y-93623809D02*
X119879847Y-93661904D01*
X119879847Y-93661904D02*
X119879847Y-93738095D01*
X119879847Y-93738095D02*
X119898895Y-93776190D01*
X119898895Y-93776190D02*
X119917942Y-93795237D01*
X119917942Y-93795237D02*
X119956038Y-93814285D01*
X119956038Y-93814285D02*
X120051276Y-93814285D01*
X120051276Y-93814285D02*
X120089371Y-93795237D01*
X120089371Y-93795237D02*
X120108419Y-93776190D01*
X120108419Y-93776190D02*
X120127466Y-93738095D01*
X120127466Y-93738095D02*
X120127466Y-93661904D01*
X120127466Y-93661904D02*
X120108419Y-93623809D01*
X120108419Y-93623809D02*
X120089371Y-93604761D01*
X120089371Y-93604761D02*
X120051276Y-93585714D01*
X123441752Y-97457142D02*
X123460800Y-97476190D01*
X123460800Y-97476190D02*
X123479847Y-97533332D01*
X123479847Y-97533332D02*
X123479847Y-97571428D01*
X123479847Y-97571428D02*
X123460800Y-97628571D01*
X123460800Y-97628571D02*
X123422704Y-97666666D01*
X123422704Y-97666666D02*
X123384609Y-97685713D01*
X123384609Y-97685713D02*
X123308419Y-97704761D01*
X123308419Y-97704761D02*
X123251276Y-97704761D01*
X123251276Y-97704761D02*
X123175085Y-97685713D01*
X123175085Y-97685713D02*
X123136990Y-97666666D01*
X123136990Y-97666666D02*
X123098895Y-97628571D01*
X123098895Y-97628571D02*
X123079847Y-97571428D01*
X123079847Y-97571428D02*
X123079847Y-97533332D01*
X123079847Y-97533332D02*
X123098895Y-97476190D01*
X123098895Y-97476190D02*
X123117942Y-97457142D01*
X123479847Y-97076190D02*
X123479847Y-97304761D01*
X123479847Y-97190475D02*
X123079847Y-97190475D01*
X123079847Y-97190475D02*
X123136990Y-97228571D01*
X123136990Y-97228571D02*
X123175085Y-97266666D01*
X123175085Y-97266666D02*
X123194133Y-97304761D01*
X123479847Y-96885714D02*
X123479847Y-96809523D01*
X123479847Y-96809523D02*
X123460800Y-96771428D01*
X123460800Y-96771428D02*
X123441752Y-96752380D01*
X123441752Y-96752380D02*
X123384609Y-96714285D01*
X123384609Y-96714285D02*
X123308419Y-96695238D01*
X123308419Y-96695238D02*
X123156038Y-96695238D01*
X123156038Y-96695238D02*
X123117942Y-96714285D01*
X123117942Y-96714285D02*
X123098895Y-96733333D01*
X123098895Y-96733333D02*
X123079847Y-96771428D01*
X123079847Y-96771428D02*
X123079847Y-96847619D01*
X123079847Y-96847619D02*
X123098895Y-96885714D01*
X123098895Y-96885714D02*
X123117942Y-96904761D01*
X123117942Y-96904761D02*
X123156038Y-96923809D01*
X123156038Y-96923809D02*
X123251276Y-96923809D01*
X123251276Y-96923809D02*
X123289371Y-96904761D01*
X123289371Y-96904761D02*
X123308419Y-96885714D01*
X123308419Y-96885714D02*
X123327466Y-96847619D01*
X123327466Y-96847619D02*
X123327466Y-96771428D01*
X123327466Y-96771428D02*
X123308419Y-96733333D01*
X123308419Y-96733333D02*
X123289371Y-96714285D01*
X123289371Y-96714285D02*
X123251276Y-96695238D01*
D12*
X101007143Y-94134885D02*
X100907143Y-93992028D01*
X100835714Y-94134885D02*
X100835714Y-93834885D01*
X100835714Y-93834885D02*
X100950000Y-93834885D01*
X100950000Y-93834885D02*
X100978571Y-93849171D01*
X100978571Y-93849171D02*
X100992857Y-93863457D01*
X100992857Y-93863457D02*
X101007143Y-93892028D01*
X101007143Y-93892028D02*
X101007143Y-93934885D01*
X101007143Y-93934885D02*
X100992857Y-93963457D01*
X100992857Y-93963457D02*
X100978571Y-93977742D01*
X100978571Y-93977742D02*
X100950000Y-93992028D01*
X100950000Y-93992028D02*
X100835714Y-93992028D01*
X101292857Y-94134885D02*
X101121428Y-94134885D01*
X101207143Y-94134885D02*
X101207143Y-93834885D01*
X101207143Y-93834885D02*
X101178571Y-93877742D01*
X101178571Y-93877742D02*
X101150000Y-93906314D01*
X101150000Y-93906314D02*
X101121428Y-93920600D01*
X101392857Y-93834885D02*
X101578571Y-93834885D01*
X101578571Y-93834885D02*
X101478571Y-93949171D01*
X101478571Y-93949171D02*
X101521428Y-93949171D01*
X101521428Y-93949171D02*
X101550000Y-93963457D01*
X101550000Y-93963457D02*
X101564285Y-93977742D01*
X101564285Y-93977742D02*
X101578571Y-94006314D01*
X101578571Y-94006314D02*
X101578571Y-94077742D01*
X101578571Y-94077742D02*
X101564285Y-94106314D01*
X101564285Y-94106314D02*
X101550000Y-94120600D01*
X101550000Y-94120600D02*
X101521428Y-94134885D01*
X101521428Y-94134885D02*
X101435714Y-94134885D01*
X101435714Y-94134885D02*
X101407142Y-94120600D01*
X101407142Y-94120600D02*
X101392857Y-94106314D01*
X114106314Y-97892856D02*
X114120600Y-97907142D01*
X114120600Y-97907142D02*
X114134885Y-97949999D01*
X114134885Y-97949999D02*
X114134885Y-97978571D01*
X114134885Y-97978571D02*
X114120600Y-98021428D01*
X114120600Y-98021428D02*
X114092028Y-98049999D01*
X114092028Y-98049999D02*
X114063457Y-98064285D01*
X114063457Y-98064285D02*
X114006314Y-98078571D01*
X114006314Y-98078571D02*
X113963457Y-98078571D01*
X113963457Y-98078571D02*
X113906314Y-98064285D01*
X113906314Y-98064285D02*
X113877742Y-98049999D01*
X113877742Y-98049999D02*
X113849171Y-98021428D01*
X113849171Y-98021428D02*
X113834885Y-97978571D01*
X113834885Y-97978571D02*
X113834885Y-97949999D01*
X113834885Y-97949999D02*
X113849171Y-97907142D01*
X113849171Y-97907142D02*
X113863457Y-97892856D01*
X114134885Y-97607142D02*
X114134885Y-97778571D01*
X114134885Y-97692856D02*
X113834885Y-97692856D01*
X113834885Y-97692856D02*
X113877742Y-97721428D01*
X113877742Y-97721428D02*
X113906314Y-97749999D01*
X113906314Y-97749999D02*
X113920600Y-97778571D01*
X113863457Y-97492857D02*
X113849171Y-97478571D01*
X113849171Y-97478571D02*
X113834885Y-97450000D01*
X113834885Y-97450000D02*
X113834885Y-97378571D01*
X113834885Y-97378571D02*
X113849171Y-97350000D01*
X113849171Y-97350000D02*
X113863457Y-97335714D01*
X113863457Y-97335714D02*
X113892028Y-97321428D01*
X113892028Y-97321428D02*
X113920600Y-97321428D01*
X113920600Y-97321428D02*
X113963457Y-97335714D01*
X113963457Y-97335714D02*
X114134885Y-97507142D01*
X114134885Y-97507142D02*
X114134885Y-97321428D01*
D10*
X113633333Y-106579847D02*
X113500000Y-106389371D01*
X113404762Y-106579847D02*
X113404762Y-106179847D01*
X113404762Y-106179847D02*
X113557143Y-106179847D01*
X113557143Y-106179847D02*
X113595238Y-106198895D01*
X113595238Y-106198895D02*
X113614285Y-106217942D01*
X113614285Y-106217942D02*
X113633333Y-106256038D01*
X113633333Y-106256038D02*
X113633333Y-106313180D01*
X113633333Y-106313180D02*
X113614285Y-106351276D01*
X113614285Y-106351276D02*
X113595238Y-106370323D01*
X113595238Y-106370323D02*
X113557143Y-106389371D01*
X113557143Y-106389371D02*
X113404762Y-106389371D01*
X114014285Y-106579847D02*
X113785714Y-106579847D01*
X113900000Y-106579847D02*
X113900000Y-106179847D01*
X113900000Y-106179847D02*
X113861904Y-106236990D01*
X113861904Y-106236990D02*
X113823809Y-106275085D01*
X113823809Y-106275085D02*
X113785714Y-106294133D01*
X102895238Y-107879847D02*
X102895238Y-108203657D01*
X102895238Y-108203657D02*
X102914285Y-108241752D01*
X102914285Y-108241752D02*
X102933333Y-108260800D01*
X102933333Y-108260800D02*
X102971428Y-108279847D01*
X102971428Y-108279847D02*
X103047619Y-108279847D01*
X103047619Y-108279847D02*
X103085714Y-108260800D01*
X103085714Y-108260800D02*
X103104761Y-108241752D01*
X103104761Y-108241752D02*
X103123809Y-108203657D01*
X103123809Y-108203657D02*
X103123809Y-107879847D01*
X103504762Y-107879847D02*
X103314286Y-107879847D01*
X103314286Y-107879847D02*
X103295238Y-108070323D01*
X103295238Y-108070323D02*
X103314286Y-108051276D01*
X103314286Y-108051276D02*
X103352381Y-108032228D01*
X103352381Y-108032228D02*
X103447619Y-108032228D01*
X103447619Y-108032228D02*
X103485714Y-108051276D01*
X103485714Y-108051276D02*
X103504762Y-108070323D01*
X103504762Y-108070323D02*
X103523809Y-108108419D01*
X103523809Y-108108419D02*
X103523809Y-108203657D01*
X103523809Y-108203657D02*
X103504762Y-108241752D01*
X103504762Y-108241752D02*
X103485714Y-108260800D01*
X103485714Y-108260800D02*
X103447619Y-108279847D01*
X103447619Y-108279847D02*
X103352381Y-108279847D01*
X103352381Y-108279847D02*
X103314286Y-108260800D01*
X103314286Y-108260800D02*
X103295238Y-108241752D01*
X115433333Y-104041752D02*
X115414285Y-104060800D01*
X115414285Y-104060800D02*
X115357143Y-104079847D01*
X115357143Y-104079847D02*
X115319047Y-104079847D01*
X115319047Y-104079847D02*
X115261904Y-104060800D01*
X115261904Y-104060800D02*
X115223809Y-104022704D01*
X115223809Y-104022704D02*
X115204762Y-103984609D01*
X115204762Y-103984609D02*
X115185714Y-103908419D01*
X115185714Y-103908419D02*
X115185714Y-103851276D01*
X115185714Y-103851276D02*
X115204762Y-103775085D01*
X115204762Y-103775085D02*
X115223809Y-103736990D01*
X115223809Y-103736990D02*
X115261904Y-103698895D01*
X115261904Y-103698895D02*
X115319047Y-103679847D01*
X115319047Y-103679847D02*
X115357143Y-103679847D01*
X115357143Y-103679847D02*
X115414285Y-103698895D01*
X115414285Y-103698895D02*
X115433333Y-103717942D01*
X115566666Y-103679847D02*
X115814285Y-103679847D01*
X115814285Y-103679847D02*
X115680952Y-103832228D01*
X115680952Y-103832228D02*
X115738095Y-103832228D01*
X115738095Y-103832228D02*
X115776190Y-103851276D01*
X115776190Y-103851276D02*
X115795238Y-103870323D01*
X115795238Y-103870323D02*
X115814285Y-103908419D01*
X115814285Y-103908419D02*
X115814285Y-104003657D01*
X115814285Y-104003657D02*
X115795238Y-104041752D01*
X115795238Y-104041752D02*
X115776190Y-104060800D01*
X115776190Y-104060800D02*
X115738095Y-104079847D01*
X115738095Y-104079847D02*
X115623809Y-104079847D01*
X115623809Y-104079847D02*
X115585714Y-104060800D01*
X115585714Y-104060800D02*
X115566666Y-104041752D01*
X130595238Y-93379847D02*
X130595238Y-93703657D01*
X130595238Y-93703657D02*
X130614285Y-93741752D01*
X130614285Y-93741752D02*
X130633333Y-93760800D01*
X130633333Y-93760800D02*
X130671428Y-93779847D01*
X130671428Y-93779847D02*
X130747619Y-93779847D01*
X130747619Y-93779847D02*
X130785714Y-93760800D01*
X130785714Y-93760800D02*
X130804761Y-93741752D01*
X130804761Y-93741752D02*
X130823809Y-93703657D01*
X130823809Y-93703657D02*
X130823809Y-93379847D01*
X131185714Y-93513180D02*
X131185714Y-93779847D01*
X131090476Y-93360800D02*
X130995238Y-93646514D01*
X130995238Y-93646514D02*
X131242857Y-93646514D01*
X110579847Y-105857142D02*
X110389371Y-105990475D01*
X110579847Y-106085713D02*
X110179847Y-106085713D01*
X110179847Y-106085713D02*
X110179847Y-105933332D01*
X110179847Y-105933332D02*
X110198895Y-105895237D01*
X110198895Y-105895237D02*
X110217942Y-105876190D01*
X110217942Y-105876190D02*
X110256038Y-105857142D01*
X110256038Y-105857142D02*
X110313180Y-105857142D01*
X110313180Y-105857142D02*
X110351276Y-105876190D01*
X110351276Y-105876190D02*
X110370323Y-105895237D01*
X110370323Y-105895237D02*
X110389371Y-105933332D01*
X110389371Y-105933332D02*
X110389371Y-106085713D01*
X110579847Y-105476190D02*
X110579847Y-105704761D01*
X110579847Y-105590475D02*
X110179847Y-105590475D01*
X110179847Y-105590475D02*
X110236990Y-105628571D01*
X110236990Y-105628571D02*
X110275085Y-105666666D01*
X110275085Y-105666666D02*
X110294133Y-105704761D01*
X110179847Y-105133333D02*
X110179847Y-105209523D01*
X110179847Y-105209523D02*
X110198895Y-105247619D01*
X110198895Y-105247619D02*
X110217942Y-105266666D01*
X110217942Y-105266666D02*
X110275085Y-105304761D01*
X110275085Y-105304761D02*
X110351276Y-105323809D01*
X110351276Y-105323809D02*
X110503657Y-105323809D01*
X110503657Y-105323809D02*
X110541752Y-105304761D01*
X110541752Y-105304761D02*
X110560800Y-105285714D01*
X110560800Y-105285714D02*
X110579847Y-105247619D01*
X110579847Y-105247619D02*
X110579847Y-105171428D01*
X110579847Y-105171428D02*
X110560800Y-105133333D01*
X110560800Y-105133333D02*
X110541752Y-105114285D01*
X110541752Y-105114285D02*
X110503657Y-105095238D01*
X110503657Y-105095238D02*
X110408419Y-105095238D01*
X110408419Y-105095238D02*
X110370323Y-105114285D01*
X110370323Y-105114285D02*
X110351276Y-105133333D01*
X110351276Y-105133333D02*
X110332228Y-105171428D01*
X110332228Y-105171428D02*
X110332228Y-105247619D01*
X110332228Y-105247619D02*
X110351276Y-105285714D01*
X110351276Y-105285714D02*
X110370323Y-105304761D01*
X110370323Y-105304761D02*
X110408419Y-105323809D01*
X108542857Y-96279847D02*
X108409524Y-96089371D01*
X108314286Y-96279847D02*
X108314286Y-95879847D01*
X108314286Y-95879847D02*
X108466667Y-95879847D01*
X108466667Y-95879847D02*
X108504762Y-95898895D01*
X108504762Y-95898895D02*
X108523809Y-95917942D01*
X108523809Y-95917942D02*
X108542857Y-95956038D01*
X108542857Y-95956038D02*
X108542857Y-96013180D01*
X108542857Y-96013180D02*
X108523809Y-96051276D01*
X108523809Y-96051276D02*
X108504762Y-96070323D01*
X108504762Y-96070323D02*
X108466667Y-96089371D01*
X108466667Y-96089371D02*
X108314286Y-96089371D01*
X108695238Y-95917942D02*
X108714286Y-95898895D01*
X108714286Y-95898895D02*
X108752381Y-95879847D01*
X108752381Y-95879847D02*
X108847619Y-95879847D01*
X108847619Y-95879847D02*
X108885714Y-95898895D01*
X108885714Y-95898895D02*
X108904762Y-95917942D01*
X108904762Y-95917942D02*
X108923809Y-95956038D01*
X108923809Y-95956038D02*
X108923809Y-95994133D01*
X108923809Y-95994133D02*
X108904762Y-96051276D01*
X108904762Y-96051276D02*
X108676190Y-96279847D01*
X108676190Y-96279847D02*
X108923809Y-96279847D01*
X109304761Y-96279847D02*
X109076190Y-96279847D01*
X109190476Y-96279847D02*
X109190476Y-95879847D01*
X109190476Y-95879847D02*
X109152380Y-95936990D01*
X109152380Y-95936990D02*
X109114285Y-95975085D01*
X109114285Y-95975085D02*
X109076190Y-95994133D01*
X123541752Y-94657142D02*
X123560800Y-94676190D01*
X123560800Y-94676190D02*
X123579847Y-94733332D01*
X123579847Y-94733332D02*
X123579847Y-94771428D01*
X123579847Y-94771428D02*
X123560800Y-94828571D01*
X123560800Y-94828571D02*
X123522704Y-94866666D01*
X123522704Y-94866666D02*
X123484609Y-94885713D01*
X123484609Y-94885713D02*
X123408419Y-94904761D01*
X123408419Y-94904761D02*
X123351276Y-94904761D01*
X123351276Y-94904761D02*
X123275085Y-94885713D01*
X123275085Y-94885713D02*
X123236990Y-94866666D01*
X123236990Y-94866666D02*
X123198895Y-94828571D01*
X123198895Y-94828571D02*
X123179847Y-94771428D01*
X123179847Y-94771428D02*
X123179847Y-94733332D01*
X123179847Y-94733332D02*
X123198895Y-94676190D01*
X123198895Y-94676190D02*
X123217942Y-94657142D01*
X123579847Y-94276190D02*
X123579847Y-94504761D01*
X123579847Y-94390475D02*
X123179847Y-94390475D01*
X123179847Y-94390475D02*
X123236990Y-94428571D01*
X123236990Y-94428571D02*
X123275085Y-94466666D01*
X123275085Y-94466666D02*
X123294133Y-94504761D01*
X123313180Y-93933333D02*
X123579847Y-93933333D01*
X123160800Y-94028571D02*
X123446514Y-94123809D01*
X123446514Y-94123809D02*
X123446514Y-93876190D01*
X133423809Y-103779847D02*
X133290476Y-103589371D01*
X133195238Y-103779847D02*
X133195238Y-103379847D01*
X133195238Y-103379847D02*
X133347619Y-103379847D01*
X133347619Y-103379847D02*
X133385714Y-103398895D01*
X133385714Y-103398895D02*
X133404761Y-103417942D01*
X133404761Y-103417942D02*
X133423809Y-103456038D01*
X133423809Y-103456038D02*
X133423809Y-103513180D01*
X133423809Y-103513180D02*
X133404761Y-103551276D01*
X133404761Y-103551276D02*
X133385714Y-103570323D01*
X133385714Y-103570323D02*
X133347619Y-103589371D01*
X133347619Y-103589371D02*
X133195238Y-103589371D01*
X133595238Y-103779847D02*
X133595238Y-103379847D01*
X133595238Y-103379847D02*
X133823809Y-103779847D01*
X133823809Y-103779847D02*
X133823809Y-103379847D01*
X134223809Y-103779847D02*
X133995238Y-103779847D01*
X134109524Y-103779847D02*
X134109524Y-103379847D01*
X134109524Y-103379847D02*
X134071428Y-103436990D01*
X134071428Y-103436990D02*
X134033333Y-103475085D01*
X134033333Y-103475085D02*
X133995238Y-103494133D01*
X113017942Y-92238095D02*
X112998895Y-92276190D01*
X112998895Y-92276190D02*
X112960800Y-92314285D01*
X112960800Y-92314285D02*
X112903657Y-92371428D01*
X112903657Y-92371428D02*
X112884609Y-92409523D01*
X112884609Y-92409523D02*
X112884609Y-92447619D01*
X112979847Y-92428571D02*
X112960800Y-92466666D01*
X112960800Y-92466666D02*
X112922704Y-92504761D01*
X112922704Y-92504761D02*
X112846514Y-92523809D01*
X112846514Y-92523809D02*
X112713180Y-92523809D01*
X112713180Y-92523809D02*
X112636990Y-92504761D01*
X112636990Y-92504761D02*
X112598895Y-92466666D01*
X112598895Y-92466666D02*
X112579847Y-92428571D01*
X112579847Y-92428571D02*
X112579847Y-92352380D01*
X112579847Y-92352380D02*
X112598895Y-92314285D01*
X112598895Y-92314285D02*
X112636990Y-92276190D01*
X112636990Y-92276190D02*
X112713180Y-92257142D01*
X112713180Y-92257142D02*
X112846514Y-92257142D01*
X112846514Y-92257142D02*
X112922704Y-92276190D01*
X112922704Y-92276190D02*
X112960800Y-92314285D01*
X112960800Y-92314285D02*
X112979847Y-92352380D01*
X112979847Y-92352380D02*
X112979847Y-92428571D01*
X112979847Y-91876190D02*
X112979847Y-92104761D01*
X112979847Y-91990475D02*
X112579847Y-91990475D01*
X112579847Y-91990475D02*
X112636990Y-92028571D01*
X112636990Y-92028571D02*
X112675085Y-92066666D01*
X112675085Y-92066666D02*
X112694133Y-92104761D01*
D13*
X122789923Y-102633332D02*
X122789923Y-102728570D01*
X122789923Y-102728570D02*
X122589923Y-102728570D01*
X122608971Y-102576189D02*
X122599447Y-102566665D01*
X122599447Y-102566665D02*
X122589923Y-102547618D01*
X122589923Y-102547618D02*
X122589923Y-102499999D01*
X122589923Y-102499999D02*
X122599447Y-102480951D01*
X122599447Y-102480951D02*
X122608971Y-102471427D01*
X122608971Y-102471427D02*
X122628019Y-102461904D01*
X122628019Y-102461904D02*
X122647066Y-102461904D01*
X122647066Y-102461904D02*
X122675638Y-102471427D01*
X122675638Y-102471427D02*
X122789923Y-102585713D01*
X122789923Y-102585713D02*
X122789923Y-102461904D01*
D10*
X125841752Y-102657142D02*
X125860800Y-102676190D01*
X125860800Y-102676190D02*
X125879847Y-102733332D01*
X125879847Y-102733332D02*
X125879847Y-102771428D01*
X125879847Y-102771428D02*
X125860800Y-102828571D01*
X125860800Y-102828571D02*
X125822704Y-102866666D01*
X125822704Y-102866666D02*
X125784609Y-102885713D01*
X125784609Y-102885713D02*
X125708419Y-102904761D01*
X125708419Y-102904761D02*
X125651276Y-102904761D01*
X125651276Y-102904761D02*
X125575085Y-102885713D01*
X125575085Y-102885713D02*
X125536990Y-102866666D01*
X125536990Y-102866666D02*
X125498895Y-102828571D01*
X125498895Y-102828571D02*
X125479847Y-102771428D01*
X125479847Y-102771428D02*
X125479847Y-102733332D01*
X125479847Y-102733332D02*
X125498895Y-102676190D01*
X125498895Y-102676190D02*
X125517942Y-102657142D01*
X125879847Y-102276190D02*
X125879847Y-102504761D01*
X125879847Y-102390475D02*
X125479847Y-102390475D01*
X125479847Y-102390475D02*
X125536990Y-102428571D01*
X125536990Y-102428571D02*
X125575085Y-102466666D01*
X125575085Y-102466666D02*
X125594133Y-102504761D01*
X125879847Y-101895238D02*
X125879847Y-102123809D01*
X125879847Y-102009523D02*
X125479847Y-102009523D01*
X125479847Y-102009523D02*
X125536990Y-102047619D01*
X125536990Y-102047619D02*
X125575085Y-102085714D01*
X125575085Y-102085714D02*
X125594133Y-102123809D01*
X106742857Y-104241752D02*
X106723809Y-104260800D01*
X106723809Y-104260800D02*
X106666667Y-104279847D01*
X106666667Y-104279847D02*
X106628571Y-104279847D01*
X106628571Y-104279847D02*
X106571428Y-104260800D01*
X106571428Y-104260800D02*
X106533333Y-104222704D01*
X106533333Y-104222704D02*
X106514286Y-104184609D01*
X106514286Y-104184609D02*
X106495238Y-104108419D01*
X106495238Y-104108419D02*
X106495238Y-104051276D01*
X106495238Y-104051276D02*
X106514286Y-103975085D01*
X106514286Y-103975085D02*
X106533333Y-103936990D01*
X106533333Y-103936990D02*
X106571428Y-103898895D01*
X106571428Y-103898895D02*
X106628571Y-103879847D01*
X106628571Y-103879847D02*
X106666667Y-103879847D01*
X106666667Y-103879847D02*
X106723809Y-103898895D01*
X106723809Y-103898895D02*
X106742857Y-103917942D01*
X106895238Y-103917942D02*
X106914286Y-103898895D01*
X106914286Y-103898895D02*
X106952381Y-103879847D01*
X106952381Y-103879847D02*
X107047619Y-103879847D01*
X107047619Y-103879847D02*
X107085714Y-103898895D01*
X107085714Y-103898895D02*
X107104762Y-103917942D01*
X107104762Y-103917942D02*
X107123809Y-103956038D01*
X107123809Y-103956038D02*
X107123809Y-103994133D01*
X107123809Y-103994133D02*
X107104762Y-104051276D01*
X107104762Y-104051276D02*
X106876190Y-104279847D01*
X106876190Y-104279847D02*
X107123809Y-104279847D01*
X107371428Y-103879847D02*
X107409523Y-103879847D01*
X107409523Y-103879847D02*
X107447619Y-103898895D01*
X107447619Y-103898895D02*
X107466666Y-103917942D01*
X107466666Y-103917942D02*
X107485714Y-103956038D01*
X107485714Y-103956038D02*
X107504761Y-104032228D01*
X107504761Y-104032228D02*
X107504761Y-104127466D01*
X107504761Y-104127466D02*
X107485714Y-104203657D01*
X107485714Y-104203657D02*
X107466666Y-104241752D01*
X107466666Y-104241752D02*
X107447619Y-104260800D01*
X107447619Y-104260800D02*
X107409523Y-104279847D01*
X107409523Y-104279847D02*
X107371428Y-104279847D01*
X107371428Y-104279847D02*
X107333333Y-104260800D01*
X107333333Y-104260800D02*
X107314285Y-104241752D01*
X107314285Y-104241752D02*
X107295238Y-104203657D01*
X107295238Y-104203657D02*
X107276190Y-104127466D01*
X107276190Y-104127466D02*
X107276190Y-104032228D01*
X107276190Y-104032228D02*
X107295238Y-103956038D01*
X107295238Y-103956038D02*
X107314285Y-103917942D01*
X107314285Y-103917942D02*
X107333333Y-103898895D01*
X107333333Y-103898895D02*
X107371428Y-103879847D01*
X119741752Y-105766666D02*
X119760800Y-105785714D01*
X119760800Y-105785714D02*
X119779847Y-105842856D01*
X119779847Y-105842856D02*
X119779847Y-105880952D01*
X119779847Y-105880952D02*
X119760800Y-105938095D01*
X119760800Y-105938095D02*
X119722704Y-105976190D01*
X119722704Y-105976190D02*
X119684609Y-105995237D01*
X119684609Y-105995237D02*
X119608419Y-106014285D01*
X119608419Y-106014285D02*
X119551276Y-106014285D01*
X119551276Y-106014285D02*
X119475085Y-105995237D01*
X119475085Y-105995237D02*
X119436990Y-105976190D01*
X119436990Y-105976190D02*
X119398895Y-105938095D01*
X119398895Y-105938095D02*
X119379847Y-105880952D01*
X119379847Y-105880952D02*
X119379847Y-105842856D01*
X119379847Y-105842856D02*
X119398895Y-105785714D01*
X119398895Y-105785714D02*
X119417942Y-105766666D01*
X119513180Y-105423809D02*
X119779847Y-105423809D01*
X119360800Y-105519047D02*
X119646514Y-105614285D01*
X119646514Y-105614285D02*
X119646514Y-105366666D01*
X105333333Y-104979847D02*
X105200000Y-104789371D01*
X105104762Y-104979847D02*
X105104762Y-104579847D01*
X105104762Y-104579847D02*
X105257143Y-104579847D01*
X105257143Y-104579847D02*
X105295238Y-104598895D01*
X105295238Y-104598895D02*
X105314285Y-104617942D01*
X105314285Y-104617942D02*
X105333333Y-104656038D01*
X105333333Y-104656038D02*
X105333333Y-104713180D01*
X105333333Y-104713180D02*
X105314285Y-104751276D01*
X105314285Y-104751276D02*
X105295238Y-104770323D01*
X105295238Y-104770323D02*
X105257143Y-104789371D01*
X105257143Y-104789371D02*
X105104762Y-104789371D01*
X105561904Y-104751276D02*
X105523809Y-104732228D01*
X105523809Y-104732228D02*
X105504762Y-104713180D01*
X105504762Y-104713180D02*
X105485714Y-104675085D01*
X105485714Y-104675085D02*
X105485714Y-104656038D01*
X105485714Y-104656038D02*
X105504762Y-104617942D01*
X105504762Y-104617942D02*
X105523809Y-104598895D01*
X105523809Y-104598895D02*
X105561904Y-104579847D01*
X105561904Y-104579847D02*
X105638095Y-104579847D01*
X105638095Y-104579847D02*
X105676190Y-104598895D01*
X105676190Y-104598895D02*
X105695238Y-104617942D01*
X105695238Y-104617942D02*
X105714285Y-104656038D01*
X105714285Y-104656038D02*
X105714285Y-104675085D01*
X105714285Y-104675085D02*
X105695238Y-104713180D01*
X105695238Y-104713180D02*
X105676190Y-104732228D01*
X105676190Y-104732228D02*
X105638095Y-104751276D01*
X105638095Y-104751276D02*
X105561904Y-104751276D01*
X105561904Y-104751276D02*
X105523809Y-104770323D01*
X105523809Y-104770323D02*
X105504762Y-104789371D01*
X105504762Y-104789371D02*
X105485714Y-104827466D01*
X105485714Y-104827466D02*
X105485714Y-104903657D01*
X105485714Y-104903657D02*
X105504762Y-104941752D01*
X105504762Y-104941752D02*
X105523809Y-104960800D01*
X105523809Y-104960800D02*
X105561904Y-104979847D01*
X105561904Y-104979847D02*
X105638095Y-104979847D01*
X105638095Y-104979847D02*
X105676190Y-104960800D01*
X105676190Y-104960800D02*
X105695238Y-104941752D01*
X105695238Y-104941752D02*
X105714285Y-104903657D01*
X105714285Y-104903657D02*
X105714285Y-104827466D01*
X105714285Y-104827466D02*
X105695238Y-104789371D01*
X105695238Y-104789371D02*
X105676190Y-104770323D01*
X105676190Y-104770323D02*
X105638095Y-104751276D01*
D13*
X112771428Y-103289923D02*
X112704762Y-103194685D01*
X112657143Y-103289923D02*
X112657143Y-103089923D01*
X112657143Y-103089923D02*
X112733333Y-103089923D01*
X112733333Y-103089923D02*
X112752381Y-103099447D01*
X112752381Y-103099447D02*
X112761904Y-103108971D01*
X112761904Y-103108971D02*
X112771428Y-103128019D01*
X112771428Y-103128019D02*
X112771428Y-103156590D01*
X112771428Y-103156590D02*
X112761904Y-103175638D01*
X112761904Y-103175638D02*
X112752381Y-103185161D01*
X112752381Y-103185161D02*
X112733333Y-103194685D01*
X112733333Y-103194685D02*
X112657143Y-103194685D01*
X112847619Y-103108971D02*
X112857143Y-103099447D01*
X112857143Y-103099447D02*
X112876190Y-103089923D01*
X112876190Y-103089923D02*
X112923809Y-103089923D01*
X112923809Y-103089923D02*
X112942857Y-103099447D01*
X112942857Y-103099447D02*
X112952381Y-103108971D01*
X112952381Y-103108971D02*
X112961904Y-103128019D01*
X112961904Y-103128019D02*
X112961904Y-103147066D01*
X112961904Y-103147066D02*
X112952381Y-103175638D01*
X112952381Y-103175638D02*
X112838095Y-103289923D01*
X112838095Y-103289923D02*
X112961904Y-103289923D01*
X113038095Y-103108971D02*
X113047619Y-103099447D01*
X113047619Y-103099447D02*
X113066666Y-103089923D01*
X113066666Y-103089923D02*
X113114285Y-103089923D01*
X113114285Y-103089923D02*
X113133333Y-103099447D01*
X113133333Y-103099447D02*
X113142857Y-103108971D01*
X113142857Y-103108971D02*
X113152380Y-103128019D01*
X113152380Y-103128019D02*
X113152380Y-103147066D01*
X113152380Y-103147066D02*
X113142857Y-103175638D01*
X113142857Y-103175638D02*
X113028571Y-103289923D01*
X113028571Y-103289923D02*
X113152380Y-103289923D01*
D10*
X131033333Y-100241752D02*
X131014285Y-100260800D01*
X131014285Y-100260800D02*
X130957143Y-100279847D01*
X130957143Y-100279847D02*
X130919047Y-100279847D01*
X130919047Y-100279847D02*
X130861904Y-100260800D01*
X130861904Y-100260800D02*
X130823809Y-100222704D01*
X130823809Y-100222704D02*
X130804762Y-100184609D01*
X130804762Y-100184609D02*
X130785714Y-100108419D01*
X130785714Y-100108419D02*
X130785714Y-100051276D01*
X130785714Y-100051276D02*
X130804762Y-99975085D01*
X130804762Y-99975085D02*
X130823809Y-99936990D01*
X130823809Y-99936990D02*
X130861904Y-99898895D01*
X130861904Y-99898895D02*
X130919047Y-99879847D01*
X130919047Y-99879847D02*
X130957143Y-99879847D01*
X130957143Y-99879847D02*
X131014285Y-99898895D01*
X131014285Y-99898895D02*
X131033333Y-99917942D01*
X131185714Y-99917942D02*
X131204762Y-99898895D01*
X131204762Y-99898895D02*
X131242857Y-99879847D01*
X131242857Y-99879847D02*
X131338095Y-99879847D01*
X131338095Y-99879847D02*
X131376190Y-99898895D01*
X131376190Y-99898895D02*
X131395238Y-99917942D01*
X131395238Y-99917942D02*
X131414285Y-99956038D01*
X131414285Y-99956038D02*
X131414285Y-99994133D01*
X131414285Y-99994133D02*
X131395238Y-100051276D01*
X131395238Y-100051276D02*
X131166666Y-100279847D01*
X131166666Y-100279847D02*
X131414285Y-100279847D01*
D13*
X126966666Y-100970876D02*
X126957142Y-100980400D01*
X126957142Y-100980400D02*
X126928571Y-100989923D01*
X126928571Y-100989923D02*
X126909523Y-100989923D01*
X126909523Y-100989923D02*
X126880952Y-100980400D01*
X126880952Y-100980400D02*
X126861904Y-100961352D01*
X126861904Y-100961352D02*
X126852381Y-100942304D01*
X126852381Y-100942304D02*
X126842857Y-100904209D01*
X126842857Y-100904209D02*
X126842857Y-100875638D01*
X126842857Y-100875638D02*
X126852381Y-100837542D01*
X126852381Y-100837542D02*
X126861904Y-100818495D01*
X126861904Y-100818495D02*
X126880952Y-100799447D01*
X126880952Y-100799447D02*
X126909523Y-100789923D01*
X126909523Y-100789923D02*
X126928571Y-100789923D01*
X126928571Y-100789923D02*
X126957142Y-100799447D01*
X126957142Y-100799447D02*
X126966666Y-100808971D01*
X127157142Y-100989923D02*
X127042857Y-100989923D01*
X127100000Y-100989923D02*
X127100000Y-100789923D01*
X127100000Y-100789923D02*
X127080952Y-100818495D01*
X127080952Y-100818495D02*
X127061904Y-100837542D01*
X127061904Y-100837542D02*
X127042857Y-100847066D01*
D10*
X125841752Y-101457142D02*
X125860800Y-101476190D01*
X125860800Y-101476190D02*
X125879847Y-101533332D01*
X125879847Y-101533332D02*
X125879847Y-101571428D01*
X125879847Y-101571428D02*
X125860800Y-101628571D01*
X125860800Y-101628571D02*
X125822704Y-101666666D01*
X125822704Y-101666666D02*
X125784609Y-101685713D01*
X125784609Y-101685713D02*
X125708419Y-101704761D01*
X125708419Y-101704761D02*
X125651276Y-101704761D01*
X125651276Y-101704761D02*
X125575085Y-101685713D01*
X125575085Y-101685713D02*
X125536990Y-101666666D01*
X125536990Y-101666666D02*
X125498895Y-101628571D01*
X125498895Y-101628571D02*
X125479847Y-101571428D01*
X125479847Y-101571428D02*
X125479847Y-101533332D01*
X125479847Y-101533332D02*
X125498895Y-101476190D01*
X125498895Y-101476190D02*
X125517942Y-101457142D01*
X125879847Y-101076190D02*
X125879847Y-101304761D01*
X125879847Y-101190475D02*
X125479847Y-101190475D01*
X125479847Y-101190475D02*
X125536990Y-101228571D01*
X125536990Y-101228571D02*
X125575085Y-101266666D01*
X125575085Y-101266666D02*
X125594133Y-101304761D01*
X125479847Y-100828571D02*
X125479847Y-100790476D01*
X125479847Y-100790476D02*
X125498895Y-100752380D01*
X125498895Y-100752380D02*
X125517942Y-100733333D01*
X125517942Y-100733333D02*
X125556038Y-100714285D01*
X125556038Y-100714285D02*
X125632228Y-100695238D01*
X125632228Y-100695238D02*
X125727466Y-100695238D01*
X125727466Y-100695238D02*
X125803657Y-100714285D01*
X125803657Y-100714285D02*
X125841752Y-100733333D01*
X125841752Y-100733333D02*
X125860800Y-100752380D01*
X125860800Y-100752380D02*
X125879847Y-100790476D01*
X125879847Y-100790476D02*
X125879847Y-100828571D01*
X125879847Y-100828571D02*
X125860800Y-100866666D01*
X125860800Y-100866666D02*
X125841752Y-100885714D01*
X125841752Y-100885714D02*
X125803657Y-100904761D01*
X125803657Y-100904761D02*
X125727466Y-100923809D01*
X125727466Y-100923809D02*
X125632228Y-100923809D01*
X125632228Y-100923809D02*
X125556038Y-100904761D01*
X125556038Y-100904761D02*
X125517942Y-100885714D01*
X125517942Y-100885714D02*
X125498895Y-100866666D01*
X125498895Y-100866666D02*
X125479847Y-100828571D01*
X117809524Y-106839371D02*
X117809524Y-107029847D01*
X117676191Y-106629847D02*
X117809524Y-106839371D01*
X117809524Y-106839371D02*
X117942857Y-106629847D01*
X118285714Y-107029847D02*
X118057143Y-107029847D01*
X118171429Y-107029847D02*
X118171429Y-106629847D01*
X118171429Y-106629847D02*
X118133333Y-106686990D01*
X118133333Y-106686990D02*
X118095238Y-106725085D01*
X118095238Y-106725085D02*
X118057143Y-106744133D01*
X106742857Y-103641752D02*
X106723809Y-103660800D01*
X106723809Y-103660800D02*
X106666667Y-103679847D01*
X106666667Y-103679847D02*
X106628571Y-103679847D01*
X106628571Y-103679847D02*
X106571428Y-103660800D01*
X106571428Y-103660800D02*
X106533333Y-103622704D01*
X106533333Y-103622704D02*
X106514286Y-103584609D01*
X106514286Y-103584609D02*
X106495238Y-103508419D01*
X106495238Y-103508419D02*
X106495238Y-103451276D01*
X106495238Y-103451276D02*
X106514286Y-103375085D01*
X106514286Y-103375085D02*
X106533333Y-103336990D01*
X106533333Y-103336990D02*
X106571428Y-103298895D01*
X106571428Y-103298895D02*
X106628571Y-103279847D01*
X106628571Y-103279847D02*
X106666667Y-103279847D01*
X106666667Y-103279847D02*
X106723809Y-103298895D01*
X106723809Y-103298895D02*
X106742857Y-103317942D01*
X107123809Y-103679847D02*
X106895238Y-103679847D01*
X107009524Y-103679847D02*
X107009524Y-103279847D01*
X107009524Y-103279847D02*
X106971428Y-103336990D01*
X106971428Y-103336990D02*
X106933333Y-103375085D01*
X106933333Y-103375085D02*
X106895238Y-103394133D01*
X107352380Y-103451276D02*
X107314285Y-103432228D01*
X107314285Y-103432228D02*
X107295238Y-103413180D01*
X107295238Y-103413180D02*
X107276190Y-103375085D01*
X107276190Y-103375085D02*
X107276190Y-103356038D01*
X107276190Y-103356038D02*
X107295238Y-103317942D01*
X107295238Y-103317942D02*
X107314285Y-103298895D01*
X107314285Y-103298895D02*
X107352380Y-103279847D01*
X107352380Y-103279847D02*
X107428571Y-103279847D01*
X107428571Y-103279847D02*
X107466666Y-103298895D01*
X107466666Y-103298895D02*
X107485714Y-103317942D01*
X107485714Y-103317942D02*
X107504761Y-103356038D01*
X107504761Y-103356038D02*
X107504761Y-103375085D01*
X107504761Y-103375085D02*
X107485714Y-103413180D01*
X107485714Y-103413180D02*
X107466666Y-103432228D01*
X107466666Y-103432228D02*
X107428571Y-103451276D01*
X107428571Y-103451276D02*
X107352380Y-103451276D01*
X107352380Y-103451276D02*
X107314285Y-103470323D01*
X107314285Y-103470323D02*
X107295238Y-103489371D01*
X107295238Y-103489371D02*
X107276190Y-103527466D01*
X107276190Y-103527466D02*
X107276190Y-103603657D01*
X107276190Y-103603657D02*
X107295238Y-103641752D01*
X107295238Y-103641752D02*
X107314285Y-103660800D01*
X107314285Y-103660800D02*
X107352380Y-103679847D01*
X107352380Y-103679847D02*
X107428571Y-103679847D01*
X107428571Y-103679847D02*
X107466666Y-103660800D01*
X107466666Y-103660800D02*
X107485714Y-103641752D01*
X107485714Y-103641752D02*
X107504761Y-103603657D01*
X107504761Y-103603657D02*
X107504761Y-103527466D01*
X107504761Y-103527466D02*
X107485714Y-103489371D01*
X107485714Y-103489371D02*
X107466666Y-103470323D01*
X107466666Y-103470323D02*
X107428571Y-103451276D01*
X126341752Y-100557142D02*
X126360800Y-100576190D01*
X126360800Y-100576190D02*
X126379847Y-100633332D01*
X126379847Y-100633332D02*
X126379847Y-100671428D01*
X126379847Y-100671428D02*
X126360800Y-100728571D01*
X126360800Y-100728571D02*
X126322704Y-100766666D01*
X126322704Y-100766666D02*
X126284609Y-100785713D01*
X126284609Y-100785713D02*
X126208419Y-100804761D01*
X126208419Y-100804761D02*
X126151276Y-100804761D01*
X126151276Y-100804761D02*
X126075085Y-100785713D01*
X126075085Y-100785713D02*
X126036990Y-100766666D01*
X126036990Y-100766666D02*
X125998895Y-100728571D01*
X125998895Y-100728571D02*
X125979847Y-100671428D01*
X125979847Y-100671428D02*
X125979847Y-100633332D01*
X125979847Y-100633332D02*
X125998895Y-100576190D01*
X125998895Y-100576190D02*
X126017942Y-100557142D01*
X126379847Y-100176190D02*
X126379847Y-100404761D01*
X126379847Y-100290475D02*
X125979847Y-100290475D01*
X125979847Y-100290475D02*
X126036990Y-100328571D01*
X126036990Y-100328571D02*
X126075085Y-100366666D01*
X126075085Y-100366666D02*
X126094133Y-100404761D01*
X125979847Y-99814285D02*
X125979847Y-100004761D01*
X125979847Y-100004761D02*
X126170323Y-100023809D01*
X126170323Y-100023809D02*
X126151276Y-100004761D01*
X126151276Y-100004761D02*
X126132228Y-99966666D01*
X126132228Y-99966666D02*
X126132228Y-99871428D01*
X126132228Y-99871428D02*
X126151276Y-99833333D01*
X126151276Y-99833333D02*
X126170323Y-99814285D01*
X126170323Y-99814285D02*
X126208419Y-99795238D01*
X126208419Y-99795238D02*
X126303657Y-99795238D01*
X126303657Y-99795238D02*
X126341752Y-99814285D01*
X126341752Y-99814285D02*
X126360800Y-99833333D01*
X126360800Y-99833333D02*
X126379847Y-99871428D01*
X126379847Y-99871428D02*
X126379847Y-99966666D01*
X126379847Y-99966666D02*
X126360800Y-100004761D01*
X126360800Y-100004761D02*
X126341752Y-100023809D01*
X109979847Y-105857142D02*
X109789371Y-105990475D01*
X109979847Y-106085713D02*
X109579847Y-106085713D01*
X109579847Y-106085713D02*
X109579847Y-105933332D01*
X109579847Y-105933332D02*
X109598895Y-105895237D01*
X109598895Y-105895237D02*
X109617942Y-105876190D01*
X109617942Y-105876190D02*
X109656038Y-105857142D01*
X109656038Y-105857142D02*
X109713180Y-105857142D01*
X109713180Y-105857142D02*
X109751276Y-105876190D01*
X109751276Y-105876190D02*
X109770323Y-105895237D01*
X109770323Y-105895237D02*
X109789371Y-105933332D01*
X109789371Y-105933332D02*
X109789371Y-106085713D01*
X109979847Y-105476190D02*
X109979847Y-105704761D01*
X109979847Y-105590475D02*
X109579847Y-105590475D01*
X109579847Y-105590475D02*
X109636990Y-105628571D01*
X109636990Y-105628571D02*
X109675085Y-105666666D01*
X109675085Y-105666666D02*
X109694133Y-105704761D01*
X109579847Y-105342857D02*
X109579847Y-105076190D01*
X109579847Y-105076190D02*
X109979847Y-105247619D01*
X120642857Y-107041752D02*
X120623809Y-107060800D01*
X120623809Y-107060800D02*
X120566667Y-107079847D01*
X120566667Y-107079847D02*
X120528571Y-107079847D01*
X120528571Y-107079847D02*
X120471428Y-107060800D01*
X120471428Y-107060800D02*
X120433333Y-107022704D01*
X120433333Y-107022704D02*
X120414286Y-106984609D01*
X120414286Y-106984609D02*
X120395238Y-106908419D01*
X120395238Y-106908419D02*
X120395238Y-106851276D01*
X120395238Y-106851276D02*
X120414286Y-106775085D01*
X120414286Y-106775085D02*
X120433333Y-106736990D01*
X120433333Y-106736990D02*
X120471428Y-106698895D01*
X120471428Y-106698895D02*
X120528571Y-106679847D01*
X120528571Y-106679847D02*
X120566667Y-106679847D01*
X120566667Y-106679847D02*
X120623809Y-106698895D01*
X120623809Y-106698895D02*
X120642857Y-106717942D01*
X121023809Y-107079847D02*
X120795238Y-107079847D01*
X120909524Y-107079847D02*
X120909524Y-106679847D01*
X120909524Y-106679847D02*
X120871428Y-106736990D01*
X120871428Y-106736990D02*
X120833333Y-106775085D01*
X120833333Y-106775085D02*
X120795238Y-106794133D01*
X121157142Y-106679847D02*
X121423809Y-106679847D01*
X121423809Y-106679847D02*
X121252380Y-107079847D01*
X109817942Y-92338095D02*
X109798895Y-92376190D01*
X109798895Y-92376190D02*
X109760800Y-92414285D01*
X109760800Y-92414285D02*
X109703657Y-92471428D01*
X109703657Y-92471428D02*
X109684609Y-92509523D01*
X109684609Y-92509523D02*
X109684609Y-92547619D01*
X109779847Y-92528571D02*
X109760800Y-92566666D01*
X109760800Y-92566666D02*
X109722704Y-92604761D01*
X109722704Y-92604761D02*
X109646514Y-92623809D01*
X109646514Y-92623809D02*
X109513180Y-92623809D01*
X109513180Y-92623809D02*
X109436990Y-92604761D01*
X109436990Y-92604761D02*
X109398895Y-92566666D01*
X109398895Y-92566666D02*
X109379847Y-92528571D01*
X109379847Y-92528571D02*
X109379847Y-92452380D01*
X109379847Y-92452380D02*
X109398895Y-92414285D01*
X109398895Y-92414285D02*
X109436990Y-92376190D01*
X109436990Y-92376190D02*
X109513180Y-92357142D01*
X109513180Y-92357142D02*
X109646514Y-92357142D01*
X109646514Y-92357142D02*
X109722704Y-92376190D01*
X109722704Y-92376190D02*
X109760800Y-92414285D01*
X109760800Y-92414285D02*
X109779847Y-92452380D01*
X109779847Y-92452380D02*
X109779847Y-92528571D01*
X109417942Y-92204761D02*
X109398895Y-92185713D01*
X109398895Y-92185713D02*
X109379847Y-92147618D01*
X109379847Y-92147618D02*
X109379847Y-92052380D01*
X109379847Y-92052380D02*
X109398895Y-92014285D01*
X109398895Y-92014285D02*
X109417942Y-91995237D01*
X109417942Y-91995237D02*
X109456038Y-91976190D01*
X109456038Y-91976190D02*
X109494133Y-91976190D01*
X109494133Y-91976190D02*
X109551276Y-91995237D01*
X109551276Y-91995237D02*
X109779847Y-92223809D01*
X109779847Y-92223809D02*
X109779847Y-91976190D01*
D12*
X123349999Y-106649171D02*
X123492857Y-106649171D01*
X123321428Y-106734885D02*
X123421428Y-106434885D01*
X123421428Y-106434885D02*
X123521428Y-106734885D01*
X123621428Y-106577742D02*
X123721428Y-106577742D01*
X123764285Y-106734885D02*
X123621428Y-106734885D01*
X123621428Y-106734885D02*
X123621428Y-106434885D01*
X123621428Y-106434885D02*
X123764285Y-106434885D01*
X124050000Y-106734885D02*
X123878571Y-106734885D01*
X123964286Y-106734885D02*
X123964286Y-106434885D01*
X123964286Y-106434885D02*
X123935714Y-106477742D01*
X123935714Y-106477742D02*
X123907143Y-106506314D01*
X123907143Y-106506314D02*
X123878571Y-106520600D01*
D13*
X107766666Y-106970876D02*
X107757142Y-106980400D01*
X107757142Y-106980400D02*
X107728571Y-106989923D01*
X107728571Y-106989923D02*
X107709523Y-106989923D01*
X107709523Y-106989923D02*
X107680952Y-106980400D01*
X107680952Y-106980400D02*
X107661904Y-106961352D01*
X107661904Y-106961352D02*
X107652381Y-106942304D01*
X107652381Y-106942304D02*
X107642857Y-106904209D01*
X107642857Y-106904209D02*
X107642857Y-106875638D01*
X107642857Y-106875638D02*
X107652381Y-106837542D01*
X107652381Y-106837542D02*
X107661904Y-106818495D01*
X107661904Y-106818495D02*
X107680952Y-106799447D01*
X107680952Y-106799447D02*
X107709523Y-106789923D01*
X107709523Y-106789923D02*
X107728571Y-106789923D01*
X107728571Y-106789923D02*
X107757142Y-106799447D01*
X107757142Y-106799447D02*
X107766666Y-106808971D01*
X107938095Y-106789923D02*
X107900000Y-106789923D01*
X107900000Y-106789923D02*
X107880952Y-106799447D01*
X107880952Y-106799447D02*
X107871428Y-106808971D01*
X107871428Y-106808971D02*
X107852381Y-106837542D01*
X107852381Y-106837542D02*
X107842857Y-106875638D01*
X107842857Y-106875638D02*
X107842857Y-106951828D01*
X107842857Y-106951828D02*
X107852381Y-106970876D01*
X107852381Y-106970876D02*
X107861904Y-106980400D01*
X107861904Y-106980400D02*
X107880952Y-106989923D01*
X107880952Y-106989923D02*
X107919047Y-106989923D01*
X107919047Y-106989923D02*
X107938095Y-106980400D01*
X107938095Y-106980400D02*
X107947619Y-106970876D01*
X107947619Y-106970876D02*
X107957142Y-106951828D01*
X107957142Y-106951828D02*
X107957142Y-106904209D01*
X107957142Y-106904209D02*
X107947619Y-106885161D01*
X107947619Y-106885161D02*
X107938095Y-106875638D01*
X107938095Y-106875638D02*
X107919047Y-106866114D01*
X107919047Y-106866114D02*
X107880952Y-106866114D01*
X107880952Y-106866114D02*
X107861904Y-106875638D01*
X107861904Y-106875638D02*
X107852381Y-106885161D01*
X107852381Y-106885161D02*
X107842857Y-106904209D01*
D10*
X108733333Y-108479847D02*
X108542857Y-108479847D01*
X108542857Y-108479847D02*
X108542857Y-108079847D01*
X109076190Y-108479847D02*
X108847619Y-108479847D01*
X108961905Y-108479847D02*
X108961905Y-108079847D01*
X108961905Y-108079847D02*
X108923809Y-108136990D01*
X108923809Y-108136990D02*
X108885714Y-108175085D01*
X108885714Y-108175085D02*
X108847619Y-108194133D01*
D13*
X111771428Y-103289923D02*
X111704762Y-103194685D01*
X111657143Y-103289923D02*
X111657143Y-103089923D01*
X111657143Y-103089923D02*
X111733333Y-103089923D01*
X111733333Y-103089923D02*
X111752381Y-103099447D01*
X111752381Y-103099447D02*
X111761904Y-103108971D01*
X111761904Y-103108971D02*
X111771428Y-103128019D01*
X111771428Y-103128019D02*
X111771428Y-103156590D01*
X111771428Y-103156590D02*
X111761904Y-103175638D01*
X111761904Y-103175638D02*
X111752381Y-103185161D01*
X111752381Y-103185161D02*
X111733333Y-103194685D01*
X111733333Y-103194685D02*
X111657143Y-103194685D01*
X111961904Y-103289923D02*
X111847619Y-103289923D01*
X111904762Y-103289923D02*
X111904762Y-103089923D01*
X111904762Y-103089923D02*
X111885714Y-103118495D01*
X111885714Y-103118495D02*
X111866666Y-103137542D01*
X111866666Y-103137542D02*
X111847619Y-103147066D01*
X112076190Y-103175638D02*
X112057142Y-103166114D01*
X112057142Y-103166114D02*
X112047619Y-103156590D01*
X112047619Y-103156590D02*
X112038095Y-103137542D01*
X112038095Y-103137542D02*
X112038095Y-103128019D01*
X112038095Y-103128019D02*
X112047619Y-103108971D01*
X112047619Y-103108971D02*
X112057142Y-103099447D01*
X112057142Y-103099447D02*
X112076190Y-103089923D01*
X112076190Y-103089923D02*
X112114285Y-103089923D01*
X112114285Y-103089923D02*
X112133333Y-103099447D01*
X112133333Y-103099447D02*
X112142857Y-103108971D01*
X112142857Y-103108971D02*
X112152380Y-103128019D01*
X112152380Y-103128019D02*
X112152380Y-103137542D01*
X112152380Y-103137542D02*
X112142857Y-103156590D01*
X112142857Y-103156590D02*
X112133333Y-103166114D01*
X112133333Y-103166114D02*
X112114285Y-103175638D01*
X112114285Y-103175638D02*
X112076190Y-103175638D01*
X112076190Y-103175638D02*
X112057142Y-103185161D01*
X112057142Y-103185161D02*
X112047619Y-103194685D01*
X112047619Y-103194685D02*
X112038095Y-103213733D01*
X112038095Y-103213733D02*
X112038095Y-103251828D01*
X112038095Y-103251828D02*
X112047619Y-103270876D01*
X112047619Y-103270876D02*
X112057142Y-103280400D01*
X112057142Y-103280400D02*
X112076190Y-103289923D01*
X112076190Y-103289923D02*
X112114285Y-103289923D01*
X112114285Y-103289923D02*
X112133333Y-103280400D01*
X112133333Y-103280400D02*
X112142857Y-103270876D01*
X112142857Y-103270876D02*
X112152380Y-103251828D01*
X112152380Y-103251828D02*
X112152380Y-103213733D01*
X112152380Y-103213733D02*
X112142857Y-103194685D01*
X112142857Y-103194685D02*
X112133333Y-103185161D01*
X112133333Y-103185161D02*
X112114285Y-103175638D01*
D10*
X122395238Y-95279847D02*
X122395238Y-95603657D01*
X122395238Y-95603657D02*
X122414285Y-95641752D01*
X122414285Y-95641752D02*
X122433333Y-95660800D01*
X122433333Y-95660800D02*
X122471428Y-95679847D01*
X122471428Y-95679847D02*
X122547619Y-95679847D01*
X122547619Y-95679847D02*
X122585714Y-95660800D01*
X122585714Y-95660800D02*
X122604761Y-95641752D01*
X122604761Y-95641752D02*
X122623809Y-95603657D01*
X122623809Y-95603657D02*
X122623809Y-95279847D01*
X122776190Y-95279847D02*
X123023809Y-95279847D01*
X123023809Y-95279847D02*
X122890476Y-95432228D01*
X122890476Y-95432228D02*
X122947619Y-95432228D01*
X122947619Y-95432228D02*
X122985714Y-95451276D01*
X122985714Y-95451276D02*
X123004762Y-95470323D01*
X123004762Y-95470323D02*
X123023809Y-95508419D01*
X123023809Y-95508419D02*
X123023809Y-95603657D01*
X123023809Y-95603657D02*
X123004762Y-95641752D01*
X123004762Y-95641752D02*
X122985714Y-95660800D01*
X122985714Y-95660800D02*
X122947619Y-95679847D01*
X122947619Y-95679847D02*
X122833333Y-95679847D01*
X122833333Y-95679847D02*
X122795238Y-95660800D01*
X122795238Y-95660800D02*
X122776190Y-95641752D01*
X131795238Y-100379847D02*
X131795238Y-100703657D01*
X131795238Y-100703657D02*
X131814285Y-100741752D01*
X131814285Y-100741752D02*
X131833333Y-100760800D01*
X131833333Y-100760800D02*
X131871428Y-100779847D01*
X131871428Y-100779847D02*
X131947619Y-100779847D01*
X131947619Y-100779847D02*
X131985714Y-100760800D01*
X131985714Y-100760800D02*
X132004761Y-100741752D01*
X132004761Y-100741752D02*
X132023809Y-100703657D01*
X132023809Y-100703657D02*
X132023809Y-100379847D01*
X132195238Y-100417942D02*
X132214286Y-100398895D01*
X132214286Y-100398895D02*
X132252381Y-100379847D01*
X132252381Y-100379847D02*
X132347619Y-100379847D01*
X132347619Y-100379847D02*
X132385714Y-100398895D01*
X132385714Y-100398895D02*
X132404762Y-100417942D01*
X132404762Y-100417942D02*
X132423809Y-100456038D01*
X132423809Y-100456038D02*
X132423809Y-100494133D01*
X132423809Y-100494133D02*
X132404762Y-100551276D01*
X132404762Y-100551276D02*
X132176190Y-100779847D01*
X132176190Y-100779847D02*
X132423809Y-100779847D01*
D12*
X114806314Y-104292856D02*
X114820600Y-104307142D01*
X114820600Y-104307142D02*
X114834885Y-104349999D01*
X114834885Y-104349999D02*
X114834885Y-104378571D01*
X114834885Y-104378571D02*
X114820600Y-104421428D01*
X114820600Y-104421428D02*
X114792028Y-104449999D01*
X114792028Y-104449999D02*
X114763457Y-104464285D01*
X114763457Y-104464285D02*
X114706314Y-104478571D01*
X114706314Y-104478571D02*
X114663457Y-104478571D01*
X114663457Y-104478571D02*
X114606314Y-104464285D01*
X114606314Y-104464285D02*
X114577742Y-104449999D01*
X114577742Y-104449999D02*
X114549171Y-104421428D01*
X114549171Y-104421428D02*
X114534885Y-104378571D01*
X114534885Y-104378571D02*
X114534885Y-104349999D01*
X114534885Y-104349999D02*
X114549171Y-104307142D01*
X114549171Y-104307142D02*
X114563457Y-104292856D01*
X114834885Y-104007142D02*
X114834885Y-104178571D01*
X114834885Y-104092856D02*
X114534885Y-104092856D01*
X114534885Y-104092856D02*
X114577742Y-104121428D01*
X114577742Y-104121428D02*
X114606314Y-104149999D01*
X114606314Y-104149999D02*
X114620600Y-104178571D01*
X114534885Y-103907142D02*
X114534885Y-103721428D01*
X114534885Y-103721428D02*
X114649171Y-103821428D01*
X114649171Y-103821428D02*
X114649171Y-103778571D01*
X114649171Y-103778571D02*
X114663457Y-103750000D01*
X114663457Y-103750000D02*
X114677742Y-103735714D01*
X114677742Y-103735714D02*
X114706314Y-103721428D01*
X114706314Y-103721428D02*
X114777742Y-103721428D01*
X114777742Y-103721428D02*
X114806314Y-103735714D01*
X114806314Y-103735714D02*
X114820600Y-103750000D01*
X114820600Y-103750000D02*
X114834885Y-103778571D01*
X114834885Y-103778571D02*
X114834885Y-103864285D01*
X114834885Y-103864285D02*
X114820600Y-103892857D01*
X114820600Y-103892857D02*
X114806314Y-103907142D01*
D10*
X101033333Y-108541752D02*
X101014285Y-108560800D01*
X101014285Y-108560800D02*
X100957143Y-108579847D01*
X100957143Y-108579847D02*
X100919047Y-108579847D01*
X100919047Y-108579847D02*
X100861904Y-108560800D01*
X100861904Y-108560800D02*
X100823809Y-108522704D01*
X100823809Y-108522704D02*
X100804762Y-108484609D01*
X100804762Y-108484609D02*
X100785714Y-108408419D01*
X100785714Y-108408419D02*
X100785714Y-108351276D01*
X100785714Y-108351276D02*
X100804762Y-108275085D01*
X100804762Y-108275085D02*
X100823809Y-108236990D01*
X100823809Y-108236990D02*
X100861904Y-108198895D01*
X100861904Y-108198895D02*
X100919047Y-108179847D01*
X100919047Y-108179847D02*
X100957143Y-108179847D01*
X100957143Y-108179847D02*
X101014285Y-108198895D01*
X101014285Y-108198895D02*
X101033333Y-108217942D01*
X101395238Y-108179847D02*
X101204762Y-108179847D01*
X101204762Y-108179847D02*
X101185714Y-108370323D01*
X101185714Y-108370323D02*
X101204762Y-108351276D01*
X101204762Y-108351276D02*
X101242857Y-108332228D01*
X101242857Y-108332228D02*
X101338095Y-108332228D01*
X101338095Y-108332228D02*
X101376190Y-108351276D01*
X101376190Y-108351276D02*
X101395238Y-108370323D01*
X101395238Y-108370323D02*
X101414285Y-108408419D01*
X101414285Y-108408419D02*
X101414285Y-108503657D01*
X101414285Y-108503657D02*
X101395238Y-108541752D01*
X101395238Y-108541752D02*
X101376190Y-108560800D01*
X101376190Y-108560800D02*
X101338095Y-108579847D01*
X101338095Y-108579847D02*
X101242857Y-108579847D01*
X101242857Y-108579847D02*
X101204762Y-108560800D01*
X101204762Y-108560800D02*
X101185714Y-108541752D01*
X106533333Y-104979847D02*
X106400000Y-104789371D01*
X106304762Y-104979847D02*
X106304762Y-104579847D01*
X106304762Y-104579847D02*
X106457143Y-104579847D01*
X106457143Y-104579847D02*
X106495238Y-104598895D01*
X106495238Y-104598895D02*
X106514285Y-104617942D01*
X106514285Y-104617942D02*
X106533333Y-104656038D01*
X106533333Y-104656038D02*
X106533333Y-104713180D01*
X106533333Y-104713180D02*
X106514285Y-104751276D01*
X106514285Y-104751276D02*
X106495238Y-104770323D01*
X106495238Y-104770323D02*
X106457143Y-104789371D01*
X106457143Y-104789371D02*
X106304762Y-104789371D01*
X106666666Y-104579847D02*
X106933333Y-104579847D01*
X106933333Y-104579847D02*
X106761904Y-104979847D01*
D13*
X121789923Y-104528571D02*
X121694685Y-104595237D01*
X121789923Y-104642856D02*
X121589923Y-104642856D01*
X121589923Y-104642856D02*
X121589923Y-104566666D01*
X121589923Y-104566666D02*
X121599447Y-104547618D01*
X121599447Y-104547618D02*
X121608971Y-104538095D01*
X121608971Y-104538095D02*
X121628019Y-104528571D01*
X121628019Y-104528571D02*
X121656590Y-104528571D01*
X121656590Y-104528571D02*
X121675638Y-104538095D01*
X121675638Y-104538095D02*
X121685161Y-104547618D01*
X121685161Y-104547618D02*
X121694685Y-104566666D01*
X121694685Y-104566666D02*
X121694685Y-104642856D01*
X121789923Y-104338095D02*
X121789923Y-104452380D01*
X121789923Y-104395237D02*
X121589923Y-104395237D01*
X121589923Y-104395237D02*
X121618495Y-104414285D01*
X121618495Y-104414285D02*
X121637542Y-104433333D01*
X121637542Y-104433333D02*
X121647066Y-104452380D01*
X121589923Y-104157142D02*
X121589923Y-104252380D01*
X121589923Y-104252380D02*
X121685161Y-104261904D01*
X121685161Y-104261904D02*
X121675638Y-104252380D01*
X121675638Y-104252380D02*
X121666114Y-104233333D01*
X121666114Y-104233333D02*
X121666114Y-104185714D01*
X121666114Y-104185714D02*
X121675638Y-104166666D01*
X121675638Y-104166666D02*
X121685161Y-104157142D01*
X121685161Y-104157142D02*
X121704209Y-104147619D01*
X121704209Y-104147619D02*
X121751828Y-104147619D01*
X121751828Y-104147619D02*
X121770876Y-104157142D01*
X121770876Y-104157142D02*
X121780400Y-104166666D01*
X121780400Y-104166666D02*
X121789923Y-104185714D01*
X121789923Y-104185714D02*
X121789923Y-104233333D01*
X121789923Y-104233333D02*
X121780400Y-104252380D01*
X121780400Y-104252380D02*
X121770876Y-104261904D01*
X119771428Y-103570876D02*
X119761904Y-103580400D01*
X119761904Y-103580400D02*
X119733333Y-103589923D01*
X119733333Y-103589923D02*
X119714285Y-103589923D01*
X119714285Y-103589923D02*
X119685714Y-103580400D01*
X119685714Y-103580400D02*
X119666666Y-103561352D01*
X119666666Y-103561352D02*
X119657143Y-103542304D01*
X119657143Y-103542304D02*
X119647619Y-103504209D01*
X119647619Y-103504209D02*
X119647619Y-103475638D01*
X119647619Y-103475638D02*
X119657143Y-103437542D01*
X119657143Y-103437542D02*
X119666666Y-103418495D01*
X119666666Y-103418495D02*
X119685714Y-103399447D01*
X119685714Y-103399447D02*
X119714285Y-103389923D01*
X119714285Y-103389923D02*
X119733333Y-103389923D01*
X119733333Y-103389923D02*
X119761904Y-103399447D01*
X119761904Y-103399447D02*
X119771428Y-103408971D01*
X119961904Y-103589923D02*
X119847619Y-103589923D01*
X119904762Y-103589923D02*
X119904762Y-103389923D01*
X119904762Y-103389923D02*
X119885714Y-103418495D01*
X119885714Y-103418495D02*
X119866666Y-103437542D01*
X119866666Y-103437542D02*
X119847619Y-103447066D01*
X120133333Y-103389923D02*
X120095238Y-103389923D01*
X120095238Y-103389923D02*
X120076190Y-103399447D01*
X120076190Y-103399447D02*
X120066666Y-103408971D01*
X120066666Y-103408971D02*
X120047619Y-103437542D01*
X120047619Y-103437542D02*
X120038095Y-103475638D01*
X120038095Y-103475638D02*
X120038095Y-103551828D01*
X120038095Y-103551828D02*
X120047619Y-103570876D01*
X120047619Y-103570876D02*
X120057142Y-103580400D01*
X120057142Y-103580400D02*
X120076190Y-103589923D01*
X120076190Y-103589923D02*
X120114285Y-103589923D01*
X120114285Y-103589923D02*
X120133333Y-103580400D01*
X120133333Y-103580400D02*
X120142857Y-103570876D01*
X120142857Y-103570876D02*
X120152380Y-103551828D01*
X120152380Y-103551828D02*
X120152380Y-103504209D01*
X120152380Y-103504209D02*
X120142857Y-103485161D01*
X120142857Y-103485161D02*
X120133333Y-103475638D01*
X120133333Y-103475638D02*
X120114285Y-103466114D01*
X120114285Y-103466114D02*
X120076190Y-103466114D01*
X120076190Y-103466114D02*
X120057142Y-103475638D01*
X120057142Y-103475638D02*
X120047619Y-103485161D01*
X120047619Y-103485161D02*
X120038095Y-103504209D01*
D10*
X112142857Y-95679847D02*
X112009524Y-95489371D01*
X111914286Y-95679847D02*
X111914286Y-95279847D01*
X111914286Y-95279847D02*
X112066667Y-95279847D01*
X112066667Y-95279847D02*
X112104762Y-95298895D01*
X112104762Y-95298895D02*
X112123809Y-95317942D01*
X112123809Y-95317942D02*
X112142857Y-95356038D01*
X112142857Y-95356038D02*
X112142857Y-95413180D01*
X112142857Y-95413180D02*
X112123809Y-95451276D01*
X112123809Y-95451276D02*
X112104762Y-95470323D01*
X112104762Y-95470323D02*
X112066667Y-95489371D01*
X112066667Y-95489371D02*
X111914286Y-95489371D01*
X112295238Y-95317942D02*
X112314286Y-95298895D01*
X112314286Y-95298895D02*
X112352381Y-95279847D01*
X112352381Y-95279847D02*
X112447619Y-95279847D01*
X112447619Y-95279847D02*
X112485714Y-95298895D01*
X112485714Y-95298895D02*
X112504762Y-95317942D01*
X112504762Y-95317942D02*
X112523809Y-95356038D01*
X112523809Y-95356038D02*
X112523809Y-95394133D01*
X112523809Y-95394133D02*
X112504762Y-95451276D01*
X112504762Y-95451276D02*
X112276190Y-95679847D01*
X112276190Y-95679847D02*
X112523809Y-95679847D01*
X112771428Y-95279847D02*
X112809523Y-95279847D01*
X112809523Y-95279847D02*
X112847619Y-95298895D01*
X112847619Y-95298895D02*
X112866666Y-95317942D01*
X112866666Y-95317942D02*
X112885714Y-95356038D01*
X112885714Y-95356038D02*
X112904761Y-95432228D01*
X112904761Y-95432228D02*
X112904761Y-95527466D01*
X112904761Y-95527466D02*
X112885714Y-95603657D01*
X112885714Y-95603657D02*
X112866666Y-95641752D01*
X112866666Y-95641752D02*
X112847619Y-95660800D01*
X112847619Y-95660800D02*
X112809523Y-95679847D01*
X112809523Y-95679847D02*
X112771428Y-95679847D01*
X112771428Y-95679847D02*
X112733333Y-95660800D01*
X112733333Y-95660800D02*
X112714285Y-95641752D01*
X112714285Y-95641752D02*
X112695238Y-95603657D01*
X112695238Y-95603657D02*
X112676190Y-95527466D01*
X112676190Y-95527466D02*
X112676190Y-95432228D01*
X112676190Y-95432228D02*
X112695238Y-95356038D01*
X112695238Y-95356038D02*
X112714285Y-95317942D01*
X112714285Y-95317942D02*
X112733333Y-95298895D01*
X112733333Y-95298895D02*
X112771428Y-95279847D01*
X109041752Y-107266666D02*
X109060800Y-107285714D01*
X109060800Y-107285714D02*
X109079847Y-107342856D01*
X109079847Y-107342856D02*
X109079847Y-107380952D01*
X109079847Y-107380952D02*
X109060800Y-107438095D01*
X109060800Y-107438095D02*
X109022704Y-107476190D01*
X109022704Y-107476190D02*
X108984609Y-107495237D01*
X108984609Y-107495237D02*
X108908419Y-107514285D01*
X108908419Y-107514285D02*
X108851276Y-107514285D01*
X108851276Y-107514285D02*
X108775085Y-107495237D01*
X108775085Y-107495237D02*
X108736990Y-107476190D01*
X108736990Y-107476190D02*
X108698895Y-107438095D01*
X108698895Y-107438095D02*
X108679847Y-107380952D01*
X108679847Y-107380952D02*
X108679847Y-107342856D01*
X108679847Y-107342856D02*
X108698895Y-107285714D01*
X108698895Y-107285714D02*
X108717942Y-107266666D01*
X108679847Y-107133333D02*
X108679847Y-106866666D01*
X108679847Y-106866666D02*
X109079847Y-107038095D01*
X107379847Y-97804761D02*
X107703657Y-97804761D01*
X107703657Y-97804761D02*
X107741752Y-97785714D01*
X107741752Y-97785714D02*
X107760800Y-97766666D01*
X107760800Y-97766666D02*
X107779847Y-97728571D01*
X107779847Y-97728571D02*
X107779847Y-97652380D01*
X107779847Y-97652380D02*
X107760800Y-97614285D01*
X107760800Y-97614285D02*
X107741752Y-97595238D01*
X107741752Y-97595238D02*
X107703657Y-97576190D01*
X107703657Y-97576190D02*
X107379847Y-97576190D01*
X107379847Y-97423809D02*
X107379847Y-97157142D01*
X107379847Y-97157142D02*
X107779847Y-97328571D01*
X112550000Y-108500000D02*
X109950000Y-108500000D01*
X112575000Y-106900000D02*
X109925000Y-106900000D01*
D14*
X113250000Y-108000000D02*
X113250000Y-108000000D01*
X113250000Y-108200000D02*
X113250000Y-108200000D01*
X113250000Y-108000000D02*
G75*
G02*
X113250000Y-108200000I0J-100000D01*
G01*
X113250000Y-108200000D02*
G75*
G02*
X113250000Y-108000000I0J100000D01*
G01*
D15*
X104300000Y-94800000D02*
X102300000Y-94800000D01*
X104300000Y-104200000D02*
X102300000Y-104200000D01*
X122690000Y-99362779D02*
X122690000Y-99037221D01*
X123710000Y-99362779D02*
X123710000Y-99037221D01*
X113953641Y-105220000D02*
X113646359Y-105220000D01*
X113953641Y-105980000D02*
X113646359Y-105980000D01*
X104300000Y-105290000D02*
X102300000Y-105290000D01*
X104300000Y-107510000D02*
X102300000Y-107510000D01*
X104540000Y-107690000D02*
X104540000Y-107410000D01*
X104820000Y-107410000D01*
X104540000Y-107690000D01*
G36*
X104540000Y-107690000D02*
G01*
X104540000Y-107410000D01*
X104820000Y-107410000D01*
X104540000Y-107690000D01*
G37*
X125875000Y-93975000D02*
X125875000Y-94235000D01*
X125875000Y-99425000D02*
X125875000Y-99165000D01*
X128600000Y-93975000D02*
X125875000Y-93975000D01*
X128600000Y-93975000D02*
X131325000Y-93975000D01*
X128600000Y-99425000D02*
X125875000Y-99425000D01*
X128600000Y-99425000D02*
X131325000Y-99425000D01*
X131325000Y-93975000D02*
X131325000Y-94235000D01*
X131325000Y-99165000D02*
X133000000Y-99165000D01*
X131325000Y-99425000D02*
X131325000Y-99165000D01*
X110420000Y-103946359D02*
X110420000Y-104253641D01*
X111180000Y-103946359D02*
X111180000Y-104253641D01*
X110246359Y-95820000D02*
X110553641Y-95820000D01*
X110246359Y-96580000D02*
X110553641Y-96580000D01*
X121537221Y-93890000D02*
X121862779Y-93890000D01*
X121537221Y-94910000D02*
X121862779Y-94910000D01*
X134550000Y-104020000D02*
X134050000Y-104020000D01*
X134550000Y-106380000D02*
X134050000Y-106380000D01*
D14*
X112600000Y-94950000D02*
X112600000Y-93850000D01*
X112650000Y-93100000D02*
X115550000Y-93100000D01*
X112650000Y-93500000D02*
X112650000Y-93100000D01*
X115550000Y-93100000D02*
X115550000Y-93500000D01*
X115550000Y-93500000D02*
X112650000Y-93500000D01*
D15*
X108392164Y-104140000D02*
X108607836Y-104140000D01*
X108392164Y-104860000D02*
X108607836Y-104860000D01*
D14*
X113750000Y-107300000D02*
X113750000Y-107300000D01*
X113750000Y-107500000D02*
X113750000Y-107500000D01*
D10*
X114425000Y-108600000D02*
X117075000Y-108600000D01*
X114450000Y-107000000D02*
X117050000Y-107000000D01*
D14*
X113750000Y-107300000D02*
G75*
G02*
X113750000Y-107500000I0J-100000D01*
G01*
X113750000Y-107500000D02*
G75*
G02*
X113750000Y-107300000I0J100000D01*
G01*
D15*
X105020000Y-105746359D02*
X105020000Y-106053641D01*
X105780000Y-105746359D02*
X105780000Y-106053641D01*
X112520000Y-104253641D02*
X112520000Y-103946359D01*
X113280000Y-104253641D02*
X113280000Y-103946359D01*
X118010000Y-103890000D02*
X117790000Y-103890000D01*
X118010000Y-106110000D02*
X117790000Y-106110000D01*
X118650000Y-103710000D02*
X119440000Y-103710000D01*
X119440000Y-104500000D02*
X119440000Y-103710000D01*
X108412164Y-103170000D02*
X108627836Y-103170000D01*
X108412164Y-103890000D02*
X108627836Y-103890000D01*
X109420000Y-104253641D02*
X109420000Y-103946359D01*
X110180000Y-104253641D02*
X110180000Y-103946359D01*
X120840000Y-105807836D02*
X120840000Y-105592164D01*
X121560000Y-105807836D02*
X121560000Y-105592164D01*
D14*
X109100000Y-94950000D02*
X109100000Y-93850000D01*
X109150000Y-93100000D02*
X112050000Y-93100000D01*
X109150000Y-93500000D02*
X109150000Y-93100000D01*
X112050000Y-93100000D02*
X112050000Y-93500000D01*
X112050000Y-93500000D02*
X109150000Y-93500000D01*
D15*
X107340000Y-106007836D02*
X107340000Y-105792164D01*
X108060000Y-106007836D02*
X108060000Y-105792164D01*
X106200378Y-107240000D02*
X106999622Y-107240000D01*
X106200378Y-108360000D02*
X106999622Y-108360000D01*
X111520000Y-103946359D02*
X111520000Y-104253641D01*
X112280000Y-103946359D02*
X112280000Y-104253641D01*
D14*
X121875000Y-102100000D02*
G75*
G02*
X121675000Y-102100000I-100000J0D01*
G01*
X121675000Y-102100000D02*
G75*
G02*
X121875000Y-102100000I100000J0D01*
G01*
D15*
X129400000Y-100940000D02*
X127450000Y-100940000D01*
X129400000Y-100940000D02*
X131350000Y-100940000D01*
X129400000Y-106060000D02*
X127450000Y-106060000D01*
X129400000Y-106060000D02*
X132850000Y-106060000D01*
X100590000Y-106559420D02*
X100590000Y-106840580D01*
X101610000Y-106559420D02*
X101610000Y-106840580D01*
X106220000Y-106053641D02*
X106220000Y-105746359D01*
X106980000Y-106053641D02*
X106980000Y-105746359D01*
X120853641Y-104020000D02*
X120546359Y-104020000D01*
X120853641Y-104780000D02*
X120546359Y-104780000D01*
X112553641Y-95820000D02*
X112246359Y-95820000D01*
X112553641Y-96580000D02*
X112246359Y-96580000D01*
X108540000Y-106007836D02*
X108540000Y-105792164D01*
X109260000Y-106007836D02*
X109260000Y-105792164D01*
X108390000Y-97390000D02*
X108150000Y-97060000D01*
X108630000Y-97060000D01*
X108390000Y-97390000D01*
G36*
X108390000Y-97390000D02*
G01*
X108150000Y-97060000D01*
X108630000Y-97060000D01*
X108390000Y-97390000D01*
G37*
X113610000Y-102610000D02*
X113610000Y-101885000D01*
X113610000Y-97390000D02*
X113610000Y-98115000D01*
X112885000Y-102610000D02*
X113610000Y-102610000D01*
X112885000Y-97390000D02*
X113610000Y-97390000D01*
X109115000Y-102610000D02*
X108390000Y-102610000D01*
X109115000Y-97390000D02*
X108690000Y-97390000D01*
X108390000Y-102610000D02*
X108390000Y-101885000D01*
X108390000Y-98115000D02*
X108390000Y-97630000D01*
%LPC*%
D16*
X112575000Y-108075000D03*
X112575000Y-107325000D03*
X109925000Y-107325000D03*
X109925000Y-108075000D03*
D17*
X134290000Y-100000000D03*
D18*
X134925000Y-100000000D03*
D17*
X135560000Y-100000000D03*
X134290000Y-102540000D03*
D18*
X134925000Y-102540000D03*
D17*
X135560000Y-102540000D03*
X129300000Y-107721500D03*
D19*
X129300000Y-108356500D03*
D17*
X129300000Y-108991500D03*
X129200000Y-92380000D03*
D19*
X129200000Y-91745000D03*
D17*
X129200000Y-91110000D03*
X124130000Y-92380000D03*
D19*
X124130000Y-91745000D03*
D17*
X124130000Y-91110000D03*
X121600000Y-92400000D03*
D19*
X121600000Y-91765000D03*
D17*
X121600000Y-91130000D03*
X126800000Y-107700000D03*
D19*
X126800000Y-108335000D03*
D17*
X126800000Y-108970000D03*
X134300000Y-92400000D03*
D19*
X134300000Y-91765000D03*
D17*
X134300000Y-91130000D03*
X131700000Y-92400000D03*
D19*
X131700000Y-91765000D03*
D17*
X131700000Y-91130000D03*
X134300000Y-107721500D03*
D19*
X134300000Y-108356500D03*
D17*
X134300000Y-108991500D03*
X131800000Y-107721500D03*
D19*
X131800000Y-108356500D03*
D17*
X131800000Y-108991500D03*
D20*
X102700000Y-93387500D03*
X102700000Y-92212500D03*
D21*
X119500000Y-94485000D03*
X119500000Y-93515000D03*
D17*
X134290000Y-97460000D03*
D18*
X134925000Y-97460000D03*
D17*
X135560000Y-97460000D03*
X134290000Y-94920000D03*
D18*
X134925000Y-94920000D03*
D17*
X135560000Y-94920000D03*
X124300000Y-107700000D03*
D19*
X124300000Y-108335000D03*
D17*
X124300000Y-108970000D03*
X121800000Y-107700000D03*
D19*
X121800000Y-108335000D03*
D17*
X121800000Y-108970000D03*
X126670000Y-92380000D03*
D19*
X126670000Y-91745000D03*
D17*
X126670000Y-91110000D03*
D22*
X105000000Y-96610000D03*
X105000000Y-102390000D03*
D23*
X106245000Y-96250000D03*
X106245000Y-97050000D03*
D24*
X106245000Y-98250000D03*
X106245000Y-99250000D03*
X106245000Y-99750000D03*
X106245000Y-100750000D03*
D23*
X106245000Y-101950000D03*
X106245000Y-102750000D03*
X106245000Y-102750000D03*
X106245000Y-101950000D03*
D24*
X106245000Y-101250000D03*
X106245000Y-100250000D03*
X106245000Y-98750000D03*
X106245000Y-97750000D03*
D23*
X106245000Y-97050000D03*
X106245000Y-96250000D03*
D25*
X105530000Y-95180000D03*
D26*
X101350000Y-95180000D03*
D25*
X105530000Y-103820000D03*
D26*
X101350000Y-103820000D03*
D27*
X123200000Y-99987500D03*
X123200000Y-98412500D03*
D28*
X101200000Y-92315000D03*
X101200000Y-93285000D03*
D29*
X112085000Y-105600000D03*
X111115000Y-105600000D03*
D21*
X113800000Y-96685000D03*
X113800000Y-95715000D03*
D30*
X114310000Y-105600000D03*
X113290000Y-105600000D03*
D31*
X104187500Y-107050000D03*
X104187500Y-106400000D03*
X104187500Y-105750000D03*
X102412500Y-105750000D03*
X102412500Y-106400000D03*
X102412500Y-107050000D03*
D32*
X103300000Y-106400000D03*
D28*
X115500000Y-104615000D03*
X115500000Y-105585000D03*
D33*
X132200000Y-98605000D03*
X132200000Y-97335000D03*
X132200000Y-96065000D03*
X132200000Y-94795000D03*
X125000000Y-94795000D03*
X125000000Y-96065000D03*
X125000000Y-97335000D03*
X125000000Y-98605000D03*
D34*
X110800000Y-103590000D03*
X110800000Y-104610000D03*
D35*
X109890000Y-96200000D03*
X110910000Y-96200000D03*
D36*
X120912500Y-94400000D03*
X122487500Y-94400000D03*
D37*
X133800000Y-104450000D03*
D38*
X133800000Y-104950000D03*
X133800000Y-105450000D03*
D37*
X133800000Y-105950000D03*
X134800000Y-105950000D03*
D38*
X134800000Y-105450000D03*
X134800000Y-104950000D03*
D37*
X134800000Y-104450000D03*
D39*
X113150000Y-94400000D03*
X115050000Y-94400000D03*
X114100000Y-92200000D03*
D28*
X123100000Y-101215000D03*
X123100000Y-102185000D03*
D40*
X124115000Y-102200000D03*
X125085000Y-102200000D03*
D41*
X108020000Y-104500000D03*
X108980000Y-104500000D03*
D16*
X114425000Y-107425000D03*
X114425000Y-108175000D03*
X117075000Y-108175000D03*
X117075000Y-107425000D03*
D21*
X120200000Y-106185000D03*
X120200000Y-105215000D03*
D34*
X105400000Y-105390000D03*
X105400000Y-106410000D03*
D42*
X112900000Y-104610000D03*
X112900000Y-103590000D03*
D40*
X129115000Y-100100000D03*
X130085000Y-100100000D03*
D29*
X128085000Y-100100000D03*
X127115000Y-100100000D03*
D40*
X124115000Y-101200000D03*
X125085000Y-101200000D03*
D43*
X118725000Y-104375000D03*
X117075000Y-104375000D03*
X117075000Y-105625000D03*
X118725000Y-105625000D03*
D41*
X108040000Y-103530000D03*
X109000000Y-103530000D03*
D40*
X124515000Y-100200000D03*
X125485000Y-100200000D03*
D42*
X109800000Y-104610000D03*
X109800000Y-103590000D03*
D44*
X121200000Y-106180000D03*
X121200000Y-105220000D03*
D39*
X109650000Y-94400000D03*
X111550000Y-94400000D03*
X110600000Y-92200000D03*
D45*
X122525000Y-103625000D03*
X124675000Y-105775000D03*
X124675000Y-103625000D03*
X122525000Y-105775000D03*
D44*
X107700000Y-106380000D03*
X107700000Y-105420000D03*
D46*
X105537500Y-107800000D03*
X107662500Y-107800000D03*
D34*
X111900000Y-103590000D03*
X111900000Y-104610000D03*
D47*
X121350000Y-101500000D03*
X121350000Y-101100000D03*
X121350000Y-100700000D03*
X121350000Y-100300000D03*
X121350000Y-99900000D03*
X121350000Y-99500000D03*
X121350000Y-99100000D03*
X121350000Y-98700000D03*
X121350000Y-98300000D03*
X121350000Y-97900000D03*
X121350000Y-97500000D03*
X121350000Y-97100000D03*
D48*
X120600000Y-96350000D03*
X120200000Y-96350000D03*
X119800000Y-96350000D03*
X119400000Y-96350000D03*
X119000000Y-96350000D03*
X118600000Y-96350000D03*
X118200000Y-96350000D03*
X117800000Y-96350000D03*
X117400000Y-96350000D03*
X117000000Y-96350000D03*
X116600000Y-96350000D03*
X116200000Y-96350000D03*
D47*
X115450000Y-97100000D03*
X115450000Y-97500000D03*
X115450000Y-97900000D03*
X115450000Y-98300000D03*
X115450000Y-98700000D03*
X115450000Y-99100000D03*
X115450000Y-99500000D03*
X115450000Y-99900000D03*
X115450000Y-100300000D03*
X115450000Y-100700000D03*
X115450000Y-101100000D03*
X115450000Y-101500000D03*
D48*
X116200000Y-102250000D03*
X116600000Y-102250000D03*
X117000000Y-102250000D03*
X117400000Y-102250000D03*
X117800000Y-102250000D03*
X118200000Y-102250000D03*
X118600000Y-102250000D03*
X119000000Y-102250000D03*
X119400000Y-102250000D03*
X119800000Y-102250000D03*
X120200000Y-102250000D03*
X120600000Y-102250000D03*
D49*
X118400000Y-99300000D03*
D50*
X131875000Y-105405000D03*
X131875000Y-104135000D03*
X131875000Y-102865000D03*
X131875000Y-101595000D03*
X126925000Y-101595000D03*
X126925000Y-102865000D03*
X126925000Y-104135000D03*
X126925000Y-105405000D03*
D28*
X114000000Y-103515000D03*
X114000000Y-104485000D03*
D51*
X101100000Y-105925000D03*
X101100000Y-107475000D03*
D42*
X106600000Y-106410000D03*
X106600000Y-105390000D03*
D30*
X121210000Y-104400000D03*
X120190000Y-104400000D03*
D52*
X120480000Y-103500000D03*
X121120000Y-103500000D03*
D30*
X112910000Y-96200000D03*
X111890000Y-96200000D03*
D44*
X108900000Y-106380000D03*
X108900000Y-105420000D03*
D53*
X111000000Y-100000000D03*
D54*
X109500000Y-97550000D03*
X110000000Y-97550000D03*
X110500000Y-97550000D03*
X111000000Y-97550000D03*
X111500000Y-97550000D03*
X112000000Y-97550000D03*
X112500000Y-97550000D03*
D55*
X113450000Y-98500000D03*
X113450000Y-99000000D03*
X113450000Y-99500000D03*
X113450000Y-100000000D03*
X113450000Y-100500000D03*
X113450000Y-101000000D03*
X113450000Y-101500000D03*
D54*
X112500000Y-102450000D03*
X112000000Y-102450000D03*
X111500000Y-102450000D03*
X111000000Y-102450000D03*
X110500000Y-102450000D03*
X110000000Y-102450000D03*
X109500000Y-102450000D03*
D55*
X108550000Y-101500000D03*
X108550000Y-101000000D03*
X108550000Y-100500000D03*
X108550000Y-100000000D03*
X108550000Y-99500000D03*
X108550000Y-99000000D03*
X108550000Y-98500000D03*
%LPD*%
M02*
