G04 #@! TF.GenerationSoftware,KiCad,Pcbnew,8.0.2*
G04 #@! TF.CreationDate,2024-11-10T02:28:46+05:00*
G04 #@! TF.ProjectId,V1,56312e6b-6963-4616-945f-706362585858,r0.1*
G04 #@! TF.SameCoordinates,Original*
G04 #@! TF.FileFunction,Copper,L3,Inr*
G04 #@! TF.FilePolarity,Positive*
%FSLAX46Y46*%
G04 Gerber Fmt 4.6, Leading zero omitted, Abs format (unit mm)*
G04 Created by KiCad (PCBNEW 8.0.2) date 2024-11-10 02:28:46*
%MOMM*%
%LPD*%
G01*
G04 APERTURE LIST*
G04 #@! TA.AperFunction,ComponentPad*
%ADD10C,1.524000*%
G04 #@! TD*
G04 #@! TA.AperFunction,ComponentPad*
%ADD11O,1.900000X1.000000*%
G04 #@! TD*
G04 #@! TA.AperFunction,ComponentPad*
%ADD12O,1.600000X1.000000*%
G04 #@! TD*
G04 #@! TA.AperFunction,HeatsinkPad*
%ADD13C,0.500000*%
G04 #@! TD*
G04 #@! TA.AperFunction,ViaPad*
%ADD14C,0.300000*%
G04 #@! TD*
G04 #@! TA.AperFunction,ViaPad*
%ADD15C,0.400000*%
G04 #@! TD*
G04 #@! TA.AperFunction,Conductor*
%ADD16C,0.127000*%
G04 #@! TD*
G04 APERTURE END LIST*
D10*
X134290000Y-100000000D03*
X135560000Y-100000000D03*
X134290000Y-102540000D03*
X135560000Y-102540000D03*
X129300000Y-107721500D03*
X129300000Y-108991500D03*
X129200000Y-92380000D03*
X129200000Y-91110000D03*
X124130000Y-92380000D03*
X124130000Y-91110000D03*
X121600000Y-92400000D03*
X121600000Y-91130000D03*
X126800000Y-107700000D03*
X126800000Y-108970000D03*
X134300000Y-92400000D03*
X134300000Y-91130000D03*
X131700000Y-92400000D03*
X131700000Y-91130000D03*
X134300000Y-107721500D03*
X134300000Y-108991500D03*
X131800000Y-107721500D03*
X131800000Y-108991500D03*
X134290000Y-97460000D03*
X135560000Y-97460000D03*
X134290000Y-94920000D03*
X135560000Y-94920000D03*
X124300000Y-107700000D03*
X124300000Y-108970000D03*
X121800000Y-107700000D03*
X121800000Y-108970000D03*
X126670000Y-92380000D03*
X126670000Y-91110000D03*
D11*
X105530000Y-95180000D03*
D12*
X101350000Y-95180000D03*
D11*
X105530000Y-103820000D03*
D12*
X101350000Y-103820000D03*
D13*
X103300000Y-106950000D03*
X103300000Y-105850000D03*
D14*
X109970000Y-91580000D03*
D15*
X113770000Y-97240000D03*
X107250000Y-106650000D03*
X114453524Y-103589921D03*
X126300000Y-98600000D03*
X100600000Y-93700000D03*
X108250000Y-106650000D03*
X115600000Y-103080000D03*
X118746500Y-103265399D03*
X107800000Y-104150000D03*
X122300000Y-100600000D03*
X121694001Y-93936500D03*
X113729109Y-103131192D03*
X115317744Y-95837744D03*
X112730000Y-105600000D03*
X119940000Y-103130000D03*
X127700000Y-106100000D03*
X111535729Y-105133314D03*
X126900000Y-106100000D03*
X129100000Y-100600000D03*
X120562886Y-94830067D03*
X120551288Y-93936500D03*
X121604211Y-94859392D03*
X122250000Y-101650000D03*
X117700000Y-107400000D03*
X110000000Y-101100000D03*
X116600000Y-98600000D03*
X116450000Y-108050000D03*
X112050000Y-101190223D03*
X111000000Y-101100000D03*
X114900000Y-104600000D03*
X109900000Y-100000000D03*
X119600000Y-92800000D03*
X117050000Y-98150000D03*
X117050000Y-98600000D03*
X109000000Y-102900000D03*
X116600000Y-98150000D03*
X125400000Y-101800000D03*
X109700000Y-106800000D03*
X125400000Y-100800000D03*
X122900000Y-98100000D03*
X122900000Y-93400000D03*
X114196961Y-95733500D03*
X105200000Y-99700000D03*
X105200000Y-98799986D03*
X110800000Y-104400000D03*
X107200000Y-102000000D03*
X129109777Y-103250000D03*
X127000000Y-97600000D03*
X114716455Y-98685731D03*
X131644735Y-96685001D03*
X114300000Y-98200000D03*
X131034998Y-102444699D03*
X133153484Y-104501766D03*
X119400000Y-95450000D03*
X114800000Y-92200000D03*
X122360000Y-98230000D03*
X133799996Y-103800000D03*
X133500004Y-96200004D03*
X114425000Y-106900000D03*
X117060000Y-103530000D03*
X110500000Y-97549984D03*
X117746500Y-102937903D03*
X111025001Y-97885377D03*
X128411748Y-96650000D03*
X128853554Y-101346446D03*
X114298002Y-100099883D03*
X130800000Y-97400000D03*
X130534998Y-104134998D03*
X114220000Y-100650000D03*
X115980000Y-95210000D03*
X103400000Y-94800000D03*
X122230000Y-99360000D03*
X122891801Y-96771801D03*
X122158841Y-98741896D03*
X122801018Y-97447362D03*
X111005204Y-96470000D03*
X114600002Y-94336500D03*
X109000000Y-96550000D03*
X111600000Y-95400000D03*
X111600000Y-103600000D03*
X110070268Y-102977458D03*
X112600000Y-103600000D03*
X111000160Y-102970004D03*
X127190580Y-96650000D03*
X128899997Y-102500003D03*
X114290000Y-99480000D03*
X133210000Y-105500000D03*
X132400000Y-99200000D03*
X133230000Y-106200000D03*
X114188964Y-98841476D03*
X120300000Y-95400000D03*
X121200000Y-95900000D03*
X117700000Y-103700000D03*
X116420002Y-103680000D03*
X115847849Y-103897162D03*
X115883129Y-101550003D03*
X114385155Y-101798301D03*
X114340000Y-101210000D03*
X112400000Y-106600000D03*
D16*
X133150000Y-105500000D02*
X133210000Y-105500000D01*
X130150003Y-102500003D02*
X133150000Y-105500000D01*
X128899997Y-102500003D02*
X130150003Y-102500003D01*
X131806500Y-99793500D02*
X132400000Y-99200000D01*
X121343744Y-99099232D02*
X122038012Y-99793500D01*
X114516305Y-99099232D02*
X121343744Y-99099232D01*
X114258549Y-98841476D02*
X114516305Y-99099232D01*
X114188964Y-98841476D02*
X114258549Y-98841476D01*
X122038012Y-99793500D02*
X131806500Y-99793500D01*
X115834472Y-99480000D02*
X114290000Y-99480000D01*
X116454472Y-100100000D02*
X115834472Y-99480000D01*
X121818769Y-100143698D02*
X121775072Y-100100000D01*
X122522935Y-100143698D02*
X121818769Y-100143698D01*
X121775072Y-100100000D02*
X116454472Y-100100000D01*
X122566633Y-100100000D02*
X122522935Y-100143698D01*
X126499994Y-100100000D02*
X122566633Y-100100000D01*
X128899997Y-102500003D02*
X126499994Y-100100000D01*
X123134314Y-95200000D02*
X130159734Y-95200000D01*
X130159734Y-95200000D02*
X131644735Y-96685001D01*
X121834314Y-96500000D02*
X123134314Y-95200000D01*
X114300000Y-98200000D02*
X116000000Y-96500000D01*
X116000000Y-96500000D02*
X121834314Y-96500000D01*
X131900000Y-94350000D02*
X119950000Y-94350000D01*
X133153484Y-104501766D02*
X133153484Y-104103484D01*
X132850000Y-103800000D02*
X132850000Y-95300000D01*
X132850000Y-95300000D02*
X131900000Y-94350000D01*
X133153484Y-104103484D02*
X132850000Y-103800000D01*
X119400000Y-94900000D02*
X119400000Y-95450000D01*
X119950000Y-94350000D02*
X119400000Y-94900000D01*
X114716455Y-98685731D02*
X116502186Y-96900000D01*
X122900000Y-96000000D02*
X125400000Y-96000000D01*
X116502186Y-96900000D02*
X122000000Y-96900000D01*
X122000000Y-96900000D02*
X122900000Y-96000000D01*
X125400000Y-96000000D02*
X126900000Y-97500000D01*
G04 #@! TA.AperFunction,Conductor*
G36*
X109678792Y-91247185D02*
G01*
X109724547Y-91299989D01*
X109734491Y-91369147D01*
X109719140Y-91413500D01*
X109683268Y-91475631D01*
X109683266Y-91475637D01*
X109665232Y-91577915D01*
X109664864Y-91580000D01*
X109680611Y-91669308D01*
X109683266Y-91684362D01*
X109683268Y-91684368D01*
X109736249Y-91776134D01*
X109736250Y-91776135D01*
X109736252Y-91776138D01*
X109757967Y-91794359D01*
X109817431Y-91844256D01*
X109817433Y-91844257D01*
X109838791Y-91852030D01*
X109917014Y-91880500D01*
X109917017Y-91880500D01*
X110022983Y-91880500D01*
X110022986Y-91880500D01*
X110112350Y-91847975D01*
X110122566Y-91844257D01*
X110122568Y-91844256D01*
X110141978Y-91827969D01*
X110203748Y-91776138D01*
X110256734Y-91684363D01*
X110275136Y-91580000D01*
X110274768Y-91577915D01*
X110272377Y-91564355D01*
X110256734Y-91475637D01*
X110256731Y-91475631D01*
X110220860Y-91413500D01*
X110204387Y-91345600D01*
X110227240Y-91279573D01*
X110282161Y-91236382D01*
X110328247Y-91227500D01*
X120582287Y-91227500D01*
X120649326Y-91247185D01*
X120695081Y-91299989D01*
X120699960Y-91314763D01*
X120700516Y-91314583D01*
X120761795Y-91503185D01*
X120761798Y-91503191D01*
X120857703Y-91669304D01*
X120857707Y-91669309D01*
X120869161Y-91682031D01*
X120899388Y-91745024D01*
X120890761Y-91814359D01*
X120869161Y-91847969D01*
X120857707Y-91860690D01*
X120857703Y-91860695D01*
X120761798Y-92026808D01*
X120761795Y-92026814D01*
X120709022Y-92189236D01*
X120702524Y-92209236D01*
X120682474Y-92400000D01*
X120702524Y-92590764D01*
X120702525Y-92590767D01*
X120761795Y-92773185D01*
X120761798Y-92773191D01*
X120857704Y-92939306D01*
X120857709Y-92939313D01*
X120986054Y-93081854D01*
X120986056Y-93081856D01*
X121141235Y-93194600D01*
X121141236Y-93194601D01*
X121271548Y-93252619D01*
X121316469Y-93272619D01*
X121504092Y-93312500D01*
X121695908Y-93312500D01*
X121883531Y-93272619D01*
X122058763Y-93194601D01*
X122213945Y-93081855D01*
X122296348Y-92990336D01*
X122342290Y-92939313D01*
X122342295Y-92939306D01*
X122353842Y-92919306D01*
X122438202Y-92773191D01*
X122497476Y-92590764D01*
X122517526Y-92400000D01*
X122497476Y-92209236D01*
X122438202Y-92026809D01*
X122342294Y-91860692D01*
X122330840Y-91847971D01*
X122300611Y-91784984D01*
X122309234Y-91715648D01*
X122330837Y-91682031D01*
X122342294Y-91669308D01*
X122438202Y-91503191D01*
X122497476Y-91320764D01*
X122497476Y-91320762D01*
X122499484Y-91314583D01*
X122501991Y-91315397D01*
X122529628Y-91264225D01*
X122590796Y-91230457D01*
X122617713Y-91227500D01*
X123118628Y-91227500D01*
X123185667Y-91247185D01*
X123231422Y-91299989D01*
X123236559Y-91313182D01*
X123291795Y-91483185D01*
X123291798Y-91483191D01*
X123387703Y-91649304D01*
X123387707Y-91649309D01*
X123399161Y-91662031D01*
X123429388Y-91725024D01*
X123420761Y-91794359D01*
X123399161Y-91827969D01*
X123387707Y-91840690D01*
X123387703Y-91840695D01*
X123291798Y-92006808D01*
X123291795Y-92006814D01*
X123232525Y-92189232D01*
X123232524Y-92189236D01*
X123212474Y-92380000D01*
X123232524Y-92570764D01*
X123232525Y-92570767D01*
X123291795Y-92753185D01*
X123291798Y-92753191D01*
X123387704Y-92919306D01*
X123387709Y-92919313D01*
X123516054Y-93061854D01*
X123516056Y-93061856D01*
X123671235Y-93174600D01*
X123671236Y-93174601D01*
X123846469Y-93252619D01*
X124034092Y-93292500D01*
X124225908Y-93292500D01*
X124413531Y-93252619D01*
X124588763Y-93174601D01*
X124743945Y-93061855D01*
X124854288Y-92939306D01*
X124872290Y-92919313D01*
X124872295Y-92919306D01*
X124968202Y-92753191D01*
X125027476Y-92570764D01*
X125047526Y-92380000D01*
X125027476Y-92189236D01*
X124974702Y-92026814D01*
X124968204Y-92006814D01*
X124968201Y-92006808D01*
X124959313Y-91991414D01*
X124876499Y-91847975D01*
X124872296Y-91840695D01*
X124872295Y-91840694D01*
X124872294Y-91840692D01*
X124860840Y-91827971D01*
X124830611Y-91764984D01*
X124839234Y-91695648D01*
X124860837Y-91662031D01*
X124872294Y-91649308D01*
X124968202Y-91483191D01*
X125023441Y-91313181D01*
X125062878Y-91255507D01*
X125127237Y-91228308D01*
X125141372Y-91227500D01*
X125658628Y-91227500D01*
X125725667Y-91247185D01*
X125771422Y-91299989D01*
X125776559Y-91313182D01*
X125831795Y-91483185D01*
X125831798Y-91483191D01*
X125927703Y-91649304D01*
X125927707Y-91649309D01*
X125939161Y-91662031D01*
X125969388Y-91725024D01*
X125960761Y-91794359D01*
X125939161Y-91827969D01*
X125927707Y-91840690D01*
X125927703Y-91840695D01*
X125831798Y-92006808D01*
X125831795Y-92006814D01*
X125772525Y-92189232D01*
X125772524Y-92189236D01*
X125752474Y-92380000D01*
X125772524Y-92570764D01*
X125772525Y-92570767D01*
X125831795Y-92753185D01*
X125831798Y-92753191D01*
X125927704Y-92919306D01*
X125927709Y-92919313D01*
X126056054Y-93061854D01*
X126056056Y-93061856D01*
X126211235Y-93174600D01*
X126211236Y-93174601D01*
X126386469Y-93252619D01*
X126574092Y-93292500D01*
X126765908Y-93292500D01*
X126953531Y-93252619D01*
X127128763Y-93174601D01*
X127283945Y-93061855D01*
X127394288Y-92939306D01*
X127412290Y-92919313D01*
X127412295Y-92919306D01*
X127508202Y-92753191D01*
X127567476Y-92570764D01*
X127587526Y-92380000D01*
X127567476Y-92189236D01*
X127514702Y-92026814D01*
X127508204Y-92006814D01*
X127508201Y-92006808D01*
X127499313Y-91991414D01*
X127416499Y-91847975D01*
X127412296Y-91840695D01*
X127412295Y-91840694D01*
X127412294Y-91840692D01*
X127400840Y-91827971D01*
X127370611Y-91764984D01*
X127379234Y-91695648D01*
X127400837Y-91662031D01*
X127412294Y-91649308D01*
X127508202Y-91483191D01*
X127563441Y-91313181D01*
X127602878Y-91255507D01*
X127667237Y-91228308D01*
X127681372Y-91227500D01*
X128188628Y-91227500D01*
X128255667Y-91247185D01*
X128301422Y-91299989D01*
X128306559Y-91313182D01*
X128361795Y-91483185D01*
X128361798Y-91483191D01*
X128457703Y-91649304D01*
X128457707Y-91649309D01*
X128469161Y-91662031D01*
X128499388Y-91725024D01*
X128490761Y-91794359D01*
X128469161Y-91827969D01*
X128457707Y-91840690D01*
X128457703Y-91840695D01*
X128361798Y-92006808D01*
X128361795Y-92006814D01*
X128302525Y-92189232D01*
X128302524Y-92189236D01*
X128282474Y-92380000D01*
X128302524Y-92570764D01*
X128302525Y-92570767D01*
X128361795Y-92753185D01*
X128361798Y-92753191D01*
X128457704Y-92919306D01*
X128457709Y-92919313D01*
X128586054Y-93061854D01*
X128586056Y-93061856D01*
X128741235Y-93174600D01*
X128741236Y-93174601D01*
X128916469Y-93252619D01*
X129104092Y-93292500D01*
X129295908Y-93292500D01*
X129483531Y-93252619D01*
X129658763Y-93174601D01*
X129813945Y-93061855D01*
X129924288Y-92939306D01*
X129942290Y-92919313D01*
X129942295Y-92919306D01*
X130038202Y-92753191D01*
X130097476Y-92570764D01*
X130117526Y-92380000D01*
X130097476Y-92189236D01*
X130044702Y-92026814D01*
X130038204Y-92006814D01*
X130038201Y-92006808D01*
X130029313Y-91991414D01*
X129946499Y-91847975D01*
X129942296Y-91840695D01*
X129942295Y-91840694D01*
X129942294Y-91840692D01*
X129930840Y-91827971D01*
X129900611Y-91764984D01*
X129909234Y-91695648D01*
X129930837Y-91662031D01*
X129942294Y-91649308D01*
X130038202Y-91483191D01*
X130093441Y-91313181D01*
X130132878Y-91255507D01*
X130197237Y-91228308D01*
X130211372Y-91227500D01*
X130682287Y-91227500D01*
X130749326Y-91247185D01*
X130795081Y-91299989D01*
X130799960Y-91314763D01*
X130800516Y-91314583D01*
X130861795Y-91503185D01*
X130861798Y-91503191D01*
X130957703Y-91669304D01*
X130957707Y-91669309D01*
X130969161Y-91682031D01*
X130999388Y-91745024D01*
X130990761Y-91814359D01*
X130969161Y-91847969D01*
X130957707Y-91860690D01*
X130957703Y-91860695D01*
X130861798Y-92026808D01*
X130861795Y-92026814D01*
X130809022Y-92189236D01*
X130802524Y-92209236D01*
X130782474Y-92400000D01*
X130802524Y-92590764D01*
X130802525Y-92590767D01*
X130861795Y-92773185D01*
X130861798Y-92773191D01*
X130957704Y-92939306D01*
X130957709Y-92939313D01*
X131086054Y-93081854D01*
X131086056Y-93081856D01*
X131241235Y-93194600D01*
X131241236Y-93194601D01*
X131371548Y-93252619D01*
X131416469Y-93272619D01*
X131604092Y-93312500D01*
X131795908Y-93312500D01*
X131983531Y-93272619D01*
X132158763Y-93194601D01*
X132313945Y-93081855D01*
X132396348Y-92990336D01*
X132442290Y-92939313D01*
X132442295Y-92939306D01*
X132453842Y-92919306D01*
X132538202Y-92773191D01*
X132597476Y-92590764D01*
X132617526Y-92400000D01*
X132597476Y-92209236D01*
X132538202Y-92026809D01*
X132442294Y-91860692D01*
X132430840Y-91847971D01*
X132400611Y-91784984D01*
X132409234Y-91715648D01*
X132430837Y-91682031D01*
X132442294Y-91669308D01*
X132538202Y-91503191D01*
X132597476Y-91320764D01*
X132597476Y-91320762D01*
X132599484Y-91314583D01*
X132601991Y-91315397D01*
X132629628Y-91264225D01*
X132690796Y-91230457D01*
X132717713Y-91227500D01*
X133282287Y-91227500D01*
X133349326Y-91247185D01*
X133395081Y-91299989D01*
X133399960Y-91314763D01*
X133400516Y-91314583D01*
X133461795Y-91503185D01*
X133461798Y-91503191D01*
X133557703Y-91669304D01*
X133557707Y-91669309D01*
X133569161Y-91682031D01*
X133599388Y-91745024D01*
X133590761Y-91814359D01*
X133569161Y-91847969D01*
X133557707Y-91860690D01*
X133557703Y-91860695D01*
X133461798Y-92026808D01*
X133461795Y-92026814D01*
X133409022Y-92189236D01*
X133402524Y-92209236D01*
X133382474Y-92400000D01*
X133402524Y-92590764D01*
X133402525Y-92590767D01*
X133461795Y-92773185D01*
X133461798Y-92773191D01*
X133557704Y-92939306D01*
X133557709Y-92939313D01*
X133686054Y-93081854D01*
X133686056Y-93081856D01*
X133841235Y-93194600D01*
X133841236Y-93194601D01*
X133971548Y-93252619D01*
X134016469Y-93272619D01*
X134204092Y-93312500D01*
X134395908Y-93312500D01*
X134583531Y-93272619D01*
X134758763Y-93194601D01*
X134913945Y-93081855D01*
X134996348Y-92990336D01*
X135042290Y-92939313D01*
X135042295Y-92939306D01*
X135053842Y-92919306D01*
X135138202Y-92773191D01*
X135190569Y-92612020D01*
X135230006Y-92554346D01*
X135294365Y-92527147D01*
X135363211Y-92539061D01*
X135414687Y-92586305D01*
X135432500Y-92650339D01*
X135432500Y-93913802D01*
X135412815Y-93980841D01*
X135360011Y-94026596D01*
X135334282Y-94035092D01*
X135276468Y-94047381D01*
X135101236Y-94125398D01*
X135101235Y-94125399D01*
X134997885Y-94200488D01*
X134932079Y-94223968D01*
X134864025Y-94208142D01*
X134852115Y-94200488D01*
X134748764Y-94125399D01*
X134748763Y-94125398D01*
X134573530Y-94047380D01*
X134385908Y-94007500D01*
X134194092Y-94007500D01*
X134006469Y-94047380D01*
X134006468Y-94047380D01*
X133831236Y-94125398D01*
X133831235Y-94125399D01*
X133676056Y-94238143D01*
X133676054Y-94238145D01*
X133547709Y-94380686D01*
X133547704Y-94380693D01*
X133451798Y-94546808D01*
X133451795Y-94546814D01*
X133395393Y-94720406D01*
X133392524Y-94729236D01*
X133372474Y-94920000D01*
X133392524Y-95110764D01*
X133392525Y-95110767D01*
X133451795Y-95293185D01*
X133451798Y-95293191D01*
X133547704Y-95459306D01*
X133547709Y-95459313D01*
X133654999Y-95578470D01*
X133676055Y-95601855D01*
X133754140Y-95658587D01*
X133758322Y-95661625D01*
X133800988Y-95716954D01*
X133801249Y-95720000D01*
X133804625Y-95718742D01*
X133863905Y-95729145D01*
X134006469Y-95792619D01*
X134194092Y-95832500D01*
X134385908Y-95832500D01*
X134573531Y-95792619D01*
X134697331Y-95737500D01*
X134748761Y-95714602D01*
X134748761Y-95714601D01*
X134748763Y-95714601D01*
X134852117Y-95639509D01*
X134917920Y-95616031D01*
X134985974Y-95631856D01*
X134997870Y-95639500D01*
X135069323Y-95691414D01*
X135101238Y-95714602D01*
X135152669Y-95737500D01*
X135276469Y-95792619D01*
X135328681Y-95803716D01*
X135334280Y-95804907D01*
X135395762Y-95838099D01*
X135429539Y-95899262D01*
X135432500Y-95926197D01*
X135432500Y-96453802D01*
X135412815Y-96520841D01*
X135360011Y-96566596D01*
X135334282Y-96575092D01*
X135276468Y-96587381D01*
X135101236Y-96665398D01*
X135101235Y-96665399D01*
X134997885Y-96740488D01*
X134932079Y-96763968D01*
X134864025Y-96748142D01*
X134852115Y-96740488D01*
X134748764Y-96665399D01*
X134748763Y-96665398D01*
X134573530Y-96587380D01*
X134385908Y-96547500D01*
X134194092Y-96547500D01*
X134006469Y-96587380D01*
X134006468Y-96587380D01*
X133899971Y-96634796D01*
X133830721Y-96644080D01*
X133767444Y-96614451D01*
X133730231Y-96555316D01*
X133730897Y-96485449D01*
X133761854Y-96433835D01*
X133787099Y-96408591D01*
X133837504Y-96309665D01*
X133837504Y-96309663D01*
X133837505Y-96309662D01*
X133854873Y-96200006D01*
X133854873Y-96200001D01*
X133837505Y-96090345D01*
X133815078Y-96046329D01*
X133787099Y-95991417D01*
X133787096Y-95991414D01*
X133787094Y-95991411D01*
X133725790Y-95930107D01*
X133699476Y-95881916D01*
X133643767Y-95878732D01*
X133629145Y-95872429D01*
X133619734Y-95867634D01*
X133609665Y-95862504D01*
X133609663Y-95862503D01*
X133609662Y-95862503D01*
X133500006Y-95845135D01*
X133500002Y-95845135D01*
X133390345Y-95862502D01*
X133291418Y-95912908D01*
X133291411Y-95912913D01*
X133275681Y-95928644D01*
X133214358Y-95962129D01*
X133144666Y-95957145D01*
X133088733Y-95915273D01*
X133064316Y-95849809D01*
X133064000Y-95840963D01*
X133064000Y-95357009D01*
X133064001Y-95357000D01*
X133064001Y-95257435D01*
X133064000Y-95257431D01*
X133044353Y-95209998D01*
X133031423Y-95178783D01*
X133031421Y-95178778D01*
X132971222Y-95118579D01*
X132964161Y-95111518D01*
X132964146Y-95111505D01*
X132091633Y-94238992D01*
X132091625Y-94238982D01*
X132021224Y-94168581D01*
X132021222Y-94168579D01*
X131964507Y-94145087D01*
X131942569Y-94135999D01*
X131942567Y-94135999D01*
X131857433Y-94135999D01*
X131842999Y-94135999D01*
X131842991Y-94136000D01*
X122162458Y-94136000D01*
X122095419Y-94116315D01*
X122049664Y-94063511D01*
X122039720Y-93994353D01*
X122039985Y-93992603D01*
X122048870Y-93936503D01*
X122048870Y-93936497D01*
X122031502Y-93826841D01*
X122022747Y-93809658D01*
X121981096Y-93727913D01*
X121981093Y-93727910D01*
X121981091Y-93727907D01*
X121902593Y-93649409D01*
X121902589Y-93649406D01*
X121902588Y-93649405D01*
X121898744Y-93647446D01*
X121803659Y-93598998D01*
X121694003Y-93581631D01*
X121693999Y-93581631D01*
X121584342Y-93598998D01*
X121485415Y-93649404D01*
X121485408Y-93649409D01*
X121406910Y-93727907D01*
X121406905Y-93727914D01*
X121356499Y-93826841D01*
X121339132Y-93936497D01*
X121339132Y-93936503D01*
X121348017Y-93992603D01*
X121339062Y-94061896D01*
X121294066Y-94115348D01*
X121227314Y-94135987D01*
X121225544Y-94136000D01*
X121019745Y-94136000D01*
X120952706Y-94116315D01*
X120906951Y-94063511D01*
X120897007Y-93994353D01*
X120897272Y-93992603D01*
X120906157Y-93936503D01*
X120906157Y-93936497D01*
X120888789Y-93826841D01*
X120880034Y-93809658D01*
X120838383Y-93727913D01*
X120838380Y-93727910D01*
X120838378Y-93727907D01*
X120759880Y-93649409D01*
X120759876Y-93649406D01*
X120759875Y-93649405D01*
X120756031Y-93647446D01*
X120660946Y-93598998D01*
X120551290Y-93581631D01*
X120551286Y-93581631D01*
X120441629Y-93598998D01*
X120342702Y-93649404D01*
X120342695Y-93649409D01*
X120264197Y-93727907D01*
X120264192Y-93727914D01*
X120213786Y-93826841D01*
X120196419Y-93936497D01*
X120196419Y-93936503D01*
X120205304Y-93992603D01*
X120196349Y-94061896D01*
X120151353Y-94115348D01*
X120084601Y-94135987D01*
X120082831Y-94136000D01*
X120007009Y-94136000D01*
X120007001Y-94135999D01*
X119992567Y-94135999D01*
X119907433Y-94135999D01*
X119907431Y-94135999D01*
X119907429Y-94136000D01*
X119868105Y-94152288D01*
X119868105Y-94152289D01*
X119828778Y-94168579D01*
X119828776Y-94168580D01*
X119283119Y-94714238D01*
X119283108Y-94714247D01*
X119283109Y-94714248D01*
X119278778Y-94718579D01*
X119218579Y-94778778D01*
X119199494Y-94824853D01*
X119197333Y-94830070D01*
X119185999Y-94857431D01*
X119185999Y-94957000D01*
X119186000Y-94957009D01*
X119186000Y-94985984D01*
X119178108Y-95029516D01*
X119073570Y-95308337D01*
X119072055Y-95313915D01*
X119071329Y-95313717D01*
X119064120Y-95335351D01*
X119062498Y-95340342D01*
X119045131Y-95449997D01*
X119045131Y-95450002D01*
X119062498Y-95559658D01*
X119112904Y-95658585D01*
X119112909Y-95658592D01*
X119191407Y-95737090D01*
X119191410Y-95737092D01*
X119191413Y-95737095D01*
X119248761Y-95766315D01*
X119290341Y-95787501D01*
X119399998Y-95804869D01*
X119400000Y-95804869D01*
X119400002Y-95804869D01*
X119509658Y-95787501D01*
X119509659Y-95787500D01*
X119509661Y-95787500D01*
X119608587Y-95737095D01*
X119687095Y-95658587D01*
X119737500Y-95559661D01*
X119737501Y-95559657D01*
X119740518Y-95550375D01*
X119742243Y-95550935D01*
X119767116Y-95498455D01*
X119826423Y-95461517D01*
X119896286Y-95462507D01*
X119954523Y-95501110D01*
X119970151Y-95524678D01*
X120012360Y-95607518D01*
X120012906Y-95608588D01*
X120012909Y-95608592D01*
X120091407Y-95687090D01*
X120091410Y-95687092D01*
X120091413Y-95687095D01*
X120155993Y-95720000D01*
X120190341Y-95737501D01*
X120299998Y-95754869D01*
X120300000Y-95754869D01*
X120300002Y-95754869D01*
X120409658Y-95737501D01*
X120409659Y-95737500D01*
X120409661Y-95737500D01*
X120508587Y-95687095D01*
X120587095Y-95608587D01*
X120637500Y-95509661D01*
X120637500Y-95509659D01*
X120637501Y-95509658D01*
X120654869Y-95400002D01*
X120654869Y-95399999D01*
X120644629Y-95335351D01*
X120637500Y-95290339D01*
X120637499Y-95290338D01*
X120636217Y-95282241D01*
X120645171Y-95212947D01*
X120690167Y-95159495D01*
X120702373Y-95152369D01*
X120771473Y-95117162D01*
X120849981Y-95038654D01*
X120900386Y-94939728D01*
X120900386Y-94939726D01*
X120900387Y-94939725D01*
X120917755Y-94830069D01*
X120917755Y-94830064D01*
X120898860Y-94710767D01*
X120901851Y-94710293D01*
X120900309Y-94656488D01*
X120936384Y-94596652D01*
X120999082Y-94565818D01*
X121020238Y-94564000D01*
X121158997Y-94564000D01*
X121226036Y-94583685D01*
X121271791Y-94636489D01*
X121281735Y-94705647D01*
X121269483Y-94744290D01*
X121266711Y-94749731D01*
X121266710Y-94749732D01*
X121266709Y-94749736D01*
X121249342Y-94859389D01*
X121249342Y-94859394D01*
X121266709Y-94969050D01*
X121317115Y-95067977D01*
X121317120Y-95067984D01*
X121395618Y-95146482D01*
X121395621Y-95146484D01*
X121395624Y-95146487D01*
X121458999Y-95178778D01*
X121494552Y-95196893D01*
X121604209Y-95214261D01*
X121604211Y-95214261D01*
X121604213Y-95214261D01*
X121713869Y-95196893D01*
X121713870Y-95196892D01*
X121713872Y-95196892D01*
X121812798Y-95146487D01*
X121891306Y-95067979D01*
X121941711Y-94969053D01*
X121941711Y-94969051D01*
X121941712Y-94969050D01*
X121959080Y-94859394D01*
X121959080Y-94859389D01*
X121941712Y-94749736D01*
X121941711Y-94749735D01*
X121941711Y-94749731D01*
X121938940Y-94744293D01*
X121926044Y-94675628D01*
X121952319Y-94610887D01*
X122009424Y-94570629D01*
X122049425Y-94564000D01*
X131759997Y-94564000D01*
X131827036Y-94583685D01*
X131847678Y-94600319D01*
X132599681Y-95352322D01*
X132633166Y-95413645D01*
X132636000Y-95440003D01*
X132636000Y-98737324D01*
X132616315Y-98804363D01*
X132563511Y-98850118D01*
X132494353Y-98860062D01*
X132492603Y-98859797D01*
X132400003Y-98845131D01*
X132399998Y-98845131D01*
X132290341Y-98862498D01*
X132191414Y-98912904D01*
X132191407Y-98912909D01*
X132112905Y-98991411D01*
X132087671Y-99040935D01*
X132077891Y-99056989D01*
X132069010Y-99069349D01*
X132069002Y-99069363D01*
X131945776Y-99340419D01*
X131920575Y-99376782D01*
X131754176Y-99543182D01*
X131692856Y-99576666D01*
X131666497Y-99579500D01*
X122695289Y-99579500D01*
X122628250Y-99559815D01*
X122582495Y-99507011D01*
X122572551Y-99437853D01*
X122572816Y-99436102D01*
X122584869Y-99360002D01*
X122584869Y-99359997D01*
X122567501Y-99250341D01*
X122538236Y-99192905D01*
X122517095Y-99151413D01*
X122517092Y-99151410D01*
X122517090Y-99151407D01*
X122465837Y-99100154D01*
X122432352Y-99038831D01*
X122437336Y-98969139D01*
X122443033Y-98956178D01*
X122445933Y-98950485D01*
X122445936Y-98950483D01*
X122496341Y-98851557D01*
X122497359Y-98845131D01*
X122513710Y-98741898D01*
X122513710Y-98741894D01*
X122498955Y-98648737D01*
X122505253Y-98599997D01*
X125945131Y-98599997D01*
X125945131Y-98600002D01*
X125962498Y-98709658D01*
X126012904Y-98808585D01*
X126012909Y-98808592D01*
X126091407Y-98887090D01*
X126091410Y-98887092D01*
X126091413Y-98887095D01*
X126151695Y-98917810D01*
X126190341Y-98937501D01*
X126299998Y-98954869D01*
X126300000Y-98954869D01*
X126300002Y-98954869D01*
X126409658Y-98937501D01*
X126409659Y-98937500D01*
X126409661Y-98937500D01*
X126508587Y-98887095D01*
X126587095Y-98808587D01*
X126637500Y-98709661D01*
X126637500Y-98709659D01*
X126637501Y-98709658D01*
X126654869Y-98600002D01*
X126654869Y-98599997D01*
X126637501Y-98490341D01*
X126623307Y-98462484D01*
X126587095Y-98391413D01*
X126587092Y-98391410D01*
X126587090Y-98391407D01*
X126508592Y-98312909D01*
X126508588Y-98312906D01*
X126508587Y-98312905D01*
X126502214Y-98309658D01*
X126409658Y-98262498D01*
X126300002Y-98245131D01*
X126299998Y-98245131D01*
X126190341Y-98262498D01*
X126091414Y-98312904D01*
X126091407Y-98312909D01*
X126012909Y-98391407D01*
X126012904Y-98391414D01*
X125962498Y-98490341D01*
X125945131Y-98599997D01*
X122505253Y-98599997D01*
X122507909Y-98579444D01*
X122552905Y-98525992D01*
X122565123Y-98518859D01*
X122568587Y-98517095D01*
X122647095Y-98438587D01*
X122697500Y-98339661D01*
X122697500Y-98339659D01*
X122697501Y-98339658D01*
X122714869Y-98230002D01*
X122714869Y-98229997D01*
X122697501Y-98120341D01*
X122656114Y-98039114D01*
X122647095Y-98021413D01*
X122647092Y-98021410D01*
X122647090Y-98021407D01*
X122627553Y-98001870D01*
X122594068Y-97940547D01*
X122599052Y-97870855D01*
X122640924Y-97814922D01*
X122706388Y-97790505D01*
X122734629Y-97791715D01*
X122801018Y-97802231D01*
X122801020Y-97802231D01*
X122910676Y-97784863D01*
X122910677Y-97784862D01*
X122910679Y-97784862D01*
X123009605Y-97734457D01*
X123088113Y-97655949D01*
X123138518Y-97557023D01*
X123138518Y-97557021D01*
X123138519Y-97557020D01*
X123155887Y-97447364D01*
X123155887Y-97447359D01*
X123138519Y-97337703D01*
X123108041Y-97277887D01*
X123088113Y-97238775D01*
X123088110Y-97238772D01*
X123082374Y-97230876D01*
X123084579Y-97229273D01*
X123058271Y-97181094D01*
X123063255Y-97111402D01*
X123095722Y-97068031D01*
X123093488Y-97065797D01*
X123178891Y-96980393D01*
X123178896Y-96980388D01*
X123229301Y-96881462D01*
X123229301Y-96881460D01*
X123229302Y-96881459D01*
X123246670Y-96771803D01*
X123246670Y-96771798D01*
X123229302Y-96662142D01*
X123220099Y-96644080D01*
X123178896Y-96563214D01*
X123178893Y-96563211D01*
X123178891Y-96563208D01*
X123100393Y-96484710D01*
X123100389Y-96484707D01*
X123100388Y-96484706D01*
X123029298Y-96448484D01*
X122978502Y-96400511D01*
X122961707Y-96332690D01*
X122984244Y-96266555D01*
X123038959Y-96223103D01*
X123085593Y-96214000D01*
X125259997Y-96214000D01*
X125327036Y-96233685D01*
X125347677Y-96250318D01*
X125934448Y-96837090D01*
X126520573Y-97423215D01*
X126545774Y-97459577D01*
X126669007Y-97730645D01*
X126679074Y-97744944D01*
X126688162Y-97760025D01*
X126696157Y-97775716D01*
X126711844Y-97806506D01*
X126712905Y-97808587D01*
X126791413Y-97887095D01*
X126890339Y-97937500D01*
X126890341Y-97937501D01*
X126999998Y-97954869D01*
X127000000Y-97954869D01*
X127000002Y-97954869D01*
X127109658Y-97937501D01*
X127109659Y-97937500D01*
X127109661Y-97937500D01*
X127208587Y-97887095D01*
X127287095Y-97808587D01*
X127337500Y-97709661D01*
X127337500Y-97709659D01*
X127337501Y-97709658D01*
X127354869Y-97600002D01*
X127354869Y-97599997D01*
X127337501Y-97490341D01*
X127334230Y-97483922D01*
X127291469Y-97399997D01*
X130445131Y-97399997D01*
X130445131Y-97400002D01*
X130462498Y-97509658D01*
X130512904Y-97608585D01*
X130512909Y-97608592D01*
X130591407Y-97687090D01*
X130591410Y-97687092D01*
X130591413Y-97687095D01*
X130688993Y-97736814D01*
X130690341Y-97737501D01*
X130799998Y-97754869D01*
X130800000Y-97754869D01*
X130800002Y-97754869D01*
X130909658Y-97737501D01*
X130909659Y-97737500D01*
X130909661Y-97737500D01*
X131008587Y-97687095D01*
X131087095Y-97608587D01*
X131137500Y-97509661D01*
X131137500Y-97509659D01*
X131137501Y-97509658D01*
X131154869Y-97400002D01*
X131154869Y-97399997D01*
X131137501Y-97290341D01*
X131131155Y-97277887D01*
X131087095Y-97191413D01*
X131087092Y-97191410D01*
X131087090Y-97191407D01*
X131008592Y-97112909D01*
X131008588Y-97112906D01*
X131008587Y-97112905D01*
X130980824Y-97098759D01*
X130909658Y-97062498D01*
X130800002Y-97045131D01*
X130799998Y-97045131D01*
X130690341Y-97062498D01*
X130591414Y-97112904D01*
X130591407Y-97112909D01*
X130512909Y-97191407D01*
X130512904Y-97191414D01*
X130462498Y-97290341D01*
X130445131Y-97399997D01*
X127291469Y-97399997D01*
X127287095Y-97391413D01*
X127287092Y-97391410D01*
X127287090Y-97391407D01*
X127208592Y-97312909D01*
X127208588Y-97312906D01*
X127208587Y-97312905D01*
X127206945Y-97312068D01*
X127159062Y-97287670D01*
X127143002Y-97277887D01*
X127130644Y-97269007D01*
X127130642Y-97269006D01*
X127130638Y-97269004D01*
X127039246Y-97227455D01*
X126986364Y-97181790D01*
X126966565Y-97114785D01*
X126986135Y-97047712D01*
X127038861Y-97001867D01*
X127108003Y-96991805D01*
X127109915Y-96992092D01*
X127166996Y-97001133D01*
X127190579Y-97004869D01*
X127190580Y-97004869D01*
X127190582Y-97004869D01*
X127300238Y-96987501D01*
X127300239Y-96987500D01*
X127300241Y-96987500D01*
X127399167Y-96937095D01*
X127477675Y-96858587D01*
X127528080Y-96759661D01*
X127528080Y-96759659D01*
X127528081Y-96759658D01*
X127545449Y-96650002D01*
X127545449Y-96649997D01*
X128056879Y-96649997D01*
X128056879Y-96650002D01*
X128074246Y-96759658D01*
X128124652Y-96858585D01*
X128124657Y-96858592D01*
X128203155Y-96937090D01*
X128203158Y-96937092D01*
X128203161Y-96937095D01*
X128271845Y-96972091D01*
X128302089Y-96987501D01*
X128411746Y-97004869D01*
X128411748Y-97004869D01*
X128411750Y-97004869D01*
X128521406Y-96987501D01*
X128521407Y-96987500D01*
X128521409Y-96987500D01*
X128620335Y-96937095D01*
X128698843Y-96858587D01*
X128749248Y-96759661D01*
X128749248Y-96759659D01*
X128749249Y-96759658D01*
X128766617Y-96650002D01*
X128766617Y-96649997D01*
X128749249Y-96540341D01*
X128747804Y-96537505D01*
X128698843Y-96441413D01*
X128698840Y-96441410D01*
X128698838Y-96441407D01*
X128620340Y-96362909D01*
X128620336Y-96362906D01*
X128620335Y-96362905D01*
X128602864Y-96354003D01*
X128521406Y-96312498D01*
X128411750Y-96295131D01*
X128411746Y-96295131D01*
X128302089Y-96312498D01*
X128203162Y-96362904D01*
X128203155Y-96362909D01*
X128124657Y-96441407D01*
X128124652Y-96441414D01*
X128074246Y-96540341D01*
X128056879Y-96649997D01*
X127545449Y-96649997D01*
X127528081Y-96540341D01*
X127526636Y-96537505D01*
X127477675Y-96441413D01*
X127477672Y-96441410D01*
X127477670Y-96441407D01*
X127399172Y-96362909D01*
X127399168Y-96362906D01*
X127399167Y-96362905D01*
X127381696Y-96354003D01*
X127300238Y-96312498D01*
X127190582Y-96295131D01*
X127190578Y-96295131D01*
X127080921Y-96312498D01*
X126981994Y-96362904D01*
X126981987Y-96362909D01*
X126903489Y-96441407D01*
X126903484Y-96441414D01*
X126853078Y-96540341D01*
X126835711Y-96649997D01*
X126835711Y-96650002D01*
X126853078Y-96759658D01*
X126903604Y-96858822D01*
X126916500Y-96927492D01*
X126890223Y-96992232D01*
X126833116Y-97032488D01*
X126763310Y-97035480D01*
X126705440Y-97002798D01*
X125591632Y-95888991D01*
X125591625Y-95888982D01*
X125521221Y-95818578D01*
X125475148Y-95799495D01*
X125475146Y-95799493D01*
X125475146Y-95799494D01*
X125442567Y-95785999D01*
X125357433Y-95785999D01*
X125342999Y-95785999D01*
X125342991Y-95786000D01*
X123150317Y-95786000D01*
X123083278Y-95766315D01*
X123037523Y-95713511D01*
X123027579Y-95644353D01*
X123056604Y-95580797D01*
X123062620Y-95574334D01*
X123186638Y-95450317D01*
X123247960Y-95416834D01*
X123274318Y-95414000D01*
X130019731Y-95414000D01*
X130086770Y-95433685D01*
X130107412Y-95450319D01*
X131165308Y-96508216D01*
X131190509Y-96544578D01*
X131313742Y-96815646D01*
X131323809Y-96829945D01*
X131332897Y-96845026D01*
X131339809Y-96858592D01*
X131354538Y-96887501D01*
X131357640Y-96893588D01*
X131436148Y-96972096D01*
X131500469Y-97004869D01*
X131535076Y-97022502D01*
X131644733Y-97039870D01*
X131644735Y-97039870D01*
X131644737Y-97039870D01*
X131754393Y-97022502D01*
X131754394Y-97022501D01*
X131754396Y-97022501D01*
X131853322Y-96972096D01*
X131931830Y-96893588D01*
X131982235Y-96794662D01*
X131982235Y-96794660D01*
X131982236Y-96794659D01*
X131999604Y-96685003D01*
X131999604Y-96684998D01*
X131982236Y-96575342D01*
X131976057Y-96563215D01*
X131931830Y-96476414D01*
X131931827Y-96476411D01*
X131931825Y-96476408D01*
X131853327Y-96397910D01*
X131853323Y-96397907D01*
X131853322Y-96397906D01*
X131851680Y-96397069D01*
X131803797Y-96372671D01*
X131787737Y-96362888D01*
X131775379Y-96354008D01*
X131775377Y-96354007D01*
X131775370Y-96354003D01*
X131504315Y-96230777D01*
X131467952Y-96205576D01*
X130351367Y-95088992D01*
X130351359Y-95088982D01*
X130280955Y-95018578D01*
X130234882Y-94999495D01*
X130234880Y-94999493D01*
X130234880Y-94999494D01*
X130202301Y-94985999D01*
X130117167Y-94985999D01*
X130102733Y-94985999D01*
X130102725Y-94986000D01*
X123191323Y-94986000D01*
X123191315Y-94985999D01*
X123176881Y-94985999D01*
X123091747Y-94985999D01*
X123036132Y-95009033D01*
X123036133Y-95009034D01*
X123013094Y-95018578D01*
X123013089Y-95018581D01*
X122969173Y-95062498D01*
X122952893Y-95078778D01*
X122952892Y-95078779D01*
X122069544Y-95962129D01*
X121781992Y-96249681D01*
X121720669Y-96283166D01*
X121694311Y-96286000D01*
X121599048Y-96286000D01*
X121532009Y-96266315D01*
X121486254Y-96213511D01*
X121476310Y-96144353D01*
X121488563Y-96105706D01*
X121518817Y-96046329D01*
X121537500Y-96009661D01*
X121537500Y-96009659D01*
X121537501Y-96009658D01*
X121554869Y-95900002D01*
X121554869Y-95899997D01*
X121537501Y-95790341D01*
X121510368Y-95737090D01*
X121487095Y-95691413D01*
X121487092Y-95691410D01*
X121487090Y-95691407D01*
X121408592Y-95612909D01*
X121408588Y-95612906D01*
X121408587Y-95612905D01*
X121400112Y-95608587D01*
X121309658Y-95562498D01*
X121200002Y-95545131D01*
X121199998Y-95545131D01*
X121090341Y-95562498D01*
X120991414Y-95612904D01*
X120991407Y-95612909D01*
X120912909Y-95691407D01*
X120912904Y-95691414D01*
X120862498Y-95790341D01*
X120845131Y-95899997D01*
X120845131Y-95900002D01*
X120862498Y-96009658D01*
X120911437Y-96105706D01*
X120924333Y-96174375D01*
X120898056Y-96239115D01*
X120840950Y-96279372D01*
X120800952Y-96286000D01*
X116057009Y-96286000D01*
X116057001Y-96285999D01*
X116042567Y-96285999D01*
X115957433Y-96285999D01*
X115957431Y-96285999D01*
X115924853Y-96299493D01*
X115924853Y-96299494D01*
X115893459Y-96312498D01*
X115878778Y-96318579D01*
X114476784Y-97720573D01*
X114440422Y-97745774D01*
X114169356Y-97869005D01*
X114169346Y-97869011D01*
X114155041Y-97879081D01*
X114139966Y-97888165D01*
X114091410Y-97912906D01*
X114012909Y-97991407D01*
X114012904Y-97991414D01*
X113962498Y-98090341D01*
X113945131Y-98199997D01*
X113945131Y-98200002D01*
X113962498Y-98309658D01*
X114010252Y-98403380D01*
X114023148Y-98472049D01*
X113996871Y-98536789D01*
X113986526Y-98546729D01*
X113987277Y-98547480D01*
X113901873Y-98632883D01*
X113901868Y-98632890D01*
X113851462Y-98731817D01*
X113834095Y-98841473D01*
X113834095Y-98841478D01*
X113851462Y-98951134D01*
X113901868Y-99050061D01*
X113901873Y-99050068D01*
X113979811Y-99128006D01*
X114013296Y-99189329D01*
X114008312Y-99259021D01*
X114002615Y-99271981D01*
X113952498Y-99370341D01*
X113935131Y-99479997D01*
X113935131Y-99480002D01*
X113952498Y-99589658D01*
X114002904Y-99688585D01*
X114002909Y-99688592D01*
X114020578Y-99706261D01*
X114054063Y-99767584D01*
X114049079Y-99837276D01*
X114020581Y-99881621D01*
X114010909Y-99891292D01*
X114010906Y-99891297D01*
X113960500Y-99990224D01*
X113943133Y-100099880D01*
X113943133Y-100099885D01*
X113960500Y-100209541D01*
X113988551Y-100264594D01*
X114001447Y-100333263D01*
X113975170Y-100398004D01*
X113965748Y-100408568D01*
X113932909Y-100441407D01*
X113932904Y-100441414D01*
X113882498Y-100540341D01*
X113865131Y-100649997D01*
X113865131Y-100650002D01*
X113882498Y-100759658D01*
X113907428Y-100808585D01*
X113932905Y-100858587D01*
X113996906Y-100922588D01*
X114030390Y-100983909D01*
X114025406Y-101053601D01*
X114019710Y-101066560D01*
X114002499Y-101100340D01*
X113985131Y-101209997D01*
X113985131Y-101210002D01*
X114002498Y-101319658D01*
X114052904Y-101418585D01*
X114052909Y-101418592D01*
X114076875Y-101442558D01*
X114110360Y-101503881D01*
X114105376Y-101573573D01*
X114099680Y-101586532D01*
X114047653Y-101688643D01*
X114030286Y-101798298D01*
X114030286Y-101798303D01*
X114047653Y-101907959D01*
X114098059Y-102006886D01*
X114098064Y-102006893D01*
X114176562Y-102085391D01*
X114176565Y-102085393D01*
X114176568Y-102085396D01*
X114275494Y-102135801D01*
X114275496Y-102135802D01*
X114385153Y-102153170D01*
X114385155Y-102153170D01*
X114385157Y-102153170D01*
X114494813Y-102135802D01*
X114494814Y-102135801D01*
X114494816Y-102135801D01*
X114593742Y-102085396D01*
X114672250Y-102006888D01*
X114722655Y-101907962D01*
X114722655Y-101907960D01*
X114722656Y-101907959D01*
X114740024Y-101798303D01*
X114740024Y-101798298D01*
X114722656Y-101688642D01*
X114720263Y-101683946D01*
X114672250Y-101589714D01*
X114672247Y-101589711D01*
X114672245Y-101589708D01*
X114648278Y-101565741D01*
X114639683Y-101550000D01*
X115528260Y-101550000D01*
X115528260Y-101550005D01*
X115545627Y-101659661D01*
X115596033Y-101758588D01*
X115596038Y-101758595D01*
X115674536Y-101837093D01*
X115674539Y-101837095D01*
X115674542Y-101837098D01*
X115716713Y-101858585D01*
X115773470Y-101887504D01*
X115883127Y-101904872D01*
X115883129Y-101904872D01*
X115883131Y-101904872D01*
X115992787Y-101887504D01*
X115992788Y-101887503D01*
X115992790Y-101887503D01*
X116091716Y-101837098D01*
X116170224Y-101758590D01*
X116220629Y-101659664D01*
X116220629Y-101659662D01*
X116220630Y-101659661D01*
X116222161Y-101649997D01*
X121895131Y-101649997D01*
X121895131Y-101650002D01*
X121912498Y-101759658D01*
X121962904Y-101858585D01*
X121962909Y-101858592D01*
X122041407Y-101937090D01*
X122041410Y-101937092D01*
X122041413Y-101937095D01*
X122104996Y-101969492D01*
X122140341Y-101987501D01*
X122249998Y-102004869D01*
X122250000Y-102004869D01*
X122250002Y-102004869D01*
X122359658Y-101987501D01*
X122359659Y-101987500D01*
X122359661Y-101987500D01*
X122458587Y-101937095D01*
X122537095Y-101858587D01*
X122587500Y-101759661D01*
X122587500Y-101759659D01*
X122587501Y-101759658D01*
X122604869Y-101650002D01*
X122604869Y-101649997D01*
X122587501Y-101540341D01*
X122560342Y-101487038D01*
X122537095Y-101441413D01*
X122537092Y-101441410D01*
X122537090Y-101441407D01*
X122458592Y-101362909D01*
X122458588Y-101362906D01*
X122458587Y-101362905D01*
X122426284Y-101346446D01*
X122359658Y-101312498D01*
X122250002Y-101295131D01*
X122249998Y-101295131D01*
X122140341Y-101312498D01*
X122041414Y-101362904D01*
X122041407Y-101362909D01*
X121962909Y-101441407D01*
X121962904Y-101441414D01*
X121912498Y-101540341D01*
X121895131Y-101649997D01*
X116222161Y-101649997D01*
X116237998Y-101550005D01*
X116237998Y-101550000D01*
X116220630Y-101440344D01*
X116220629Y-101440342D01*
X116170224Y-101341416D01*
X116170221Y-101341413D01*
X116170219Y-101341410D01*
X116091721Y-101262912D01*
X116091717Y-101262909D01*
X116091716Y-101262908D01*
X116087872Y-101260949D01*
X115992787Y-101212501D01*
X115883131Y-101195134D01*
X115883127Y-101195134D01*
X115773470Y-101212501D01*
X115674543Y-101262907D01*
X115674536Y-101262912D01*
X115596038Y-101341410D01*
X115596033Y-101341417D01*
X115545627Y-101440344D01*
X115528260Y-101550000D01*
X114639683Y-101550000D01*
X114614793Y-101504418D01*
X114619777Y-101434726D01*
X114625474Y-101421765D01*
X114627091Y-101418590D01*
X114627095Y-101418587D01*
X114677500Y-101319661D01*
X114681385Y-101295131D01*
X114694869Y-101210002D01*
X114694869Y-101209997D01*
X114677501Y-101100341D01*
X114656618Y-101059355D01*
X114627095Y-101001413D01*
X114627092Y-101001410D01*
X114627090Y-101001407D01*
X114563094Y-100937411D01*
X114529609Y-100876088D01*
X114534593Y-100806396D01*
X114540285Y-100793446D01*
X114557500Y-100759661D01*
X114565420Y-100709661D01*
X114574869Y-100650002D01*
X114574869Y-100649997D01*
X114557501Y-100540343D01*
X114557500Y-100540341D01*
X114557500Y-100540339D01*
X114529449Y-100485286D01*
X114516554Y-100416619D01*
X114542831Y-100351879D01*
X114552255Y-100341312D01*
X114585093Y-100308474D01*
X114585097Y-100308470D01*
X114635502Y-100209544D01*
X114635502Y-100209542D01*
X114635503Y-100209541D01*
X114652871Y-100099885D01*
X114652871Y-100099880D01*
X114635503Y-99990226D01*
X114635502Y-99990224D01*
X114635502Y-99990222D01*
X114587193Y-99895410D01*
X114574298Y-99826745D01*
X114600574Y-99762004D01*
X114654148Y-99723011D01*
X114710477Y-99701892D01*
X114754008Y-99694000D01*
X115694469Y-99694000D01*
X115761508Y-99713685D01*
X115782150Y-99730319D01*
X116265980Y-100214150D01*
X116265983Y-100214154D01*
X116273051Y-100221222D01*
X116333250Y-100281421D01*
X116366347Y-100295129D01*
X116366349Y-100295131D01*
X116366350Y-100295131D01*
X116411905Y-100314001D01*
X116411906Y-100314001D01*
X116511473Y-100314001D01*
X116511481Y-100314000D01*
X121646038Y-100314000D01*
X121693487Y-100323437D01*
X121697546Y-100325118D01*
X121697547Y-100325119D01*
X121734073Y-100340248D01*
X121734077Y-100340251D01*
X121734078Y-100340250D01*
X121776200Y-100357699D01*
X121838324Y-100357699D01*
X121905361Y-100377384D01*
X121951116Y-100430188D01*
X121961060Y-100499346D01*
X121960795Y-100501096D01*
X121945131Y-100599996D01*
X121945131Y-100600002D01*
X121962498Y-100709658D01*
X121987976Y-100759661D01*
X122012904Y-100808586D01*
X122012909Y-100808592D01*
X122091407Y-100887090D01*
X122091410Y-100887092D01*
X122091413Y-100887095D01*
X122161695Y-100922905D01*
X122190341Y-100937501D01*
X122299998Y-100954869D01*
X122300000Y-100954869D01*
X122300002Y-100954869D01*
X122409658Y-100937501D01*
X122409659Y-100937500D01*
X122409661Y-100937500D01*
X122508587Y-100887095D01*
X122587095Y-100808587D01*
X122637500Y-100709661D01*
X122637500Y-100709659D01*
X122637501Y-100709658D01*
X122654869Y-100600002D01*
X122654869Y-100599997D01*
X122639204Y-100501096D01*
X122637500Y-100490339D01*
X122637499Y-100490337D01*
X122634486Y-100481063D01*
X122636883Y-100480283D01*
X122626619Y-100425623D01*
X122652897Y-100360883D01*
X122710005Y-100320627D01*
X122750000Y-100314000D01*
X126359991Y-100314000D01*
X126427030Y-100333685D01*
X126447672Y-100350319D01*
X128420571Y-102323218D01*
X128445772Y-102359581D01*
X128569003Y-102630646D01*
X128579071Y-102644947D01*
X128588159Y-102660028D01*
X128599817Y-102682908D01*
X128603614Y-102690362D01*
X128612902Y-102708590D01*
X128691410Y-102787098D01*
X128790336Y-102837503D01*
X128790339Y-102837503D01*
X128794776Y-102839764D01*
X128845572Y-102887737D01*
X128862368Y-102955558D01*
X128839831Y-103021693D01*
X128826167Y-103037926D01*
X128822688Y-103041405D01*
X128822681Y-103041414D01*
X128772275Y-103140341D01*
X128754908Y-103249997D01*
X128754908Y-103250002D01*
X128772275Y-103359658D01*
X128822681Y-103458585D01*
X128822686Y-103458592D01*
X128901184Y-103537090D01*
X128901187Y-103537092D01*
X128901190Y-103537095D01*
X128995647Y-103585223D01*
X129000118Y-103587501D01*
X129109775Y-103604869D01*
X129109777Y-103604869D01*
X129109779Y-103604869D01*
X129219435Y-103587501D01*
X129219436Y-103587500D01*
X129219438Y-103587500D01*
X129318364Y-103537095D01*
X129396872Y-103458587D01*
X129447277Y-103359661D01*
X129447277Y-103359659D01*
X129447278Y-103359658D01*
X129464646Y-103250002D01*
X129464646Y-103249997D01*
X129447278Y-103140341D01*
X129447277Y-103140339D01*
X129396872Y-103041413D01*
X129396869Y-103041410D01*
X129396867Y-103041407D01*
X129318369Y-102962909D01*
X129318365Y-102962906D01*
X129318364Y-102962905D01*
X129297545Y-102952297D01*
X129246749Y-102904324D01*
X129229954Y-102836503D01*
X129252491Y-102770368D01*
X129307206Y-102726916D01*
X129310234Y-102725733D01*
X129320475Y-102721893D01*
X129364002Y-102714003D01*
X130010000Y-102714003D01*
X130077039Y-102733688D01*
X130097680Y-102750321D01*
X131408275Y-104060917D01*
X132713317Y-105365959D01*
X132731983Y-105389872D01*
X132886696Y-105647892D01*
X132891031Y-105653054D01*
X132906553Y-105676496D01*
X132922905Y-105708588D01*
X132986636Y-105772319D01*
X133020121Y-105833642D01*
X133015137Y-105903334D01*
X132986636Y-105947681D01*
X132942909Y-105991407D01*
X132942904Y-105991414D01*
X132892498Y-106090341D01*
X132875131Y-106199997D01*
X132875131Y-106200002D01*
X132892498Y-106309658D01*
X132942904Y-106408585D01*
X132942909Y-106408592D01*
X133021407Y-106487090D01*
X133021410Y-106487092D01*
X133021413Y-106487095D01*
X133120339Y-106537500D01*
X133120341Y-106537501D01*
X133229998Y-106554869D01*
X133230000Y-106554869D01*
X133230002Y-106554869D01*
X133339658Y-106537501D01*
X133339659Y-106537500D01*
X133339661Y-106537500D01*
X133438587Y-106487095D01*
X133517095Y-106408587D01*
X133567500Y-106309661D01*
X133567500Y-106309659D01*
X133567501Y-106309658D01*
X133584869Y-106200002D01*
X133584869Y-106199997D01*
X133567501Y-106090341D01*
X133567500Y-106090339D01*
X133517095Y-105991413D01*
X133517092Y-105991410D01*
X133517090Y-105991407D01*
X133453364Y-105927681D01*
X133419879Y-105866358D01*
X133424863Y-105796666D01*
X133453364Y-105752319D01*
X133497090Y-105708592D01*
X133497095Y-105708587D01*
X133547500Y-105609661D01*
X133547500Y-105609659D01*
X133547501Y-105609658D01*
X133564869Y-105500002D01*
X133564869Y-105499997D01*
X133547501Y-105390341D01*
X133547262Y-105389872D01*
X133497095Y-105291413D01*
X133497092Y-105291410D01*
X133497090Y-105291407D01*
X133418592Y-105212909D01*
X133418588Y-105212906D01*
X133418587Y-105212905D01*
X133417284Y-105212241D01*
X133328115Y-105166806D01*
X133324699Y-105164998D01*
X133320863Y-105162890D01*
X133312341Y-105160122D01*
X133310152Y-105159605D01*
X133164195Y-105113469D01*
X133164191Y-105113468D01*
X133118004Y-105098869D01*
X133060014Y-105059895D01*
X133032301Y-104995756D01*
X133043664Y-104926817D01*
X133090494Y-104874964D01*
X133144107Y-104859818D01*
X133143845Y-104858162D01*
X133263142Y-104839267D01*
X133263143Y-104839266D01*
X133263145Y-104839266D01*
X133362071Y-104788861D01*
X133440579Y-104710353D01*
X133490984Y-104611427D01*
X133490984Y-104611425D01*
X133490985Y-104611424D01*
X133508353Y-104501768D01*
X133508353Y-104501763D01*
X133490985Y-104392106D01*
X133490983Y-104392100D01*
X133490619Y-104391386D01*
X133481735Y-104364633D01*
X133481001Y-104364835D01*
X133479384Y-104358949D01*
X133438211Y-104251600D01*
X133432582Y-104181958D01*
X133465499Y-104120328D01*
X133526511Y-104086277D01*
X133596245Y-104090618D01*
X133610265Y-104096703D01*
X133690335Y-104137500D01*
X133690337Y-104137500D01*
X133690339Y-104137501D01*
X133799994Y-104154869D01*
X133799996Y-104154869D01*
X133799998Y-104154869D01*
X133909654Y-104137501D01*
X133909655Y-104137500D01*
X133909657Y-104137500D01*
X134008583Y-104087095D01*
X134087091Y-104008587D01*
X134137496Y-103909661D01*
X134137496Y-103909659D01*
X134137497Y-103909658D01*
X134154865Y-103800002D01*
X134154865Y-103799997D01*
X134137497Y-103690343D01*
X134137496Y-103690341D01*
X134137496Y-103690339D01*
X134108174Y-103632791D01*
X134095279Y-103564126D01*
X134121555Y-103499385D01*
X134178662Y-103459128D01*
X134218660Y-103452500D01*
X134385908Y-103452500D01*
X134573531Y-103412619D01*
X134657897Y-103375057D01*
X134748761Y-103334602D01*
X134748761Y-103334601D01*
X134748763Y-103334601D01*
X134852117Y-103259509D01*
X134917920Y-103236031D01*
X134985974Y-103251856D01*
X134997870Y-103259500D01*
X135074201Y-103314958D01*
X135101238Y-103334602D01*
X135157516Y-103359658D01*
X135276469Y-103412619D01*
X135328681Y-103423716D01*
X135334280Y-103424907D01*
X135395762Y-103458099D01*
X135429539Y-103519262D01*
X135432500Y-103546197D01*
X135432500Y-107471160D01*
X135412815Y-107538199D01*
X135360011Y-107583954D01*
X135290853Y-107593898D01*
X135227297Y-107564873D01*
X135190569Y-107509478D01*
X135138204Y-107348314D01*
X135138201Y-107348308D01*
X135042295Y-107182193D01*
X135042290Y-107182186D01*
X134913945Y-107039645D01*
X134913943Y-107039643D01*
X134758764Y-106926899D01*
X134758763Y-106926898D01*
X134583530Y-106848880D01*
X134395908Y-106809000D01*
X134204092Y-106809000D01*
X134016469Y-106848880D01*
X134016468Y-106848880D01*
X133841236Y-106926898D01*
X133841235Y-106926899D01*
X133686056Y-107039643D01*
X133686054Y-107039645D01*
X133557709Y-107182186D01*
X133557704Y-107182193D01*
X133461798Y-107348308D01*
X133461795Y-107348314D01*
X133409431Y-107509478D01*
X133402524Y-107530736D01*
X133382474Y-107721500D01*
X133402524Y-107912264D01*
X133402525Y-107912267D01*
X133461795Y-108094685D01*
X133461798Y-108094691D01*
X133557703Y-108260804D01*
X133557707Y-108260809D01*
X133569161Y-108273531D01*
X133599388Y-108336524D01*
X133590761Y-108405859D01*
X133569161Y-108439469D01*
X133557707Y-108452190D01*
X133557703Y-108452195D01*
X133461798Y-108618308D01*
X133461795Y-108618314D01*
X133439538Y-108686818D01*
X133400101Y-108744493D01*
X133335742Y-108771692D01*
X133321607Y-108772500D01*
X132778393Y-108772500D01*
X132711354Y-108752815D01*
X132665599Y-108700011D01*
X132660462Y-108686818D01*
X132638204Y-108618314D01*
X132638201Y-108618308D01*
X132542296Y-108452195D01*
X132542295Y-108452194D01*
X132542294Y-108452192D01*
X132530840Y-108439471D01*
X132500611Y-108376484D01*
X132509234Y-108307148D01*
X132530837Y-108273531D01*
X132542294Y-108260808D01*
X132638202Y-108094691D01*
X132697476Y-107912264D01*
X132717526Y-107721500D01*
X132697476Y-107530736D01*
X132638202Y-107348309D01*
X132542294Y-107182192D01*
X132542290Y-107182186D01*
X132413945Y-107039645D01*
X132413943Y-107039643D01*
X132258764Y-106926899D01*
X132258763Y-106926898D01*
X132083530Y-106848880D01*
X131895908Y-106809000D01*
X131704092Y-106809000D01*
X131516469Y-106848880D01*
X131516468Y-106848880D01*
X131341236Y-106926898D01*
X131341235Y-106926899D01*
X131186056Y-107039643D01*
X131186054Y-107039645D01*
X131057709Y-107182186D01*
X131057704Y-107182193D01*
X130961798Y-107348308D01*
X130961795Y-107348314D01*
X130909431Y-107509478D01*
X130902524Y-107530736D01*
X130882474Y-107721500D01*
X130902524Y-107912264D01*
X130902525Y-107912267D01*
X130961795Y-108094685D01*
X130961798Y-108094691D01*
X131057703Y-108260804D01*
X131057707Y-108260809D01*
X131069161Y-108273531D01*
X131099388Y-108336524D01*
X131090761Y-108405859D01*
X131069161Y-108439469D01*
X131057707Y-108452190D01*
X131057703Y-108452195D01*
X130961798Y-108618308D01*
X130961795Y-108618314D01*
X130939538Y-108686818D01*
X130900101Y-108744493D01*
X130835742Y-108771692D01*
X130821607Y-108772500D01*
X130278393Y-108772500D01*
X130211354Y-108752815D01*
X130165599Y-108700011D01*
X130160462Y-108686818D01*
X130138204Y-108618314D01*
X130138201Y-108618308D01*
X130042296Y-108452195D01*
X130042295Y-108452194D01*
X130042294Y-108452192D01*
X130030840Y-108439471D01*
X130000611Y-108376484D01*
X130009234Y-108307148D01*
X130030837Y-108273531D01*
X130042294Y-108260808D01*
X130138202Y-108094691D01*
X130197476Y-107912264D01*
X130217526Y-107721500D01*
X130197476Y-107530736D01*
X130138202Y-107348309D01*
X130042294Y-107182192D01*
X130042290Y-107182186D01*
X129913945Y-107039645D01*
X129913943Y-107039643D01*
X129758764Y-106926899D01*
X129758763Y-106926898D01*
X129583530Y-106848880D01*
X129395908Y-106809000D01*
X129204092Y-106809000D01*
X129016469Y-106848880D01*
X129016468Y-106848880D01*
X128841236Y-106926898D01*
X128841235Y-106926899D01*
X128686056Y-107039643D01*
X128686054Y-107039645D01*
X128557709Y-107182186D01*
X128557704Y-107182193D01*
X128461798Y-107348308D01*
X128461795Y-107348314D01*
X128409431Y-107509478D01*
X128402524Y-107530736D01*
X128382474Y-107721500D01*
X128402524Y-107912264D01*
X128402525Y-107912267D01*
X128461795Y-108094685D01*
X128461798Y-108094691D01*
X128557703Y-108260804D01*
X128557707Y-108260809D01*
X128569161Y-108273531D01*
X128599388Y-108336524D01*
X128590761Y-108405859D01*
X128569161Y-108439469D01*
X128557707Y-108452190D01*
X128557703Y-108452195D01*
X128461798Y-108618308D01*
X128461795Y-108618314D01*
X128439538Y-108686818D01*
X128400101Y-108744493D01*
X128335742Y-108771692D01*
X128321607Y-108772500D01*
X127785378Y-108772500D01*
X127718339Y-108752815D01*
X127672584Y-108700011D01*
X127667447Y-108686817D01*
X127638203Y-108596811D01*
X127542296Y-108430695D01*
X127542295Y-108430694D01*
X127542294Y-108430692D01*
X127530840Y-108417971D01*
X127500611Y-108354984D01*
X127509234Y-108285648D01*
X127530837Y-108252031D01*
X127542294Y-108239308D01*
X127638202Y-108073191D01*
X127697476Y-107890764D01*
X127717526Y-107700000D01*
X127697476Y-107509236D01*
X127658887Y-107390473D01*
X127638204Y-107326814D01*
X127638201Y-107326808D01*
X127542295Y-107160693D01*
X127542290Y-107160686D01*
X127413945Y-107018145D01*
X127413943Y-107018143D01*
X127258764Y-106905399D01*
X127258763Y-106905398D01*
X127083530Y-106827380D01*
X126895908Y-106787500D01*
X126704092Y-106787500D01*
X126516469Y-106827380D01*
X126516468Y-106827380D01*
X126341236Y-106905398D01*
X126341235Y-106905399D01*
X126186056Y-107018143D01*
X126186054Y-107018145D01*
X126057709Y-107160686D01*
X126057704Y-107160693D01*
X125961798Y-107326808D01*
X125961795Y-107326814D01*
X125902525Y-107509232D01*
X125902524Y-107509236D01*
X125882474Y-107700000D01*
X125902524Y-107890764D01*
X125902525Y-107890767D01*
X125961795Y-108073185D01*
X125961798Y-108073191D01*
X126057703Y-108239304D01*
X126057707Y-108239309D01*
X126069161Y-108252031D01*
X126099388Y-108315024D01*
X126090761Y-108384359D01*
X126069161Y-108417969D01*
X126057707Y-108430690D01*
X126057703Y-108430695D01*
X125961796Y-108596811D01*
X125932553Y-108686817D01*
X125893116Y-108744493D01*
X125828758Y-108771692D01*
X125814622Y-108772500D01*
X125285378Y-108772500D01*
X125218339Y-108752815D01*
X125172584Y-108700011D01*
X125167447Y-108686817D01*
X125138203Y-108596811D01*
X125042296Y-108430695D01*
X125042295Y-108430694D01*
X125042294Y-108430692D01*
X125030840Y-108417971D01*
X125000611Y-108354984D01*
X125009234Y-108285648D01*
X125030837Y-108252031D01*
X125042294Y-108239308D01*
X125138202Y-108073191D01*
X125197476Y-107890764D01*
X125217526Y-107700000D01*
X125197476Y-107509236D01*
X125158887Y-107390473D01*
X125138204Y-107326814D01*
X125138201Y-107326808D01*
X125042295Y-107160693D01*
X125042290Y-107160686D01*
X124913945Y-107018145D01*
X124913943Y-107018143D01*
X124758764Y-106905399D01*
X124758763Y-106905398D01*
X124583530Y-106827380D01*
X124395908Y-106787500D01*
X124204092Y-106787500D01*
X124016469Y-106827380D01*
X124016468Y-106827380D01*
X123841236Y-106905398D01*
X123841235Y-106905399D01*
X123686056Y-107018143D01*
X123686054Y-107018145D01*
X123557709Y-107160686D01*
X123557704Y-107160693D01*
X123461798Y-107326808D01*
X123461795Y-107326814D01*
X123402525Y-107509232D01*
X123402524Y-107509236D01*
X123382474Y-107700000D01*
X123402524Y-107890764D01*
X123402525Y-107890767D01*
X123461795Y-108073185D01*
X123461798Y-108073191D01*
X123557703Y-108239304D01*
X123557707Y-108239309D01*
X123569161Y-108252031D01*
X123599388Y-108315024D01*
X123590761Y-108384359D01*
X123569161Y-108417969D01*
X123557707Y-108430690D01*
X123557703Y-108430695D01*
X123461796Y-108596811D01*
X123432553Y-108686817D01*
X123393116Y-108744493D01*
X123328758Y-108771692D01*
X123314622Y-108772500D01*
X122785378Y-108772500D01*
X122718339Y-108752815D01*
X122672584Y-108700011D01*
X122667447Y-108686817D01*
X122638203Y-108596811D01*
X122542296Y-108430695D01*
X122542295Y-108430694D01*
X122542294Y-108430692D01*
X122530840Y-108417971D01*
X122500611Y-108354984D01*
X122509234Y-108285648D01*
X122530837Y-108252031D01*
X122542294Y-108239308D01*
X122638202Y-108073191D01*
X122697476Y-107890764D01*
X122717526Y-107700000D01*
X122697476Y-107509236D01*
X122658887Y-107390473D01*
X122638204Y-107326814D01*
X122638201Y-107326808D01*
X122542295Y-107160693D01*
X122542290Y-107160686D01*
X122413945Y-107018145D01*
X122413943Y-107018143D01*
X122258764Y-106905399D01*
X122258763Y-106905398D01*
X122083530Y-106827380D01*
X121895908Y-106787500D01*
X121704092Y-106787500D01*
X121516469Y-106827380D01*
X121516468Y-106827380D01*
X121341236Y-106905398D01*
X121341235Y-106905399D01*
X121186056Y-107018143D01*
X121186054Y-107018145D01*
X121057709Y-107160686D01*
X121057704Y-107160693D01*
X120961798Y-107326808D01*
X120961795Y-107326814D01*
X120902525Y-107509232D01*
X120902524Y-107509236D01*
X120882474Y-107700000D01*
X120902524Y-107890764D01*
X120902525Y-107890767D01*
X120961795Y-108073185D01*
X120961798Y-108073191D01*
X121057703Y-108239304D01*
X121057707Y-108239309D01*
X121069161Y-108252031D01*
X121099388Y-108315024D01*
X121090761Y-108384359D01*
X121069161Y-108417969D01*
X121057707Y-108430690D01*
X121057703Y-108430695D01*
X120961796Y-108596811D01*
X120932553Y-108686817D01*
X120893116Y-108744493D01*
X120828758Y-108771692D01*
X120814622Y-108772500D01*
X101304875Y-108772500D01*
X101295146Y-108772118D01*
X101126308Y-108758830D01*
X101107090Y-108755786D01*
X100947167Y-108717392D01*
X100928661Y-108711379D01*
X100776710Y-108648438D01*
X100759376Y-108639606D01*
X100619133Y-108553665D01*
X100603403Y-108542236D01*
X100478338Y-108435421D01*
X100464578Y-108421661D01*
X100432719Y-108384359D01*
X100357760Y-108296592D01*
X100346336Y-108280869D01*
X100260390Y-108140618D01*
X100251561Y-108123289D01*
X100238694Y-108092227D01*
X100188617Y-107971331D01*
X100182609Y-107952839D01*
X100144212Y-107792904D01*
X100141169Y-107773690D01*
X100127882Y-107604852D01*
X100127500Y-107595124D01*
X100127500Y-106649997D01*
X106895131Y-106649997D01*
X106895131Y-106650002D01*
X106912498Y-106759658D01*
X106962904Y-106858585D01*
X106962909Y-106858592D01*
X107041407Y-106937090D01*
X107041410Y-106937092D01*
X107041413Y-106937095D01*
X107076297Y-106954869D01*
X107140341Y-106987501D01*
X107249998Y-107004869D01*
X107250000Y-107004869D01*
X107250002Y-107004869D01*
X107359658Y-106987501D01*
X107359659Y-106987500D01*
X107359661Y-106987500D01*
X107458587Y-106937095D01*
X107537095Y-106858587D01*
X107587500Y-106759661D01*
X107587500Y-106759659D01*
X107587501Y-106759658D01*
X107604869Y-106650002D01*
X107604869Y-106649997D01*
X107895131Y-106649997D01*
X107895131Y-106650002D01*
X107912498Y-106759658D01*
X107962904Y-106858585D01*
X107962909Y-106858592D01*
X108041407Y-106937090D01*
X108041410Y-106937092D01*
X108041413Y-106937095D01*
X108076297Y-106954869D01*
X108140341Y-106987501D01*
X108249998Y-107004869D01*
X108250000Y-107004869D01*
X108250002Y-107004869D01*
X108359658Y-106987501D01*
X108359659Y-106987500D01*
X108359661Y-106987500D01*
X108458587Y-106937095D01*
X108537095Y-106858587D01*
X108587500Y-106759661D01*
X108587500Y-106759659D01*
X108587501Y-106759658D01*
X108604869Y-106650002D01*
X108604869Y-106649997D01*
X108596950Y-106599997D01*
X112045131Y-106599997D01*
X112045131Y-106600002D01*
X112062498Y-106709658D01*
X112112904Y-106808585D01*
X112112909Y-106808592D01*
X112191407Y-106887090D01*
X112191410Y-106887092D01*
X112191413Y-106887095D01*
X112269533Y-106926899D01*
X112290341Y-106937501D01*
X112399998Y-106954869D01*
X112400000Y-106954869D01*
X112400002Y-106954869D01*
X112509658Y-106937501D01*
X112509659Y-106937500D01*
X112509661Y-106937500D01*
X112583265Y-106899997D01*
X114070131Y-106899997D01*
X114070131Y-106900002D01*
X114087498Y-107009658D01*
X114137904Y-107108585D01*
X114137909Y-107108592D01*
X114216407Y-107187090D01*
X114216410Y-107187092D01*
X114216413Y-107187095D01*
X114315339Y-107237500D01*
X114315341Y-107237501D01*
X114424998Y-107254869D01*
X114425000Y-107254869D01*
X114425002Y-107254869D01*
X114534658Y-107237501D01*
X114534659Y-107237500D01*
X114534661Y-107237500D01*
X114633587Y-107187095D01*
X114712095Y-107108587D01*
X114762500Y-107009661D01*
X114762500Y-107009659D01*
X114762501Y-107009658D01*
X114779869Y-106900002D01*
X114779869Y-106899997D01*
X114762501Y-106790341D01*
X114746867Y-106759658D01*
X114712095Y-106691413D01*
X114712092Y-106691410D01*
X114712090Y-106691407D01*
X114633592Y-106612909D01*
X114633588Y-106612906D01*
X114633587Y-106612905D01*
X114608263Y-106600002D01*
X114534658Y-106562498D01*
X114425002Y-106545131D01*
X114424998Y-106545131D01*
X114315341Y-106562498D01*
X114216414Y-106612904D01*
X114216407Y-106612909D01*
X114137909Y-106691407D01*
X114137904Y-106691414D01*
X114087498Y-106790341D01*
X114070131Y-106899997D01*
X112583265Y-106899997D01*
X112608587Y-106887095D01*
X112687095Y-106808587D01*
X112737500Y-106709661D01*
X112737500Y-106709659D01*
X112737501Y-106709658D01*
X112754869Y-106600002D01*
X112754869Y-106599997D01*
X112737501Y-106490341D01*
X112719427Y-106454869D01*
X112687095Y-106391413D01*
X112687092Y-106391410D01*
X112687090Y-106391407D01*
X112608592Y-106312909D01*
X112608588Y-106312906D01*
X112608587Y-106312905D01*
X112600112Y-106308587D01*
X112509658Y-106262498D01*
X112400002Y-106245131D01*
X112399998Y-106245131D01*
X112290341Y-106262498D01*
X112191414Y-106312904D01*
X112191407Y-106312909D01*
X112112909Y-106391407D01*
X112112904Y-106391414D01*
X112062498Y-106490341D01*
X112045131Y-106599997D01*
X108596950Y-106599997D01*
X108587501Y-106540341D01*
X108543951Y-106454869D01*
X108537095Y-106441413D01*
X108537092Y-106441410D01*
X108537090Y-106441407D01*
X108458592Y-106362909D01*
X108458588Y-106362906D01*
X108458587Y-106362905D01*
X108454743Y-106360946D01*
X108359658Y-106312498D01*
X108250002Y-106295131D01*
X108249998Y-106295131D01*
X108140341Y-106312498D01*
X108041414Y-106362904D01*
X108041407Y-106362909D01*
X107962909Y-106441407D01*
X107962904Y-106441414D01*
X107912498Y-106540341D01*
X107895131Y-106649997D01*
X107604869Y-106649997D01*
X107587501Y-106540341D01*
X107543951Y-106454869D01*
X107537095Y-106441413D01*
X107537092Y-106441410D01*
X107537090Y-106441407D01*
X107458592Y-106362909D01*
X107458588Y-106362906D01*
X107458587Y-106362905D01*
X107454743Y-106360946D01*
X107359658Y-106312498D01*
X107250002Y-106295131D01*
X107249998Y-106295131D01*
X107140341Y-106312498D01*
X107041414Y-106362904D01*
X107041407Y-106362909D01*
X106962909Y-106441407D01*
X106962904Y-106441414D01*
X106912498Y-106540341D01*
X106895131Y-106649997D01*
X100127500Y-106649997D01*
X100127500Y-106099997D01*
X126545131Y-106099997D01*
X126545131Y-106100002D01*
X126562498Y-106209658D01*
X126612904Y-106308585D01*
X126612909Y-106308592D01*
X126691407Y-106387090D01*
X126691410Y-106387092D01*
X126691413Y-106387095D01*
X126699890Y-106391414D01*
X126790341Y-106437501D01*
X126899998Y-106454869D01*
X126900000Y-106454869D01*
X126900002Y-106454869D01*
X127009658Y-106437501D01*
X127009659Y-106437500D01*
X127009661Y-106437500D01*
X127108587Y-106387095D01*
X127187095Y-106308587D01*
X127189515Y-106303836D01*
X127237489Y-106253040D01*
X127305310Y-106236245D01*
X127371445Y-106258782D01*
X127410485Y-106303837D01*
X127412904Y-106308585D01*
X127412909Y-106308592D01*
X127491407Y-106387090D01*
X127491410Y-106387092D01*
X127491413Y-106387095D01*
X127499890Y-106391414D01*
X127590341Y-106437501D01*
X127699998Y-106454869D01*
X127700000Y-106454869D01*
X127700002Y-106454869D01*
X127809658Y-106437501D01*
X127809659Y-106437500D01*
X127809661Y-106437500D01*
X127908587Y-106387095D01*
X127987095Y-106308587D01*
X128037500Y-106209661D01*
X128037500Y-106209659D01*
X128037501Y-106209658D01*
X128054869Y-106100002D01*
X128054869Y-106099997D01*
X128037501Y-105990341D01*
X128005574Y-105927681D01*
X127987095Y-105891413D01*
X127987092Y-105891410D01*
X127987090Y-105891407D01*
X127908592Y-105812909D01*
X127908588Y-105812906D01*
X127908587Y-105812905D01*
X127900112Y-105808587D01*
X127809658Y-105762498D01*
X127700002Y-105745131D01*
X127699998Y-105745131D01*
X127590341Y-105762498D01*
X127491414Y-105812904D01*
X127491407Y-105812909D01*
X127412909Y-105891407D01*
X127412903Y-105891415D01*
X127410483Y-105896166D01*
X127362508Y-105946960D01*
X127294686Y-105963754D01*
X127228552Y-105941215D01*
X127189517Y-105896166D01*
X127187096Y-105891415D01*
X127187095Y-105891413D01*
X127187093Y-105891411D01*
X127187090Y-105891407D01*
X127108592Y-105812909D01*
X127108588Y-105812906D01*
X127108587Y-105812905D01*
X127100112Y-105808587D01*
X127009658Y-105762498D01*
X126900002Y-105745131D01*
X126899998Y-105745131D01*
X126790341Y-105762498D01*
X126691414Y-105812904D01*
X126691407Y-105812909D01*
X126612909Y-105891407D01*
X126612904Y-105891414D01*
X126562498Y-105990341D01*
X126545131Y-106099997D01*
X100127500Y-106099997D01*
X100127500Y-105599997D01*
X112375131Y-105599997D01*
X112375131Y-105600002D01*
X112392498Y-105709658D01*
X112442904Y-105808585D01*
X112442909Y-105808592D01*
X112521407Y-105887090D01*
X112521410Y-105887092D01*
X112521413Y-105887095D01*
X112601068Y-105927681D01*
X112620341Y-105937501D01*
X112729998Y-105954869D01*
X112730000Y-105954869D01*
X112730002Y-105954869D01*
X112839658Y-105937501D01*
X112839659Y-105937500D01*
X112839661Y-105937500D01*
X112938587Y-105887095D01*
X113017095Y-105808587D01*
X113067500Y-105709661D01*
X113067500Y-105709659D01*
X113067501Y-105709658D01*
X113084869Y-105600002D01*
X113084869Y-105599997D01*
X113067501Y-105490341D01*
X113057552Y-105470815D01*
X113017095Y-105391413D01*
X113017092Y-105391410D01*
X113017090Y-105391407D01*
X112938592Y-105312909D01*
X112938588Y-105312906D01*
X112938587Y-105312905D01*
X112934743Y-105310946D01*
X112839658Y-105262498D01*
X112730002Y-105245131D01*
X112729998Y-105245131D01*
X112620341Y-105262498D01*
X112521414Y-105312904D01*
X112521407Y-105312909D01*
X112442909Y-105391407D01*
X112442904Y-105391414D01*
X112392498Y-105490341D01*
X112375131Y-105599997D01*
X100127500Y-105599997D01*
X100127500Y-105133311D01*
X111180860Y-105133311D01*
X111180860Y-105133316D01*
X111198227Y-105242972D01*
X111248633Y-105341899D01*
X111248638Y-105341906D01*
X111327136Y-105420404D01*
X111327139Y-105420406D01*
X111327142Y-105420409D01*
X111426068Y-105470814D01*
X111426070Y-105470815D01*
X111535727Y-105488183D01*
X111535729Y-105488183D01*
X111535731Y-105488183D01*
X111645387Y-105470815D01*
X111645388Y-105470814D01*
X111645390Y-105470814D01*
X111744316Y-105420409D01*
X111822824Y-105341901D01*
X111873229Y-105242975D01*
X111873229Y-105242973D01*
X111873230Y-105242972D01*
X111890598Y-105133316D01*
X111890598Y-105133311D01*
X111873230Y-105023655D01*
X111859015Y-104995756D01*
X111822824Y-104924727D01*
X111822821Y-104924724D01*
X111822819Y-104924721D01*
X111744321Y-104846223D01*
X111744317Y-104846220D01*
X111744316Y-104846219D01*
X111730670Y-104839266D01*
X111645387Y-104795812D01*
X111535731Y-104778445D01*
X111535727Y-104778445D01*
X111426070Y-104795812D01*
X111327143Y-104846218D01*
X111327136Y-104846223D01*
X111248638Y-104924721D01*
X111248633Y-104924728D01*
X111198227Y-105023655D01*
X111180860Y-105133311D01*
X100127500Y-105133311D01*
X100127500Y-103884071D01*
X100399499Y-103884071D01*
X100424497Y-104009738D01*
X100424499Y-104009744D01*
X100473533Y-104128124D01*
X100473538Y-104128133D01*
X100544723Y-104234668D01*
X100544726Y-104234672D01*
X100635327Y-104325273D01*
X100635331Y-104325276D01*
X100741866Y-104396461D01*
X100741872Y-104396464D01*
X100741873Y-104396465D01*
X100860256Y-104445501D01*
X100860260Y-104445501D01*
X100860261Y-104445502D01*
X100985928Y-104470500D01*
X100985931Y-104470500D01*
X101714071Y-104470500D01*
X101798615Y-104453682D01*
X101839744Y-104445501D01*
X101958127Y-104396465D01*
X102064669Y-104325276D01*
X102155276Y-104234669D01*
X102226465Y-104128127D01*
X102275501Y-104009744D01*
X102289093Y-103941413D01*
X102300500Y-103884071D01*
X104429499Y-103884071D01*
X104454497Y-104009738D01*
X104454499Y-104009744D01*
X104503533Y-104128124D01*
X104503538Y-104128133D01*
X104574723Y-104234668D01*
X104574726Y-104234672D01*
X104665327Y-104325273D01*
X104665331Y-104325276D01*
X104771866Y-104396461D01*
X104771872Y-104396464D01*
X104771873Y-104396465D01*
X104890256Y-104445501D01*
X104890260Y-104445501D01*
X104890261Y-104445502D01*
X105015928Y-104470500D01*
X105015931Y-104470500D01*
X106044071Y-104470500D01*
X106128615Y-104453682D01*
X106169744Y-104445501D01*
X106288127Y-104396465D01*
X106394669Y-104325276D01*
X106485276Y-104234669D01*
X106541852Y-104149997D01*
X107445131Y-104149997D01*
X107445131Y-104150002D01*
X107462498Y-104259658D01*
X107512904Y-104358585D01*
X107512909Y-104358592D01*
X107591407Y-104437090D01*
X107591410Y-104437092D01*
X107591413Y-104437095D01*
X107660896Y-104472498D01*
X107690341Y-104487501D01*
X107799998Y-104504869D01*
X107800000Y-104504869D01*
X107800002Y-104504869D01*
X107909658Y-104487501D01*
X107909659Y-104487500D01*
X107909661Y-104487500D01*
X108008587Y-104437095D01*
X108045685Y-104399997D01*
X110445131Y-104399997D01*
X110445131Y-104400002D01*
X110462498Y-104509658D01*
X110512904Y-104608585D01*
X110512909Y-104608592D01*
X110591407Y-104687090D01*
X110591410Y-104687092D01*
X110591413Y-104687095D01*
X110690339Y-104737500D01*
X110690341Y-104737501D01*
X110799998Y-104754869D01*
X110800000Y-104754869D01*
X110800002Y-104754869D01*
X110909658Y-104737501D01*
X110909659Y-104737500D01*
X110909661Y-104737500D01*
X111008587Y-104687095D01*
X111087095Y-104608587D01*
X111137500Y-104509661D01*
X111137500Y-104509659D01*
X111137501Y-104509658D01*
X111154869Y-104400002D01*
X111154869Y-104399997D01*
X111137501Y-104290341D01*
X111117981Y-104252031D01*
X111087095Y-104191413D01*
X111087092Y-104191410D01*
X111087090Y-104191407D01*
X111008592Y-104112909D01*
X111008588Y-104112906D01*
X111008587Y-104112905D01*
X110994552Y-104105754D01*
X110909658Y-104062498D01*
X110800002Y-104045131D01*
X110799998Y-104045131D01*
X110690341Y-104062498D01*
X110591414Y-104112904D01*
X110591407Y-104112909D01*
X110512909Y-104191407D01*
X110512904Y-104191414D01*
X110462498Y-104290341D01*
X110445131Y-104399997D01*
X108045685Y-104399997D01*
X108087095Y-104358587D01*
X108137500Y-104259661D01*
X108137500Y-104259659D01*
X108137501Y-104259658D01*
X108154869Y-104150002D01*
X108154869Y-104149997D01*
X108137501Y-104040341D01*
X108129856Y-104025337D01*
X108087095Y-103941413D01*
X108087092Y-103941410D01*
X108087090Y-103941407D01*
X108008592Y-103862909D01*
X108008588Y-103862906D01*
X108008587Y-103862905D01*
X107977858Y-103847248D01*
X107909658Y-103812498D01*
X107800002Y-103795131D01*
X107799998Y-103795131D01*
X107690341Y-103812498D01*
X107591414Y-103862904D01*
X107591407Y-103862909D01*
X107512909Y-103941407D01*
X107512904Y-103941414D01*
X107462498Y-104040341D01*
X107445131Y-104149997D01*
X106541852Y-104149997D01*
X106556465Y-104128127D01*
X106605501Y-104009744D01*
X106619093Y-103941413D01*
X106630500Y-103884071D01*
X106630500Y-103755928D01*
X106605502Y-103630261D01*
X106605501Y-103630260D01*
X106605501Y-103630256D01*
X106556893Y-103512906D01*
X106556466Y-103511875D01*
X106556461Y-103511866D01*
X106485276Y-103405331D01*
X106485273Y-103405327D01*
X106394672Y-103314726D01*
X106394668Y-103314723D01*
X106288133Y-103243538D01*
X106288124Y-103243533D01*
X106169744Y-103194499D01*
X106169738Y-103194497D01*
X106044071Y-103169500D01*
X106044069Y-103169500D01*
X105015931Y-103169500D01*
X105015929Y-103169500D01*
X104890261Y-103194497D01*
X104890255Y-103194499D01*
X104771875Y-103243533D01*
X104771866Y-103243538D01*
X104665331Y-103314723D01*
X104665327Y-103314726D01*
X104574726Y-103405327D01*
X104574723Y-103405331D01*
X104503538Y-103511866D01*
X104503533Y-103511875D01*
X104454499Y-103630255D01*
X104454497Y-103630261D01*
X104429500Y-103755928D01*
X104429500Y-103755931D01*
X104429500Y-103884069D01*
X104429500Y-103884071D01*
X104429499Y-103884071D01*
X102300500Y-103884071D01*
X102300500Y-103755928D01*
X102275502Y-103630261D01*
X102275501Y-103630260D01*
X102275501Y-103630256D01*
X102226893Y-103512906D01*
X102226466Y-103511875D01*
X102226461Y-103511866D01*
X102155276Y-103405331D01*
X102155273Y-103405327D01*
X102064672Y-103314726D01*
X102064668Y-103314723D01*
X101958133Y-103243538D01*
X101958124Y-103243533D01*
X101839744Y-103194499D01*
X101839738Y-103194497D01*
X101714071Y-103169500D01*
X101714069Y-103169500D01*
X100985931Y-103169500D01*
X100985929Y-103169500D01*
X100860261Y-103194497D01*
X100860255Y-103194499D01*
X100741875Y-103243533D01*
X100741866Y-103243538D01*
X100635331Y-103314723D01*
X100635327Y-103314726D01*
X100544726Y-103405327D01*
X100544723Y-103405331D01*
X100473538Y-103511866D01*
X100473533Y-103511875D01*
X100424499Y-103630255D01*
X100424497Y-103630261D01*
X100399500Y-103755928D01*
X100399500Y-103755931D01*
X100399500Y-103884069D01*
X100399500Y-103884071D01*
X100399499Y-103884071D01*
X100127500Y-103884071D01*
X100127500Y-102977455D01*
X109715399Y-102977455D01*
X109715399Y-102977460D01*
X109732766Y-103087116D01*
X109783172Y-103186043D01*
X109783177Y-103186050D01*
X109861675Y-103264548D01*
X109861678Y-103264550D01*
X109861681Y-103264553D01*
X109956576Y-103312904D01*
X109960609Y-103314959D01*
X110070266Y-103332327D01*
X110070268Y-103332327D01*
X110070270Y-103332327D01*
X110179926Y-103314959D01*
X110179927Y-103314958D01*
X110179929Y-103314958D01*
X110278855Y-103264553D01*
X110357363Y-103186045D01*
X110407768Y-103087119D01*
X110407768Y-103087117D01*
X110407769Y-103087116D01*
X110413331Y-103051999D01*
X110443260Y-102988864D01*
X110467077Y-102974032D01*
X110466165Y-102973427D01*
X110603349Y-102973427D01*
X110630666Y-102991539D01*
X110658277Y-103051997D01*
X110662659Y-103079662D01*
X110662659Y-103079663D01*
X110662660Y-103079665D01*
X110701421Y-103155738D01*
X110713064Y-103178589D01*
X110713069Y-103178596D01*
X110791567Y-103257094D01*
X110791570Y-103257096D01*
X110791573Y-103257099D01*
X110853372Y-103288587D01*
X110890501Y-103307505D01*
X111000158Y-103324873D01*
X111000160Y-103324873D01*
X111000162Y-103324873D01*
X111064224Y-103314726D01*
X111109821Y-103307504D01*
X111109824Y-103307502D01*
X111119097Y-103304490D01*
X111120281Y-103308134D01*
X111170308Y-103298661D01*
X111235088Y-103324840D01*
X111275431Y-103381886D01*
X111278529Y-103451687D01*
X111268608Y-103478350D01*
X111262498Y-103490341D01*
X111245131Y-103599997D01*
X111245131Y-103600002D01*
X111262498Y-103709658D01*
X111312904Y-103808585D01*
X111312909Y-103808592D01*
X111391407Y-103887090D01*
X111391410Y-103887092D01*
X111391413Y-103887095D01*
X111470558Y-103927421D01*
X111490341Y-103937501D01*
X111599998Y-103954869D01*
X111600000Y-103954869D01*
X111600002Y-103954869D01*
X111709658Y-103937501D01*
X111709659Y-103937500D01*
X111709661Y-103937500D01*
X111808587Y-103887095D01*
X111887095Y-103808587D01*
X111937500Y-103709661D01*
X111937500Y-103709659D01*
X111937501Y-103709658D01*
X111954869Y-103600002D01*
X111954869Y-103599997D01*
X112245131Y-103599997D01*
X112245131Y-103600002D01*
X112262498Y-103709658D01*
X112312904Y-103808585D01*
X112312909Y-103808592D01*
X112391407Y-103887090D01*
X112391410Y-103887092D01*
X112391413Y-103887095D01*
X112470558Y-103927421D01*
X112490341Y-103937501D01*
X112599998Y-103954869D01*
X112600000Y-103954869D01*
X112600002Y-103954869D01*
X112709658Y-103937501D01*
X112709659Y-103937500D01*
X112709661Y-103937500D01*
X112808587Y-103887095D01*
X112887095Y-103808587D01*
X112937500Y-103709661D01*
X112937500Y-103709659D01*
X112937501Y-103709658D01*
X112954869Y-103600002D01*
X112954869Y-103599997D01*
X112937501Y-103490341D01*
X112934713Y-103484869D01*
X112887095Y-103391413D01*
X112887092Y-103391410D01*
X112887090Y-103391407D01*
X112808592Y-103312909D01*
X112808588Y-103312906D01*
X112808587Y-103312905D01*
X112788804Y-103302825D01*
X112709658Y-103262498D01*
X112600002Y-103245131D01*
X112599998Y-103245131D01*
X112490341Y-103262498D01*
X112391414Y-103312904D01*
X112391407Y-103312909D01*
X112312909Y-103391407D01*
X112312904Y-103391414D01*
X112262498Y-103490341D01*
X112245131Y-103599997D01*
X111954869Y-103599997D01*
X111937501Y-103490341D01*
X111934713Y-103484869D01*
X111887095Y-103391413D01*
X111887092Y-103391410D01*
X111887090Y-103391407D01*
X111808592Y-103312909D01*
X111808588Y-103312906D01*
X111808587Y-103312905D01*
X111788804Y-103302825D01*
X111709658Y-103262498D01*
X111600002Y-103245131D01*
X111599998Y-103245131D01*
X111490340Y-103262499D01*
X111481063Y-103265514D01*
X111479886Y-103261894D01*
X111429640Y-103271321D01*
X111364905Y-103245031D01*
X111324659Y-103187917D01*
X111322239Y-103131189D01*
X113374240Y-103131189D01*
X113374240Y-103131194D01*
X113391607Y-103240850D01*
X113442013Y-103339777D01*
X113442018Y-103339784D01*
X113520516Y-103418282D01*
X113520519Y-103418284D01*
X113520522Y-103418287D01*
X113617109Y-103467500D01*
X113619450Y-103468693D01*
X113729107Y-103486061D01*
X113729109Y-103486061D01*
X113729111Y-103486061D01*
X113838766Y-103468693D01*
X113838767Y-103468692D01*
X113838770Y-103468692D01*
X113925519Y-103424491D01*
X113994184Y-103411595D01*
X114058925Y-103437871D01*
X114099183Y-103494977D01*
X114104285Y-103554372D01*
X114099932Y-103581852D01*
X114098656Y-103589918D01*
X114098655Y-103589922D01*
X114098655Y-103589923D01*
X114116022Y-103699579D01*
X114166428Y-103798506D01*
X114166433Y-103798513D01*
X114244931Y-103877011D01*
X114244934Y-103877013D01*
X114244937Y-103877016D01*
X114301659Y-103905917D01*
X114343865Y-103927422D01*
X114453522Y-103944790D01*
X114453524Y-103944790D01*
X114453526Y-103944790D01*
X114563182Y-103927422D01*
X114563183Y-103927421D01*
X114563185Y-103927421D01*
X114662111Y-103877016D01*
X114740619Y-103798508D01*
X114791024Y-103699582D01*
X114791024Y-103699580D01*
X114791025Y-103699579D01*
X114808393Y-103589923D01*
X114808393Y-103589918D01*
X114791025Y-103480262D01*
X114756559Y-103412619D01*
X114740619Y-103381334D01*
X114740616Y-103381331D01*
X114740614Y-103381328D01*
X114662116Y-103302830D01*
X114662112Y-103302827D01*
X114662111Y-103302826D01*
X114634165Y-103288587D01*
X114563182Y-103252419D01*
X114453526Y-103235052D01*
X114453522Y-103235052D01*
X114343865Y-103252419D01*
X114257115Y-103296621D01*
X114188446Y-103309517D01*
X114123706Y-103283240D01*
X114083449Y-103226134D01*
X114078348Y-103166737D01*
X114083978Y-103131192D01*
X114083978Y-103131189D01*
X114075870Y-103079997D01*
X115245131Y-103079997D01*
X115245131Y-103080002D01*
X115262498Y-103189658D01*
X115312904Y-103288585D01*
X115312909Y-103288592D01*
X115391407Y-103367090D01*
X115391410Y-103367092D01*
X115391413Y-103367095D01*
X115490339Y-103417500D01*
X115544770Y-103426121D01*
X115607903Y-103456049D01*
X115644835Y-103515361D01*
X115643837Y-103585223D01*
X115613053Y-103636275D01*
X115560755Y-103688572D01*
X115560753Y-103688576D01*
X115510347Y-103787503D01*
X115492980Y-103897159D01*
X115492980Y-103897164D01*
X115510347Y-104006820D01*
X115541111Y-104067198D01*
X115560753Y-104105748D01*
X115560758Y-104105754D01*
X115639256Y-104184252D01*
X115639259Y-104184254D01*
X115639262Y-104184257D01*
X115738188Y-104234662D01*
X115738190Y-104234663D01*
X115847847Y-104252031D01*
X115847849Y-104252031D01*
X115847851Y-104252031D01*
X115957507Y-104234663D01*
X115957508Y-104234662D01*
X115957510Y-104234662D01*
X116056436Y-104184257D01*
X116105698Y-104134995D01*
X130180129Y-104134995D01*
X130180129Y-104135000D01*
X130197496Y-104244656D01*
X130247902Y-104343583D01*
X130247907Y-104343590D01*
X130326405Y-104422088D01*
X130326408Y-104422090D01*
X130326411Y-104422093D01*
X130421416Y-104470500D01*
X130425339Y-104472499D01*
X130534996Y-104489867D01*
X130534998Y-104489867D01*
X130535000Y-104489867D01*
X130644656Y-104472499D01*
X130644657Y-104472498D01*
X130644659Y-104472498D01*
X130743585Y-104422093D01*
X130822093Y-104343585D01*
X130872498Y-104244659D01*
X130872498Y-104244657D01*
X130872499Y-104244656D01*
X130889867Y-104135000D01*
X130889867Y-104134995D01*
X130872499Y-104025339D01*
X130863966Y-104008592D01*
X130822093Y-103926411D01*
X130822090Y-103926408D01*
X130822088Y-103926405D01*
X130743590Y-103847907D01*
X130743586Y-103847904D01*
X130743585Y-103847903D01*
X130739741Y-103845944D01*
X130644656Y-103797496D01*
X130535000Y-103780129D01*
X130534996Y-103780129D01*
X130425339Y-103797496D01*
X130326412Y-103847902D01*
X130326405Y-103847907D01*
X130247907Y-103926405D01*
X130247902Y-103926412D01*
X130197496Y-104025339D01*
X130180129Y-104134995D01*
X116105698Y-104134995D01*
X116134944Y-104105749D01*
X116150497Y-104075223D01*
X116198468Y-104024429D01*
X116266289Y-104007632D01*
X116300381Y-104016590D01*
X116301065Y-104014486D01*
X116310339Y-104017499D01*
X116310341Y-104017500D01*
X116346894Y-104023289D01*
X116420000Y-104034869D01*
X116420002Y-104034869D01*
X116420004Y-104034869D01*
X116529660Y-104017501D01*
X116529661Y-104017500D01*
X116529663Y-104017500D01*
X116628589Y-103967095D01*
X116707097Y-103888587D01*
X116709465Y-103883938D01*
X116757436Y-103833143D01*
X116825256Y-103816346D01*
X116876244Y-103829747D01*
X116950341Y-103867501D01*
X117059998Y-103884869D01*
X117060000Y-103884869D01*
X117060002Y-103884869D01*
X117169656Y-103867501D01*
X117169656Y-103867500D01*
X117169661Y-103867500D01*
X117235669Y-103833867D01*
X117304334Y-103820972D01*
X117369074Y-103847248D01*
X117402444Y-103888056D01*
X117412905Y-103908587D01*
X117412909Y-103908592D01*
X117491407Y-103987090D01*
X117491410Y-103987092D01*
X117491413Y-103987095D01*
X117549301Y-104016590D01*
X117590341Y-104037501D01*
X117699998Y-104054869D01*
X117700000Y-104054869D01*
X117700002Y-104054869D01*
X117809658Y-104037501D01*
X117809659Y-104037500D01*
X117809661Y-104037500D01*
X117908587Y-103987095D01*
X117987095Y-103908587D01*
X118037500Y-103809661D01*
X118037500Y-103809659D01*
X118037501Y-103809658D01*
X118054869Y-103700002D01*
X118054869Y-103699997D01*
X118037501Y-103590341D01*
X118034893Y-103585223D01*
X117987095Y-103491413D01*
X117987092Y-103491410D01*
X117987090Y-103491407D01*
X117920484Y-103424801D01*
X117886999Y-103363478D01*
X117891983Y-103293786D01*
X117913236Y-103265396D01*
X118391631Y-103265396D01*
X118391631Y-103265401D01*
X118408998Y-103375057D01*
X118459404Y-103473984D01*
X118459409Y-103473991D01*
X118537907Y-103552489D01*
X118537910Y-103552491D01*
X118537913Y-103552494D01*
X118631149Y-103600000D01*
X118636841Y-103602900D01*
X118746498Y-103620268D01*
X118746500Y-103620268D01*
X118746502Y-103620268D01*
X118856158Y-103602900D01*
X118856159Y-103602899D01*
X118856161Y-103602899D01*
X118955087Y-103552494D01*
X119033595Y-103473986D01*
X119084000Y-103375060D01*
X119084000Y-103375058D01*
X119084001Y-103375057D01*
X119101369Y-103265401D01*
X119101369Y-103265396D01*
X119084001Y-103155740D01*
X119070884Y-103129997D01*
X119585131Y-103129997D01*
X119585131Y-103130002D01*
X119602498Y-103239658D01*
X119652904Y-103338585D01*
X119652909Y-103338592D01*
X119731407Y-103417090D01*
X119731410Y-103417092D01*
X119731413Y-103417095D01*
X119812842Y-103458585D01*
X119830341Y-103467501D01*
X119939998Y-103484869D01*
X119940000Y-103484869D01*
X119940002Y-103484869D01*
X120049658Y-103467501D01*
X120049659Y-103467500D01*
X120049661Y-103467500D01*
X120148587Y-103417095D01*
X120227095Y-103338587D01*
X120277500Y-103239661D01*
X120277500Y-103239659D01*
X120277501Y-103239658D01*
X120294869Y-103130002D01*
X120294869Y-103129997D01*
X120277501Y-103020341D01*
X120277500Y-103020339D01*
X120227095Y-102921413D01*
X120227092Y-102921410D01*
X120227090Y-102921407D01*
X120148592Y-102842909D01*
X120148588Y-102842906D01*
X120148587Y-102842905D01*
X120116251Y-102826429D01*
X120049658Y-102792498D01*
X119940002Y-102775131D01*
X119939998Y-102775131D01*
X119830341Y-102792498D01*
X119731414Y-102842904D01*
X119731407Y-102842909D01*
X119652909Y-102921407D01*
X119652904Y-102921414D01*
X119602498Y-103020341D01*
X119585131Y-103129997D01*
X119070884Y-103129997D01*
X119033595Y-103056812D01*
X119033592Y-103056809D01*
X119033590Y-103056806D01*
X118955092Y-102978308D01*
X118955088Y-102978305D01*
X118955087Y-102978304D01*
X118938791Y-102970001D01*
X118856158Y-102927897D01*
X118746502Y-102910530D01*
X118746498Y-102910530D01*
X118636841Y-102927897D01*
X118537914Y-102978303D01*
X118537907Y-102978308D01*
X118459409Y-103056806D01*
X118459404Y-103056813D01*
X118408998Y-103155740D01*
X118391631Y-103265396D01*
X117913236Y-103265396D01*
X117933855Y-103237853D01*
X117951867Y-103226638D01*
X117955087Y-103224998D01*
X118033595Y-103146490D01*
X118084000Y-103047564D01*
X118084000Y-103047562D01*
X118084001Y-103047561D01*
X118101369Y-102937905D01*
X118101369Y-102937900D01*
X118084001Y-102828244D01*
X118074964Y-102810507D01*
X118033595Y-102729316D01*
X118033592Y-102729313D01*
X118033590Y-102729310D01*
X117955092Y-102650812D01*
X117955088Y-102650809D01*
X117955087Y-102650808D01*
X117919163Y-102632504D01*
X117856158Y-102600401D01*
X117746502Y-102583034D01*
X117746498Y-102583034D01*
X117636841Y-102600401D01*
X117537914Y-102650807D01*
X117537907Y-102650812D01*
X117459409Y-102729310D01*
X117459404Y-102729317D01*
X117408998Y-102828244D01*
X117391631Y-102937900D01*
X117391631Y-102937905D01*
X117408998Y-103047559D01*
X117408999Y-103047562D01*
X117409000Y-103047564D01*
X117419411Y-103067997D01*
X117432307Y-103136664D01*
X117406031Y-103201405D01*
X117348924Y-103241662D01*
X117279119Y-103244654D01*
X117252632Y-103234775D01*
X117169658Y-103192498D01*
X117060002Y-103175131D01*
X117059998Y-103175131D01*
X116950341Y-103192498D01*
X116851414Y-103242904D01*
X116851407Y-103242909D01*
X116772909Y-103321407D01*
X116772904Y-103321414D01*
X116770533Y-103326068D01*
X116722556Y-103376861D01*
X116654734Y-103393653D01*
X116603757Y-103380252D01*
X116529660Y-103342498D01*
X116420004Y-103325131D01*
X116420000Y-103325131D01*
X116310343Y-103342498D01*
X116211416Y-103392904D01*
X116211409Y-103392909D01*
X116132911Y-103471407D01*
X116132906Y-103471414D01*
X116117353Y-103501939D01*
X116069379Y-103552734D01*
X116001557Y-103569529D01*
X115967468Y-103560574D01*
X115966786Y-103562676D01*
X115957507Y-103559660D01*
X115903079Y-103551040D01*
X115839944Y-103521110D01*
X115803013Y-103461799D01*
X115804011Y-103391936D01*
X115834794Y-103340887D01*
X115887095Y-103288587D01*
X115937500Y-103189661D01*
X115937500Y-103189659D01*
X115937501Y-103189658D01*
X115954869Y-103080002D01*
X115954869Y-103079997D01*
X115937501Y-102970341D01*
X115920973Y-102937903D01*
X115887095Y-102871413D01*
X115887092Y-102871410D01*
X115887090Y-102871407D01*
X115808592Y-102792909D01*
X115808588Y-102792906D01*
X115808587Y-102792905D01*
X115776043Y-102776323D01*
X115709658Y-102742498D01*
X115600002Y-102725131D01*
X115599998Y-102725131D01*
X115490341Y-102742498D01*
X115391414Y-102792904D01*
X115391407Y-102792909D01*
X115312909Y-102871407D01*
X115312904Y-102871414D01*
X115262498Y-102970341D01*
X115245131Y-103079997D01*
X114075870Y-103079997D01*
X114066610Y-103021533D01*
X114042099Y-102973427D01*
X114016204Y-102922605D01*
X114016201Y-102922602D01*
X114016199Y-102922599D01*
X113937701Y-102844101D01*
X113937697Y-102844098D01*
X113937696Y-102844097D01*
X113929192Y-102839764D01*
X113838767Y-102793690D01*
X113729111Y-102776323D01*
X113729107Y-102776323D01*
X113619450Y-102793690D01*
X113520523Y-102844096D01*
X113520516Y-102844101D01*
X113442018Y-102922599D01*
X113442013Y-102922606D01*
X113391607Y-103021533D01*
X113374240Y-103131189D01*
X111322239Y-103131189D01*
X111321681Y-103118110D01*
X111331551Y-103091653D01*
X111337660Y-103079665D01*
X111337717Y-103079306D01*
X111355029Y-102970006D01*
X111355029Y-102970001D01*
X111337661Y-102860345D01*
X111328774Y-102842904D01*
X111287255Y-102761417D01*
X111287252Y-102761414D01*
X111287250Y-102761411D01*
X111208752Y-102682913D01*
X111208748Y-102682910D01*
X111208747Y-102682909D01*
X111163854Y-102660035D01*
X111109818Y-102632502D01*
X111000162Y-102615135D01*
X111000158Y-102615135D01*
X110890501Y-102632502D01*
X110791574Y-102682908D01*
X110791567Y-102682913D01*
X110713069Y-102761411D01*
X110713064Y-102761418D01*
X110662659Y-102860345D01*
X110657096Y-102895465D01*
X110627165Y-102958599D01*
X110603349Y-102973427D01*
X110466165Y-102973427D01*
X110439759Y-102955919D01*
X110412149Y-102895463D01*
X110407768Y-102867797D01*
X110357363Y-102768871D01*
X110357360Y-102768868D01*
X110357358Y-102768865D01*
X110278860Y-102690367D01*
X110278856Y-102690364D01*
X110278855Y-102690363D01*
X110275011Y-102688404D01*
X110179926Y-102639956D01*
X110070270Y-102622589D01*
X110070266Y-102622589D01*
X109960609Y-102639956D01*
X109861682Y-102690362D01*
X109861675Y-102690367D01*
X109783177Y-102768865D01*
X109783172Y-102768872D01*
X109732766Y-102867799D01*
X109715399Y-102977455D01*
X100127500Y-102977455D01*
X100127500Y-102320817D01*
X104474500Y-102320817D01*
X104474500Y-102459183D01*
X104500003Y-102554360D01*
X104510312Y-102592835D01*
X104510313Y-102592838D01*
X104579492Y-102712661D01*
X104579494Y-102712664D01*
X104579495Y-102712665D01*
X104677335Y-102810505D01*
X104677336Y-102810506D01*
X104677338Y-102810507D01*
X104708060Y-102828244D01*
X104797164Y-102879688D01*
X104930817Y-102915500D01*
X104930819Y-102915500D01*
X105069181Y-102915500D01*
X105069183Y-102915500D01*
X105202836Y-102879688D01*
X105322665Y-102810505D01*
X105420505Y-102712665D01*
X105489688Y-102592836D01*
X105525500Y-102459183D01*
X105525500Y-102320817D01*
X105489688Y-102187164D01*
X105443519Y-102107197D01*
X105420507Y-102067338D01*
X105420503Y-102067333D01*
X105353167Y-101999997D01*
X106845131Y-101999997D01*
X106845131Y-102000002D01*
X106862498Y-102109658D01*
X106912904Y-102208585D01*
X106912909Y-102208592D01*
X106991407Y-102287090D01*
X106991410Y-102287092D01*
X106991413Y-102287095D01*
X107062309Y-102323218D01*
X107090341Y-102337501D01*
X107199998Y-102354869D01*
X107200000Y-102354869D01*
X107200002Y-102354869D01*
X107309658Y-102337501D01*
X107309659Y-102337500D01*
X107309661Y-102337500D01*
X107408587Y-102287095D01*
X107487095Y-102208587D01*
X107537500Y-102109661D01*
X107537500Y-102109659D01*
X107537501Y-102109658D01*
X107554869Y-102000002D01*
X107554869Y-101999997D01*
X107537501Y-101890341D01*
X107537500Y-101890339D01*
X107487095Y-101791413D01*
X107487092Y-101791410D01*
X107487090Y-101791407D01*
X107408592Y-101712909D01*
X107408588Y-101712906D01*
X107408587Y-101712905D01*
X107360964Y-101688640D01*
X107309658Y-101662498D01*
X107200002Y-101645131D01*
X107199998Y-101645131D01*
X107090341Y-101662498D01*
X106991414Y-101712904D01*
X106991407Y-101712909D01*
X106912909Y-101791407D01*
X106912904Y-101791414D01*
X106862498Y-101890341D01*
X106845131Y-101999997D01*
X105353167Y-101999997D01*
X105322666Y-101969496D01*
X105322661Y-101969492D01*
X105202838Y-101900313D01*
X105202837Y-101900312D01*
X105202836Y-101900312D01*
X105069183Y-101864500D01*
X104930817Y-101864500D01*
X104797164Y-101900312D01*
X104797161Y-101900313D01*
X104677338Y-101969492D01*
X104677333Y-101969496D01*
X104579496Y-102067333D01*
X104579492Y-102067338D01*
X104510313Y-102187161D01*
X104510312Y-102187164D01*
X104474500Y-102320817D01*
X100127500Y-102320817D01*
X100127500Y-98799983D01*
X104845131Y-98799983D01*
X104845131Y-98799988D01*
X104862498Y-98909644D01*
X104912904Y-99008571D01*
X104912909Y-99008578D01*
X104991407Y-99087076D01*
X104991409Y-99087077D01*
X104991413Y-99087081D01*
X105090339Y-99137486D01*
X105094308Y-99139508D01*
X105145104Y-99187483D01*
X105161899Y-99255304D01*
X105139362Y-99321438D01*
X105094308Y-99360478D01*
X105090339Y-99362499D01*
X105090339Y-99362500D01*
X104991413Y-99412905D01*
X104991412Y-99412906D01*
X104991407Y-99412909D01*
X104912909Y-99491407D01*
X104912904Y-99491414D01*
X104862498Y-99590341D01*
X104845131Y-99699997D01*
X104845131Y-99700002D01*
X104862498Y-99809658D01*
X104912904Y-99908585D01*
X104912909Y-99908592D01*
X104991407Y-99987090D01*
X104991410Y-99987092D01*
X104991413Y-99987095D01*
X105070095Y-100027185D01*
X105090341Y-100037501D01*
X105199998Y-100054869D01*
X105200000Y-100054869D01*
X105200002Y-100054869D01*
X105309658Y-100037501D01*
X105309659Y-100037500D01*
X105309661Y-100037500D01*
X105408587Y-99987095D01*
X105487095Y-99908587D01*
X105537500Y-99809661D01*
X105537500Y-99809659D01*
X105537501Y-99809658D01*
X105554869Y-99700002D01*
X105554869Y-99699997D01*
X105537501Y-99590341D01*
X105521947Y-99559815D01*
X105487095Y-99491413D01*
X105487092Y-99491410D01*
X105487090Y-99491407D01*
X105408592Y-99412909D01*
X105408588Y-99412906D01*
X105408587Y-99412905D01*
X105309661Y-99362500D01*
X105309660Y-99362499D01*
X105305692Y-99360478D01*
X105254895Y-99312504D01*
X105238100Y-99244683D01*
X105260637Y-99178548D01*
X105305692Y-99139508D01*
X105309660Y-99137486D01*
X105309661Y-99137486D01*
X105408587Y-99087081D01*
X105487095Y-99008573D01*
X105537500Y-98909647D01*
X105537500Y-98909645D01*
X105537501Y-98909644D01*
X105554869Y-98799988D01*
X105554869Y-98799983D01*
X105537501Y-98690327D01*
X105516310Y-98648737D01*
X105487095Y-98591399D01*
X105487092Y-98591396D01*
X105487090Y-98591393D01*
X105408592Y-98512895D01*
X105408588Y-98512892D01*
X105408587Y-98512891D01*
X105364326Y-98490339D01*
X105309658Y-98462484D01*
X105200002Y-98445117D01*
X105199998Y-98445117D01*
X105090341Y-98462484D01*
X104991414Y-98512890D01*
X104991407Y-98512895D01*
X104912909Y-98591393D01*
X104912904Y-98591400D01*
X104862498Y-98690327D01*
X104845131Y-98799983D01*
X100127500Y-98799983D01*
X100127500Y-97549981D01*
X110145131Y-97549981D01*
X110145131Y-97549986D01*
X110162498Y-97659642D01*
X110212904Y-97758569D01*
X110212909Y-97758576D01*
X110291407Y-97837074D01*
X110291410Y-97837076D01*
X110291413Y-97837079D01*
X110389566Y-97887090D01*
X110390341Y-97887485D01*
X110499998Y-97904853D01*
X110499999Y-97904853D01*
X110499999Y-97904852D01*
X110500000Y-97904853D01*
X110546504Y-97897487D01*
X110615796Y-97906441D01*
X110669249Y-97951436D01*
X110682820Y-97986292D01*
X110684483Y-97985752D01*
X110687499Y-97995034D01*
X110737905Y-98093962D01*
X110737910Y-98093969D01*
X110816408Y-98172467D01*
X110816411Y-98172469D01*
X110816414Y-98172472D01*
X110870445Y-98200002D01*
X110915342Y-98222878D01*
X111024999Y-98240246D01*
X111025001Y-98240246D01*
X111025003Y-98240246D01*
X111134659Y-98222878D01*
X111134660Y-98222877D01*
X111134662Y-98222877D01*
X111233588Y-98172472D01*
X111312096Y-98093964D01*
X111362501Y-97995038D01*
X111362501Y-97995036D01*
X111362502Y-97995035D01*
X111379870Y-97885379D01*
X111379870Y-97885374D01*
X111362502Y-97775718D01*
X111346822Y-97744944D01*
X111312096Y-97676790D01*
X111312093Y-97676787D01*
X111312091Y-97676784D01*
X111233593Y-97598286D01*
X111233589Y-97598283D01*
X111233588Y-97598282D01*
X111192801Y-97577500D01*
X111134659Y-97547875D01*
X111025003Y-97530508D01*
X111024998Y-97530508D01*
X110978495Y-97537873D01*
X110909202Y-97528918D01*
X110855750Y-97483922D01*
X110842183Y-97449067D01*
X110840518Y-97449609D01*
X110837501Y-97440326D01*
X110837500Y-97440324D01*
X110837500Y-97440323D01*
X110787095Y-97341397D01*
X110787092Y-97341394D01*
X110787090Y-97341391D01*
X110708592Y-97262893D01*
X110708588Y-97262890D01*
X110708587Y-97262889D01*
X110704743Y-97260930D01*
X110663659Y-97239997D01*
X113415131Y-97239997D01*
X113415131Y-97240002D01*
X113432498Y-97349658D01*
X113482904Y-97448585D01*
X113482909Y-97448592D01*
X113561407Y-97527090D01*
X113561410Y-97527092D01*
X113561413Y-97527095D01*
X113660339Y-97577500D01*
X113660341Y-97577501D01*
X113769998Y-97594869D01*
X113770000Y-97594869D01*
X113770002Y-97594869D01*
X113879658Y-97577501D01*
X113879659Y-97577500D01*
X113879661Y-97577500D01*
X113978587Y-97527095D01*
X114057095Y-97448587D01*
X114107500Y-97349661D01*
X114107500Y-97349659D01*
X114107501Y-97349658D01*
X114124869Y-97240002D01*
X114124869Y-97239997D01*
X114107501Y-97130341D01*
X114097851Y-97111402D01*
X114057095Y-97031413D01*
X114057092Y-97031410D01*
X114057090Y-97031407D01*
X113978592Y-96952909D01*
X113978588Y-96952906D01*
X113978587Y-96952905D01*
X113947548Y-96937090D01*
X113879658Y-96902498D01*
X113770002Y-96885131D01*
X113769998Y-96885131D01*
X113660341Y-96902498D01*
X113561414Y-96952904D01*
X113561407Y-96952909D01*
X113482909Y-97031407D01*
X113482904Y-97031414D01*
X113432498Y-97130341D01*
X113415131Y-97239997D01*
X110663659Y-97239997D01*
X110609658Y-97212482D01*
X110500002Y-97195115D01*
X110499998Y-97195115D01*
X110390341Y-97212482D01*
X110291414Y-97262888D01*
X110291407Y-97262893D01*
X110212909Y-97341391D01*
X110212904Y-97341398D01*
X110162498Y-97440325D01*
X110145131Y-97549981D01*
X100127500Y-97549981D01*
X100127500Y-96540817D01*
X104474500Y-96540817D01*
X104474500Y-96679183D01*
X104508883Y-96807501D01*
X104510312Y-96812835D01*
X104510313Y-96812838D01*
X104579492Y-96932661D01*
X104579494Y-96932664D01*
X104579495Y-96932665D01*
X104677335Y-97030505D01*
X104677336Y-97030506D01*
X104677338Y-97030507D01*
X104726510Y-97058896D01*
X104797164Y-97099688D01*
X104930817Y-97135500D01*
X104930819Y-97135500D01*
X105069181Y-97135500D01*
X105069183Y-97135500D01*
X105202836Y-97099688D01*
X105322665Y-97030505D01*
X105420505Y-96932665D01*
X105489688Y-96812836D01*
X105525500Y-96679183D01*
X105525500Y-96549997D01*
X108645131Y-96549997D01*
X108645131Y-96550002D01*
X108662498Y-96659658D01*
X108712904Y-96758585D01*
X108712909Y-96758592D01*
X108791407Y-96837090D01*
X108791410Y-96837092D01*
X108791413Y-96837095D01*
X108873845Y-96879096D01*
X108890341Y-96887501D01*
X108999998Y-96904869D01*
X109000000Y-96904869D01*
X109000002Y-96904869D01*
X109109658Y-96887501D01*
X109109659Y-96887500D01*
X109109661Y-96887500D01*
X109208587Y-96837095D01*
X109287095Y-96758587D01*
X109337500Y-96659661D01*
X109337500Y-96659659D01*
X109337501Y-96659658D01*
X109354869Y-96550002D01*
X109354869Y-96549997D01*
X109342198Y-96469997D01*
X110650335Y-96469997D01*
X110650335Y-96470002D01*
X110667702Y-96579658D01*
X110718108Y-96678585D01*
X110718113Y-96678592D01*
X110796611Y-96757090D01*
X110796614Y-96757092D01*
X110796617Y-96757095D01*
X110870341Y-96794659D01*
X110895545Y-96807501D01*
X111005202Y-96824869D01*
X111005204Y-96824869D01*
X111005206Y-96824869D01*
X111114862Y-96807501D01*
X111114863Y-96807500D01*
X111114865Y-96807500D01*
X111213791Y-96757095D01*
X111292299Y-96678587D01*
X111342704Y-96579661D01*
X111342704Y-96579659D01*
X111342705Y-96579658D01*
X111360073Y-96470002D01*
X111360073Y-96469997D01*
X111342705Y-96360341D01*
X111311702Y-96299494D01*
X111292299Y-96261413D01*
X111292296Y-96261410D01*
X111292294Y-96261407D01*
X111213796Y-96182909D01*
X111213792Y-96182906D01*
X111213791Y-96182905D01*
X111197050Y-96174375D01*
X111114862Y-96132498D01*
X111005206Y-96115131D01*
X111005202Y-96115131D01*
X110895545Y-96132498D01*
X110796618Y-96182904D01*
X110796611Y-96182909D01*
X110718113Y-96261407D01*
X110718108Y-96261414D01*
X110667702Y-96360341D01*
X110650335Y-96469997D01*
X109342198Y-96469997D01*
X109337501Y-96440341D01*
X109335446Y-96436307D01*
X109287095Y-96341413D01*
X109287092Y-96341410D01*
X109287090Y-96341407D01*
X109208592Y-96262909D01*
X109208588Y-96262906D01*
X109208587Y-96262905D01*
X109192815Y-96254869D01*
X109109658Y-96212498D01*
X109000002Y-96195131D01*
X108999998Y-96195131D01*
X108890341Y-96212498D01*
X108791414Y-96262904D01*
X108791407Y-96262909D01*
X108712909Y-96341407D01*
X108712904Y-96341414D01*
X108662498Y-96440341D01*
X108645131Y-96549997D01*
X105525500Y-96549997D01*
X105525500Y-96540817D01*
X105489688Y-96407164D01*
X105433397Y-96309665D01*
X105420507Y-96287338D01*
X105420503Y-96287333D01*
X105322666Y-96189496D01*
X105322661Y-96189492D01*
X105202838Y-96120313D01*
X105202837Y-96120312D01*
X105202836Y-96120312D01*
X105069183Y-96084500D01*
X104930817Y-96084500D01*
X104797164Y-96120312D01*
X104797161Y-96120313D01*
X104677338Y-96189492D01*
X104677333Y-96189496D01*
X104579496Y-96287333D01*
X104579492Y-96287338D01*
X104510313Y-96407161D01*
X104510312Y-96407164D01*
X104474500Y-96540817D01*
X100127500Y-96540817D01*
X100127500Y-95837741D01*
X114962875Y-95837741D01*
X114962875Y-95837746D01*
X114980242Y-95947402D01*
X115030648Y-96046329D01*
X115030653Y-96046336D01*
X115109151Y-96124834D01*
X115109154Y-96124836D01*
X115109157Y-96124839D01*
X115208083Y-96175244D01*
X115208085Y-96175245D01*
X115317742Y-96192613D01*
X115317744Y-96192613D01*
X115317746Y-96192613D01*
X115427402Y-96175245D01*
X115427403Y-96175244D01*
X115427405Y-96175244D01*
X115526331Y-96124839D01*
X115604839Y-96046331D01*
X115655244Y-95947405D01*
X115655244Y-95947403D01*
X115655245Y-95947402D01*
X115672613Y-95837746D01*
X115672613Y-95837741D01*
X115655245Y-95728085D01*
X115628802Y-95676187D01*
X115615906Y-95607518D01*
X115642183Y-95542777D01*
X115699290Y-95502521D01*
X115769095Y-95499529D01*
X115795569Y-95509403D01*
X115870339Y-95547500D01*
X115870341Y-95547500D01*
X115870343Y-95547501D01*
X115979998Y-95564869D01*
X115980000Y-95564869D01*
X115980002Y-95564869D01*
X116089658Y-95547501D01*
X116089659Y-95547500D01*
X116089661Y-95547500D01*
X116188587Y-95497095D01*
X116267095Y-95418587D01*
X116317500Y-95319661D01*
X116317500Y-95319659D01*
X116317501Y-95319658D01*
X116334869Y-95210002D01*
X116334869Y-95209997D01*
X116317501Y-95100341D01*
X116289370Y-95045131D01*
X116267095Y-95001413D01*
X116267092Y-95001410D01*
X116267090Y-95001407D01*
X116188592Y-94922909D01*
X116188588Y-94922906D01*
X116188587Y-94922905D01*
X116162588Y-94909658D01*
X116089658Y-94872498D01*
X115980002Y-94855131D01*
X115979998Y-94855131D01*
X115870341Y-94872498D01*
X115771414Y-94922904D01*
X115771407Y-94922909D01*
X115692909Y-95001407D01*
X115692904Y-95001414D01*
X115642498Y-95100341D01*
X115625131Y-95209997D01*
X115625131Y-95210002D01*
X115642498Y-95319657D01*
X115668942Y-95371557D01*
X115681837Y-95440226D01*
X115655559Y-95504966D01*
X115598452Y-95545222D01*
X115528647Y-95548214D01*
X115502169Y-95538338D01*
X115427405Y-95500244D01*
X115427403Y-95500243D01*
X115427400Y-95500242D01*
X115317746Y-95482875D01*
X115317742Y-95482875D01*
X115208085Y-95500242D01*
X115109158Y-95550648D01*
X115109151Y-95550653D01*
X115030653Y-95629151D01*
X115030648Y-95629158D01*
X114980242Y-95728085D01*
X114962875Y-95837741D01*
X100127500Y-95837741D01*
X100127500Y-95244071D01*
X100399499Y-95244071D01*
X100424497Y-95369738D01*
X100424499Y-95369744D01*
X100473533Y-95488124D01*
X100473538Y-95488133D01*
X100544723Y-95594668D01*
X100544726Y-95594672D01*
X100635327Y-95685273D01*
X100635331Y-95685276D01*
X100741866Y-95756461D01*
X100741872Y-95756464D01*
X100741873Y-95756465D01*
X100860256Y-95805501D01*
X100860260Y-95805501D01*
X100860261Y-95805502D01*
X100985928Y-95830500D01*
X100985931Y-95830500D01*
X101714071Y-95830500D01*
X101798615Y-95813682D01*
X101839744Y-95805501D01*
X101958127Y-95756465D01*
X102064669Y-95685276D01*
X102155276Y-95594669D01*
X102226465Y-95488127D01*
X102275501Y-95369744D01*
X102287717Y-95308331D01*
X102300500Y-95244071D01*
X104429499Y-95244071D01*
X104454497Y-95369738D01*
X104454499Y-95369744D01*
X104503533Y-95488124D01*
X104503538Y-95488133D01*
X104574723Y-95594668D01*
X104574726Y-95594672D01*
X104665327Y-95685273D01*
X104665331Y-95685276D01*
X104771866Y-95756461D01*
X104771872Y-95756464D01*
X104771873Y-95756465D01*
X104890256Y-95805501D01*
X104890260Y-95805501D01*
X104890261Y-95805502D01*
X105015928Y-95830500D01*
X105015931Y-95830500D01*
X106044071Y-95830500D01*
X106128615Y-95813682D01*
X106169744Y-95805501D01*
X106288127Y-95756465D01*
X106394669Y-95685276D01*
X106485276Y-95594669D01*
X106556465Y-95488127D01*
X106592970Y-95399997D01*
X111245131Y-95399997D01*
X111245131Y-95400002D01*
X111262498Y-95509658D01*
X111312904Y-95608585D01*
X111312909Y-95608592D01*
X111391407Y-95687090D01*
X111391410Y-95687092D01*
X111391413Y-95687095D01*
X111455993Y-95720000D01*
X111490341Y-95737501D01*
X111599998Y-95754869D01*
X111600000Y-95754869D01*
X111600002Y-95754869D01*
X111709658Y-95737501D01*
X111709659Y-95737500D01*
X111709661Y-95737500D01*
X111808587Y-95687095D01*
X111887095Y-95608587D01*
X111937500Y-95509661D01*
X111937500Y-95509659D01*
X111937501Y-95509658D01*
X111954869Y-95400002D01*
X111954869Y-95399997D01*
X111937501Y-95290341D01*
X111933374Y-95282241D01*
X111887095Y-95191413D01*
X111887092Y-95191410D01*
X111887090Y-95191407D01*
X111808592Y-95112909D01*
X111808588Y-95112906D01*
X111808587Y-95112905D01*
X111761655Y-95088992D01*
X111709658Y-95062498D01*
X111600002Y-95045131D01*
X111599998Y-95045131D01*
X111490341Y-95062498D01*
X111391414Y-95112904D01*
X111391407Y-95112909D01*
X111312909Y-95191407D01*
X111312904Y-95191414D01*
X111262498Y-95290341D01*
X111245131Y-95399997D01*
X106592970Y-95399997D01*
X106605501Y-95369744D01*
X106617717Y-95308331D01*
X106630500Y-95244071D01*
X106630500Y-95115928D01*
X106605502Y-94990261D01*
X106605501Y-94990260D01*
X106605501Y-94990256D01*
X106556465Y-94871873D01*
X106556464Y-94871872D01*
X106556461Y-94871866D01*
X106485276Y-94765331D01*
X106485273Y-94765327D01*
X106394672Y-94674726D01*
X106394668Y-94674723D01*
X106288133Y-94603538D01*
X106288124Y-94603533D01*
X106169744Y-94554499D01*
X106169738Y-94554497D01*
X106044071Y-94529500D01*
X106044069Y-94529500D01*
X105015931Y-94529500D01*
X105015929Y-94529500D01*
X104890261Y-94554497D01*
X104890255Y-94554499D01*
X104771875Y-94603533D01*
X104771866Y-94603538D01*
X104665331Y-94674723D01*
X104665327Y-94674726D01*
X104574726Y-94765327D01*
X104574723Y-94765331D01*
X104503538Y-94871866D01*
X104503533Y-94871875D01*
X104454499Y-94990255D01*
X104454497Y-94990261D01*
X104429500Y-95115928D01*
X104429500Y-95115931D01*
X104429500Y-95244069D01*
X104429500Y-95244071D01*
X104429499Y-95244071D01*
X102300500Y-95244071D01*
X102300500Y-95115928D01*
X102275502Y-94990261D01*
X102275501Y-94990260D01*
X102275501Y-94990256D01*
X102226465Y-94871873D01*
X102226464Y-94871872D01*
X102226461Y-94871866D01*
X102178439Y-94799997D01*
X103045131Y-94799997D01*
X103045131Y-94800002D01*
X103062498Y-94909658D01*
X103112904Y-95008585D01*
X103112909Y-95008592D01*
X103191407Y-95087090D01*
X103191410Y-95087092D01*
X103191413Y-95087095D01*
X103290339Y-95137500D01*
X103290341Y-95137501D01*
X103399998Y-95154869D01*
X103400000Y-95154869D01*
X103400002Y-95154869D01*
X103509658Y-95137501D01*
X103509659Y-95137500D01*
X103509661Y-95137500D01*
X103608587Y-95087095D01*
X103687095Y-95008587D01*
X103737500Y-94909661D01*
X103737500Y-94909659D01*
X103737501Y-94909658D01*
X103754869Y-94800002D01*
X103754869Y-94799997D01*
X103737501Y-94690341D01*
X103720252Y-94656488D01*
X103687095Y-94591413D01*
X103687092Y-94591410D01*
X103687090Y-94591407D01*
X103608592Y-94512909D01*
X103608588Y-94512906D01*
X103608587Y-94512905D01*
X103604743Y-94510946D01*
X103509658Y-94462498D01*
X103400002Y-94445131D01*
X103399998Y-94445131D01*
X103290341Y-94462498D01*
X103191414Y-94512904D01*
X103191407Y-94512909D01*
X103112909Y-94591407D01*
X103112904Y-94591414D01*
X103062498Y-94690341D01*
X103045131Y-94799997D01*
X102178439Y-94799997D01*
X102155276Y-94765331D01*
X102155273Y-94765327D01*
X102064672Y-94674726D01*
X102064668Y-94674723D01*
X101958133Y-94603538D01*
X101958124Y-94603533D01*
X101839744Y-94554499D01*
X101839738Y-94554497D01*
X101714071Y-94529500D01*
X101714069Y-94529500D01*
X100985931Y-94529500D01*
X100985929Y-94529500D01*
X100860261Y-94554497D01*
X100860255Y-94554499D01*
X100741875Y-94603533D01*
X100741866Y-94603538D01*
X100635331Y-94674723D01*
X100635327Y-94674726D01*
X100544726Y-94765327D01*
X100544723Y-94765331D01*
X100473538Y-94871866D01*
X100473533Y-94871875D01*
X100424499Y-94990255D01*
X100424497Y-94990261D01*
X100399500Y-95115928D01*
X100399500Y-95115931D01*
X100399500Y-95244069D01*
X100399500Y-95244071D01*
X100399499Y-95244071D01*
X100127500Y-95244071D01*
X100127500Y-94336497D01*
X114245133Y-94336497D01*
X114245133Y-94336502D01*
X114262500Y-94446158D01*
X114312906Y-94545085D01*
X114312911Y-94545092D01*
X114391409Y-94623590D01*
X114391412Y-94623592D01*
X114391415Y-94623595D01*
X114444818Y-94650805D01*
X114490343Y-94674001D01*
X114600000Y-94691369D01*
X114600002Y-94691369D01*
X114600004Y-94691369D01*
X114709660Y-94674001D01*
X114709661Y-94674000D01*
X114709663Y-94674000D01*
X114808589Y-94623595D01*
X114887097Y-94545087D01*
X114937502Y-94446161D01*
X114937502Y-94446159D01*
X114937503Y-94446158D01*
X114954871Y-94336502D01*
X114954871Y-94336497D01*
X114937503Y-94226841D01*
X114927975Y-94208142D01*
X114887097Y-94127913D01*
X114887094Y-94127910D01*
X114887092Y-94127907D01*
X114808594Y-94049409D01*
X114808590Y-94049406D01*
X114808589Y-94049405D01*
X114755873Y-94022545D01*
X114709660Y-93998998D01*
X114600004Y-93981631D01*
X114600000Y-93981631D01*
X114490343Y-93998998D01*
X114391416Y-94049404D01*
X114391409Y-94049409D01*
X114312911Y-94127907D01*
X114312906Y-94127914D01*
X114262500Y-94226841D01*
X114245133Y-94336497D01*
X100127500Y-94336497D01*
X100127500Y-94022545D01*
X100147185Y-93955506D01*
X100199989Y-93909751D01*
X100269147Y-93899807D01*
X100332703Y-93928832D01*
X100339181Y-93934864D01*
X100391407Y-93987090D01*
X100391410Y-93987092D01*
X100391413Y-93987095D01*
X100460988Y-94022545D01*
X100490341Y-94037501D01*
X100599998Y-94054869D01*
X100600000Y-94054869D01*
X100600002Y-94054869D01*
X100709658Y-94037501D01*
X100709659Y-94037500D01*
X100709661Y-94037500D01*
X100808587Y-93987095D01*
X100887095Y-93908587D01*
X100937500Y-93809661D01*
X100937500Y-93809659D01*
X100937501Y-93809658D01*
X100954869Y-93700002D01*
X100954869Y-93699997D01*
X100937501Y-93590341D01*
X100933063Y-93581631D01*
X100887095Y-93491413D01*
X100887092Y-93491410D01*
X100887090Y-93491407D01*
X100808592Y-93412909D01*
X100808588Y-93412906D01*
X100808587Y-93412905D01*
X100804743Y-93410946D01*
X100709658Y-93362498D01*
X100600002Y-93345131D01*
X100599998Y-93345131D01*
X100490341Y-93362498D01*
X100391414Y-93412904D01*
X100391407Y-93412909D01*
X100339181Y-93465136D01*
X100277858Y-93498621D01*
X100208166Y-93493637D01*
X100152233Y-93451765D01*
X100127816Y-93386301D01*
X100127500Y-93377455D01*
X100127500Y-92404875D01*
X100127882Y-92395147D01*
X100129839Y-92370277D01*
X100141169Y-92226303D01*
X100144211Y-92207097D01*
X100145916Y-92199997D01*
X114445131Y-92199997D01*
X114445131Y-92200002D01*
X114462498Y-92309658D01*
X114512904Y-92408585D01*
X114512909Y-92408592D01*
X114591407Y-92487090D01*
X114591410Y-92487092D01*
X114591413Y-92487095D01*
X114670020Y-92527147D01*
X114690341Y-92537501D01*
X114799998Y-92554869D01*
X114800000Y-92554869D01*
X114800002Y-92554869D01*
X114909658Y-92537501D01*
X114909659Y-92537500D01*
X114909661Y-92537500D01*
X115008587Y-92487095D01*
X115087095Y-92408587D01*
X115137500Y-92309661D01*
X115137500Y-92309659D01*
X115137501Y-92309658D01*
X115154869Y-92200002D01*
X115154869Y-92199997D01*
X115137501Y-92090341D01*
X115110668Y-92037678D01*
X115087095Y-91991413D01*
X115087092Y-91991410D01*
X115087090Y-91991407D01*
X115008592Y-91912909D01*
X115008588Y-91912906D01*
X115008587Y-91912905D01*
X115004743Y-91910946D01*
X114909658Y-91862498D01*
X114800002Y-91845131D01*
X114799998Y-91845131D01*
X114690341Y-91862498D01*
X114591414Y-91912904D01*
X114591407Y-91912909D01*
X114512909Y-91991407D01*
X114512904Y-91991414D01*
X114462498Y-92090341D01*
X114445131Y-92199997D01*
X100145916Y-92199997D01*
X100182610Y-92047156D01*
X100188616Y-92028671D01*
X100251562Y-91876707D01*
X100260387Y-91859386D01*
X100346340Y-91719124D01*
X100357755Y-91703413D01*
X100464584Y-91578331D01*
X100478331Y-91564584D01*
X100603413Y-91457755D01*
X100619124Y-91446340D01*
X100759386Y-91360387D01*
X100776707Y-91351562D01*
X100928671Y-91288616D01*
X100947156Y-91282610D01*
X101107097Y-91244211D01*
X101126303Y-91241169D01*
X101270277Y-91229839D01*
X101295147Y-91227882D01*
X101304875Y-91227500D01*
X101329101Y-91227500D01*
X109611753Y-91227500D01*
X109678792Y-91247185D01*
G37*
G04 #@! TD.AperFunction*
G04 #@! TA.AperFunction,Conductor*
G36*
X133269203Y-96465332D02*
G01*
X133275681Y-96471364D01*
X133291411Y-96487094D01*
X133291414Y-96487096D01*
X133291417Y-96487099D01*
X133390343Y-96537504D01*
X133390345Y-96537505D01*
X133500002Y-96554873D01*
X133500004Y-96554873D01*
X133500006Y-96554873D01*
X133607969Y-96537773D01*
X133677262Y-96546727D01*
X133730714Y-96591723D01*
X133751354Y-96658475D01*
X133732629Y-96725789D01*
X133700254Y-96760563D01*
X133676054Y-96778145D01*
X133547709Y-96920686D01*
X133547704Y-96920693D01*
X133451798Y-97086808D01*
X133451795Y-97086814D01*
X133392598Y-97269007D01*
X133392524Y-97269236D01*
X133372474Y-97460000D01*
X133392524Y-97650764D01*
X133392525Y-97650767D01*
X133451795Y-97833185D01*
X133451798Y-97833191D01*
X133547704Y-97999305D01*
X133547709Y-97999313D01*
X133676054Y-98141854D01*
X133676056Y-98141856D01*
X133831235Y-98254600D01*
X133831236Y-98254601D01*
X133954904Y-98309661D01*
X134006469Y-98332619D01*
X134194092Y-98372500D01*
X134385908Y-98372500D01*
X134573531Y-98332619D01*
X134625096Y-98309661D01*
X134748761Y-98254602D01*
X134748761Y-98254601D01*
X134748763Y-98254601D01*
X134852117Y-98179509D01*
X134917920Y-98156031D01*
X134985974Y-98171856D01*
X134997870Y-98179500D01*
X135067381Y-98230003D01*
X135101238Y-98254602D01*
X135168503Y-98284550D01*
X135276469Y-98332619D01*
X135328681Y-98343716D01*
X135334280Y-98344907D01*
X135395762Y-98378099D01*
X135429539Y-98439262D01*
X135432500Y-98466197D01*
X135432500Y-101533802D01*
X135412815Y-101600841D01*
X135360011Y-101646596D01*
X135334282Y-101655092D01*
X135276468Y-101667381D01*
X135101236Y-101745398D01*
X135101235Y-101745399D01*
X134997885Y-101820488D01*
X134932079Y-101843968D01*
X134864025Y-101828142D01*
X134852115Y-101820488D01*
X134748764Y-101745399D01*
X134748763Y-101745398D01*
X134573530Y-101667380D01*
X134385908Y-101627500D01*
X134194092Y-101627500D01*
X134006469Y-101667380D01*
X134006468Y-101667380D01*
X133831236Y-101745398D01*
X133831235Y-101745399D01*
X133676056Y-101858143D01*
X133676054Y-101858145D01*
X133547709Y-102000686D01*
X133547704Y-102000693D01*
X133451798Y-102166808D01*
X133451795Y-102166814D01*
X133392525Y-102349232D01*
X133392524Y-102349236D01*
X133372474Y-102540000D01*
X133392524Y-102730764D01*
X133392525Y-102730767D01*
X133451795Y-102913185D01*
X133451798Y-102913191D01*
X133547704Y-103079306D01*
X133547709Y-103079313D01*
X133654999Y-103198470D01*
X133676055Y-103221855D01*
X133705033Y-103242909D01*
X133712923Y-103248641D01*
X133755589Y-103303970D01*
X133761568Y-103373584D01*
X133728963Y-103435379D01*
X133696333Y-103459444D01*
X133690335Y-103462499D01*
X133690335Y-103462500D01*
X133591409Y-103512905D01*
X133591408Y-103512906D01*
X133591403Y-103512909D01*
X133512905Y-103591407D01*
X133512900Y-103591414D01*
X133462494Y-103690341D01*
X133443600Y-103809639D01*
X133440424Y-103809136D01*
X133425442Y-103860162D01*
X133372638Y-103905917D01*
X133303480Y-103915861D01*
X133239924Y-103886836D01*
X133233446Y-103880804D01*
X133100319Y-103747677D01*
X133066834Y-103686354D01*
X133064000Y-103659996D01*
X133064000Y-96559045D01*
X133083685Y-96492006D01*
X133136489Y-96446251D01*
X133205647Y-96436307D01*
X133269203Y-96465332D01*
G37*
G04 #@! TD.AperFunction*
G04 #@! TA.AperFunction,Conductor*
G36*
X122485945Y-96819209D02*
G01*
X122541878Y-96861081D01*
X122553096Y-96879096D01*
X122554300Y-96881460D01*
X122554301Y-96881462D01*
X122604705Y-96980386D01*
X122604707Y-96980389D01*
X122610445Y-96988287D01*
X122608239Y-96989889D01*
X122634547Y-97038068D01*
X122629563Y-97107760D01*
X122597095Y-97151130D01*
X122599331Y-97153366D01*
X122513927Y-97238769D01*
X122513922Y-97238776D01*
X122463516Y-97337703D01*
X122446149Y-97447359D01*
X122446149Y-97447364D01*
X122463516Y-97557020D01*
X122513922Y-97655947D01*
X122513927Y-97655954D01*
X122533464Y-97675491D01*
X122566949Y-97736814D01*
X122561965Y-97806506D01*
X122520093Y-97862439D01*
X122454629Y-97886856D01*
X122426385Y-97885645D01*
X122360002Y-97875131D01*
X122359998Y-97875131D01*
X122250341Y-97892498D01*
X122151414Y-97942904D01*
X122151407Y-97942909D01*
X122072909Y-98021407D01*
X122072904Y-98021414D01*
X122022498Y-98120341D01*
X122005131Y-98229997D01*
X122005131Y-98230003D01*
X122019885Y-98323159D01*
X122010930Y-98392452D01*
X121965934Y-98445904D01*
X121953716Y-98453036D01*
X121950259Y-98454797D01*
X121950248Y-98454805D01*
X121871750Y-98533303D01*
X121871745Y-98533310D01*
X121821339Y-98632237D01*
X121803972Y-98741893D01*
X121803972Y-98741898D01*
X121821339Y-98851554D01*
X121871745Y-98950481D01*
X121871750Y-98950488D01*
X121923003Y-99001741D01*
X121956488Y-99063064D01*
X121951504Y-99132756D01*
X121945807Y-99145716D01*
X121937914Y-99161207D01*
X121889940Y-99212004D01*
X121822119Y-99228799D01*
X121755984Y-99206262D01*
X121739748Y-99192594D01*
X121535377Y-98988224D01*
X121535369Y-98988214D01*
X121464965Y-98917810D01*
X121418892Y-98898727D01*
X121418890Y-98898725D01*
X121418890Y-98898726D01*
X121386311Y-98885231D01*
X121301177Y-98885231D01*
X121286743Y-98885231D01*
X121286735Y-98885232D01*
X115208728Y-98885232D01*
X115141689Y-98865547D01*
X115095934Y-98812743D01*
X115085990Y-98743585D01*
X115095843Y-98709918D01*
X115170680Y-98545303D01*
X115195874Y-98508951D01*
X116554508Y-97150319D01*
X116615831Y-97116834D01*
X116642189Y-97114000D01*
X121942991Y-97114000D01*
X121942999Y-97114001D01*
X121957433Y-97114001D01*
X122042565Y-97114001D01*
X122042567Y-97114001D01*
X122077574Y-97099500D01*
X122121222Y-97081421D01*
X122181421Y-97021222D01*
X122181421Y-97021220D01*
X122193332Y-97009310D01*
X122193337Y-97009302D01*
X122354933Y-96847707D01*
X122416253Y-96814225D01*
X122485945Y-96819209D01*
G37*
G04 #@! TD.AperFunction*
G04 #@! TA.AperFunction,Conductor*
G36*
X132954798Y-105210364D02*
G01*
X133126395Y-105264604D01*
X133274426Y-105311396D01*
X133281282Y-105317157D01*
X133282056Y-105326078D01*
X133281730Y-105326980D01*
X133212564Y-105496162D01*
X133206261Y-105502523D01*
X133206162Y-105502564D01*
X133034520Y-105572736D01*
X133025565Y-105572695D01*
X133020059Y-105567924D01*
X132862919Y-105305857D01*
X132861604Y-105297000D01*
X132864679Y-105291570D01*
X132943002Y-105213247D01*
X132951274Y-105209821D01*
X132954798Y-105210364D01*
G37*
G04 #@! TD.AperFunction*
G04 #@! TA.AperFunction,Conductor*
G36*
X129292404Y-102433656D02*
G01*
X129298948Y-102439769D01*
X129299997Y-102444611D01*
X129299997Y-102555394D01*
X129296570Y-102563667D01*
X129292404Y-102566349D01*
X128987074Y-102680827D01*
X128978125Y-102680523D01*
X128972178Y-102674399D01*
X128900895Y-102504528D01*
X128900855Y-102495576D01*
X128900868Y-102495543D01*
X128972179Y-102325604D01*
X128978539Y-102319303D01*
X128987072Y-102319178D01*
X129292404Y-102433656D01*
G37*
G04 #@! TD.AperFunction*
G04 #@! TA.AperFunction,Conductor*
G36*
X132225641Y-99127721D02*
G01*
X132378856Y-99190360D01*
X132396162Y-99197435D01*
X132402523Y-99203738D01*
X132402564Y-99203837D01*
X132472277Y-99374355D01*
X132472236Y-99383310D01*
X132466289Y-99389434D01*
X132169440Y-99524387D01*
X132160491Y-99524691D01*
X132156325Y-99522009D01*
X132077990Y-99443674D01*
X132074563Y-99435401D01*
X132075611Y-99430563D01*
X132210565Y-99133709D01*
X132217109Y-99127597D01*
X132225641Y-99127721D01*
G37*
G04 #@! TD.AperFunction*
G04 #@! TA.AperFunction,Conductor*
G36*
X114369389Y-98770419D02*
G01*
X114375692Y-98776780D01*
X114376418Y-98779377D01*
X114378954Y-98795391D01*
X114429360Y-98894318D01*
X114496428Y-98961386D01*
X114498069Y-98963446D01*
X114539634Y-99029809D01*
X114541121Y-99038638D01*
X114537991Y-99044291D01*
X114459697Y-99122585D01*
X114451424Y-99126012D01*
X114448106Y-99125532D01*
X114151147Y-99037704D01*
X114124834Y-99029921D01*
X114117873Y-99024289D01*
X114116933Y-99015384D01*
X114117317Y-99014289D01*
X114186399Y-98845312D01*
X114192702Y-98838952D01*
X114192744Y-98838934D01*
X114360435Y-98770378D01*
X114369389Y-98770419D01*
G37*
G04 #@! TD.AperFunction*
G04 #@! TA.AperFunction,Conductor*
G36*
X114682407Y-99413653D02*
G01*
X114688951Y-99419766D01*
X114690000Y-99424608D01*
X114690000Y-99535391D01*
X114686573Y-99543664D01*
X114682407Y-99546346D01*
X114377077Y-99660824D01*
X114368128Y-99660520D01*
X114362181Y-99654396D01*
X114290898Y-99484525D01*
X114290858Y-99475573D01*
X114290871Y-99475540D01*
X114362182Y-99305601D01*
X114368542Y-99299300D01*
X114377075Y-99299175D01*
X114682407Y-99413653D01*
G37*
G04 #@! TD.AperFunction*
G04 #@! TA.AperFunction,Conductor*
G36*
X128669434Y-102175614D02*
G01*
X128966286Y-102310568D01*
X128972399Y-102317112D01*
X128972274Y-102325647D01*
X128902561Y-102496165D01*
X128896258Y-102502526D01*
X128896159Y-102502567D01*
X128725641Y-102572280D01*
X128716686Y-102572239D01*
X128710562Y-102566292D01*
X128575608Y-102269441D01*
X128575305Y-102260494D01*
X128577985Y-102256330D01*
X128656323Y-102177992D01*
X128664595Y-102174566D01*
X128669434Y-102175614D01*
G37*
G04 #@! TD.AperFunction*
G04 #@! TA.AperFunction,Conductor*
G36*
X131414172Y-96360612D02*
G01*
X131711024Y-96495566D01*
X131717137Y-96502110D01*
X131717012Y-96510645D01*
X131647299Y-96681163D01*
X131640996Y-96687524D01*
X131640897Y-96687565D01*
X131470379Y-96757278D01*
X131461424Y-96757237D01*
X131455300Y-96751290D01*
X131320346Y-96454439D01*
X131320043Y-96445492D01*
X131322723Y-96441328D01*
X131401061Y-96362990D01*
X131409333Y-96359564D01*
X131414172Y-96360612D01*
G37*
G04 #@! TD.AperFunction*
G04 #@! TA.AperFunction,Conductor*
G36*
X114543674Y-97877990D02*
G01*
X114622009Y-97956325D01*
X114625436Y-97964598D01*
X114624387Y-97969440D01*
X114489434Y-98266289D01*
X114482890Y-98272402D01*
X114474355Y-98272277D01*
X114416326Y-98248553D01*
X114303837Y-98202564D01*
X114297476Y-98196261D01*
X114297435Y-98196162D01*
X114290360Y-98178856D01*
X114227722Y-98025641D01*
X114227763Y-98016689D01*
X114233709Y-98010565D01*
X114530561Y-97875611D01*
X114539508Y-97875308D01*
X114543674Y-97877990D01*
G37*
G04 #@! TD.AperFunction*
G04 #@! TA.AperFunction,Conductor*
G36*
X133200972Y-104070111D02*
G01*
X133203623Y-104074194D01*
X133334198Y-104414638D01*
X133333961Y-104423590D01*
X133327801Y-104429617D01*
X133158700Y-104500580D01*
X133149746Y-104500621D01*
X133149675Y-104500592D01*
X132980268Y-104430043D01*
X132973948Y-104423699D01*
X132973965Y-104414744D01*
X132974283Y-104414048D01*
X133106519Y-104148871D01*
X133108711Y-104145826D01*
X133184427Y-104070110D01*
X133192699Y-104066684D01*
X133200972Y-104070111D01*
G37*
G04 #@! TD.AperFunction*
G04 #@! TA.AperFunction,Conductor*
G36*
X119463665Y-95053427D02*
G01*
X119466346Y-95057592D01*
X119580824Y-95362922D01*
X119580520Y-95371871D01*
X119574396Y-95377818D01*
X119404527Y-95449100D01*
X119395573Y-95449141D01*
X119395473Y-95449100D01*
X119225603Y-95377818D01*
X119219300Y-95371457D01*
X119219175Y-95362924D01*
X119333653Y-95057591D01*
X119339766Y-95051049D01*
X119344608Y-95050000D01*
X119455392Y-95050000D01*
X119463665Y-95053427D01*
G37*
G04 #@! TD.AperFunction*
G04 #@! TA.AperFunction,Conductor*
G36*
X114960129Y-98363721D02*
G01*
X115038464Y-98442056D01*
X115041891Y-98450329D01*
X115040842Y-98455171D01*
X114905889Y-98752020D01*
X114899345Y-98758133D01*
X114890810Y-98758008D01*
X114832781Y-98734284D01*
X114720292Y-98688295D01*
X114713931Y-98681992D01*
X114713890Y-98681893D01*
X114706815Y-98664587D01*
X114644177Y-98511372D01*
X114644218Y-98502420D01*
X114650164Y-98496296D01*
X114947016Y-98361342D01*
X114955963Y-98361039D01*
X114960129Y-98363721D01*
G37*
G04 #@! TD.AperFunction*
G04 #@! TA.AperFunction,Conductor*
G36*
X126769437Y-97275611D02*
G01*
X127066289Y-97410565D01*
X127072402Y-97417109D01*
X127072277Y-97425644D01*
X127002564Y-97596162D01*
X126996261Y-97602523D01*
X126996162Y-97602564D01*
X126825644Y-97672277D01*
X126816689Y-97672236D01*
X126810565Y-97666289D01*
X126675611Y-97369438D01*
X126675308Y-97360491D01*
X126677988Y-97356327D01*
X126756326Y-97277989D01*
X126764598Y-97274563D01*
X126769437Y-97275611D01*
G37*
G04 #@! TD.AperFunction*
M02*
