M48
; DRILL file {KiCad 8.0.2} date 2024-11-05T23:02:28+0500
; FORMAT={-:-/ absolute / inch / decimal}
; #@! TF.CreationDate,2024-11-05T23:02:28+05:00
; #@! TF.GenerationSoftware,Kicad,Pcbnew,8.0.2
; #@! TF.FileFunction,Plated,1,4,PTH
FMAT,2
INCH
; #@! TA.AperFunction,Plated,PTH,ViaDrill
T1C0.0059
; #@! TA.AperFunction,Plated,PTH,ComponentDrill
T2C0.0079
; #@! TA.AperFunction,Plated,PTH,ComponentDrill
T3C0.0236
; #@! TA.AperFunction,Plated,PTH,ComponentDrill
T4C0.0380
%
G90
G05
T1
X3.9606Y-3.689
X4.0709Y-3.7323
X4.1417Y-3.8898
X4.1417Y-3.9252
X4.2205Y-4.0157
X4.2224Y-4.1988
X4.2441Y-4.1004
X4.2618Y-4.1988
X4.2913Y-3.8012
X4.2913Y-4.0512
X4.3189Y-4.2047
X4.3268Y-3.937
X4.3307Y-3.9803
X4.3335Y-4.0542
X4.3504Y-3.8524
X4.3622Y-4.1102
X4.3701Y-3.9803
X4.3701Y-4.0539
X4.3703Y-3.8012
X4.3711Y-3.854
X4.3912Y-4.1391
X4.3937Y-3.7559
X4.3937Y-4.0787
X4.4114Y-3.9839
X4.4252Y-4.1969
X4.4331Y-4.0787
X4.4382Y-4.1575
X4.4488Y-3.8169
X4.4685Y-3.8169
X4.4775Y-4.0603
X4.484Y-3.8351
X4.4961Y-3.8898
X4.4995Y-3.9155
X4.5Y-3.7756
X4.5039Y-3.9764
X4.5039Y-4.0
X4.5042Y-3.9346
X4.5042Y-3.9543
X4.5049Y-4.2087
X4.5052Y-3.8707
X4.506Y-4.0783
X4.5079Y-3.811
X4.5118Y-3.7283
X4.5186Y-3.8853
X4.5197Y-3.6299
X4.5236Y-4.1181
X4.5622Y-4.0612
X4.5623Y-3.998
X4.5802Y-3.741
X4.5816Y-4.0579
X4.5846Y-4.2539
X4.5906Y-3.8642
X4.5906Y-3.8819
X4.6021Y-4.0576
X4.6083Y-3.8642
X4.6083Y-3.8819
X4.6201Y-4.0768
X4.6339Y-4.2283
X4.6346Y-4.0556
X4.6535Y-4.063
X4.6707Y-4.0534
X4.7008Y-3.7579
X4.7087Y-3.6535
X4.7165Y-4.0571
X4.7362Y-3.7559
X4.7461Y-3.6983
X4.7466Y-3.7335
X4.7717Y-3.7756
X4.7876Y-3.7346
X4.7911Y-3.6983
X4.8052Y-3.8864
X4.8099Y-3.9092
X4.813Y-3.8681
X4.813Y-4.002
X4.815Y-3.9606
X4.8324Y-3.8157
X4.8347Y-3.8365
X4.8386Y-3.6772
X4.8386Y-3.8622
X4.937Y-3.9685
X4.937Y-4.0079
X4.9724Y-3.8819
X4.9961Y-4.1772
X5.0Y-3.8425
X5.0075Y-3.8051
X5.0276Y-4.1772
X5.0556Y-3.8051
X5.073Y-3.99
X5.0748Y-4.0354
X5.0827Y-3.9606
X5.0831Y-4.065
X5.1392Y-4.0998
X5.1496Y-3.8346
X5.1589Y-4.0333
X5.1829Y-3.8065
X5.2126Y-3.9055
X5.2423Y-4.1142
X5.2478Y-4.1501
X5.2517Y-4.1711
X5.2559Y-3.7874
X5.2677Y-4.0866
T2
X4.0669Y-4.1673
X4.0669Y-4.2106
T4
X4.7874Y-3.5878
X4.7874Y-3.6378
X4.7953Y-4.2402
X4.7953Y-4.2902
X4.887Y-3.587
X4.887Y-3.637
X4.8937Y-4.2402
X4.8937Y-4.2902
X4.987Y-3.587
X4.987Y-3.637
X4.9921Y-4.2402
X4.9921Y-4.2902
X5.0866Y-3.587
X5.0866Y-3.637
X5.0906Y-4.241
X5.0906Y-4.291
X5.185Y-3.5878
X5.185Y-3.6378
X5.189Y-4.241
X5.189Y-4.291
X5.287Y-3.737
X5.287Y-3.837
X5.287Y-3.937
X5.287Y-4.037
X5.2874Y-3.5878
X5.2874Y-3.6378
X5.2874Y-4.241
X5.2874Y-4.291
X5.337Y-3.737
X5.337Y-3.837
X5.337Y-3.937
X5.337Y-4.037
T3
G00X4.002Y-3.7472
M15
G01X3.9783Y-3.7472
M16
G05
G00X4.002Y-4.0874
M15
G01X3.9783Y-4.0874
M16
G05
G00X4.1724Y-3.7472
M15
G01X4.137Y-3.7472
M16
G05
G00X4.1724Y-4.0874
M15
G01X4.137Y-4.0874
M16
G05
M30
