G04 #@! TF.GenerationSoftware,KiCad,Pcbnew,8.0.1*
G04 #@! TF.CreationDate,2024-12-04T18:09:28+05:30*
G04 #@! TF.ProjectId,V1,56312e6b-6963-4616-945f-706362585858,r0.1*
G04 #@! TF.SameCoordinates,Original*
G04 #@! TF.FileFunction,Legend,Bot*
G04 #@! TF.FilePolarity,Positive*
%FSLAX46Y46*%
G04 Gerber Fmt 4.6, Leading zero omitted, Abs format (unit mm)*
G04 Created by KiCad (PCBNEW 8.0.1) date 2024-12-04 18:09:28*
%MOMM*%
%LPD*%
G01*
G04 APERTURE LIST*
%ADD10C,0.100000*%
%ADD11C,0.125000*%
%ADD12C,0.250000*%
%ADD13C,0.150000*%
%ADD14C,0.000000*%
%ADD15C,1.500000*%
%ADD16R,1.270000X1.524000*%
%ADD17R,1.524000X1.270000*%
%ADD18C,0.650000*%
%ADD19O,1.900000X1.000000*%
%ADD20O,1.600000X1.000000*%
G04 APERTURE END LIST*
D10*
X106307141Y-102202300D02*
X106235713Y-102226109D01*
X106235713Y-102226109D02*
X106116665Y-102226109D01*
X106116665Y-102226109D02*
X106069046Y-102202300D01*
X106069046Y-102202300D02*
X106045237Y-102178490D01*
X106045237Y-102178490D02*
X106021427Y-102130871D01*
X106021427Y-102130871D02*
X106021427Y-102083252D01*
X106021427Y-102083252D02*
X106045237Y-102035633D01*
X106045237Y-102035633D02*
X106069046Y-102011823D01*
X106069046Y-102011823D02*
X106116665Y-101988014D01*
X106116665Y-101988014D02*
X106211903Y-101964204D01*
X106211903Y-101964204D02*
X106259522Y-101940395D01*
X106259522Y-101940395D02*
X106283332Y-101916585D01*
X106283332Y-101916585D02*
X106307141Y-101868966D01*
X106307141Y-101868966D02*
X106307141Y-101821347D01*
X106307141Y-101821347D02*
X106283332Y-101773728D01*
X106283332Y-101773728D02*
X106259522Y-101749919D01*
X106259522Y-101749919D02*
X106211903Y-101726109D01*
X106211903Y-101726109D02*
X106092856Y-101726109D01*
X106092856Y-101726109D02*
X106021427Y-101749919D01*
X105830951Y-102083252D02*
X105592856Y-102083252D01*
X105878570Y-102226109D02*
X105711904Y-101726109D01*
X105711904Y-101726109D02*
X105545237Y-102226109D01*
X132962782Y-102326109D02*
X132653258Y-102326109D01*
X132653258Y-102326109D02*
X132819925Y-102516585D01*
X132819925Y-102516585D02*
X132748496Y-102516585D01*
X132748496Y-102516585D02*
X132700877Y-102540395D01*
X132700877Y-102540395D02*
X132677068Y-102564204D01*
X132677068Y-102564204D02*
X132653258Y-102611823D01*
X132653258Y-102611823D02*
X132653258Y-102730871D01*
X132653258Y-102730871D02*
X132677068Y-102778490D01*
X132677068Y-102778490D02*
X132700877Y-102802300D01*
X132700877Y-102802300D02*
X132748496Y-102826109D01*
X132748496Y-102826109D02*
X132891353Y-102826109D01*
X132891353Y-102826109D02*
X132938972Y-102802300D01*
X132938972Y-102802300D02*
X132962782Y-102778490D01*
X132486592Y-102492776D02*
X132367544Y-102826109D01*
X132367544Y-102826109D02*
X132248497Y-102492776D01*
X132105640Y-102326109D02*
X131796116Y-102326109D01*
X131796116Y-102326109D02*
X131962783Y-102516585D01*
X131962783Y-102516585D02*
X131891354Y-102516585D01*
X131891354Y-102516585D02*
X131843735Y-102540395D01*
X131843735Y-102540395D02*
X131819926Y-102564204D01*
X131819926Y-102564204D02*
X131796116Y-102611823D01*
X131796116Y-102611823D02*
X131796116Y-102730871D01*
X131796116Y-102730871D02*
X131819926Y-102778490D01*
X131819926Y-102778490D02*
X131843735Y-102802300D01*
X131843735Y-102802300D02*
X131891354Y-102826109D01*
X131891354Y-102826109D02*
X132034211Y-102826109D01*
X132034211Y-102826109D02*
X132081830Y-102802300D01*
X132081830Y-102802300D02*
X132105640Y-102778490D01*
X132729449Y-97626109D02*
X132896115Y-97388014D01*
X133015163Y-97626109D02*
X133015163Y-97126109D01*
X133015163Y-97126109D02*
X132824687Y-97126109D01*
X132824687Y-97126109D02*
X132777068Y-97149919D01*
X132777068Y-97149919D02*
X132753258Y-97173728D01*
X132753258Y-97173728D02*
X132729449Y-97221347D01*
X132729449Y-97221347D02*
X132729449Y-97292776D01*
X132729449Y-97292776D02*
X132753258Y-97340395D01*
X132753258Y-97340395D02*
X132777068Y-97364204D01*
X132777068Y-97364204D02*
X132824687Y-97388014D01*
X132824687Y-97388014D02*
X133015163Y-97388014D01*
X132515163Y-97364204D02*
X132348496Y-97364204D01*
X132277068Y-97626109D02*
X132515163Y-97626109D01*
X132515163Y-97626109D02*
X132515163Y-97126109D01*
X132515163Y-97126109D02*
X132277068Y-97126109D01*
X132086591Y-97602300D02*
X132015163Y-97626109D01*
X132015163Y-97626109D02*
X131896115Y-97626109D01*
X131896115Y-97626109D02*
X131848496Y-97602300D01*
X131848496Y-97602300D02*
X131824687Y-97578490D01*
X131824687Y-97578490D02*
X131800877Y-97530871D01*
X131800877Y-97530871D02*
X131800877Y-97483252D01*
X131800877Y-97483252D02*
X131824687Y-97435633D01*
X131824687Y-97435633D02*
X131848496Y-97411823D01*
X131848496Y-97411823D02*
X131896115Y-97388014D01*
X131896115Y-97388014D02*
X131991353Y-97364204D01*
X131991353Y-97364204D02*
X132038972Y-97340395D01*
X132038972Y-97340395D02*
X132062782Y-97316585D01*
X132062782Y-97316585D02*
X132086591Y-97268966D01*
X132086591Y-97268966D02*
X132086591Y-97221347D01*
X132086591Y-97221347D02*
X132062782Y-97173728D01*
X132062782Y-97173728D02*
X132038972Y-97149919D01*
X132038972Y-97149919D02*
X131991353Y-97126109D01*
X131991353Y-97126109D02*
X131872306Y-97126109D01*
X131872306Y-97126109D02*
X131800877Y-97149919D01*
X131586592Y-97364204D02*
X131419925Y-97364204D01*
X131348497Y-97626109D02*
X131586592Y-97626109D01*
X131586592Y-97626109D02*
X131586592Y-97126109D01*
X131586592Y-97126109D02*
X131348497Y-97126109D01*
X131205639Y-97126109D02*
X130919925Y-97126109D01*
X131062782Y-97626109D02*
X131062782Y-97126109D01*
X132553258Y-99849919D02*
X132600877Y-99826109D01*
X132600877Y-99826109D02*
X132672306Y-99826109D01*
X132672306Y-99826109D02*
X132743734Y-99849919D01*
X132743734Y-99849919D02*
X132791353Y-99897538D01*
X132791353Y-99897538D02*
X132815163Y-99945157D01*
X132815163Y-99945157D02*
X132838972Y-100040395D01*
X132838972Y-100040395D02*
X132838972Y-100111823D01*
X132838972Y-100111823D02*
X132815163Y-100207061D01*
X132815163Y-100207061D02*
X132791353Y-100254680D01*
X132791353Y-100254680D02*
X132743734Y-100302300D01*
X132743734Y-100302300D02*
X132672306Y-100326109D01*
X132672306Y-100326109D02*
X132624687Y-100326109D01*
X132624687Y-100326109D02*
X132553258Y-100302300D01*
X132553258Y-100302300D02*
X132529449Y-100278490D01*
X132529449Y-100278490D02*
X132529449Y-100111823D01*
X132529449Y-100111823D02*
X132624687Y-100111823D01*
X132315163Y-100326109D02*
X132315163Y-99826109D01*
X132315163Y-99826109D02*
X132029449Y-100326109D01*
X132029449Y-100326109D02*
X132029449Y-99826109D01*
X131791353Y-100326109D02*
X131791353Y-99826109D01*
X131791353Y-99826109D02*
X131672305Y-99826109D01*
X131672305Y-99826109D02*
X131600877Y-99849919D01*
X131600877Y-99849919D02*
X131553258Y-99897538D01*
X131553258Y-99897538D02*
X131529448Y-99945157D01*
X131529448Y-99945157D02*
X131505639Y-100040395D01*
X131505639Y-100040395D02*
X131505639Y-100111823D01*
X131505639Y-100111823D02*
X131529448Y-100207061D01*
X131529448Y-100207061D02*
X131553258Y-100254680D01*
X131553258Y-100254680D02*
X131600877Y-100302300D01*
X131600877Y-100302300D02*
X131672305Y-100326109D01*
X131672305Y-100326109D02*
X131791353Y-100326109D01*
X102880952Y-99726109D02*
X102880952Y-100130871D01*
X102880952Y-100130871D02*
X102857142Y-100178490D01*
X102857142Y-100178490D02*
X102833333Y-100202300D01*
X102833333Y-100202300D02*
X102785714Y-100226109D01*
X102785714Y-100226109D02*
X102690476Y-100226109D01*
X102690476Y-100226109D02*
X102642857Y-100202300D01*
X102642857Y-100202300D02*
X102619047Y-100178490D01*
X102619047Y-100178490D02*
X102595238Y-100130871D01*
X102595238Y-100130871D02*
X102595238Y-99726109D01*
X102380951Y-100202300D02*
X102309523Y-100226109D01*
X102309523Y-100226109D02*
X102190475Y-100226109D01*
X102190475Y-100226109D02*
X102142856Y-100202300D01*
X102142856Y-100202300D02*
X102119047Y-100178490D01*
X102119047Y-100178490D02*
X102095237Y-100130871D01*
X102095237Y-100130871D02*
X102095237Y-100083252D01*
X102095237Y-100083252D02*
X102119047Y-100035633D01*
X102119047Y-100035633D02*
X102142856Y-100011823D01*
X102142856Y-100011823D02*
X102190475Y-99988014D01*
X102190475Y-99988014D02*
X102285713Y-99964204D01*
X102285713Y-99964204D02*
X102333332Y-99940395D01*
X102333332Y-99940395D02*
X102357142Y-99916585D01*
X102357142Y-99916585D02*
X102380951Y-99868966D01*
X102380951Y-99868966D02*
X102380951Y-99821347D01*
X102380951Y-99821347D02*
X102357142Y-99773728D01*
X102357142Y-99773728D02*
X102333332Y-99749919D01*
X102333332Y-99749919D02*
X102285713Y-99726109D01*
X102285713Y-99726109D02*
X102166666Y-99726109D01*
X102166666Y-99726109D02*
X102095237Y-99749919D01*
X101714285Y-99964204D02*
X101642857Y-99988014D01*
X101642857Y-99988014D02*
X101619047Y-100011823D01*
X101619047Y-100011823D02*
X101595238Y-100059442D01*
X101595238Y-100059442D02*
X101595238Y-100130871D01*
X101595238Y-100130871D02*
X101619047Y-100178490D01*
X101619047Y-100178490D02*
X101642857Y-100202300D01*
X101642857Y-100202300D02*
X101690476Y-100226109D01*
X101690476Y-100226109D02*
X101880952Y-100226109D01*
X101880952Y-100226109D02*
X101880952Y-99726109D01*
X101880952Y-99726109D02*
X101714285Y-99726109D01*
X101714285Y-99726109D02*
X101666666Y-99749919D01*
X101666666Y-99749919D02*
X101642857Y-99773728D01*
X101642857Y-99773728D02*
X101619047Y-99821347D01*
X101619047Y-99821347D02*
X101619047Y-99868966D01*
X101619047Y-99868966D02*
X101642857Y-99916585D01*
X101642857Y-99916585D02*
X101666666Y-99940395D01*
X101666666Y-99940395D02*
X101714285Y-99964204D01*
X101714285Y-99964204D02*
X101880952Y-99964204D01*
D11*
X110910621Y-102199040D02*
X110821335Y-102228802D01*
X110821335Y-102228802D02*
X110791573Y-102258564D01*
X110791573Y-102258564D02*
X110761811Y-102318088D01*
X110761811Y-102318088D02*
X110761811Y-102407374D01*
X110761811Y-102407374D02*
X110791573Y-102466898D01*
X110791573Y-102466898D02*
X110821335Y-102496660D01*
X110821335Y-102496660D02*
X110880859Y-102526421D01*
X110880859Y-102526421D02*
X111118954Y-102526421D01*
X111118954Y-102526421D02*
X111118954Y-101901421D01*
X111118954Y-101901421D02*
X110910621Y-101901421D01*
X110910621Y-101901421D02*
X110851097Y-101931183D01*
X110851097Y-101931183D02*
X110821335Y-101960945D01*
X110821335Y-101960945D02*
X110791573Y-102020469D01*
X110791573Y-102020469D02*
X110791573Y-102079993D01*
X110791573Y-102079993D02*
X110821335Y-102139517D01*
X110821335Y-102139517D02*
X110851097Y-102169279D01*
X110851097Y-102169279D02*
X110910621Y-102199040D01*
X110910621Y-102199040D02*
X111118954Y-102199040D01*
X110374906Y-102228802D02*
X110374906Y-102526421D01*
X110583240Y-101901421D02*
X110374906Y-102228802D01*
X110374906Y-102228802D02*
X110166573Y-101901421D01*
X110791573Y-102937398D02*
X110851097Y-102907636D01*
X110851097Y-102907636D02*
X110940383Y-102907636D01*
X110940383Y-102907636D02*
X111029668Y-102937398D01*
X111029668Y-102937398D02*
X111089192Y-102996922D01*
X111089192Y-102996922D02*
X111118954Y-103056446D01*
X111118954Y-103056446D02*
X111148716Y-103175494D01*
X111148716Y-103175494D02*
X111148716Y-103264779D01*
X111148716Y-103264779D02*
X111118954Y-103383827D01*
X111118954Y-103383827D02*
X111089192Y-103443351D01*
X111089192Y-103443351D02*
X111029668Y-103502875D01*
X111029668Y-103502875D02*
X110940383Y-103532636D01*
X110940383Y-103532636D02*
X110880859Y-103532636D01*
X110880859Y-103532636D02*
X110791573Y-103502875D01*
X110791573Y-103502875D02*
X110761811Y-103473113D01*
X110761811Y-103473113D02*
X110761811Y-103264779D01*
X110761811Y-103264779D02*
X110880859Y-103264779D01*
X110583240Y-102907636D02*
X110226097Y-102907636D01*
X110404668Y-103532636D02*
X110404668Y-102907636D01*
X110047526Y-103502875D02*
X109958240Y-103532636D01*
X109958240Y-103532636D02*
X109809431Y-103532636D01*
X109809431Y-103532636D02*
X109749907Y-103502875D01*
X109749907Y-103502875D02*
X109720145Y-103473113D01*
X109720145Y-103473113D02*
X109690383Y-103413589D01*
X109690383Y-103413589D02*
X109690383Y-103354065D01*
X109690383Y-103354065D02*
X109720145Y-103294541D01*
X109720145Y-103294541D02*
X109749907Y-103264779D01*
X109749907Y-103264779D02*
X109809431Y-103235017D01*
X109809431Y-103235017D02*
X109928478Y-103205255D01*
X109928478Y-103205255D02*
X109988002Y-103175494D01*
X109988002Y-103175494D02*
X110017764Y-103145732D01*
X110017764Y-103145732D02*
X110047526Y-103086208D01*
X110047526Y-103086208D02*
X110047526Y-103026684D01*
X110047526Y-103026684D02*
X110017764Y-102967160D01*
X110017764Y-102967160D02*
X109988002Y-102937398D01*
X109988002Y-102937398D02*
X109928478Y-102907636D01*
X109928478Y-102907636D02*
X109779669Y-102907636D01*
X109779669Y-102907636D02*
X109690383Y-102937398D01*
X111148716Y-103973375D02*
X111118954Y-103943613D01*
X111118954Y-103943613D02*
X111059430Y-103913851D01*
X111059430Y-103913851D02*
X110910621Y-103913851D01*
X110910621Y-103913851D02*
X110851097Y-103943613D01*
X110851097Y-103943613D02*
X110821335Y-103973375D01*
X110821335Y-103973375D02*
X110791573Y-104032899D01*
X110791573Y-104032899D02*
X110791573Y-104092423D01*
X110791573Y-104092423D02*
X110821335Y-104181709D01*
X110821335Y-104181709D02*
X111178478Y-104538851D01*
X111178478Y-104538851D02*
X110791573Y-104538851D01*
X110404668Y-103913851D02*
X110345145Y-103913851D01*
X110345145Y-103913851D02*
X110285621Y-103943613D01*
X110285621Y-103943613D02*
X110255859Y-103973375D01*
X110255859Y-103973375D02*
X110226097Y-104032899D01*
X110226097Y-104032899D02*
X110196335Y-104151947D01*
X110196335Y-104151947D02*
X110196335Y-104300756D01*
X110196335Y-104300756D02*
X110226097Y-104419804D01*
X110226097Y-104419804D02*
X110255859Y-104479328D01*
X110255859Y-104479328D02*
X110285621Y-104509090D01*
X110285621Y-104509090D02*
X110345145Y-104538851D01*
X110345145Y-104538851D02*
X110404668Y-104538851D01*
X110404668Y-104538851D02*
X110464192Y-104509090D01*
X110464192Y-104509090D02*
X110493954Y-104479328D01*
X110493954Y-104479328D02*
X110523716Y-104419804D01*
X110523716Y-104419804D02*
X110553478Y-104300756D01*
X110553478Y-104300756D02*
X110553478Y-104151947D01*
X110553478Y-104151947D02*
X110523716Y-104032899D01*
X110523716Y-104032899D02*
X110493954Y-103973375D01*
X110493954Y-103973375D02*
X110464192Y-103943613D01*
X110464192Y-103943613D02*
X110404668Y-103913851D01*
X109958240Y-103973375D02*
X109928478Y-103943613D01*
X109928478Y-103943613D02*
X109868954Y-103913851D01*
X109868954Y-103913851D02*
X109720145Y-103913851D01*
X109720145Y-103913851D02*
X109660621Y-103943613D01*
X109660621Y-103943613D02*
X109630859Y-103973375D01*
X109630859Y-103973375D02*
X109601097Y-104032899D01*
X109601097Y-104032899D02*
X109601097Y-104092423D01*
X109601097Y-104092423D02*
X109630859Y-104181709D01*
X109630859Y-104181709D02*
X109988002Y-104538851D01*
X109988002Y-104538851D02*
X109601097Y-104538851D01*
X109035621Y-103913851D02*
X109333240Y-103913851D01*
X109333240Y-103913851D02*
X109363002Y-104211470D01*
X109363002Y-104211470D02*
X109333240Y-104181709D01*
X109333240Y-104181709D02*
X109273716Y-104151947D01*
X109273716Y-104151947D02*
X109124907Y-104151947D01*
X109124907Y-104151947D02*
X109065383Y-104181709D01*
X109065383Y-104181709D02*
X109035621Y-104211470D01*
X109035621Y-104211470D02*
X109005859Y-104270994D01*
X109005859Y-104270994D02*
X109005859Y-104419804D01*
X109005859Y-104419804D02*
X109035621Y-104479328D01*
X109035621Y-104479328D02*
X109065383Y-104509090D01*
X109065383Y-104509090D02*
X109124907Y-104538851D01*
X109124907Y-104538851D02*
X109273716Y-104538851D01*
X109273716Y-104538851D02*
X109333240Y-104509090D01*
X109333240Y-104509090D02*
X109363002Y-104479328D01*
X104095330Y-97607636D02*
X103886996Y-98232636D01*
X103886996Y-98232636D02*
X103678663Y-97607636D01*
X103470330Y-98232636D02*
X103470330Y-97607636D01*
X103470330Y-97845732D02*
X103410806Y-97815970D01*
X103410806Y-97815970D02*
X103291759Y-97815970D01*
X103291759Y-97815970D02*
X103232235Y-97845732D01*
X103232235Y-97845732D02*
X103202473Y-97875494D01*
X103202473Y-97875494D02*
X103172711Y-97935017D01*
X103172711Y-97935017D02*
X103172711Y-98113589D01*
X103172711Y-98113589D02*
X103202473Y-98173113D01*
X103202473Y-98173113D02*
X103232235Y-98202875D01*
X103232235Y-98202875D02*
X103291759Y-98232636D01*
X103291759Y-98232636D02*
X103410806Y-98232636D01*
X103410806Y-98232636D02*
X103470330Y-98202875D01*
X102636997Y-97815970D02*
X102636997Y-98232636D01*
X102904854Y-97815970D02*
X102904854Y-98143351D01*
X102904854Y-98143351D02*
X102875092Y-98202875D01*
X102875092Y-98202875D02*
X102815568Y-98232636D01*
X102815568Y-98232636D02*
X102726283Y-98232636D01*
X102726283Y-98232636D02*
X102666759Y-98202875D01*
X102666759Y-98202875D02*
X102636997Y-98173113D01*
X102369140Y-98202875D02*
X102309616Y-98232636D01*
X102309616Y-98232636D02*
X102190568Y-98232636D01*
X102190568Y-98232636D02*
X102131045Y-98202875D01*
X102131045Y-98202875D02*
X102101283Y-98143351D01*
X102101283Y-98143351D02*
X102101283Y-98113589D01*
X102101283Y-98113589D02*
X102131045Y-98054065D01*
X102131045Y-98054065D02*
X102190568Y-98024303D01*
X102190568Y-98024303D02*
X102279854Y-98024303D01*
X102279854Y-98024303D02*
X102339378Y-97994541D01*
X102339378Y-97994541D02*
X102369140Y-97935017D01*
X102369140Y-97935017D02*
X102369140Y-97905255D01*
X102369140Y-97905255D02*
X102339378Y-97845732D01*
X102339378Y-97845732D02*
X102279854Y-97815970D01*
X102279854Y-97815970D02*
X102190568Y-97815970D01*
X102190568Y-97815970D02*
X102131045Y-97845732D01*
X134795952Y-93307636D02*
X134409047Y-93307636D01*
X134409047Y-93307636D02*
X134617380Y-93545732D01*
X134617380Y-93545732D02*
X134528095Y-93545732D01*
X134528095Y-93545732D02*
X134468571Y-93575494D01*
X134468571Y-93575494D02*
X134438809Y-93605255D01*
X134438809Y-93605255D02*
X134409047Y-93664779D01*
X134409047Y-93664779D02*
X134409047Y-93813589D01*
X134409047Y-93813589D02*
X134438809Y-93873113D01*
X134438809Y-93873113D02*
X134468571Y-93902875D01*
X134468571Y-93902875D02*
X134528095Y-93932636D01*
X134528095Y-93932636D02*
X134706666Y-93932636D01*
X134706666Y-93932636D02*
X134766190Y-93902875D01*
X134766190Y-93902875D02*
X134795952Y-93873113D01*
X134111428Y-93932636D02*
X133992380Y-93932636D01*
X133992380Y-93932636D02*
X133932857Y-93902875D01*
X133932857Y-93902875D02*
X133903095Y-93873113D01*
X133903095Y-93873113D02*
X133843571Y-93783827D01*
X133843571Y-93783827D02*
X133813809Y-93664779D01*
X133813809Y-93664779D02*
X133813809Y-93426684D01*
X133813809Y-93426684D02*
X133843571Y-93367160D01*
X133843571Y-93367160D02*
X133873333Y-93337398D01*
X133873333Y-93337398D02*
X133932857Y-93307636D01*
X133932857Y-93307636D02*
X134051904Y-93307636D01*
X134051904Y-93307636D02*
X134111428Y-93337398D01*
X134111428Y-93337398D02*
X134141190Y-93367160D01*
X134141190Y-93367160D02*
X134170952Y-93426684D01*
X134170952Y-93426684D02*
X134170952Y-93575494D01*
X134170952Y-93575494D02*
X134141190Y-93635017D01*
X134141190Y-93635017D02*
X134111428Y-93664779D01*
X134111428Y-93664779D02*
X134051904Y-93694541D01*
X134051904Y-93694541D02*
X133932857Y-93694541D01*
X133932857Y-93694541D02*
X133873333Y-93664779D01*
X133873333Y-93664779D02*
X133843571Y-93635017D01*
X133843571Y-93635017D02*
X133813809Y-93575494D01*
X132255952Y-93307636D02*
X131869047Y-93307636D01*
X131869047Y-93307636D02*
X132077380Y-93545732D01*
X132077380Y-93545732D02*
X131988095Y-93545732D01*
X131988095Y-93545732D02*
X131928571Y-93575494D01*
X131928571Y-93575494D02*
X131898809Y-93605255D01*
X131898809Y-93605255D02*
X131869047Y-93664779D01*
X131869047Y-93664779D02*
X131869047Y-93813589D01*
X131869047Y-93813589D02*
X131898809Y-93873113D01*
X131898809Y-93873113D02*
X131928571Y-93902875D01*
X131928571Y-93902875D02*
X131988095Y-93932636D01*
X131988095Y-93932636D02*
X132166666Y-93932636D01*
X132166666Y-93932636D02*
X132226190Y-93902875D01*
X132226190Y-93902875D02*
X132255952Y-93873113D01*
X131333333Y-93515970D02*
X131333333Y-93932636D01*
X131482142Y-93277875D02*
X131630952Y-93724303D01*
X131630952Y-93724303D02*
X131244047Y-93724303D01*
X103311997Y-101687398D02*
X103371521Y-101657636D01*
X103371521Y-101657636D02*
X103460807Y-101657636D01*
X103460807Y-101657636D02*
X103550092Y-101687398D01*
X103550092Y-101687398D02*
X103609616Y-101746922D01*
X103609616Y-101746922D02*
X103639378Y-101806446D01*
X103639378Y-101806446D02*
X103669140Y-101925494D01*
X103669140Y-101925494D02*
X103669140Y-102014779D01*
X103669140Y-102014779D02*
X103639378Y-102133827D01*
X103639378Y-102133827D02*
X103609616Y-102193351D01*
X103609616Y-102193351D02*
X103550092Y-102252875D01*
X103550092Y-102252875D02*
X103460807Y-102282636D01*
X103460807Y-102282636D02*
X103401283Y-102282636D01*
X103401283Y-102282636D02*
X103311997Y-102252875D01*
X103311997Y-102252875D02*
X103282235Y-102223113D01*
X103282235Y-102223113D02*
X103282235Y-102014779D01*
X103282235Y-102014779D02*
X103401283Y-102014779D01*
X103014378Y-101865970D02*
X103014378Y-102282636D01*
X103014378Y-101925494D02*
X102984616Y-101895732D01*
X102984616Y-101895732D02*
X102925092Y-101865970D01*
X102925092Y-101865970D02*
X102835807Y-101865970D01*
X102835807Y-101865970D02*
X102776283Y-101895732D01*
X102776283Y-101895732D02*
X102746521Y-101955255D01*
X102746521Y-101955255D02*
X102746521Y-102282636D01*
X102181045Y-102282636D02*
X102181045Y-101657636D01*
X102181045Y-102252875D02*
X102240569Y-102282636D01*
X102240569Y-102282636D02*
X102359616Y-102282636D01*
X102359616Y-102282636D02*
X102419140Y-102252875D01*
X102419140Y-102252875D02*
X102448902Y-102223113D01*
X102448902Y-102223113D02*
X102478664Y-102163589D01*
X102478664Y-102163589D02*
X102478664Y-101985017D01*
X102478664Y-101985017D02*
X102448902Y-101925494D01*
X102448902Y-101925494D02*
X102419140Y-101895732D01*
X102419140Y-101895732D02*
X102359616Y-101865970D01*
X102359616Y-101865970D02*
X102240569Y-101865970D01*
X102240569Y-101865970D02*
X102181045Y-101895732D01*
X129715952Y-93307636D02*
X129329047Y-93307636D01*
X129329047Y-93307636D02*
X129537380Y-93545732D01*
X129537380Y-93545732D02*
X129448095Y-93545732D01*
X129448095Y-93545732D02*
X129388571Y-93575494D01*
X129388571Y-93575494D02*
X129358809Y-93605255D01*
X129358809Y-93605255D02*
X129329047Y-93664779D01*
X129329047Y-93664779D02*
X129329047Y-93813589D01*
X129329047Y-93813589D02*
X129358809Y-93873113D01*
X129358809Y-93873113D02*
X129388571Y-93902875D01*
X129388571Y-93902875D02*
X129448095Y-93932636D01*
X129448095Y-93932636D02*
X129626666Y-93932636D01*
X129626666Y-93932636D02*
X129686190Y-93902875D01*
X129686190Y-93902875D02*
X129715952Y-93873113D01*
X128763571Y-93307636D02*
X129061190Y-93307636D01*
X129061190Y-93307636D02*
X129090952Y-93605255D01*
X129090952Y-93605255D02*
X129061190Y-93575494D01*
X129061190Y-93575494D02*
X129001666Y-93545732D01*
X129001666Y-93545732D02*
X128852857Y-93545732D01*
X128852857Y-93545732D02*
X128793333Y-93575494D01*
X128793333Y-93575494D02*
X128763571Y-93605255D01*
X128763571Y-93605255D02*
X128733809Y-93664779D01*
X128733809Y-93664779D02*
X128733809Y-93813589D01*
X128733809Y-93813589D02*
X128763571Y-93873113D01*
X128763571Y-93873113D02*
X128793333Y-93902875D01*
X128793333Y-93902875D02*
X128852857Y-93932636D01*
X128852857Y-93932636D02*
X129001666Y-93932636D01*
X129001666Y-93932636D02*
X129061190Y-93902875D01*
X129061190Y-93902875D02*
X129090952Y-93873113D01*
D10*
X132962782Y-94726109D02*
X132653258Y-94726109D01*
X132653258Y-94726109D02*
X132819925Y-94916585D01*
X132819925Y-94916585D02*
X132748496Y-94916585D01*
X132748496Y-94916585D02*
X132700877Y-94940395D01*
X132700877Y-94940395D02*
X132677068Y-94964204D01*
X132677068Y-94964204D02*
X132653258Y-95011823D01*
X132653258Y-95011823D02*
X132653258Y-95130871D01*
X132653258Y-95130871D02*
X132677068Y-95178490D01*
X132677068Y-95178490D02*
X132700877Y-95202300D01*
X132700877Y-95202300D02*
X132748496Y-95226109D01*
X132748496Y-95226109D02*
X132891353Y-95226109D01*
X132891353Y-95226109D02*
X132938972Y-95202300D01*
X132938972Y-95202300D02*
X132962782Y-95178490D01*
X132367544Y-94940395D02*
X132415163Y-94916585D01*
X132415163Y-94916585D02*
X132438973Y-94892776D01*
X132438973Y-94892776D02*
X132462782Y-94845157D01*
X132462782Y-94845157D02*
X132462782Y-94821347D01*
X132462782Y-94821347D02*
X132438973Y-94773728D01*
X132438973Y-94773728D02*
X132415163Y-94749919D01*
X132415163Y-94749919D02*
X132367544Y-94726109D01*
X132367544Y-94726109D02*
X132272306Y-94726109D01*
X132272306Y-94726109D02*
X132224687Y-94749919D01*
X132224687Y-94749919D02*
X132200878Y-94773728D01*
X132200878Y-94773728D02*
X132177068Y-94821347D01*
X132177068Y-94821347D02*
X132177068Y-94845157D01*
X132177068Y-94845157D02*
X132200878Y-94892776D01*
X132200878Y-94892776D02*
X132224687Y-94916585D01*
X132224687Y-94916585D02*
X132272306Y-94940395D01*
X132272306Y-94940395D02*
X132367544Y-94940395D01*
X132367544Y-94940395D02*
X132415163Y-94964204D01*
X132415163Y-94964204D02*
X132438973Y-94988014D01*
X132438973Y-94988014D02*
X132462782Y-95035633D01*
X132462782Y-95035633D02*
X132462782Y-95130871D01*
X132462782Y-95130871D02*
X132438973Y-95178490D01*
X132438973Y-95178490D02*
X132415163Y-95202300D01*
X132415163Y-95202300D02*
X132367544Y-95226109D01*
X132367544Y-95226109D02*
X132272306Y-95226109D01*
X132272306Y-95226109D02*
X132224687Y-95202300D01*
X132224687Y-95202300D02*
X132200878Y-95178490D01*
X132200878Y-95178490D02*
X132177068Y-95130871D01*
X132177068Y-95130871D02*
X132177068Y-95035633D01*
X132177068Y-95035633D02*
X132200878Y-94988014D01*
X132200878Y-94988014D02*
X132224687Y-94964204D01*
X132224687Y-94964204D02*
X132272306Y-94940395D01*
D11*
X104382236Y-99244541D02*
X103906046Y-99244541D01*
X103608426Y-99482636D02*
X103608426Y-98857636D01*
X103608426Y-98857636D02*
X103459616Y-98857636D01*
X103459616Y-98857636D02*
X103370331Y-98887398D01*
X103370331Y-98887398D02*
X103310807Y-98946922D01*
X103310807Y-98946922D02*
X103281045Y-99006446D01*
X103281045Y-99006446D02*
X103251283Y-99125494D01*
X103251283Y-99125494D02*
X103251283Y-99214779D01*
X103251283Y-99214779D02*
X103281045Y-99333827D01*
X103281045Y-99333827D02*
X103310807Y-99393351D01*
X103310807Y-99393351D02*
X103370331Y-99452875D01*
X103370331Y-99452875D02*
X103459616Y-99482636D01*
X103459616Y-99482636D02*
X103608426Y-99482636D01*
X126775190Y-95683332D02*
X126775190Y-95373808D01*
X126775190Y-95373808D02*
X126584714Y-95540475D01*
X126584714Y-95540475D02*
X126584714Y-95469046D01*
X126584714Y-95469046D02*
X126560904Y-95421427D01*
X126560904Y-95421427D02*
X126537095Y-95397618D01*
X126537095Y-95397618D02*
X126489476Y-95373808D01*
X126489476Y-95373808D02*
X126370428Y-95373808D01*
X126370428Y-95373808D02*
X126322809Y-95397618D01*
X126322809Y-95397618D02*
X126299000Y-95421427D01*
X126299000Y-95421427D02*
X126275190Y-95469046D01*
X126275190Y-95469046D02*
X126275190Y-95611903D01*
X126275190Y-95611903D02*
X126299000Y-95659522D01*
X126299000Y-95659522D02*
X126322809Y-95683332D01*
X126727571Y-95183332D02*
X126751380Y-95159523D01*
X126751380Y-95159523D02*
X126775190Y-95111904D01*
X126775190Y-95111904D02*
X126775190Y-94992856D01*
X126775190Y-94992856D02*
X126751380Y-94945237D01*
X126751380Y-94945237D02*
X126727571Y-94921428D01*
X126727571Y-94921428D02*
X126679952Y-94897618D01*
X126679952Y-94897618D02*
X126632333Y-94897618D01*
X126632333Y-94897618D02*
X126560904Y-94921428D01*
X126560904Y-94921428D02*
X126275190Y-95207142D01*
X126275190Y-95207142D02*
X126275190Y-94897618D01*
X126227571Y-94802381D02*
X126227571Y-94421428D01*
X126775190Y-94350000D02*
X126275190Y-94016667D01*
X126775190Y-94016667D02*
X126275190Y-94350000D01*
X126275190Y-93826191D02*
X126775190Y-93826191D01*
X126775190Y-93826191D02*
X126775190Y-93635715D01*
X126775190Y-93635715D02*
X126751380Y-93588096D01*
X126751380Y-93588096D02*
X126727571Y-93564286D01*
X126727571Y-93564286D02*
X126679952Y-93540477D01*
X126679952Y-93540477D02*
X126608523Y-93540477D01*
X126608523Y-93540477D02*
X126560904Y-93564286D01*
X126560904Y-93564286D02*
X126537095Y-93588096D01*
X126537095Y-93588096D02*
X126513285Y-93635715D01*
X126513285Y-93635715D02*
X126513285Y-93826191D01*
X131869047Y-106632636D02*
X132226190Y-106632636D01*
X132047618Y-106632636D02*
X132047618Y-106007636D01*
X132047618Y-106007636D02*
X132107142Y-106096922D01*
X132107142Y-106096922D02*
X132166666Y-106156446D01*
X132166666Y-106156446D02*
X132226190Y-106186208D01*
X131511904Y-106275494D02*
X131571428Y-106245732D01*
X131571428Y-106245732D02*
X131601190Y-106215970D01*
X131601190Y-106215970D02*
X131630952Y-106156446D01*
X131630952Y-106156446D02*
X131630952Y-106126684D01*
X131630952Y-106126684D02*
X131601190Y-106067160D01*
X131601190Y-106067160D02*
X131571428Y-106037398D01*
X131571428Y-106037398D02*
X131511904Y-106007636D01*
X131511904Y-106007636D02*
X131392857Y-106007636D01*
X131392857Y-106007636D02*
X131333333Y-106037398D01*
X131333333Y-106037398D02*
X131303571Y-106067160D01*
X131303571Y-106067160D02*
X131273809Y-106126684D01*
X131273809Y-106126684D02*
X131273809Y-106156446D01*
X131273809Y-106156446D02*
X131303571Y-106215970D01*
X131303571Y-106215970D02*
X131333333Y-106245732D01*
X131333333Y-106245732D02*
X131392857Y-106275494D01*
X131392857Y-106275494D02*
X131511904Y-106275494D01*
X131511904Y-106275494D02*
X131571428Y-106305255D01*
X131571428Y-106305255D02*
X131601190Y-106335017D01*
X131601190Y-106335017D02*
X131630952Y-106394541D01*
X131630952Y-106394541D02*
X131630952Y-106513589D01*
X131630952Y-106513589D02*
X131601190Y-106573113D01*
X131601190Y-106573113D02*
X131571428Y-106602875D01*
X131571428Y-106602875D02*
X131511904Y-106632636D01*
X131511904Y-106632636D02*
X131392857Y-106632636D01*
X131392857Y-106632636D02*
X131333333Y-106602875D01*
X131333333Y-106602875D02*
X131303571Y-106573113D01*
X131303571Y-106573113D02*
X131273809Y-106513589D01*
X131273809Y-106513589D02*
X131273809Y-106394541D01*
X131273809Y-106394541D02*
X131303571Y-106335017D01*
X131303571Y-106335017D02*
X131333333Y-106305255D01*
X131333333Y-106305255D02*
X131392857Y-106275494D01*
X127146190Y-106067160D02*
X127116428Y-106037398D01*
X127116428Y-106037398D02*
X127056904Y-106007636D01*
X127056904Y-106007636D02*
X126908095Y-106007636D01*
X126908095Y-106007636D02*
X126848571Y-106037398D01*
X126848571Y-106037398D02*
X126818809Y-106067160D01*
X126818809Y-106067160D02*
X126789047Y-106126684D01*
X126789047Y-106126684D02*
X126789047Y-106186208D01*
X126789047Y-106186208D02*
X126818809Y-106275494D01*
X126818809Y-106275494D02*
X127175952Y-106632636D01*
X127175952Y-106632636D02*
X126789047Y-106632636D01*
X126193809Y-106632636D02*
X126550952Y-106632636D01*
X126372380Y-106632636D02*
X126372380Y-106007636D01*
X126372380Y-106007636D02*
X126431904Y-106096922D01*
X126431904Y-106096922D02*
X126491428Y-106156446D01*
X126491428Y-106156446D02*
X126550952Y-106186208D01*
X104382236Y-100794541D02*
X103906046Y-100794541D01*
X104144141Y-101032636D02*
X104144141Y-100556446D01*
X103608426Y-101032636D02*
X103608426Y-100407636D01*
X103608426Y-100407636D02*
X103459616Y-100407636D01*
X103459616Y-100407636D02*
X103370331Y-100437398D01*
X103370331Y-100437398D02*
X103310807Y-100496922D01*
X103310807Y-100496922D02*
X103281045Y-100556446D01*
X103281045Y-100556446D02*
X103251283Y-100675494D01*
X103251283Y-100675494D02*
X103251283Y-100764779D01*
X103251283Y-100764779D02*
X103281045Y-100883827D01*
X103281045Y-100883827D02*
X103310807Y-100943351D01*
X103310807Y-100943351D02*
X103370331Y-101002875D01*
X103370331Y-101002875D02*
X103459616Y-101032636D01*
X103459616Y-101032636D02*
X103608426Y-101032636D01*
X134141190Y-106007636D02*
X134438809Y-106007636D01*
X134438809Y-106007636D02*
X134468571Y-106305255D01*
X134468571Y-106305255D02*
X134438809Y-106275494D01*
X134438809Y-106275494D02*
X134379285Y-106245732D01*
X134379285Y-106245732D02*
X134230476Y-106245732D01*
X134230476Y-106245732D02*
X134170952Y-106275494D01*
X134170952Y-106275494D02*
X134141190Y-106305255D01*
X134141190Y-106305255D02*
X134111428Y-106364779D01*
X134111428Y-106364779D02*
X134111428Y-106513589D01*
X134111428Y-106513589D02*
X134141190Y-106573113D01*
X134141190Y-106573113D02*
X134170952Y-106602875D01*
X134170952Y-106602875D02*
X134230476Y-106632636D01*
X134230476Y-106632636D02*
X134379285Y-106632636D01*
X134379285Y-106632636D02*
X134438809Y-106602875D01*
X134438809Y-106602875D02*
X134468571Y-106573113D01*
X122066190Y-93748160D02*
X122036428Y-93718398D01*
X122036428Y-93718398D02*
X121976904Y-93688636D01*
X121976904Y-93688636D02*
X121828095Y-93688636D01*
X121828095Y-93688636D02*
X121768571Y-93718398D01*
X121768571Y-93718398D02*
X121738809Y-93748160D01*
X121738809Y-93748160D02*
X121709047Y-93807684D01*
X121709047Y-93807684D02*
X121709047Y-93867208D01*
X121709047Y-93867208D02*
X121738809Y-93956494D01*
X121738809Y-93956494D02*
X122095952Y-94313636D01*
X122095952Y-94313636D02*
X121709047Y-94313636D01*
X121143571Y-93688636D02*
X121441190Y-93688636D01*
X121441190Y-93688636D02*
X121470952Y-93986255D01*
X121470952Y-93986255D02*
X121441190Y-93956494D01*
X121441190Y-93956494D02*
X121381666Y-93926732D01*
X121381666Y-93926732D02*
X121232857Y-93926732D01*
X121232857Y-93926732D02*
X121173333Y-93956494D01*
X121173333Y-93956494D02*
X121143571Y-93986255D01*
X121143571Y-93986255D02*
X121113809Y-94045779D01*
X121113809Y-94045779D02*
X121113809Y-94194589D01*
X121113809Y-94194589D02*
X121143571Y-94254113D01*
X121143571Y-94254113D02*
X121173333Y-94283875D01*
X121173333Y-94283875D02*
X121232857Y-94313636D01*
X121232857Y-94313636D02*
X121381666Y-94313636D01*
X121381666Y-94313636D02*
X121441190Y-94283875D01*
X121441190Y-94283875D02*
X121470952Y-94254113D01*
X129686190Y-106067160D02*
X129656428Y-106037398D01*
X129656428Y-106037398D02*
X129596904Y-106007636D01*
X129596904Y-106007636D02*
X129448095Y-106007636D01*
X129448095Y-106007636D02*
X129388571Y-106037398D01*
X129388571Y-106037398D02*
X129358809Y-106067160D01*
X129358809Y-106067160D02*
X129329047Y-106126684D01*
X129329047Y-106126684D02*
X129329047Y-106186208D01*
X129329047Y-106186208D02*
X129358809Y-106275494D01*
X129358809Y-106275494D02*
X129715952Y-106632636D01*
X129715952Y-106632636D02*
X129329047Y-106632636D01*
X129120714Y-106007636D02*
X128733809Y-106007636D01*
X128733809Y-106007636D02*
X128942142Y-106245732D01*
X128942142Y-106245732D02*
X128852857Y-106245732D01*
X128852857Y-106245732D02*
X128793333Y-106275494D01*
X128793333Y-106275494D02*
X128763571Y-106305255D01*
X128763571Y-106305255D02*
X128733809Y-106364779D01*
X128733809Y-106364779D02*
X128733809Y-106513589D01*
X128733809Y-106513589D02*
X128763571Y-106573113D01*
X128763571Y-106573113D02*
X128793333Y-106602875D01*
X128793333Y-106602875D02*
X128852857Y-106632636D01*
X128852857Y-106632636D02*
X129031428Y-106632636D01*
X129031428Y-106632636D02*
X129090952Y-106602875D01*
X129090952Y-106602875D02*
X129120714Y-106573113D01*
X124375190Y-95695237D02*
X124375190Y-95385713D01*
X124375190Y-95385713D02*
X124184714Y-95552380D01*
X124184714Y-95552380D02*
X124184714Y-95480951D01*
X124184714Y-95480951D02*
X124160904Y-95433332D01*
X124160904Y-95433332D02*
X124137095Y-95409523D01*
X124137095Y-95409523D02*
X124089476Y-95385713D01*
X124089476Y-95385713D02*
X123970428Y-95385713D01*
X123970428Y-95385713D02*
X123922809Y-95409523D01*
X123922809Y-95409523D02*
X123899000Y-95433332D01*
X123899000Y-95433332D02*
X123875190Y-95480951D01*
X123875190Y-95480951D02*
X123875190Y-95623808D01*
X123875190Y-95623808D02*
X123899000Y-95671427D01*
X123899000Y-95671427D02*
X123922809Y-95695237D01*
X124327571Y-95195237D02*
X124351380Y-95171428D01*
X124351380Y-95171428D02*
X124375190Y-95123809D01*
X124375190Y-95123809D02*
X124375190Y-95004761D01*
X124375190Y-95004761D02*
X124351380Y-94957142D01*
X124351380Y-94957142D02*
X124327571Y-94933333D01*
X124327571Y-94933333D02*
X124279952Y-94909523D01*
X124279952Y-94909523D02*
X124232333Y-94909523D01*
X124232333Y-94909523D02*
X124160904Y-94933333D01*
X124160904Y-94933333D02*
X123875190Y-95219047D01*
X123875190Y-95219047D02*
X123875190Y-94909523D01*
X123827571Y-94814286D02*
X123827571Y-94433333D01*
X124375190Y-94361905D02*
X123875190Y-94028572D01*
X124375190Y-94028572D02*
X123875190Y-94361905D01*
X123875190Y-93838096D02*
X124375190Y-93838096D01*
X124375190Y-93838096D02*
X123875190Y-93552382D01*
X123875190Y-93552382D02*
X124375190Y-93552382D01*
D12*
X125299999Y-97325809D02*
X124966666Y-97325809D01*
X124823809Y-97849619D02*
X125299999Y-97849619D01*
X125299999Y-97849619D02*
X125299999Y-96849619D01*
X125299999Y-96849619D02*
X124823809Y-96849619D01*
X124442856Y-97802000D02*
X124299999Y-97849619D01*
X124299999Y-97849619D02*
X124061904Y-97849619D01*
X124061904Y-97849619D02*
X123966666Y-97802000D01*
X123966666Y-97802000D02*
X123919047Y-97754380D01*
X123919047Y-97754380D02*
X123871428Y-97659142D01*
X123871428Y-97659142D02*
X123871428Y-97563904D01*
X123871428Y-97563904D02*
X123919047Y-97468666D01*
X123919047Y-97468666D02*
X123966666Y-97421047D01*
X123966666Y-97421047D02*
X124061904Y-97373428D01*
X124061904Y-97373428D02*
X124252380Y-97325809D01*
X124252380Y-97325809D02*
X124347618Y-97278190D01*
X124347618Y-97278190D02*
X124395237Y-97230571D01*
X124395237Y-97230571D02*
X124442856Y-97135333D01*
X124442856Y-97135333D02*
X124442856Y-97040095D01*
X124442856Y-97040095D02*
X124395237Y-96944857D01*
X124395237Y-96944857D02*
X124347618Y-96897238D01*
X124347618Y-96897238D02*
X124252380Y-96849619D01*
X124252380Y-96849619D02*
X124014285Y-96849619D01*
X124014285Y-96849619D02*
X123871428Y-96897238D01*
X123442856Y-97849619D02*
X123442856Y-96849619D01*
X123442856Y-96849619D02*
X123061904Y-96849619D01*
X123061904Y-96849619D02*
X122966666Y-96897238D01*
X122966666Y-96897238D02*
X122919047Y-96944857D01*
X122919047Y-96944857D02*
X122871428Y-97040095D01*
X122871428Y-97040095D02*
X122871428Y-97182952D01*
X122871428Y-97182952D02*
X122919047Y-97278190D01*
X122919047Y-97278190D02*
X122966666Y-97325809D01*
X122966666Y-97325809D02*
X123061904Y-97373428D01*
X123061904Y-97373428D02*
X123442856Y-97373428D01*
X122538094Y-96849619D02*
X121919047Y-96849619D01*
X121919047Y-96849619D02*
X122252380Y-97230571D01*
X122252380Y-97230571D02*
X122109523Y-97230571D01*
X122109523Y-97230571D02*
X122014285Y-97278190D01*
X122014285Y-97278190D02*
X121966666Y-97325809D01*
X121966666Y-97325809D02*
X121919047Y-97421047D01*
X121919047Y-97421047D02*
X121919047Y-97659142D01*
X121919047Y-97659142D02*
X121966666Y-97754380D01*
X121966666Y-97754380D02*
X122014285Y-97802000D01*
X122014285Y-97802000D02*
X122109523Y-97849619D01*
X122109523Y-97849619D02*
X122395237Y-97849619D01*
X122395237Y-97849619D02*
X122490475Y-97802000D01*
X122490475Y-97802000D02*
X122538094Y-97754380D01*
X121538094Y-96944857D02*
X121490475Y-96897238D01*
X121490475Y-96897238D02*
X121395237Y-96849619D01*
X121395237Y-96849619D02*
X121157142Y-96849619D01*
X121157142Y-96849619D02*
X121061904Y-96897238D01*
X121061904Y-96897238D02*
X121014285Y-96944857D01*
X121014285Y-96944857D02*
X120966666Y-97040095D01*
X120966666Y-97040095D02*
X120966666Y-97135333D01*
X120966666Y-97135333D02*
X121014285Y-97278190D01*
X121014285Y-97278190D02*
X121585713Y-97849619D01*
X121585713Y-97849619D02*
X120966666Y-97849619D01*
X120538094Y-97468666D02*
X119776190Y-97468666D01*
X118728571Y-97849619D02*
X119061904Y-97373428D01*
X119299999Y-97849619D02*
X119299999Y-96849619D01*
X119299999Y-96849619D02*
X118919047Y-96849619D01*
X118919047Y-96849619D02*
X118823809Y-96897238D01*
X118823809Y-96897238D02*
X118776190Y-96944857D01*
X118776190Y-96944857D02*
X118728571Y-97040095D01*
X118728571Y-97040095D02*
X118728571Y-97182952D01*
X118728571Y-97182952D02*
X118776190Y-97278190D01*
X118776190Y-97278190D02*
X118823809Y-97325809D01*
X118823809Y-97325809D02*
X118919047Y-97373428D01*
X118919047Y-97373428D02*
X119299999Y-97373428D01*
X118299999Y-97325809D02*
X117966666Y-97325809D01*
X117823809Y-97849619D02*
X118299999Y-97849619D01*
X118299999Y-97849619D02*
X118299999Y-96849619D01*
X118299999Y-96849619D02*
X117823809Y-96849619D01*
X117442856Y-97563904D02*
X116966666Y-97563904D01*
X117538094Y-97849619D02*
X117204761Y-96849619D01*
X117204761Y-96849619D02*
X116871428Y-97849619D01*
X115966666Y-97754380D02*
X116014285Y-97802000D01*
X116014285Y-97802000D02*
X116157142Y-97849619D01*
X116157142Y-97849619D02*
X116252380Y-97849619D01*
X116252380Y-97849619D02*
X116395237Y-97802000D01*
X116395237Y-97802000D02*
X116490475Y-97706761D01*
X116490475Y-97706761D02*
X116538094Y-97611523D01*
X116538094Y-97611523D02*
X116585713Y-97421047D01*
X116585713Y-97421047D02*
X116585713Y-97278190D01*
X116585713Y-97278190D02*
X116538094Y-97087714D01*
X116538094Y-97087714D02*
X116490475Y-96992476D01*
X116490475Y-96992476D02*
X116395237Y-96897238D01*
X116395237Y-96897238D02*
X116252380Y-96849619D01*
X116252380Y-96849619D02*
X116157142Y-96849619D01*
X116157142Y-96849619D02*
X116014285Y-96897238D01*
X116014285Y-96897238D02*
X115966666Y-96944857D01*
X115680951Y-96849619D02*
X115109523Y-96849619D01*
X115395237Y-97849619D02*
X115395237Y-96849619D01*
X114490475Y-96849619D02*
X114490475Y-97563904D01*
X114490475Y-97563904D02*
X114538094Y-97706761D01*
X114538094Y-97706761D02*
X114633332Y-97802000D01*
X114633332Y-97802000D02*
X114776189Y-97849619D01*
X114776189Y-97849619D02*
X114871427Y-97849619D01*
X114061903Y-97802000D02*
X113919046Y-97849619D01*
X113919046Y-97849619D02*
X113680951Y-97849619D01*
X113680951Y-97849619D02*
X113585713Y-97802000D01*
X113585713Y-97802000D02*
X113538094Y-97754380D01*
X113538094Y-97754380D02*
X113490475Y-97659142D01*
X113490475Y-97659142D02*
X113490475Y-97563904D01*
X113490475Y-97563904D02*
X113538094Y-97468666D01*
X113538094Y-97468666D02*
X113585713Y-97421047D01*
X113585713Y-97421047D02*
X113680951Y-97373428D01*
X113680951Y-97373428D02*
X113871427Y-97325809D01*
X113871427Y-97325809D02*
X113966665Y-97278190D01*
X113966665Y-97278190D02*
X114014284Y-97230571D01*
X114014284Y-97230571D02*
X114061903Y-97135333D01*
X114061903Y-97135333D02*
X114061903Y-97040095D01*
X114061903Y-97040095D02*
X114014284Y-96944857D01*
X114014284Y-96944857D02*
X113966665Y-96897238D01*
X113966665Y-96897238D02*
X113871427Y-96849619D01*
X113871427Y-96849619D02*
X113633332Y-96849619D01*
X113633332Y-96849619D02*
X113490475Y-96897238D01*
X113061903Y-97468666D02*
X112299999Y-97468666D01*
X111823808Y-97849619D02*
X111823808Y-96849619D01*
X111823808Y-96849619D02*
X111585713Y-96849619D01*
X111585713Y-96849619D02*
X111442856Y-96897238D01*
X111442856Y-96897238D02*
X111347618Y-96992476D01*
X111347618Y-96992476D02*
X111299999Y-97087714D01*
X111299999Y-97087714D02*
X111252380Y-97278190D01*
X111252380Y-97278190D02*
X111252380Y-97421047D01*
X111252380Y-97421047D02*
X111299999Y-97611523D01*
X111299999Y-97611523D02*
X111347618Y-97706761D01*
X111347618Y-97706761D02*
X111442856Y-97802000D01*
X111442856Y-97802000D02*
X111585713Y-97849619D01*
X111585713Y-97849619D02*
X111823808Y-97849619D01*
X110823808Y-97325809D02*
X110490475Y-97325809D01*
X110347618Y-97849619D02*
X110823808Y-97849619D01*
X110823808Y-97849619D02*
X110823808Y-96849619D01*
X110823808Y-96849619D02*
X110347618Y-96849619D01*
X110061903Y-96849619D02*
X109728570Y-97849619D01*
X109728570Y-97849619D02*
X109395237Y-96849619D01*
X109061903Y-97849619D02*
X109061903Y-96849619D01*
X108490475Y-97849619D02*
X108919046Y-97278190D01*
X108490475Y-96849619D02*
X109061903Y-97421047D01*
X108061903Y-97849619D02*
X108061903Y-96849619D01*
X107728570Y-96849619D02*
X107157142Y-96849619D01*
X107442856Y-97849619D02*
X107442856Y-96849619D01*
D13*
X107846428Y-99289164D02*
X107846428Y-98789164D01*
X107846428Y-98932021D02*
X107810714Y-98860592D01*
X107810714Y-98860592D02*
X107775000Y-98824878D01*
X107775000Y-98824878D02*
X107703571Y-98789164D01*
X107703571Y-98789164D02*
X107632142Y-98789164D01*
X107239285Y-98539164D02*
X107167856Y-98539164D01*
X107167856Y-98539164D02*
X107096428Y-98574878D01*
X107096428Y-98574878D02*
X107060714Y-98610592D01*
X107060714Y-98610592D02*
X107024999Y-98682021D01*
X107024999Y-98682021D02*
X106989285Y-98824878D01*
X106989285Y-98824878D02*
X106989285Y-99003450D01*
X106989285Y-99003450D02*
X107024999Y-99146307D01*
X107024999Y-99146307D02*
X107060714Y-99217735D01*
X107060714Y-99217735D02*
X107096428Y-99253450D01*
X107096428Y-99253450D02*
X107167856Y-99289164D01*
X107167856Y-99289164D02*
X107239285Y-99289164D01*
X107239285Y-99289164D02*
X107310714Y-99253450D01*
X107310714Y-99253450D02*
X107346428Y-99217735D01*
X107346428Y-99217735D02*
X107382142Y-99146307D01*
X107382142Y-99146307D02*
X107417856Y-99003450D01*
X107417856Y-99003450D02*
X107417856Y-98824878D01*
X107417856Y-98824878D02*
X107382142Y-98682021D01*
X107382142Y-98682021D02*
X107346428Y-98610592D01*
X107346428Y-98610592D02*
X107310714Y-98574878D01*
X107310714Y-98574878D02*
X107239285Y-98539164D01*
X106667856Y-99217735D02*
X106632142Y-99253450D01*
X106632142Y-99253450D02*
X106667856Y-99289164D01*
X106667856Y-99289164D02*
X106703570Y-99253450D01*
X106703570Y-99253450D02*
X106667856Y-99217735D01*
X106667856Y-99217735D02*
X106667856Y-99289164D01*
X105917856Y-99289164D02*
X106346427Y-99289164D01*
X106132142Y-99289164D02*
X106132142Y-98539164D01*
X106132142Y-98539164D02*
X106203570Y-98646307D01*
X106203570Y-98646307D02*
X106274999Y-98717735D01*
X106274999Y-98717735D02*
X106346427Y-98753450D01*
D10*
X107328570Y-101964204D02*
X107257142Y-101988014D01*
X107257142Y-101988014D02*
X107233332Y-102011823D01*
X107233332Y-102011823D02*
X107209523Y-102059442D01*
X107209523Y-102059442D02*
X107209523Y-102130871D01*
X107209523Y-102130871D02*
X107233332Y-102178490D01*
X107233332Y-102178490D02*
X107257142Y-102202300D01*
X107257142Y-102202300D02*
X107304761Y-102226109D01*
X107304761Y-102226109D02*
X107495237Y-102226109D01*
X107495237Y-102226109D02*
X107495237Y-101726109D01*
X107495237Y-101726109D02*
X107328570Y-101726109D01*
X107328570Y-101726109D02*
X107280951Y-101749919D01*
X107280951Y-101749919D02*
X107257142Y-101773728D01*
X107257142Y-101773728D02*
X107233332Y-101821347D01*
X107233332Y-101821347D02*
X107233332Y-101868966D01*
X107233332Y-101868966D02*
X107257142Y-101916585D01*
X107257142Y-101916585D02*
X107280951Y-101940395D01*
X107280951Y-101940395D02*
X107328570Y-101964204D01*
X107328570Y-101964204D02*
X107495237Y-101964204D01*
X106899999Y-101988014D02*
X106899999Y-102226109D01*
X107066665Y-101726109D02*
X106899999Y-101988014D01*
X106899999Y-101988014D02*
X106733332Y-101726109D01*
D11*
X121719047Y-106582636D02*
X122076190Y-106582636D01*
X121897618Y-106582636D02*
X121897618Y-105957636D01*
X121897618Y-105957636D02*
X121957142Y-106046922D01*
X121957142Y-106046922D02*
X122016666Y-106106446D01*
X122016666Y-106106446D02*
X122076190Y-106136208D01*
X121421428Y-106582636D02*
X121302380Y-106582636D01*
X121302380Y-106582636D02*
X121242857Y-106552875D01*
X121242857Y-106552875D02*
X121213095Y-106523113D01*
X121213095Y-106523113D02*
X121153571Y-106433827D01*
X121153571Y-106433827D02*
X121123809Y-106314779D01*
X121123809Y-106314779D02*
X121123809Y-106076684D01*
X121123809Y-106076684D02*
X121153571Y-106017160D01*
X121153571Y-106017160D02*
X121183333Y-105987398D01*
X121183333Y-105987398D02*
X121242857Y-105957636D01*
X121242857Y-105957636D02*
X121361904Y-105957636D01*
X121361904Y-105957636D02*
X121421428Y-105987398D01*
X121421428Y-105987398D02*
X121451190Y-106017160D01*
X121451190Y-106017160D02*
X121480952Y-106076684D01*
X121480952Y-106076684D02*
X121480952Y-106225494D01*
X121480952Y-106225494D02*
X121451190Y-106285017D01*
X121451190Y-106285017D02*
X121421428Y-106314779D01*
X121421428Y-106314779D02*
X121361904Y-106344541D01*
X121361904Y-106344541D02*
X121242857Y-106344541D01*
X121242857Y-106344541D02*
X121183333Y-106314779D01*
X121183333Y-106314779D02*
X121153571Y-106285017D01*
X121153571Y-106285017D02*
X121123809Y-106225494D01*
X124576190Y-106017160D02*
X124546428Y-105987398D01*
X124546428Y-105987398D02*
X124486904Y-105957636D01*
X124486904Y-105957636D02*
X124338095Y-105957636D01*
X124338095Y-105957636D02*
X124278571Y-105987398D01*
X124278571Y-105987398D02*
X124248809Y-106017160D01*
X124248809Y-106017160D02*
X124219047Y-106076684D01*
X124219047Y-106076684D02*
X124219047Y-106136208D01*
X124219047Y-106136208D02*
X124248809Y-106225494D01*
X124248809Y-106225494D02*
X124605952Y-106582636D01*
X124605952Y-106582636D02*
X124219047Y-106582636D01*
X123980952Y-106017160D02*
X123951190Y-105987398D01*
X123951190Y-105987398D02*
X123891666Y-105957636D01*
X123891666Y-105957636D02*
X123742857Y-105957636D01*
X123742857Y-105957636D02*
X123683333Y-105987398D01*
X123683333Y-105987398D02*
X123653571Y-106017160D01*
X123653571Y-106017160D02*
X123623809Y-106076684D01*
X123623809Y-106076684D02*
X123623809Y-106136208D01*
X123623809Y-106136208D02*
X123653571Y-106225494D01*
X123653571Y-106225494D02*
X124010714Y-106582636D01*
X124010714Y-106582636D02*
X123623809Y-106582636D01*
D14*
G36*
X109188142Y-101093976D02*
G01*
X109243289Y-101109704D01*
X109292963Y-101135911D01*
X109337167Y-101172591D01*
X109367026Y-101208490D01*
X109390252Y-101249093D01*
X109406845Y-101294402D01*
X109416801Y-101344423D01*
X109420120Y-101399160D01*
X109416838Y-101455095D01*
X109406993Y-101505896D01*
X109390583Y-101551561D01*
X109367609Y-101592089D01*
X109338072Y-101627478D01*
X109293806Y-101663406D01*
X109243063Y-101689054D01*
X109185851Y-101704434D01*
X109122180Y-101709558D01*
X109067849Y-101704904D01*
X109016702Y-101690932D01*
X108968761Y-101667628D01*
X108925738Y-101636218D01*
X108889460Y-101597862D01*
X108859925Y-101552548D01*
X108982997Y-101490107D01*
X109012555Y-101537674D01*
X109053596Y-101566225D01*
X109106132Y-101575745D01*
X109164133Y-101563690D01*
X109206070Y-101527540D01*
X109224885Y-101491862D01*
X109236179Y-101449065D01*
X109239945Y-101399129D01*
X109234588Y-101335539D01*
X109218523Y-101286086D01*
X109191754Y-101250765D01*
X109154289Y-101229576D01*
X109106132Y-101222513D01*
X109048124Y-101240340D01*
X109019385Y-101264887D01*
X108995517Y-101302782D01*
X108861673Y-101233190D01*
X108891365Y-101189031D01*
X108926898Y-101152903D01*
X108968277Y-101124807D01*
X109015504Y-101104746D01*
X109068584Y-101092720D01*
X109127519Y-101088732D01*
X109188142Y-101093976D01*
G37*
G36*
X108610101Y-101093976D02*
G01*
X108665236Y-101109704D01*
X108714897Y-101135911D01*
X108759082Y-101172591D01*
X108788968Y-101208490D01*
X108812206Y-101249093D01*
X108828798Y-101294402D01*
X108838750Y-101344423D01*
X108842067Y-101399160D01*
X108838821Y-101455095D01*
X108829081Y-101505896D01*
X108812839Y-101551561D01*
X108790091Y-101592089D01*
X108760830Y-101627478D01*
X108716872Y-101663406D01*
X108666106Y-101689054D01*
X108608526Y-101704434D01*
X108544126Y-101709558D01*
X108490811Y-101704904D01*
X108440265Y-101690932D01*
X108392487Y-101667628D01*
X108349304Y-101636218D01*
X108312441Y-101597862D01*
X108281934Y-101552548D01*
X108406817Y-101490107D01*
X108436337Y-101537674D01*
X108477360Y-101566225D01*
X108529858Y-101575745D01*
X108587894Y-101563690D01*
X108629796Y-101527540D01*
X108648619Y-101491862D01*
X108659928Y-101449065D01*
X108663702Y-101399129D01*
X108658345Y-101335539D01*
X108642278Y-101286086D01*
X108615505Y-101250765D01*
X108578030Y-101229576D01*
X108529858Y-101222513D01*
X108500694Y-101226977D01*
X108470102Y-101240340D01*
X108441336Y-101264887D01*
X108417463Y-101302782D01*
X108285430Y-101233190D01*
X108314559Y-101189031D01*
X108349646Y-101152903D01*
X108390688Y-101124807D01*
X108437679Y-101104746D01*
X108490617Y-101092720D01*
X108549496Y-101088732D01*
X108610101Y-101093976D01*
G37*
G36*
X108915942Y-100401722D02*
G01*
X108977581Y-100406886D01*
X109037679Y-100415493D01*
X109096236Y-100427542D01*
X109153252Y-100443032D01*
X109208726Y-100461964D01*
X109262660Y-100484337D01*
X109315052Y-100510150D01*
X109365903Y-100539402D01*
X109415212Y-100572095D01*
X109462980Y-100608226D01*
X109509206Y-100647797D01*
X109553890Y-100690805D01*
X109593768Y-100732879D01*
X109630846Y-100776518D01*
X109665123Y-100821723D01*
X109696598Y-100868493D01*
X109725270Y-100916828D01*
X109751139Y-100966730D01*
X109774204Y-101018197D01*
X109794318Y-101070754D01*
X109811336Y-101123925D01*
X109825257Y-101177713D01*
X109836083Y-101232119D01*
X109843815Y-101287145D01*
X109848454Y-101342794D01*
X109850000Y-101399067D01*
X109848470Y-101455759D01*
X109843881Y-101511649D01*
X109836233Y-101566737D01*
X109825526Y-101621023D01*
X109811761Y-101674510D01*
X109794938Y-101727196D01*
X109775058Y-101779083D01*
X109752248Y-101829823D01*
X109726635Y-101879069D01*
X109698220Y-101926820D01*
X109667000Y-101973077D01*
X109632976Y-102017838D01*
X109596147Y-102061105D01*
X109556512Y-102102877D01*
X109514709Y-102142520D01*
X109471377Y-102179398D01*
X109426516Y-102213511D01*
X109380127Y-102244856D01*
X109332211Y-102273434D01*
X109282769Y-102299241D01*
X109231803Y-102322276D01*
X109179716Y-102342410D01*
X109126939Y-102359435D01*
X109073471Y-102373356D01*
X109019314Y-102384175D01*
X108964466Y-102391899D01*
X108908929Y-102396530D01*
X108852702Y-102398072D01*
X108796382Y-102396510D01*
X108740568Y-102391822D01*
X108685262Y-102384006D01*
X108630465Y-102373061D01*
X108576179Y-102358983D01*
X108522407Y-102341771D01*
X108469149Y-102321423D01*
X108416926Y-102298117D01*
X108366308Y-102272036D01*
X108317296Y-102243183D01*
X108269890Y-102211563D01*
X108224090Y-102177179D01*
X108179895Y-102140034D01*
X108137306Y-102100133D01*
X108098455Y-102060031D01*
X108062400Y-102018216D01*
X108029143Y-101974687D01*
X107998685Y-101929448D01*
X107971028Y-101882498D01*
X107946175Y-101833840D01*
X107924126Y-101783473D01*
X107904978Y-101731736D01*
X107888773Y-101678939D01*
X107875511Y-101625082D01*
X107865195Y-101570166D01*
X107857825Y-101514191D01*
X107853402Y-101457157D01*
X107851930Y-101399128D01*
X108032118Y-101399128D01*
X108034049Y-101460785D01*
X108039842Y-101520523D01*
X108049496Y-101578342D01*
X108063013Y-101634241D01*
X108080392Y-101688222D01*
X108101634Y-101740285D01*
X108126738Y-101790429D01*
X108155706Y-101838656D01*
X108188536Y-101884966D01*
X108225230Y-101929359D01*
X108265787Y-101971835D01*
X108307056Y-102009541D01*
X108349944Y-102044173D01*
X108394458Y-102075734D01*
X108440602Y-102104227D01*
X108488384Y-102129656D01*
X108537810Y-102152025D01*
X108588380Y-102171107D01*
X108639471Y-102186709D01*
X108691088Y-102198834D01*
X108743238Y-102207489D01*
X108795928Y-102212678D01*
X108849165Y-102214406D01*
X108902891Y-102212697D01*
X108955826Y-102207571D01*
X109007968Y-102199027D01*
X109059313Y-102187063D01*
X109109859Y-102171681D01*
X109159605Y-102152879D01*
X109208143Y-102130808D01*
X109254978Y-102105678D01*
X109300117Y-102077483D01*
X109343564Y-102046218D01*
X109385326Y-102011878D01*
X109425409Y-101974457D01*
X109463155Y-101934617D01*
X109497873Y-101892992D01*
X109529566Y-101849579D01*
X109558236Y-101804377D01*
X109583884Y-101757382D01*
X109606514Y-101708592D01*
X109625885Y-101658641D01*
X109641728Y-101608039D01*
X109654045Y-101556787D01*
X109662839Y-101504884D01*
X109668113Y-101452331D01*
X109669870Y-101399128D01*
X109668113Y-101345377D01*
X109662839Y-101292368D01*
X109654045Y-101240102D01*
X109641728Y-101188580D01*
X109625885Y-101137803D01*
X109606514Y-101087773D01*
X109583895Y-101038936D01*
X109558250Y-100991739D01*
X109529578Y-100946177D01*
X109497880Y-100902249D01*
X109463157Y-100859953D01*
X109425409Y-100819286D01*
X109382013Y-100777800D01*
X109336819Y-100740263D01*
X109289828Y-100706674D01*
X109241039Y-100677035D01*
X109190452Y-100651345D01*
X109138067Y-100629606D01*
X109083883Y-100611818D01*
X109027902Y-100597982D01*
X108970121Y-100588098D01*
X108910543Y-100582168D01*
X108849165Y-100580191D01*
X108788346Y-100582181D01*
X108729149Y-100588154D01*
X108671572Y-100598107D01*
X108615617Y-100612042D01*
X108561281Y-100629958D01*
X108508565Y-100651855D01*
X108457469Y-100677734D01*
X108407990Y-100707593D01*
X108360130Y-100741433D01*
X108313888Y-100779253D01*
X108269262Y-100821054D01*
X108232174Y-100860624D01*
X108198152Y-100901971D01*
X108167200Y-100945095D01*
X108139320Y-100989998D01*
X108114516Y-101036683D01*
X108092791Y-101085151D01*
X108074259Y-101135005D01*
X108059092Y-101185847D01*
X108047293Y-101237679D01*
X108038864Y-101290502D01*
X108033805Y-101344318D01*
X108032118Y-101399128D01*
X107851930Y-101399128D01*
X107851928Y-101399067D01*
X107853423Y-101341412D01*
X107857909Y-101284668D01*
X107865382Y-101228835D01*
X107875841Y-101173912D01*
X107889282Y-101119899D01*
X107905703Y-101066795D01*
X107925101Y-101014599D01*
X107947384Y-100963686D01*
X107972433Y-100914406D01*
X108000246Y-100866761D01*
X108030823Y-100820753D01*
X108064164Y-100776385D01*
X108100268Y-100733657D01*
X108139135Y-100692573D01*
X108181821Y-100652272D01*
X108225784Y-100614956D01*
X108271024Y-100580624D01*
X108317539Y-100549278D01*
X108365330Y-100520916D01*
X108414396Y-100495539D01*
X108464736Y-100473148D01*
X108516350Y-100453742D01*
X108569238Y-100437321D01*
X108623398Y-100423886D01*
X108678832Y-100413436D01*
X108735537Y-100405972D01*
X108793514Y-100401493D01*
X108852763Y-100400000D01*
X108915942Y-100401722D01*
G37*
G36*
X105980998Y-100637788D02*
G01*
X106007389Y-100641987D01*
X106032339Y-100648986D01*
X106055851Y-100658784D01*
X106077926Y-100671382D01*
X106098563Y-100686779D01*
X106117224Y-100704728D01*
X106133354Y-100724983D01*
X106146955Y-100747543D01*
X106158027Y-100772407D01*
X106166571Y-100799577D01*
X106172587Y-100829052D01*
X106211801Y-100829037D01*
X106112784Y-100928054D01*
X106013783Y-100829037D01*
X106050358Y-100829037D01*
X106043770Y-100802057D01*
X106032326Y-100779983D01*
X106016025Y-100762815D01*
X105994864Y-100750553D01*
X105968844Y-100743196D01*
X105937963Y-100740744D01*
X105911911Y-100743337D01*
X105889106Y-100751115D01*
X105869538Y-100764077D01*
X105853198Y-100782221D01*
X105842609Y-100800332D01*
X105834370Y-100821472D01*
X105828484Y-100845644D01*
X105824951Y-100872850D01*
X105823773Y-100903093D01*
X105825058Y-100932202D01*
X105828914Y-100958892D01*
X105835341Y-100983157D01*
X105844341Y-101004995D01*
X105855914Y-101024401D01*
X105873252Y-101044298D01*
X105893159Y-101058514D01*
X105915626Y-101067045D01*
X105940648Y-101069890D01*
X105972939Y-101067362D01*
X105999629Y-101059779D01*
X106020717Y-101047142D01*
X106036204Y-101029448D01*
X106046090Y-101006700D01*
X106050373Y-100978897D01*
X106176178Y-100978897D01*
X106170649Y-101008927D01*
X106162397Y-101036578D01*
X106151422Y-101061850D01*
X106137721Y-101084745D01*
X106121293Y-101105262D01*
X106102137Y-101123402D01*
X106080980Y-101138941D01*
X106058533Y-101151653D01*
X106034796Y-101161539D01*
X106009770Y-101168599D01*
X105983455Y-101172834D01*
X105955852Y-101174245D01*
X105923840Y-101172688D01*
X105893581Y-101168015D01*
X105865072Y-101160230D01*
X105838311Y-101149331D01*
X105813296Y-101135322D01*
X105790025Y-101118202D01*
X105768496Y-101097973D01*
X105749336Y-101075397D01*
X105733123Y-101051237D01*
X105719856Y-101025491D01*
X105709537Y-100998160D01*
X105702165Y-100969243D01*
X105697741Y-100938741D01*
X105696267Y-100906652D01*
X105697687Y-100873632D01*
X105701947Y-100842358D01*
X105709047Y-100812830D01*
X105718987Y-100785049D01*
X105731767Y-100759016D01*
X105747385Y-100734730D01*
X105765842Y-100712193D01*
X105786704Y-100692088D01*
X105809535Y-100675073D01*
X105834333Y-100661150D01*
X105861097Y-100650318D01*
X105889825Y-100642580D01*
X105920516Y-100637937D01*
X105953167Y-100636389D01*
X105980998Y-100637788D01*
G37*
G36*
X105982693Y-100400861D02*
G01*
X106013317Y-100403442D01*
X106043224Y-100407745D01*
X106072412Y-100413769D01*
X106100883Y-100421513D01*
X106128635Y-100430979D01*
X106155670Y-100442167D01*
X106181986Y-100455075D01*
X106207585Y-100469704D01*
X106232465Y-100486055D01*
X106256628Y-100504126D01*
X106280072Y-100523919D01*
X106302799Y-100545433D01*
X106324570Y-100568811D01*
X106344600Y-100592832D01*
X106362889Y-100617498D01*
X106379438Y-100642808D01*
X106394245Y-100668762D01*
X106407311Y-100695360D01*
X106418636Y-100722601D01*
X106428218Y-100750486D01*
X106436059Y-100779015D01*
X106442158Y-100808187D01*
X106446515Y-100838003D01*
X106449129Y-100868462D01*
X106450000Y-100899564D01*
X106449129Y-100930787D01*
X106446515Y-100961323D01*
X106442158Y-100991170D01*
X106436059Y-101020329D01*
X106428218Y-101048801D01*
X106418636Y-101076586D01*
X106407311Y-101103684D01*
X106394245Y-101130095D01*
X106379438Y-101155820D01*
X106362889Y-101180860D01*
X106344600Y-101205213D01*
X106324570Y-101228882D01*
X106302799Y-101251865D01*
X106279567Y-101273639D01*
X106255702Y-101293672D01*
X106231204Y-101311962D01*
X106206072Y-101328511D01*
X106180306Y-101343319D01*
X106153906Y-101356384D01*
X106126872Y-101367708D01*
X106099205Y-101377289D01*
X106070903Y-101385129D01*
X106041967Y-101391227D01*
X106012396Y-101395582D01*
X105982191Y-101398196D01*
X105951351Y-101399067D01*
X105922080Y-101398311D01*
X105893381Y-101396044D01*
X105865254Y-101392266D01*
X105837700Y-101386977D01*
X105810718Y-101380177D01*
X105784309Y-101371866D01*
X105758474Y-101362044D01*
X105733211Y-101350711D01*
X105708522Y-101337867D01*
X105684406Y-101323511D01*
X105660865Y-101307645D01*
X105637897Y-101290268D01*
X105615503Y-101271380D01*
X105593683Y-101250981D01*
X105572568Y-101228761D01*
X105553141Y-101205739D01*
X105535403Y-101181915D01*
X105519354Y-101157290D01*
X105504995Y-101131862D01*
X105492325Y-101105632D01*
X105481344Y-101078599D01*
X105472052Y-101050764D01*
X105464449Y-101022125D01*
X105458536Y-100992683D01*
X105454312Y-100962437D01*
X105451778Y-100931387D01*
X105450933Y-100899533D01*
X105541059Y-100899533D01*
X105542032Y-100930359D01*
X105544951Y-100960225D01*
X105549816Y-100989134D01*
X105556628Y-101017083D01*
X105565386Y-101044074D01*
X105576090Y-101070107D01*
X105588740Y-101095180D01*
X105603337Y-101119295D01*
X105619881Y-101142451D01*
X105638371Y-101164648D01*
X105658808Y-101185887D01*
X105681705Y-101207096D01*
X105705311Y-101226285D01*
X105729626Y-101243454D01*
X105754648Y-101258603D01*
X105780379Y-101271732D01*
X105806817Y-101282841D01*
X105833963Y-101291929D01*
X105861815Y-101298999D01*
X105890375Y-101304048D01*
X105919641Y-101307077D01*
X105949613Y-101308087D01*
X105979721Y-101307085D01*
X106009061Y-101304078D01*
X106037635Y-101299066D01*
X106065441Y-101292049D01*
X106092480Y-101283027D01*
X106118753Y-101272000D01*
X106144259Y-101258966D01*
X106168999Y-101243927D01*
X106192972Y-101226881D01*
X106216179Y-101207830D01*
X106238619Y-101186771D01*
X106259670Y-101164492D01*
X106278715Y-101141448D01*
X106295756Y-101117637D01*
X106310791Y-101093059D01*
X106323822Y-101067714D01*
X106334847Y-101041603D01*
X106343868Y-101014724D01*
X106350884Y-100987078D01*
X106355896Y-100958665D01*
X106358902Y-100929483D01*
X106359905Y-100899533D01*
X106358895Y-100869874D01*
X106355867Y-100840892D01*
X106350819Y-100812587D01*
X106343751Y-100784958D01*
X106334663Y-100758007D01*
X106323556Y-100731734D01*
X106310427Y-100706137D01*
X106295278Y-100681218D01*
X106278108Y-100656977D01*
X106258917Y-100633413D01*
X106237704Y-100610527D01*
X106215859Y-100589627D01*
X106193145Y-100570716D01*
X106169561Y-100553796D01*
X106145108Y-100538867D01*
X106119785Y-100525928D01*
X106093592Y-100514979D01*
X106066530Y-100506021D01*
X106038598Y-100499054D01*
X106009796Y-100494077D01*
X105980124Y-100491091D01*
X105949582Y-100490095D01*
X105919037Y-100491090D01*
X105889346Y-100494074D01*
X105860509Y-100499049D01*
X105832526Y-100506013D01*
X105805398Y-100514969D01*
X105779124Y-100525915D01*
X105753705Y-100538853D01*
X105729140Y-100553783D01*
X105705431Y-100570705D01*
X105682576Y-100589620D01*
X105660576Y-100610527D01*
X105639838Y-100632376D01*
X105621073Y-100655111D01*
X105604283Y-100678731D01*
X105589467Y-100703237D01*
X105576625Y-100728627D01*
X105565759Y-100754902D01*
X105556868Y-100782061D01*
X105549952Y-100810104D01*
X105545012Y-100839031D01*
X105542047Y-100868840D01*
X105541059Y-100899533D01*
X105450933Y-100899533D01*
X105451794Y-100867670D01*
X105454376Y-100836577D01*
X105458680Y-100806255D01*
X105464704Y-100776703D01*
X105472450Y-100747922D01*
X105481915Y-100719911D01*
X105493102Y-100692670D01*
X105506008Y-100666200D01*
X105520635Y-100640500D01*
X105536981Y-100615570D01*
X105555047Y-100591411D01*
X105574832Y-100568022D01*
X105596336Y-100545402D01*
X105619090Y-100523892D01*
X105642603Y-100504103D01*
X105666874Y-100486035D01*
X105691905Y-100469687D01*
X105717695Y-100455061D01*
X105744244Y-100442156D01*
X105771553Y-100430971D01*
X105799620Y-100421508D01*
X105828447Y-100413765D01*
X105858034Y-100407743D01*
X105888380Y-100403441D01*
X105919486Y-100400860D01*
X105951351Y-100400000D01*
X105982693Y-100400861D01*
G37*
G36*
X107275787Y-100752795D02*
G01*
X107285138Y-100775540D01*
X107285138Y-100979818D01*
X107228066Y-100979818D01*
X107228066Y-101222419D01*
X107072836Y-101222419D01*
X107072836Y-100979802D01*
X107015764Y-100979802D01*
X107015764Y-100775540D01*
X107025568Y-100752795D01*
X107047859Y-100743429D01*
X107253043Y-100743429D01*
X107275787Y-100752795D01*
G37*
G36*
X107175526Y-100579452D02*
G01*
X107195012Y-100587912D01*
X107208928Y-100602008D01*
X107217276Y-100621738D01*
X107220058Y-100647097D01*
X107217273Y-100672143D01*
X107208919Y-100691623D01*
X107194998Y-100705539D01*
X107175514Y-100713889D01*
X107150467Y-100716673D01*
X107125421Y-100713889D01*
X107105941Y-100705539D01*
X107092025Y-100691623D01*
X107083675Y-100672143D01*
X107080891Y-100647097D01*
X107083672Y-100621726D01*
X107092016Y-100601995D01*
X107105927Y-100587903D01*
X107125409Y-100579449D01*
X107150467Y-100576632D01*
X107175526Y-100579452D01*
G37*
G36*
X107182822Y-100400855D02*
G01*
X107213553Y-100403419D01*
X107243544Y-100407694D01*
X107272795Y-100413679D01*
X107301306Y-100421374D01*
X107329078Y-100430779D01*
X107356111Y-100441895D01*
X107382405Y-100454721D01*
X107407960Y-100469258D01*
X107432777Y-100485507D01*
X107456855Y-100503466D01*
X107480196Y-100523136D01*
X107502799Y-100544518D01*
X107524570Y-100567901D01*
X107544600Y-100591938D01*
X107562889Y-100616630D01*
X107579438Y-100641976D01*
X107594245Y-100667977D01*
X107607311Y-100694632D01*
X107618636Y-100721941D01*
X107628218Y-100749905D01*
X107636059Y-100778522D01*
X107642158Y-100807794D01*
X107646515Y-100837720D01*
X107649129Y-100868300D01*
X107650000Y-100899533D01*
X107649129Y-100930754D01*
X107646515Y-100961288D01*
X107642158Y-100991135D01*
X107636059Y-101020295D01*
X107628218Y-101048769D01*
X107618636Y-101076557D01*
X107607311Y-101103659D01*
X107594245Y-101130074D01*
X107579438Y-101155803D01*
X107562889Y-101180847D01*
X107544600Y-101205205D01*
X107524570Y-101228878D01*
X107502799Y-101251865D01*
X107479567Y-101273639D01*
X107455702Y-101293672D01*
X107431204Y-101311962D01*
X107406072Y-101328511D01*
X107380306Y-101343319D01*
X107353906Y-101356384D01*
X107326872Y-101367708D01*
X107299205Y-101377289D01*
X107270903Y-101385129D01*
X107241967Y-101391227D01*
X107212396Y-101395582D01*
X107182191Y-101398196D01*
X107151351Y-101399067D01*
X107122195Y-101398306D01*
X107093594Y-101396026D01*
X107065549Y-101392224D01*
X107038059Y-101386903D01*
X107011124Y-101380060D01*
X106984743Y-101371698D01*
X106958918Y-101361815D01*
X106933648Y-101350412D01*
X106908934Y-101337488D01*
X106884774Y-101323044D01*
X106861169Y-101307080D01*
X106838119Y-101289596D01*
X106815624Y-101270591D01*
X106793683Y-101250066D01*
X106772568Y-101228107D01*
X106753141Y-101205314D01*
X106735403Y-101181688D01*
X106719354Y-101157227D01*
X106704995Y-101131932D01*
X106692325Y-101105803D01*
X106681344Y-101078840D01*
X106672052Y-101051042D01*
X106664449Y-101022410D01*
X106658536Y-100992943D01*
X106654312Y-100962642D01*
X106651778Y-100931505D01*
X106650933Y-100899533D01*
X106650934Y-100899503D01*
X106741059Y-100899503D01*
X106742032Y-100930475D01*
X106744951Y-100960460D01*
X106749816Y-100989456D01*
X106756628Y-101017465D01*
X106765386Y-101044485D01*
X106776090Y-101070517D01*
X106788740Y-101095562D01*
X106803337Y-101119618D01*
X106819881Y-101142685D01*
X106838371Y-101164765D01*
X106858808Y-101185856D01*
X106881705Y-101207073D01*
X106905311Y-101226266D01*
X106929626Y-101243437D01*
X106954648Y-101258586D01*
X106980379Y-101271714D01*
X107006817Y-101282821D01*
X107033963Y-101291907D01*
X107061815Y-101298973D01*
X107090375Y-101304020D01*
X107119641Y-101307048D01*
X107149613Y-101308057D01*
X107179721Y-101307054D01*
X107209061Y-101304048D01*
X107237635Y-101299036D01*
X107265441Y-101292019D01*
X107292480Y-101282997D01*
X107318753Y-101271969D01*
X107344259Y-101258936D01*
X107368999Y-101243896D01*
X107392972Y-101226851D01*
X107416179Y-101207799D01*
X107438619Y-101186741D01*
X107459670Y-101164326D01*
X107478715Y-101141174D01*
X107495756Y-101117282D01*
X107510791Y-101092652D01*
X107523822Y-101067283D01*
X107534847Y-101041175D01*
X107543868Y-101014330D01*
X107550884Y-100986746D01*
X107555896Y-100958423D01*
X107558902Y-100929363D01*
X107559905Y-100899564D01*
X107558895Y-100869893D01*
X107555867Y-100840885D01*
X107550819Y-100812540D01*
X107543751Y-100784857D01*
X107534663Y-100757837D01*
X107523556Y-100731480D01*
X107510427Y-100705786D01*
X107495278Y-100680755D01*
X107478108Y-100656388D01*
X107458917Y-100632684D01*
X107437704Y-100609643D01*
X107415859Y-100588900D01*
X107393145Y-100570131D01*
X107369561Y-100553337D01*
X107345108Y-100538517D01*
X107319785Y-100525673D01*
X107293592Y-100514803D01*
X107266530Y-100505909D01*
X107238598Y-100498991D01*
X107209796Y-100494049D01*
X107180124Y-100491084D01*
X107149582Y-100490095D01*
X107119180Y-100491083D01*
X107089604Y-100494046D01*
X107060852Y-100498985D01*
X107032927Y-100505900D01*
X107005827Y-100514790D01*
X106979554Y-100525655D01*
X106954106Y-100538496D01*
X106929484Y-100553312D01*
X106905689Y-100570104D01*
X106882719Y-100588870D01*
X106860576Y-100609613D01*
X106839838Y-100631770D01*
X106821073Y-100654765D01*
X106804283Y-100678599D01*
X106789467Y-100703272D01*
X106776625Y-100728784D01*
X106765759Y-100755136D01*
X106756868Y-100782327D01*
X106749952Y-100810360D01*
X106745012Y-100839233D01*
X106742047Y-100868947D01*
X106741059Y-100899503D01*
X106650934Y-100899503D01*
X106651794Y-100867665D01*
X106654376Y-100836556D01*
X106658680Y-100806208D01*
X106664704Y-100776620D01*
X106672450Y-100747792D01*
X106681915Y-100719724D01*
X106693102Y-100692415D01*
X106706008Y-100665867D01*
X106720635Y-100640078D01*
X106736981Y-100615049D01*
X106755047Y-100590779D01*
X106774832Y-100567269D01*
X106796336Y-100544518D01*
X106818961Y-100523139D01*
X106842367Y-100503471D01*
X106866554Y-100485513D01*
X106891522Y-100469265D01*
X106917271Y-100454728D01*
X106943801Y-100441901D01*
X106971111Y-100430784D01*
X106999202Y-100421378D01*
X107028072Y-100413682D01*
X107057723Y-100407696D01*
X107088153Y-100403420D01*
X107119362Y-100400855D01*
X107151351Y-100400000D01*
X107182822Y-100400855D01*
G37*
G36*
X128615824Y-98232700D02*
G01*
X128636237Y-98235302D01*
X128653199Y-98242679D01*
X128669801Y-98256105D01*
X128677521Y-98265635D01*
X128686109Y-98284526D01*
X128690112Y-98306099D01*
X128689177Y-98327894D01*
X128682949Y-98347455D01*
X128679549Y-98353347D01*
X128665726Y-98369755D01*
X128648442Y-98382700D01*
X128630271Y-98390099D01*
X128628790Y-98390415D01*
X128604002Y-98392065D01*
X128581618Y-98387113D01*
X128562402Y-98376548D01*
X128547119Y-98361360D01*
X128536535Y-98342538D01*
X128531415Y-98321072D01*
X128532524Y-98297951D01*
X128540627Y-98274165D01*
X128550231Y-98258808D01*
X128566534Y-98243935D01*
X128587228Y-98235307D01*
X128612794Y-98232647D01*
X128615824Y-98232700D01*
G37*
G36*
X128557749Y-97517477D02*
G01*
X128565799Y-97522340D01*
X128582207Y-97533296D01*
X128600269Y-97546310D01*
X128617323Y-97559506D01*
X128651584Y-97587201D01*
X128651584Y-97627574D01*
X128651584Y-97667948D01*
X128627066Y-97667948D01*
X128604391Y-97668760D01*
X128571472Y-97671910D01*
X128536701Y-97677065D01*
X128503137Y-97683833D01*
X128443173Y-97700680D01*
X128376485Y-97726592D01*
X128313386Y-97758946D01*
X128254315Y-97797342D01*
X128199712Y-97841381D01*
X128150017Y-97890664D01*
X128105669Y-97944793D01*
X128067108Y-98003368D01*
X128034772Y-98065991D01*
X128009102Y-98132262D01*
X127995528Y-98179191D01*
X127984911Y-98227993D01*
X127978220Y-98274768D01*
X127975833Y-98317402D01*
X127975761Y-98343771D01*
X127935354Y-98343771D01*
X127894948Y-98343771D01*
X127879435Y-98325215D01*
X127865066Y-98307504D01*
X127847527Y-98284257D01*
X127832791Y-98262785D01*
X127821487Y-98244076D01*
X127814243Y-98229115D01*
X127811688Y-98218891D01*
X127812348Y-98210545D01*
X127815221Y-98193696D01*
X127820014Y-98171945D01*
X127826332Y-98146724D01*
X127833779Y-98119461D01*
X127841961Y-98091586D01*
X127850484Y-98064529D01*
X127858954Y-98039720D01*
X127866974Y-98018588D01*
X127870009Y-98011660D01*
X127877004Y-97996952D01*
X127886159Y-97978527D01*
X127896546Y-97958177D01*
X127907237Y-97937693D01*
X127917303Y-97918865D01*
X127925818Y-97903486D01*
X127931853Y-97893347D01*
X127968192Y-97841409D01*
X128019424Y-97779454D01*
X128075602Y-97722709D01*
X128136209Y-97671530D01*
X128200727Y-97626272D01*
X128268639Y-97587292D01*
X128339426Y-97554944D01*
X128412570Y-97529586D01*
X128487554Y-97511572D01*
X128532436Y-97503143D01*
X128557749Y-97517477D01*
G37*
G36*
X128312526Y-97441422D02*
G01*
X128326413Y-97442462D01*
X128333937Y-97444441D01*
X128334406Y-97444759D01*
X128339615Y-97451054D01*
X128343657Y-97460226D01*
X128345929Y-97469817D01*
X128345830Y-97477372D01*
X128342757Y-97480437D01*
X128340917Y-97480741D01*
X128332965Y-97483379D01*
X128322248Y-97487845D01*
X128311961Y-97492392D01*
X128296323Y-97499124D01*
X128280467Y-97505802D01*
X128264904Y-97512520D01*
X128206643Y-97541948D01*
X128148307Y-97577842D01*
X128091108Y-97619272D01*
X128036260Y-97665312D01*
X127984976Y-97715032D01*
X127938468Y-97767505D01*
X127925762Y-97783651D01*
X127900234Y-97819257D01*
X127874842Y-97858478D01*
X127850650Y-97899469D01*
X127828720Y-97940390D01*
X127810116Y-97979397D01*
X127795899Y-98014649D01*
X127793399Y-98021508D01*
X127788475Y-98032474D01*
X127783340Y-98037592D01*
X127776281Y-98038001D01*
X127765586Y-98034843D01*
X127764347Y-98034399D01*
X127757130Y-98030508D01*
X127753107Y-98024040D01*
X127750525Y-98012381D01*
X127749746Y-98006854D01*
X127748035Y-97983881D01*
X127747745Y-97956716D01*
X127748793Y-97928047D01*
X127751101Y-97900561D01*
X127754586Y-97876945D01*
X127763435Y-97840169D01*
X127776137Y-97800535D01*
X127791655Y-97761062D01*
X127809166Y-97723661D01*
X127827848Y-97690239D01*
X127846878Y-97662707D01*
X127847052Y-97662487D01*
X127884387Y-97618295D01*
X127921619Y-97580653D01*
X127960085Y-97548439D01*
X128001125Y-97520533D01*
X128046078Y-97495812D01*
X128058760Y-97489869D01*
X128082030Y-97480142D01*
X128107368Y-97470648D01*
X128132498Y-97462181D01*
X128155146Y-97455534D01*
X128173039Y-97451501D01*
X128173252Y-97451465D01*
X128196192Y-97448157D01*
X128221090Y-97445421D01*
X128246559Y-97443318D01*
X128271212Y-97441910D01*
X128293663Y-97441258D01*
X128312526Y-97441422D01*
G37*
G36*
X128732285Y-97530381D02*
G01*
X128737653Y-97535732D01*
X128746412Y-97545791D01*
X128757589Y-97559327D01*
X128770208Y-97575108D01*
X128783294Y-97591903D01*
X128795871Y-97608480D01*
X128806965Y-97623608D01*
X128815600Y-97636057D01*
X128821369Y-97645254D01*
X128833743Y-97667296D01*
X128847218Y-97693796D01*
X128860841Y-97722844D01*
X128873659Y-97752525D01*
X128875430Y-97757083D01*
X128881228Y-97774532D01*
X128887715Y-97797014D01*
X128894371Y-97822562D01*
X128900674Y-97849210D01*
X128906105Y-97874992D01*
X128906737Y-97878689D01*
X128908514Y-97895303D01*
X128909835Y-97918019D01*
X128910637Y-97945539D01*
X128910862Y-97976561D01*
X128910685Y-98002373D01*
X128910154Y-98025988D01*
X128909141Y-98045148D01*
X128907507Y-98061639D01*
X128905117Y-98077246D01*
X128901830Y-98093756D01*
X128892606Y-98131606D01*
X128870234Y-98199676D01*
X128841438Y-98263830D01*
X128806493Y-98323714D01*
X128765674Y-98378976D01*
X128719256Y-98429263D01*
X128667512Y-98474222D01*
X128610718Y-98513501D01*
X128549148Y-98546746D01*
X128538696Y-98551591D01*
X128494879Y-98569825D01*
X128451727Y-98584028D01*
X128406468Y-98595017D01*
X128356328Y-98603610D01*
X128330845Y-98606169D01*
X128298830Y-98607501D01*
X128263711Y-98607494D01*
X128227833Y-98606193D01*
X128193539Y-98603643D01*
X128163173Y-98599889D01*
X128102442Y-98587036D01*
X128037695Y-98565832D01*
X127975055Y-98537377D01*
X127915210Y-98501942D01*
X127909197Y-98497873D01*
X127890886Y-98484866D01*
X127872888Y-98471278D01*
X127856427Y-98458110D01*
X127842728Y-98446363D01*
X127833019Y-98437038D01*
X127828523Y-98431136D01*
X127828293Y-98429366D01*
X127831385Y-98421698D01*
X127839283Y-98411877D01*
X127844754Y-98406671D01*
X127853694Y-98400215D01*
X127860052Y-98398293D01*
X127862473Y-98401511D01*
X127862518Y-98401771D01*
X127866105Y-98406294D01*
X127874505Y-98414264D01*
X127886411Y-98424605D01*
X127900521Y-98436238D01*
X127915530Y-98448084D01*
X127930133Y-98459065D01*
X127943026Y-98468103D01*
X127953354Y-98474828D01*
X128012960Y-98508512D01*
X128074350Y-98534603D01*
X128137672Y-98553147D01*
X128203073Y-98564188D01*
X128270701Y-98567772D01*
X128318499Y-98566438D01*
X128363765Y-98562092D01*
X128406385Y-98554285D01*
X128448780Y-98542569D01*
X128493371Y-98526495D01*
X128521176Y-98514646D01*
X128580127Y-98483479D01*
X128634886Y-98445940D01*
X128685018Y-98402429D01*
X128730092Y-98353346D01*
X128769675Y-98299091D01*
X128803333Y-98240065D01*
X128818435Y-98208273D01*
X128836166Y-98164527D01*
X128849092Y-98122273D01*
X128857733Y-98079306D01*
X128862610Y-98033423D01*
X128864245Y-97982421D01*
X128864154Y-97957458D01*
X128863282Y-97927534D01*
X128861307Y-97901514D01*
X128857970Y-97877130D01*
X128853012Y-97852117D01*
X128846174Y-97824208D01*
X128841292Y-97806694D01*
X128818944Y-97744700D01*
X128789616Y-97685415D01*
X128753852Y-97629835D01*
X128712195Y-97578955D01*
X128692723Y-97557828D01*
X128710097Y-97543013D01*
X128718014Y-97536772D01*
X128726596Y-97531323D01*
X128731522Y-97529893D01*
X128732285Y-97530381D01*
G37*
G36*
X128639640Y-97739379D02*
G01*
X128667477Y-97744547D01*
X128689955Y-97752660D01*
X128723805Y-97771172D01*
X128753204Y-97795409D01*
X128777533Y-97824572D01*
X128796177Y-97857866D01*
X128808517Y-97894494D01*
X128813937Y-97933658D01*
X128813936Y-97956344D01*
X128808999Y-97992241D01*
X128797471Y-98025189D01*
X128778947Y-98056209D01*
X128753018Y-98086321D01*
X128748567Y-98090738D01*
X128728507Y-98108539D01*
X128708392Y-98122217D01*
X128686283Y-98132731D01*
X128660243Y-98141042D01*
X128628333Y-98148111D01*
X128611677Y-98151592D01*
X128582250Y-98159961D01*
X128557597Y-98170782D01*
X128535720Y-98185031D01*
X128514618Y-98203685D01*
X128499243Y-98220973D01*
X128479535Y-98251787D01*
X128465853Y-98285578D01*
X128458415Y-98321106D01*
X128457438Y-98357127D01*
X128463140Y-98392401D01*
X128475738Y-98425686D01*
X128486578Y-98447124D01*
X128466687Y-98460224D01*
X128446735Y-98473035D01*
X128429858Y-98482867D01*
X128415563Y-98489696D01*
X128401978Y-98494411D01*
X128387230Y-98497899D01*
X128373362Y-98500282D01*
X128355352Y-98502551D01*
X128340522Y-98503570D01*
X128320494Y-98503937D01*
X128312599Y-98485381D01*
X128302528Y-98459710D01*
X128294834Y-98434178D01*
X128289898Y-98408302D01*
X128287262Y-98379634D01*
X128286468Y-98345724D01*
X128286536Y-98326096D01*
X128286984Y-98307000D01*
X128288059Y-98291940D01*
X128290001Y-98278820D01*
X128293053Y-98265543D01*
X128297453Y-98250015D01*
X128305808Y-98224720D01*
X128327222Y-98176553D01*
X128354868Y-98132560D01*
X128389340Y-98091719D01*
X128405767Y-98075506D01*
X128447151Y-98041735D01*
X128491579Y-98015076D01*
X128539418Y-97995330D01*
X128591033Y-97982300D01*
X128598020Y-97980957D01*
X128614103Y-97977311D01*
X128627079Y-97973621D01*
X128634642Y-97970510D01*
X128640870Y-97964698D01*
X128645851Y-97952758D01*
X128645546Y-97939085D01*
X128640149Y-97925917D01*
X128629856Y-97915492D01*
X128627433Y-97913983D01*
X128621531Y-97911416D01*
X128614234Y-97910532D01*
X128603441Y-97911226D01*
X128587056Y-97913397D01*
X128570118Y-97916430D01*
X128538934Y-97924217D01*
X128506394Y-97934586D01*
X128475549Y-97946524D01*
X128449451Y-97959020D01*
X128427768Y-97971626D01*
X128379267Y-98005943D01*
X128336534Y-98045463D01*
X128299744Y-98089957D01*
X128269076Y-98139190D01*
X128244705Y-98192932D01*
X128226809Y-98250951D01*
X128224150Y-98265751D01*
X128221835Y-98288499D01*
X128220390Y-98315222D01*
X128219818Y-98343964D01*
X128220124Y-98372768D01*
X128221313Y-98399680D01*
X128223389Y-98422742D01*
X128226358Y-98439998D01*
X128232332Y-98463956D01*
X128186385Y-98476682D01*
X128183568Y-98477457D01*
X128158120Y-98483781D01*
X128139668Y-98486959D01*
X128128284Y-98486978D01*
X128120588Y-98485013D01*
X128106904Y-98480548D01*
X128091607Y-98474843D01*
X128076963Y-98468800D01*
X128065237Y-98463318D01*
X128058692Y-98459300D01*
X128054190Y-98450896D01*
X128050581Y-98435119D01*
X128047926Y-98412386D01*
X128046272Y-98383104D01*
X128045666Y-98347678D01*
X128046604Y-98307858D01*
X128052296Y-98249469D01*
X128063536Y-98193962D01*
X128080765Y-98139344D01*
X128104428Y-98083623D01*
X128111743Y-98068534D01*
X128119553Y-98053471D01*
X128127886Y-98038822D01*
X128137752Y-98022898D01*
X128150159Y-98004009D01*
X128166119Y-97980467D01*
X128180223Y-97961511D01*
X128208143Y-97929975D01*
X128241210Y-97898240D01*
X128277961Y-97867497D01*
X128316936Y-97838940D01*
X128356673Y-97813760D01*
X128395709Y-97793152D01*
X128403552Y-97789542D01*
X128445219Y-97772574D01*
X128487532Y-97758768D01*
X128529312Y-97748334D01*
X128569377Y-97741483D01*
X128606546Y-97738428D01*
X128639640Y-97739379D01*
G37*
G36*
X129924364Y-96696868D02*
G01*
X129924472Y-96736828D01*
X129924049Y-96774552D01*
X129923119Y-96808184D01*
X129921706Y-96835872D01*
X129920866Y-96847272D01*
X129918947Y-96870013D01*
X129916531Y-96895919D01*
X129913751Y-96923774D01*
X129910744Y-96952361D01*
X129907644Y-96980466D01*
X129904588Y-97006871D01*
X129901711Y-97030361D01*
X129899147Y-97049720D01*
X129897033Y-97063730D01*
X129895504Y-97071178D01*
X129894818Y-97073715D01*
X129895144Y-97075974D01*
X129897373Y-97078407D01*
X129902390Y-97081484D01*
X129911083Y-97085672D01*
X129924337Y-97091442D01*
X129943038Y-97099263D01*
X129968071Y-97109603D01*
X129980488Y-97114780D01*
X130053482Y-97147250D01*
X130127185Y-97183318D01*
X130199481Y-97221864D01*
X130226194Y-97237364D01*
X130268250Y-97261766D01*
X130331375Y-97301903D01*
X130331781Y-97302175D01*
X130412497Y-97359575D01*
X130485578Y-97418576D01*
X130551038Y-97479197D01*
X130608892Y-97541455D01*
X130659155Y-97605367D01*
X130701841Y-97670949D01*
X130736965Y-97738220D01*
X130764543Y-97807197D01*
X130768371Y-97818830D01*
X130784859Y-97883499D01*
X130793902Y-97949589D01*
X130795388Y-98010024D01*
X130795546Y-98016462D01*
X130789840Y-98083476D01*
X130776833Y-98149993D01*
X130756571Y-98215372D01*
X130729105Y-98278974D01*
X130721155Y-98294591D01*
X130708652Y-98317894D01*
X130696123Y-98339951D01*
X130684423Y-98359314D01*
X130674408Y-98374534D01*
X130666932Y-98384166D01*
X130661910Y-98390241D01*
X130659520Y-98394694D01*
X130659519Y-98394723D01*
X130657218Y-98399312D01*
X130651779Y-98406654D01*
X130645564Y-98414280D01*
X130641036Y-98420000D01*
X130638316Y-98423558D01*
X130606803Y-98461657D01*
X130569428Y-98501967D01*
X130527268Y-98543421D01*
X130481402Y-98584957D01*
X130432907Y-98625510D01*
X130430050Y-98627796D01*
X130377305Y-98667366D01*
X130317936Y-98707445D01*
X130252988Y-98747440D01*
X130217863Y-98767317D01*
X130183506Y-98786759D01*
X130110535Y-98824808D01*
X130035119Y-98860996D01*
X129958305Y-98894728D01*
X129944979Y-98900339D01*
X129926636Y-98908179D01*
X129911699Y-98914702D01*
X129901439Y-98919353D01*
X129897127Y-98921573D01*
X129896385Y-98924401D01*
X129896572Y-98933191D01*
X129898091Y-98945371D01*
X129898564Y-98948401D01*
X129900366Y-98961175D01*
X129902814Y-98979673D01*
X129905718Y-99002421D01*
X129908887Y-99027939D01*
X129912134Y-99054752D01*
X129912781Y-99060188D01*
X129915477Y-99083642D01*
X129917639Y-99104502D01*
X129919328Y-99124071D01*
X129920604Y-99143648D01*
X129921527Y-99164535D01*
X129922157Y-99188032D01*
X129922554Y-99215439D01*
X129922778Y-99248058D01*
X129922890Y-99287188D01*
X129922895Y-99289845D01*
X129922914Y-99328531D01*
X129922912Y-99329159D01*
X129922796Y-99360667D01*
X129922494Y-99387441D01*
X129921959Y-99410043D01*
X129921141Y-99429659D01*
X129919992Y-99447479D01*
X129918462Y-99464691D01*
X129916504Y-99482484D01*
X129914069Y-99502045D01*
X129913696Y-99504921D01*
X129899519Y-99594723D01*
X129881250Y-99678088D01*
X129858769Y-99755299D01*
X129831956Y-99826640D01*
X129800691Y-99892394D01*
X129764855Y-99952844D01*
X129724328Y-100008274D01*
X129678991Y-100058968D01*
X129669757Y-100068165D01*
X129619308Y-100112972D01*
X129566301Y-100150928D01*
X129510085Y-100182358D01*
X129450011Y-100207586D01*
X129385428Y-100226939D01*
X129315687Y-100240742D01*
X129301003Y-100242548D01*
X129271875Y-100244498D01*
X129238047Y-100245250D01*
X129201385Y-100244862D01*
X129163756Y-100243389D01*
X129127024Y-100240889D01*
X129093056Y-100237419D01*
X129063719Y-100233036D01*
X129040979Y-100228658D01*
X128977271Y-100213837D01*
X128913927Y-100195135D01*
X128849553Y-100172068D01*
X128782754Y-100144152D01*
X128712134Y-100110901D01*
X128710960Y-100110320D01*
X128683426Y-100096535D01*
X128657729Y-100083365D01*
X128635174Y-100071495D01*
X128617065Y-100061611D01*
X128604706Y-100054400D01*
X128601887Y-100052643D01*
X128592274Y-100046662D01*
X128578184Y-100037902D01*
X128561025Y-100027237D01*
X128542202Y-100015541D01*
X128533007Y-100009808D01*
X128513855Y-99997750D01*
X128496539Y-99986697D01*
X128482665Y-99977678D01*
X128473839Y-99971723D01*
X128467044Y-99966973D01*
X128452682Y-99957120D01*
X128438582Y-99947633D01*
X128434859Y-99945068D01*
X128423852Y-99937135D01*
X128408696Y-99925961D01*
X128390718Y-99912545D01*
X128371242Y-99897887D01*
X128351594Y-99882986D01*
X128333102Y-99868844D01*
X128317090Y-99856458D01*
X128304884Y-99846829D01*
X128303725Y-99845830D01*
X128302160Y-99844767D01*
X128300078Y-99844698D01*
X128296663Y-99846155D01*
X128291098Y-99849669D01*
X128282567Y-99855771D01*
X128270254Y-99864993D01*
X128253343Y-99877866D01*
X128231017Y-99894922D01*
X128184112Y-99929718D01*
X128119167Y-99974868D01*
X128052738Y-100017831D01*
X127986118Y-100057837D01*
X127920597Y-100094119D01*
X127857466Y-100125909D01*
X127798016Y-100152440D01*
X127793686Y-100154232D01*
X127777874Y-100160794D01*
X127764135Y-100166522D01*
X127755044Y-100170343D01*
X127748756Y-100172856D01*
X127732728Y-100178674D01*
X127712088Y-100185713D01*
X127688691Y-100193379D01*
X127664392Y-100201078D01*
X127641047Y-100208218D01*
X127620513Y-100214203D01*
X127604644Y-100218442D01*
X127553818Y-100229493D01*
X127481044Y-100240449D01*
X127409458Y-100245584D01*
X127339885Y-100244914D01*
X127273150Y-100238460D01*
X127210077Y-100226238D01*
X127151492Y-100208269D01*
X127097394Y-100185858D01*
X127043193Y-100157530D01*
X126993463Y-100124512D01*
X126946719Y-100085808D01*
X126901476Y-100040422D01*
X126864178Y-99996175D01*
X126824726Y-99939652D01*
X126789980Y-99878024D01*
X126759729Y-99810871D01*
X126733765Y-99737771D01*
X126711880Y-99658305D01*
X126708660Y-99644540D01*
X126700911Y-99607581D01*
X126693860Y-99567721D01*
X126687234Y-99523321D01*
X126680758Y-99472747D01*
X126678918Y-99453657D01*
X126677102Y-99425631D01*
X126675658Y-99392800D01*
X126674621Y-99356776D01*
X126674025Y-99319168D01*
X126673907Y-99282672D01*
X126910131Y-99282672D01*
X126910762Y-99347375D01*
X126913408Y-99409314D01*
X126918036Y-99467284D01*
X126924617Y-99520081D01*
X126933120Y-99566503D01*
X126941324Y-99601870D01*
X126953706Y-99648381D01*
X126966992Y-99689972D01*
X126981748Y-99728364D01*
X126998540Y-99765279D01*
X127025796Y-99814822D01*
X127059493Y-99862836D01*
X127097094Y-99904100D01*
X127138586Y-99938604D01*
X127183955Y-99966334D01*
X127233186Y-99987280D01*
X127286265Y-100001431D01*
X127288429Y-100001842D01*
X127315143Y-100005657D01*
X127346425Y-100008316D01*
X127379369Y-100009692D01*
X127411069Y-100009659D01*
X127438619Y-100008089D01*
X127464438Y-100005071D01*
X127533239Y-99992381D01*
X127604853Y-99972728D01*
X127679000Y-99946230D01*
X127755397Y-99913005D01*
X127833766Y-99873171D01*
X127913825Y-99826846D01*
X127995293Y-99774147D01*
X128001652Y-99769800D01*
X128019912Y-99757130D01*
X128039167Y-99743545D01*
X128058360Y-99729816D01*
X128076434Y-99716712D01*
X128092331Y-99705004D01*
X128104995Y-99695461D01*
X128113369Y-99688853D01*
X128116395Y-99685950D01*
X128115658Y-99685086D01*
X128483605Y-99685086D01*
X128484398Y-99685950D01*
X128486557Y-99688302D01*
X128494844Y-99695258D01*
X128507415Y-99705150D01*
X128523215Y-99717186D01*
X128541191Y-99730572D01*
X128560291Y-99744517D01*
X128579461Y-99758227D01*
X128597647Y-99770911D01*
X128645549Y-99802820D01*
X128725896Y-99851921D01*
X128804901Y-99894630D01*
X128882261Y-99930821D01*
X128957674Y-99960370D01*
X129030835Y-99983150D01*
X129101443Y-99999037D01*
X129169194Y-100007903D01*
X129183358Y-100009021D01*
X129200864Y-100010255D01*
X129214193Y-100010858D01*
X129225556Y-100010865D01*
X129237164Y-100010313D01*
X129251230Y-100009236D01*
X129288312Y-100005054D01*
X129340484Y-99994569D01*
X129387813Y-99978810D01*
X129431170Y-99957397D01*
X129471428Y-99929946D01*
X129509458Y-99896075D01*
X129538882Y-99862616D01*
X129567684Y-99821529D01*
X129594292Y-99774929D01*
X129618124Y-99723948D01*
X129638596Y-99669721D01*
X129655123Y-99613380D01*
X129667568Y-99555784D01*
X129678224Y-99485148D01*
X129685282Y-99409296D01*
X129688705Y-99329159D01*
X129688457Y-99245665D01*
X129684500Y-99159746D01*
X129676796Y-99072332D01*
X129676472Y-99069351D01*
X129674424Y-99050122D01*
X129672745Y-99033657D01*
X129671600Y-99021623D01*
X129671156Y-99015687D01*
X129670639Y-99009795D01*
X129667897Y-99004553D01*
X129661669Y-99002874D01*
X129650703Y-99004547D01*
X129633747Y-99009361D01*
X129587686Y-99022995D01*
X129527739Y-99039272D01*
X129462849Y-99055554D01*
X129394552Y-99071517D01*
X129324384Y-99086841D01*
X129253883Y-99101202D01*
X129184583Y-99114277D01*
X129118022Y-99125744D01*
X129055736Y-99135281D01*
X128999261Y-99142565D01*
X128981831Y-99144731D01*
X128969037Y-99147031D01*
X128960819Y-99149873D01*
X128955511Y-99153852D01*
X128951447Y-99159558D01*
X128951423Y-99159599D01*
X128946173Y-99167316D01*
X128936835Y-99179894D01*
X128934864Y-99182456D01*
X128924300Y-99196189D01*
X128909459Y-99215057D01*
X128893202Y-99235355D01*
X128876421Y-99255937D01*
X128873404Y-99259600D01*
X128846342Y-99292395D01*
X128823654Y-99319741D01*
X128804859Y-99342214D01*
X128789478Y-99360387D01*
X128777030Y-99374837D01*
X128776018Y-99375997D01*
X128762851Y-99391116D01*
X128749234Y-99406775D01*
X128737962Y-99419761D01*
X128726667Y-99432640D01*
X128698590Y-99463705D01*
X128666432Y-99498209D01*
X128631365Y-99534919D01*
X128594558Y-99572603D01*
X128557184Y-99610029D01*
X128538132Y-99628962D01*
X128520438Y-99646699D01*
X128505412Y-99661920D01*
X128493781Y-99673885D01*
X128486270Y-99681854D01*
X128483605Y-99685086D01*
X128115658Y-99685086D01*
X128115144Y-99684483D01*
X128109225Y-99678357D01*
X128099279Y-99668340D01*
X128086235Y-99655365D01*
X128071021Y-99640363D01*
X128060930Y-99630451D01*
X128046311Y-99616092D01*
X128034120Y-99604113D01*
X128025404Y-99595547D01*
X128021214Y-99591424D01*
X128020120Y-99590331D01*
X128013030Y-99583062D01*
X128002042Y-99571654D01*
X127988314Y-99557323D01*
X127973004Y-99541281D01*
X127957269Y-99524743D01*
X127942265Y-99508923D01*
X127929151Y-99495035D01*
X127919083Y-99484292D01*
X127903584Y-99467507D01*
X127868311Y-99428489D01*
X127831271Y-99386518D01*
X127794451Y-99343833D01*
X127788636Y-99337012D01*
X127774835Y-99320840D01*
X127762663Y-99306600D01*
X127753267Y-99295631D01*
X127747790Y-99289271D01*
X127740863Y-99280762D01*
X127735512Y-99273247D01*
X127732779Y-99269315D01*
X127725808Y-99260295D01*
X127717091Y-99249679D01*
X127716908Y-99249462D01*
X127708705Y-99239489D01*
X127697261Y-99225256D01*
X127684068Y-99208631D01*
X127670616Y-99191479D01*
X127667862Y-99187945D01*
X127662643Y-99181251D01*
X127965723Y-99181251D01*
X127968663Y-99186029D01*
X127974984Y-99193574D01*
X127977928Y-99196846D01*
X127986959Y-99207112D01*
X127998414Y-99220327D01*
X128010521Y-99234451D01*
X128039368Y-99267563D01*
X128078657Y-99310876D01*
X128121715Y-99356666D01*
X128167282Y-99403597D01*
X128214100Y-99450336D01*
X128215217Y-99451432D01*
X128236320Y-99471899D01*
X128255594Y-99490128D01*
X128272303Y-99505458D01*
X128285713Y-99517228D01*
X128295089Y-99524775D01*
X128299698Y-99527438D01*
X128300429Y-99527265D01*
X128306524Y-99523197D01*
X128317186Y-99514194D01*
X128331800Y-99500873D01*
X128349749Y-99483853D01*
X128370418Y-99463752D01*
X128393191Y-99441189D01*
X128417452Y-99416781D01*
X128442585Y-99391149D01*
X128467975Y-99364909D01*
X128493005Y-99338681D01*
X128517060Y-99313083D01*
X128539524Y-99288733D01*
X128559781Y-99266250D01*
X128560241Y-99265732D01*
X128578826Y-99244704D01*
X128595653Y-99225495D01*
X128610031Y-99208906D01*
X128621271Y-99195738D01*
X128628683Y-99186793D01*
X128631577Y-99182871D01*
X128631649Y-99182456D01*
X128628255Y-99180657D01*
X128617943Y-99180252D01*
X128600325Y-99181222D01*
X128600238Y-99181229D01*
X128582236Y-99182276D01*
X128557419Y-99183221D01*
X128526781Y-99184059D01*
X128491312Y-99184785D01*
X128452006Y-99185394D01*
X128409855Y-99185882D01*
X128365851Y-99186242D01*
X128320985Y-99186470D01*
X128276251Y-99186561D01*
X128232640Y-99186510D01*
X128191145Y-99186311D01*
X128152757Y-99185960D01*
X128118469Y-99185452D01*
X128089273Y-99184781D01*
X128066162Y-99183943D01*
X128043202Y-99182907D01*
X128018439Y-99181884D01*
X127997257Y-99181112D01*
X127980712Y-99180627D01*
X127969859Y-99180462D01*
X127965754Y-99180652D01*
X127965723Y-99181251D01*
X127662643Y-99181251D01*
X127656301Y-99173117D01*
X127646768Y-99160901D01*
X127640187Y-99152481D01*
X127637484Y-99149042D01*
X127636940Y-99148816D01*
X127630653Y-99147539D01*
X127618512Y-99145562D01*
X127601948Y-99143111D01*
X127582391Y-99140409D01*
X127546082Y-99135340D01*
X127483117Y-99125683D01*
X127417882Y-99114704D01*
X127352053Y-99102725D01*
X127287307Y-99090065D01*
X127225320Y-99077047D01*
X127167770Y-99063991D01*
X127116333Y-99051217D01*
X127105841Y-99048466D01*
X127066308Y-99038034D01*
X127033270Y-99029193D01*
X127005850Y-99021701D01*
X126983170Y-99015321D01*
X126964352Y-99009813D01*
X126957679Y-99007845D01*
X126944036Y-99004056D01*
X126934318Y-99001690D01*
X126930292Y-99001196D01*
X126930166Y-99001551D01*
X126929235Y-99007445D01*
X126927695Y-99019638D01*
X126925685Y-99036960D01*
X126923341Y-99058239D01*
X126920801Y-99082302D01*
X126920624Y-99084019D01*
X126915031Y-99149790D01*
X126911543Y-99216409D01*
X126910131Y-99282672D01*
X126673907Y-99282672D01*
X126673903Y-99281590D01*
X126674291Y-99245652D01*
X126675223Y-99212965D01*
X126676014Y-99196015D01*
X126678145Y-99161152D01*
X126681040Y-99122168D01*
X126684519Y-99081052D01*
X126688398Y-99039790D01*
X126692497Y-99000371D01*
X126696634Y-98964783D01*
X126700627Y-98935013D01*
X126700944Y-98932799D01*
X126701620Y-98923375D01*
X126699553Y-98918631D01*
X126693841Y-98916044D01*
X126691655Y-98915334D01*
X126680544Y-98911162D01*
X126664078Y-98904507D01*
X126643590Y-98895946D01*
X126620413Y-98886057D01*
X126595879Y-98875414D01*
X126571321Y-98864595D01*
X126548071Y-98854178D01*
X126527462Y-98844737D01*
X126510827Y-98836850D01*
X126465571Y-98814238D01*
X126368890Y-98761667D01*
X126974806Y-98761667D01*
X126974879Y-98766414D01*
X126978346Y-98768511D01*
X126989271Y-98772835D01*
X127006412Y-98778474D01*
X127028929Y-98785215D01*
X127055982Y-98792848D01*
X127086731Y-98801160D01*
X127120336Y-98809940D01*
X127155959Y-98818974D01*
X127192758Y-98828050D01*
X127229894Y-98836958D01*
X127266527Y-98845485D01*
X127301818Y-98853418D01*
X127334926Y-98860547D01*
X127365012Y-98866658D01*
X127391236Y-98871539D01*
X127405670Y-98874006D01*
X127421497Y-98876570D01*
X127433293Y-98878316D01*
X127439228Y-98878960D01*
X127441169Y-98878695D01*
X127442443Y-98876480D01*
X127440540Y-98871120D01*
X127435002Y-98861547D01*
X127425368Y-98846694D01*
X127423333Y-98843618D01*
X127418264Y-98835893D01*
X127412127Y-98826448D01*
X127404294Y-98814309D01*
X127394139Y-98798503D01*
X127381036Y-98778058D01*
X127364356Y-98751999D01*
X127360451Y-98745766D01*
X127352375Y-98732597D01*
X127341922Y-98715371D01*
X127330012Y-98695622D01*
X127317567Y-98674881D01*
X127305508Y-98654682D01*
X127294757Y-98636557D01*
X127286235Y-98622038D01*
X127284980Y-98619880D01*
X127254326Y-98566472D01*
X127223717Y-98511744D01*
X127192358Y-98454236D01*
X127159451Y-98392490D01*
X127124202Y-98325047D01*
X127123518Y-98323734D01*
X127117195Y-98312183D01*
X127112360Y-98304366D01*
X127110012Y-98301912D01*
X127109609Y-98302580D01*
X127106918Y-98309075D01*
X127102361Y-98321302D01*
X127096375Y-98337996D01*
X127089398Y-98357888D01*
X127081870Y-98379711D01*
X127074227Y-98402198D01*
X127066910Y-98424081D01*
X127060356Y-98444093D01*
X127055003Y-98460966D01*
X127046723Y-98488141D01*
X127036916Y-98521298D01*
X127027098Y-98555422D01*
X127017492Y-98589666D01*
X127008319Y-98623184D01*
X126999801Y-98655130D01*
X126992160Y-98684658D01*
X126985618Y-98710921D01*
X126980397Y-98733075D01*
X126976719Y-98750272D01*
X126974806Y-98761667D01*
X126368890Y-98761667D01*
X126368745Y-98761588D01*
X126279292Y-98706708D01*
X126197246Y-98649622D01*
X126122644Y-98590355D01*
X126055523Y-98528932D01*
X126049528Y-98522993D01*
X126011370Y-98483629D01*
X125978341Y-98446359D01*
X125949079Y-98409482D01*
X125922222Y-98371296D01*
X125896407Y-98330098D01*
X125894941Y-98327600D01*
X125884098Y-98307544D01*
X125872022Y-98283025D01*
X125859722Y-98256296D01*
X125848211Y-98229616D01*
X125838497Y-98205239D01*
X125831593Y-98185421D01*
X125827576Y-98172227D01*
X125820253Y-98146841D01*
X125814766Y-98124819D01*
X125810855Y-98104300D01*
X125808260Y-98083420D01*
X125806724Y-98060318D01*
X125805987Y-98033132D01*
X125805888Y-98016559D01*
X126039246Y-98016559D01*
X126045585Y-98069202D01*
X126057430Y-98115403D01*
X126078431Y-98169199D01*
X126106983Y-98222494D01*
X126142946Y-98275160D01*
X126186181Y-98327068D01*
X126236550Y-98378088D01*
X126293912Y-98428091D01*
X126358129Y-98476948D01*
X126429062Y-98524530D01*
X126506570Y-98570708D01*
X126590516Y-98615352D01*
X126680759Y-98658335D01*
X126691462Y-98663079D01*
X126709910Y-98671005D01*
X126726389Y-98677828D01*
X126748579Y-98686748D01*
X126760344Y-98639291D01*
X126777975Y-98570437D01*
X126797629Y-98498847D01*
X126818529Y-98428076D01*
X126841095Y-98356845D01*
X126865746Y-98283876D01*
X126892901Y-98207893D01*
X126922980Y-98127618D01*
X126956401Y-98041772D01*
X126972435Y-98001243D01*
X127230619Y-98001243D01*
X127247242Y-98038710D01*
X127251803Y-98048912D01*
X127259733Y-98066320D01*
X127266785Y-98081427D01*
X127271835Y-98091802D01*
X127272512Y-98093138D01*
X127277721Y-98103670D01*
X127285205Y-98119046D01*
X127294066Y-98137416D01*
X127303407Y-98156929D01*
X127308741Y-98168029D01*
X127329914Y-98210804D01*
X127354018Y-98257836D01*
X127380073Y-98307304D01*
X127407099Y-98357388D01*
X127434117Y-98406264D01*
X127460146Y-98452111D01*
X127484208Y-98493109D01*
X127492422Y-98506914D01*
X127499974Y-98519825D01*
X127505096Y-98528843D01*
X127506982Y-98532571D01*
X127507904Y-98534563D01*
X127512384Y-98542413D01*
X127520665Y-98556293D01*
X127532836Y-98576350D01*
X127548984Y-98602730D01*
X127569200Y-98635579D01*
X127578124Y-98649758D01*
X127590531Y-98669055D01*
X127605555Y-98692159D01*
X127622340Y-98717775D01*
X127640027Y-98744606D01*
X127657761Y-98771356D01*
X127674684Y-98796728D01*
X127689938Y-98819426D01*
X127702669Y-98838154D01*
X127712017Y-98851615D01*
X127719543Y-98862268D01*
X127729517Y-98876480D01*
X127729766Y-98876835D01*
X127738040Y-98888726D01*
X127746146Y-98900343D01*
X127755393Y-98912402D01*
X127763500Y-98920099D01*
X127772365Y-98924684D01*
X127783889Y-98927410D01*
X127799969Y-98929526D01*
X127800059Y-98929537D01*
X127819650Y-98931533D01*
X127845851Y-98933752D01*
X127877474Y-98936117D01*
X127913328Y-98938554D01*
X127952225Y-98940990D01*
X127992974Y-98943349D01*
X128034386Y-98945557D01*
X128075272Y-98947539D01*
X128114441Y-98949222D01*
X128132916Y-98949872D01*
X128166495Y-98950752D01*
X128204118Y-98951446D01*
X128244304Y-98951948D01*
X128285571Y-98952251D01*
X128326437Y-98952350D01*
X128365421Y-98952240D01*
X128401040Y-98951913D01*
X128431814Y-98951365D01*
X128456259Y-98950588D01*
X128474203Y-98949805D01*
X128525645Y-98947411D01*
X128575642Y-98944874D01*
X128623398Y-98942244D01*
X128668118Y-98939572D01*
X128709006Y-98936911D01*
X128745267Y-98934309D01*
X128776106Y-98931819D01*
X128800728Y-98929492D01*
X128818336Y-98927378D01*
X128826054Y-98925833D01*
X128835905Y-98920816D01*
X128844438Y-98910783D01*
X128846951Y-98907131D01*
X128855089Y-98895412D01*
X128865378Y-98880687D01*
X128866223Y-98879483D01*
X129157258Y-98879483D01*
X129161906Y-98880795D01*
X129171147Y-98878779D01*
X129174366Y-98877930D01*
X129185428Y-98875475D01*
X129200746Y-98872400D01*
X129218025Y-98869175D01*
X129233973Y-98866189D01*
X129260540Y-98860907D01*
X129291007Y-98854595D01*
X129323252Y-98847708D01*
X129355154Y-98840700D01*
X129384592Y-98834025D01*
X129409443Y-98828140D01*
X129412997Y-98827268D01*
X129437441Y-98821106D01*
X129464011Y-98814166D01*
X129491631Y-98806756D01*
X129519225Y-98799179D01*
X129545716Y-98791741D01*
X129570027Y-98784747D01*
X129591084Y-98778503D01*
X129607808Y-98773313D01*
X129619125Y-98769483D01*
X129623957Y-98767317D01*
X129623891Y-98762868D01*
X129621926Y-98751788D01*
X129618282Y-98734996D01*
X129613191Y-98713401D01*
X129606885Y-98687908D01*
X129599596Y-98659426D01*
X129591556Y-98628863D01*
X129582999Y-98597125D01*
X129574155Y-98565120D01*
X129565258Y-98533755D01*
X129556539Y-98503937D01*
X129555662Y-98501004D01*
X129549741Y-98481740D01*
X129542614Y-98459242D01*
X129534676Y-98434697D01*
X129526328Y-98409290D01*
X129517966Y-98384208D01*
X129509988Y-98360638D01*
X129502793Y-98339766D01*
X129496778Y-98322778D01*
X129492341Y-98310861D01*
X129489881Y-98305201D01*
X129489399Y-98304581D01*
X129486181Y-98304943D01*
X129481243Y-98311463D01*
X129474107Y-98324733D01*
X129459829Y-98353002D01*
X129431940Y-98406501D01*
X129401354Y-98463306D01*
X129368817Y-98522120D01*
X129335079Y-98581642D01*
X129300888Y-98640574D01*
X129266994Y-98697616D01*
X129234146Y-98751470D01*
X129203091Y-98800836D01*
X129174578Y-98844415D01*
X129171516Y-98849017D01*
X129161997Y-98864249D01*
X129157266Y-98874185D01*
X129157258Y-98879483D01*
X128866223Y-98879483D01*
X128876191Y-98865288D01*
X128880113Y-98859701D01*
X128892062Y-98842523D01*
X128903543Y-98825825D01*
X128912526Y-98812550D01*
X128919804Y-98801760D01*
X128926370Y-98792268D01*
X128930112Y-98787158D01*
X128930282Y-98786946D01*
X128934292Y-98781314D01*
X128941626Y-98770499D01*
X128951453Y-98755772D01*
X128962938Y-98738401D01*
X128975248Y-98719654D01*
X128987550Y-98700801D01*
X128999010Y-98683110D01*
X129008795Y-98667850D01*
X129016071Y-98656290D01*
X129024290Y-98642948D01*
X129035977Y-98623855D01*
X129048965Y-98602534D01*
X129062660Y-98579974D01*
X129076463Y-98557164D01*
X129089779Y-98535093D01*
X129102011Y-98514749D01*
X129112564Y-98497122D01*
X129120839Y-98483200D01*
X129126242Y-98473972D01*
X129128176Y-98470427D01*
X129128838Y-98468934D01*
X129132634Y-98461948D01*
X129139048Y-98450682D01*
X129147214Y-98436670D01*
X129147327Y-98436477D01*
X129166805Y-98402450D01*
X129188719Y-98362561D01*
X129212410Y-98318109D01*
X129237216Y-98270394D01*
X129262476Y-98220716D01*
X129287529Y-98170375D01*
X129311714Y-98120671D01*
X129334370Y-98072904D01*
X129354835Y-98028373D01*
X129367434Y-98000428D01*
X129623425Y-98000428D01*
X129633351Y-98022676D01*
X129633388Y-98022759D01*
X129642724Y-98044585D01*
X129654055Y-98072532D01*
X129666904Y-98105320D01*
X129680789Y-98141666D01*
X129695233Y-98180288D01*
X129709756Y-98219905D01*
X129723878Y-98259235D01*
X129737119Y-98296996D01*
X129749001Y-98331907D01*
X129759520Y-98363820D01*
X129783071Y-98438572D01*
X129804513Y-98511399D01*
X129823363Y-98580624D01*
X129839138Y-98644571D01*
X129841493Y-98654438D01*
X129845262Y-98669030D01*
X129848360Y-98679581D01*
X129850284Y-98684298D01*
X129853566Y-98684260D01*
X129863188Y-98681295D01*
X129878125Y-98675496D01*
X129897477Y-98667273D01*
X129920346Y-98657038D01*
X129945832Y-98645204D01*
X129973037Y-98632181D01*
X130001060Y-98618382D01*
X130029003Y-98604219D01*
X130055967Y-98590103D01*
X130077146Y-98578631D01*
X130152002Y-98534996D01*
X130221789Y-98489348D01*
X130286051Y-98442061D01*
X130344331Y-98393508D01*
X130396172Y-98344063D01*
X130441117Y-98294102D01*
X130478709Y-98243997D01*
X130479614Y-98242651D01*
X130504864Y-98200442D01*
X130526376Y-98155410D01*
X130543175Y-98109851D01*
X130554284Y-98066068D01*
X130555287Y-98060036D01*
X130557616Y-98036986D01*
X130558684Y-98010024D01*
X130558490Y-97982033D01*
X130557033Y-97955899D01*
X130554313Y-97934503D01*
X130552252Y-97924348D01*
X130540507Y-97882437D01*
X130523736Y-97839120D01*
X130503002Y-97796895D01*
X130479366Y-97758260D01*
X130479082Y-97757846D01*
X130469279Y-97743528D01*
X130459936Y-97729810D01*
X130453040Y-97719609D01*
X130450513Y-97716299D01*
X130442258Y-97706813D01*
X130430059Y-97693591D01*
X130414979Y-97677718D01*
X130398081Y-97660278D01*
X130380431Y-97642357D01*
X130363090Y-97625039D01*
X130347122Y-97609408D01*
X130333592Y-97596550D01*
X130323562Y-97587550D01*
X130299723Y-97568000D01*
X130251486Y-97531459D01*
X130199111Y-97495165D01*
X130144796Y-97460610D01*
X130090738Y-97429289D01*
X130065165Y-97415481D01*
X130036354Y-97400343D01*
X130006611Y-97385069D01*
X129977492Y-97370439D01*
X129950552Y-97357235D01*
X129927346Y-97346238D01*
X129909429Y-97338229D01*
X129902642Y-97335337D01*
X129886685Y-97328478D01*
X129871210Y-97321764D01*
X129860522Y-97317488D01*
X129852253Y-97315612D01*
X129848856Y-97317478D01*
X129847637Y-97321828D01*
X129844926Y-97332501D01*
X129841241Y-97347539D01*
X129837016Y-97365195D01*
X129831724Y-97387008D01*
X129824699Y-97414821D01*
X129817271Y-97443252D01*
X129809988Y-97470244D01*
X129803397Y-97493741D01*
X129798044Y-97511689D01*
X129795487Y-97519867D01*
X129790885Y-97534640D01*
X129784897Y-97553896D01*
X129778011Y-97576066D01*
X129770713Y-97599585D01*
X129758236Y-97638862D01*
X129742140Y-97687432D01*
X129724785Y-97737918D01*
X129706741Y-97788747D01*
X129688573Y-97838348D01*
X129670851Y-97885152D01*
X129654141Y-97927586D01*
X129639011Y-97964079D01*
X129623564Y-98000103D01*
X129623425Y-98000428D01*
X129367434Y-98000428D01*
X129367581Y-98000103D01*
X129344946Y-97950244D01*
X129337951Y-97935152D01*
X129327766Y-97913712D01*
X129315469Y-97888192D01*
X129301672Y-97859831D01*
X129286983Y-97829863D01*
X129272013Y-97799524D01*
X129257372Y-97770051D01*
X129243669Y-97742678D01*
X129231515Y-97718643D01*
X129221520Y-97699181D01*
X129214293Y-97685527D01*
X129212825Y-97682833D01*
X129205176Y-97668761D01*
X129195923Y-97651696D01*
X129186749Y-97634743D01*
X129147705Y-97563984D01*
X129081596Y-97450374D01*
X129010803Y-97336045D01*
X128934645Y-97219912D01*
X128865636Y-97119991D01*
X129151300Y-97119991D01*
X129170225Y-97148838D01*
X129172971Y-97153032D01*
X129182591Y-97167863D01*
X129191041Y-97181075D01*
X129196751Y-97190221D01*
X129200646Y-97196556D01*
X129208180Y-97208699D01*
X129218298Y-97224943D01*
X129230175Y-97243966D01*
X129242988Y-97264444D01*
X129252464Y-97279578D01*
X129267027Y-97302883D01*
X129278873Y-97321973D01*
X129288932Y-97338400D01*
X129298129Y-97353717D01*
X129307393Y-97369476D01*
X129317652Y-97387229D01*
X129329832Y-97408527D01*
X129344861Y-97434924D01*
X129358505Y-97459037D01*
X129376197Y-97490773D01*
X129393870Y-97523078D01*
X129412394Y-97557561D01*
X129432639Y-97595832D01*
X129455475Y-97639498D01*
X129459267Y-97646827D01*
X129468139Y-97664204D01*
X129476184Y-97680212D01*
X129480511Y-97688296D01*
X129485926Y-97695624D01*
X129489254Y-97695733D01*
X129490119Y-97694086D01*
X129493891Y-97684984D01*
X129499450Y-97670013D01*
X129506407Y-97650334D01*
X129514369Y-97627108D01*
X129522948Y-97601495D01*
X129531753Y-97574658D01*
X129540393Y-97547757D01*
X129548477Y-97521953D01*
X129555616Y-97498407D01*
X129558774Y-97487715D01*
X129569458Y-97450916D01*
X129579754Y-97414526D01*
X129589458Y-97379331D01*
X129598369Y-97346119D01*
X129606285Y-97315678D01*
X129613003Y-97288795D01*
X129618322Y-97266256D01*
X129622039Y-97248851D01*
X129623952Y-97237364D01*
X129623860Y-97232586D01*
X129621922Y-97231539D01*
X129613121Y-97228363D01*
X129598304Y-97223719D01*
X129578471Y-97217877D01*
X129554621Y-97211106D01*
X129527753Y-97203675D01*
X129498868Y-97195854D01*
X129468963Y-97187912D01*
X129439038Y-97180119D01*
X129410093Y-97172744D01*
X129383126Y-97166057D01*
X129359138Y-97160326D01*
X129339126Y-97155822D01*
X129332155Y-97154327D01*
X129295222Y-97146508D01*
X129261100Y-97139455D01*
X129230751Y-97133357D01*
X129205138Y-97128405D01*
X129185223Y-97124790D01*
X129171966Y-97122703D01*
X129151300Y-97119991D01*
X128865636Y-97119991D01*
X128852443Y-97100889D01*
X128848206Y-97094796D01*
X128843175Y-97087736D01*
X128838400Y-97082283D01*
X128832875Y-97078144D01*
X128825596Y-97075028D01*
X128815561Y-97072641D01*
X128801764Y-97070689D01*
X128783201Y-97068882D01*
X128758868Y-97066924D01*
X128727760Y-97064525D01*
X128717480Y-97063739D01*
X128653590Y-97059507D01*
X128584787Y-97055950D01*
X128512480Y-97053087D01*
X128438077Y-97050940D01*
X128362988Y-97049528D01*
X128288621Y-97048874D01*
X128216384Y-97048998D01*
X128147687Y-97049919D01*
X128083938Y-97051659D01*
X128026545Y-97054239D01*
X128011319Y-97055117D01*
X127978830Y-97057138D01*
X127945539Y-97059386D01*
X127912401Y-97061782D01*
X127880372Y-97064246D01*
X127850407Y-97066698D01*
X127823462Y-97069060D01*
X127800492Y-97071250D01*
X127782453Y-97073191D01*
X127770301Y-97074802D01*
X127764991Y-97076003D01*
X127764005Y-97076821D01*
X127758279Y-97083518D01*
X127748695Y-97096211D01*
X127735549Y-97114481D01*
X127728214Y-97124950D01*
X127719137Y-97137905D01*
X127699756Y-97166064D01*
X127677701Y-97198535D01*
X127653267Y-97234899D01*
X127642628Y-97250869D01*
X127609310Y-97301642D01*
X127577502Y-97351255D01*
X127548002Y-97398440D01*
X127521605Y-97441923D01*
X127499112Y-97480437D01*
X127494095Y-97489227D01*
X127484185Y-97506534D01*
X127473001Y-97526016D01*
X127462138Y-97544894D01*
X127454707Y-97557824D01*
X127444413Y-97575836D01*
X127435321Y-97591853D01*
X127428788Y-97603491D01*
X127427912Y-97605067D01*
X127420209Y-97618885D01*
X127410778Y-97635733D01*
X127401461Y-97652322D01*
X127395749Y-97662900D01*
X127387058Y-97679614D01*
X127376030Y-97701205D01*
X127363153Y-97726685D01*
X127348917Y-97755066D01*
X127333809Y-97785362D01*
X127318319Y-97816585D01*
X127302936Y-97847747D01*
X127288146Y-97877862D01*
X127274441Y-97905941D01*
X127262307Y-97930998D01*
X127252233Y-97952045D01*
X127244709Y-97968094D01*
X127240222Y-97978159D01*
X127231321Y-97999555D01*
X127230619Y-98001243D01*
X126972435Y-98001243D01*
X126973103Y-97999555D01*
X126949159Y-97940204D01*
X126921548Y-97869904D01*
X126889067Y-97782374D01*
X126858039Y-97693507D01*
X126828985Y-97604904D01*
X126802429Y-97518169D01*
X126778891Y-97434903D01*
X126758895Y-97356707D01*
X126748408Y-97313060D01*
X126718490Y-97325894D01*
X126707981Y-97330434D01*
X126680825Y-97342411D01*
X126653093Y-97354946D01*
X126626339Y-97367314D01*
X126602115Y-97378794D01*
X126581975Y-97388662D01*
X126567471Y-97396195D01*
X126564979Y-97397560D01*
X126549085Y-97406223D01*
X126530512Y-97416294D01*
X126512780Y-97425862D01*
X126510071Y-97427329D01*
X126490497Y-97438275D01*
X126469181Y-97450658D01*
X126450277Y-97462069D01*
X126390334Y-97501002D01*
X126322342Y-97550126D01*
X126261474Y-97600065D01*
X126207800Y-97650716D01*
X126161387Y-97701975D01*
X126122305Y-97753741D01*
X126090621Y-97805910D01*
X126066405Y-97858379D01*
X126049725Y-97911045D01*
X126040649Y-97963806D01*
X126039246Y-98016559D01*
X125805888Y-98016559D01*
X125805789Y-98000000D01*
X125805792Y-97994225D01*
X125806148Y-97960155D01*
X125807294Y-97931659D01*
X125809521Y-97906805D01*
X125813117Y-97883661D01*
X125818374Y-97860294D01*
X125825581Y-97834773D01*
X125835027Y-97805165D01*
X125841454Y-97786638D01*
X125869599Y-97720409D01*
X125905383Y-97655408D01*
X125948735Y-97591727D01*
X125999581Y-97529456D01*
X126057848Y-97468688D01*
X126123464Y-97409514D01*
X126196355Y-97352026D01*
X126200558Y-97348915D01*
X126216174Y-97337351D01*
X126229344Y-97327587D01*
X126238790Y-97320571D01*
X126243233Y-97317253D01*
X126255973Y-97308040D01*
X126279052Y-97292691D01*
X126307100Y-97275159D01*
X126338908Y-97256149D01*
X126371006Y-97237668D01*
X126973861Y-97237668D01*
X126974953Y-97248233D01*
X126978049Y-97264889D01*
X126982942Y-97286877D01*
X126989427Y-97313439D01*
X126997296Y-97343816D01*
X127006345Y-97377250D01*
X127016367Y-97412983D01*
X127027155Y-97450257D01*
X127038504Y-97488312D01*
X127050208Y-97526390D01*
X127062060Y-97563734D01*
X127073855Y-97599585D01*
X127080948Y-97620635D01*
X127089110Y-97644641D01*
X127096268Y-97665461D01*
X127102056Y-97682036D01*
X127106108Y-97693312D01*
X127108058Y-97698231D01*
X127110333Y-97698537D01*
X127115167Y-97692743D01*
X127121788Y-97680652D01*
X127122823Y-97678567D01*
X127128507Y-97667477D01*
X127137109Y-97650999D01*
X127148017Y-97630279D01*
X127160622Y-97606465D01*
X127174313Y-97580704D01*
X127188479Y-97554144D01*
X127202510Y-97527932D01*
X127215795Y-97503216D01*
X127227724Y-97481142D01*
X127237686Y-97462858D01*
X127244876Y-97450027D01*
X127255487Y-97431673D01*
X127265471Y-97414934D01*
X127266520Y-97413212D01*
X127273555Y-97401470D01*
X127278523Y-97392857D01*
X127280406Y-97389133D01*
X127281086Y-97387738D01*
X127285072Y-97380740D01*
X127292028Y-97368922D01*
X127301264Y-97353449D01*
X127312092Y-97335487D01*
X127317642Y-97326312D01*
X127328866Y-97307704D01*
X127338764Y-97291227D01*
X127346426Y-97278395D01*
X127350943Y-97270725D01*
X127355076Y-97263762D01*
X127362955Y-97250942D01*
X127371432Y-97237520D01*
X127378602Y-97226316D01*
X127389480Y-97209257D01*
X127399613Y-97193310D01*
X127407531Y-97180892D01*
X127417367Y-97165626D01*
X127425409Y-97153306D01*
X127432003Y-97143295D01*
X127439249Y-97131719D01*
X127442272Y-97124950D01*
X127441105Y-97121917D01*
X127435781Y-97121547D01*
X127426330Y-97122770D01*
X127420621Y-97123655D01*
X127403319Y-97126683D01*
X127380872Y-97130915D01*
X127354984Y-97136008D01*
X127327360Y-97141619D01*
X127299702Y-97147403D01*
X127273717Y-97153017D01*
X127251107Y-97158117D01*
X127237909Y-97161179D01*
X127217192Y-97165973D01*
X127198331Y-97170322D01*
X127184201Y-97173564D01*
X127180124Y-97174505D01*
X127158169Y-97179835D01*
X127133470Y-97186189D01*
X127107173Y-97193234D01*
X127080422Y-97200641D01*
X127054364Y-97208078D01*
X127030143Y-97215214D01*
X127008905Y-97221719D01*
X126991795Y-97227261D01*
X126979959Y-97231510D01*
X126974542Y-97234134D01*
X126973861Y-97237668D01*
X126371006Y-97237668D01*
X126373269Y-97236365D01*
X126408973Y-97216513D01*
X126444811Y-97197298D01*
X126479575Y-97179425D01*
X126480471Y-97178976D01*
X126504736Y-97167060D01*
X126531703Y-97154218D01*
X126560156Y-97140990D01*
X126588879Y-97127921D01*
X126616653Y-97115550D01*
X126642264Y-97104421D01*
X126664495Y-97095076D01*
X126682129Y-97088056D01*
X126693950Y-97083904D01*
X126697897Y-97082491D01*
X126701188Y-97079327D01*
X126701907Y-97072924D01*
X126700716Y-97061045D01*
X126699969Y-97054944D01*
X126698210Y-97040199D01*
X126695915Y-97020674D01*
X126693297Y-96998184D01*
X126690568Y-96974546D01*
X126680216Y-96863504D01*
X126675092Y-96755179D01*
X126675262Y-96685845D01*
X126909893Y-96685845D01*
X126910215Y-96727129D01*
X126911166Y-96770093D01*
X126912698Y-96813380D01*
X126914762Y-96855636D01*
X126917309Y-96895506D01*
X126920289Y-96931634D01*
X126923653Y-96962664D01*
X126927352Y-96987242D01*
X126927566Y-96988350D01*
X126929878Y-96996424D01*
X126932186Y-96999485D01*
X126938540Y-96998100D01*
X126953633Y-96994152D01*
X126973901Y-96988361D01*
X126997986Y-96981118D01*
X127024531Y-96972815D01*
X127027706Y-96971843D01*
X127042225Y-96967813D01*
X127062801Y-96962492D01*
X127088238Y-96956159D01*
X127117343Y-96949096D01*
X127148919Y-96941582D01*
X127181773Y-96933898D01*
X127214709Y-96926324D01*
X127246532Y-96919140D01*
X127276048Y-96912626D01*
X127302061Y-96907063D01*
X127323377Y-96902730D01*
X127330493Y-96901351D01*
X127373085Y-96893437D01*
X127419155Y-96885373D01*
X127466480Y-96877519D01*
X127512837Y-96870237D01*
X127556003Y-96863887D01*
X127593756Y-96858830D01*
X127603895Y-96857496D01*
X127618930Y-96855245D01*
X127629924Y-96853245D01*
X127635017Y-96851812D01*
X127635647Y-96851242D01*
X127640463Y-96845799D01*
X127648806Y-96835750D01*
X127659703Y-96822278D01*
X127663947Y-96816935D01*
X127966512Y-96816935D01*
X127967503Y-96818532D01*
X127971505Y-96819456D01*
X127979477Y-96819770D01*
X127992377Y-96819538D01*
X128011165Y-96818824D01*
X128036799Y-96817693D01*
X128050369Y-96817184D01*
X128074781Y-96816530D01*
X128104935Y-96815936D01*
X128139634Y-96815416D01*
X128177686Y-96814985D01*
X128217894Y-96814659D01*
X128259063Y-96814452D01*
X128300000Y-96814380D01*
X128330391Y-96814420D01*
X128371423Y-96814590D01*
X128411710Y-96814882D01*
X128450076Y-96815279D01*
X128485342Y-96815768D01*
X128516330Y-96816333D01*
X128541861Y-96816961D01*
X128560758Y-96817636D01*
X128582673Y-96818476D01*
X128602444Y-96818913D01*
X128618078Y-96818911D01*
X128628355Y-96818472D01*
X128632051Y-96817596D01*
X128632032Y-96817355D01*
X128629272Y-96812121D01*
X128623261Y-96804574D01*
X128620551Y-96801530D01*
X128612227Y-96791997D01*
X128601327Y-96779370D01*
X128589494Y-96765549D01*
X128576916Y-96751027D01*
X128557623Y-96729374D01*
X128535857Y-96705500D01*
X128512215Y-96680018D01*
X128487297Y-96653539D01*
X128461699Y-96626677D01*
X128436020Y-96600042D01*
X128410858Y-96574249D01*
X128386812Y-96549908D01*
X128364479Y-96527632D01*
X128344457Y-96508033D01*
X128327345Y-96491724D01*
X128313741Y-96479316D01*
X128304243Y-96471423D01*
X128299449Y-96468656D01*
X128299102Y-96468710D01*
X128293720Y-96472187D01*
X128283717Y-96480614D01*
X128269742Y-96493344D01*
X128252439Y-96509729D01*
X128232456Y-96529123D01*
X128210438Y-96550877D01*
X128187033Y-96574345D01*
X128162886Y-96598878D01*
X128138644Y-96623830D01*
X128114954Y-96648552D01*
X128092461Y-96672397D01*
X128071813Y-96694718D01*
X128053655Y-96714868D01*
X128039818Y-96730499D01*
X128018250Y-96754933D01*
X128001180Y-96774385D01*
X127988143Y-96789395D01*
X127978672Y-96800500D01*
X127972301Y-96808240D01*
X127968563Y-96813152D01*
X127967573Y-96814601D01*
X127966512Y-96816935D01*
X127663947Y-96816935D01*
X127672182Y-96806567D01*
X127676048Y-96801661D01*
X127688204Y-96786255D01*
X127698485Y-96773257D01*
X127705906Y-96763912D01*
X127709481Y-96759463D01*
X127711896Y-96756459D01*
X127718244Y-96748347D01*
X127726249Y-96737978D01*
X127731354Y-96731392D01*
X127740629Y-96719697D01*
X127747889Y-96710858D01*
X127753220Y-96704580D01*
X127762561Y-96693537D01*
X127772666Y-96681559D01*
X127780727Y-96671993D01*
X127790428Y-96660490D01*
X127797474Y-96652145D01*
X127805594Y-96642654D01*
X127819859Y-96626249D01*
X127836856Y-96606903D01*
X127855278Y-96586089D01*
X127873814Y-96565281D01*
X127891155Y-96545952D01*
X127905992Y-96529576D01*
X127917015Y-96517625D01*
X127935638Y-96497821D01*
X127963700Y-96468155D01*
X127987973Y-96442771D01*
X128009379Y-96420723D01*
X128028839Y-96401065D01*
X128047275Y-96382850D01*
X128065610Y-96365134D01*
X128074935Y-96356175D01*
X128089461Y-96342047D01*
X128101444Y-96330178D01*
X128109841Y-96321606D01*
X128113609Y-96317369D01*
X128113781Y-96316774D01*
X128110759Y-96311639D01*
X128109983Y-96310879D01*
X128484957Y-96310879D01*
X128486069Y-96314534D01*
X128487673Y-96316774D01*
X128490914Y-96321302D01*
X128499887Y-96331628D01*
X128513386Y-96345953D01*
X128531809Y-96364719D01*
X128555551Y-96388368D01*
X128575739Y-96408391D01*
X128606293Y-96439011D01*
X128633963Y-96467253D01*
X128659867Y-96494321D01*
X128685121Y-96521419D01*
X128710843Y-96549755D01*
X128738149Y-96580532D01*
X128768157Y-96614955D01*
X128801984Y-96654230D01*
X128807362Y-96660488D01*
X128817066Y-96671706D01*
X128824206Y-96679860D01*
X128827527Y-96683513D01*
X128828844Y-96685045D01*
X128834462Y-96691933D01*
X128843791Y-96703520D01*
X128856131Y-96718933D01*
X128870782Y-96737296D01*
X128887041Y-96757736D01*
X128903576Y-96778606D01*
X128921335Y-96801031D01*
X128934659Y-96817596D01*
X128935437Y-96818563D01*
X128946637Y-96831837D01*
X128955688Y-96841489D01*
X128963343Y-96848153D01*
X128970358Y-96852465D01*
X128977484Y-96855059D01*
X128985477Y-96856572D01*
X128995089Y-96857637D01*
X129007074Y-96858891D01*
X129016798Y-96860075D01*
X129045046Y-96863915D01*
X129078724Y-96868937D01*
X129116252Y-96874895D01*
X129156050Y-96881539D01*
X129196539Y-96888622D01*
X129201109Y-96889438D01*
X129220704Y-96892902D01*
X129239715Y-96896213D01*
X129254589Y-96898752D01*
X129270248Y-96901551D01*
X129299293Y-96907311D01*
X129333512Y-96914607D01*
X129371489Y-96923102D01*
X129411806Y-96932461D01*
X129453047Y-96942347D01*
X129493794Y-96952425D01*
X129532631Y-96962357D01*
X129568142Y-96971808D01*
X129598908Y-96980442D01*
X129606611Y-96982681D01*
X129625878Y-96988288D01*
X129642241Y-96993057D01*
X129654165Y-96996544D01*
X129660120Y-96998299D01*
X129660353Y-96998368D01*
X129663578Y-96998819D01*
X129666124Y-96997392D01*
X129668221Y-96993105D01*
X129670104Y-96984972D01*
X129672002Y-96972012D01*
X129674150Y-96953238D01*
X129676778Y-96927668D01*
X129683309Y-96853086D01*
X129688130Y-96765323D01*
X129689200Y-96682831D01*
X129686484Y-96604711D01*
X129679945Y-96530066D01*
X129669547Y-96457996D01*
X129655256Y-96387602D01*
X129654237Y-96383359D01*
X129646767Y-96356814D01*
X129636880Y-96327143D01*
X129625219Y-96295866D01*
X129612426Y-96264507D01*
X129599146Y-96234588D01*
X129586020Y-96207631D01*
X129573691Y-96185160D01*
X129562804Y-96168696D01*
X129560142Y-96165183D01*
X129551747Y-96153600D01*
X129545289Y-96144011D01*
X129544017Y-96142084D01*
X129534367Y-96130081D01*
X129520384Y-96115209D01*
X129503672Y-96098978D01*
X129485834Y-96082897D01*
X129468471Y-96068478D01*
X129453186Y-96057229D01*
X129435791Y-96046236D01*
X129386716Y-96021324D01*
X129335220Y-96003653D01*
X129319585Y-96000294D01*
X129293177Y-95996633D01*
X129262472Y-95994040D01*
X129229456Y-95992592D01*
X129196117Y-95992366D01*
X129164440Y-95993441D01*
X129136413Y-95995893D01*
X129102139Y-96001014D01*
X129035507Y-96015683D01*
X128966064Y-96036976D01*
X128893526Y-96064985D01*
X128817610Y-96099803D01*
X128809583Y-96103757D01*
X128787827Y-96114543D01*
X128770578Y-96123264D01*
X128755917Y-96130942D01*
X128741920Y-96138600D01*
X128726664Y-96147259D01*
X128708228Y-96157941D01*
X128697245Y-96164435D01*
X128664696Y-96184549D01*
X128629172Y-96207554D01*
X128592907Y-96231955D01*
X128558138Y-96256258D01*
X128527100Y-96278970D01*
X128513373Y-96289302D01*
X128500239Y-96299166D01*
X128490428Y-96306509D01*
X128485398Y-96310238D01*
X128484957Y-96310879D01*
X128109983Y-96310879D01*
X128101944Y-96303011D01*
X128088042Y-96291396D01*
X128069756Y-96277301D01*
X128047790Y-96261231D01*
X128022848Y-96243694D01*
X127995634Y-96225196D01*
X127966851Y-96206244D01*
X127937205Y-96187343D01*
X127907397Y-96169001D01*
X127898734Y-96163800D01*
X127825277Y-96122040D01*
X127755015Y-96086513D01*
X127687087Y-96056871D01*
X127620637Y-96032767D01*
X127554804Y-96013854D01*
X127488731Y-95999786D01*
X127472227Y-95997305D01*
X127442292Y-95994332D01*
X127409453Y-95992532D01*
X127375831Y-95991930D01*
X127343549Y-95992550D01*
X127314729Y-95994416D01*
X127291492Y-95997551D01*
X127267856Y-96002747D01*
X127215409Y-96019629D01*
X127167209Y-96043058D01*
X127123319Y-96072995D01*
X127083804Y-96109399D01*
X127048725Y-96152230D01*
X127025363Y-96187646D01*
X126996409Y-96241052D01*
X126971711Y-96299299D01*
X126951142Y-96362806D01*
X126934570Y-96431989D01*
X126921867Y-96507267D01*
X126912902Y-96589057D01*
X126911338Y-96613736D01*
X126910252Y-96647596D01*
X126909893Y-96685845D01*
X126675262Y-96685845D01*
X126675346Y-96651303D01*
X126680949Y-96552037D01*
X126691873Y-96457543D01*
X126708087Y-96367984D01*
X126729563Y-96283521D01*
X126756270Y-96204317D01*
X126788180Y-96130534D01*
X126825262Y-96062333D01*
X126867489Y-95999877D01*
X126877707Y-95987136D01*
X126896892Y-95965666D01*
X126919471Y-95942456D01*
X126943792Y-95919075D01*
X126968203Y-95897096D01*
X126991054Y-95878089D01*
X127010693Y-95863625D01*
X127019278Y-95857974D01*
X127074868Y-95825275D01*
X127130969Y-95799274D01*
X127188656Y-95779660D01*
X127249003Y-95766121D01*
X127313084Y-95758346D01*
X127381974Y-95756024D01*
X127419363Y-95756865D01*
X127485253Y-95761930D01*
X127550555Y-95771809D01*
X127616675Y-95786791D01*
X127685021Y-95807166D01*
X127756998Y-95833224D01*
X127765983Y-95836750D01*
X127798564Y-95849912D01*
X127829141Y-95862980D01*
X127858780Y-95876504D01*
X127888548Y-95891034D01*
X127919509Y-95907118D01*
X127952730Y-95925306D01*
X127989276Y-95946148D01*
X128030213Y-95970193D01*
X128076606Y-95997990D01*
X128077042Y-95998254D01*
X128084981Y-96003277D01*
X128095968Y-96010452D01*
X128108086Y-96018498D01*
X128119413Y-96026130D01*
X128128031Y-96032066D01*
X128132021Y-96035024D01*
X128133612Y-96036275D01*
X128140584Y-96041275D01*
X128151626Y-96048977D01*
X128165226Y-96058322D01*
X128175700Y-96065588D01*
X128192383Y-96077476D01*
X128210664Y-96090777D01*
X128229409Y-96104638D01*
X128247483Y-96118205D01*
X128263752Y-96130625D01*
X128277081Y-96141045D01*
X128286335Y-96148610D01*
X128290381Y-96152468D01*
X128292433Y-96154736D01*
X128296313Y-96155467D01*
X128302450Y-96153252D01*
X128311789Y-96147587D01*
X128325272Y-96137967D01*
X128343845Y-96123888D01*
X128355778Y-96114727D01*
X128381113Y-96095421D01*
X128402580Y-96079346D01*
X128421773Y-96065351D01*
X128440286Y-96052282D01*
X128459714Y-96038988D01*
X128481652Y-96024317D01*
X128562840Y-95972691D01*
X128655296Y-95919632D01*
X128745821Y-95873985D01*
X128834539Y-95835698D01*
X128921570Y-95804720D01*
X129007038Y-95780998D01*
X129091064Y-95764481D01*
X129147277Y-95757918D01*
X129211805Y-95755217D01*
X129276074Y-95757351D01*
X129338068Y-95764246D01*
X129395770Y-95775827D01*
X129395959Y-95775875D01*
X129459563Y-95795983D01*
X129520360Y-95823168D01*
X129577972Y-95857082D01*
X129632025Y-95897378D01*
X129682141Y-95943708D01*
X129727946Y-95995725D01*
X129769062Y-96053081D01*
X129805115Y-96115430D01*
X129835728Y-96182423D01*
X129853313Y-96228910D01*
X129874243Y-96293972D01*
X129891220Y-96360457D01*
X129904457Y-96429533D01*
X129914169Y-96502367D01*
X129920568Y-96580127D01*
X129923869Y-96663980D01*
X129924153Y-96682831D01*
X129924364Y-96696868D01*
G37*
%LPC*%
D15*
X134290000Y-100000000D03*
D16*
X134925000Y-100000000D03*
D15*
X135560000Y-100000000D03*
X134290000Y-102540000D03*
D16*
X134925000Y-102540000D03*
D15*
X135560000Y-102540000D03*
X129300000Y-107721500D03*
D17*
X129300000Y-108356500D03*
D15*
X129300000Y-108991500D03*
X129200000Y-92380000D03*
D17*
X129200000Y-91745000D03*
D15*
X129200000Y-91110000D03*
X124130000Y-92380000D03*
D17*
X124130000Y-91745000D03*
D15*
X124130000Y-91110000D03*
X121600000Y-92400000D03*
D17*
X121600000Y-91765000D03*
D15*
X121600000Y-91130000D03*
X126800000Y-107700000D03*
D17*
X126800000Y-108335000D03*
D15*
X126800000Y-108970000D03*
X134300000Y-92400000D03*
D17*
X134300000Y-91765000D03*
D15*
X134300000Y-91130000D03*
X131700000Y-92400000D03*
D17*
X131700000Y-91765000D03*
D15*
X131700000Y-91130000D03*
X134300000Y-107721500D03*
D17*
X134300000Y-108356500D03*
D15*
X134300000Y-108991500D03*
X131800000Y-107721500D03*
D17*
X131800000Y-108356500D03*
D15*
X131800000Y-108991500D03*
X134290000Y-97460000D03*
D16*
X134925000Y-97460000D03*
D15*
X135560000Y-97460000D03*
X134290000Y-94920000D03*
D16*
X134925000Y-94920000D03*
D15*
X135560000Y-94920000D03*
X124300000Y-107700000D03*
D17*
X124300000Y-108335000D03*
D15*
X124300000Y-108970000D03*
X121800000Y-107700000D03*
D17*
X121800000Y-108335000D03*
D15*
X121800000Y-108970000D03*
X126670000Y-92380000D03*
D17*
X126670000Y-91745000D03*
D15*
X126670000Y-91110000D03*
D18*
X105000000Y-96610000D03*
X105000000Y-102390000D03*
D19*
X105530000Y-95180000D03*
D20*
X101350000Y-95180000D03*
D19*
X105530000Y-103820000D03*
D20*
X101350000Y-103820000D03*
%LPD*%
M02*
