G04 #@! TF.GenerationSoftware,KiCad,Pcbnew,8.0.1*
G04 #@! TF.CreationDate,2024-12-04T18:09:29+05:30*
G04 #@! TF.ProjectId,V1,56312e6b-6963-4616-945f-706362585858,r0.1*
G04 #@! TF.SameCoordinates,Original*
G04 #@! TF.FileFunction,Soldermask,Bot*
G04 #@! TF.FilePolarity,Negative*
%FSLAX46Y46*%
G04 Gerber Fmt 4.6, Leading zero omitted, Abs format (unit mm)*
G04 Created by KiCad (PCBNEW 8.0.1) date 2024-12-04 18:09:29*
%MOMM*%
%LPD*%
G01*
G04 APERTURE LIST*
%ADD10C,1.500000*%
%ADD11R,1.270000X1.524000*%
%ADD12R,1.524000X1.270000*%
%ADD13C,0.650000*%
%ADD14O,1.900000X1.000000*%
%ADD15O,1.600000X1.000000*%
G04 APERTURE END LIST*
D10*
X134290000Y-100000000D03*
D11*
X134925000Y-100000000D03*
D10*
X135560000Y-100000000D03*
X134290000Y-102540000D03*
D11*
X134925000Y-102540000D03*
D10*
X135560000Y-102540000D03*
X129300000Y-107721500D03*
D12*
X129300000Y-108356500D03*
D10*
X129300000Y-108991500D03*
X129200000Y-92380000D03*
D12*
X129200000Y-91745000D03*
D10*
X129200000Y-91110000D03*
X124130000Y-92380000D03*
D12*
X124130000Y-91745000D03*
D10*
X124130000Y-91110000D03*
X121600000Y-92400000D03*
D12*
X121600000Y-91765000D03*
D10*
X121600000Y-91130000D03*
X126800000Y-107700000D03*
D12*
X126800000Y-108335000D03*
D10*
X126800000Y-108970000D03*
X134300000Y-92400000D03*
D12*
X134300000Y-91765000D03*
D10*
X134300000Y-91130000D03*
X131700000Y-92400000D03*
D12*
X131700000Y-91765000D03*
D10*
X131700000Y-91130000D03*
X134300000Y-107721500D03*
D12*
X134300000Y-108356500D03*
D10*
X134300000Y-108991500D03*
X131800000Y-107721500D03*
D12*
X131800000Y-108356500D03*
D10*
X131800000Y-108991500D03*
X134290000Y-97460000D03*
D11*
X134925000Y-97460000D03*
D10*
X135560000Y-97460000D03*
X134290000Y-94920000D03*
D11*
X134925000Y-94920000D03*
D10*
X135560000Y-94920000D03*
X124300000Y-107700000D03*
D12*
X124300000Y-108335000D03*
D10*
X124300000Y-108970000D03*
X121800000Y-107700000D03*
D12*
X121800000Y-108335000D03*
D10*
X121800000Y-108970000D03*
X126670000Y-92380000D03*
D12*
X126670000Y-91745000D03*
D10*
X126670000Y-91110000D03*
D13*
X105000000Y-96610000D03*
X105000000Y-102390000D03*
D14*
X105530000Y-95180000D03*
D15*
X101350000Y-95180000D03*
D14*
X105530000Y-103820000D03*
D15*
X101350000Y-103820000D03*
M02*
