G04 #@! TF.GenerationSoftware,KiCad,Pcbnew,8.0.2*
G04 #@! TF.CreationDate,2024-11-02T23:59:00+05:00*
G04 #@! TF.ProjectId,V1,56312e6b-6963-4616-945f-706362585858,r0.1*
G04 #@! TF.SameCoordinates,Original*
G04 #@! TF.FileFunction,Copper,L3,Inr*
G04 #@! TF.FilePolarity,Positive*
%FSLAX46Y46*%
G04 Gerber Fmt 4.6, Leading zero omitted, Abs format (unit mm)*
G04 Created by KiCad (PCBNEW 8.0.2) date 2024-11-02 23:59:00*
%MOMM*%
%LPD*%
G01*
G04 APERTURE LIST*
G04 #@! TA.AperFunction,ComponentPad*
%ADD10C,1.524000*%
G04 #@! TD*
G04 #@! TA.AperFunction,ComponentPad*
%ADD11O,1.900000X1.000000*%
G04 #@! TD*
G04 #@! TA.AperFunction,ComponentPad*
%ADD12O,1.600000X1.000000*%
G04 #@! TD*
G04 #@! TA.AperFunction,HeatsinkPad*
%ADD13C,0.500000*%
G04 #@! TD*
G04 #@! TA.AperFunction,ViaPad*
%ADD14C,0.300000*%
G04 #@! TD*
G04 #@! TA.AperFunction,Conductor*
%ADD15C,0.200000*%
G04 #@! TD*
G04 APERTURE END LIST*
D10*
X134290000Y-100000000D03*
X135560000Y-100000000D03*
X134290000Y-102540000D03*
X135560000Y-102540000D03*
X129300000Y-107721500D03*
X129300000Y-108991500D03*
X129200000Y-92380000D03*
X129200000Y-91110000D03*
X124130000Y-92380000D03*
X124130000Y-91110000D03*
X126800000Y-107700000D03*
X126800000Y-108970000D03*
X134300000Y-92400000D03*
X134300000Y-91130000D03*
X131700000Y-92400000D03*
X131700000Y-91130000D03*
X134300000Y-107721500D03*
X134300000Y-108991500D03*
X131800000Y-107721500D03*
X131800000Y-108991500D03*
X134290000Y-97460000D03*
X135560000Y-97460000D03*
X134290000Y-94920000D03*
X135560000Y-94920000D03*
X124300000Y-107700000D03*
X124300000Y-108970000D03*
X121800000Y-107700000D03*
X121800000Y-108970000D03*
X126670000Y-92380000D03*
X126670000Y-91110000D03*
D11*
X105530000Y-95180000D03*
D12*
X101350000Y-95180000D03*
D11*
X105530000Y-103820000D03*
D12*
X101350000Y-103820000D03*
D13*
X103300000Y-106950000D03*
X103300000Y-105850000D03*
D10*
X121600000Y-92400000D03*
X121600000Y-91130000D03*
D14*
X107250000Y-106650000D03*
X114453524Y-103589921D03*
X126300000Y-98600000D03*
X100600000Y-93700000D03*
X106900000Y-93650000D03*
X108250000Y-106650000D03*
X115202294Y-103350000D03*
X107800000Y-104150000D03*
X122463060Y-100881297D03*
X121650000Y-94100000D03*
X113781801Y-102918199D03*
X114000000Y-97100000D03*
X120135509Y-103199111D03*
X112730000Y-105600000D03*
X127700000Y-106100000D03*
X111535729Y-105133314D03*
X126900000Y-106100000D03*
X113500000Y-97100000D03*
X104100000Y-93800000D03*
X129100000Y-100600000D03*
X118669998Y-103000000D03*
X120550000Y-94800000D03*
X120550000Y-94000000D03*
X118300000Y-91700000D03*
X121604211Y-94859392D03*
X122430000Y-102027919D03*
X113000000Y-97000000D03*
X117700000Y-107400000D03*
X110000000Y-101100000D03*
X117700000Y-108200000D03*
X112100000Y-101200000D03*
X111000000Y-101100000D03*
X114900000Y-104600000D03*
X109900000Y-100000000D03*
X119600000Y-92800000D03*
X109000000Y-102900000D03*
X125400000Y-101800000D03*
X109700000Y-106800000D03*
X120800000Y-98700000D03*
X125400000Y-100800000D03*
X122900000Y-98100000D03*
X122900000Y-93400000D03*
X114300000Y-95900000D03*
X105200000Y-99700000D03*
X105200000Y-98799986D03*
X110800000Y-104400000D03*
X107200000Y-102000000D03*
X115474999Y-98518233D03*
X129109777Y-103250000D03*
X127000000Y-97600000D03*
X131644735Y-96685001D03*
X131034998Y-102444699D03*
X115474999Y-98018230D03*
X119669998Y-96000000D03*
X130300000Y-105400000D03*
X114800000Y-92200000D03*
X133228000Y-104100000D03*
X121398612Y-98029617D03*
X133500004Y-96200004D03*
X114425000Y-106900000D03*
X117149996Y-103496899D03*
X110500000Y-97850000D03*
X117669958Y-103185310D03*
X111025001Y-97891574D03*
X128411748Y-96650000D03*
X115474988Y-100058379D03*
X128853554Y-101346446D03*
X130800000Y-97400000D03*
X130534998Y-104134998D03*
X115475224Y-100558381D03*
X117200000Y-91500000D03*
X117500000Y-93200000D03*
X114000000Y-94300000D03*
X108500004Y-94300000D03*
X115500000Y-95600000D03*
X108900000Y-93400000D03*
X114600000Y-97549514D03*
X103400000Y-94800000D03*
X116150000Y-95865000D03*
X112400000Y-106600000D03*
X122100000Y-99069998D03*
X122744205Y-96919397D03*
X122100000Y-98569998D03*
X122791472Y-97437816D03*
X111005204Y-96550000D03*
X114600002Y-94700002D03*
X109000000Y-96550000D03*
X111600000Y-95400000D03*
X111600000Y-103600000D03*
X110070268Y-102977458D03*
X112600000Y-103600000D03*
X111000160Y-102970004D03*
X127190580Y-96650000D03*
X128899997Y-102500003D03*
X115474999Y-99558377D03*
X133293474Y-105413052D03*
X132400000Y-99200000D03*
X133392460Y-105945239D03*
X115474999Y-99018233D03*
X120630002Y-95500000D03*
X121200000Y-95900000D03*
X118169998Y-102950000D03*
X116600000Y-103600000D03*
X116200000Y-104100000D03*
X115280529Y-102044131D03*
X115474999Y-101581767D03*
X115470423Y-101058361D03*
D15*
X115100001Y-102500000D02*
X127400000Y-102500000D01*
X114824660Y-98032172D02*
X114824660Y-102224659D01*
X116856832Y-96000000D02*
X114824660Y-98032172D01*
X119669998Y-96000000D02*
X116856832Y-96000000D01*
X127400000Y-102500000D02*
X130300000Y-105400000D01*
X114824660Y-102224659D02*
X115100001Y-102500000D01*
X122000000Y-96900000D02*
X122900000Y-96000000D01*
X117229626Y-96900000D02*
X121500000Y-96900000D01*
X115474999Y-98518233D02*
X115611393Y-98518233D01*
X122900000Y-96000000D02*
X125400000Y-96000000D01*
X125400000Y-96000000D02*
X126900000Y-97500000D01*
X121500000Y-96900000D02*
X122000000Y-96900000D01*
X115611393Y-98518233D02*
X117229626Y-96900000D01*
X130159734Y-95200000D02*
X131644735Y-96685001D01*
X116993229Y-96500000D02*
X121834314Y-96500000D01*
X121834314Y-96500000D02*
X123134314Y-95200000D01*
X115474999Y-98018230D02*
X116993229Y-96500000D01*
X123134314Y-95200000D02*
X130159734Y-95200000D01*
X129600000Y-101800000D02*
X128899997Y-102500003D01*
X129300000Y-100100000D02*
X129600000Y-100400000D01*
X129600000Y-100400000D02*
X129600000Y-101800000D01*
X130380429Y-102500003D02*
X133293474Y-105413048D01*
X115474999Y-99558377D02*
X119558377Y-99558377D01*
X120100000Y-100100000D02*
X129300000Y-100100000D01*
X128899997Y-102500003D02*
X130380429Y-102500003D01*
X119558377Y-99558377D02*
X120100000Y-100100000D01*
X133293474Y-105413048D02*
X133293474Y-105413052D01*
X132000000Y-99600000D02*
X132400000Y-99200000D01*
X115474999Y-99018233D02*
X119773599Y-99018233D01*
X120355366Y-99600000D02*
X132000000Y-99600000D01*
X119773599Y-99018233D02*
X120355366Y-99600000D01*
G04 #@! TA.AperFunction,Conductor*
G36*
X119449583Y-99878562D02*
G01*
X119470225Y-99895196D01*
X119915489Y-100340460D01*
X119984012Y-100380022D01*
X120060438Y-100400500D01*
X120139562Y-100400500D01*
X122148812Y-100400500D01*
X122215851Y-100420185D01*
X122261606Y-100472989D01*
X122271550Y-100542147D01*
X122242525Y-100605703D01*
X122236493Y-100612181D01*
X122175969Y-100672704D01*
X122175964Y-100672711D01*
X122125558Y-100771638D01*
X122108191Y-100881294D01*
X122108191Y-100881299D01*
X122125558Y-100990955D01*
X122175964Y-101089882D01*
X122175969Y-101089889D01*
X122254467Y-101168387D01*
X122254470Y-101168389D01*
X122254473Y-101168392D01*
X122353399Y-101218797D01*
X122353401Y-101218798D01*
X122463058Y-101236166D01*
X122463060Y-101236166D01*
X122463062Y-101236166D01*
X122572718Y-101218798D01*
X122572719Y-101218797D01*
X122572721Y-101218797D01*
X122671647Y-101168392D01*
X122750155Y-101089884D01*
X122800560Y-100990958D01*
X122800560Y-100990956D01*
X122800561Y-100990955D01*
X122817929Y-100881299D01*
X122817929Y-100881294D01*
X122800561Y-100771638D01*
X122768981Y-100709658D01*
X122750155Y-100672710D01*
X122750152Y-100672707D01*
X122750150Y-100672704D01*
X122689627Y-100612181D01*
X122656142Y-100550858D01*
X122661126Y-100481166D01*
X122702998Y-100425233D01*
X122768462Y-100400816D01*
X122777308Y-100400500D01*
X128631543Y-100400500D01*
X128698582Y-100420185D01*
X128744337Y-100472989D01*
X128754281Y-100542147D01*
X128754016Y-100543897D01*
X128745131Y-100599996D01*
X128745131Y-100600002D01*
X128762498Y-100709658D01*
X128812904Y-100808586D01*
X128817393Y-100814764D01*
X128840871Y-100880571D01*
X128825044Y-100948624D01*
X128774937Y-100997318D01*
X128752779Y-101004697D01*
X128753179Y-101005928D01*
X128743896Y-101008944D01*
X128644968Y-101059350D01*
X128644961Y-101059355D01*
X128566463Y-101137853D01*
X128566458Y-101137860D01*
X128516052Y-101236787D01*
X128498685Y-101346443D01*
X128498685Y-101346448D01*
X128516052Y-101456104D01*
X128566458Y-101555031D01*
X128566463Y-101555038D01*
X128644961Y-101633536D01*
X128644964Y-101633538D01*
X128644967Y-101633541D01*
X128727374Y-101675529D01*
X128743895Y-101683947D01*
X128853552Y-101701315D01*
X128853554Y-101701315D01*
X128853556Y-101701315D01*
X128972854Y-101682420D01*
X128973310Y-101685303D01*
X129027498Y-101683750D01*
X129087334Y-101719824D01*
X129118169Y-101782522D01*
X129110211Y-101851937D01*
X129083668Y-101891360D01*
X128844255Y-102130772D01*
X128794898Y-102161020D01*
X128790340Y-102162501D01*
X128790336Y-102162502D01*
X128790336Y-102162503D01*
X128691410Y-102212908D01*
X128691409Y-102212909D01*
X128691404Y-102212912D01*
X128612906Y-102291410D01*
X128612901Y-102291417D01*
X128562495Y-102390344D01*
X128545128Y-102500000D01*
X128545128Y-102500005D01*
X128562495Y-102609661D01*
X128612901Y-102708588D01*
X128612906Y-102708595D01*
X128691404Y-102787093D01*
X128691410Y-102787098D01*
X128790336Y-102837503D01*
X128790339Y-102837503D01*
X128794776Y-102839764D01*
X128845572Y-102887737D01*
X128862368Y-102955558D01*
X128839831Y-103021693D01*
X128826167Y-103037926D01*
X128822688Y-103041405D01*
X128822681Y-103041414D01*
X128772276Y-103140341D01*
X128768375Y-103164969D01*
X128738444Y-103228103D01*
X128679132Y-103265033D01*
X128609270Y-103264034D01*
X128558221Y-103233250D01*
X127584513Y-102259542D01*
X127584511Y-102259540D01*
X127572695Y-102252718D01*
X127543934Y-102236113D01*
X127515991Y-102219980D01*
X127515990Y-102219979D01*
X127489600Y-102212908D01*
X127439562Y-102199500D01*
X127439560Y-102199500D01*
X122902879Y-102199500D01*
X122835840Y-102179815D01*
X122790085Y-102127011D01*
X122780141Y-102057853D01*
X122780405Y-102056103D01*
X122782301Y-102044130D01*
X122784869Y-102027919D01*
X122780871Y-102002676D01*
X122767501Y-101918260D01*
X122753276Y-101890341D01*
X122717095Y-101819332D01*
X122717092Y-101819329D01*
X122717090Y-101819326D01*
X122638592Y-101740828D01*
X122638588Y-101740825D01*
X122638587Y-101740824D01*
X122591820Y-101716995D01*
X122539658Y-101690417D01*
X122430002Y-101673050D01*
X122429998Y-101673050D01*
X122320341Y-101690417D01*
X122221414Y-101740823D01*
X122221407Y-101740828D01*
X122142909Y-101819326D01*
X122142904Y-101819333D01*
X122092498Y-101918260D01*
X122079128Y-102002681D01*
X122075131Y-102027919D01*
X122077699Y-102044130D01*
X122079595Y-102056103D01*
X122070639Y-102125397D01*
X122025642Y-102178848D01*
X121958890Y-102199487D01*
X121957121Y-102199500D01*
X115755975Y-102199500D01*
X115688936Y-102179815D01*
X115643181Y-102127011D01*
X115633237Y-102057853D01*
X115633502Y-102056100D01*
X115635398Y-102044130D01*
X115635398Y-102044128D01*
X115627363Y-101993398D01*
X115636318Y-101924104D01*
X115676954Y-101873680D01*
X115683580Y-101868864D01*
X115683586Y-101868862D01*
X115762094Y-101790354D01*
X115812499Y-101691428D01*
X115812499Y-101691426D01*
X115812500Y-101691425D01*
X115829868Y-101581769D01*
X115829868Y-101581764D01*
X115812500Y-101472108D01*
X115761425Y-101371867D01*
X115748529Y-101303198D01*
X115761423Y-101259282D01*
X115807923Y-101168022D01*
X115807924Y-101168017D01*
X115825292Y-101058363D01*
X115825292Y-101058358D01*
X115807924Y-100948704D01*
X115807923Y-100948702D01*
X115807923Y-100948700D01*
X115767504Y-100869373D01*
X115754609Y-100800708D01*
X115767503Y-100756793D01*
X115812724Y-100668042D01*
X115823502Y-100599996D01*
X115830093Y-100558383D01*
X115830093Y-100558378D01*
X115812725Y-100448724D01*
X115812724Y-100448722D01*
X115812724Y-100448720D01*
X115769781Y-100364439D01*
X115756886Y-100295774D01*
X115769780Y-100251859D01*
X115812488Y-100168040D01*
X115812489Y-100168035D01*
X115829857Y-100058381D01*
X115829857Y-100058377D01*
X115820971Y-100002275D01*
X115829925Y-99932982D01*
X115874921Y-99879530D01*
X115941673Y-99858890D01*
X115943444Y-99858877D01*
X119382544Y-99858877D01*
X119449583Y-99878562D01*
G37*
G04 #@! TD.AperFunction*
G04 #@! TA.AperFunction,Conductor*
G36*
X116811777Y-91247185D02*
G01*
X116857532Y-91299989D01*
X116867476Y-91369147D01*
X116862669Y-91389820D01*
X116862498Y-91390345D01*
X116845131Y-91499997D01*
X116845131Y-91500002D01*
X116862498Y-91609658D01*
X116912904Y-91708585D01*
X116912909Y-91708592D01*
X116991407Y-91787090D01*
X116991410Y-91787092D01*
X116991413Y-91787095D01*
X117063184Y-91823664D01*
X117090341Y-91837501D01*
X117199998Y-91854869D01*
X117200000Y-91854869D01*
X117200002Y-91854869D01*
X117309658Y-91837501D01*
X117309659Y-91837500D01*
X117309661Y-91837500D01*
X117408587Y-91787095D01*
X117487095Y-91708587D01*
X117537500Y-91609661D01*
X117537500Y-91609659D01*
X117537501Y-91609658D01*
X117554869Y-91500002D01*
X117554869Y-91499997D01*
X117537501Y-91390345D01*
X117537500Y-91390344D01*
X117537500Y-91390339D01*
X117537497Y-91390333D01*
X117537331Y-91389820D01*
X117537311Y-91389146D01*
X117535974Y-91380700D01*
X117537065Y-91380527D01*
X117535335Y-91319978D01*
X117571415Y-91260145D01*
X117634116Y-91229316D01*
X117655262Y-91227500D01*
X117977455Y-91227500D01*
X118044494Y-91247185D01*
X118090249Y-91299989D01*
X118100193Y-91369147D01*
X118071168Y-91432703D01*
X118065136Y-91439181D01*
X118012909Y-91491407D01*
X118012904Y-91491414D01*
X117962498Y-91590341D01*
X117945131Y-91699997D01*
X117945131Y-91700002D01*
X117962498Y-91809658D01*
X118012904Y-91908585D01*
X118012909Y-91908592D01*
X118091407Y-91987090D01*
X118091410Y-91987092D01*
X118091413Y-91987095D01*
X118175378Y-92029877D01*
X118190341Y-92037501D01*
X118299998Y-92054869D01*
X118300000Y-92054869D01*
X118300002Y-92054869D01*
X118409658Y-92037501D01*
X118409659Y-92037500D01*
X118409661Y-92037500D01*
X118508587Y-91987095D01*
X118587095Y-91908587D01*
X118637500Y-91809661D01*
X118637500Y-91809659D01*
X118637501Y-91809658D01*
X118654869Y-91700002D01*
X118654869Y-91699997D01*
X118637501Y-91590341D01*
X118591532Y-91500122D01*
X118587095Y-91491413D01*
X118587092Y-91491410D01*
X118587090Y-91491407D01*
X118534864Y-91439181D01*
X118501379Y-91377858D01*
X118506363Y-91308166D01*
X118548235Y-91252233D01*
X118613699Y-91227816D01*
X118622545Y-91227500D01*
X120531802Y-91227500D01*
X120598841Y-91247185D01*
X120644596Y-91299989D01*
X120650463Y-91315505D01*
X120651426Y-91318682D01*
X120651427Y-91318683D01*
X120706463Y-91500115D01*
X120706464Y-91500118D01*
X120706465Y-91500119D01*
X120706466Y-91500122D01*
X120795834Y-91667318D01*
X120795838Y-91667325D01*
X120811440Y-91686336D01*
X120838752Y-91750647D01*
X120826960Y-91819514D01*
X120811440Y-91843664D01*
X120795838Y-91862674D01*
X120795834Y-91862681D01*
X120706466Y-92029877D01*
X120706465Y-92029880D01*
X120706464Y-92029882D01*
X120706463Y-92029885D01*
X120695591Y-92065726D01*
X120651426Y-92211318D01*
X120632843Y-92400000D01*
X120651426Y-92588681D01*
X120651427Y-92588683D01*
X120706463Y-92770115D01*
X120706464Y-92770118D01*
X120706465Y-92770119D01*
X120706466Y-92770122D01*
X120795834Y-92937318D01*
X120795838Y-92937325D01*
X120916116Y-93083883D01*
X121062674Y-93204161D01*
X121062681Y-93204165D01*
X121229877Y-93293533D01*
X121229878Y-93293533D01*
X121229885Y-93293537D01*
X121411317Y-93348573D01*
X121411316Y-93348573D01*
X121428233Y-93350239D01*
X121600000Y-93367157D01*
X121788683Y-93348573D01*
X121970115Y-93293537D01*
X122137324Y-93204162D01*
X122283883Y-93083883D01*
X122404162Y-92937324D01*
X122493537Y-92770115D01*
X122548573Y-92588683D01*
X122567157Y-92400000D01*
X122548573Y-92211317D01*
X122493537Y-92029885D01*
X122472974Y-91991414D01*
X122404166Y-91862682D01*
X122404164Y-91862679D01*
X122404160Y-91862674D01*
X122388559Y-91843664D01*
X122361246Y-91779356D01*
X122373036Y-91710489D01*
X122388559Y-91686336D01*
X122404162Y-91667324D01*
X122412446Y-91651827D01*
X122493533Y-91500122D01*
X122493537Y-91500115D01*
X122548573Y-91318683D01*
X122548573Y-91318682D01*
X122549537Y-91315505D01*
X122587835Y-91257066D01*
X122651647Y-91228610D01*
X122668198Y-91227500D01*
X123067869Y-91227500D01*
X123134908Y-91247185D01*
X123180663Y-91299989D01*
X123186529Y-91315502D01*
X123236463Y-91480115D01*
X123236464Y-91480118D01*
X123236465Y-91480119D01*
X123236466Y-91480122D01*
X123325834Y-91647318D01*
X123325838Y-91647325D01*
X123341440Y-91666336D01*
X123368752Y-91730647D01*
X123356960Y-91799514D01*
X123341440Y-91823664D01*
X123325838Y-91842674D01*
X123325834Y-91842681D01*
X123236466Y-92009877D01*
X123236465Y-92009880D01*
X123236464Y-92009882D01*
X123236463Y-92009885D01*
X123219524Y-92065726D01*
X123181426Y-92191318D01*
X123162843Y-92380000D01*
X123181426Y-92568681D01*
X123181427Y-92568683D01*
X123236463Y-92750115D01*
X123236464Y-92750118D01*
X123236465Y-92750119D01*
X123236466Y-92750122D01*
X123325834Y-92917318D01*
X123325838Y-92917325D01*
X123446116Y-93063883D01*
X123592674Y-93184161D01*
X123592681Y-93184165D01*
X123759877Y-93273533D01*
X123759878Y-93273533D01*
X123759885Y-93273537D01*
X123941317Y-93328573D01*
X123941316Y-93328573D01*
X123958233Y-93330239D01*
X124130000Y-93347157D01*
X124318683Y-93328573D01*
X124500115Y-93273537D01*
X124667324Y-93184162D01*
X124813883Y-93063883D01*
X124934162Y-92917324D01*
X125023537Y-92750115D01*
X125078573Y-92568683D01*
X125097157Y-92380000D01*
X125078573Y-92191317D01*
X125023537Y-92009885D01*
X125013664Y-91991413D01*
X124934166Y-91842682D01*
X124934164Y-91842679D01*
X124934160Y-91842674D01*
X124918559Y-91823664D01*
X124891246Y-91759356D01*
X124903036Y-91690489D01*
X124918559Y-91666336D01*
X124934162Y-91647324D01*
X124949363Y-91618886D01*
X125012843Y-91500122D01*
X125023537Y-91480115D01*
X125073470Y-91315504D01*
X125111768Y-91257066D01*
X125175580Y-91228610D01*
X125192131Y-91227500D01*
X125607869Y-91227500D01*
X125674908Y-91247185D01*
X125720663Y-91299989D01*
X125726529Y-91315502D01*
X125776463Y-91480115D01*
X125776464Y-91480118D01*
X125776465Y-91480119D01*
X125776466Y-91480122D01*
X125865834Y-91647318D01*
X125865838Y-91647325D01*
X125881440Y-91666336D01*
X125908752Y-91730647D01*
X125896960Y-91799514D01*
X125881440Y-91823664D01*
X125865838Y-91842674D01*
X125865834Y-91842681D01*
X125776466Y-92009877D01*
X125776465Y-92009880D01*
X125776464Y-92009882D01*
X125776463Y-92009885D01*
X125759524Y-92065726D01*
X125721426Y-92191318D01*
X125702843Y-92380000D01*
X125721426Y-92568681D01*
X125721427Y-92568683D01*
X125776463Y-92750115D01*
X125776464Y-92750118D01*
X125776465Y-92750119D01*
X125776466Y-92750122D01*
X125865834Y-92917318D01*
X125865838Y-92917325D01*
X125986116Y-93063883D01*
X126132674Y-93184161D01*
X126132681Y-93184165D01*
X126299877Y-93273533D01*
X126299878Y-93273533D01*
X126299885Y-93273537D01*
X126481317Y-93328573D01*
X126481316Y-93328573D01*
X126498233Y-93330239D01*
X126670000Y-93347157D01*
X126858683Y-93328573D01*
X127040115Y-93273537D01*
X127207324Y-93184162D01*
X127353883Y-93063883D01*
X127474162Y-92917324D01*
X127563537Y-92750115D01*
X127618573Y-92568683D01*
X127637157Y-92380000D01*
X127618573Y-92191317D01*
X127563537Y-92009885D01*
X127553664Y-91991413D01*
X127474166Y-91842682D01*
X127474164Y-91842679D01*
X127474160Y-91842674D01*
X127458559Y-91823664D01*
X127431246Y-91759356D01*
X127443036Y-91690489D01*
X127458559Y-91666336D01*
X127474162Y-91647324D01*
X127489363Y-91618886D01*
X127552843Y-91500122D01*
X127563537Y-91480115D01*
X127613470Y-91315504D01*
X127651768Y-91257066D01*
X127715580Y-91228610D01*
X127732131Y-91227500D01*
X128137869Y-91227500D01*
X128204908Y-91247185D01*
X128250663Y-91299989D01*
X128256529Y-91315502D01*
X128306463Y-91480115D01*
X128306464Y-91480118D01*
X128306465Y-91480119D01*
X128306466Y-91480122D01*
X128395834Y-91647318D01*
X128395838Y-91647325D01*
X128411440Y-91666336D01*
X128438752Y-91730647D01*
X128426960Y-91799514D01*
X128411440Y-91823664D01*
X128395838Y-91842674D01*
X128395834Y-91842681D01*
X128306466Y-92009877D01*
X128306465Y-92009880D01*
X128306464Y-92009882D01*
X128306463Y-92009885D01*
X128289524Y-92065726D01*
X128251426Y-92191318D01*
X128232843Y-92380000D01*
X128251426Y-92568681D01*
X128251427Y-92568683D01*
X128306463Y-92750115D01*
X128306464Y-92750118D01*
X128306465Y-92750119D01*
X128306466Y-92750122D01*
X128395834Y-92917318D01*
X128395838Y-92917325D01*
X128516116Y-93063883D01*
X128662674Y-93184161D01*
X128662681Y-93184165D01*
X128829877Y-93273533D01*
X128829878Y-93273533D01*
X128829885Y-93273537D01*
X129011317Y-93328573D01*
X129011316Y-93328573D01*
X129028233Y-93330239D01*
X129200000Y-93347157D01*
X129388683Y-93328573D01*
X129570115Y-93273537D01*
X129737324Y-93184162D01*
X129883883Y-93063883D01*
X130004162Y-92917324D01*
X130093537Y-92750115D01*
X130148573Y-92568683D01*
X130167157Y-92380000D01*
X130148573Y-92191317D01*
X130093537Y-92009885D01*
X130083664Y-91991413D01*
X130004166Y-91842682D01*
X130004164Y-91842679D01*
X130004160Y-91842674D01*
X129988559Y-91823664D01*
X129961246Y-91759356D01*
X129973036Y-91690489D01*
X129988559Y-91666336D01*
X130004162Y-91647324D01*
X130019363Y-91618886D01*
X130082843Y-91500122D01*
X130093537Y-91480115D01*
X130143470Y-91315504D01*
X130181768Y-91257066D01*
X130245580Y-91228610D01*
X130262131Y-91227500D01*
X130631802Y-91227500D01*
X130698841Y-91247185D01*
X130744596Y-91299989D01*
X130750463Y-91315505D01*
X130751426Y-91318682D01*
X130751427Y-91318683D01*
X130806463Y-91500115D01*
X130806464Y-91500118D01*
X130806465Y-91500119D01*
X130806466Y-91500122D01*
X130895834Y-91667318D01*
X130895838Y-91667325D01*
X130911440Y-91686336D01*
X130938752Y-91750647D01*
X130926960Y-91819514D01*
X130911440Y-91843664D01*
X130895838Y-91862674D01*
X130895834Y-91862681D01*
X130806466Y-92029877D01*
X130806465Y-92029880D01*
X130806464Y-92029882D01*
X130806463Y-92029885D01*
X130795591Y-92065726D01*
X130751426Y-92211318D01*
X130732843Y-92400000D01*
X130751426Y-92588681D01*
X130751427Y-92588683D01*
X130806463Y-92770115D01*
X130806464Y-92770118D01*
X130806465Y-92770119D01*
X130806466Y-92770122D01*
X130895834Y-92937318D01*
X130895838Y-92937325D01*
X131016116Y-93083883D01*
X131162674Y-93204161D01*
X131162681Y-93204165D01*
X131329877Y-93293533D01*
X131329878Y-93293533D01*
X131329885Y-93293537D01*
X131511317Y-93348573D01*
X131511316Y-93348573D01*
X131528233Y-93350239D01*
X131700000Y-93367157D01*
X131888683Y-93348573D01*
X132070115Y-93293537D01*
X132237324Y-93204162D01*
X132383883Y-93083883D01*
X132504162Y-92937324D01*
X132593537Y-92770115D01*
X132648573Y-92588683D01*
X132667157Y-92400000D01*
X132648573Y-92211317D01*
X132593537Y-92029885D01*
X132572974Y-91991414D01*
X132504166Y-91862682D01*
X132504164Y-91862679D01*
X132504160Y-91862674D01*
X132488559Y-91843664D01*
X132461246Y-91779356D01*
X132473036Y-91710489D01*
X132488559Y-91686336D01*
X132504162Y-91667324D01*
X132512446Y-91651827D01*
X132593533Y-91500122D01*
X132593537Y-91500115D01*
X132648573Y-91318683D01*
X132648573Y-91318682D01*
X132649537Y-91315505D01*
X132687835Y-91257066D01*
X132751647Y-91228610D01*
X132768198Y-91227500D01*
X133231802Y-91227500D01*
X133298841Y-91247185D01*
X133344596Y-91299989D01*
X133350463Y-91315505D01*
X133351426Y-91318682D01*
X133351427Y-91318683D01*
X133406463Y-91500115D01*
X133406464Y-91500118D01*
X133406465Y-91500119D01*
X133406466Y-91500122D01*
X133495834Y-91667318D01*
X133495838Y-91667325D01*
X133511440Y-91686336D01*
X133538752Y-91750647D01*
X133526960Y-91819514D01*
X133511440Y-91843664D01*
X133495838Y-91862674D01*
X133495834Y-91862681D01*
X133406466Y-92029877D01*
X133406465Y-92029880D01*
X133406464Y-92029882D01*
X133406463Y-92029885D01*
X133395591Y-92065726D01*
X133351426Y-92211318D01*
X133332843Y-92400000D01*
X133351426Y-92588681D01*
X133351427Y-92588683D01*
X133406463Y-92770115D01*
X133406464Y-92770118D01*
X133406465Y-92770119D01*
X133406466Y-92770122D01*
X133495834Y-92937318D01*
X133495838Y-92937325D01*
X133616116Y-93083883D01*
X133762674Y-93204161D01*
X133762681Y-93204165D01*
X133929877Y-93293533D01*
X133929878Y-93293533D01*
X133929885Y-93293537D01*
X134111317Y-93348573D01*
X134111316Y-93348573D01*
X134128233Y-93350239D01*
X134300000Y-93367157D01*
X134488683Y-93348573D01*
X134670115Y-93293537D01*
X134837324Y-93204162D01*
X134983883Y-93083883D01*
X135104162Y-92937324D01*
X135193537Y-92770115D01*
X135193540Y-92770103D01*
X135193934Y-92769155D01*
X135194280Y-92768724D01*
X135196409Y-92764743D01*
X135197163Y-92765146D01*
X135237769Y-92714747D01*
X135304061Y-92692675D01*
X135371762Y-92709948D01*
X135419378Y-92761080D01*
X135432500Y-92816596D01*
X135432500Y-93860902D01*
X135412815Y-93927941D01*
X135360011Y-93973696D01*
X135344496Y-93979562D01*
X135189885Y-94026463D01*
X135189881Y-94026465D01*
X135189878Y-94026466D01*
X135189877Y-94026466D01*
X135022681Y-94115834D01*
X135022674Y-94115838D01*
X135003664Y-94131440D01*
X134939353Y-94158752D01*
X134870486Y-94146960D01*
X134846336Y-94131440D01*
X134827325Y-94115838D01*
X134827318Y-94115834D01*
X134660122Y-94026466D01*
X134660119Y-94026465D01*
X134660118Y-94026464D01*
X134660115Y-94026463D01*
X134478683Y-93971427D01*
X134478681Y-93971426D01*
X134478683Y-93971426D01*
X134290000Y-93952843D01*
X134101318Y-93971426D01*
X134007133Y-93999997D01*
X133919885Y-94026463D01*
X133919882Y-94026464D01*
X133919880Y-94026465D01*
X133919877Y-94026466D01*
X133752681Y-94115834D01*
X133752674Y-94115838D01*
X133606116Y-94236116D01*
X133485838Y-94382674D01*
X133485834Y-94382681D01*
X133396466Y-94549877D01*
X133396465Y-94549880D01*
X133396464Y-94549882D01*
X133396463Y-94549885D01*
X133373921Y-94624194D01*
X133341426Y-94731318D01*
X133322843Y-94920000D01*
X133341426Y-95108681D01*
X133355437Y-95154869D01*
X133396463Y-95290115D01*
X133396464Y-95290118D01*
X133396465Y-95290119D01*
X133396466Y-95290122D01*
X133485834Y-95457318D01*
X133485838Y-95457325D01*
X133584796Y-95577904D01*
X133606117Y-95603883D01*
X133613157Y-95609661D01*
X133642655Y-95633869D01*
X133681990Y-95691615D01*
X133683861Y-95761459D01*
X133647674Y-95821228D01*
X133584918Y-95851944D01*
X133544595Y-95852197D01*
X133508379Y-95846461D01*
X133500004Y-95845135D01*
X133500003Y-95845135D01*
X133500002Y-95845135D01*
X133390345Y-95862502D01*
X133291418Y-95912908D01*
X133291411Y-95912913D01*
X133212913Y-95991411D01*
X133212908Y-95991418D01*
X133162502Y-96090345D01*
X133145135Y-96200001D01*
X133145135Y-96200006D01*
X133162502Y-96309662D01*
X133212908Y-96408589D01*
X133212913Y-96408596D01*
X133291411Y-96487094D01*
X133291414Y-96487096D01*
X133291417Y-96487099D01*
X133328880Y-96506187D01*
X133390345Y-96537505D01*
X133461718Y-96548809D01*
X133500004Y-96554873D01*
X133514383Y-96552595D01*
X133583672Y-96561548D01*
X133637126Y-96606542D01*
X133657768Y-96673293D01*
X133639046Y-96740607D01*
X133612453Y-96770916D01*
X133606116Y-96776117D01*
X133485838Y-96922674D01*
X133485834Y-96922681D01*
X133396466Y-97089877D01*
X133396465Y-97089880D01*
X133396464Y-97089882D01*
X133396463Y-97089885D01*
X133373921Y-97164194D01*
X133341426Y-97271318D01*
X133322843Y-97460000D01*
X133341426Y-97648681D01*
X133351831Y-97682981D01*
X133396463Y-97830115D01*
X133396464Y-97830118D01*
X133396465Y-97830119D01*
X133396466Y-97830122D01*
X133485834Y-97997318D01*
X133485838Y-97997325D01*
X133606116Y-98143883D01*
X133752674Y-98264161D01*
X133752681Y-98264165D01*
X133919877Y-98353533D01*
X133919878Y-98353533D01*
X133919885Y-98353537D01*
X134101317Y-98408573D01*
X134101316Y-98408573D01*
X134118233Y-98410239D01*
X134290000Y-98427157D01*
X134478683Y-98408573D01*
X134660115Y-98353537D01*
X134792264Y-98282902D01*
X134827317Y-98264166D01*
X134827320Y-98264164D01*
X134827319Y-98264164D01*
X134827324Y-98264162D01*
X134846335Y-98248559D01*
X134910644Y-98221246D01*
X134979511Y-98233036D01*
X135003662Y-98248557D01*
X135022676Y-98264162D01*
X135022677Y-98264162D01*
X135022679Y-98264164D01*
X135022682Y-98264166D01*
X135189877Y-98353533D01*
X135189878Y-98353533D01*
X135189885Y-98353537D01*
X135344497Y-98400437D01*
X135402934Y-98438734D01*
X135431390Y-98502546D01*
X135432500Y-98519097D01*
X135432500Y-101480902D01*
X135412815Y-101547941D01*
X135360011Y-101593696D01*
X135344496Y-101599562D01*
X135189885Y-101646463D01*
X135189881Y-101646465D01*
X135189878Y-101646466D01*
X135189877Y-101646466D01*
X135022681Y-101735834D01*
X135022674Y-101735838D01*
X135003664Y-101751440D01*
X134939353Y-101778752D01*
X134870486Y-101766960D01*
X134846336Y-101751440D01*
X134827325Y-101735838D01*
X134827318Y-101735834D01*
X134660122Y-101646466D01*
X134660119Y-101646465D01*
X134660118Y-101646464D01*
X134660115Y-101646463D01*
X134478683Y-101591427D01*
X134478681Y-101591426D01*
X134478683Y-101591426D01*
X134290000Y-101572843D01*
X134101318Y-101591426D01*
X133994194Y-101623921D01*
X133919885Y-101646463D01*
X133919882Y-101646464D01*
X133919880Y-101646465D01*
X133919877Y-101646466D01*
X133752681Y-101735834D01*
X133752674Y-101735838D01*
X133606116Y-101856116D01*
X133485838Y-102002674D01*
X133485834Y-102002681D01*
X133396466Y-102169877D01*
X133396465Y-102169880D01*
X133396464Y-102169882D01*
X133396463Y-102169885D01*
X133381266Y-102219983D01*
X133341426Y-102351318D01*
X133322843Y-102540000D01*
X133341426Y-102728681D01*
X133351357Y-102761418D01*
X133396463Y-102910115D01*
X133396464Y-102910118D01*
X133396465Y-102910119D01*
X133396466Y-102910122D01*
X133485834Y-103077318D01*
X133485838Y-103077325D01*
X133606116Y-103223883D01*
X133752674Y-103344161D01*
X133752681Y-103344165D01*
X133919877Y-103433533D01*
X133919878Y-103433533D01*
X133919885Y-103433537D01*
X134101317Y-103488573D01*
X134101316Y-103488573D01*
X134118233Y-103490239D01*
X134290000Y-103507157D01*
X134478683Y-103488573D01*
X134660115Y-103433537D01*
X134796606Y-103360581D01*
X134827317Y-103344166D01*
X134827320Y-103344164D01*
X134827319Y-103344164D01*
X134827324Y-103344162D01*
X134846335Y-103328559D01*
X134910644Y-103301246D01*
X134979511Y-103313036D01*
X135003662Y-103328557D01*
X135022676Y-103344162D01*
X135022677Y-103344162D01*
X135022679Y-103344164D01*
X135022682Y-103344166D01*
X135189877Y-103433533D01*
X135189878Y-103433533D01*
X135189885Y-103433537D01*
X135344497Y-103480437D01*
X135402934Y-103518734D01*
X135431390Y-103582546D01*
X135432500Y-103599097D01*
X135432500Y-107304903D01*
X135412815Y-107371942D01*
X135360011Y-107417697D01*
X135290853Y-107427641D01*
X135227297Y-107398616D01*
X135196918Y-107356484D01*
X135196409Y-107356757D01*
X135194387Y-107352974D01*
X135193937Y-107352350D01*
X135193536Y-107351382D01*
X135104165Y-107184181D01*
X135104161Y-107184174D01*
X134983883Y-107037616D01*
X134837325Y-106917338D01*
X134837318Y-106917334D01*
X134670122Y-106827966D01*
X134670119Y-106827965D01*
X134670118Y-106827964D01*
X134670115Y-106827963D01*
X134488683Y-106772927D01*
X134488681Y-106772926D01*
X134488683Y-106772926D01*
X134300000Y-106754343D01*
X134111318Y-106772926D01*
X134004194Y-106805421D01*
X133929885Y-106827963D01*
X133929882Y-106827964D01*
X133929880Y-106827965D01*
X133929877Y-106827966D01*
X133762681Y-106917334D01*
X133762674Y-106917338D01*
X133616116Y-107037616D01*
X133495838Y-107184174D01*
X133495834Y-107184181D01*
X133406466Y-107351377D01*
X133406465Y-107351380D01*
X133406464Y-107351382D01*
X133406463Y-107351385D01*
X133392136Y-107398616D01*
X133351426Y-107532818D01*
X133332843Y-107721500D01*
X133351426Y-107910181D01*
X133351427Y-107910183D01*
X133406463Y-108091615D01*
X133406464Y-108091618D01*
X133406465Y-108091619D01*
X133406466Y-108091622D01*
X133495834Y-108258818D01*
X133495838Y-108258825D01*
X133511440Y-108277836D01*
X133538752Y-108342147D01*
X133526960Y-108411014D01*
X133511440Y-108435164D01*
X133495838Y-108454174D01*
X133495834Y-108454181D01*
X133406463Y-108621383D01*
X133387318Y-108684496D01*
X133349021Y-108742934D01*
X133285208Y-108771391D01*
X133268658Y-108772500D01*
X132831342Y-108772500D01*
X132764303Y-108752815D01*
X132718548Y-108700011D01*
X132712682Y-108684496D01*
X132693536Y-108621383D01*
X132604166Y-108454182D01*
X132604164Y-108454179D01*
X132604160Y-108454174D01*
X132588559Y-108435164D01*
X132561246Y-108370856D01*
X132573036Y-108301989D01*
X132588559Y-108277836D01*
X132604162Y-108258824D01*
X132615654Y-108237325D01*
X132693533Y-108091622D01*
X132693537Y-108091615D01*
X132748573Y-107910183D01*
X132767157Y-107721500D01*
X132748573Y-107532817D01*
X132693537Y-107351385D01*
X132682045Y-107329885D01*
X132604165Y-107184181D01*
X132604161Y-107184174D01*
X132483883Y-107037616D01*
X132337325Y-106917338D01*
X132337318Y-106917334D01*
X132170122Y-106827966D01*
X132170119Y-106827965D01*
X132170118Y-106827964D01*
X132170115Y-106827963D01*
X131988683Y-106772927D01*
X131988681Y-106772926D01*
X131988683Y-106772926D01*
X131800000Y-106754343D01*
X131611318Y-106772926D01*
X131504194Y-106805421D01*
X131429885Y-106827963D01*
X131429882Y-106827964D01*
X131429880Y-106827965D01*
X131429877Y-106827966D01*
X131262681Y-106917334D01*
X131262674Y-106917338D01*
X131116116Y-107037616D01*
X130995838Y-107184174D01*
X130995834Y-107184181D01*
X130906466Y-107351377D01*
X130906465Y-107351380D01*
X130906464Y-107351382D01*
X130906463Y-107351385D01*
X130892136Y-107398616D01*
X130851426Y-107532818D01*
X130832843Y-107721500D01*
X130851426Y-107910181D01*
X130851427Y-107910183D01*
X130906463Y-108091615D01*
X130906464Y-108091618D01*
X130906465Y-108091619D01*
X130906466Y-108091622D01*
X130995834Y-108258818D01*
X130995838Y-108258825D01*
X131011440Y-108277836D01*
X131038752Y-108342147D01*
X131026960Y-108411014D01*
X131011440Y-108435164D01*
X130995838Y-108454174D01*
X130995834Y-108454181D01*
X130906463Y-108621383D01*
X130887318Y-108684496D01*
X130849021Y-108742934D01*
X130785208Y-108771391D01*
X130768658Y-108772500D01*
X130331342Y-108772500D01*
X130264303Y-108752815D01*
X130218548Y-108700011D01*
X130212682Y-108684496D01*
X130193536Y-108621383D01*
X130104166Y-108454182D01*
X130104164Y-108454179D01*
X130104160Y-108454174D01*
X130088559Y-108435164D01*
X130061246Y-108370856D01*
X130073036Y-108301989D01*
X130088559Y-108277836D01*
X130104162Y-108258824D01*
X130115654Y-108237325D01*
X130193533Y-108091622D01*
X130193537Y-108091615D01*
X130248573Y-107910183D01*
X130267157Y-107721500D01*
X130248573Y-107532817D01*
X130193537Y-107351385D01*
X130182045Y-107329885D01*
X130104165Y-107184181D01*
X130104161Y-107184174D01*
X129983883Y-107037616D01*
X129837325Y-106917338D01*
X129837318Y-106917334D01*
X129670122Y-106827966D01*
X129670119Y-106827965D01*
X129670118Y-106827964D01*
X129670115Y-106827963D01*
X129488683Y-106772927D01*
X129488681Y-106772926D01*
X129488683Y-106772926D01*
X129300000Y-106754343D01*
X129111318Y-106772926D01*
X129004194Y-106805421D01*
X128929885Y-106827963D01*
X128929882Y-106827964D01*
X128929880Y-106827965D01*
X128929877Y-106827966D01*
X128762681Y-106917334D01*
X128762674Y-106917338D01*
X128616116Y-107037616D01*
X128495838Y-107184174D01*
X128495834Y-107184181D01*
X128406466Y-107351377D01*
X128406465Y-107351380D01*
X128406464Y-107351382D01*
X128406463Y-107351385D01*
X128392136Y-107398616D01*
X128351426Y-107532818D01*
X128332843Y-107721500D01*
X128351426Y-107910181D01*
X128351427Y-107910183D01*
X128406463Y-108091615D01*
X128406464Y-108091618D01*
X128406465Y-108091619D01*
X128406466Y-108091622D01*
X128495834Y-108258818D01*
X128495838Y-108258825D01*
X128511440Y-108277836D01*
X128538752Y-108342147D01*
X128526960Y-108411014D01*
X128511440Y-108435164D01*
X128495838Y-108454174D01*
X128495834Y-108454181D01*
X128406463Y-108621383D01*
X128387318Y-108684496D01*
X128349021Y-108742934D01*
X128285208Y-108771391D01*
X128268658Y-108772500D01*
X127837863Y-108772500D01*
X127770824Y-108752815D01*
X127725069Y-108700011D01*
X127719204Y-108684502D01*
X127693537Y-108599885D01*
X127693533Y-108599877D01*
X127604166Y-108432682D01*
X127604164Y-108432679D01*
X127604160Y-108432674D01*
X127588559Y-108413664D01*
X127561246Y-108349356D01*
X127573036Y-108280489D01*
X127588559Y-108256336D01*
X127604162Y-108237324D01*
X127693537Y-108070115D01*
X127748573Y-107888683D01*
X127767157Y-107700000D01*
X127748573Y-107511317D01*
X127693537Y-107329885D01*
X127644157Y-107237501D01*
X127604165Y-107162681D01*
X127604161Y-107162674D01*
X127483883Y-107016116D01*
X127337325Y-106895838D01*
X127337318Y-106895834D01*
X127170122Y-106806466D01*
X127170119Y-106806465D01*
X127170118Y-106806464D01*
X127170115Y-106806463D01*
X126988683Y-106751427D01*
X126988681Y-106751426D01*
X126988683Y-106751426D01*
X126800000Y-106732843D01*
X126611318Y-106751426D01*
X126504194Y-106783921D01*
X126429885Y-106806463D01*
X126429882Y-106806464D01*
X126429880Y-106806465D01*
X126429877Y-106806466D01*
X126262681Y-106895834D01*
X126262674Y-106895838D01*
X126116116Y-107016116D01*
X125995838Y-107162674D01*
X125995834Y-107162681D01*
X125906466Y-107329877D01*
X125906465Y-107329880D01*
X125906464Y-107329882D01*
X125906463Y-107329885D01*
X125885614Y-107398616D01*
X125851426Y-107511318D01*
X125832843Y-107700000D01*
X125851426Y-107888681D01*
X125851427Y-107888683D01*
X125906463Y-108070115D01*
X125906464Y-108070118D01*
X125906465Y-108070119D01*
X125906466Y-108070122D01*
X125995834Y-108237318D01*
X125995838Y-108237325D01*
X126011440Y-108256336D01*
X126038752Y-108320647D01*
X126026960Y-108389514D01*
X126011440Y-108413664D01*
X125995838Y-108432674D01*
X125995834Y-108432681D01*
X125906466Y-108599877D01*
X125906465Y-108599880D01*
X125906464Y-108599882D01*
X125906463Y-108599885D01*
X125880796Y-108684496D01*
X125842500Y-108742934D01*
X125778688Y-108771390D01*
X125762137Y-108772500D01*
X125337863Y-108772500D01*
X125270824Y-108752815D01*
X125225069Y-108700011D01*
X125219204Y-108684502D01*
X125193537Y-108599885D01*
X125193533Y-108599877D01*
X125104166Y-108432682D01*
X125104164Y-108432679D01*
X125104160Y-108432674D01*
X125088559Y-108413664D01*
X125061246Y-108349356D01*
X125073036Y-108280489D01*
X125088559Y-108256336D01*
X125104162Y-108237324D01*
X125193537Y-108070115D01*
X125248573Y-107888683D01*
X125267157Y-107700000D01*
X125248573Y-107511317D01*
X125193537Y-107329885D01*
X125144157Y-107237501D01*
X125104165Y-107162681D01*
X125104161Y-107162674D01*
X124983883Y-107016116D01*
X124837325Y-106895838D01*
X124837318Y-106895834D01*
X124670122Y-106806466D01*
X124670119Y-106806465D01*
X124670118Y-106806464D01*
X124670115Y-106806463D01*
X124488683Y-106751427D01*
X124488681Y-106751426D01*
X124488683Y-106751426D01*
X124300000Y-106732843D01*
X124111318Y-106751426D01*
X124004194Y-106783921D01*
X123929885Y-106806463D01*
X123929882Y-106806464D01*
X123929880Y-106806465D01*
X123929877Y-106806466D01*
X123762681Y-106895834D01*
X123762674Y-106895838D01*
X123616116Y-107016116D01*
X123495838Y-107162674D01*
X123495834Y-107162681D01*
X123406466Y-107329877D01*
X123406465Y-107329880D01*
X123406464Y-107329882D01*
X123406463Y-107329885D01*
X123385614Y-107398616D01*
X123351426Y-107511318D01*
X123332843Y-107700000D01*
X123351426Y-107888681D01*
X123351427Y-107888683D01*
X123406463Y-108070115D01*
X123406464Y-108070118D01*
X123406465Y-108070119D01*
X123406466Y-108070122D01*
X123495834Y-108237318D01*
X123495838Y-108237325D01*
X123511440Y-108256336D01*
X123538752Y-108320647D01*
X123526960Y-108389514D01*
X123511440Y-108413664D01*
X123495838Y-108432674D01*
X123495834Y-108432681D01*
X123406466Y-108599877D01*
X123406465Y-108599880D01*
X123406464Y-108599882D01*
X123406463Y-108599885D01*
X123380796Y-108684496D01*
X123342500Y-108742934D01*
X123278688Y-108771390D01*
X123262137Y-108772500D01*
X122837863Y-108772500D01*
X122770824Y-108752815D01*
X122725069Y-108700011D01*
X122719204Y-108684502D01*
X122693537Y-108599885D01*
X122693533Y-108599877D01*
X122604166Y-108432682D01*
X122604164Y-108432679D01*
X122604160Y-108432674D01*
X122588559Y-108413664D01*
X122561246Y-108349356D01*
X122573036Y-108280489D01*
X122588559Y-108256336D01*
X122604162Y-108237324D01*
X122693537Y-108070115D01*
X122748573Y-107888683D01*
X122767157Y-107700000D01*
X122748573Y-107511317D01*
X122693537Y-107329885D01*
X122644157Y-107237501D01*
X122604165Y-107162681D01*
X122604161Y-107162674D01*
X122483883Y-107016116D01*
X122337325Y-106895838D01*
X122337318Y-106895834D01*
X122170122Y-106806466D01*
X122170119Y-106806465D01*
X122170118Y-106806464D01*
X122170115Y-106806463D01*
X121988683Y-106751427D01*
X121988681Y-106751426D01*
X121988683Y-106751426D01*
X121800000Y-106732843D01*
X121611318Y-106751426D01*
X121504194Y-106783921D01*
X121429885Y-106806463D01*
X121429882Y-106806464D01*
X121429880Y-106806465D01*
X121429877Y-106806466D01*
X121262681Y-106895834D01*
X121262674Y-106895838D01*
X121116116Y-107016116D01*
X120995838Y-107162674D01*
X120995834Y-107162681D01*
X120906466Y-107329877D01*
X120906465Y-107329880D01*
X120906464Y-107329882D01*
X120906463Y-107329885D01*
X120885614Y-107398616D01*
X120851426Y-107511318D01*
X120832843Y-107700000D01*
X120851426Y-107888681D01*
X120851427Y-107888683D01*
X120906463Y-108070115D01*
X120906464Y-108070118D01*
X120906465Y-108070119D01*
X120906466Y-108070122D01*
X120995834Y-108237318D01*
X120995838Y-108237325D01*
X121011440Y-108256336D01*
X121038752Y-108320647D01*
X121026960Y-108389514D01*
X121011440Y-108413664D01*
X120995838Y-108432674D01*
X120995834Y-108432681D01*
X120906466Y-108599877D01*
X120906465Y-108599880D01*
X120906464Y-108599882D01*
X120906463Y-108599885D01*
X120880796Y-108684496D01*
X120842500Y-108742934D01*
X120778688Y-108771390D01*
X120762137Y-108772500D01*
X101304875Y-108772500D01*
X101295146Y-108772118D01*
X101126308Y-108758830D01*
X101107090Y-108755786D01*
X100947167Y-108717392D01*
X100928661Y-108711379D01*
X100776710Y-108648438D01*
X100759376Y-108639606D01*
X100619133Y-108553665D01*
X100603403Y-108542236D01*
X100478338Y-108435421D01*
X100464578Y-108421661D01*
X100390563Y-108335000D01*
X100357760Y-108296592D01*
X100346336Y-108280869D01*
X100260390Y-108140618D01*
X100251561Y-108123289D01*
X100229535Y-108070115D01*
X100188617Y-107971331D01*
X100182609Y-107952839D01*
X100144212Y-107792904D01*
X100141169Y-107773690D01*
X100127882Y-107604852D01*
X100127500Y-107595124D01*
X100127500Y-106649997D01*
X106895131Y-106649997D01*
X106895131Y-106650002D01*
X106912498Y-106759658D01*
X106962904Y-106858585D01*
X106962909Y-106858592D01*
X107041407Y-106937090D01*
X107041410Y-106937092D01*
X107041413Y-106937095D01*
X107076297Y-106954869D01*
X107140341Y-106987501D01*
X107249998Y-107004869D01*
X107250000Y-107004869D01*
X107250002Y-107004869D01*
X107359658Y-106987501D01*
X107359659Y-106987500D01*
X107359661Y-106987500D01*
X107458587Y-106937095D01*
X107537095Y-106858587D01*
X107587500Y-106759661D01*
X107587500Y-106759659D01*
X107587501Y-106759658D01*
X107604869Y-106650002D01*
X107604869Y-106649997D01*
X107895131Y-106649997D01*
X107895131Y-106650002D01*
X107912498Y-106759658D01*
X107962904Y-106858585D01*
X107962909Y-106858592D01*
X108041407Y-106937090D01*
X108041410Y-106937092D01*
X108041413Y-106937095D01*
X108076297Y-106954869D01*
X108140341Y-106987501D01*
X108249998Y-107004869D01*
X108250000Y-107004869D01*
X108250002Y-107004869D01*
X108359658Y-106987501D01*
X108359659Y-106987500D01*
X108359661Y-106987500D01*
X108458587Y-106937095D01*
X108537095Y-106858587D01*
X108587500Y-106759661D01*
X108587500Y-106759659D01*
X108587501Y-106759658D01*
X108604869Y-106650002D01*
X108604869Y-106649997D01*
X108596950Y-106599997D01*
X112045131Y-106599997D01*
X112045131Y-106600002D01*
X112062498Y-106709658D01*
X112112904Y-106808585D01*
X112112909Y-106808592D01*
X112191407Y-106887090D01*
X112191410Y-106887092D01*
X112191413Y-106887095D01*
X112216741Y-106900000D01*
X112290341Y-106937501D01*
X112399998Y-106954869D01*
X112400000Y-106954869D01*
X112400002Y-106954869D01*
X112509658Y-106937501D01*
X112509659Y-106937500D01*
X112509661Y-106937500D01*
X112583265Y-106899997D01*
X114070131Y-106899997D01*
X114070131Y-106900002D01*
X114087498Y-107009658D01*
X114137904Y-107108585D01*
X114137909Y-107108592D01*
X114216407Y-107187090D01*
X114216410Y-107187092D01*
X114216413Y-107187095D01*
X114315339Y-107237500D01*
X114315341Y-107237501D01*
X114424998Y-107254869D01*
X114425000Y-107254869D01*
X114425002Y-107254869D01*
X114534658Y-107237501D01*
X114534659Y-107237500D01*
X114534661Y-107237500D01*
X114633587Y-107187095D01*
X114712095Y-107108587D01*
X114762500Y-107009661D01*
X114762500Y-107009659D01*
X114762501Y-107009658D01*
X114779869Y-106900002D01*
X114779869Y-106899997D01*
X114762501Y-106790341D01*
X114742673Y-106751426D01*
X114712095Y-106691413D01*
X114712092Y-106691410D01*
X114712090Y-106691407D01*
X114633592Y-106612909D01*
X114633588Y-106612906D01*
X114633587Y-106612905D01*
X114608263Y-106600002D01*
X114534658Y-106562498D01*
X114425002Y-106545131D01*
X114424998Y-106545131D01*
X114315341Y-106562498D01*
X114216414Y-106612904D01*
X114216407Y-106612909D01*
X114137909Y-106691407D01*
X114137904Y-106691414D01*
X114087498Y-106790341D01*
X114070131Y-106899997D01*
X112583265Y-106899997D01*
X112608587Y-106887095D01*
X112687095Y-106808587D01*
X112737500Y-106709661D01*
X112737500Y-106709659D01*
X112737501Y-106709658D01*
X112754869Y-106600002D01*
X112754869Y-106599997D01*
X112737501Y-106490341D01*
X112719427Y-106454869D01*
X112687095Y-106391413D01*
X112687092Y-106391410D01*
X112687090Y-106391407D01*
X112608592Y-106312909D01*
X112608588Y-106312906D01*
X112608587Y-106312905D01*
X112600112Y-106308587D01*
X112509658Y-106262498D01*
X112400002Y-106245131D01*
X112399998Y-106245131D01*
X112290341Y-106262498D01*
X112191414Y-106312904D01*
X112191407Y-106312909D01*
X112112909Y-106391407D01*
X112112904Y-106391414D01*
X112062498Y-106490341D01*
X112045131Y-106599997D01*
X108596950Y-106599997D01*
X108587501Y-106540341D01*
X108543951Y-106454869D01*
X108537095Y-106441413D01*
X108537092Y-106441410D01*
X108537090Y-106441407D01*
X108458592Y-106362909D01*
X108458588Y-106362906D01*
X108458587Y-106362905D01*
X108454743Y-106360946D01*
X108359658Y-106312498D01*
X108250002Y-106295131D01*
X108249998Y-106295131D01*
X108140341Y-106312498D01*
X108041414Y-106362904D01*
X108041407Y-106362909D01*
X107962909Y-106441407D01*
X107962904Y-106441414D01*
X107912498Y-106540341D01*
X107895131Y-106649997D01*
X107604869Y-106649997D01*
X107587501Y-106540341D01*
X107543951Y-106454869D01*
X107537095Y-106441413D01*
X107537092Y-106441410D01*
X107537090Y-106441407D01*
X107458592Y-106362909D01*
X107458588Y-106362906D01*
X107458587Y-106362905D01*
X107454743Y-106360946D01*
X107359658Y-106312498D01*
X107250002Y-106295131D01*
X107249998Y-106295131D01*
X107140341Y-106312498D01*
X107041414Y-106362904D01*
X107041407Y-106362909D01*
X106962909Y-106441407D01*
X106962904Y-106441414D01*
X106912498Y-106540341D01*
X106895131Y-106649997D01*
X100127500Y-106649997D01*
X100127500Y-106099997D01*
X126545131Y-106099997D01*
X126545131Y-106100002D01*
X126562498Y-106209658D01*
X126612904Y-106308585D01*
X126612909Y-106308592D01*
X126691407Y-106387090D01*
X126691410Y-106387092D01*
X126691413Y-106387095D01*
X126699890Y-106391414D01*
X126790341Y-106437501D01*
X126899998Y-106454869D01*
X126900000Y-106454869D01*
X126900002Y-106454869D01*
X127009658Y-106437501D01*
X127009659Y-106437500D01*
X127009661Y-106437500D01*
X127108587Y-106387095D01*
X127187095Y-106308587D01*
X127189515Y-106303836D01*
X127237489Y-106253040D01*
X127305310Y-106236245D01*
X127371445Y-106258782D01*
X127410485Y-106303837D01*
X127412904Y-106308585D01*
X127412909Y-106308592D01*
X127491407Y-106387090D01*
X127491410Y-106387092D01*
X127491413Y-106387095D01*
X127499890Y-106391414D01*
X127590341Y-106437501D01*
X127699998Y-106454869D01*
X127700000Y-106454869D01*
X127700002Y-106454869D01*
X127809658Y-106437501D01*
X127809659Y-106437500D01*
X127809661Y-106437500D01*
X127908587Y-106387095D01*
X127987095Y-106308587D01*
X128037500Y-106209661D01*
X128037500Y-106209659D01*
X128037501Y-106209658D01*
X128054869Y-106100002D01*
X128054869Y-106099997D01*
X128037501Y-105990341D01*
X128015397Y-105946960D01*
X127987095Y-105891413D01*
X127987092Y-105891410D01*
X127987090Y-105891407D01*
X127908592Y-105812909D01*
X127908588Y-105812906D01*
X127908587Y-105812905D01*
X127900112Y-105808587D01*
X127809658Y-105762498D01*
X127700002Y-105745131D01*
X127699998Y-105745131D01*
X127590341Y-105762498D01*
X127491414Y-105812904D01*
X127491407Y-105812909D01*
X127412909Y-105891407D01*
X127412903Y-105891415D01*
X127410483Y-105896166D01*
X127362508Y-105946960D01*
X127294686Y-105963754D01*
X127228552Y-105941215D01*
X127189517Y-105896166D01*
X127187096Y-105891415D01*
X127187095Y-105891413D01*
X127187093Y-105891411D01*
X127187090Y-105891407D01*
X127108592Y-105812909D01*
X127108588Y-105812906D01*
X127108587Y-105812905D01*
X127100112Y-105808587D01*
X127009658Y-105762498D01*
X126900002Y-105745131D01*
X126899998Y-105745131D01*
X126790341Y-105762498D01*
X126691414Y-105812904D01*
X126691407Y-105812909D01*
X126612909Y-105891407D01*
X126612904Y-105891414D01*
X126562498Y-105990341D01*
X126545131Y-106099997D01*
X100127500Y-106099997D01*
X100127500Y-105599997D01*
X112375131Y-105599997D01*
X112375131Y-105600002D01*
X112392498Y-105709658D01*
X112442904Y-105808585D01*
X112442909Y-105808592D01*
X112521407Y-105887090D01*
X112521410Y-105887092D01*
X112521413Y-105887095D01*
X112620339Y-105937500D01*
X112620341Y-105937501D01*
X112729998Y-105954869D01*
X112730000Y-105954869D01*
X112730002Y-105954869D01*
X112839658Y-105937501D01*
X112839659Y-105937500D01*
X112839661Y-105937500D01*
X112938587Y-105887095D01*
X113017095Y-105808587D01*
X113067500Y-105709661D01*
X113067500Y-105709659D01*
X113067501Y-105709658D01*
X113084869Y-105600002D01*
X113084869Y-105599997D01*
X113067501Y-105490341D01*
X113057552Y-105470815D01*
X113017095Y-105391413D01*
X113017092Y-105391410D01*
X113017090Y-105391407D01*
X112938592Y-105312909D01*
X112938588Y-105312906D01*
X112938587Y-105312905D01*
X112919915Y-105303391D01*
X112839658Y-105262498D01*
X112730002Y-105245131D01*
X112729998Y-105245131D01*
X112620341Y-105262498D01*
X112521414Y-105312904D01*
X112521407Y-105312909D01*
X112442909Y-105391407D01*
X112442904Y-105391414D01*
X112392498Y-105490341D01*
X112375131Y-105599997D01*
X100127500Y-105599997D01*
X100127500Y-105133311D01*
X111180860Y-105133311D01*
X111180860Y-105133316D01*
X111198227Y-105242972D01*
X111248633Y-105341899D01*
X111248638Y-105341906D01*
X111327136Y-105420404D01*
X111327139Y-105420406D01*
X111327142Y-105420409D01*
X111422086Y-105468785D01*
X111426070Y-105470815D01*
X111535727Y-105488183D01*
X111535729Y-105488183D01*
X111535731Y-105488183D01*
X111645387Y-105470815D01*
X111645388Y-105470814D01*
X111645390Y-105470814D01*
X111744316Y-105420409D01*
X111822824Y-105341901D01*
X111873229Y-105242975D01*
X111873229Y-105242973D01*
X111873230Y-105242972D01*
X111890598Y-105133316D01*
X111890598Y-105133311D01*
X111873230Y-105023655D01*
X111873229Y-105023653D01*
X111822824Y-104924727D01*
X111822821Y-104924724D01*
X111822819Y-104924721D01*
X111744321Y-104846223D01*
X111744317Y-104846220D01*
X111744316Y-104846219D01*
X111740472Y-104844260D01*
X111645387Y-104795812D01*
X111535731Y-104778445D01*
X111535727Y-104778445D01*
X111426070Y-104795812D01*
X111327143Y-104846218D01*
X111327136Y-104846223D01*
X111248638Y-104924721D01*
X111248633Y-104924728D01*
X111198227Y-105023655D01*
X111180860Y-105133311D01*
X100127500Y-105133311D01*
X100127500Y-104149997D01*
X107445131Y-104149997D01*
X107445131Y-104150002D01*
X107462498Y-104259658D01*
X107512904Y-104358585D01*
X107512909Y-104358592D01*
X107591407Y-104437090D01*
X107591410Y-104437092D01*
X107591413Y-104437095D01*
X107626297Y-104454869D01*
X107690341Y-104487501D01*
X107799998Y-104504869D01*
X107800000Y-104504869D01*
X107800002Y-104504869D01*
X107909658Y-104487501D01*
X107909659Y-104487500D01*
X107909661Y-104487500D01*
X108008587Y-104437095D01*
X108045685Y-104399997D01*
X110445131Y-104399997D01*
X110445131Y-104400002D01*
X110462498Y-104509658D01*
X110512904Y-104608585D01*
X110512909Y-104608592D01*
X110591407Y-104687090D01*
X110591410Y-104687092D01*
X110591413Y-104687095D01*
X110690339Y-104737500D01*
X110690341Y-104737501D01*
X110799998Y-104754869D01*
X110800000Y-104754869D01*
X110800002Y-104754869D01*
X110909658Y-104737501D01*
X110909659Y-104737500D01*
X110909661Y-104737500D01*
X111008587Y-104687095D01*
X111087095Y-104608587D01*
X111137500Y-104509661D01*
X111137500Y-104509659D01*
X111137501Y-104509658D01*
X111154869Y-104400002D01*
X111154869Y-104399997D01*
X111137501Y-104290341D01*
X111114223Y-104244656D01*
X111087095Y-104191413D01*
X111087092Y-104191410D01*
X111087090Y-104191407D01*
X111008592Y-104112909D01*
X111008588Y-104112906D01*
X111008587Y-104112905D01*
X110983263Y-104100002D01*
X110909658Y-104062498D01*
X110800002Y-104045131D01*
X110799998Y-104045131D01*
X110690341Y-104062498D01*
X110591414Y-104112904D01*
X110591407Y-104112909D01*
X110512909Y-104191407D01*
X110512904Y-104191414D01*
X110462498Y-104290341D01*
X110445131Y-104399997D01*
X108045685Y-104399997D01*
X108087095Y-104358587D01*
X108137500Y-104259661D01*
X108137500Y-104259659D01*
X108137501Y-104259658D01*
X108154869Y-104150002D01*
X108154869Y-104149997D01*
X108137501Y-104040341D01*
X108112024Y-103990339D01*
X108087095Y-103941413D01*
X108087092Y-103941410D01*
X108087090Y-103941407D01*
X108008592Y-103862909D01*
X108008588Y-103862906D01*
X108008587Y-103862905D01*
X107979142Y-103847902D01*
X107909658Y-103812498D01*
X107800002Y-103795131D01*
X107799998Y-103795131D01*
X107690341Y-103812498D01*
X107591414Y-103862904D01*
X107591407Y-103862909D01*
X107512909Y-103941407D01*
X107512904Y-103941414D01*
X107462498Y-104040341D01*
X107445131Y-104149997D01*
X100127500Y-104149997D01*
X100127500Y-102977455D01*
X109715399Y-102977455D01*
X109715399Y-102977460D01*
X109732766Y-103087116D01*
X109783172Y-103186043D01*
X109783177Y-103186050D01*
X109861675Y-103264548D01*
X109861678Y-103264550D01*
X109861681Y-103264553D01*
X109956576Y-103312904D01*
X109960609Y-103314959D01*
X110070266Y-103332327D01*
X110070268Y-103332327D01*
X110070270Y-103332327D01*
X110179926Y-103314959D01*
X110179927Y-103314958D01*
X110179929Y-103314958D01*
X110278855Y-103264553D01*
X110357363Y-103186045D01*
X110407768Y-103087119D01*
X110407768Y-103087117D01*
X110407769Y-103087116D01*
X110413331Y-103051999D01*
X110443260Y-102988864D01*
X110467077Y-102974032D01*
X110466165Y-102973427D01*
X110603349Y-102973427D01*
X110630666Y-102991539D01*
X110658277Y-103051997D01*
X110662659Y-103079662D01*
X110662659Y-103079663D01*
X110662660Y-103079665D01*
X110698355Y-103149720D01*
X110713064Y-103178589D01*
X110713069Y-103178596D01*
X110791567Y-103257094D01*
X110791570Y-103257096D01*
X110791573Y-103257099D01*
X110886988Y-103305715D01*
X110890501Y-103307505D01*
X111000158Y-103324873D01*
X111000160Y-103324873D01*
X111000162Y-103324873D01*
X111062759Y-103314958D01*
X111109821Y-103307504D01*
X111109824Y-103307502D01*
X111119097Y-103304490D01*
X111120281Y-103308134D01*
X111170308Y-103298661D01*
X111235088Y-103324840D01*
X111275431Y-103381886D01*
X111278529Y-103451687D01*
X111268608Y-103478350D01*
X111262498Y-103490341D01*
X111245131Y-103599997D01*
X111245131Y-103600002D01*
X111262498Y-103709658D01*
X111312904Y-103808585D01*
X111312909Y-103808592D01*
X111391407Y-103887090D01*
X111391410Y-103887092D01*
X111391413Y-103887095D01*
X111470558Y-103927421D01*
X111490341Y-103937501D01*
X111599998Y-103954869D01*
X111600000Y-103954869D01*
X111600002Y-103954869D01*
X111709658Y-103937501D01*
X111709659Y-103937500D01*
X111709661Y-103937500D01*
X111808587Y-103887095D01*
X111887095Y-103808587D01*
X111937500Y-103709661D01*
X111937500Y-103709659D01*
X111937501Y-103709658D01*
X111954869Y-103600002D01*
X111954869Y-103599997D01*
X112245131Y-103599997D01*
X112245131Y-103600002D01*
X112262498Y-103709658D01*
X112312904Y-103808585D01*
X112312909Y-103808592D01*
X112391407Y-103887090D01*
X112391410Y-103887092D01*
X112391413Y-103887095D01*
X112470558Y-103927421D01*
X112490341Y-103937501D01*
X112599998Y-103954869D01*
X112600000Y-103954869D01*
X112600002Y-103954869D01*
X112709658Y-103937501D01*
X112709659Y-103937500D01*
X112709661Y-103937500D01*
X112808587Y-103887095D01*
X112887095Y-103808587D01*
X112937500Y-103709661D01*
X112937500Y-103709659D01*
X112937501Y-103709658D01*
X112954869Y-103600002D01*
X112954869Y-103599997D01*
X112937501Y-103490341D01*
X112932454Y-103480436D01*
X112887095Y-103391413D01*
X112887092Y-103391410D01*
X112887090Y-103391407D01*
X112808592Y-103312909D01*
X112808588Y-103312906D01*
X112808587Y-103312905D01*
X112802462Y-103309784D01*
X112709658Y-103262498D01*
X112600002Y-103245131D01*
X112599998Y-103245131D01*
X112490341Y-103262498D01*
X112391414Y-103312904D01*
X112391407Y-103312909D01*
X112312909Y-103391407D01*
X112312904Y-103391414D01*
X112262498Y-103490341D01*
X112245131Y-103599997D01*
X111954869Y-103599997D01*
X111937501Y-103490341D01*
X111932454Y-103480436D01*
X111887095Y-103391413D01*
X111887092Y-103391410D01*
X111887090Y-103391407D01*
X111808592Y-103312909D01*
X111808588Y-103312906D01*
X111808587Y-103312905D01*
X111802462Y-103309784D01*
X111709658Y-103262498D01*
X111600002Y-103245131D01*
X111599998Y-103245131D01*
X111490340Y-103262499D01*
X111481063Y-103265514D01*
X111479886Y-103261894D01*
X111429640Y-103271321D01*
X111364905Y-103245031D01*
X111324659Y-103187917D01*
X111321681Y-103118110D01*
X111331551Y-103091653D01*
X111337660Y-103079665D01*
X111340314Y-103062909D01*
X111355029Y-102970006D01*
X111355029Y-102970001D01*
X111346824Y-102918196D01*
X113426932Y-102918196D01*
X113426932Y-102918201D01*
X113444299Y-103027857D01*
X113494705Y-103126784D01*
X113494710Y-103126791D01*
X113573208Y-103205289D01*
X113573211Y-103205291D01*
X113573214Y-103205294D01*
X113641994Y-103240339D01*
X113672142Y-103255700D01*
X113781799Y-103273068D01*
X113781801Y-103273068D01*
X113781803Y-103273068D01*
X113891459Y-103255700D01*
X113891460Y-103255699D01*
X113891462Y-103255699D01*
X113990388Y-103205294D01*
X114068896Y-103126786D01*
X114119301Y-103027860D01*
X114119301Y-103027858D01*
X114119302Y-103027857D01*
X114136670Y-102918201D01*
X114136670Y-102918196D01*
X114119302Y-102808540D01*
X114095292Y-102761417D01*
X114068896Y-102709612D01*
X114068893Y-102709609D01*
X114068891Y-102709606D01*
X113990393Y-102631108D01*
X113990389Y-102631105D01*
X113990388Y-102631104D01*
X113959047Y-102615135D01*
X113891459Y-102580697D01*
X113781803Y-102563330D01*
X113781799Y-102563330D01*
X113672142Y-102580697D01*
X113573215Y-102631103D01*
X113573208Y-102631108D01*
X113494710Y-102709606D01*
X113494705Y-102709613D01*
X113444299Y-102808540D01*
X113426932Y-102918196D01*
X111346824Y-102918196D01*
X111337661Y-102860345D01*
X111329456Y-102844242D01*
X111287255Y-102761417D01*
X111287252Y-102761414D01*
X111287250Y-102761411D01*
X111208752Y-102682913D01*
X111208748Y-102682910D01*
X111208747Y-102682909D01*
X111179174Y-102667841D01*
X111109818Y-102632502D01*
X111000162Y-102615135D01*
X111000158Y-102615135D01*
X110890501Y-102632502D01*
X110791574Y-102682908D01*
X110791567Y-102682913D01*
X110713069Y-102761411D01*
X110713064Y-102761418D01*
X110662659Y-102860345D01*
X110657096Y-102895465D01*
X110627165Y-102958599D01*
X110603349Y-102973427D01*
X110466165Y-102973427D01*
X110439759Y-102955919D01*
X110412149Y-102895463D01*
X110407768Y-102867797D01*
X110357363Y-102768871D01*
X110357360Y-102768868D01*
X110357358Y-102768865D01*
X110278860Y-102690367D01*
X110278856Y-102690364D01*
X110278855Y-102690363D01*
X110267370Y-102684511D01*
X110179926Y-102639956D01*
X110070270Y-102622589D01*
X110070266Y-102622589D01*
X109960609Y-102639956D01*
X109861682Y-102690362D01*
X109861675Y-102690367D01*
X109783177Y-102768865D01*
X109783172Y-102768872D01*
X109732766Y-102867799D01*
X109715399Y-102977455D01*
X100127500Y-102977455D01*
X100127500Y-102330427D01*
X104547500Y-102330427D01*
X104547500Y-102449572D01*
X104578337Y-102564660D01*
X104604319Y-102609661D01*
X104637910Y-102667842D01*
X104722158Y-102752090D01*
X104825341Y-102811663D01*
X104940427Y-102842500D01*
X104940429Y-102842500D01*
X105059571Y-102842500D01*
X105059573Y-102842500D01*
X105174659Y-102811663D01*
X105277842Y-102752090D01*
X105362090Y-102667842D01*
X105421663Y-102564659D01*
X105452500Y-102449573D01*
X105452500Y-102330427D01*
X105421663Y-102215341D01*
X105417766Y-102208592D01*
X105412510Y-102199487D01*
X105362090Y-102112158D01*
X105277842Y-102027910D01*
X105229496Y-101999997D01*
X106845131Y-101999997D01*
X106845131Y-102000002D01*
X106862498Y-102109658D01*
X106912904Y-102208585D01*
X106912909Y-102208592D01*
X106991407Y-102287090D01*
X106991410Y-102287092D01*
X106991413Y-102287095D01*
X107076461Y-102330429D01*
X107090341Y-102337501D01*
X107199998Y-102354869D01*
X107200000Y-102354869D01*
X107200002Y-102354869D01*
X107309658Y-102337501D01*
X107309659Y-102337500D01*
X107309661Y-102337500D01*
X107408587Y-102287095D01*
X107487095Y-102208587D01*
X107537500Y-102109661D01*
X107537500Y-102109659D01*
X107537501Y-102109658D01*
X107554869Y-102000002D01*
X107554869Y-101999997D01*
X107537501Y-101890341D01*
X107520063Y-101856117D01*
X107487095Y-101791413D01*
X107487092Y-101791410D01*
X107487090Y-101791407D01*
X107408592Y-101712909D01*
X107408588Y-101712906D01*
X107408587Y-101712905D01*
X107366430Y-101691425D01*
X107309658Y-101662498D01*
X107200002Y-101645131D01*
X107199998Y-101645131D01*
X107090341Y-101662498D01*
X106991414Y-101712904D01*
X106991407Y-101712909D01*
X106912909Y-101791407D01*
X106912904Y-101791414D01*
X106862498Y-101890341D01*
X106845131Y-101999997D01*
X105229496Y-101999997D01*
X105202677Y-101984513D01*
X105174660Y-101968337D01*
X105117116Y-101952918D01*
X105059573Y-101937500D01*
X104940427Y-101937500D01*
X104825339Y-101968337D01*
X104722158Y-102027910D01*
X104722155Y-102027912D01*
X104637912Y-102112155D01*
X104637910Y-102112158D01*
X104578337Y-102215339D01*
X104547500Y-102330427D01*
X100127500Y-102330427D01*
X100127500Y-98799983D01*
X104845131Y-98799983D01*
X104845131Y-98799988D01*
X104862498Y-98909644D01*
X104912904Y-99008571D01*
X104912909Y-99008578D01*
X104991407Y-99087076D01*
X104991409Y-99087077D01*
X104991413Y-99087081D01*
X105090339Y-99137486D01*
X105094308Y-99139508D01*
X105145104Y-99187483D01*
X105161899Y-99255304D01*
X105139362Y-99321438D01*
X105094308Y-99360478D01*
X105090339Y-99362499D01*
X105090339Y-99362500D01*
X104991413Y-99412905D01*
X104991412Y-99412906D01*
X104991407Y-99412909D01*
X104912909Y-99491407D01*
X104912904Y-99491414D01*
X104862498Y-99590341D01*
X104845131Y-99699997D01*
X104845131Y-99700002D01*
X104862498Y-99809658D01*
X104912904Y-99908585D01*
X104912909Y-99908592D01*
X104991407Y-99987090D01*
X104991410Y-99987092D01*
X104991413Y-99987095D01*
X105021206Y-100002275D01*
X105090341Y-100037501D01*
X105199998Y-100054869D01*
X105200000Y-100054869D01*
X105200002Y-100054869D01*
X105309658Y-100037501D01*
X105309659Y-100037500D01*
X105309661Y-100037500D01*
X105408587Y-99987095D01*
X105487095Y-99908587D01*
X105537500Y-99809661D01*
X105537500Y-99809659D01*
X105537501Y-99809658D01*
X105554869Y-99700002D01*
X105554869Y-99699997D01*
X105537501Y-99590341D01*
X105505033Y-99526619D01*
X105487095Y-99491413D01*
X105487092Y-99491410D01*
X105487090Y-99491407D01*
X105408592Y-99412909D01*
X105408588Y-99412906D01*
X105408587Y-99412905D01*
X105309661Y-99362500D01*
X105309660Y-99362499D01*
X105305692Y-99360478D01*
X105254895Y-99312504D01*
X105238100Y-99244683D01*
X105260637Y-99178548D01*
X105305692Y-99139508D01*
X105309660Y-99137486D01*
X105309661Y-99137486D01*
X105408587Y-99087081D01*
X105487095Y-99008573D01*
X105537500Y-98909647D01*
X105537500Y-98909645D01*
X105537501Y-98909644D01*
X105554869Y-98799988D01*
X105554869Y-98799983D01*
X105537501Y-98690327D01*
X105491477Y-98600000D01*
X105487095Y-98591399D01*
X105487092Y-98591396D01*
X105487090Y-98591393D01*
X105408592Y-98512895D01*
X105408588Y-98512892D01*
X105408587Y-98512891D01*
X105364326Y-98490339D01*
X105309658Y-98462484D01*
X105200002Y-98445117D01*
X105199998Y-98445117D01*
X105090341Y-98462484D01*
X104991414Y-98512890D01*
X104991407Y-98512895D01*
X104912909Y-98591393D01*
X104912904Y-98591400D01*
X104862498Y-98690327D01*
X104845131Y-98799983D01*
X100127500Y-98799983D01*
X100127500Y-97849997D01*
X110145131Y-97849997D01*
X110145131Y-97850002D01*
X110162498Y-97959658D01*
X110212904Y-98058585D01*
X110212909Y-98058592D01*
X110291407Y-98137090D01*
X110291410Y-98137092D01*
X110291413Y-98137095D01*
X110354054Y-98169012D01*
X110390341Y-98187501D01*
X110499998Y-98204869D01*
X110500000Y-98204869D01*
X110500002Y-98204869D01*
X110609656Y-98187501D01*
X110609656Y-98187500D01*
X110609661Y-98187500D01*
X110672206Y-98155631D01*
X110740873Y-98142736D01*
X110805614Y-98169012D01*
X110816180Y-98178436D01*
X110816408Y-98178664D01*
X110816411Y-98178666D01*
X110816414Y-98178669D01*
X110899977Y-98221246D01*
X110915342Y-98229075D01*
X111024999Y-98246443D01*
X111025001Y-98246443D01*
X111025003Y-98246443D01*
X111134659Y-98229075D01*
X111134660Y-98229074D01*
X111134662Y-98229074D01*
X111233588Y-98178669D01*
X111312096Y-98100161D01*
X111362501Y-98001235D01*
X111362501Y-98001233D01*
X111362502Y-98001232D01*
X111379870Y-97891576D01*
X111379870Y-97891571D01*
X111362502Y-97781915D01*
X111339872Y-97737501D01*
X111312096Y-97682987D01*
X111312093Y-97682984D01*
X111312091Y-97682981D01*
X111233593Y-97604483D01*
X111233589Y-97604480D01*
X111233588Y-97604479D01*
X111197207Y-97585942D01*
X111134659Y-97554072D01*
X111025003Y-97536705D01*
X111024999Y-97536705D01*
X110915343Y-97554072D01*
X110852794Y-97585942D01*
X110784124Y-97598837D01*
X110719384Y-97572559D01*
X110708820Y-97563137D01*
X110708592Y-97562909D01*
X110708588Y-97562906D01*
X110708587Y-97562905D01*
X110678302Y-97547474D01*
X110609658Y-97512498D01*
X110500002Y-97495131D01*
X110499998Y-97495131D01*
X110390341Y-97512498D01*
X110291414Y-97562904D01*
X110291407Y-97562909D01*
X110212909Y-97641407D01*
X110212904Y-97641414D01*
X110162498Y-97740341D01*
X110145131Y-97849997D01*
X100127500Y-97849997D01*
X100127500Y-97099997D01*
X113145131Y-97099997D01*
X113145131Y-97100002D01*
X113162498Y-97209658D01*
X113212904Y-97308585D01*
X113212909Y-97308592D01*
X113291407Y-97387090D01*
X113291410Y-97387092D01*
X113291413Y-97387095D01*
X113316741Y-97400000D01*
X113390341Y-97437501D01*
X113499998Y-97454869D01*
X113500000Y-97454869D01*
X113500002Y-97454869D01*
X113609656Y-97437501D01*
X113609656Y-97437500D01*
X113609661Y-97437500D01*
X113693710Y-97394675D01*
X113762374Y-97381780D01*
X113806287Y-97394673D01*
X113890339Y-97437500D01*
X113890341Y-97437500D01*
X113890343Y-97437501D01*
X113999998Y-97454869D01*
X114000000Y-97454869D01*
X114000002Y-97454869D01*
X114102035Y-97438708D01*
X114171328Y-97447662D01*
X114224780Y-97492658D01*
X114243906Y-97541783D01*
X114262498Y-97659172D01*
X114312904Y-97758099D01*
X114312909Y-97758106D01*
X114391407Y-97836604D01*
X114391413Y-97836609D01*
X114456979Y-97870016D01*
X114507774Y-97917989D01*
X114524570Y-97985809D01*
X114524160Y-97990519D01*
X114524160Y-97992610D01*
X114524160Y-102264221D01*
X114541900Y-102330427D01*
X114544639Y-102340648D01*
X114552849Y-102354869D01*
X114569675Y-102384011D01*
X114584200Y-102409170D01*
X114584202Y-102409173D01*
X114584203Y-102409174D01*
X114729387Y-102554357D01*
X114859541Y-102684511D01*
X114915490Y-102740460D01*
X114915492Y-102740461D01*
X114915496Y-102740464D01*
X114964701Y-102768872D01*
X114984012Y-102780021D01*
X115042193Y-102795611D01*
X115101852Y-102831976D01*
X115132381Y-102894823D01*
X115124086Y-102964198D01*
X115079600Y-103018076D01*
X115066394Y-103025869D01*
X114993707Y-103062905D01*
X114993706Y-103062906D01*
X114993701Y-103062909D01*
X114915203Y-103141407D01*
X114915198Y-103141414D01*
X114864791Y-103240344D01*
X114862289Y-103248044D01*
X114822846Y-103305715D01*
X114758485Y-103332907D01*
X114689640Y-103320986D01*
X114670788Y-103307492D01*
X114670010Y-103308565D01*
X114662112Y-103302827D01*
X114662111Y-103302826D01*
X114642271Y-103292717D01*
X114563182Y-103252419D01*
X114453526Y-103235052D01*
X114453522Y-103235052D01*
X114343865Y-103252419D01*
X114244938Y-103302825D01*
X114244931Y-103302830D01*
X114166433Y-103381328D01*
X114166428Y-103381335D01*
X114116022Y-103480262D01*
X114098655Y-103589918D01*
X114098655Y-103589923D01*
X114116022Y-103699579D01*
X114166428Y-103798506D01*
X114166433Y-103798513D01*
X114244931Y-103877011D01*
X114244934Y-103877013D01*
X114244937Y-103877016D01*
X114341869Y-103926405D01*
X114343865Y-103927422D01*
X114453522Y-103944790D01*
X114453524Y-103944790D01*
X114453526Y-103944790D01*
X114563182Y-103927422D01*
X114563183Y-103927421D01*
X114563185Y-103927421D01*
X114662111Y-103877016D01*
X114740619Y-103798508D01*
X114791024Y-103699582D01*
X114791024Y-103699580D01*
X114793525Y-103691885D01*
X114832964Y-103634210D01*
X114897323Y-103607014D01*
X114966169Y-103618930D01*
X114985028Y-103632428D01*
X114985808Y-103631356D01*
X114993704Y-103637092D01*
X114993707Y-103637095D01*
X115059347Y-103670540D01*
X115092635Y-103687501D01*
X115202292Y-103704869D01*
X115202294Y-103704869D01*
X115202296Y-103704869D01*
X115311952Y-103687501D01*
X115311953Y-103687500D01*
X115311955Y-103687500D01*
X115410881Y-103637095D01*
X115489389Y-103558587D01*
X115539794Y-103459661D01*
X115539794Y-103459659D01*
X115539795Y-103459658D01*
X115557163Y-103350002D01*
X115557163Y-103349997D01*
X115539795Y-103240341D01*
X115523618Y-103208592D01*
X115489389Y-103141413D01*
X115489386Y-103141410D01*
X115489384Y-103141407D01*
X115410886Y-103062909D01*
X115410882Y-103062906D01*
X115410881Y-103062905D01*
X115356083Y-103034984D01*
X115305287Y-102987011D01*
X115288492Y-102919190D01*
X115311029Y-102853055D01*
X115365744Y-102809603D01*
X115412378Y-102800500D01*
X117270304Y-102800500D01*
X117337343Y-102820185D01*
X117383098Y-102872989D01*
X117393042Y-102942147D01*
X117380788Y-102980795D01*
X117328435Y-103083542D01*
X117280461Y-103134338D01*
X117212640Y-103151133D01*
X117198554Y-103149720D01*
X117149999Y-103142030D01*
X117149994Y-103142030D01*
X117040337Y-103159397D01*
X116941410Y-103209803D01*
X116941403Y-103209808D01*
X116891978Y-103259233D01*
X116830655Y-103292717D01*
X116760963Y-103287732D01*
X116748005Y-103282037D01*
X116709657Y-103262498D01*
X116600002Y-103245131D01*
X116599998Y-103245131D01*
X116490341Y-103262498D01*
X116391414Y-103312904D01*
X116391407Y-103312909D01*
X116312909Y-103391407D01*
X116312904Y-103391414D01*
X116262498Y-103490341D01*
X116246493Y-103591400D01*
X116245131Y-103600000D01*
X116246170Y-103606560D01*
X116247053Y-103612133D01*
X116238097Y-103681427D01*
X116193100Y-103734878D01*
X116143979Y-103754003D01*
X116090341Y-103762499D01*
X115991414Y-103812904D01*
X115991407Y-103812909D01*
X115912909Y-103891407D01*
X115912904Y-103891414D01*
X115862498Y-103990341D01*
X115845131Y-104099997D01*
X115845131Y-104100002D01*
X115862498Y-104209658D01*
X115912904Y-104308585D01*
X115912909Y-104308592D01*
X115991407Y-104387090D01*
X115991410Y-104387092D01*
X115991413Y-104387095D01*
X116038261Y-104410965D01*
X116090341Y-104437501D01*
X116199998Y-104454869D01*
X116200000Y-104454869D01*
X116200002Y-104454869D01*
X116309658Y-104437501D01*
X116309659Y-104437500D01*
X116309661Y-104437500D01*
X116408587Y-104387095D01*
X116487095Y-104308587D01*
X116537500Y-104209661D01*
X116537500Y-104209659D01*
X116537501Y-104209658D01*
X116554869Y-104100002D01*
X116554869Y-104100000D01*
X116552947Y-104087867D01*
X116561900Y-104018577D01*
X116606895Y-103965123D01*
X116656023Y-103945996D01*
X116709657Y-103937501D01*
X116709658Y-103937500D01*
X116709661Y-103937500D01*
X116808587Y-103887095D01*
X116858018Y-103837663D01*
X116919337Y-103804180D01*
X116989028Y-103809163D01*
X117001980Y-103814856D01*
X117040335Y-103834399D01*
X117040336Y-103834399D01*
X117040338Y-103834400D01*
X117149994Y-103851768D01*
X117149996Y-103851768D01*
X117149998Y-103851768D01*
X117259654Y-103834400D01*
X117259655Y-103834399D01*
X117259657Y-103834399D01*
X117358583Y-103783994D01*
X117437091Y-103705486D01*
X117487496Y-103606560D01*
X117487496Y-103606558D01*
X117491517Y-103598667D01*
X117539491Y-103547871D01*
X117607312Y-103531075D01*
X117621398Y-103532487D01*
X117644847Y-103536201D01*
X117669957Y-103540179D01*
X117669958Y-103540179D01*
X117669960Y-103540179D01*
X117779616Y-103522811D01*
X117779617Y-103522810D01*
X117779619Y-103522810D01*
X117878545Y-103472405D01*
X117957053Y-103393897D01*
X117974028Y-103360580D01*
X118022002Y-103309784D01*
X118089823Y-103292989D01*
X118103911Y-103294402D01*
X118169996Y-103304869D01*
X118169998Y-103304869D01*
X118170000Y-103304869D01*
X118279654Y-103287501D01*
X118279654Y-103287500D01*
X118279659Y-103287500D01*
X118320060Y-103266914D01*
X118388728Y-103254019D01*
X118453468Y-103280296D01*
X118459685Y-103285841D01*
X118461408Y-103287092D01*
X118461411Y-103287095D01*
X118535490Y-103324840D01*
X118560339Y-103337501D01*
X118669996Y-103354869D01*
X118669998Y-103354869D01*
X118670000Y-103354869D01*
X118779656Y-103337501D01*
X118779657Y-103337500D01*
X118779659Y-103337500D01*
X118878585Y-103287095D01*
X118957093Y-103208587D01*
X119007498Y-103109661D01*
X119007498Y-103109659D01*
X119007499Y-103109658D01*
X119024867Y-103000002D01*
X119024867Y-102999996D01*
X119015982Y-102943897D01*
X119024937Y-102874604D01*
X119069933Y-102821152D01*
X119136685Y-102800513D01*
X119138455Y-102800500D01*
X119743111Y-102800500D01*
X119810150Y-102820185D01*
X119855905Y-102872989D01*
X119865849Y-102942147D01*
X119850277Y-102980519D01*
X119852845Y-102981828D01*
X119798007Y-103089452D01*
X119780640Y-103199108D01*
X119780640Y-103199113D01*
X119798007Y-103308769D01*
X119848413Y-103407696D01*
X119848418Y-103407703D01*
X119926916Y-103486201D01*
X119926919Y-103486203D01*
X119926922Y-103486206D01*
X119998762Y-103522810D01*
X120025850Y-103536612D01*
X120135507Y-103553980D01*
X120135509Y-103553980D01*
X120135511Y-103553980D01*
X120245167Y-103536612D01*
X120245168Y-103536611D01*
X120245170Y-103536611D01*
X120344096Y-103486206D01*
X120422604Y-103407698D01*
X120473009Y-103308772D01*
X120473009Y-103308770D01*
X120473010Y-103308769D01*
X120490378Y-103199113D01*
X120490378Y-103199108D01*
X120473010Y-103089452D01*
X120466831Y-103077325D01*
X120422604Y-102990524D01*
X120422603Y-102990523D01*
X120418173Y-102981828D01*
X120421441Y-102980162D01*
X120404108Y-102931560D01*
X120419944Y-102863508D01*
X120470057Y-102814821D01*
X120527907Y-102800500D01*
X127224167Y-102800500D01*
X127291206Y-102820185D01*
X127311848Y-102836819D01*
X129930768Y-105455739D01*
X129961016Y-105505096D01*
X129962498Y-105509656D01*
X129962499Y-105509659D01*
X129962500Y-105509661D01*
X130012905Y-105608587D01*
X130012907Y-105608589D01*
X130012909Y-105608592D01*
X130091407Y-105687090D01*
X130091410Y-105687092D01*
X130091413Y-105687095D01*
X130163165Y-105723654D01*
X130190341Y-105737501D01*
X130299998Y-105754869D01*
X130300000Y-105754869D01*
X130300002Y-105754869D01*
X130409658Y-105737501D01*
X130409659Y-105737500D01*
X130409661Y-105737500D01*
X130508587Y-105687095D01*
X130587095Y-105608587D01*
X130637500Y-105509661D01*
X130637500Y-105509659D01*
X130637501Y-105509658D01*
X130654869Y-105400002D01*
X130654869Y-105399997D01*
X130637501Y-105290341D01*
X130623314Y-105262498D01*
X130587095Y-105191413D01*
X130587092Y-105191410D01*
X130587090Y-105191407D01*
X130508592Y-105112909D01*
X130508589Y-105112907D01*
X130508587Y-105112905D01*
X130409661Y-105062500D01*
X130409659Y-105062499D01*
X130409656Y-105062498D01*
X130405096Y-105061016D01*
X130355739Y-105030768D01*
X129459966Y-104134995D01*
X130180129Y-104134995D01*
X130180129Y-104135000D01*
X130197496Y-104244656D01*
X130247902Y-104343583D01*
X130247907Y-104343590D01*
X130326405Y-104422088D01*
X130326408Y-104422090D01*
X130326411Y-104422093D01*
X130390738Y-104454869D01*
X130425339Y-104472499D01*
X130534996Y-104489867D01*
X130534998Y-104489867D01*
X130535000Y-104489867D01*
X130644656Y-104472499D01*
X130644657Y-104472498D01*
X130644659Y-104472498D01*
X130743585Y-104422093D01*
X130822093Y-104343585D01*
X130872498Y-104244659D01*
X130872498Y-104244657D01*
X130872499Y-104244656D01*
X130889867Y-104135000D01*
X130889867Y-104134995D01*
X130872499Y-104025339D01*
X130854666Y-103990339D01*
X130822093Y-103926411D01*
X130822090Y-103926408D01*
X130822088Y-103926405D01*
X130743590Y-103847907D01*
X130743586Y-103847904D01*
X130743585Y-103847903D01*
X130717082Y-103834399D01*
X130644656Y-103797496D01*
X130535000Y-103780129D01*
X130534996Y-103780129D01*
X130425339Y-103797496D01*
X130326412Y-103847902D01*
X130326405Y-103847907D01*
X130247907Y-103926405D01*
X130247902Y-103926412D01*
X130197496Y-104025339D01*
X130180129Y-104134995D01*
X129459966Y-104134995D01*
X129126526Y-103801555D01*
X129093041Y-103740232D01*
X129098025Y-103670540D01*
X129139897Y-103614607D01*
X129194808Y-103591400D01*
X129219438Y-103587500D01*
X129318364Y-103537095D01*
X129396872Y-103458587D01*
X129447277Y-103359661D01*
X129447277Y-103359659D01*
X129447278Y-103359658D01*
X129464646Y-103250002D01*
X129464646Y-103249997D01*
X129447278Y-103140341D01*
X129420160Y-103087119D01*
X129396872Y-103041413D01*
X129396869Y-103041410D01*
X129396867Y-103041407D01*
X129367644Y-103012184D01*
X129334159Y-102950861D01*
X129339143Y-102881169D01*
X129381015Y-102825236D01*
X129446479Y-102800819D01*
X129455325Y-102800503D01*
X130204596Y-102800503D01*
X130271635Y-102820188D01*
X130292277Y-102836822D01*
X132924240Y-105468785D01*
X132954488Y-105518141D01*
X132955972Y-105522710D01*
X132955974Y-105522713D01*
X133006379Y-105621639D01*
X133006381Y-105621641D01*
X133006383Y-105621644D01*
X133047070Y-105662331D01*
X133080555Y-105723654D01*
X133075571Y-105793346D01*
X133069875Y-105806304D01*
X133054959Y-105835580D01*
X133037591Y-105945236D01*
X133037591Y-105945241D01*
X133054958Y-106054897D01*
X133105364Y-106153824D01*
X133105369Y-106153831D01*
X133183867Y-106232329D01*
X133183870Y-106232331D01*
X133183873Y-106232334D01*
X133282799Y-106282739D01*
X133282801Y-106282740D01*
X133392458Y-106300108D01*
X133392460Y-106300108D01*
X133392462Y-106300108D01*
X133502118Y-106282740D01*
X133502119Y-106282739D01*
X133502121Y-106282739D01*
X133601047Y-106232334D01*
X133679555Y-106153826D01*
X133729960Y-106054900D01*
X133729960Y-106054898D01*
X133729961Y-106054897D01*
X133747329Y-105945241D01*
X133747329Y-105945236D01*
X133729961Y-105835580D01*
X133718410Y-105812909D01*
X133679555Y-105736652D01*
X133679552Y-105736649D01*
X133679550Y-105736646D01*
X133638863Y-105695959D01*
X133605378Y-105634636D01*
X133610362Y-105564944D01*
X133616055Y-105551993D01*
X133630974Y-105522713D01*
X133631699Y-105518141D01*
X133648343Y-105413054D01*
X133648343Y-105413049D01*
X133630975Y-105303393D01*
X133601289Y-105245131D01*
X133580569Y-105204465D01*
X133580566Y-105204462D01*
X133580564Y-105204459D01*
X133502066Y-105125961D01*
X133502063Y-105125959D01*
X133502061Y-105125957D01*
X133403135Y-105075552D01*
X133403133Y-105075551D01*
X133403130Y-105075550D01*
X133398576Y-105074070D01*
X133349219Y-105043822D01*
X132906468Y-104601071D01*
X132872983Y-104539748D01*
X132877967Y-104470056D01*
X132919839Y-104414123D01*
X132985303Y-104389706D01*
X133050440Y-104402904D01*
X133118339Y-104437500D01*
X133118341Y-104437500D01*
X133118343Y-104437501D01*
X133227998Y-104454869D01*
X133228000Y-104454869D01*
X133228002Y-104454869D01*
X133337658Y-104437501D01*
X133337659Y-104437500D01*
X133337661Y-104437500D01*
X133436587Y-104387095D01*
X133515095Y-104308587D01*
X133565500Y-104209661D01*
X133565500Y-104209659D01*
X133565501Y-104209658D01*
X133582869Y-104100002D01*
X133582869Y-104099997D01*
X133565501Y-103990341D01*
X133542292Y-103944790D01*
X133515095Y-103891413D01*
X133515092Y-103891410D01*
X133515090Y-103891407D01*
X133436592Y-103812909D01*
X133436588Y-103812906D01*
X133436587Y-103812905D01*
X133428112Y-103808587D01*
X133337658Y-103762498D01*
X133228002Y-103745131D01*
X133227998Y-103745131D01*
X133118341Y-103762498D01*
X133019414Y-103812904D01*
X133019407Y-103812909D01*
X132940909Y-103891407D01*
X132940904Y-103891414D01*
X132890498Y-103990341D01*
X132873131Y-104099997D01*
X132873131Y-104100002D01*
X132890498Y-104209658D01*
X132925094Y-104277556D01*
X132937990Y-104346225D01*
X132911713Y-104410965D01*
X132854607Y-104451222D01*
X132784801Y-104454214D01*
X132726928Y-104421531D01*
X131226704Y-102921307D01*
X131193219Y-102859984D01*
X131198203Y-102790292D01*
X131236767Y-102738777D01*
X131236685Y-102738695D01*
X131237257Y-102738122D01*
X131240075Y-102734359D01*
X131241510Y-102733300D01*
X131243574Y-102731799D01*
X131243585Y-102731794D01*
X131322093Y-102653286D01*
X131372498Y-102554360D01*
X131372498Y-102554358D01*
X131372499Y-102554357D01*
X131389867Y-102444701D01*
X131389867Y-102444696D01*
X131372499Y-102335040D01*
X131350272Y-102291417D01*
X131322093Y-102236112D01*
X131322090Y-102236109D01*
X131322088Y-102236106D01*
X131243590Y-102157608D01*
X131243586Y-102157605D01*
X131243585Y-102157604D01*
X131239741Y-102155645D01*
X131144656Y-102107197D01*
X131035000Y-102089830D01*
X131034996Y-102089830D01*
X130925339Y-102107197D01*
X130826412Y-102157603D01*
X130826405Y-102157608D01*
X130747903Y-102236110D01*
X130746298Y-102238320D01*
X130743660Y-102240353D01*
X130741002Y-102243012D01*
X130740658Y-102242668D01*
X130690966Y-102280983D01*
X130621353Y-102286959D01*
X130570502Y-102263810D01*
X130564945Y-102259546D01*
X130564931Y-102259538D01*
X130553119Y-102252718D01*
X130553118Y-102252717D01*
X130496420Y-102219983D01*
X130496419Y-102219982D01*
X130470018Y-102212908D01*
X130419991Y-102199503D01*
X130419989Y-102199503D01*
X129924830Y-102199503D01*
X129857791Y-102179818D01*
X129812036Y-102127014D01*
X129802092Y-102057856D01*
X129831117Y-101994300D01*
X129837149Y-101987822D01*
X129840460Y-101984511D01*
X129880022Y-101915988D01*
X129900500Y-101839562D01*
X129900500Y-101760438D01*
X129900500Y-100360438D01*
X129880021Y-100284011D01*
X129861455Y-100251853D01*
X129840464Y-100215495D01*
X129840458Y-100215487D01*
X129737152Y-100112181D01*
X129703667Y-100050858D01*
X129708651Y-99981166D01*
X129750523Y-99925233D01*
X129815987Y-99900816D01*
X129824833Y-99900500D01*
X132039560Y-99900500D01*
X132039562Y-99900500D01*
X132115989Y-99880021D01*
X132184511Y-99840460D01*
X132240460Y-99784511D01*
X132455742Y-99569227D01*
X132505103Y-99538980D01*
X132509648Y-99537501D01*
X132509661Y-99537500D01*
X132608587Y-99487095D01*
X132687095Y-99408587D01*
X132737500Y-99309661D01*
X132737500Y-99309659D01*
X132737501Y-99309658D01*
X132754869Y-99200002D01*
X132754869Y-99199997D01*
X132737501Y-99090341D01*
X132695837Y-99008571D01*
X132687095Y-98991413D01*
X132687092Y-98991410D01*
X132687090Y-98991407D01*
X132608592Y-98912909D01*
X132608588Y-98912906D01*
X132608587Y-98912905D01*
X132557922Y-98887090D01*
X132509658Y-98862498D01*
X132400002Y-98845131D01*
X132399998Y-98845131D01*
X132290341Y-98862498D01*
X132191414Y-98912904D01*
X132191407Y-98912909D01*
X132112909Y-98991407D01*
X132112906Y-98991412D01*
X132112905Y-98991413D01*
X132104163Y-99008571D01*
X132062498Y-99090341D01*
X132061018Y-99094899D01*
X132030771Y-99144256D01*
X131911846Y-99263182D01*
X131850526Y-99296666D01*
X131824167Y-99299500D01*
X122563705Y-99299500D01*
X122496666Y-99279815D01*
X122450911Y-99227011D01*
X122440967Y-99157853D01*
X122441232Y-99156102D01*
X122454869Y-99070000D01*
X122454869Y-99069995D01*
X122437501Y-98960341D01*
X122437500Y-98960339D01*
X122437500Y-98960337D01*
X122394675Y-98876287D01*
X122381780Y-98807624D01*
X122394673Y-98763710D01*
X122437500Y-98679659D01*
X122450117Y-98599997D01*
X125945131Y-98599997D01*
X125945131Y-98600002D01*
X125962498Y-98709658D01*
X126012904Y-98808585D01*
X126012909Y-98808592D01*
X126091407Y-98887090D01*
X126091410Y-98887092D01*
X126091413Y-98887095D01*
X126190339Y-98937500D01*
X126190341Y-98937501D01*
X126299998Y-98954869D01*
X126300000Y-98954869D01*
X126300002Y-98954869D01*
X126409658Y-98937501D01*
X126409659Y-98937500D01*
X126409661Y-98937500D01*
X126508587Y-98887095D01*
X126587095Y-98808587D01*
X126637500Y-98709661D01*
X126637500Y-98709659D01*
X126637501Y-98709658D01*
X126654869Y-98600002D01*
X126654869Y-98599997D01*
X126637501Y-98490341D01*
X126605307Y-98427156D01*
X126587095Y-98391413D01*
X126587092Y-98391410D01*
X126587090Y-98391407D01*
X126508592Y-98312909D01*
X126508588Y-98312906D01*
X126508587Y-98312905D01*
X126502191Y-98309646D01*
X126409658Y-98262498D01*
X126300002Y-98245131D01*
X126299998Y-98245131D01*
X126190341Y-98262498D01*
X126091414Y-98312904D01*
X126091407Y-98312909D01*
X126012909Y-98391407D01*
X126012904Y-98391414D01*
X125962498Y-98490341D01*
X125945131Y-98599997D01*
X122450117Y-98599997D01*
X122451479Y-98591400D01*
X122454869Y-98570000D01*
X122454869Y-98569995D01*
X122437501Y-98460339D01*
X122420594Y-98427157D01*
X122387095Y-98361411D01*
X122387092Y-98361408D01*
X122387090Y-98361405D01*
X122308592Y-98282907D01*
X122308588Y-98282904D01*
X122308587Y-98282903D01*
X122285428Y-98271103D01*
X122209658Y-98232496D01*
X122100002Y-98215129D01*
X122099998Y-98215129D01*
X121990341Y-98232496D01*
X121914572Y-98271103D01*
X121845903Y-98283999D01*
X121781163Y-98257722D01*
X121740906Y-98200616D01*
X121735805Y-98141220D01*
X121753481Y-98029619D01*
X121753481Y-98029614D01*
X121736113Y-97919958D01*
X121721649Y-97891571D01*
X121685707Y-97821030D01*
X121685704Y-97821027D01*
X121685702Y-97821024D01*
X121607204Y-97742526D01*
X121607200Y-97742523D01*
X121607199Y-97742522D01*
X121597343Y-97737500D01*
X121508270Y-97692115D01*
X121398614Y-97674748D01*
X121398610Y-97674748D01*
X121288953Y-97692115D01*
X121190026Y-97742521D01*
X121190019Y-97742526D01*
X121111521Y-97821024D01*
X121111516Y-97821031D01*
X121061110Y-97919958D01*
X121043743Y-98029614D01*
X121043743Y-98029619D01*
X121061110Y-98139275D01*
X121111516Y-98238202D01*
X121111521Y-98238209D01*
X121190019Y-98316707D01*
X121190022Y-98316709D01*
X121190025Y-98316712D01*
X121277752Y-98361411D01*
X121288953Y-98367118D01*
X121398610Y-98384486D01*
X121398612Y-98384486D01*
X121398614Y-98384486D01*
X121508269Y-98367118D01*
X121508270Y-98367117D01*
X121508273Y-98367117D01*
X121584041Y-98328511D01*
X121652706Y-98315615D01*
X121717447Y-98341891D01*
X121757704Y-98398997D01*
X121762807Y-98458393D01*
X121755259Y-98506052D01*
X121745132Y-98569995D01*
X121745131Y-98570000D01*
X121762498Y-98679656D01*
X121805323Y-98763704D01*
X121818219Y-98832373D01*
X121805323Y-98876292D01*
X121762498Y-98960339D01*
X121745131Y-99069995D01*
X121745131Y-99070000D01*
X121758768Y-99156102D01*
X121749813Y-99225396D01*
X121704817Y-99278848D01*
X121638065Y-99299487D01*
X121636295Y-99299500D01*
X120531199Y-99299500D01*
X120464160Y-99279815D01*
X120443518Y-99263181D01*
X119958112Y-98777775D01*
X119958110Y-98777773D01*
X119942260Y-98768622D01*
X119889590Y-98738213D01*
X119889589Y-98738212D01*
X119847073Y-98726820D01*
X119813161Y-98717733D01*
X119813159Y-98717733D01*
X116136226Y-98717733D01*
X116069187Y-98698048D01*
X116023432Y-98645244D01*
X116013488Y-98576086D01*
X116042513Y-98512530D01*
X116048545Y-98506052D01*
X117317778Y-97236819D01*
X117379101Y-97203334D01*
X117405459Y-97200500D01*
X122039560Y-97200500D01*
X122039562Y-97200500D01*
X122115989Y-97180021D01*
X122184511Y-97140460D01*
X122240460Y-97084511D01*
X122248623Y-97076347D01*
X122309940Y-97042861D01*
X122379632Y-97047842D01*
X122435569Y-97089709D01*
X122446790Y-97107730D01*
X122457109Y-97127982D01*
X122457114Y-97127989D01*
X122458892Y-97129767D01*
X122460363Y-97132461D01*
X122462849Y-97135883D01*
X122462406Y-97136204D01*
X122492377Y-97191090D01*
X122487393Y-97260782D01*
X122481697Y-97273741D01*
X122453970Y-97328158D01*
X122436603Y-97437813D01*
X122436603Y-97437818D01*
X122453970Y-97547474D01*
X122504376Y-97646401D01*
X122504381Y-97646408D01*
X122582879Y-97724906D01*
X122582882Y-97724908D01*
X122582885Y-97724911D01*
X122681811Y-97775316D01*
X122681813Y-97775317D01*
X122791470Y-97792685D01*
X122791472Y-97792685D01*
X122791474Y-97792685D01*
X122901130Y-97775317D01*
X122901131Y-97775316D01*
X122901133Y-97775316D01*
X123000059Y-97724911D01*
X123078567Y-97646403D01*
X123128972Y-97547477D01*
X123128972Y-97547475D01*
X123128973Y-97547474D01*
X123146341Y-97437818D01*
X123146341Y-97437813D01*
X123128973Y-97328157D01*
X123100012Y-97271318D01*
X123078567Y-97229229D01*
X123078564Y-97229226D01*
X123078562Y-97229223D01*
X123076784Y-97227445D01*
X123075311Y-97224748D01*
X123072828Y-97221330D01*
X123073269Y-97221009D01*
X123043299Y-97166122D01*
X123048283Y-97096430D01*
X123053971Y-97083488D01*
X123081705Y-97029058D01*
X123081706Y-97029053D01*
X123099074Y-96919399D01*
X123099074Y-96919394D01*
X123081706Y-96809738D01*
X123064575Y-96776117D01*
X123031300Y-96710810D01*
X123031297Y-96710807D01*
X123031295Y-96710804D01*
X122952797Y-96632306D01*
X122952793Y-96632303D01*
X122952792Y-96632302D01*
X122932538Y-96621982D01*
X122881743Y-96574008D01*
X122864948Y-96506187D01*
X122887486Y-96440052D01*
X122901144Y-96423825D01*
X122988153Y-96336816D01*
X123049476Y-96303334D01*
X123075833Y-96300500D01*
X125224167Y-96300500D01*
X125291206Y-96320185D01*
X125311848Y-96336819D01*
X126630768Y-97655739D01*
X126661016Y-97705096D01*
X126662498Y-97709656D01*
X126662499Y-97709659D01*
X126662500Y-97709661D01*
X126712905Y-97808587D01*
X126712907Y-97808589D01*
X126712909Y-97808592D01*
X126791407Y-97887090D01*
X126791410Y-97887092D01*
X126791413Y-97887095D01*
X126855907Y-97919956D01*
X126890341Y-97937501D01*
X126999998Y-97954869D01*
X127000000Y-97954869D01*
X127000002Y-97954869D01*
X127109658Y-97937501D01*
X127109659Y-97937500D01*
X127109661Y-97937500D01*
X127208587Y-97887095D01*
X127287095Y-97808587D01*
X127337500Y-97709661D01*
X127337500Y-97709659D01*
X127337501Y-97709658D01*
X127354869Y-97600002D01*
X127354869Y-97599997D01*
X127337501Y-97490341D01*
X127335752Y-97486908D01*
X127291469Y-97399997D01*
X130445131Y-97399997D01*
X130445131Y-97400002D01*
X130462498Y-97509658D01*
X130512904Y-97608585D01*
X130512909Y-97608592D01*
X130591407Y-97687090D01*
X130591410Y-97687092D01*
X130591413Y-97687095D01*
X130635692Y-97709656D01*
X130690341Y-97737501D01*
X130799998Y-97754869D01*
X130800000Y-97754869D01*
X130800002Y-97754869D01*
X130909658Y-97737501D01*
X130909659Y-97737500D01*
X130909661Y-97737500D01*
X131008587Y-97687095D01*
X131087095Y-97608587D01*
X131137500Y-97509661D01*
X131137500Y-97509659D01*
X131137501Y-97509658D01*
X131154869Y-97400002D01*
X131154869Y-97399997D01*
X131137501Y-97290341D01*
X131123274Y-97262419D01*
X131087095Y-97191413D01*
X131087092Y-97191410D01*
X131087090Y-97191407D01*
X131008592Y-97112909D01*
X131008588Y-97112906D01*
X131008587Y-97112905D01*
X130998430Y-97107730D01*
X130909658Y-97062498D01*
X130800002Y-97045131D01*
X130799998Y-97045131D01*
X130690341Y-97062498D01*
X130591414Y-97112904D01*
X130591407Y-97112909D01*
X130512909Y-97191407D01*
X130512904Y-97191414D01*
X130462498Y-97290341D01*
X130445131Y-97399997D01*
X127291469Y-97399997D01*
X127287095Y-97391413D01*
X127287092Y-97391410D01*
X127287090Y-97391407D01*
X127208592Y-97312909D01*
X127208589Y-97312907D01*
X127208587Y-97312905D01*
X127109661Y-97262500D01*
X127109659Y-97262499D01*
X127109656Y-97262498D01*
X127105096Y-97261016D01*
X127055739Y-97230768D01*
X127031806Y-97206835D01*
X126998321Y-97145512D01*
X127003305Y-97075820D01*
X127045177Y-97019887D01*
X127110641Y-96995470D01*
X127138883Y-96996680D01*
X127190580Y-97004869D01*
X127190582Y-97004869D01*
X127300238Y-96987501D01*
X127300239Y-96987500D01*
X127300241Y-96987500D01*
X127399167Y-96937095D01*
X127477675Y-96858587D01*
X127528080Y-96759661D01*
X127528080Y-96759659D01*
X127528081Y-96759658D01*
X127545449Y-96650002D01*
X127545449Y-96649997D01*
X128056879Y-96649997D01*
X128056879Y-96650002D01*
X128074246Y-96759658D01*
X128124652Y-96858585D01*
X128124657Y-96858592D01*
X128203155Y-96937090D01*
X128203158Y-96937092D01*
X128203161Y-96937095D01*
X128271837Y-96972087D01*
X128302089Y-96987501D01*
X128411746Y-97004869D01*
X128411748Y-97004869D01*
X128411750Y-97004869D01*
X128521406Y-96987501D01*
X128521407Y-96987500D01*
X128521409Y-96987500D01*
X128620335Y-96937095D01*
X128698843Y-96858587D01*
X128749248Y-96759661D01*
X128749248Y-96759659D01*
X128749249Y-96759658D01*
X128766617Y-96650002D01*
X128766617Y-96649997D01*
X128749249Y-96540341D01*
X128747804Y-96537505D01*
X128698843Y-96441413D01*
X128698840Y-96441410D01*
X128698838Y-96441407D01*
X128620340Y-96362909D01*
X128620336Y-96362906D01*
X128620335Y-96362905D01*
X128590099Y-96347499D01*
X128521406Y-96312498D01*
X128411750Y-96295131D01*
X128411746Y-96295131D01*
X128302089Y-96312498D01*
X128203162Y-96362904D01*
X128203155Y-96362909D01*
X128124657Y-96441407D01*
X128124652Y-96441414D01*
X128074246Y-96540341D01*
X128056879Y-96649997D01*
X127545449Y-96649997D01*
X127528081Y-96540341D01*
X127526636Y-96537505D01*
X127477675Y-96441413D01*
X127477672Y-96441410D01*
X127477670Y-96441407D01*
X127399172Y-96362909D01*
X127399168Y-96362906D01*
X127399167Y-96362905D01*
X127368931Y-96347499D01*
X127300238Y-96312498D01*
X127190582Y-96295131D01*
X127190578Y-96295131D01*
X127080921Y-96312498D01*
X126981994Y-96362904D01*
X126981987Y-96362909D01*
X126903489Y-96441407D01*
X126903484Y-96441414D01*
X126853078Y-96540341D01*
X126835711Y-96649997D01*
X126835711Y-96650002D01*
X126843898Y-96701693D01*
X126834943Y-96770987D01*
X126789947Y-96824439D01*
X126723196Y-96845078D01*
X126655882Y-96826353D01*
X126633744Y-96808772D01*
X125584512Y-95759540D01*
X125577237Y-95755339D01*
X125577237Y-95755340D01*
X125546338Y-95737501D01*
X125536615Y-95731887D01*
X125488400Y-95681321D01*
X125475176Y-95612714D01*
X125501144Y-95547849D01*
X125558057Y-95507320D01*
X125598615Y-95500500D01*
X129983901Y-95500500D01*
X130050940Y-95520185D01*
X130071582Y-95536819D01*
X131275503Y-96740740D01*
X131305751Y-96790097D01*
X131307233Y-96794657D01*
X131307234Y-96794660D01*
X131307235Y-96794662D01*
X131357640Y-96893588D01*
X131357642Y-96893590D01*
X131357644Y-96893593D01*
X131436142Y-96972091D01*
X131436145Y-96972093D01*
X131436148Y-96972096D01*
X131500469Y-97004869D01*
X131535076Y-97022502D01*
X131644733Y-97039870D01*
X131644735Y-97039870D01*
X131644737Y-97039870D01*
X131754393Y-97022502D01*
X131754394Y-97022501D01*
X131754396Y-97022501D01*
X131853322Y-96972096D01*
X131931830Y-96893588D01*
X131982235Y-96794662D01*
X131982235Y-96794660D01*
X131982236Y-96794659D01*
X131999604Y-96685003D01*
X131999604Y-96684998D01*
X131982236Y-96575342D01*
X131973617Y-96558427D01*
X131931830Y-96476414D01*
X131931827Y-96476411D01*
X131931825Y-96476408D01*
X131853327Y-96397910D01*
X131853324Y-96397908D01*
X131853322Y-96397906D01*
X131754396Y-96347501D01*
X131754394Y-96347500D01*
X131754391Y-96347499D01*
X131749831Y-96346017D01*
X131700474Y-96315769D01*
X130344246Y-94959541D01*
X130344245Y-94959540D01*
X130344205Y-94959517D01*
X130275723Y-94919979D01*
X130199296Y-94899500D01*
X123173876Y-94899500D01*
X123094752Y-94899500D01*
X123018324Y-94919978D01*
X122949803Y-94959540D01*
X122949800Y-94959542D01*
X121746162Y-96163181D01*
X121684839Y-96196666D01*
X121658481Y-96199500D01*
X121643121Y-96199500D01*
X121576082Y-96179815D01*
X121530327Y-96127011D01*
X121520383Y-96057853D01*
X121532635Y-96019207D01*
X121537500Y-96009661D01*
X121539031Y-96000000D01*
X121554869Y-95900002D01*
X121554869Y-95899997D01*
X121537501Y-95790341D01*
X121507718Y-95731888D01*
X121487095Y-95691413D01*
X121487092Y-95691410D01*
X121487090Y-95691407D01*
X121408592Y-95612909D01*
X121408588Y-95612906D01*
X121408587Y-95612905D01*
X121400112Y-95608587D01*
X121309658Y-95562498D01*
X121200002Y-95545131D01*
X121199996Y-95545131D01*
X121119581Y-95557867D01*
X121050288Y-95548912D01*
X120996836Y-95503915D01*
X120977711Y-95454792D01*
X120967503Y-95390341D01*
X120967502Y-95390339D01*
X120917097Y-95291413D01*
X120917094Y-95291410D01*
X120917092Y-95291407D01*
X120838589Y-95212904D01*
X120836842Y-95211635D01*
X120835231Y-95209546D01*
X120831689Y-95206004D01*
X120832146Y-95205546D01*
X120794176Y-95156306D01*
X120788197Y-95086692D01*
X120820802Y-95024897D01*
X120822048Y-95023634D01*
X120837091Y-95008591D01*
X120837095Y-95008587D01*
X120887500Y-94909661D01*
X120887500Y-94909659D01*
X120887501Y-94909658D01*
X120895463Y-94859389D01*
X121249342Y-94859389D01*
X121249342Y-94859394D01*
X121266709Y-94969050D01*
X121317115Y-95067977D01*
X121317120Y-95067984D01*
X121395618Y-95146482D01*
X121395621Y-95146484D01*
X121395624Y-95146487D01*
X121483785Y-95191407D01*
X121494552Y-95196893D01*
X121604209Y-95214261D01*
X121604211Y-95214261D01*
X121604213Y-95214261D01*
X121713869Y-95196893D01*
X121713870Y-95196892D01*
X121713872Y-95196892D01*
X121812798Y-95146487D01*
X121891306Y-95067979D01*
X121941711Y-94969053D01*
X121941711Y-94969051D01*
X121941712Y-94969050D01*
X121959080Y-94859394D01*
X121959080Y-94859389D01*
X121941712Y-94749733D01*
X121911449Y-94690339D01*
X121891306Y-94650805D01*
X121891303Y-94650802D01*
X121891301Y-94650799D01*
X121826247Y-94585745D01*
X121792762Y-94524422D01*
X121797746Y-94454730D01*
X121839618Y-94398797D01*
X121857633Y-94387581D01*
X121858587Y-94387095D01*
X121937095Y-94308587D01*
X121987500Y-94209661D01*
X121987500Y-94209659D01*
X121987501Y-94209658D01*
X122004869Y-94100002D01*
X122004869Y-94099997D01*
X121987501Y-93990341D01*
X121968395Y-93952843D01*
X121937095Y-93891413D01*
X121937092Y-93891410D01*
X121937090Y-93891407D01*
X121858592Y-93812909D01*
X121858588Y-93812906D01*
X121858587Y-93812905D01*
X121833263Y-93800002D01*
X121759658Y-93762498D01*
X121650002Y-93745131D01*
X121649998Y-93745131D01*
X121540341Y-93762498D01*
X121441414Y-93812904D01*
X121441407Y-93812909D01*
X121362909Y-93891407D01*
X121362904Y-93891414D01*
X121312498Y-93990341D01*
X121295131Y-94099997D01*
X121295131Y-94100002D01*
X121312498Y-94209658D01*
X121362904Y-94308585D01*
X121362909Y-94308592D01*
X121427963Y-94373646D01*
X121461448Y-94434969D01*
X121456464Y-94504661D01*
X121414592Y-94560594D01*
X121396578Y-94571811D01*
X121395625Y-94572296D01*
X121395618Y-94572301D01*
X121317120Y-94650799D01*
X121317115Y-94650806D01*
X121266709Y-94749733D01*
X121249342Y-94859389D01*
X120895463Y-94859389D01*
X120904869Y-94800002D01*
X120904869Y-94799997D01*
X120887501Y-94690341D01*
X120867357Y-94650806D01*
X120837095Y-94591413D01*
X120837092Y-94591410D01*
X120837090Y-94591407D01*
X120758592Y-94512909D01*
X120758588Y-94512906D01*
X120758587Y-94512905D01*
X120753836Y-94510484D01*
X120703040Y-94462511D01*
X120686245Y-94394690D01*
X120708782Y-94328555D01*
X120753837Y-94289515D01*
X120758587Y-94287095D01*
X120837095Y-94208587D01*
X120887500Y-94109661D01*
X120887500Y-94109659D01*
X120887501Y-94109658D01*
X120904869Y-94000002D01*
X120904869Y-93999997D01*
X120887501Y-93890341D01*
X120871324Y-93858592D01*
X120837095Y-93791413D01*
X120837092Y-93791410D01*
X120837090Y-93791407D01*
X120758592Y-93712909D01*
X120758588Y-93712906D01*
X120758587Y-93712905D01*
X120733263Y-93700002D01*
X120659658Y-93662498D01*
X120550002Y-93645131D01*
X120549998Y-93645131D01*
X120440341Y-93662498D01*
X120341414Y-93712904D01*
X120341407Y-93712909D01*
X120262909Y-93791407D01*
X120262904Y-93791414D01*
X120212498Y-93890341D01*
X120195131Y-93999997D01*
X120195131Y-94000002D01*
X120212498Y-94109658D01*
X120262904Y-94208585D01*
X120262909Y-94208592D01*
X120341407Y-94287090D01*
X120341411Y-94287093D01*
X120341413Y-94287095D01*
X120341415Y-94287096D01*
X120346166Y-94289517D01*
X120396960Y-94337492D01*
X120413754Y-94405314D01*
X120391215Y-94471448D01*
X120346166Y-94510483D01*
X120341415Y-94512903D01*
X120341407Y-94512909D01*
X120262909Y-94591407D01*
X120262904Y-94591414D01*
X120212498Y-94690341D01*
X120195131Y-94799997D01*
X120195131Y-94800002D01*
X120212498Y-94909658D01*
X120262904Y-95008585D01*
X120262909Y-95008592D01*
X120341409Y-95087092D01*
X120343157Y-95088362D01*
X120344767Y-95090450D01*
X120348313Y-95093996D01*
X120347854Y-95094454D01*
X120385824Y-95143691D01*
X120391805Y-95213305D01*
X120359200Y-95275100D01*
X120357957Y-95276361D01*
X120342912Y-95291406D01*
X120342906Y-95291414D01*
X120292500Y-95390341D01*
X120275133Y-95499997D01*
X120275133Y-95500002D01*
X120292500Y-95609658D01*
X120342906Y-95708585D01*
X120342911Y-95708592D01*
X120421409Y-95787090D01*
X120421412Y-95787092D01*
X120421415Y-95787095D01*
X120520341Y-95837500D01*
X120520343Y-95837501D01*
X120630000Y-95854869D01*
X120630002Y-95854869D01*
X120630003Y-95854869D01*
X120710418Y-95842132D01*
X120779712Y-95851086D01*
X120833164Y-95896082D01*
X120852290Y-95945206D01*
X120862498Y-96009657D01*
X120862499Y-96009660D01*
X120862500Y-96009661D01*
X120867363Y-96019205D01*
X120880260Y-96087873D01*
X120853984Y-96152614D01*
X120796879Y-96192871D01*
X120756879Y-96199500D01*
X120138455Y-96199500D01*
X120071416Y-96179815D01*
X120025661Y-96127011D01*
X120015717Y-96057853D01*
X120015982Y-96056103D01*
X120024867Y-96000003D01*
X120024867Y-95999997D01*
X120007499Y-95890341D01*
X119987498Y-95851086D01*
X119957093Y-95791413D01*
X119957090Y-95791410D01*
X119957088Y-95791407D01*
X119878590Y-95712909D01*
X119878586Y-95712906D01*
X119878585Y-95712905D01*
X119870110Y-95708587D01*
X119779656Y-95662498D01*
X119670000Y-95645131D01*
X119669996Y-95645131D01*
X119560340Y-95662498D01*
X119514243Y-95685986D01*
X119457950Y-95699500D01*
X116817270Y-95699500D01*
X116767247Y-95712904D01*
X116740842Y-95719979D01*
X116679595Y-95755340D01*
X116679594Y-95755339D01*
X116672319Y-95759540D01*
X116672314Y-95759544D01*
X116671977Y-95759882D01*
X116671622Y-95760075D01*
X116665869Y-95764490D01*
X116665180Y-95763592D01*
X116610651Y-95793362D01*
X116540960Y-95788372D01*
X116485030Y-95746496D01*
X116473822Y-95728495D01*
X116437095Y-95656413D01*
X116437090Y-95656407D01*
X116358592Y-95577909D01*
X116358588Y-95577906D01*
X116358587Y-95577905D01*
X116301685Y-95548912D01*
X116259658Y-95527498D01*
X116150002Y-95510131D01*
X116149998Y-95510131D01*
X116040342Y-95527498D01*
X116004821Y-95545597D01*
X115936151Y-95558492D01*
X115871411Y-95532214D01*
X115838043Y-95491406D01*
X115837500Y-95490340D01*
X115837500Y-95490339D01*
X115787095Y-95391413D01*
X115787093Y-95391411D01*
X115787090Y-95391407D01*
X115708592Y-95312909D01*
X115708588Y-95312906D01*
X115708587Y-95312905D01*
X115704743Y-95310946D01*
X115609658Y-95262498D01*
X115500002Y-95245131D01*
X115499998Y-95245131D01*
X115390341Y-95262498D01*
X115291414Y-95312904D01*
X115291407Y-95312909D01*
X115212909Y-95391407D01*
X115212904Y-95391414D01*
X115162498Y-95490341D01*
X115145131Y-95599997D01*
X115145131Y-95600002D01*
X115162498Y-95709658D01*
X115212904Y-95808585D01*
X115212909Y-95808592D01*
X115291407Y-95887090D01*
X115291410Y-95887092D01*
X115291413Y-95887095D01*
X115364238Y-95924201D01*
X115390341Y-95937501D01*
X115499998Y-95954869D01*
X115500000Y-95954869D01*
X115500002Y-95954869D01*
X115609657Y-95937501D01*
X115609658Y-95937500D01*
X115609661Y-95937500D01*
X115645177Y-95919403D01*
X115713845Y-95906507D01*
X115778585Y-95932783D01*
X115811956Y-95973593D01*
X115812499Y-95974660D01*
X115812500Y-95974661D01*
X115862905Y-96073587D01*
X115862907Y-96073589D01*
X115862909Y-96073592D01*
X115941407Y-96152090D01*
X115941413Y-96152095D01*
X116013489Y-96188819D01*
X116064284Y-96236792D01*
X116081080Y-96304612D01*
X116058543Y-96370748D01*
X116044875Y-96386984D01*
X115075533Y-97356326D01*
X115014210Y-97389811D01*
X114944518Y-97384827D01*
X114894465Y-97347357D01*
X114893996Y-97347827D01*
X114890729Y-97344560D01*
X114888585Y-97342955D01*
X114887535Y-97341531D01*
X114887096Y-97340927D01*
X114808592Y-97262423D01*
X114808588Y-97262420D01*
X114808587Y-97262419D01*
X114758344Y-97236819D01*
X114709658Y-97212012D01*
X114600002Y-97194645D01*
X114599997Y-97194645D01*
X114497963Y-97210805D01*
X114428670Y-97201850D01*
X114375218Y-97156854D01*
X114356093Y-97107729D01*
X114354868Y-97099997D01*
X114351039Y-97075820D01*
X114337501Y-96990342D01*
X114337500Y-96990340D01*
X114337500Y-96990339D01*
X114287095Y-96891413D01*
X114287092Y-96891410D01*
X114287090Y-96891407D01*
X114208592Y-96812909D01*
X114208588Y-96812906D01*
X114208587Y-96812905D01*
X114202367Y-96809736D01*
X114109658Y-96762498D01*
X114000002Y-96745131D01*
X113999998Y-96745131D01*
X113890341Y-96762498D01*
X113806294Y-96805323D01*
X113737625Y-96818219D01*
X113693706Y-96805323D01*
X113609658Y-96762498D01*
X113500002Y-96745131D01*
X113499998Y-96745131D01*
X113390341Y-96762498D01*
X113291414Y-96812904D01*
X113291407Y-96812909D01*
X113212909Y-96891407D01*
X113212904Y-96891414D01*
X113162498Y-96990341D01*
X113145131Y-97099997D01*
X100127500Y-97099997D01*
X100127500Y-96550427D01*
X104547500Y-96550427D01*
X104547500Y-96669573D01*
X104558548Y-96710804D01*
X104578337Y-96784660D01*
X104592815Y-96809736D01*
X104637910Y-96887842D01*
X104722158Y-96972090D01*
X104825341Y-97031663D01*
X104940427Y-97062500D01*
X104940429Y-97062500D01*
X105059571Y-97062500D01*
X105059573Y-97062500D01*
X105174659Y-97031663D01*
X105277842Y-96972090D01*
X105362090Y-96887842D01*
X105421663Y-96784659D01*
X105452500Y-96669573D01*
X105452500Y-96550427D01*
X105452385Y-96549997D01*
X108645131Y-96549997D01*
X108645131Y-96550002D01*
X108662498Y-96659658D01*
X108712904Y-96758585D01*
X108712909Y-96758592D01*
X108791407Y-96837090D01*
X108791410Y-96837092D01*
X108791413Y-96837095D01*
X108833590Y-96858585D01*
X108890341Y-96887501D01*
X108999998Y-96904869D01*
X109000000Y-96904869D01*
X109000002Y-96904869D01*
X109109658Y-96887501D01*
X109109659Y-96887500D01*
X109109661Y-96887500D01*
X109208587Y-96837095D01*
X109287095Y-96758587D01*
X109337500Y-96659661D01*
X109337500Y-96659659D01*
X109337501Y-96659658D01*
X109354869Y-96550002D01*
X109354869Y-96549997D01*
X110650335Y-96549997D01*
X110650335Y-96550002D01*
X110667702Y-96659658D01*
X110718108Y-96758585D01*
X110718113Y-96758592D01*
X110796611Y-96837090D01*
X110796614Y-96837092D01*
X110796617Y-96837095D01*
X110838794Y-96858585D01*
X110895545Y-96887501D01*
X111005202Y-96904869D01*
X111005204Y-96904869D01*
X111005206Y-96904869D01*
X111114862Y-96887501D01*
X111114863Y-96887500D01*
X111114865Y-96887500D01*
X111213791Y-96837095D01*
X111292299Y-96758587D01*
X111342704Y-96659661D01*
X111342704Y-96659659D01*
X111342705Y-96659658D01*
X111360073Y-96550002D01*
X111360073Y-96549997D01*
X111342705Y-96440341D01*
X111326528Y-96408591D01*
X111292299Y-96341413D01*
X111292296Y-96341410D01*
X111292294Y-96341407D01*
X111213796Y-96262909D01*
X111213792Y-96262906D01*
X111213791Y-96262905D01*
X111209947Y-96260946D01*
X111114862Y-96212498D01*
X111005206Y-96195131D01*
X111005202Y-96195131D01*
X110895545Y-96212498D01*
X110796618Y-96262904D01*
X110796611Y-96262909D01*
X110718113Y-96341407D01*
X110718108Y-96341414D01*
X110667702Y-96440341D01*
X110650335Y-96549997D01*
X109354869Y-96549997D01*
X109337501Y-96440341D01*
X109321324Y-96408591D01*
X109287095Y-96341413D01*
X109287092Y-96341410D01*
X109287090Y-96341407D01*
X109208592Y-96262909D01*
X109208588Y-96262906D01*
X109208587Y-96262905D01*
X109204743Y-96260946D01*
X109109658Y-96212498D01*
X109000002Y-96195131D01*
X108999998Y-96195131D01*
X108890341Y-96212498D01*
X108791414Y-96262904D01*
X108791407Y-96262909D01*
X108712909Y-96341407D01*
X108712904Y-96341414D01*
X108662498Y-96440341D01*
X108645131Y-96549997D01*
X105452385Y-96549997D01*
X105421663Y-96435341D01*
X105362090Y-96332158D01*
X105277842Y-96247910D01*
X105226250Y-96218123D01*
X105174660Y-96188337D01*
X105117116Y-96172918D01*
X105059573Y-96157500D01*
X104940427Y-96157500D01*
X104825339Y-96188337D01*
X104722158Y-96247910D01*
X104722155Y-96247912D01*
X104637912Y-96332155D01*
X104637910Y-96332158D01*
X104578337Y-96435339D01*
X104547615Y-96549997D01*
X104547500Y-96550427D01*
X100127500Y-96550427D01*
X100127500Y-95399997D01*
X111245131Y-95399997D01*
X111245131Y-95400002D01*
X111262498Y-95509658D01*
X111312904Y-95608585D01*
X111312909Y-95608592D01*
X111391407Y-95687090D01*
X111391410Y-95687092D01*
X111391413Y-95687095D01*
X111490339Y-95737500D01*
X111490341Y-95737501D01*
X111599998Y-95754869D01*
X111600000Y-95754869D01*
X111600002Y-95754869D01*
X111709658Y-95737501D01*
X111709659Y-95737500D01*
X111709661Y-95737500D01*
X111808587Y-95687095D01*
X111887095Y-95608587D01*
X111937500Y-95509661D01*
X111937500Y-95509659D01*
X111937501Y-95509658D01*
X111954869Y-95400002D01*
X111954869Y-95399997D01*
X111937501Y-95290341D01*
X111923314Y-95262498D01*
X111887095Y-95191413D01*
X111887092Y-95191410D01*
X111887090Y-95191407D01*
X111808592Y-95112909D01*
X111808588Y-95112906D01*
X111808587Y-95112905D01*
X111771476Y-95093996D01*
X111709658Y-95062498D01*
X111600002Y-95045131D01*
X111599998Y-95045131D01*
X111490341Y-95062498D01*
X111391414Y-95112904D01*
X111391407Y-95112909D01*
X111312909Y-95191407D01*
X111312904Y-95191414D01*
X111262498Y-95290341D01*
X111245131Y-95399997D01*
X100127500Y-95399997D01*
X100127500Y-94799997D01*
X103045131Y-94799997D01*
X103045131Y-94800002D01*
X103062498Y-94909658D01*
X103112904Y-95008585D01*
X103112909Y-95008592D01*
X103191407Y-95087090D01*
X103191410Y-95087092D01*
X103191413Y-95087095D01*
X103290339Y-95137500D01*
X103290341Y-95137501D01*
X103399998Y-95154869D01*
X103400000Y-95154869D01*
X103400002Y-95154869D01*
X103509658Y-95137501D01*
X103509659Y-95137500D01*
X103509661Y-95137500D01*
X103608587Y-95087095D01*
X103687095Y-95008587D01*
X103737500Y-94909661D01*
X103737500Y-94909659D01*
X103737501Y-94909658D01*
X103754869Y-94800002D01*
X103754869Y-94799997D01*
X103737501Y-94690341D01*
X103717357Y-94650806D01*
X103687095Y-94591413D01*
X103687092Y-94591410D01*
X103687090Y-94591407D01*
X103608592Y-94512909D01*
X103608588Y-94512906D01*
X103608587Y-94512905D01*
X103600112Y-94508587D01*
X103509658Y-94462498D01*
X103400002Y-94445131D01*
X103399998Y-94445131D01*
X103290341Y-94462498D01*
X103191414Y-94512904D01*
X103191407Y-94512909D01*
X103112909Y-94591407D01*
X103112904Y-94591414D01*
X103062498Y-94690341D01*
X103045131Y-94799997D01*
X100127500Y-94799997D01*
X100127500Y-94299997D01*
X108145135Y-94299997D01*
X108145135Y-94300002D01*
X108162502Y-94409658D01*
X108212908Y-94508585D01*
X108212913Y-94508592D01*
X108291411Y-94587090D01*
X108291414Y-94587092D01*
X108291417Y-94587095D01*
X108299894Y-94591414D01*
X108390345Y-94637501D01*
X108500002Y-94654869D01*
X108500004Y-94654869D01*
X108500006Y-94654869D01*
X108609662Y-94637501D01*
X108609663Y-94637500D01*
X108609665Y-94637500D01*
X108708591Y-94587095D01*
X108787099Y-94508587D01*
X108837504Y-94409661D01*
X108837504Y-94409659D01*
X108837505Y-94409658D01*
X108854873Y-94300002D01*
X108854873Y-94299997D01*
X113645131Y-94299997D01*
X113645131Y-94300002D01*
X113662498Y-94409658D01*
X113712904Y-94508585D01*
X113712909Y-94508592D01*
X113791407Y-94587090D01*
X113791410Y-94587092D01*
X113791413Y-94587095D01*
X113799890Y-94591414D01*
X113890341Y-94637501D01*
X113999998Y-94654869D01*
X114000000Y-94654869D01*
X114000002Y-94654869D01*
X114109687Y-94637496D01*
X114178980Y-94646450D01*
X114232432Y-94691446D01*
X114251558Y-94740571D01*
X114262500Y-94809660D01*
X114312906Y-94908587D01*
X114312911Y-94908594D01*
X114391409Y-94987092D01*
X114391412Y-94987094D01*
X114391415Y-94987097D01*
X114465602Y-95024897D01*
X114490343Y-95037503D01*
X114600000Y-95054871D01*
X114600002Y-95054871D01*
X114600004Y-95054871D01*
X114709660Y-95037503D01*
X114709661Y-95037502D01*
X114709663Y-95037502D01*
X114808589Y-94987097D01*
X114887097Y-94908589D01*
X114937502Y-94809663D01*
X114937502Y-94809661D01*
X114937503Y-94809660D01*
X114954871Y-94700004D01*
X114954871Y-94699999D01*
X114937503Y-94590343D01*
X114928308Y-94572296D01*
X114887097Y-94491415D01*
X114887094Y-94491412D01*
X114887092Y-94491409D01*
X114808594Y-94412911D01*
X114808590Y-94412908D01*
X114808589Y-94412907D01*
X114793687Y-94405314D01*
X114709660Y-94362500D01*
X114600004Y-94345133D01*
X114599999Y-94345133D01*
X114490313Y-94362505D01*
X114421020Y-94353550D01*
X114367568Y-94308554D01*
X114348443Y-94259433D01*
X114337500Y-94190339D01*
X114287095Y-94091413D01*
X114287092Y-94091410D01*
X114287090Y-94091407D01*
X114208592Y-94012909D01*
X114208588Y-94012906D01*
X114208587Y-94012905D01*
X114200112Y-94008587D01*
X114109658Y-93962498D01*
X114000002Y-93945131D01*
X113999998Y-93945131D01*
X113890341Y-93962498D01*
X113791414Y-94012904D01*
X113791407Y-94012909D01*
X113712909Y-94091407D01*
X113712904Y-94091414D01*
X113662498Y-94190341D01*
X113645131Y-94299997D01*
X108854873Y-94299997D01*
X108837505Y-94190341D01*
X108810581Y-94137500D01*
X108787099Y-94091413D01*
X108787096Y-94091410D01*
X108787094Y-94091407D01*
X108708596Y-94012909D01*
X108708592Y-94012906D01*
X108708591Y-94012905D01*
X108700116Y-94008587D01*
X108609662Y-93962498D01*
X108500006Y-93945131D01*
X108500002Y-93945131D01*
X108390345Y-93962498D01*
X108291418Y-94012904D01*
X108291411Y-94012909D01*
X108212913Y-94091407D01*
X108212908Y-94091414D01*
X108162502Y-94190341D01*
X108145135Y-94299997D01*
X100127500Y-94299997D01*
X100127500Y-94022545D01*
X100147185Y-93955506D01*
X100199989Y-93909751D01*
X100269147Y-93899807D01*
X100332703Y-93928832D01*
X100339181Y-93934864D01*
X100391407Y-93987090D01*
X100391410Y-93987092D01*
X100391413Y-93987095D01*
X100490339Y-94037500D01*
X100490341Y-94037501D01*
X100599998Y-94054869D01*
X100600000Y-94054869D01*
X100600002Y-94054869D01*
X100709658Y-94037501D01*
X100709659Y-94037500D01*
X100709661Y-94037500D01*
X100808587Y-93987095D01*
X100887095Y-93908587D01*
X100937500Y-93809661D01*
X100937500Y-93809659D01*
X100937501Y-93809658D01*
X100939031Y-93799997D01*
X103745131Y-93799997D01*
X103745131Y-93800002D01*
X103762498Y-93909658D01*
X103812904Y-94008585D01*
X103812909Y-94008592D01*
X103891407Y-94087090D01*
X103891410Y-94087092D01*
X103891413Y-94087095D01*
X103916741Y-94100000D01*
X103990341Y-94137501D01*
X104099998Y-94154869D01*
X104100000Y-94154869D01*
X104100002Y-94154869D01*
X104209658Y-94137501D01*
X104209659Y-94137500D01*
X104209661Y-94137500D01*
X104308587Y-94087095D01*
X104387095Y-94008587D01*
X104437500Y-93909661D01*
X104437500Y-93909659D01*
X104437501Y-93909658D01*
X104454869Y-93800002D01*
X104454869Y-93799997D01*
X104437501Y-93690341D01*
X104416945Y-93649997D01*
X106545131Y-93649997D01*
X106545131Y-93650002D01*
X106562498Y-93759658D01*
X106612904Y-93858585D01*
X106612909Y-93858592D01*
X106691407Y-93937090D01*
X106691410Y-93937092D01*
X106691413Y-93937095D01*
X106746965Y-93965400D01*
X106790341Y-93987501D01*
X106899998Y-94004869D01*
X106900000Y-94004869D01*
X106900002Y-94004869D01*
X107009658Y-93987501D01*
X107009659Y-93987500D01*
X107009661Y-93987500D01*
X107108587Y-93937095D01*
X107187095Y-93858587D01*
X107237500Y-93759661D01*
X107237500Y-93759659D01*
X107237501Y-93759658D01*
X107254869Y-93650002D01*
X107254869Y-93649997D01*
X107237501Y-93540341D01*
X107213704Y-93493637D01*
X107187095Y-93441413D01*
X107187092Y-93441410D01*
X107187090Y-93441407D01*
X107145680Y-93399997D01*
X108545131Y-93399997D01*
X108545131Y-93400002D01*
X108562498Y-93509658D01*
X108612904Y-93608585D01*
X108612909Y-93608592D01*
X108691407Y-93687090D01*
X108691410Y-93687092D01*
X108691413Y-93687095D01*
X108790339Y-93737500D01*
X108790341Y-93737501D01*
X108899998Y-93754869D01*
X108900000Y-93754869D01*
X108900002Y-93754869D01*
X109009658Y-93737501D01*
X109009659Y-93737500D01*
X109009661Y-93737500D01*
X109108587Y-93687095D01*
X109187095Y-93608587D01*
X109237500Y-93509661D01*
X109237500Y-93509659D01*
X109237501Y-93509658D01*
X109254869Y-93400002D01*
X109254869Y-93399997D01*
X109237501Y-93290341D01*
X109193592Y-93204165D01*
X109191468Y-93199997D01*
X117145131Y-93199997D01*
X117145131Y-93200002D01*
X117162498Y-93309658D01*
X117212904Y-93408585D01*
X117212909Y-93408592D01*
X117291407Y-93487090D01*
X117291410Y-93487092D01*
X117291413Y-93487095D01*
X117390339Y-93537500D01*
X117390341Y-93537501D01*
X117499998Y-93554869D01*
X117500000Y-93554869D01*
X117500002Y-93554869D01*
X117609658Y-93537501D01*
X117609659Y-93537500D01*
X117609661Y-93537500D01*
X117708587Y-93487095D01*
X117787095Y-93408587D01*
X117837500Y-93309661D01*
X117837500Y-93309659D01*
X117837501Y-93309658D01*
X117854869Y-93200002D01*
X117854869Y-93199997D01*
X117837501Y-93090341D01*
X117837500Y-93090339D01*
X117787095Y-92991413D01*
X117787092Y-92991410D01*
X117787090Y-92991407D01*
X117708592Y-92912909D01*
X117708588Y-92912906D01*
X117708587Y-92912905D01*
X117704743Y-92910946D01*
X117609658Y-92862498D01*
X117500002Y-92845131D01*
X117499998Y-92845131D01*
X117390341Y-92862498D01*
X117291414Y-92912904D01*
X117291407Y-92912909D01*
X117212909Y-92991407D01*
X117212904Y-92991414D01*
X117162498Y-93090341D01*
X117145131Y-93199997D01*
X109191468Y-93199997D01*
X109187095Y-93191413D01*
X109187092Y-93191410D01*
X109187090Y-93191407D01*
X109108592Y-93112909D01*
X109108588Y-93112906D01*
X109108587Y-93112905D01*
X109104743Y-93110946D01*
X109009658Y-93062498D01*
X108900002Y-93045131D01*
X108899998Y-93045131D01*
X108790341Y-93062498D01*
X108691414Y-93112904D01*
X108691407Y-93112909D01*
X108612909Y-93191407D01*
X108612904Y-93191414D01*
X108562498Y-93290341D01*
X108545131Y-93399997D01*
X107145680Y-93399997D01*
X107108592Y-93362909D01*
X107108588Y-93362906D01*
X107108587Y-93362905D01*
X107077678Y-93347156D01*
X107009658Y-93312498D01*
X106900002Y-93295131D01*
X106899998Y-93295131D01*
X106790341Y-93312498D01*
X106691414Y-93362904D01*
X106691407Y-93362909D01*
X106612909Y-93441407D01*
X106612904Y-93441414D01*
X106562498Y-93540341D01*
X106545131Y-93649997D01*
X104416945Y-93649997D01*
X104387095Y-93591413D01*
X104387092Y-93591410D01*
X104387090Y-93591407D01*
X104308592Y-93512909D01*
X104308588Y-93512906D01*
X104308587Y-93512905D01*
X104280553Y-93498621D01*
X104209658Y-93462498D01*
X104100002Y-93445131D01*
X104099998Y-93445131D01*
X103990341Y-93462498D01*
X103891414Y-93512904D01*
X103891407Y-93512909D01*
X103812909Y-93591407D01*
X103812904Y-93591414D01*
X103762498Y-93690341D01*
X103745131Y-93799997D01*
X100939031Y-93799997D01*
X100954869Y-93700002D01*
X100954869Y-93699997D01*
X100937501Y-93590341D01*
X100910577Y-93537500D01*
X100887095Y-93491413D01*
X100887092Y-93491410D01*
X100887090Y-93491407D01*
X100808592Y-93412909D01*
X100808588Y-93412906D01*
X100808587Y-93412905D01*
X100800112Y-93408587D01*
X100709658Y-93362498D01*
X100600002Y-93345131D01*
X100599998Y-93345131D01*
X100490341Y-93362498D01*
X100391414Y-93412904D01*
X100391407Y-93412909D01*
X100339181Y-93465136D01*
X100277858Y-93498621D01*
X100208166Y-93493637D01*
X100152233Y-93451765D01*
X100127816Y-93386301D01*
X100127500Y-93377455D01*
X100127500Y-92404875D01*
X100127882Y-92395147D01*
X100129839Y-92370277D01*
X100141169Y-92226303D01*
X100144211Y-92207097D01*
X100145916Y-92199997D01*
X114445131Y-92199997D01*
X114445131Y-92200002D01*
X114462498Y-92309658D01*
X114512904Y-92408585D01*
X114512909Y-92408592D01*
X114591407Y-92487090D01*
X114591410Y-92487092D01*
X114591413Y-92487095D01*
X114690339Y-92537500D01*
X114690341Y-92537501D01*
X114799998Y-92554869D01*
X114800000Y-92554869D01*
X114800002Y-92554869D01*
X114909658Y-92537501D01*
X114909659Y-92537500D01*
X114909661Y-92537500D01*
X115008587Y-92487095D01*
X115087095Y-92408587D01*
X115137500Y-92309661D01*
X115137500Y-92309659D01*
X115137501Y-92309658D01*
X115154869Y-92200002D01*
X115154869Y-92199997D01*
X115137501Y-92090341D01*
X115106697Y-92029885D01*
X115087095Y-91991413D01*
X115087092Y-91991410D01*
X115087090Y-91991407D01*
X115008592Y-91912909D01*
X115008588Y-91912906D01*
X115008587Y-91912905D01*
X115000112Y-91908587D01*
X114909658Y-91862498D01*
X114800002Y-91845131D01*
X114799998Y-91845131D01*
X114690341Y-91862498D01*
X114591414Y-91912904D01*
X114591407Y-91912909D01*
X114512909Y-91991407D01*
X114512904Y-91991414D01*
X114462498Y-92090341D01*
X114445131Y-92199997D01*
X100145916Y-92199997D01*
X100182610Y-92047156D01*
X100188616Y-92028671D01*
X100251562Y-91876707D01*
X100260387Y-91859386D01*
X100346340Y-91719124D01*
X100357755Y-91703413D01*
X100464584Y-91578331D01*
X100478331Y-91564584D01*
X100603413Y-91457755D01*
X100619124Y-91446340D01*
X100759386Y-91360387D01*
X100776707Y-91351562D01*
X100928671Y-91288616D01*
X100947156Y-91282610D01*
X101107097Y-91244211D01*
X101126303Y-91241169D01*
X101285896Y-91228610D01*
X101295147Y-91227882D01*
X101304875Y-91227500D01*
X101329101Y-91227500D01*
X116744738Y-91227500D01*
X116811777Y-91247185D01*
G37*
G04 #@! TD.AperFunction*
M02*
