G04 #@! TF.GenerationSoftware,KiCad,Pcbnew,8.0.6*
G04 #@! TF.CreationDate,2024-11-11T10:15:46+01:00*
G04 #@! TF.ProjectId,V1,56312e6b-6963-4616-945f-706362585858,r0.1*
G04 #@! TF.SameCoordinates,Original*
G04 #@! TF.FileFunction,Copper,L4,Bot*
G04 #@! TF.FilePolarity,Positive*
%FSLAX46Y46*%
G04 Gerber Fmt 4.6, Leading zero omitted, Abs format (unit mm)*
G04 Created by KiCad (PCBNEW 8.0.6) date 2024-11-11 10:15:46*
%MOMM*%
%LPD*%
G01*
G04 APERTURE LIST*
%ADD10C,0.125000*%
G04 #@! TA.AperFunction,NonConductor*
%ADD11C,0.125000*%
G04 #@! TD*
G04 #@! TA.AperFunction,ComponentPad*
%ADD12C,1.524000*%
G04 #@! TD*
G04 #@! TA.AperFunction,SMDPad,CuDef*
%ADD13R,1.270000X1.524000*%
G04 #@! TD*
G04 #@! TA.AperFunction,SMDPad,CuDef*
%ADD14R,1.524000X1.270000*%
G04 #@! TD*
G04 #@! TA.AperFunction,ComponentPad*
%ADD15O,1.900000X1.000000*%
G04 #@! TD*
G04 #@! TA.AperFunction,ComponentPad*
%ADD16O,1.600000X1.000000*%
G04 #@! TD*
G04 #@! TA.AperFunction,HeatsinkPad*
%ADD17C,0.500000*%
G04 #@! TD*
G04 #@! TA.AperFunction,HeatsinkPad*
%ADD18R,0.500000X1.600000*%
G04 #@! TD*
G04 #@! TA.AperFunction,ViaPad*
%ADD19C,0.400000*%
G04 #@! TD*
G04 #@! TA.AperFunction,ViaPad*
%ADD20C,0.300000*%
G04 #@! TD*
G04 #@! TA.AperFunction,Conductor*
%ADD21C,0.250000*%
G04 #@! TD*
G04 #@! TA.AperFunction,Conductor*
%ADD22C,0.127000*%
G04 #@! TD*
G04 APERTURE END LIST*
D10*
D11*
X120032049Y-108340404D02*
X119960621Y-108364214D01*
X119960621Y-108364214D02*
X119936811Y-108388023D01*
X119936811Y-108388023D02*
X119913002Y-108435642D01*
X119913002Y-108435642D02*
X119913002Y-108507071D01*
X119913002Y-108507071D02*
X119936811Y-108554690D01*
X119936811Y-108554690D02*
X119960621Y-108578500D01*
X119960621Y-108578500D02*
X120008240Y-108602309D01*
X120008240Y-108602309D02*
X120198716Y-108602309D01*
X120198716Y-108602309D02*
X120198716Y-108102309D01*
X120198716Y-108102309D02*
X120032049Y-108102309D01*
X120032049Y-108102309D02*
X119984430Y-108126119D01*
X119984430Y-108126119D02*
X119960621Y-108149928D01*
X119960621Y-108149928D02*
X119936811Y-108197547D01*
X119936811Y-108197547D02*
X119936811Y-108245166D01*
X119936811Y-108245166D02*
X119960621Y-108292785D01*
X119960621Y-108292785D02*
X119984430Y-108316595D01*
X119984430Y-108316595D02*
X120032049Y-108340404D01*
X120032049Y-108340404D02*
X120198716Y-108340404D01*
X119603478Y-108102309D02*
X119508240Y-108102309D01*
X119508240Y-108102309D02*
X119460621Y-108126119D01*
X119460621Y-108126119D02*
X119413002Y-108173738D01*
X119413002Y-108173738D02*
X119389192Y-108268976D01*
X119389192Y-108268976D02*
X119389192Y-108435642D01*
X119389192Y-108435642D02*
X119413002Y-108530880D01*
X119413002Y-108530880D02*
X119460621Y-108578500D01*
X119460621Y-108578500D02*
X119508240Y-108602309D01*
X119508240Y-108602309D02*
X119603478Y-108602309D01*
X119603478Y-108602309D02*
X119651097Y-108578500D01*
X119651097Y-108578500D02*
X119698716Y-108530880D01*
X119698716Y-108530880D02*
X119722525Y-108435642D01*
X119722525Y-108435642D02*
X119722525Y-108268976D01*
X119722525Y-108268976D02*
X119698716Y-108173738D01*
X119698716Y-108173738D02*
X119651097Y-108126119D01*
X119651097Y-108126119D02*
X119603478Y-108102309D01*
X119246334Y-108102309D02*
X118960620Y-108102309D01*
X119103477Y-108602309D02*
X119103477Y-108102309D01*
X118865382Y-108102309D02*
X118579668Y-108102309D01*
X118722525Y-108602309D02*
X118722525Y-108102309D01*
X118317764Y-108102309D02*
X118222526Y-108102309D01*
X118222526Y-108102309D02*
X118174907Y-108126119D01*
X118174907Y-108126119D02*
X118127288Y-108173738D01*
X118127288Y-108173738D02*
X118103478Y-108268976D01*
X118103478Y-108268976D02*
X118103478Y-108435642D01*
X118103478Y-108435642D02*
X118127288Y-108530880D01*
X118127288Y-108530880D02*
X118174907Y-108578500D01*
X118174907Y-108578500D02*
X118222526Y-108602309D01*
X118222526Y-108602309D02*
X118317764Y-108602309D01*
X118317764Y-108602309D02*
X118365383Y-108578500D01*
X118365383Y-108578500D02*
X118413002Y-108530880D01*
X118413002Y-108530880D02*
X118436811Y-108435642D01*
X118436811Y-108435642D02*
X118436811Y-108268976D01*
X118436811Y-108268976D02*
X118413002Y-108173738D01*
X118413002Y-108173738D02*
X118365383Y-108126119D01*
X118365383Y-108126119D02*
X118317764Y-108102309D01*
X117889192Y-108602309D02*
X117889192Y-108102309D01*
X117889192Y-108102309D02*
X117722525Y-108459452D01*
X117722525Y-108459452D02*
X117555859Y-108102309D01*
X117555859Y-108102309D02*
X117555859Y-108602309D01*
D12*
G04 #@! TO.P,P25,1,Pin_1*
G04 #@! TO.N,GND*
X134290000Y-100000000D03*
D13*
X134925000Y-100000000D03*
D12*
X135560000Y-100000000D03*
G04 #@! TD*
G04 #@! TO.P,P28,1,Pin_1*
G04 #@! TO.N,+3V3*
X134290000Y-102540000D03*
D13*
X134925000Y-102540000D03*
D12*
X135560000Y-102540000D03*
G04 #@! TD*
G04 #@! TO.P,P7,1,Pin_1*
G04 #@! TO.N,/GPIO23*
X129300000Y-107721500D03*
D14*
X129300000Y-108356500D03*
D12*
X129300000Y-108991500D03*
G04 #@! TD*
G04 #@! TO.P,P18,1,Pin_1*
G04 #@! TO.N,/GPIO35*
X129200000Y-92380000D03*
D14*
X129200000Y-91745000D03*
D12*
X129200000Y-91110000D03*
G04 #@! TD*
G04 #@! TO.P,P17,1,Pin_1*
G04 #@! TO.N,Net-(P17-Pin_1)*
X124130000Y-92380000D03*
D14*
X124130000Y-91745000D03*
D12*
X124130000Y-91110000D03*
G04 #@! TD*
G04 #@! TO.P,P15,1,Pin_1*
G04 #@! TO.N,/GPIO25*
X121600000Y-92400000D03*
D14*
X121600000Y-91765000D03*
D12*
X121600000Y-91130000D03*
G04 #@! TD*
G04 #@! TO.P,P12,1,Pin_1*
G04 #@! TO.N,/GPIO21*
X126800000Y-107700000D03*
D14*
X126800000Y-108335000D03*
D12*
X126800000Y-108970000D03*
G04 #@! TD*
G04 #@! TO.P,P14,1,Pin_1*
G04 #@! TO.N,/GPIO39*
X134300000Y-92400000D03*
D14*
X134300000Y-91765000D03*
D12*
X134300000Y-91130000D03*
G04 #@! TD*
G04 #@! TO.P,P13,1,Pin_1*
G04 #@! TO.N,/GPIO34*
X131700000Y-92400000D03*
D14*
X131700000Y-91765000D03*
D12*
X131700000Y-91130000D03*
G04 #@! TD*
G04 #@! TO.P,P9,1,Pin_1*
G04 #@! TO.N,/GPIO5*
X134300000Y-107721500D03*
D14*
X134300000Y-108356500D03*
D12*
X134300000Y-108991500D03*
G04 #@! TD*
G04 #@! TO.P,P8,1,Pin_1*
G04 #@! TO.N,/GPIO18-DAC_2*
X131800000Y-107721500D03*
D14*
X131800000Y-108356500D03*
D12*
X131800000Y-108991500D03*
G04 #@! TD*
G04 #@! TO.P,P31,1,Pin_1*
G04 #@! TO.N,/~{CRESET}*
X134290000Y-97460000D03*
D13*
X134925000Y-97460000D03*
D12*
X135560000Y-97460000D03*
G04 #@! TD*
G04 #@! TO.P,P30,1,Pin_1*
G04 #@! TO.N,/GPIO38*
X134290000Y-94920000D03*
D13*
X134925000Y-94920000D03*
D12*
X135560000Y-94920000D03*
G04 #@! TD*
G04 #@! TO.P,P11,1,Pin_1*
G04 #@! TO.N,/GPIO22*
X124300000Y-107700000D03*
D14*
X124300000Y-108335000D03*
D12*
X124300000Y-108970000D03*
G04 #@! TD*
G04 #@! TO.P,P10,1,Pin_1*
G04 #@! TO.N,/GPIO19*
X121800000Y-107700000D03*
D14*
X121800000Y-108335000D03*
D12*
X121800000Y-108970000D03*
G04 #@! TD*
G04 #@! TO.P,P16,1,Pin_1*
G04 #@! TO.N,Net-(P16-Pin_1)*
X126670000Y-92380000D03*
D14*
X126670000Y-91745000D03*
D12*
X126670000Y-91110000D03*
G04 #@! TD*
D15*
G04 #@! TO.P,J1,S1,SHIELD*
G04 #@! TO.N,unconnected-(J1-SHIELD-PadS1)_0*
X105530000Y-95180000D03*
D16*
G04 #@! TO.N,unconnected-(J1-SHIELD-PadS1)*
X101350000Y-95180000D03*
D15*
G04 #@! TO.N,unconnected-(J1-SHIELD-PadS1)_1*
X105530000Y-103820000D03*
D16*
G04 #@! TO.N,unconnected-(J1-SHIELD-PadS1)_2*
X101350000Y-103820000D03*
G04 #@! TD*
D17*
G04 #@! TO.P,U5,7,GND*
G04 #@! TO.N,GND*
X103300000Y-106950000D03*
D18*
X103300000Y-106400000D03*
D17*
X103300000Y-105850000D03*
G04 #@! TD*
D19*
G04 #@! TO.N,+3V3*
X107250000Y-106650000D03*
X114453524Y-103589921D03*
X126300000Y-98600000D03*
X100600000Y-93700000D03*
X108250000Y-106650000D03*
X115600000Y-103080000D03*
X118746500Y-103265399D03*
X107800000Y-104150000D03*
X122300000Y-100600000D03*
X121694001Y-93936500D03*
X113729109Y-103131192D03*
X115317744Y-95837744D03*
X112730000Y-105600000D03*
X119940000Y-103130000D03*
X127700000Y-106100000D03*
X111535729Y-105133314D03*
X126900000Y-106100000D03*
X129100000Y-100600000D03*
X120562886Y-94830067D03*
X120551288Y-93936500D03*
X121604211Y-94859392D03*
X113770000Y-97240000D03*
X122250000Y-101650000D03*
G04 #@! TO.N,GND*
X117700000Y-107400000D03*
X110000000Y-101100000D03*
X116600000Y-98600000D03*
X116450000Y-108050000D03*
X112050000Y-101190223D03*
X111000000Y-101100000D03*
X114900000Y-104600000D03*
X109900000Y-100000000D03*
X119600000Y-92800000D03*
X117050000Y-98150000D03*
X117050000Y-98600000D03*
X109000000Y-102900000D03*
X116600000Y-98150000D03*
X125400000Y-101800000D03*
X109700000Y-106800000D03*
X125400000Y-100800000D03*
X122900000Y-98100000D03*
X122900000Y-93400000D03*
X114196961Y-95733500D03*
G04 #@! TO.N,/USB_N*
X105200000Y-99700000D03*
X105200000Y-98799986D03*
G04 #@! TO.N,VBUS*
X110800000Y-104400000D03*
X107200000Y-102000000D03*
G04 #@! TO.N,/SPI_~{HLD}-IO3*
X129109777Y-103250000D03*
X127000000Y-97600000D03*
X114716455Y-98685731D03*
G04 #@! TO.N,/SPI_~{WP}-IO2*
X131644735Y-96685001D03*
X114300000Y-98200000D03*
X131034998Y-102444699D03*
G04 #@! TO.N,/RAM_~{CS}*
X133153484Y-104501766D03*
X119400000Y-95450000D03*
G04 #@! TO.N,/~{CRESET}*
X114800000Y-92200000D03*
X122360000Y-98230000D03*
X133799996Y-103800000D03*
X133500004Y-96200004D03*
X114425000Y-106900000D03*
G04 #@! TO.N,/U0RXD*
X117060000Y-103530000D03*
X110500000Y-97549984D03*
G04 #@! TO.N,/U0TXD*
X117746500Y-102937903D03*
X111025001Y-97885377D03*
G04 #@! TO.N,/SPI_COPI-IO0*
X128411748Y-96650000D03*
X128853554Y-101346446D03*
X114298002Y-100099883D03*
G04 #@! TO.N,/SPI_CIPO-IO1*
X130800000Y-97400000D03*
X130534998Y-104134998D03*
X114220000Y-100650000D03*
G04 #@! TO.N,/GPIO11-~{LEDB}*
X115980000Y-95210000D03*
X103400000Y-94800000D03*
D20*
G04 #@! TO.N,/GPIO0-BOOT*
X109970000Y-91580000D03*
D19*
X112400000Y-106600000D03*
G04 #@! TO.N,/GPIO38*
X122230000Y-99360000D03*
G04 #@! TO.N,/GPIO35*
X122891801Y-96771801D03*
G04 #@! TO.N,/GPIO39*
X122158841Y-98741896D03*
G04 #@! TO.N,/GPIO34*
X122801018Y-97447362D03*
G04 #@! TO.N,/RTS*
X111005204Y-96470000D03*
X114600002Y-94336500D03*
G04 #@! TO.N,/DTR*
X109000000Y-96550000D03*
X111600000Y-95400000D03*
G04 #@! TO.N,Net-(U7-~{RST})*
X111600000Y-103600000D03*
X110070268Y-102977458D03*
G04 #@! TO.N,Net-(U7-~{SUSPEND})*
X112600000Y-103600000D03*
X111000160Y-102970004D03*
G04 #@! TO.N,/SPI_SCK*
X127190580Y-96650000D03*
X128899997Y-102500003D03*
X114290000Y-99480000D03*
X133210000Y-105500000D03*
G04 #@! TO.N,/SPI_~{CS}*
X132400000Y-99200000D03*
X133230000Y-106200000D03*
X114188964Y-98841476D03*
G04 #@! TO.N,/GPIO25*
X120300000Y-95400000D03*
G04 #@! TO.N,Net-(P17-Pin_1)*
X121200000Y-95900000D03*
G04 #@! TO.N,/GPIO21*
X117700000Y-103700000D03*
G04 #@! TO.N,/GPIO22*
X116420002Y-103680000D03*
G04 #@! TO.N,/GPIO19*
X115847849Y-103897162D03*
G04 #@! TO.N,/GPIO23*
X115883129Y-101550003D03*
G04 #@! TO.N,/GPIO18-DAC_2*
X114385155Y-101798301D03*
G04 #@! TO.N,/GPIO5*
X114340000Y-101210000D03*
G04 #@! TD*
D21*
G04 #@! TO.N,+3V3*
X113915488Y-97240000D02*
X115317744Y-95837744D01*
X113770000Y-97240000D02*
X113915488Y-97240000D01*
D22*
G04 #@! TO.N,/USB_N*
X105200000Y-99700000D02*
X105200000Y-98799986D01*
G04 #@! TO.N,/SPI_~{HLD}-IO3*
X128886396Y-103250000D02*
X129109777Y-103250000D01*
X127000000Y-97600000D02*
X127000000Y-101363604D01*
X127000000Y-101363604D02*
X128886396Y-103250000D01*
G04 #@! TO.N,/SPI_~{WP}-IO2*
X131644735Y-96685001D02*
X131600000Y-96729736D01*
X131600000Y-96729736D02*
X131600000Y-101879697D01*
X131600000Y-101879697D02*
X131034998Y-102444699D01*
G04 #@! TO.N,/~{CRESET}*
X102900000Y-93400000D02*
X102900000Y-103400000D01*
X104100000Y-92200000D02*
X102900000Y-93400000D01*
X123196500Y-99803500D02*
X122044256Y-99803500D01*
X122044256Y-99803500D02*
X120245378Y-98004622D01*
X114800000Y-92200000D02*
X104100000Y-92200000D01*
X133500004Y-96200004D02*
X126799996Y-96200004D01*
X133500004Y-96200004D02*
X133050000Y-96650008D01*
X109700000Y-105600000D02*
X110180000Y-106080000D01*
X133050000Y-103050004D02*
X133799996Y-103800000D01*
X120470756Y-98230000D02*
X120245378Y-98004622D01*
X133050000Y-96650008D02*
X133050000Y-103050004D01*
X120245378Y-97495378D02*
X114950000Y-92200000D01*
X126799996Y-96200004D02*
X123196500Y-99803500D01*
X122360000Y-98230000D02*
X120470756Y-98230000D01*
X113605000Y-106080000D02*
X114425000Y-106900000D01*
X102900000Y-103400000D02*
X105100000Y-105600000D01*
X105100000Y-105600000D02*
X109700000Y-105600000D01*
X120245378Y-98004622D02*
X120245378Y-97495378D01*
X110180000Y-106080000D02*
X113605000Y-106080000D01*
X114950000Y-92200000D02*
X114800000Y-92200000D01*
G04 #@! TO.N,/U0RXD*
X110500000Y-98165686D02*
X110500000Y-97549984D01*
X116350000Y-102600000D02*
X116800000Y-102600000D01*
X112500000Y-100165686D02*
X110500000Y-98165686D01*
X116800000Y-102600000D02*
X117060000Y-102860000D01*
X113700000Y-102600000D02*
X112500000Y-101400000D01*
X117060000Y-102860000D02*
X117060000Y-103530000D01*
X116600000Y-102600000D02*
X116350000Y-102600000D01*
X116350000Y-102600000D02*
X113700000Y-102600000D01*
X112500000Y-101400000D02*
X112500000Y-100165686D01*
G04 #@! TO.N,/U0TXD*
X111025001Y-97885377D02*
X111025001Y-98125001D01*
X113000000Y-101120253D02*
X114178048Y-102298301D01*
X111025001Y-98125001D02*
X113000000Y-100100000D01*
X117318301Y-102298301D02*
X117746500Y-102726500D01*
X114178048Y-102298301D02*
X117318301Y-102298301D01*
X117746500Y-102726500D02*
X117746500Y-102937903D01*
X113000000Y-100100000D02*
X113000000Y-101120253D01*
G04 #@! TO.N,/SPI_COPI-IO0*
X128411748Y-96650000D02*
X128411748Y-100904640D01*
X123765686Y-104000000D02*
X119865569Y-100099883D01*
X128853554Y-101346446D02*
X128900000Y-101300000D01*
X128411748Y-100904640D02*
X128853554Y-101346446D01*
X119865569Y-100099883D02*
X114298002Y-100099883D01*
X129900000Y-103500000D02*
X129400000Y-104000000D01*
X129400000Y-104000000D02*
X123765686Y-104000000D01*
X128900000Y-101300000D02*
X129600000Y-101300000D01*
X129600000Y-101300000D02*
X129900000Y-101600000D01*
X129900000Y-101600000D02*
X129900000Y-103500000D01*
G04 #@! TO.N,/SPI_CIPO-IO1*
X130269996Y-104400000D02*
X130534998Y-104134998D01*
X114306617Y-100563383D02*
X119763383Y-100563383D01*
X119763383Y-100563383D02*
X123600000Y-104400000D01*
X130800000Y-97400000D02*
X130534998Y-97665002D01*
X130534998Y-97665002D02*
X130534998Y-104134998D01*
X114220000Y-100650000D02*
X114306617Y-100563383D01*
X123600000Y-104400000D02*
X130269996Y-104400000D01*
G04 #@! TO.N,/GPIO11-~{LEDB}*
X104430000Y-93770000D02*
X103400000Y-94800000D01*
X115980000Y-94520000D02*
X115230000Y-93770000D01*
X115980000Y-95210000D02*
X115980000Y-94520000D01*
X115230000Y-93770000D02*
X104430000Y-93770000D01*
G04 #@! TO.N,/GPIO0-BOOT*
X109950000Y-91560000D02*
X109970000Y-91580000D01*
X103480000Y-91560000D02*
X109950000Y-91560000D01*
X112400000Y-106600000D02*
X111586500Y-107413500D01*
X111586500Y-107413500D02*
X102836500Y-107413500D01*
X102363500Y-106940500D02*
X102363500Y-92676500D01*
X102836500Y-107413500D02*
X102363500Y-106940500D01*
X102363500Y-92676500D02*
X103480000Y-91560000D01*
G04 #@! TO.N,/GPIO38*
X122874315Y-99360000D02*
X122230000Y-99360000D01*
X133528001Y-95681999D02*
X126552316Y-95681999D01*
X126552316Y-95681999D02*
X122874315Y-99360000D01*
X134290000Y-94920000D02*
X133528001Y-95681999D01*
G04 #@! TO.N,/GPIO35*
X122891801Y-96771801D02*
X125763602Y-93900000D01*
X125763602Y-93900000D02*
X127680000Y-93900000D01*
X127680000Y-93900000D02*
X129200000Y-92380000D01*
G04 #@! TO.N,/GPIO39*
X126968629Y-94700000D02*
X132000000Y-94700000D01*
X132000000Y-94700000D02*
X134300000Y-92400000D01*
X122158841Y-98741896D02*
X122926733Y-98741896D01*
X122926733Y-98741896D02*
X126968629Y-94700000D01*
G04 #@! TO.N,/GPIO34*
X123252638Y-97447362D02*
X122801018Y-97447362D01*
X129800000Y-94300000D02*
X126400000Y-94300000D01*
X126400000Y-94300000D02*
X123252638Y-97447362D01*
X131700000Y-92400000D02*
X129800000Y-94300000D01*
G04 #@! TO.N,/RTS*
X111005204Y-96470000D02*
X111340000Y-96470000D01*
X113473500Y-94336500D02*
X114600002Y-94336500D01*
X111340000Y-96470000D02*
X113473500Y-94336500D01*
G04 #@! TO.N,/DTR*
X110150000Y-95400000D02*
X109000000Y-96550000D01*
X111600000Y-95400000D02*
X110150000Y-95400000D01*
G04 #@! TO.N,Net-(U7-~{RST})*
X110692810Y-103600000D02*
X110070268Y-102977458D01*
X111600000Y-103600000D02*
X110692810Y-103600000D01*
G04 #@! TO.N,Net-(U7-~{SUSPEND})*
X111970004Y-102970004D02*
X111000160Y-102970004D01*
X112600000Y-103600000D02*
X111970004Y-102970004D01*
G04 #@! TO.N,/SPI_SCK*
X127800000Y-97259420D02*
X127800000Y-101400006D01*
X127190580Y-96650000D02*
X127800000Y-97259420D01*
X127800000Y-101400006D02*
X128899997Y-102500003D01*
G04 #@! TO.N,/SPI_~{CS}*
X132150000Y-99450000D02*
X132400000Y-99200000D01*
X132150000Y-105120000D02*
X132150000Y-99450000D01*
X133230000Y-106200000D02*
X132150000Y-105120000D01*
G04 #@! TO.N,/GPIO25*
X121100000Y-92900000D02*
X121100000Y-95100000D01*
X121600000Y-92400000D02*
X121100000Y-92900000D01*
X120800000Y-95400000D02*
X120300000Y-95400000D01*
X121100000Y-95100000D02*
X120800000Y-95400000D01*
G04 #@! TO.N,Net-(P17-Pin_1)*
X122000000Y-95900000D02*
X124130000Y-93770000D01*
X121200000Y-95900000D02*
X122000000Y-95900000D01*
X124130000Y-93770000D02*
X124130000Y-92380000D01*
G04 #@! TO.N,/GPIO21*
X125200000Y-106100000D02*
X120100000Y-106100000D01*
X120100000Y-106100000D02*
X117700000Y-103700000D01*
X126800000Y-107700000D02*
X125200000Y-106100000D01*
G04 #@! TO.N,/GPIO22*
X123238000Y-106638000D02*
X119378002Y-106638000D01*
X124300000Y-107700000D02*
X123238000Y-106638000D01*
X119378002Y-106638000D02*
X116420002Y-103680000D01*
G04 #@! TO.N,/GPIO19*
X121800000Y-107700000D02*
X119650687Y-107700000D01*
X119650687Y-107700000D02*
X115847849Y-103897162D01*
G04 #@! TO.N,/GPIO23*
X115883129Y-101550003D02*
X119065960Y-101550003D01*
X129300000Y-106643870D02*
X129300000Y-107721500D01*
X119065960Y-101550003D02*
X123115957Y-105600000D01*
X123115957Y-105600000D02*
X128256130Y-105600000D01*
X128256130Y-105600000D02*
X129300000Y-106643870D01*
G04 #@! TO.N,/GPIO18-DAC_2*
X119734314Y-101665686D02*
X123268628Y-105200000D01*
X115046953Y-101136503D02*
X114385155Y-101798301D01*
X129278500Y-105200000D02*
X131800000Y-107721500D01*
X119734314Y-101665686D02*
X119205131Y-101136503D01*
X123268628Y-105200000D02*
X129278500Y-105200000D01*
X119568628Y-101500000D02*
X119734314Y-101665686D01*
X119205131Y-101136503D02*
X115046953Y-101136503D01*
G04 #@! TO.N,/GPIO5*
X123434314Y-104800000D02*
X130990000Y-104800000D01*
X114697030Y-100852970D02*
X114340000Y-101210000D01*
X133911500Y-107721500D02*
X134300000Y-107721500D01*
X119734314Y-101100000D02*
X119817157Y-101182843D01*
X119487284Y-100852970D02*
X114697030Y-100852970D01*
X119817157Y-101182843D02*
X119487284Y-100852970D01*
X130990000Y-104800000D02*
X133911500Y-107721500D01*
X119817157Y-101182843D02*
X123434314Y-104800000D01*
G04 #@! TD*
G04 #@! TA.AperFunction,Conductor*
G04 #@! TO.N,GND*
G36*
X103277534Y-91247185D02*
G01*
X103323289Y-91299989D01*
X103333233Y-91369147D01*
X103304208Y-91432703D01*
X103298176Y-91439181D01*
X102246619Y-92490738D01*
X102246608Y-92490747D01*
X102246609Y-92490748D01*
X102242278Y-92495079D01*
X102182079Y-92555278D01*
X102174383Y-92573859D01*
X102162994Y-92601354D01*
X102149499Y-92633931D01*
X102149499Y-92733500D01*
X102149500Y-92733509D01*
X102149500Y-94499418D01*
X102129815Y-94566457D01*
X102077011Y-94612212D01*
X102007853Y-94622156D01*
X101964054Y-94605373D01*
X101963502Y-94606408D01*
X101958124Y-94603533D01*
X101839744Y-94554499D01*
X101839738Y-94554497D01*
X101714071Y-94529500D01*
X101714069Y-94529500D01*
X100985931Y-94529500D01*
X100985929Y-94529500D01*
X100860261Y-94554497D01*
X100860255Y-94554499D01*
X100741875Y-94603533D01*
X100741866Y-94603538D01*
X100635331Y-94674723D01*
X100635327Y-94674726D01*
X100544726Y-94765327D01*
X100544723Y-94765331D01*
X100473538Y-94871866D01*
X100473533Y-94871875D01*
X100424499Y-94990255D01*
X100424497Y-94990261D01*
X100399500Y-95115928D01*
X100399500Y-95115931D01*
X100399500Y-95244069D01*
X100399500Y-95244071D01*
X100399499Y-95244071D01*
X100424497Y-95369738D01*
X100424499Y-95369744D01*
X100473533Y-95488124D01*
X100473538Y-95488133D01*
X100544723Y-95594668D01*
X100544726Y-95594672D01*
X100635327Y-95685273D01*
X100635331Y-95685276D01*
X100741866Y-95756461D01*
X100741872Y-95756464D01*
X100741873Y-95756465D01*
X100860256Y-95805501D01*
X100860260Y-95805501D01*
X100860261Y-95805502D01*
X100985928Y-95830500D01*
X100985931Y-95830500D01*
X101714071Y-95830500D01*
X101798615Y-95813682D01*
X101839744Y-95805501D01*
X101958127Y-95756465D01*
X101958131Y-95756461D01*
X101963502Y-95753592D01*
X101964295Y-95755077D01*
X102023263Y-95736601D01*
X102090647Y-95755073D01*
X102137347Y-95807043D01*
X102149500Y-95860581D01*
X102149500Y-103139418D01*
X102129815Y-103206457D01*
X102077011Y-103252212D01*
X102007853Y-103262156D01*
X101964054Y-103245373D01*
X101963502Y-103246408D01*
X101958124Y-103243533D01*
X101839744Y-103194499D01*
X101839738Y-103194497D01*
X101714071Y-103169500D01*
X101714069Y-103169500D01*
X100985931Y-103169500D01*
X100985929Y-103169500D01*
X100860261Y-103194497D01*
X100860255Y-103194499D01*
X100741875Y-103243533D01*
X100741866Y-103243538D01*
X100635331Y-103314723D01*
X100635327Y-103314726D01*
X100544726Y-103405327D01*
X100544723Y-103405331D01*
X100473538Y-103511866D01*
X100473533Y-103511875D01*
X100424499Y-103630255D01*
X100424497Y-103630261D01*
X100399500Y-103755928D01*
X100399500Y-103755931D01*
X100399500Y-103884069D01*
X100399500Y-103884071D01*
X100399499Y-103884071D01*
X100424497Y-104009738D01*
X100424499Y-104009744D01*
X100473533Y-104128124D01*
X100473538Y-104128133D01*
X100544723Y-104234668D01*
X100544726Y-104234672D01*
X100635327Y-104325273D01*
X100635331Y-104325276D01*
X100741866Y-104396461D01*
X100741872Y-104396464D01*
X100741873Y-104396465D01*
X100860256Y-104445501D01*
X100860260Y-104445501D01*
X100860261Y-104445502D01*
X100985928Y-104470500D01*
X100985931Y-104470500D01*
X101714071Y-104470500D01*
X101798615Y-104453682D01*
X101839744Y-104445501D01*
X101958127Y-104396465D01*
X101958131Y-104396461D01*
X101963502Y-104393592D01*
X101964295Y-104395077D01*
X102023263Y-104376601D01*
X102090647Y-104395073D01*
X102137347Y-104447043D01*
X102149500Y-104500581D01*
X102149500Y-106887930D01*
X102149499Y-106887944D01*
X102149499Y-106897933D01*
X102149499Y-106983067D01*
X102158530Y-107004869D01*
X102164029Y-107018145D01*
X102182078Y-107061721D01*
X102252482Y-107132125D01*
X102252492Y-107132133D01*
X102648005Y-107527646D01*
X102648018Y-107527661D01*
X102655079Y-107534722D01*
X102715278Y-107594921D01*
X102758914Y-107612995D01*
X102758915Y-107612996D01*
X102773420Y-107619003D01*
X102793933Y-107627501D01*
X102793934Y-107627501D01*
X102893501Y-107627501D01*
X102893509Y-107627500D01*
X111529491Y-107627500D01*
X111529499Y-107627501D01*
X111543933Y-107627501D01*
X111629066Y-107627501D01*
X111629067Y-107627501D01*
X111664084Y-107612996D01*
X111707722Y-107594921D01*
X111767921Y-107534722D01*
X111767921Y-107534720D01*
X111779834Y-107522808D01*
X111779840Y-107522800D01*
X112223220Y-107079419D01*
X112259572Y-107054225D01*
X112530644Y-106930992D01*
X112544938Y-106920929D01*
X112560019Y-106911840D01*
X112608587Y-106887095D01*
X112687095Y-106808587D01*
X112737500Y-106709661D01*
X112737500Y-106709659D01*
X112737501Y-106709658D01*
X112754869Y-106600002D01*
X112754869Y-106599997D01*
X112737501Y-106490342D01*
X112737500Y-106490340D01*
X112737500Y-106490339D01*
X112729324Y-106474293D01*
X112716428Y-106405627D01*
X112742704Y-106340886D01*
X112799810Y-106300629D01*
X112839809Y-106294000D01*
X113464997Y-106294000D01*
X113532036Y-106313685D01*
X113552677Y-106330318D01*
X113749340Y-106526982D01*
X113945573Y-106723215D01*
X113970774Y-106759577D01*
X114094007Y-107030645D01*
X114104074Y-107044944D01*
X114113162Y-107060025D01*
X114137905Y-107108587D01*
X114216413Y-107187095D01*
X114315339Y-107237500D01*
X114315341Y-107237501D01*
X114424998Y-107254869D01*
X114425000Y-107254869D01*
X114425002Y-107254869D01*
X114534658Y-107237501D01*
X114534659Y-107237500D01*
X114534661Y-107237500D01*
X114633587Y-107187095D01*
X114712095Y-107108587D01*
X114762500Y-107009661D01*
X114762500Y-107009659D01*
X114762501Y-107009658D01*
X114779869Y-106900002D01*
X114779869Y-106899997D01*
X114762501Y-106790341D01*
X114746643Y-106759218D01*
X114712095Y-106691413D01*
X114712092Y-106691410D01*
X114712090Y-106691407D01*
X114633592Y-106612909D01*
X114633588Y-106612906D01*
X114633587Y-106612905D01*
X114610817Y-106601303D01*
X114584062Y-106587670D01*
X114568002Y-106577887D01*
X114555644Y-106569007D01*
X114555642Y-106569006D01*
X114555635Y-106569002D01*
X114284580Y-106445776D01*
X114248217Y-106420575D01*
X113796633Y-105968992D01*
X113796625Y-105968982D01*
X113726224Y-105898581D01*
X113726222Y-105898579D01*
X113726219Y-105898577D01*
X113726218Y-105898577D01*
X113672514Y-105876332D01*
X113672512Y-105876332D01*
X113647567Y-105865999D01*
X113562433Y-105865999D01*
X113547999Y-105865999D01*
X113547991Y-105866000D01*
X113187374Y-105866000D01*
X113120335Y-105846315D01*
X113074580Y-105793511D01*
X113064636Y-105724353D01*
X113066321Y-105717103D01*
X113084869Y-105600002D01*
X113084869Y-105599997D01*
X113067501Y-105490341D01*
X113057552Y-105470815D01*
X113017095Y-105391413D01*
X113017092Y-105391410D01*
X113017090Y-105391407D01*
X112938592Y-105312909D01*
X112938588Y-105312906D01*
X112938587Y-105312905D01*
X112916048Y-105301421D01*
X112839658Y-105262498D01*
X112730002Y-105245131D01*
X112729998Y-105245131D01*
X112620341Y-105262498D01*
X112521414Y-105312904D01*
X112521407Y-105312909D01*
X112442909Y-105391407D01*
X112442904Y-105391414D01*
X112392498Y-105490341D01*
X112375131Y-105599997D01*
X112375131Y-105600002D01*
X112394026Y-105719300D01*
X112391016Y-105719776D01*
X112392553Y-105773519D01*
X112356475Y-105833353D01*
X112293775Y-105864183D01*
X112272626Y-105866000D01*
X110320004Y-105866000D01*
X110252965Y-105846315D01*
X110232323Y-105829681D01*
X109891633Y-105488992D01*
X109891625Y-105488982D01*
X109821221Y-105418578D01*
X109775148Y-105399495D01*
X109775146Y-105399493D01*
X109775146Y-105399494D01*
X109742567Y-105385999D01*
X109657433Y-105385999D01*
X109642999Y-105385999D01*
X109642991Y-105386000D01*
X105240003Y-105386000D01*
X105172964Y-105366315D01*
X105152322Y-105349681D01*
X104935952Y-105133311D01*
X111180860Y-105133311D01*
X111180860Y-105133316D01*
X111198227Y-105242972D01*
X111248633Y-105341899D01*
X111248638Y-105341906D01*
X111327136Y-105420404D01*
X111327139Y-105420406D01*
X111327142Y-105420409D01*
X111385844Y-105450319D01*
X111426070Y-105470815D01*
X111535727Y-105488183D01*
X111535729Y-105488183D01*
X111535731Y-105488183D01*
X111645387Y-105470815D01*
X111645388Y-105470814D01*
X111645390Y-105470814D01*
X111744316Y-105420409D01*
X111822824Y-105341901D01*
X111873229Y-105242975D01*
X111873229Y-105242973D01*
X111873230Y-105242972D01*
X111890598Y-105133316D01*
X111890598Y-105133311D01*
X111873230Y-105023655D01*
X111850985Y-104979996D01*
X111822824Y-104924727D01*
X111822821Y-104924724D01*
X111822819Y-104924721D01*
X111744321Y-104846223D01*
X111744317Y-104846220D01*
X111744316Y-104846219D01*
X111730670Y-104839266D01*
X111645387Y-104795812D01*
X111535731Y-104778445D01*
X111535727Y-104778445D01*
X111426070Y-104795812D01*
X111327143Y-104846218D01*
X111327136Y-104846223D01*
X111248638Y-104924721D01*
X111248633Y-104924728D01*
X111198227Y-105023655D01*
X111180860Y-105133311D01*
X104935952Y-105133311D01*
X103686712Y-103884071D01*
X104429499Y-103884071D01*
X104454497Y-104009738D01*
X104454499Y-104009744D01*
X104503533Y-104128124D01*
X104503538Y-104128133D01*
X104574723Y-104234668D01*
X104574726Y-104234672D01*
X104665327Y-104325273D01*
X104665331Y-104325276D01*
X104771866Y-104396461D01*
X104771872Y-104396464D01*
X104771873Y-104396465D01*
X104890256Y-104445501D01*
X104890260Y-104445501D01*
X104890261Y-104445502D01*
X105015928Y-104470500D01*
X105015931Y-104470500D01*
X106044071Y-104470500D01*
X106128615Y-104453682D01*
X106169744Y-104445501D01*
X106288127Y-104396465D01*
X106394669Y-104325276D01*
X106485276Y-104234669D01*
X106541852Y-104149997D01*
X107445131Y-104149997D01*
X107445131Y-104150002D01*
X107462498Y-104259658D01*
X107512904Y-104358585D01*
X107512909Y-104358592D01*
X107591407Y-104437090D01*
X107591410Y-104437092D01*
X107591413Y-104437095D01*
X107690339Y-104487500D01*
X107690341Y-104487501D01*
X107799998Y-104504869D01*
X107800000Y-104504869D01*
X107800002Y-104504869D01*
X107909658Y-104487501D01*
X107909659Y-104487500D01*
X107909661Y-104487500D01*
X108008587Y-104437095D01*
X108045685Y-104399997D01*
X110445131Y-104399997D01*
X110445131Y-104400002D01*
X110462498Y-104509658D01*
X110512904Y-104608585D01*
X110512909Y-104608592D01*
X110591407Y-104687090D01*
X110591410Y-104687092D01*
X110591413Y-104687095D01*
X110690339Y-104737500D01*
X110690341Y-104737501D01*
X110799998Y-104754869D01*
X110800000Y-104754869D01*
X110800002Y-104754869D01*
X110909658Y-104737501D01*
X110909659Y-104737500D01*
X110909661Y-104737500D01*
X111008587Y-104687095D01*
X111087095Y-104608587D01*
X111137500Y-104509661D01*
X111137500Y-104509659D01*
X111137501Y-104509658D01*
X111154869Y-104400002D01*
X111154869Y-104399997D01*
X111137501Y-104290341D01*
X111101290Y-104219273D01*
X111087095Y-104191413D01*
X111087092Y-104191410D01*
X111087090Y-104191407D01*
X111008592Y-104112909D01*
X111008588Y-104112906D01*
X111008587Y-104112905D01*
X110994552Y-104105754D01*
X110909658Y-104062498D01*
X110896867Y-104060473D01*
X110833733Y-104030544D01*
X110798270Y-103973593D01*
X110777441Y-104019204D01*
X110718663Y-104056978D01*
X110703126Y-104060474D01*
X110690341Y-104062498D01*
X110591414Y-104112904D01*
X110591407Y-104112909D01*
X110512909Y-104191407D01*
X110512904Y-104191414D01*
X110462498Y-104290341D01*
X110445131Y-104399997D01*
X108045685Y-104399997D01*
X108087095Y-104358587D01*
X108137500Y-104259661D01*
X108137500Y-104259659D01*
X108137501Y-104259658D01*
X108154869Y-104150002D01*
X108154869Y-104149997D01*
X108137501Y-104040341D01*
X108126731Y-104019204D01*
X108087095Y-103941413D01*
X108087092Y-103941410D01*
X108087090Y-103941407D01*
X108008592Y-103862909D01*
X108008588Y-103862906D01*
X108008587Y-103862905D01*
X107965372Y-103840886D01*
X107909658Y-103812498D01*
X107800002Y-103795131D01*
X107799998Y-103795131D01*
X107690341Y-103812498D01*
X107591414Y-103862904D01*
X107591407Y-103862909D01*
X107512909Y-103941407D01*
X107512904Y-103941414D01*
X107462498Y-104040341D01*
X107445131Y-104149997D01*
X106541852Y-104149997D01*
X106556465Y-104128127D01*
X106605501Y-104009744D01*
X106619093Y-103941413D01*
X106630500Y-103884071D01*
X106630500Y-103755928D01*
X106605502Y-103630261D01*
X106605501Y-103630260D01*
X106605501Y-103630256D01*
X106566912Y-103537095D01*
X106556466Y-103511875D01*
X106556461Y-103511866D01*
X106485276Y-103405331D01*
X106485273Y-103405327D01*
X106394672Y-103314726D01*
X106394668Y-103314723D01*
X106288133Y-103243538D01*
X106288124Y-103243533D01*
X106169744Y-103194499D01*
X106169738Y-103194497D01*
X106044071Y-103169500D01*
X106044069Y-103169500D01*
X105015931Y-103169500D01*
X105015929Y-103169500D01*
X104890261Y-103194497D01*
X104890255Y-103194499D01*
X104771875Y-103243533D01*
X104771866Y-103243538D01*
X104665331Y-103314723D01*
X104665327Y-103314726D01*
X104574726Y-103405327D01*
X104574723Y-103405331D01*
X104503538Y-103511866D01*
X104503533Y-103511875D01*
X104454499Y-103630255D01*
X104454497Y-103630261D01*
X104429500Y-103755928D01*
X104429500Y-103755931D01*
X104429500Y-103884069D01*
X104429500Y-103884071D01*
X104429499Y-103884071D01*
X103686712Y-103884071D01*
X103150319Y-103347678D01*
X103116834Y-103286355D01*
X103114000Y-103259997D01*
X103114000Y-102977455D01*
X109715399Y-102977455D01*
X109715399Y-102977460D01*
X109732766Y-103087116D01*
X109783172Y-103186043D01*
X109783177Y-103186050D01*
X109861675Y-103264548D01*
X109861684Y-103264555D01*
X109911204Y-103289787D01*
X109927260Y-103299567D01*
X109939623Y-103308450D01*
X110210687Y-103431680D01*
X110247049Y-103456881D01*
X110504318Y-103714150D01*
X110504321Y-103714154D01*
X110511389Y-103721222D01*
X110571588Y-103781421D01*
X110604685Y-103795129D01*
X110604687Y-103795131D01*
X110604688Y-103795131D01*
X110650243Y-103814001D01*
X110650244Y-103814001D01*
X110683728Y-103814001D01*
X110750767Y-103833686D01*
X110796522Y-103886490D01*
X110798507Y-103900300D01*
X110836409Y-103843137D01*
X110900372Y-103815023D01*
X110916265Y-103814000D01*
X111135993Y-103814000D01*
X111179521Y-103821891D01*
X111298875Y-103866641D01*
X111298876Y-103866642D01*
X111458332Y-103926426D01*
X111458334Y-103926426D01*
X111463921Y-103927945D01*
X111463722Y-103928673D01*
X111485321Y-103935869D01*
X111490342Y-103937501D01*
X111599998Y-103954869D01*
X111600000Y-103954869D01*
X111600002Y-103954869D01*
X111709658Y-103937501D01*
X111709659Y-103937500D01*
X111709661Y-103937500D01*
X111808587Y-103887095D01*
X111887095Y-103808587D01*
X111937500Y-103709661D01*
X111939097Y-103699582D01*
X111951659Y-103620268D01*
X111954869Y-103600000D01*
X111954869Y-103599997D01*
X111956129Y-103592043D01*
X111986058Y-103528908D01*
X112045369Y-103491976D01*
X112115232Y-103492974D01*
X112173465Y-103531583D01*
X112191484Y-103560121D01*
X112269007Y-103730645D01*
X112279074Y-103744944D01*
X112288162Y-103760025D01*
X112299064Y-103781422D01*
X112308529Y-103800000D01*
X112312905Y-103808587D01*
X112391413Y-103887095D01*
X112433594Y-103908587D01*
X112490341Y-103937501D01*
X112599998Y-103954869D01*
X112600000Y-103954869D01*
X112600002Y-103954869D01*
X112709658Y-103937501D01*
X112709659Y-103937500D01*
X112709661Y-103937500D01*
X112808587Y-103887095D01*
X112887095Y-103808587D01*
X112937500Y-103709661D01*
X112937500Y-103709659D01*
X112937501Y-103709658D01*
X112954869Y-103600002D01*
X112954869Y-103599997D01*
X112937501Y-103490341D01*
X112933959Y-103483390D01*
X112887095Y-103391413D01*
X112887092Y-103391410D01*
X112887090Y-103391407D01*
X112808592Y-103312909D01*
X112808588Y-103312906D01*
X112808587Y-103312905D01*
X112782416Y-103299570D01*
X112759062Y-103287670D01*
X112743002Y-103277887D01*
X112733544Y-103271091D01*
X112730644Y-103269007D01*
X112730642Y-103269006D01*
X112730635Y-103269002D01*
X112459579Y-103145776D01*
X112423216Y-103120575D01*
X112161637Y-102858996D01*
X112161629Y-102858986D01*
X112091228Y-102788585D01*
X112091226Y-102788583D01*
X112043636Y-102768871D01*
X112043622Y-102768865D01*
X112012573Y-102756003D01*
X112012571Y-102756003D01*
X111927437Y-102756003D01*
X111913003Y-102756003D01*
X111912995Y-102756004D01*
X111464170Y-102756004D01*
X111420639Y-102748111D01*
X111348915Y-102721220D01*
X111141827Y-102643575D01*
X111136245Y-102642059D01*
X111136442Y-102641332D01*
X111114928Y-102634163D01*
X111109817Y-102632502D01*
X111000162Y-102615135D01*
X111000158Y-102615135D01*
X110890501Y-102632502D01*
X110791574Y-102682908D01*
X110791567Y-102682913D01*
X110713069Y-102761411D01*
X110713064Y-102761418D01*
X110662658Y-102860346D01*
X110662658Y-102860347D01*
X110661267Y-102869128D01*
X110631335Y-102932261D01*
X110572022Y-102969189D01*
X110502159Y-102968188D01*
X110443928Y-102929576D01*
X110425915Y-102901047D01*
X110401260Y-102846813D01*
X110391184Y-102832500D01*
X110382106Y-102817433D01*
X110365198Y-102784248D01*
X110357365Y-102768874D01*
X110357364Y-102768873D01*
X110357363Y-102768871D01*
X110278855Y-102690363D01*
X110275011Y-102688404D01*
X110179926Y-102639956D01*
X110070270Y-102622589D01*
X110070266Y-102622589D01*
X109960609Y-102639956D01*
X109861682Y-102690362D01*
X109861675Y-102690367D01*
X109783177Y-102768865D01*
X109783174Y-102768870D01*
X109783173Y-102768871D01*
X109769241Y-102796215D01*
X109732766Y-102867799D01*
X109715399Y-102977455D01*
X103114000Y-102977455D01*
X103114000Y-102320817D01*
X104474500Y-102320817D01*
X104474500Y-102459183D01*
X104508933Y-102587687D01*
X104510312Y-102592835D01*
X104510313Y-102592838D01*
X104579492Y-102712661D01*
X104579494Y-102712664D01*
X104579495Y-102712665D01*
X104677335Y-102810505D01*
X104677336Y-102810506D01*
X104677338Y-102810507D01*
X104708060Y-102828244D01*
X104797164Y-102879688D01*
X104930817Y-102915500D01*
X104930819Y-102915500D01*
X105069181Y-102915500D01*
X105069183Y-102915500D01*
X105202836Y-102879688D01*
X105322665Y-102810505D01*
X105420505Y-102712665D01*
X105489688Y-102592836D01*
X105525500Y-102459183D01*
X105525500Y-102320817D01*
X105489688Y-102187164D01*
X105426986Y-102078560D01*
X105420507Y-102067338D01*
X105420503Y-102067333D01*
X105353167Y-101999997D01*
X106845131Y-101999997D01*
X106845131Y-102000002D01*
X106862498Y-102109658D01*
X106912904Y-102208585D01*
X106912909Y-102208592D01*
X106991407Y-102287090D01*
X106991410Y-102287092D01*
X106991413Y-102287095D01*
X107090339Y-102337500D01*
X107090341Y-102337501D01*
X107199998Y-102354869D01*
X107200000Y-102354869D01*
X107200002Y-102354869D01*
X107309658Y-102337501D01*
X107309659Y-102337500D01*
X107309661Y-102337500D01*
X107408587Y-102287095D01*
X107487095Y-102208587D01*
X107537500Y-102109661D01*
X107537500Y-102109659D01*
X107537501Y-102109658D01*
X107554869Y-102000002D01*
X107554869Y-101999997D01*
X107537501Y-101890341D01*
X107531676Y-101878909D01*
X107487095Y-101791413D01*
X107487092Y-101791410D01*
X107487090Y-101791407D01*
X107408592Y-101712909D01*
X107408588Y-101712906D01*
X107408587Y-101712905D01*
X107385840Y-101701315D01*
X107309658Y-101662498D01*
X107200002Y-101645131D01*
X107199998Y-101645131D01*
X107090341Y-101662498D01*
X106991414Y-101712904D01*
X106991407Y-101712909D01*
X106912909Y-101791407D01*
X106912904Y-101791414D01*
X106862498Y-101890341D01*
X106845131Y-101999997D01*
X105353167Y-101999997D01*
X105322666Y-101969496D01*
X105322661Y-101969492D01*
X105202838Y-101900313D01*
X105202837Y-101900312D01*
X105202836Y-101900312D01*
X105069183Y-101864500D01*
X104930817Y-101864500D01*
X104797164Y-101900312D01*
X104797161Y-101900313D01*
X104677338Y-101969492D01*
X104677333Y-101969496D01*
X104579496Y-102067333D01*
X104579492Y-102067338D01*
X104510313Y-102187161D01*
X104510312Y-102187164D01*
X104474500Y-102320817D01*
X103114000Y-102320817D01*
X103114000Y-98799983D01*
X104845131Y-98799983D01*
X104845131Y-98799987D01*
X104862498Y-98909641D01*
X104865515Y-98918925D01*
X104865485Y-98918934D01*
X104871085Y-98936011D01*
X104872003Y-98935767D01*
X104873573Y-98941659D01*
X104972855Y-99206458D01*
X104977959Y-99276141D01*
X104972856Y-99293521D01*
X104873571Y-99558333D01*
X104872055Y-99563915D01*
X104871329Y-99563717D01*
X104864120Y-99585351D01*
X104862498Y-99590342D01*
X104845131Y-99699997D01*
X104845131Y-99700002D01*
X104862498Y-99809658D01*
X104912904Y-99908585D01*
X104912909Y-99908592D01*
X104991407Y-99987090D01*
X104991410Y-99987092D01*
X104991413Y-99987095D01*
X105089721Y-100037185D01*
X105090341Y-100037501D01*
X105199998Y-100054869D01*
X105200000Y-100054869D01*
X105200002Y-100054869D01*
X105309658Y-100037501D01*
X105309659Y-100037500D01*
X105309661Y-100037500D01*
X105408587Y-99987095D01*
X105487095Y-99908587D01*
X105537500Y-99809661D01*
X105537500Y-99809659D01*
X105537501Y-99809658D01*
X105554869Y-99700002D01*
X105554869Y-99699997D01*
X105537501Y-99590340D01*
X105534485Y-99581059D01*
X105534515Y-99581049D01*
X105528917Y-99563974D01*
X105527996Y-99564220D01*
X105526426Y-99558333D01*
X105526426Y-99558331D01*
X105427143Y-99293527D01*
X105422039Y-99223844D01*
X105427142Y-99206463D01*
X105427144Y-99206458D01*
X105526427Y-98941654D01*
X105526429Y-98941641D01*
X105527947Y-98936059D01*
X105528681Y-98936258D01*
X105535739Y-98915063D01*
X105537497Y-98909652D01*
X105537500Y-98909647D01*
X105554869Y-98799986D01*
X105554869Y-98799983D01*
X105537501Y-98690327D01*
X105519848Y-98655681D01*
X105487095Y-98591399D01*
X105487092Y-98591396D01*
X105487090Y-98591393D01*
X105408592Y-98512895D01*
X105408588Y-98512892D01*
X105408587Y-98512891D01*
X105364326Y-98490339D01*
X105309658Y-98462484D01*
X105200002Y-98445117D01*
X105199998Y-98445117D01*
X105090341Y-98462484D01*
X104991414Y-98512890D01*
X104991407Y-98512895D01*
X104912909Y-98591393D01*
X104912904Y-98591400D01*
X104862498Y-98690327D01*
X104845131Y-98799983D01*
X103114000Y-98799983D01*
X103114000Y-96540817D01*
X104474500Y-96540817D01*
X104474500Y-96679183D01*
X104509108Y-96808340D01*
X104510312Y-96812835D01*
X104510313Y-96812838D01*
X104579492Y-96932661D01*
X104579495Y-96932665D01*
X104677335Y-97030505D01*
X104677336Y-97030506D01*
X104677338Y-97030507D01*
X104702668Y-97045131D01*
X104797164Y-97099688D01*
X104930817Y-97135500D01*
X104930819Y-97135500D01*
X105069181Y-97135500D01*
X105069183Y-97135500D01*
X105202836Y-97099688D01*
X105322665Y-97030505D01*
X105420505Y-96932665D01*
X105489688Y-96812836D01*
X105525500Y-96679183D01*
X105525500Y-96540817D01*
X105489688Y-96407164D01*
X105433397Y-96309665D01*
X105420507Y-96287338D01*
X105420503Y-96287333D01*
X105322666Y-96189496D01*
X105322661Y-96189492D01*
X105202838Y-96120313D01*
X105202837Y-96120312D01*
X105202836Y-96120312D01*
X105069183Y-96084500D01*
X104930817Y-96084500D01*
X104797164Y-96120312D01*
X104797161Y-96120313D01*
X104677338Y-96189492D01*
X104677333Y-96189496D01*
X104579496Y-96287333D01*
X104579492Y-96287338D01*
X104510313Y-96407161D01*
X104510312Y-96407164D01*
X104474500Y-96540817D01*
X103114000Y-96540817D01*
X103114000Y-95249999D01*
X103115741Y-95244071D01*
X104429499Y-95244071D01*
X104454497Y-95369738D01*
X104454499Y-95369744D01*
X104503533Y-95488124D01*
X104503538Y-95488133D01*
X104574723Y-95594668D01*
X104574726Y-95594672D01*
X104665327Y-95685273D01*
X104665331Y-95685276D01*
X104771866Y-95756461D01*
X104771872Y-95756464D01*
X104771873Y-95756465D01*
X104890256Y-95805501D01*
X104890260Y-95805501D01*
X104890261Y-95805502D01*
X105015928Y-95830500D01*
X105015931Y-95830500D01*
X106044071Y-95830500D01*
X106128615Y-95813682D01*
X106169744Y-95805501D01*
X106288127Y-95756465D01*
X106394669Y-95685276D01*
X106485276Y-95594669D01*
X106556465Y-95488127D01*
X106605501Y-95369744D01*
X106619487Y-95299436D01*
X106630500Y-95244071D01*
X106630500Y-95115928D01*
X106605502Y-94990261D01*
X106605501Y-94990260D01*
X106605501Y-94990256D01*
X106556465Y-94871873D01*
X106556464Y-94871872D01*
X106556461Y-94871866D01*
X106485276Y-94765331D01*
X106485273Y-94765327D01*
X106394672Y-94674726D01*
X106394668Y-94674723D01*
X106288133Y-94603538D01*
X106288124Y-94603533D01*
X106169744Y-94554499D01*
X106169738Y-94554497D01*
X106044071Y-94529500D01*
X106044069Y-94529500D01*
X105015931Y-94529500D01*
X105015929Y-94529500D01*
X104890261Y-94554497D01*
X104890255Y-94554499D01*
X104771875Y-94603533D01*
X104771866Y-94603538D01*
X104665331Y-94674723D01*
X104665327Y-94674726D01*
X104574726Y-94765327D01*
X104574723Y-94765331D01*
X104503538Y-94871866D01*
X104503533Y-94871875D01*
X104454499Y-94990255D01*
X104454497Y-94990261D01*
X104429500Y-95115928D01*
X104429500Y-95115931D01*
X104429500Y-95244069D01*
X104429500Y-95244071D01*
X104429499Y-95244071D01*
X103115741Y-95244071D01*
X103133685Y-95182960D01*
X103186489Y-95137205D01*
X103255647Y-95127261D01*
X103280817Y-95135242D01*
X103281063Y-95134486D01*
X103290337Y-95137499D01*
X103290339Y-95137500D01*
X103322330Y-95142567D01*
X103399998Y-95154869D01*
X103400000Y-95154869D01*
X103400002Y-95154869D01*
X103509658Y-95137501D01*
X103509659Y-95137500D01*
X103509661Y-95137500D01*
X103608587Y-95087095D01*
X103687095Y-95008587D01*
X103712328Y-94959060D01*
X103722121Y-94942988D01*
X103730989Y-94930648D01*
X103730988Y-94930648D01*
X103730992Y-94930644D01*
X103854225Y-94659572D01*
X103879419Y-94623220D01*
X104482322Y-94020319D01*
X104543645Y-93986834D01*
X104570003Y-93984000D01*
X113223995Y-93984000D01*
X113291034Y-94003685D01*
X113336789Y-94056489D01*
X113346733Y-94125647D01*
X113317708Y-94189203D01*
X113311676Y-94195681D01*
X112147802Y-95359555D01*
X112086479Y-95393040D01*
X112016787Y-95388056D01*
X111960854Y-95346184D01*
X111941099Y-95299436D01*
X111940518Y-95299625D01*
X111938317Y-95292854D01*
X111937647Y-95291267D01*
X111937500Y-95290339D01*
X111923466Y-95262796D01*
X111887095Y-95191413D01*
X111887092Y-95191410D01*
X111887090Y-95191407D01*
X111808592Y-95112909D01*
X111808588Y-95112906D01*
X111808587Y-95112905D01*
X111774135Y-95095351D01*
X111709658Y-95062498D01*
X111600002Y-95045131D01*
X111599998Y-95045131D01*
X111490344Y-95062498D01*
X111481061Y-95065515D01*
X111481051Y-95065486D01*
X111463971Y-95071087D01*
X111464216Y-95072003D01*
X111458332Y-95073571D01*
X111179521Y-95178107D01*
X111135989Y-95186000D01*
X110207009Y-95186000D01*
X110207001Y-95185999D01*
X110192567Y-95185999D01*
X110107433Y-95185999D01*
X110107430Y-95185999D01*
X110060114Y-95205599D01*
X110028781Y-95218577D01*
X110028775Y-95218581D01*
X109176784Y-96070573D01*
X109140422Y-96095774D01*
X108869356Y-96219005D01*
X108869346Y-96219011D01*
X108855041Y-96229081D01*
X108839966Y-96238165D01*
X108791410Y-96262906D01*
X108712909Y-96341407D01*
X108712904Y-96341414D01*
X108662498Y-96440341D01*
X108645131Y-96549997D01*
X108645131Y-96550002D01*
X108662498Y-96659658D01*
X108712904Y-96758585D01*
X108712909Y-96758592D01*
X108791407Y-96837090D01*
X108791410Y-96837092D01*
X108791413Y-96837095D01*
X108833590Y-96858585D01*
X108890341Y-96887501D01*
X108999998Y-96904869D01*
X109000000Y-96904869D01*
X109000002Y-96904869D01*
X109109658Y-96887501D01*
X109109659Y-96887500D01*
X109109661Y-96887500D01*
X109208587Y-96837095D01*
X109287095Y-96758587D01*
X109312328Y-96709060D01*
X109322121Y-96692988D01*
X109322417Y-96692577D01*
X109330992Y-96680644D01*
X109454225Y-96409572D01*
X109479419Y-96373220D01*
X110202323Y-95650319D01*
X110263646Y-95616834D01*
X110290004Y-95614000D01*
X111135993Y-95614000D01*
X111179521Y-95621891D01*
X111298875Y-95666641D01*
X111298876Y-95666642D01*
X111458332Y-95726426D01*
X111458334Y-95726426D01*
X111463921Y-95727945D01*
X111463722Y-95728673D01*
X111485321Y-95735869D01*
X111490339Y-95737500D01*
X111491267Y-95737647D01*
X111492303Y-95738138D01*
X111499621Y-95740516D01*
X111499313Y-95741461D01*
X111554403Y-95767574D01*
X111591336Y-95826884D01*
X111590342Y-95896746D01*
X111559555Y-95947802D01*
X111362035Y-96145321D01*
X111300712Y-96178806D01*
X111232209Y-96174258D01*
X111145086Y-96142772D01*
X111139547Y-96141331D01*
X111139802Y-96140348D01*
X111124229Y-96135242D01*
X111124141Y-96135514D01*
X111114863Y-96132499D01*
X111005206Y-96115131D01*
X111005202Y-96115131D01*
X110895545Y-96132498D01*
X110796618Y-96182904D01*
X110796611Y-96182909D01*
X110718113Y-96261407D01*
X110718108Y-96261414D01*
X110667702Y-96360341D01*
X110650335Y-96469997D01*
X110650335Y-96470002D01*
X110667702Y-96579658D01*
X110718108Y-96678585D01*
X110718113Y-96678592D01*
X110796611Y-96757090D01*
X110796614Y-96757092D01*
X110796617Y-96757095D01*
X110879530Y-96799341D01*
X110895545Y-96807501D01*
X111005202Y-96824869D01*
X111005204Y-96824869D01*
X111005206Y-96824869D01*
X111114862Y-96807501D01*
X111114862Y-96807500D01*
X111114865Y-96807500D01*
X111133999Y-96797750D01*
X111154480Y-96789520D01*
X111166150Y-96786000D01*
X111330377Y-96698550D01*
X111370990Y-96688411D01*
X111370587Y-96686384D01*
X111382564Y-96684001D01*
X111382567Y-96684001D01*
X111422552Y-96667438D01*
X111461222Y-96651421D01*
X111521421Y-96591222D01*
X111521421Y-96591220D01*
X111533334Y-96579308D01*
X111533339Y-96579300D01*
X113525823Y-94586819D01*
X113587146Y-94553334D01*
X113613504Y-94550500D01*
X114135995Y-94550500D01*
X114179523Y-94558391D01*
X114298877Y-94603141D01*
X114298878Y-94603142D01*
X114458334Y-94662926D01*
X114458336Y-94662926D01*
X114463923Y-94664445D01*
X114463724Y-94665173D01*
X114485323Y-94672369D01*
X114490344Y-94674001D01*
X114600000Y-94691369D01*
X114600002Y-94691369D01*
X114600004Y-94691369D01*
X114709660Y-94674001D01*
X114709661Y-94674000D01*
X114709663Y-94674000D01*
X114808589Y-94623595D01*
X114887097Y-94545087D01*
X114937502Y-94446161D01*
X114937502Y-94446159D01*
X114937503Y-94446158D01*
X114954871Y-94336502D01*
X114954871Y-94336497D01*
X114937503Y-94226841D01*
X114905634Y-94164294D01*
X114892738Y-94095625D01*
X114919015Y-94030885D01*
X114976122Y-93990628D01*
X115016119Y-93984000D01*
X115089997Y-93984000D01*
X115157036Y-94003685D01*
X115177678Y-94020319D01*
X115729681Y-94572322D01*
X115763166Y-94633645D01*
X115766000Y-94660003D01*
X115766000Y-94745984D01*
X115758108Y-94789516D01*
X115653570Y-95068337D01*
X115652055Y-95073915D01*
X115651329Y-95073717D01*
X115644120Y-95095351D01*
X115642498Y-95100342D01*
X115625131Y-95209997D01*
X115625131Y-95210002D01*
X115642498Y-95319657D01*
X115668942Y-95371557D01*
X115681837Y-95440226D01*
X115655559Y-95504966D01*
X115598452Y-95545222D01*
X115528647Y-95548214D01*
X115502169Y-95538338D01*
X115427405Y-95500244D01*
X115427403Y-95500243D01*
X115427400Y-95500242D01*
X115317746Y-95482875D01*
X115317742Y-95482875D01*
X115208085Y-95500242D01*
X115109158Y-95550648D01*
X115109151Y-95550653D01*
X115030650Y-95629154D01*
X115030647Y-95629159D01*
X115024895Y-95640446D01*
X115016754Y-95654160D01*
X114823662Y-95936376D01*
X114823660Y-95936379D01*
X114821036Y-95940215D01*
X114820802Y-95940055D01*
X114804149Y-95961722D01*
X113965428Y-96800443D01*
X113911441Y-96832096D01*
X113671386Y-96899876D01*
X113662202Y-96901894D01*
X113657899Y-96903292D01*
X113654112Y-96905095D01*
X113653463Y-96905499D01*
X113644283Y-96910679D01*
X113561411Y-96952905D01*
X113482909Y-97031407D01*
X113482904Y-97031414D01*
X113432498Y-97130341D01*
X113415131Y-97239997D01*
X113415131Y-97240002D01*
X113432498Y-97349658D01*
X113482904Y-97448585D01*
X113482909Y-97448592D01*
X113561407Y-97527090D01*
X113561410Y-97527092D01*
X113561413Y-97527095D01*
X113642840Y-97568584D01*
X113660341Y-97577501D01*
X113769998Y-97594869D01*
X113770000Y-97594869D01*
X113770002Y-97594869D01*
X113879658Y-97577501D01*
X113879659Y-97577500D01*
X113879661Y-97577500D01*
X113978587Y-97527095D01*
X113986806Y-97518876D01*
X114027037Y-97491993D01*
X114071546Y-97473557D01*
X114149045Y-97396058D01*
X114149044Y-97396058D01*
X114243144Y-97301957D01*
X114250006Y-97295596D01*
X114282505Y-97267685D01*
X114286945Y-97263721D01*
X114287595Y-97263118D01*
X114294116Y-97253742D01*
X114308221Y-97236880D01*
X115193671Y-96351431D01*
X115214469Y-96335831D01*
X115214083Y-96335266D01*
X115251500Y-96309665D01*
X115501332Y-96138727D01*
X115515044Y-96130589D01*
X115526331Y-96124839D01*
X115530657Y-96120512D01*
X115543782Y-96109109D01*
X115546607Y-96106984D01*
X115548232Y-96105642D01*
X115550633Y-96102409D01*
X115562477Y-96088691D01*
X115604839Y-96046331D01*
X115655244Y-95947405D01*
X115655244Y-95947403D01*
X115655245Y-95947402D01*
X115672613Y-95837746D01*
X115672613Y-95837741D01*
X115655245Y-95728085D01*
X115628802Y-95676187D01*
X115615906Y-95607518D01*
X115642183Y-95542777D01*
X115699290Y-95502521D01*
X115769095Y-95499529D01*
X115795569Y-95509403D01*
X115870339Y-95547500D01*
X115870341Y-95547500D01*
X115870343Y-95547501D01*
X115979998Y-95564869D01*
X115980000Y-95564869D01*
X115980002Y-95564869D01*
X116089658Y-95547501D01*
X116089659Y-95547500D01*
X116089661Y-95547500D01*
X116188587Y-95497095D01*
X116267095Y-95418587D01*
X116317500Y-95319661D01*
X116317500Y-95319659D01*
X116317501Y-95319658D01*
X116334869Y-95210002D01*
X116334869Y-95209997D01*
X116317501Y-95100340D01*
X116314485Y-95091059D01*
X116314515Y-95091049D01*
X116308917Y-95073974D01*
X116307996Y-95074220D01*
X116306426Y-95068333D01*
X116306426Y-95068331D01*
X116217095Y-94830070D01*
X116201893Y-94789524D01*
X116194000Y-94745992D01*
X116194000Y-94577009D01*
X116194001Y-94577000D01*
X116194001Y-94477434D01*
X116194000Y-94477430D01*
X116177710Y-94438104D01*
X116177708Y-94438101D01*
X116170717Y-94421222D01*
X116161421Y-94398778D01*
X116101222Y-94338579D01*
X116094157Y-94331514D01*
X116094150Y-94331508D01*
X115421633Y-93658992D01*
X115421625Y-93658982D01*
X115351221Y-93588578D01*
X115305148Y-93569495D01*
X115305146Y-93569493D01*
X115305146Y-93569494D01*
X115272567Y-93555999D01*
X115187433Y-93555999D01*
X115172999Y-93555999D01*
X115172991Y-93556000D01*
X104487009Y-93556000D01*
X104487001Y-93555999D01*
X104472567Y-93555999D01*
X104387433Y-93555999D01*
X104387431Y-93555999D01*
X104354853Y-93569493D01*
X104354853Y-93569494D01*
X104333454Y-93578358D01*
X104308778Y-93588579D01*
X103576784Y-94320573D01*
X103540421Y-94345774D01*
X103289318Y-94459930D01*
X103220143Y-94469755D01*
X103156637Y-94440622D01*
X103118963Y-94381779D01*
X103114000Y-94347048D01*
X103114000Y-93540003D01*
X103133685Y-93472964D01*
X103150319Y-93452322D01*
X104152323Y-92450319D01*
X104213646Y-92416834D01*
X104240004Y-92414000D01*
X114335993Y-92414000D01*
X114379521Y-92421891D01*
X114498875Y-92466641D01*
X114498876Y-92466642D01*
X114658332Y-92526426D01*
X114658334Y-92526426D01*
X114663921Y-92527945D01*
X114663722Y-92528673D01*
X114685391Y-92535892D01*
X114690334Y-92537498D01*
X114690335Y-92537498D01*
X114690339Y-92537500D01*
X114775711Y-92551021D01*
X114792141Y-92554785D01*
X114795477Y-92555793D01*
X114845727Y-92560680D01*
X114845729Y-92560680D01*
X114981276Y-92573859D01*
X115046094Y-92599939D01*
X115056955Y-92609596D01*
X119995059Y-97547700D01*
X120028544Y-97609023D01*
X120031378Y-97635381D01*
X120031378Y-97952052D01*
X120031377Y-97952066D01*
X120031377Y-98047191D01*
X120038902Y-98065356D01*
X120038904Y-98065359D01*
X120063956Y-98125843D01*
X120134360Y-98196247D01*
X120134370Y-98196255D01*
X120279122Y-98341007D01*
X120279131Y-98341018D01*
X120359738Y-98421625D01*
X120359748Y-98421633D01*
X121855764Y-99917650D01*
X121855767Y-99917654D01*
X121862835Y-99924722D01*
X121923034Y-99984921D01*
X121945708Y-99994312D01*
X121945711Y-99994315D01*
X121945711Y-99994314D01*
X122001689Y-100017501D01*
X122001690Y-100017501D01*
X122101257Y-100017501D01*
X122101265Y-100017500D01*
X122161637Y-100017500D01*
X122228676Y-100037185D01*
X122274431Y-100089989D01*
X122284375Y-100159147D01*
X122255350Y-100222703D01*
X122199365Y-100258682D01*
X122199625Y-100259482D01*
X122196581Y-100260471D01*
X122196572Y-100260477D01*
X122196543Y-100260483D01*
X122190342Y-100262498D01*
X122091414Y-100312904D01*
X122091407Y-100312909D01*
X122012909Y-100391407D01*
X122012904Y-100391414D01*
X121962498Y-100490341D01*
X121945131Y-100599997D01*
X121945131Y-100600002D01*
X121962498Y-100709658D01*
X122012904Y-100808585D01*
X122012909Y-100808592D01*
X122091407Y-100887090D01*
X122091410Y-100887092D01*
X122091413Y-100887095D01*
X122189544Y-100937095D01*
X122190341Y-100937501D01*
X122299998Y-100954869D01*
X122300000Y-100954869D01*
X122300002Y-100954869D01*
X122409658Y-100937501D01*
X122409659Y-100937500D01*
X122409661Y-100937500D01*
X122508587Y-100887095D01*
X122587095Y-100808587D01*
X122637500Y-100709661D01*
X122637500Y-100709659D01*
X122637501Y-100709658D01*
X122654869Y-100600002D01*
X122654869Y-100599997D01*
X122637501Y-100490341D01*
X122637500Y-100490339D01*
X122587095Y-100391413D01*
X122587092Y-100391410D01*
X122587090Y-100391407D01*
X122508592Y-100312909D01*
X122508588Y-100312906D01*
X122508587Y-100312905D01*
X122409661Y-100262500D01*
X122409660Y-100262499D01*
X122409657Y-100262498D01*
X122400375Y-100259482D01*
X122401592Y-100255735D01*
X122355846Y-100234058D01*
X122318905Y-100174753D01*
X122319891Y-100104890D01*
X122358490Y-100046651D01*
X122422449Y-100018525D01*
X122438363Y-100017500D01*
X123139491Y-100017500D01*
X123139499Y-100017501D01*
X123153933Y-100017501D01*
X123239067Y-100017501D01*
X123271646Y-100004005D01*
X123317722Y-99984921D01*
X123377921Y-99924722D01*
X123377921Y-99924719D01*
X123389836Y-99912805D01*
X123389839Y-99912800D01*
X126638598Y-96664042D01*
X126699919Y-96630559D01*
X126769611Y-96635543D01*
X126825544Y-96677415D01*
X126848750Y-96732327D01*
X126853078Y-96759658D01*
X126903484Y-96858585D01*
X126903489Y-96858592D01*
X126981987Y-96937090D01*
X126981990Y-96937092D01*
X126981993Y-96937095D01*
X127000029Y-96946285D01*
X127031516Y-96962329D01*
X127047574Y-96972111D01*
X127053449Y-96976332D01*
X127059935Y-96980992D01*
X127151337Y-97022545D01*
X127204217Y-97068208D01*
X127224017Y-97135213D01*
X127204447Y-97202286D01*
X127151722Y-97248132D01*
X127082580Y-97258194D01*
X127080620Y-97257899D01*
X127000003Y-97245131D01*
X126999998Y-97245131D01*
X126890341Y-97262498D01*
X126791414Y-97312904D01*
X126791407Y-97312909D01*
X126712909Y-97391407D01*
X126712904Y-97391414D01*
X126662498Y-97490341D01*
X126645131Y-97599997D01*
X126645131Y-97600001D01*
X126662498Y-97709655D01*
X126665515Y-97718939D01*
X126665485Y-97718948D01*
X126671085Y-97736025D01*
X126672003Y-97735781D01*
X126673573Y-97741673D01*
X126778107Y-98020478D01*
X126786000Y-98064010D01*
X126786000Y-98290955D01*
X126766315Y-98357994D01*
X126713511Y-98403749D01*
X126644353Y-98413693D01*
X126580797Y-98384668D01*
X126574319Y-98378636D01*
X126508592Y-98312909D01*
X126508588Y-98312906D01*
X126508587Y-98312905D01*
X126498197Y-98307611D01*
X126409658Y-98262498D01*
X126300002Y-98245131D01*
X126299998Y-98245131D01*
X126190341Y-98262498D01*
X126091414Y-98312904D01*
X126091407Y-98312909D01*
X126012909Y-98391407D01*
X126012904Y-98391414D01*
X125962498Y-98490341D01*
X125945131Y-98599997D01*
X125945131Y-98600002D01*
X125962498Y-98709658D01*
X126012904Y-98808585D01*
X126012909Y-98808592D01*
X126091407Y-98887090D01*
X126091410Y-98887092D01*
X126091413Y-98887095D01*
X126184781Y-98934668D01*
X126190341Y-98937501D01*
X126299998Y-98954869D01*
X126300000Y-98954869D01*
X126300002Y-98954869D01*
X126409658Y-98937501D01*
X126409659Y-98937500D01*
X126409661Y-98937500D01*
X126508587Y-98887095D01*
X126533184Y-98862498D01*
X126574319Y-98821364D01*
X126635642Y-98787879D01*
X126705334Y-98792863D01*
X126761267Y-98834735D01*
X126785684Y-98900199D01*
X126786000Y-98909045D01*
X126786000Y-101311034D01*
X126785999Y-101311048D01*
X126785999Y-101321037D01*
X126785999Y-101406171D01*
X126788214Y-101411518D01*
X126799084Y-101437761D01*
X126818576Y-101484820D01*
X126818577Y-101484822D01*
X126818579Y-101484826D01*
X126818581Y-101484828D01*
X126888982Y-101555229D01*
X126888992Y-101555237D01*
X128599583Y-103265828D01*
X128610386Y-103278164D01*
X128623277Y-103295014D01*
X128665876Y-103332480D01*
X128671665Y-103337910D01*
X128697901Y-103364146D01*
X128697914Y-103364161D01*
X128704975Y-103371222D01*
X128765174Y-103431421D01*
X128768565Y-103432825D01*
X128771132Y-103433889D01*
X128805566Y-103455334D01*
X128818855Y-103467021D01*
X128818863Y-103467029D01*
X128833908Y-103480260D01*
X128857464Y-103500977D01*
X128857466Y-103500978D01*
X128857467Y-103500979D01*
X128863622Y-103504687D01*
X128887314Y-103523220D01*
X128901184Y-103537090D01*
X128901186Y-103537091D01*
X128901190Y-103537095D01*
X128929493Y-103551516D01*
X128980288Y-103599490D01*
X128997083Y-103667311D01*
X128974546Y-103733446D01*
X128919830Y-103776897D01*
X128873197Y-103786000D01*
X123905690Y-103786000D01*
X123838651Y-103766315D01*
X123818009Y-103749681D01*
X123045783Y-102977455D01*
X122269453Y-102201125D01*
X122235969Y-102139804D01*
X122240953Y-102070112D01*
X122282825Y-102014179D01*
X122337737Y-101990973D01*
X122359658Y-101987501D01*
X122359659Y-101987500D01*
X122359661Y-101987500D01*
X122458587Y-101937095D01*
X122537095Y-101858587D01*
X122587500Y-101759661D01*
X122587500Y-101759659D01*
X122587501Y-101759658D01*
X122604869Y-101650002D01*
X122604869Y-101649997D01*
X122587501Y-101540341D01*
X122580953Y-101527490D01*
X122537095Y-101441413D01*
X122537092Y-101441410D01*
X122537090Y-101441407D01*
X122458592Y-101362909D01*
X122458588Y-101362906D01*
X122458587Y-101362905D01*
X122428714Y-101347684D01*
X122359658Y-101312498D01*
X122250002Y-101295131D01*
X122249998Y-101295131D01*
X122140341Y-101312498D01*
X122041414Y-101362904D01*
X122041407Y-101362909D01*
X121962909Y-101441407D01*
X121962904Y-101441414D01*
X121912499Y-101540340D01*
X121909026Y-101562266D01*
X121879094Y-101625400D01*
X121819781Y-101662329D01*
X121749919Y-101661329D01*
X121698872Y-101630545D01*
X120057202Y-99988875D01*
X120057194Y-99988865D01*
X119986790Y-99918461D01*
X119940717Y-99899378D01*
X119940715Y-99899376D01*
X119940715Y-99899377D01*
X119908136Y-99885882D01*
X119823002Y-99885882D01*
X119808568Y-99885882D01*
X119808560Y-99885883D01*
X114762012Y-99885883D01*
X114718481Y-99877990D01*
X114672378Y-99860705D01*
X114648711Y-99851831D01*
X114592849Y-99809863D01*
X114568545Y-99744357D01*
X114581758Y-99679433D01*
X114627500Y-99589661D01*
X114628863Y-99581059D01*
X114644869Y-99480002D01*
X114644869Y-99479997D01*
X114627501Y-99370341D01*
X114627500Y-99370339D01*
X114577095Y-99271413D01*
X114577092Y-99271410D01*
X114577090Y-99271407D01*
X114546474Y-99240791D01*
X114512989Y-99179468D01*
X114517973Y-99109776D01*
X114559845Y-99053843D01*
X114625309Y-99029426D01*
X114653552Y-99030636D01*
X114690713Y-99036522D01*
X114716454Y-99040600D01*
X114716455Y-99040600D01*
X114716457Y-99040600D01*
X114826113Y-99023232D01*
X114826114Y-99023231D01*
X114826116Y-99023231D01*
X114925042Y-98972826D01*
X115003550Y-98894318D01*
X115053955Y-98795392D01*
X115053955Y-98795390D01*
X115053956Y-98795389D01*
X115071324Y-98685733D01*
X115071324Y-98685728D01*
X115053956Y-98576072D01*
X115029409Y-98527896D01*
X115003550Y-98477144D01*
X115003547Y-98477141D01*
X115003545Y-98477138D01*
X114925047Y-98398640D01*
X114925043Y-98398637D01*
X114925042Y-98398636D01*
X114826116Y-98348231D01*
X114826114Y-98348230D01*
X114826113Y-98348230D01*
X114758629Y-98337541D01*
X114695495Y-98307611D01*
X114658564Y-98248299D01*
X114656361Y-98209759D01*
X114654869Y-98209759D01*
X114654869Y-98199997D01*
X114637501Y-98090341D01*
X114624772Y-98065359D01*
X114587095Y-97991413D01*
X114587092Y-97991410D01*
X114587090Y-97991407D01*
X114508592Y-97912909D01*
X114508588Y-97912906D01*
X114508587Y-97912905D01*
X114490268Y-97903571D01*
X114409658Y-97862498D01*
X114300002Y-97845131D01*
X114299998Y-97845131D01*
X114190341Y-97862498D01*
X114091414Y-97912904D01*
X114091407Y-97912909D01*
X114012909Y-97991407D01*
X114012904Y-97991414D01*
X113962498Y-98090341D01*
X113945131Y-98199997D01*
X113945131Y-98200002D01*
X113962498Y-98309658D01*
X114010252Y-98403380D01*
X114023148Y-98472049D01*
X113996871Y-98536789D01*
X113986526Y-98546729D01*
X113987277Y-98547480D01*
X113901873Y-98632883D01*
X113901868Y-98632890D01*
X113851462Y-98731817D01*
X113834095Y-98841473D01*
X113834095Y-98841478D01*
X113851462Y-98951134D01*
X113901868Y-99050061D01*
X113901873Y-99050068D01*
X113979811Y-99128006D01*
X114013296Y-99189329D01*
X114008312Y-99259021D01*
X114002615Y-99271981D01*
X113952498Y-99370341D01*
X113935131Y-99479997D01*
X113935131Y-99480002D01*
X113952498Y-99589658D01*
X114002904Y-99688585D01*
X114002909Y-99688592D01*
X114020578Y-99706261D01*
X114054063Y-99767584D01*
X114049079Y-99837276D01*
X114020581Y-99881621D01*
X114010909Y-99891292D01*
X114010906Y-99891297D01*
X113960500Y-99990224D01*
X113943133Y-100099880D01*
X113943133Y-100099885D01*
X113960500Y-100209541D01*
X113988551Y-100264594D01*
X114001447Y-100333263D01*
X113975170Y-100398004D01*
X113965748Y-100408568D01*
X113932909Y-100441407D01*
X113932904Y-100441414D01*
X113882498Y-100540341D01*
X113865131Y-100649997D01*
X113865131Y-100650002D01*
X113882498Y-100759658D01*
X113882500Y-100759661D01*
X113932905Y-100858587D01*
X113996906Y-100922588D01*
X114030390Y-100983909D01*
X114025406Y-101053601D01*
X114019710Y-101066560D01*
X114002499Y-101100340D01*
X113985131Y-101209997D01*
X113985131Y-101210002D01*
X114002498Y-101319658D01*
X114052904Y-101418585D01*
X114052909Y-101418592D01*
X114076875Y-101442558D01*
X114110360Y-101503881D01*
X114105376Y-101573573D01*
X114099680Y-101586532D01*
X114065520Y-101653577D01*
X114017546Y-101704374D01*
X113949725Y-101721170D01*
X113883590Y-101698634D01*
X113867353Y-101684965D01*
X113624961Y-101442573D01*
X113250319Y-101067930D01*
X113216834Y-101006607D01*
X113214000Y-100980249D01*
X113214000Y-100157009D01*
X113214001Y-100157000D01*
X113214001Y-100057434D01*
X113214001Y-100057433D01*
X113190418Y-100000500D01*
X113181421Y-99978778D01*
X113121222Y-99918579D01*
X113121220Y-99918578D01*
X113114154Y-99911512D01*
X113114154Y-99911511D01*
X113114150Y-99911508D01*
X112252703Y-99050061D01*
X111390322Y-98187681D01*
X111356838Y-98126359D01*
X111355124Y-98083375D01*
X111377307Y-97919451D01*
X111378338Y-97909360D01*
X111378444Y-97907832D01*
X111378443Y-97907830D01*
X111378936Y-97900734D01*
X111379057Y-97900742D01*
X111379870Y-97886205D01*
X111379870Y-97885375D01*
X111362502Y-97775718D01*
X111361518Y-97773787D01*
X111312096Y-97676790D01*
X111312093Y-97676787D01*
X111312091Y-97676784D01*
X111233593Y-97598286D01*
X111233589Y-97598283D01*
X111233588Y-97598282D01*
X111203391Y-97582896D01*
X111134659Y-97547875D01*
X111025003Y-97530508D01*
X111024998Y-97530508D01*
X110978495Y-97537873D01*
X110909202Y-97528918D01*
X110855750Y-97483922D01*
X110842183Y-97449067D01*
X110840518Y-97449609D01*
X110837501Y-97440326D01*
X110837500Y-97440324D01*
X110837500Y-97440323D01*
X110787095Y-97341397D01*
X110787092Y-97341394D01*
X110787090Y-97341391D01*
X110708592Y-97262893D01*
X110708588Y-97262890D01*
X110708587Y-97262889D01*
X110704743Y-97260930D01*
X110609658Y-97212482D01*
X110500002Y-97195115D01*
X110499998Y-97195115D01*
X110390341Y-97212482D01*
X110291414Y-97262888D01*
X110291407Y-97262893D01*
X110212909Y-97341391D01*
X110212904Y-97341398D01*
X110162498Y-97440325D01*
X110145131Y-97549981D01*
X110145131Y-97549985D01*
X110162498Y-97659639D01*
X110165515Y-97668923D01*
X110165485Y-97668932D01*
X110171085Y-97686009D01*
X110172003Y-97685765D01*
X110173573Y-97691657D01*
X110278107Y-97970462D01*
X110286000Y-98013994D01*
X110286000Y-98113116D01*
X110285999Y-98113130D01*
X110285999Y-98208253D01*
X110296544Y-98233710D01*
X110296545Y-98233714D01*
X110318576Y-98286902D01*
X110318577Y-98286904D01*
X110318579Y-98286908D01*
X110318581Y-98286910D01*
X110388982Y-98357311D01*
X110388992Y-98357319D01*
X112249681Y-100218008D01*
X112283166Y-100279331D01*
X112286000Y-100305689D01*
X112286000Y-101347430D01*
X112285999Y-101347443D01*
X112285999Y-101442567D01*
X112293383Y-101460394D01*
X112293919Y-101461686D01*
X112318579Y-101521222D01*
X112318581Y-101521224D01*
X112388982Y-101591625D01*
X112388991Y-101591632D01*
X113493308Y-102695950D01*
X113526792Y-102757271D01*
X113521808Y-102826963D01*
X113493308Y-102871309D01*
X113442018Y-102922599D01*
X113442013Y-102922606D01*
X113391607Y-103021533D01*
X113374240Y-103131189D01*
X113374240Y-103131194D01*
X113391607Y-103240850D01*
X113442013Y-103339777D01*
X113442018Y-103339784D01*
X113520516Y-103418282D01*
X113520519Y-103418284D01*
X113520522Y-103418287D01*
X113619448Y-103468692D01*
X113619450Y-103468693D01*
X113729107Y-103486061D01*
X113729109Y-103486061D01*
X113729111Y-103486061D01*
X113838766Y-103468693D01*
X113838767Y-103468692D01*
X113838770Y-103468692D01*
X113925519Y-103424491D01*
X113994184Y-103411595D01*
X114058925Y-103437871D01*
X114099183Y-103494977D01*
X114104285Y-103554372D01*
X114100781Y-103576500D01*
X114098656Y-103589918D01*
X114098655Y-103589922D01*
X114098655Y-103589923D01*
X114116022Y-103699579D01*
X114166428Y-103798506D01*
X114166433Y-103798513D01*
X114244931Y-103877011D01*
X114244934Y-103877013D01*
X114244937Y-103877016D01*
X114290635Y-103900300D01*
X114343865Y-103927422D01*
X114453522Y-103944790D01*
X114453524Y-103944790D01*
X114453526Y-103944790D01*
X114563182Y-103927422D01*
X114563183Y-103927421D01*
X114563185Y-103927421D01*
X114662111Y-103877016D01*
X114740619Y-103798508D01*
X114791024Y-103699582D01*
X114791024Y-103699580D01*
X114791025Y-103699579D01*
X114808393Y-103589923D01*
X114808393Y-103589918D01*
X114791025Y-103480262D01*
X114784522Y-103467500D01*
X114740619Y-103381334D01*
X114740616Y-103381331D01*
X114740614Y-103381328D01*
X114662116Y-103302830D01*
X114662112Y-103302827D01*
X114662111Y-103302826D01*
X114642379Y-103292772D01*
X114563182Y-103252419D01*
X114453526Y-103235052D01*
X114453522Y-103235052D01*
X114343865Y-103252419D01*
X114257115Y-103296621D01*
X114188446Y-103309517D01*
X114123706Y-103283240D01*
X114083449Y-103226134D01*
X114078348Y-103166737D01*
X114083978Y-103131192D01*
X114083978Y-103131189D01*
X114066610Y-103021533D01*
X114052731Y-102994294D01*
X114039835Y-102925625D01*
X114066112Y-102860885D01*
X114123219Y-102820628D01*
X114163216Y-102814000D01*
X115142626Y-102814000D01*
X115209665Y-102833685D01*
X115255420Y-102886489D01*
X115265364Y-102955647D01*
X115263678Y-102962896D01*
X115245131Y-103079997D01*
X115245131Y-103080002D01*
X115262498Y-103189658D01*
X115312904Y-103288585D01*
X115312909Y-103288592D01*
X115391407Y-103367090D01*
X115391410Y-103367092D01*
X115391413Y-103367095D01*
X115490339Y-103417500D01*
X115544770Y-103426121D01*
X115607903Y-103456049D01*
X115644835Y-103515361D01*
X115643837Y-103585223D01*
X115613053Y-103636275D01*
X115560755Y-103688572D01*
X115560753Y-103688576D01*
X115510347Y-103787503D01*
X115492980Y-103897159D01*
X115492980Y-103897164D01*
X115510347Y-104006820D01*
X115560753Y-104105747D01*
X115560758Y-104105754D01*
X115639256Y-104184252D01*
X115639259Y-104184254D01*
X115639262Y-104184257D01*
X115662517Y-104196106D01*
X115688785Y-104209491D01*
X115704843Y-104219273D01*
X115713620Y-104225579D01*
X115717204Y-104228154D01*
X115988269Y-104351385D01*
X116024631Y-104376585D01*
X119315890Y-107667844D01*
X119349375Y-107729167D01*
X119344391Y-107798859D01*
X119302519Y-107854792D01*
X119237055Y-107879209D01*
X119228209Y-107879525D01*
X117333075Y-107879525D01*
X117333075Y-108648500D01*
X117313390Y-108715539D01*
X117260586Y-108761294D01*
X117209075Y-108772500D01*
X101304875Y-108772500D01*
X101295146Y-108772118D01*
X101126308Y-108758830D01*
X101107090Y-108755786D01*
X100947167Y-108717392D01*
X100928661Y-108711379D01*
X100776710Y-108648438D01*
X100759376Y-108639606D01*
X100619133Y-108553665D01*
X100603403Y-108542236D01*
X100478338Y-108435421D01*
X100464578Y-108421661D01*
X100401814Y-108348173D01*
X100357760Y-108296592D01*
X100346336Y-108280869D01*
X100260390Y-108140618D01*
X100251561Y-108123289D01*
X100194896Y-107986489D01*
X100188617Y-107971331D01*
X100182609Y-107952839D01*
X100144212Y-107792904D01*
X100141169Y-107773690D01*
X100127882Y-107604852D01*
X100127500Y-107595124D01*
X100127500Y-94022545D01*
X100147185Y-93955506D01*
X100199989Y-93909751D01*
X100269147Y-93899807D01*
X100332703Y-93928832D01*
X100339181Y-93934864D01*
X100391407Y-93987090D01*
X100391410Y-93987092D01*
X100391413Y-93987095D01*
X100460988Y-94022545D01*
X100490341Y-94037501D01*
X100599998Y-94054869D01*
X100600000Y-94054869D01*
X100600002Y-94054869D01*
X100709658Y-94037501D01*
X100709659Y-94037500D01*
X100709661Y-94037500D01*
X100808587Y-93987095D01*
X100887095Y-93908587D01*
X100937500Y-93809661D01*
X100937500Y-93809659D01*
X100937501Y-93809658D01*
X100954869Y-93700002D01*
X100954869Y-93699997D01*
X100937501Y-93590341D01*
X100929375Y-93574392D01*
X100887095Y-93491413D01*
X100887092Y-93491410D01*
X100887090Y-93491407D01*
X100808592Y-93412909D01*
X100808588Y-93412906D01*
X100808587Y-93412905D01*
X100804743Y-93410946D01*
X100709658Y-93362498D01*
X100600002Y-93345131D01*
X100599998Y-93345131D01*
X100490341Y-93362498D01*
X100391414Y-93412904D01*
X100391407Y-93412909D01*
X100339181Y-93465136D01*
X100277858Y-93498621D01*
X100208166Y-93493637D01*
X100152233Y-93451765D01*
X100127816Y-93386301D01*
X100127500Y-93377455D01*
X100127500Y-92404875D01*
X100127882Y-92395147D01*
X100133349Y-92325679D01*
X100141169Y-92226303D01*
X100144211Y-92207097D01*
X100182610Y-92047156D01*
X100188616Y-92028671D01*
X100251562Y-91876707D01*
X100260387Y-91859386D01*
X100346340Y-91719124D01*
X100357755Y-91703413D01*
X100464584Y-91578331D01*
X100478331Y-91564584D01*
X100603413Y-91457755D01*
X100619124Y-91446340D01*
X100759386Y-91360387D01*
X100776707Y-91351562D01*
X100928671Y-91288616D01*
X100947156Y-91282610D01*
X101107097Y-91244211D01*
X101126303Y-91241169D01*
X101270277Y-91229839D01*
X101295147Y-91227882D01*
X101304875Y-91227500D01*
X101329101Y-91227500D01*
X103210495Y-91227500D01*
X103277534Y-91247185D01*
G37*
G04 #@! TD.AperFunction*
G04 #@! TA.AperFunction,Conductor*
G36*
X102782703Y-103585790D02*
G01*
X102789181Y-103591822D01*
X104911505Y-105714146D01*
X104911518Y-105714161D01*
X104918579Y-105721222D01*
X104978778Y-105781421D01*
X105022426Y-105799500D01*
X105057433Y-105814001D01*
X105057434Y-105814001D01*
X105157001Y-105814001D01*
X105157009Y-105814000D01*
X109559997Y-105814000D01*
X109627036Y-105833685D01*
X109647678Y-105850319D01*
X109991508Y-106194150D01*
X109991511Y-106194154D01*
X109998579Y-106201222D01*
X110058778Y-106261421D01*
X110081815Y-106270963D01*
X110137433Y-106294001D01*
X110137434Y-106294001D01*
X110237001Y-106294001D01*
X110237009Y-106294000D01*
X111956141Y-106294000D01*
X112023180Y-106313685D01*
X112068935Y-106366489D01*
X112078879Y-106435647D01*
X112069023Y-106469318D01*
X111945776Y-106740419D01*
X111920575Y-106776782D01*
X111534178Y-107163181D01*
X111472855Y-107196666D01*
X111446497Y-107199500D01*
X108460084Y-107199500D01*
X108393045Y-107179815D01*
X108347290Y-107127011D01*
X108337346Y-107057853D01*
X108366371Y-106994297D01*
X108403788Y-106965015D01*
X108458587Y-106937095D01*
X108537095Y-106858587D01*
X108587500Y-106759661D01*
X108587500Y-106759659D01*
X108587501Y-106759658D01*
X108604869Y-106650002D01*
X108604869Y-106649997D01*
X108587501Y-106540341D01*
X108579412Y-106524465D01*
X108537095Y-106441413D01*
X108537092Y-106441410D01*
X108537090Y-106441407D01*
X108458592Y-106362909D01*
X108458588Y-106362906D01*
X108458587Y-106362905D01*
X108437505Y-106352163D01*
X108359658Y-106312498D01*
X108250002Y-106295131D01*
X108249998Y-106295131D01*
X108140341Y-106312498D01*
X108041414Y-106362904D01*
X108041407Y-106362909D01*
X107962909Y-106441407D01*
X107962904Y-106441414D01*
X107912498Y-106540341D01*
X107895131Y-106649997D01*
X107895131Y-106650002D01*
X107912498Y-106759658D01*
X107962904Y-106858585D01*
X107962909Y-106858592D01*
X108041407Y-106937090D01*
X108041410Y-106937092D01*
X108041413Y-106937095D01*
X108096210Y-106965015D01*
X108147007Y-107012989D01*
X108163802Y-107080810D01*
X108141265Y-107146945D01*
X108086550Y-107190397D01*
X108039916Y-107199500D01*
X107460084Y-107199500D01*
X107393045Y-107179815D01*
X107347290Y-107127011D01*
X107337346Y-107057853D01*
X107366371Y-106994297D01*
X107403788Y-106965015D01*
X107458587Y-106937095D01*
X107537095Y-106858587D01*
X107587500Y-106759661D01*
X107587500Y-106759659D01*
X107587501Y-106759658D01*
X107604869Y-106650002D01*
X107604869Y-106649997D01*
X107587501Y-106540341D01*
X107579412Y-106524465D01*
X107537095Y-106441413D01*
X107537092Y-106441410D01*
X107537090Y-106441407D01*
X107458592Y-106362909D01*
X107458588Y-106362906D01*
X107458587Y-106362905D01*
X107437505Y-106352163D01*
X107359658Y-106312498D01*
X107250002Y-106295131D01*
X107249998Y-106295131D01*
X107140341Y-106312498D01*
X107041414Y-106362904D01*
X107041407Y-106362909D01*
X106962909Y-106441407D01*
X106962904Y-106441414D01*
X106912498Y-106540341D01*
X106895131Y-106649997D01*
X106895131Y-106650002D01*
X106912498Y-106759658D01*
X106962904Y-106858585D01*
X106962909Y-106858592D01*
X107041407Y-106937090D01*
X107041410Y-106937092D01*
X107041413Y-106937095D01*
X107096210Y-106965015D01*
X107147007Y-107012989D01*
X107163802Y-107080810D01*
X107141265Y-107146945D01*
X107086550Y-107190397D01*
X107039916Y-107199500D01*
X102976503Y-107199500D01*
X102909464Y-107179815D01*
X102888822Y-107163181D01*
X102613819Y-106888178D01*
X102580334Y-106826855D01*
X102577500Y-106800497D01*
X102577500Y-103679503D01*
X102597185Y-103612464D01*
X102649989Y-103566709D01*
X102719147Y-103556765D01*
X102782703Y-103585790D01*
G37*
G04 #@! TD.AperFunction*
G04 #@! TA.AperFunction,Conductor*
G36*
X133469203Y-97876976D02*
G01*
X133495386Y-97908688D01*
X133497821Y-97912905D01*
X133547704Y-97999305D01*
X133547709Y-97999313D01*
X133676054Y-98141854D01*
X133676056Y-98141856D01*
X133831235Y-98254600D01*
X133831236Y-98254601D01*
X133954904Y-98309661D01*
X134006469Y-98332619D01*
X134194092Y-98372500D01*
X134275180Y-98372500D01*
X135308500Y-98372500D01*
X135375539Y-98392185D01*
X135421294Y-98444989D01*
X135432500Y-98496500D01*
X135432500Y-101503500D01*
X135412815Y-101570539D01*
X135360011Y-101616294D01*
X135308500Y-101627500D01*
X134194092Y-101627500D01*
X134006469Y-101667380D01*
X134006468Y-101667380D01*
X133831236Y-101745398D01*
X133831235Y-101745399D01*
X133676056Y-101858143D01*
X133676054Y-101858145D01*
X133547709Y-102000686D01*
X133547704Y-102000694D01*
X133495387Y-102091310D01*
X133444820Y-102139526D01*
X133376213Y-102152748D01*
X133311348Y-102126780D01*
X133270820Y-102069866D01*
X133264000Y-102029310D01*
X133264000Y-97970689D01*
X133283685Y-97903650D01*
X133336489Y-97857895D01*
X133405647Y-97847951D01*
X133469203Y-97876976D01*
G37*
G04 #@! TD.AperFunction*
G04 #@! TA.AperFunction,Conductor*
G36*
X126619663Y-94533685D02*
G01*
X126665418Y-94586489D01*
X126675362Y-94655647D01*
X126646337Y-94719203D01*
X126640305Y-94725681D01*
X122904452Y-98461535D01*
X122843129Y-98495020D01*
X122773437Y-98490036D01*
X122717504Y-98448164D01*
X122693087Y-98382700D01*
X122697140Y-98349484D01*
X122695974Y-98349300D01*
X122714869Y-98230002D01*
X122714869Y-98229997D01*
X122697501Y-98120341D01*
X122657345Y-98041530D01*
X122647095Y-98021413D01*
X122647092Y-98021410D01*
X122647090Y-98021407D01*
X122627553Y-98001870D01*
X122594068Y-97940547D01*
X122599052Y-97870855D01*
X122640924Y-97814922D01*
X122706388Y-97790505D01*
X122734629Y-97791715D01*
X122801018Y-97802231D01*
X122801019Y-97802231D01*
X122821656Y-97798962D01*
X122910679Y-97784862D01*
X122910681Y-97784861D01*
X122919965Y-97781845D01*
X122919975Y-97781878D01*
X122937044Y-97776286D01*
X122936797Y-97775358D01*
X122942676Y-97773789D01*
X122942686Y-97773788D01*
X123221489Y-97669255D01*
X123265020Y-97661363D01*
X123295203Y-97661363D01*
X123295205Y-97661363D01*
X123333790Y-97645380D01*
X123373860Y-97628783D01*
X123434059Y-97568584D01*
X123434059Y-97568582D01*
X123445972Y-97556670D01*
X123445977Y-97556662D01*
X126452322Y-94550319D01*
X126513645Y-94516834D01*
X126540003Y-94514000D01*
X126552624Y-94514000D01*
X126619663Y-94533685D01*
G37*
G04 #@! TD.AperFunction*
G04 #@! TA.AperFunction,Conductor*
G36*
X120630539Y-91247185D02*
G01*
X120676294Y-91299989D01*
X120687500Y-91351500D01*
X120687500Y-92345679D01*
X120686821Y-92358640D01*
X120685140Y-92374639D01*
X120682474Y-92400000D01*
X120702524Y-92590764D01*
X120702525Y-92590767D01*
X120761795Y-92773185D01*
X120761798Y-92773191D01*
X120857705Y-92939307D01*
X120861528Y-92944569D01*
X120859328Y-92946166D01*
X120884373Y-92998308D01*
X120886000Y-93018331D01*
X120886000Y-93511319D01*
X120866315Y-93578358D01*
X120813511Y-93624113D01*
X120744353Y-93634057D01*
X120705707Y-93621805D01*
X120660945Y-93598998D01*
X120551290Y-93581631D01*
X120551286Y-93581631D01*
X120441629Y-93598998D01*
X120342702Y-93649404D01*
X120342695Y-93649409D01*
X120264197Y-93727907D01*
X120264192Y-93727914D01*
X120213786Y-93826841D01*
X120196419Y-93936497D01*
X120196419Y-93936502D01*
X120213786Y-94046158D01*
X120264192Y-94145085D01*
X120264197Y-94145092D01*
X120342695Y-94223590D01*
X120342698Y-94223592D01*
X120342701Y-94223595D01*
X120441627Y-94274000D01*
X120445068Y-94275753D01*
X120495865Y-94323727D01*
X120512660Y-94391548D01*
X120490123Y-94457683D01*
X120445069Y-94496722D01*
X120354299Y-94542972D01*
X120354298Y-94542973D01*
X120354293Y-94542976D01*
X120275795Y-94621474D01*
X120275790Y-94621481D01*
X120225384Y-94720408D01*
X120208017Y-94830064D01*
X120208017Y-94830070D01*
X120226667Y-94947827D01*
X120217712Y-95017120D01*
X120172716Y-95070572D01*
X120160490Y-95077708D01*
X120091414Y-95112904D01*
X120091407Y-95112909D01*
X120012909Y-95191407D01*
X120012904Y-95191414D01*
X119962498Y-95290342D01*
X119959482Y-95299625D01*
X119957758Y-95299064D01*
X119932871Y-95351558D01*
X119873558Y-95388487D01*
X119803696Y-95387487D01*
X119745464Y-95348875D01*
X119729845Y-95325316D01*
X119726964Y-95319661D01*
X119687095Y-95241413D01*
X119687092Y-95241410D01*
X119687090Y-95241407D01*
X119608592Y-95162909D01*
X119608588Y-95162906D01*
X119608587Y-95162905D01*
X119604743Y-95160946D01*
X119509658Y-95112498D01*
X119400002Y-95095131D01*
X119399998Y-95095131D01*
X119290341Y-95112498D01*
X119191414Y-95162904D01*
X119191407Y-95162909D01*
X119112909Y-95241407D01*
X119112904Y-95241414D01*
X119062498Y-95340341D01*
X119045131Y-95449997D01*
X119045131Y-95450002D01*
X119062498Y-95559658D01*
X119112904Y-95658585D01*
X119112909Y-95658592D01*
X119191407Y-95737090D01*
X119191410Y-95737092D01*
X119191413Y-95737095D01*
X119290339Y-95787500D01*
X119290341Y-95787501D01*
X119399998Y-95804869D01*
X119400000Y-95804869D01*
X119400002Y-95804869D01*
X119509658Y-95787501D01*
X119509659Y-95787500D01*
X119509661Y-95787500D01*
X119608587Y-95737095D01*
X119687095Y-95658587D01*
X119737500Y-95559661D01*
X119737501Y-95559657D01*
X119740518Y-95550375D01*
X119742243Y-95550935D01*
X119767116Y-95498455D01*
X119826423Y-95461517D01*
X119896286Y-95462507D01*
X119954523Y-95501110D01*
X119970151Y-95524678D01*
X120012360Y-95607518D01*
X120012906Y-95608588D01*
X120012909Y-95608592D01*
X120091407Y-95687090D01*
X120091410Y-95687092D01*
X120091413Y-95687095D01*
X120184418Y-95734483D01*
X120190341Y-95737501D01*
X120299998Y-95754869D01*
X120300000Y-95754869D01*
X120300001Y-95754869D01*
X120320638Y-95751600D01*
X120409661Y-95737500D01*
X120409663Y-95737499D01*
X120418947Y-95734483D01*
X120418957Y-95734516D01*
X120436026Y-95728924D01*
X120435779Y-95727996D01*
X120441658Y-95726427D01*
X120441668Y-95726426D01*
X120703529Y-95628245D01*
X120773210Y-95623142D01*
X120834591Y-95656522D01*
X120868181Y-95717787D01*
X120864991Y-95782671D01*
X120862499Y-95790340D01*
X120845131Y-95899997D01*
X120845131Y-95900002D01*
X120862498Y-96009658D01*
X120912904Y-96108585D01*
X120912909Y-96108592D01*
X120991407Y-96187090D01*
X120991410Y-96187092D01*
X120991413Y-96187095D01*
X121054052Y-96219011D01*
X121090341Y-96237501D01*
X121199998Y-96254869D01*
X121200000Y-96254869D01*
X121200001Y-96254869D01*
X121220638Y-96251600D01*
X121309661Y-96237500D01*
X121309663Y-96237499D01*
X121318947Y-96234483D01*
X121318957Y-96234516D01*
X121336026Y-96228924D01*
X121335779Y-96227996D01*
X121341658Y-96226427D01*
X121341668Y-96226426D01*
X121620474Y-96121892D01*
X121664005Y-96114000D01*
X121942991Y-96114000D01*
X121942999Y-96114001D01*
X121957433Y-96114001D01*
X122042567Y-96114001D01*
X122075146Y-96100505D01*
X122121222Y-96081421D01*
X122181421Y-96021222D01*
X122181421Y-96021219D01*
X122193336Y-96009305D01*
X122193339Y-96009300D01*
X124239300Y-93963340D01*
X124239308Y-93963334D01*
X124251220Y-93951421D01*
X124251222Y-93951421D01*
X124311421Y-93891222D01*
X124338089Y-93826839D01*
X124344001Y-93812567D01*
X124344001Y-93727433D01*
X124344001Y-93717444D01*
X124344000Y-93717430D01*
X124344000Y-93364102D01*
X124363685Y-93297063D01*
X124416489Y-93251308D01*
X124417481Y-93250860D01*
X124588763Y-93174601D01*
X124743945Y-93061855D01*
X124850594Y-92943409D01*
X124872290Y-92919313D01*
X124872295Y-92919306D01*
X124897224Y-92876128D01*
X124968202Y-92753191D01*
X125027476Y-92570764D01*
X125047526Y-92380000D01*
X125043179Y-92338640D01*
X125042500Y-92325679D01*
X125042500Y-91351500D01*
X125062185Y-91284461D01*
X125114989Y-91238706D01*
X125166500Y-91227500D01*
X125633500Y-91227500D01*
X125700539Y-91247185D01*
X125746294Y-91299989D01*
X125757500Y-91351500D01*
X125757500Y-92325679D01*
X125756820Y-92338640D01*
X125752474Y-92380000D01*
X125772524Y-92570764D01*
X125772525Y-92570767D01*
X125831795Y-92753185D01*
X125831798Y-92753191D01*
X125927704Y-92919306D01*
X125927709Y-92919313D01*
X126056054Y-93061854D01*
X126056056Y-93061856D01*
X126211235Y-93174600D01*
X126211236Y-93174601D01*
X126382433Y-93250822D01*
X126386469Y-93252619D01*
X126574092Y-93292500D01*
X126765908Y-93292500D01*
X126953531Y-93252619D01*
X127128763Y-93174601D01*
X127283945Y-93061855D01*
X127390594Y-92943409D01*
X127412290Y-92919313D01*
X127412295Y-92919306D01*
X127437224Y-92876128D01*
X127508202Y-92753191D01*
X127567476Y-92570764D01*
X127587526Y-92380000D01*
X127583179Y-92338640D01*
X127582500Y-92325679D01*
X127582500Y-91351500D01*
X127602185Y-91284461D01*
X127654989Y-91238706D01*
X127706500Y-91227500D01*
X128163500Y-91227500D01*
X128230539Y-91247185D01*
X128276294Y-91299989D01*
X128287500Y-91351500D01*
X128287500Y-92325679D01*
X128286820Y-92338640D01*
X128282474Y-92380000D01*
X128302524Y-92570764D01*
X128302525Y-92570767D01*
X128361795Y-92753185D01*
X128361796Y-92753186D01*
X128361798Y-92753191D01*
X128373345Y-92773191D01*
X128373656Y-92773729D01*
X128390126Y-92841630D01*
X128367273Y-92907656D01*
X128353948Y-92923408D01*
X127627678Y-93649681D01*
X127566355Y-93683166D01*
X127539997Y-93686000D01*
X125820611Y-93686000D01*
X125820603Y-93685999D01*
X125806169Y-93685999D01*
X125721035Y-93685999D01*
X125721033Y-93685999D01*
X125688455Y-93699493D01*
X125688455Y-93699494D01*
X125645154Y-93717430D01*
X125642380Y-93718579D01*
X123068585Y-96292374D01*
X123032223Y-96317575D01*
X122761157Y-96440806D01*
X122761147Y-96440812D01*
X122746842Y-96450882D01*
X122731767Y-96459966D01*
X122683211Y-96484707D01*
X122604710Y-96563208D01*
X122604705Y-96563215D01*
X122554299Y-96662142D01*
X122536932Y-96771798D01*
X122536932Y-96771803D01*
X122554299Y-96881459D01*
X122604705Y-96980386D01*
X122610445Y-96988287D01*
X122608239Y-96989889D01*
X122634547Y-97038068D01*
X122629563Y-97107760D01*
X122597095Y-97151130D01*
X122599331Y-97153366D01*
X122513927Y-97238769D01*
X122513922Y-97238776D01*
X122463516Y-97337703D01*
X122446149Y-97447359D01*
X122446149Y-97447364D01*
X122463516Y-97557020D01*
X122513922Y-97655947D01*
X122513927Y-97655954D01*
X122533464Y-97675491D01*
X122566949Y-97736814D01*
X122561965Y-97806506D01*
X122520093Y-97862439D01*
X122454629Y-97886856D01*
X122426385Y-97885645D01*
X122360002Y-97875131D01*
X122359998Y-97875131D01*
X122250344Y-97892498D01*
X122241061Y-97895515D01*
X122241051Y-97895486D01*
X122223971Y-97901087D01*
X122224216Y-97902003D01*
X122218332Y-97903571D01*
X121939521Y-98008107D01*
X121895989Y-98016000D01*
X120610760Y-98016000D01*
X120543721Y-97996315D01*
X120523079Y-97979681D01*
X120495697Y-97952299D01*
X120462212Y-97890976D01*
X120459378Y-97864618D01*
X120459378Y-97552387D01*
X120459379Y-97552378D01*
X120459379Y-97452812D01*
X120459378Y-97452808D01*
X120440591Y-97407454D01*
X120440589Y-97407451D01*
X120437503Y-97400000D01*
X120426799Y-97374156D01*
X120366600Y-97313957D01*
X120366598Y-97313956D01*
X120359532Y-97306890D01*
X120359532Y-97306889D01*
X120359528Y-97306886D01*
X115311526Y-92258885D01*
X115290738Y-92231290D01*
X115289785Y-92229569D01*
X115068319Y-91967816D01*
X115066998Y-91966315D01*
X115064284Y-91963232D01*
X115063666Y-91962557D01*
X115063663Y-91962555D01*
X115063664Y-91962555D01*
X115054046Y-91955782D01*
X115037762Y-91942080D01*
X115008591Y-91912908D01*
X115008585Y-91912904D01*
X114909658Y-91862498D01*
X114800002Y-91845131D01*
X114799998Y-91845131D01*
X114690344Y-91862498D01*
X114681061Y-91865515D01*
X114681051Y-91865486D01*
X114663971Y-91871087D01*
X114664216Y-91872003D01*
X114658332Y-91873571D01*
X114379521Y-91978107D01*
X114335989Y-91986000D01*
X110293571Y-91986000D01*
X110226532Y-91966315D01*
X110180777Y-91913511D01*
X110170833Y-91844353D01*
X110198584Y-91782291D01*
X110203743Y-91776141D01*
X110203748Y-91776138D01*
X110256734Y-91684363D01*
X110275136Y-91580000D01*
X110256734Y-91475637D01*
X110256731Y-91475631D01*
X110220860Y-91413500D01*
X110204387Y-91345600D01*
X110227240Y-91279573D01*
X110282161Y-91236382D01*
X110328247Y-91227500D01*
X120563500Y-91227500D01*
X120630539Y-91247185D01*
G37*
G04 #@! TD.AperFunction*
G04 #@! TA.AperFunction,Conductor*
G36*
X123160539Y-91247185D02*
G01*
X123206294Y-91299989D01*
X123217500Y-91351500D01*
X123217500Y-92325679D01*
X123216820Y-92338640D01*
X123212474Y-92380000D01*
X123232524Y-92570764D01*
X123232525Y-92570767D01*
X123291795Y-92753185D01*
X123291798Y-92753191D01*
X123387704Y-92919306D01*
X123387709Y-92919313D01*
X123516054Y-93061854D01*
X123516056Y-93061856D01*
X123671235Y-93174600D01*
X123671237Y-93174601D01*
X123842435Y-93250823D01*
X123895672Y-93296072D01*
X123915994Y-93362921D01*
X123916000Y-93364102D01*
X123916000Y-93629997D01*
X123896315Y-93697036D01*
X123879681Y-93717678D01*
X121947678Y-95649681D01*
X121886355Y-95683166D01*
X121859997Y-95686000D01*
X121664010Y-95686000D01*
X121620479Y-95678107D01*
X121544661Y-95649681D01*
X121341667Y-95573571D01*
X121336085Y-95572055D01*
X121336282Y-95571328D01*
X121314768Y-95564159D01*
X121309657Y-95562498D01*
X121231030Y-95550045D01*
X121167896Y-95520115D01*
X121130965Y-95460804D01*
X121131963Y-95390941D01*
X121162746Y-95339893D01*
X121209300Y-95293340D01*
X121209308Y-95293334D01*
X121221220Y-95281421D01*
X121221222Y-95281421D01*
X121281421Y-95221222D01*
X121281423Y-95221215D01*
X121286460Y-95213679D01*
X121340071Y-95168873D01*
X121409395Y-95160163D01*
X121445854Y-95172080D01*
X121494550Y-95196892D01*
X121494552Y-95196892D01*
X121494554Y-95196893D01*
X121604209Y-95214261D01*
X121604211Y-95214261D01*
X121604213Y-95214261D01*
X121713869Y-95196893D01*
X121713870Y-95196892D01*
X121713872Y-95196892D01*
X121812798Y-95146487D01*
X121891306Y-95067979D01*
X121941711Y-94969053D01*
X121941711Y-94969051D01*
X121941712Y-94969050D01*
X121959080Y-94859394D01*
X121959080Y-94859389D01*
X121941712Y-94749733D01*
X121903493Y-94674724D01*
X121891306Y-94650805D01*
X121891303Y-94650802D01*
X121891301Y-94650799D01*
X121812803Y-94572301D01*
X121812799Y-94572298D01*
X121812798Y-94572297D01*
X121713872Y-94521892D01*
X121713871Y-94521891D01*
X121705177Y-94517462D01*
X121706795Y-94514286D01*
X121663896Y-94484927D01*
X121636725Y-94420558D01*
X121648667Y-94351716D01*
X121695932Y-94300260D01*
X121740519Y-94284001D01*
X121803662Y-94274000D01*
X121902588Y-94223595D01*
X121981096Y-94145087D01*
X122031501Y-94046161D01*
X122031501Y-94046159D01*
X122031502Y-94046158D01*
X122048870Y-93936502D01*
X122048870Y-93936497D01*
X122031502Y-93826841D01*
X122007013Y-93778778D01*
X121981096Y-93727913D01*
X121981093Y-93727910D01*
X121981091Y-93727907D01*
X121902593Y-93649409D01*
X121902589Y-93649406D01*
X121902588Y-93649405D01*
X121872466Y-93634057D01*
X121803659Y-93598998D01*
X121694003Y-93581631D01*
X121693999Y-93581631D01*
X121584342Y-93598998D01*
X121494294Y-93644880D01*
X121425625Y-93657776D01*
X121360884Y-93631499D01*
X121320628Y-93574392D01*
X121314000Y-93534395D01*
X121314000Y-93425221D01*
X121333685Y-93358182D01*
X121386489Y-93312427D01*
X121455647Y-93302483D01*
X121463755Y-93303926D01*
X121504092Y-93312500D01*
X121504094Y-93312500D01*
X121695908Y-93312500D01*
X121883531Y-93272619D01*
X122058763Y-93194601D01*
X122213945Y-93081855D01*
X122314001Y-92970731D01*
X122342290Y-92939313D01*
X122342295Y-92939307D01*
X122438202Y-92773191D01*
X122497476Y-92590764D01*
X122517526Y-92400000D01*
X122513179Y-92358640D01*
X122512500Y-92345679D01*
X122512500Y-91351500D01*
X122532185Y-91284461D01*
X122584989Y-91238706D01*
X122636500Y-91227500D01*
X123093500Y-91227500D01*
X123160539Y-91247185D01*
G37*
G04 #@! TD.AperFunction*
G04 #@! TD*
G04 #@! TA.AperFunction,Conductor*
G04 #@! TO.N,/~{CRESET}*
G36*
X133421875Y-96019483D02*
G01*
X133427822Y-96025607D01*
X133499104Y-96195477D01*
X133499145Y-96204432D01*
X133499104Y-96204531D01*
X133427822Y-96374400D01*
X133421460Y-96380703D01*
X133412926Y-96380827D01*
X133253470Y-96321043D01*
X133107596Y-96266350D01*
X133101053Y-96260237D01*
X133100004Y-96255395D01*
X133100004Y-96144612D01*
X133103431Y-96136339D01*
X133107594Y-96133658D01*
X133412928Y-96019179D01*
X133421875Y-96019483D01*
G37*
G04 #@! TD.AperFunction*
G04 #@! TD*
G04 #@! TA.AperFunction,Conductor*
G04 #@! TO.N,/SPI_COPI-IO0*
G36*
X129235325Y-101234359D02*
G01*
X129242580Y-101239610D01*
X129244315Y-101245741D01*
X129244315Y-101356482D01*
X129240888Y-101364755D01*
X129238124Y-101366804D01*
X128941419Y-101525175D01*
X128932507Y-101526047D01*
X128925588Y-101520362D01*
X128925127Y-101519393D01*
X128854452Y-101350971D01*
X128854412Y-101342018D01*
X128926250Y-101170822D01*
X128932610Y-101164521D01*
X128939745Y-101163969D01*
X129235325Y-101234359D01*
G37*
G04 #@! TD.AperFunction*
G04 #@! TD*
G04 #@! TA.AperFunction,Conductor*
G04 #@! TO.N,/SPI_~{CS}*
G36*
X132999437Y-105875611D02*
G01*
X133296289Y-106010565D01*
X133302402Y-106017109D01*
X133302277Y-106025644D01*
X133232564Y-106196162D01*
X133226261Y-106202523D01*
X133226162Y-106202564D01*
X133055644Y-106272277D01*
X133046689Y-106272236D01*
X133040565Y-106266289D01*
X132905611Y-105969438D01*
X132905308Y-105960491D01*
X132907988Y-105956327D01*
X132986326Y-105877989D01*
X132994598Y-105874563D01*
X132999437Y-105875611D01*
G37*
G04 #@! TD.AperFunction*
G04 #@! TD*
G04 #@! TA.AperFunction,Conductor*
G04 #@! TO.N,/SPI_SCK*
G36*
X127373890Y-96577763D02*
G01*
X127380014Y-96583710D01*
X127514967Y-96880559D01*
X127515271Y-96889508D01*
X127512589Y-96893674D01*
X127434254Y-96972009D01*
X127425981Y-96975436D01*
X127421139Y-96974387D01*
X127124290Y-96839434D01*
X127118177Y-96832890D01*
X127118301Y-96824358D01*
X127188015Y-96653836D01*
X127194318Y-96647476D01*
X127194360Y-96647458D01*
X127364938Y-96577722D01*
X127373890Y-96577763D01*
G37*
G04 #@! TD.AperFunction*
G04 #@! TD*
G04 #@! TA.AperFunction,Conductor*
G04 #@! TO.N,/GPIO5*
G36*
X114583674Y-100887990D02*
G01*
X114662009Y-100966325D01*
X114665436Y-100974598D01*
X114664387Y-100979440D01*
X114529434Y-101276289D01*
X114522890Y-101282402D01*
X114514355Y-101282277D01*
X114456326Y-101258553D01*
X114343837Y-101212564D01*
X114337476Y-101206261D01*
X114337435Y-101206162D01*
X114330360Y-101188856D01*
X114267722Y-101035641D01*
X114267763Y-101026689D01*
X114273709Y-101020565D01*
X114570561Y-100885611D01*
X114579508Y-100885308D01*
X114583674Y-100887990D01*
G37*
G04 #@! TD.AperFunction*
G04 #@! TD*
G04 #@! TA.AperFunction,Conductor*
G04 #@! TO.N,Net-(U7-~{SUSPEND})*
G36*
X111392567Y-102903657D02*
G01*
X111399111Y-102909770D01*
X111400160Y-102914612D01*
X111400160Y-103025395D01*
X111396733Y-103033668D01*
X111392567Y-103036350D01*
X111087237Y-103150828D01*
X111078288Y-103150524D01*
X111072341Y-103144400D01*
X111001058Y-102974529D01*
X111001018Y-102965577D01*
X111001031Y-102965544D01*
X111072342Y-102795605D01*
X111078702Y-102789304D01*
X111087235Y-102789179D01*
X111392567Y-102903657D01*
G37*
G04 #@! TD.AperFunction*
G04 #@! TD*
G04 #@! TA.AperFunction,Conductor*
G04 #@! TO.N,Net-(U7-~{SUSPEND})*
G36*
X112369437Y-103275611D02*
G01*
X112666289Y-103410565D01*
X112672402Y-103417109D01*
X112672277Y-103425644D01*
X112602564Y-103596162D01*
X112596261Y-103602523D01*
X112596162Y-103602564D01*
X112425644Y-103672277D01*
X112416689Y-103672236D01*
X112410565Y-103666289D01*
X112275611Y-103369438D01*
X112275308Y-103360491D01*
X112277988Y-103356327D01*
X112356326Y-103277989D01*
X112364598Y-103274563D01*
X112369437Y-103275611D01*
G37*
G04 #@! TD.AperFunction*
G04 #@! TD*
G04 #@! TA.AperFunction,Conductor*
G04 #@! TO.N,/SPI_~{WP}-IO2*
G36*
X131817725Y-96756592D02*
G01*
X131824028Y-96762954D01*
X131823987Y-96771908D01*
X131823545Y-96772842D01*
X131666793Y-97069864D01*
X131659901Y-97075581D01*
X131656446Y-97076103D01*
X131545694Y-97076103D01*
X131537421Y-97072676D01*
X131534326Y-97067169D01*
X131462317Y-96771230D01*
X131463690Y-96762383D01*
X131469156Y-96757678D01*
X131640209Y-96685899D01*
X131649163Y-96685859D01*
X131817725Y-96756592D01*
G37*
G04 #@! TD.AperFunction*
G04 #@! TD*
G04 #@! TA.AperFunction,Conductor*
G04 #@! TO.N,/SPI_COPI-IO0*
G36*
X128586144Y-96722181D02*
G01*
X128592447Y-96728543D01*
X128592572Y-96737077D01*
X128478095Y-97042407D01*
X128471982Y-97048951D01*
X128467140Y-97050000D01*
X128356356Y-97050000D01*
X128348083Y-97046573D01*
X128345401Y-97042407D01*
X128230923Y-96737075D01*
X128231227Y-96728128D01*
X128237349Y-96722182D01*
X128407222Y-96650898D01*
X128416176Y-96650858D01*
X128586144Y-96722181D01*
G37*
G04 #@! TD.AperFunction*
G04 #@! TD*
G04 #@! TA.AperFunction,Conductor*
G04 #@! TO.N,/U0TXD*
G36*
X117665992Y-102556838D02*
G01*
X117666304Y-102557161D01*
X117880309Y-102788262D01*
X117883415Y-102796661D01*
X117880038Y-102804444D01*
X117750657Y-102935124D01*
X117742401Y-102938592D01*
X117742302Y-102938592D01*
X117559034Y-102937947D01*
X117550773Y-102934491D01*
X117547375Y-102926206D01*
X117547406Y-102925401D01*
X117556176Y-102804444D01*
X117567926Y-102642387D01*
X117571320Y-102634964D01*
X117649447Y-102556837D01*
X117657719Y-102553411D01*
X117665992Y-102556838D01*
G37*
G04 #@! TD.AperFunction*
G04 #@! TD*
G04 #@! TA.AperFunction,Conductor*
G04 #@! TO.N,/DTR*
G36*
X111521871Y-95219479D02*
G01*
X111527818Y-95225603D01*
X111599100Y-95395473D01*
X111599141Y-95404428D01*
X111599100Y-95404527D01*
X111527818Y-95574396D01*
X111521456Y-95580699D01*
X111512922Y-95580823D01*
X111353466Y-95521039D01*
X111207592Y-95466346D01*
X111201049Y-95460233D01*
X111200000Y-95455391D01*
X111200000Y-95344608D01*
X111203427Y-95336335D01*
X111207590Y-95333654D01*
X111512924Y-95219175D01*
X111521871Y-95219479D01*
G37*
G04 #@! TD.AperFunction*
G04 #@! TD*
G04 #@! TA.AperFunction,Conductor*
G04 #@! TO.N,/DTR*
G36*
X109243674Y-96227990D02*
G01*
X109322009Y-96306325D01*
X109325436Y-96314598D01*
X109324387Y-96319440D01*
X109189434Y-96616289D01*
X109182890Y-96622402D01*
X109174355Y-96622277D01*
X109116326Y-96598553D01*
X109003837Y-96552564D01*
X108997476Y-96546261D01*
X108997435Y-96546162D01*
X108990360Y-96528856D01*
X108927722Y-96375641D01*
X108927763Y-96366689D01*
X108933709Y-96360565D01*
X109230561Y-96225611D01*
X109239508Y-96225308D01*
X109243674Y-96227990D01*
G37*
G04 #@! TD.AperFunction*
G04 #@! TD*
G04 #@! TA.AperFunction,Conductor*
G04 #@! TO.N,/GPIO38*
G36*
X122622407Y-99293653D02*
G01*
X122628951Y-99299766D01*
X122630000Y-99304608D01*
X122630000Y-99415391D01*
X122626573Y-99423664D01*
X122622407Y-99426346D01*
X122317077Y-99540824D01*
X122308128Y-99540520D01*
X122302181Y-99534396D01*
X122230898Y-99364525D01*
X122230858Y-99355573D01*
X122230871Y-99355540D01*
X122302182Y-99185601D01*
X122308542Y-99179300D01*
X122317075Y-99179175D01*
X122622407Y-99293653D01*
G37*
G04 #@! TD.AperFunction*
G04 #@! TD*
G04 #@! TA.AperFunction,Conductor*
G04 #@! TO.N,/GPIO23*
G36*
X116275536Y-101483656D02*
G01*
X116282080Y-101489769D01*
X116283129Y-101494611D01*
X116283129Y-101605394D01*
X116279702Y-101613667D01*
X116275536Y-101616349D01*
X115970206Y-101730827D01*
X115961257Y-101730523D01*
X115955310Y-101724399D01*
X115884027Y-101554528D01*
X115883987Y-101545576D01*
X115884000Y-101545543D01*
X115955311Y-101375604D01*
X115961671Y-101369303D01*
X115970204Y-101369178D01*
X116275536Y-101483656D01*
G37*
G04 #@! TD.AperFunction*
G04 #@! TD*
G04 #@! TA.AperFunction,Conductor*
G04 #@! TO.N,/GPIO11-~{LEDB}*
G36*
X116043665Y-94813427D02*
G01*
X116046346Y-94817592D01*
X116160824Y-95122922D01*
X116160520Y-95131871D01*
X116154396Y-95137818D01*
X115984527Y-95209100D01*
X115975573Y-95209141D01*
X115975473Y-95209100D01*
X115805603Y-95137818D01*
X115799300Y-95131457D01*
X115799175Y-95122924D01*
X115913653Y-94817591D01*
X115919766Y-94811049D01*
X115924608Y-94810000D01*
X116035392Y-94810000D01*
X116043665Y-94813427D01*
G37*
G04 #@! TD.AperFunction*
G04 #@! TD*
G04 #@! TA.AperFunction,Conductor*
G04 #@! TO.N,/~{CRESET}*
G36*
X133325645Y-96127725D02*
G01*
X133478860Y-96190364D01*
X133496166Y-96197439D01*
X133502527Y-96203742D01*
X133502568Y-96203841D01*
X133572281Y-96374359D01*
X133572240Y-96383314D01*
X133566293Y-96389438D01*
X133269444Y-96524391D01*
X133260495Y-96524695D01*
X133256329Y-96522013D01*
X133177994Y-96443678D01*
X133174567Y-96435405D01*
X133175615Y-96430567D01*
X133310569Y-96133713D01*
X133317113Y-96127601D01*
X133325645Y-96127725D01*
G37*
G04 #@! TD.AperFunction*
G04 #@! TD*
G04 #@! TA.AperFunction,Conductor*
G04 #@! TO.N,/USB_N*
G36*
X105263665Y-99303427D02*
G01*
X105266346Y-99307592D01*
X105380824Y-99612922D01*
X105380520Y-99621871D01*
X105374396Y-99627818D01*
X105204527Y-99699100D01*
X105195573Y-99699141D01*
X105195473Y-99699100D01*
X105025603Y-99627818D01*
X105019300Y-99621457D01*
X105019175Y-99612924D01*
X105133653Y-99307591D01*
X105139766Y-99301049D01*
X105144608Y-99300000D01*
X105255392Y-99300000D01*
X105263665Y-99303427D01*
G37*
G04 #@! TD.AperFunction*
G04 #@! TD*
G04 #@! TA.AperFunction,Conductor*
G04 #@! TO.N,/GPIO39*
G36*
X122244864Y-98564746D02*
G01*
X122245641Y-98565106D01*
X122250339Y-98567500D01*
X122271208Y-98570805D01*
X122273474Y-98571403D01*
X122551248Y-98675549D01*
X122557792Y-98681662D01*
X122558841Y-98686504D01*
X122558841Y-98797287D01*
X122555414Y-98805560D01*
X122551248Y-98808242D01*
X122245918Y-98922720D01*
X122236969Y-98922416D01*
X122231022Y-98916292D01*
X122185681Y-98808242D01*
X122159739Y-98746421D01*
X122159699Y-98737468D01*
X122229551Y-98571004D01*
X122235909Y-98564705D01*
X122244864Y-98564746D01*
G37*
G04 #@! TD.AperFunction*
G04 #@! TD*
G04 #@! TA.AperFunction,Conductor*
G04 #@! TO.N,/GPIO0-BOOT*
G36*
X109911837Y-91445110D02*
G01*
X109916419Y-91450488D01*
X109969085Y-91575456D01*
X109969140Y-91584411D01*
X109969085Y-91584544D01*
X109917052Y-91708010D01*
X109910681Y-91714303D01*
X109901939Y-91714335D01*
X109681347Y-91626436D01*
X109674930Y-91620190D01*
X109673978Y-91615567D01*
X109673978Y-91505806D01*
X109677405Y-91497533D01*
X109683043Y-91494407D01*
X109903005Y-91443632D01*
X109911837Y-91445110D01*
G37*
G04 #@! TD.AperFunction*
G04 #@! TD*
G04 #@! TA.AperFunction,Conductor*
G04 #@! TO.N,/~{CRESET}*
G36*
X114194437Y-106575611D02*
G01*
X114491289Y-106710565D01*
X114497402Y-106717109D01*
X114497277Y-106725644D01*
X114427564Y-106896162D01*
X114421261Y-106902523D01*
X114421162Y-106902564D01*
X114250644Y-106972277D01*
X114241689Y-106972236D01*
X114235565Y-106966289D01*
X114100611Y-106669438D01*
X114100308Y-106660491D01*
X114102988Y-106656327D01*
X114181326Y-106577989D01*
X114189598Y-106574563D01*
X114194437Y-106575611D01*
G37*
G04 #@! TD.AperFunction*
G04 #@! TD*
G04 #@! TA.AperFunction,Conductor*
G04 #@! TO.N,/GPIO21*
G36*
X117883310Y-103627763D02*
G01*
X117889434Y-103633710D01*
X118024387Y-103930559D01*
X118024691Y-103939508D01*
X118022009Y-103943674D01*
X117943674Y-104022009D01*
X117935401Y-104025436D01*
X117930559Y-104024387D01*
X117633710Y-103889434D01*
X117627597Y-103882890D01*
X117627721Y-103874358D01*
X117697435Y-103703836D01*
X117703738Y-103697476D01*
X117703780Y-103697458D01*
X117874358Y-103627722D01*
X117883310Y-103627763D01*
G37*
G04 #@! TD.AperFunction*
G04 #@! TD*
G04 #@! TA.AperFunction,Conductor*
G04 #@! TO.N,/SPI_CIPO-IO1*
G36*
X130598663Y-103738425D02*
G01*
X130601344Y-103742590D01*
X130715822Y-104047920D01*
X130715518Y-104056869D01*
X130709394Y-104062816D01*
X130539525Y-104134098D01*
X130530571Y-104134139D01*
X130530471Y-104134098D01*
X130360601Y-104062816D01*
X130354298Y-104056455D01*
X130354173Y-104047922D01*
X130468651Y-103742589D01*
X130474764Y-103736047D01*
X130479606Y-103734998D01*
X130590390Y-103734998D01*
X130598663Y-103738425D01*
G37*
G04 #@! TD.AperFunction*
G04 #@! TD*
G04 #@! TA.AperFunction,Conductor*
G04 #@! TO.N,/SPI_COPI-IO0*
G36*
X114690409Y-100033536D02*
G01*
X114696953Y-100039649D01*
X114698002Y-100044491D01*
X114698002Y-100155274D01*
X114694575Y-100163547D01*
X114690409Y-100166229D01*
X114385079Y-100280707D01*
X114376130Y-100280403D01*
X114370183Y-100274279D01*
X114298900Y-100104408D01*
X114298860Y-100095456D01*
X114298873Y-100095423D01*
X114370184Y-99925484D01*
X114376544Y-99919183D01*
X114385077Y-99919058D01*
X114690409Y-100033536D01*
G37*
G04 #@! TD.AperFunction*
G04 #@! TD*
G04 #@! TA.AperFunction,Conductor*
G04 #@! TO.N,/GPIO22*
G36*
X116603312Y-103607763D02*
G01*
X116609436Y-103613710D01*
X116744389Y-103910559D01*
X116744693Y-103919508D01*
X116742011Y-103923674D01*
X116663676Y-104002009D01*
X116655403Y-104005436D01*
X116650561Y-104004387D01*
X116353712Y-103869434D01*
X116347599Y-103862890D01*
X116347723Y-103854358D01*
X116417437Y-103683836D01*
X116423740Y-103677476D01*
X116423782Y-103677458D01*
X116594360Y-103607722D01*
X116603312Y-103607763D01*
G37*
G04 #@! TD.AperFunction*
G04 #@! TD*
G04 #@! TA.AperFunction,Conductor*
G04 #@! TO.N,/GPIO34*
G36*
X123193425Y-97381015D02*
G01*
X123199969Y-97387128D01*
X123201018Y-97391970D01*
X123201018Y-97502753D01*
X123197591Y-97511026D01*
X123193425Y-97513708D01*
X122888095Y-97628186D01*
X122879146Y-97627882D01*
X122873199Y-97621758D01*
X122801916Y-97451887D01*
X122801876Y-97442935D01*
X122801889Y-97442902D01*
X122873200Y-97272963D01*
X122879560Y-97266662D01*
X122888093Y-97266537D01*
X123193425Y-97381015D01*
G37*
G04 #@! TD.AperFunction*
G04 #@! TD*
G04 #@! TA.AperFunction,Conductor*
G04 #@! TO.N,/~{CRESET}*
G36*
X133569433Y-103475611D02*
G01*
X133866285Y-103610565D01*
X133872398Y-103617109D01*
X133872273Y-103625644D01*
X133802560Y-103796162D01*
X133796257Y-103802523D01*
X133796158Y-103802564D01*
X133625640Y-103872277D01*
X133616685Y-103872236D01*
X133610561Y-103866289D01*
X133475607Y-103569438D01*
X133475304Y-103560491D01*
X133477984Y-103556327D01*
X133556322Y-103477989D01*
X133564594Y-103474563D01*
X133569433Y-103475611D01*
G37*
G04 #@! TD.AperFunction*
G04 #@! TD*
G04 #@! TA.AperFunction,Conductor*
G04 #@! TO.N,/GPIO35*
G36*
X123135475Y-96449791D02*
G01*
X123213810Y-96528126D01*
X123217237Y-96536399D01*
X123216188Y-96541241D01*
X123081235Y-96838090D01*
X123074691Y-96844203D01*
X123066156Y-96844078D01*
X123008127Y-96820354D01*
X122895638Y-96774365D01*
X122889277Y-96768062D01*
X122889236Y-96767963D01*
X122882161Y-96750657D01*
X122819523Y-96597442D01*
X122819564Y-96588490D01*
X122825510Y-96582366D01*
X123122362Y-96447412D01*
X123131309Y-96447109D01*
X123135475Y-96449791D01*
G37*
G04 #@! TD.AperFunction*
G04 #@! TD*
G04 #@! TA.AperFunction,Conductor*
G04 #@! TO.N,/U0RXD*
G36*
X117123665Y-103133427D02*
G01*
X117126346Y-103137592D01*
X117240824Y-103442922D01*
X117240520Y-103451871D01*
X117234396Y-103457818D01*
X117064527Y-103529100D01*
X117055573Y-103529141D01*
X117055473Y-103529100D01*
X116885603Y-103457818D01*
X116879300Y-103451457D01*
X116879175Y-103442924D01*
X116993653Y-103137591D01*
X116999766Y-103131049D01*
X117004608Y-103130000D01*
X117115392Y-103130000D01*
X117123665Y-103133427D01*
G37*
G04 #@! TD.AperFunction*
G04 #@! TD*
G04 #@! TA.AperFunction,Conductor*
G04 #@! TO.N,/~{CRESET}*
G36*
X114948975Y-92067563D02*
G01*
X114949593Y-92068238D01*
X115171073Y-92330007D01*
X115173801Y-92338536D01*
X115170414Y-92345837D01*
X115092131Y-92424120D01*
X115083858Y-92427547D01*
X115082726Y-92427492D01*
X114860779Y-92405910D01*
X114810529Y-92401023D01*
X114802627Y-92396813D01*
X114799962Y-92389422D01*
X114799310Y-92204196D01*
X114802708Y-92195912D01*
X114802710Y-92195909D01*
X114932429Y-92067480D01*
X114940719Y-92064095D01*
X114948975Y-92067563D01*
G37*
G04 #@! TD.AperFunction*
G04 #@! TD*
G04 #@! TA.AperFunction,Conductor*
G04 #@! TO.N,/~{CRESET}*
G36*
X114721871Y-92019479D02*
G01*
X114727818Y-92025603D01*
X114799100Y-92195473D01*
X114799141Y-92204428D01*
X114799100Y-92204527D01*
X114727818Y-92374396D01*
X114721456Y-92380699D01*
X114712922Y-92380823D01*
X114553466Y-92321039D01*
X114407592Y-92266346D01*
X114401049Y-92260233D01*
X114400000Y-92255391D01*
X114400000Y-92144608D01*
X114403427Y-92136335D01*
X114407590Y-92133654D01*
X114712924Y-92019175D01*
X114721871Y-92019479D01*
G37*
G04 #@! TD.AperFunction*
G04 #@! TD*
G04 #@! TA.AperFunction,Conductor*
G04 #@! TO.N,/SPI_CIPO-IO1*
G36*
X130626212Y-97327955D02*
G01*
X130795471Y-97397148D01*
X130801833Y-97403451D01*
X130801862Y-97403521D01*
X130871952Y-97573647D01*
X130871935Y-97582602D01*
X130865591Y-97588922D01*
X130865283Y-97589044D01*
X130641577Y-97673893D01*
X130607534Y-97686806D01*
X130600502Y-97689473D01*
X130596353Y-97690233D01*
X130488649Y-97690233D01*
X130480376Y-97686806D01*
X130476949Y-97678533D01*
X130477756Y-97674264D01*
X130513675Y-97582602D01*
X130610893Y-97334514D01*
X130617101Y-97328064D01*
X130626054Y-97327892D01*
X130626212Y-97327955D01*
G37*
G04 #@! TD.AperFunction*
G04 #@! TD*
G04 #@! TA.AperFunction,Conductor*
G04 #@! TO.N,/SPI_~{HLD}-IO3*
G36*
X127174396Y-97672181D02*
G01*
X127180699Y-97678543D01*
X127180824Y-97687077D01*
X127066347Y-97992407D01*
X127060234Y-97998951D01*
X127055392Y-98000000D01*
X126944608Y-98000000D01*
X126936335Y-97996573D01*
X126933653Y-97992407D01*
X126819175Y-97687075D01*
X126819479Y-97678128D01*
X126825601Y-97672182D01*
X126995474Y-97600898D01*
X127004428Y-97600858D01*
X127174396Y-97672181D01*
G37*
G04 #@! TD.AperFunction*
G04 #@! TD*
G04 #@! TA.AperFunction,Conductor*
G04 #@! TO.N,/SPI_CIPO-IO1*
G36*
X114233163Y-100451736D02*
G01*
X114587872Y-100498541D01*
X114595625Y-100503020D01*
X114598041Y-100510140D01*
X114598041Y-100620767D01*
X114594614Y-100629040D01*
X114593021Y-100630373D01*
X114369425Y-100785854D01*
X114360676Y-100787764D01*
X114354501Y-100784550D01*
X114222480Y-100653456D01*
X114219024Y-100645195D01*
X114219933Y-100463276D01*
X114223401Y-100455022D01*
X114231691Y-100451636D01*
X114233163Y-100451736D01*
G37*
G04 #@! TD.AperFunction*
G04 #@! TD*
G04 #@! TA.AperFunction,Conductor*
G04 #@! TO.N,/U0RXD*
G36*
X110674396Y-97622165D02*
G01*
X110680699Y-97628527D01*
X110680824Y-97637061D01*
X110566347Y-97942391D01*
X110560234Y-97948935D01*
X110555392Y-97949984D01*
X110444608Y-97949984D01*
X110436335Y-97946557D01*
X110433653Y-97942391D01*
X110319175Y-97637059D01*
X110319479Y-97628112D01*
X110325601Y-97622166D01*
X110495474Y-97550882D01*
X110504428Y-97550842D01*
X110674396Y-97622165D01*
G37*
G04 #@! TD.AperFunction*
G04 #@! TD*
G04 #@! TA.AperFunction,Conductor*
G04 #@! TO.N,/RTS*
G36*
X114521873Y-94155979D02*
G01*
X114527820Y-94162103D01*
X114599102Y-94331973D01*
X114599143Y-94340928D01*
X114599102Y-94341027D01*
X114527820Y-94510896D01*
X114521458Y-94517199D01*
X114512924Y-94517323D01*
X114353468Y-94457539D01*
X114207594Y-94402846D01*
X114201051Y-94396733D01*
X114200002Y-94391891D01*
X114200002Y-94281108D01*
X114203429Y-94272835D01*
X114207592Y-94270154D01*
X114512926Y-94155675D01*
X114521873Y-94155979D01*
G37*
G04 #@! TD.AperFunction*
G04 #@! TD*
G04 #@! TA.AperFunction,Conductor*
G04 #@! TO.N,Net-(U7-~{RST})*
G36*
X110253578Y-102905221D02*
G01*
X110259702Y-102911168D01*
X110394655Y-103208017D01*
X110394959Y-103216966D01*
X110392277Y-103221132D01*
X110313942Y-103299467D01*
X110305669Y-103302894D01*
X110300827Y-103301845D01*
X110003978Y-103166892D01*
X109997865Y-103160348D01*
X109997989Y-103151816D01*
X110067703Y-102981294D01*
X110074006Y-102974934D01*
X110074048Y-102974916D01*
X110244626Y-102905180D01*
X110253578Y-102905221D01*
G37*
G04 #@! TD.AperFunction*
G04 #@! TD*
G04 #@! TA.AperFunction,Conductor*
G04 #@! TO.N,Net-(P17-Pin_1)*
G36*
X121592407Y-95833653D02*
G01*
X121598951Y-95839766D01*
X121600000Y-95844608D01*
X121600000Y-95955391D01*
X121596573Y-95963664D01*
X121592407Y-95966346D01*
X121287077Y-96080824D01*
X121278128Y-96080520D01*
X121272181Y-96074396D01*
X121200898Y-95904525D01*
X121200858Y-95895573D01*
X121200871Y-95895540D01*
X121272182Y-95725601D01*
X121278542Y-95719300D01*
X121287075Y-95719175D01*
X121592407Y-95833653D01*
G37*
G04 #@! TD.AperFunction*
G04 #@! TD*
G04 #@! TA.AperFunction,Conductor*
G04 #@! TO.N,+3V3*
G36*
X115184665Y-95704849D02*
G01*
X115186290Y-95706191D01*
X115318409Y-95836996D01*
X115318491Y-95837078D01*
X115449296Y-95969197D01*
X115452682Y-95977487D01*
X115449214Y-95985743D01*
X115447589Y-95987085D01*
X115131303Y-96203490D01*
X115122540Y-96205334D01*
X115116423Y-96202107D01*
X114953380Y-96039064D01*
X114949953Y-96030791D01*
X114951997Y-96024184D01*
X115168404Y-95707896D01*
X115175902Y-95703005D01*
X115184665Y-95704849D01*
G37*
G04 #@! TD.AperFunction*
G04 #@! TD*
G04 #@! TA.AperFunction,Conductor*
G04 #@! TO.N,/GPIO19*
G36*
X116031159Y-103824925D02*
G01*
X116037283Y-103830872D01*
X116172236Y-104127721D01*
X116172540Y-104136670D01*
X116169858Y-104140836D01*
X116091523Y-104219171D01*
X116083250Y-104222598D01*
X116078408Y-104221549D01*
X115781559Y-104086596D01*
X115775446Y-104080052D01*
X115775570Y-104071520D01*
X115845284Y-103900998D01*
X115851587Y-103894638D01*
X115851629Y-103894620D01*
X116022207Y-103824884D01*
X116031159Y-103824925D01*
G37*
G04 #@! TD.AperFunction*
G04 #@! TD*
G04 #@! TA.AperFunction,Conductor*
G04 #@! TO.N,/SPI_COPI-IO0*
G36*
X128622991Y-101022057D02*
G01*
X128919843Y-101157011D01*
X128925956Y-101163555D01*
X128925831Y-101172090D01*
X128856118Y-101342608D01*
X128849815Y-101348969D01*
X128849716Y-101349010D01*
X128679198Y-101418723D01*
X128670243Y-101418682D01*
X128664119Y-101412735D01*
X128529165Y-101115884D01*
X128528862Y-101106937D01*
X128531542Y-101102773D01*
X128609880Y-101024435D01*
X128618152Y-101021009D01*
X128622991Y-101022057D01*
G37*
G04 #@! TD.AperFunction*
G04 #@! TD*
G04 #@! TA.AperFunction,Conductor*
G04 #@! TO.N,/~{CRESET}*
G36*
X122281871Y-98049479D02*
G01*
X122287818Y-98055603D01*
X122359100Y-98225472D01*
X122359141Y-98234426D01*
X122359100Y-98234526D01*
X122289290Y-98400886D01*
X122282928Y-98407189D01*
X122273974Y-98407148D01*
X122273190Y-98406784D01*
X122268502Y-98404396D01*
X122247635Y-98401090D01*
X122245359Y-98400489D01*
X121967593Y-98296346D01*
X121961049Y-98290233D01*
X121960000Y-98285391D01*
X121960000Y-98174608D01*
X121963427Y-98166335D01*
X121967590Y-98163654D01*
X122272924Y-98049175D01*
X122281871Y-98049479D01*
G37*
G04 #@! TD.AperFunction*
G04 #@! TD*
G04 #@! TA.AperFunction,Conductor*
G04 #@! TO.N,/GPIO18-DAC_2*
G36*
X114628829Y-101476291D02*
G01*
X114707164Y-101554626D01*
X114710591Y-101562899D01*
X114709542Y-101567741D01*
X114574589Y-101864590D01*
X114568045Y-101870703D01*
X114559510Y-101870578D01*
X114501481Y-101846854D01*
X114388992Y-101800865D01*
X114382631Y-101794562D01*
X114382590Y-101794463D01*
X114375515Y-101777157D01*
X114312877Y-101623942D01*
X114312918Y-101614990D01*
X114318864Y-101608866D01*
X114615716Y-101473912D01*
X114624663Y-101473609D01*
X114628829Y-101476291D01*
G37*
G04 #@! TD.AperFunction*
G04 #@! TD*
G04 #@! TA.AperFunction,Conductor*
G04 #@! TO.N,/U0TXD*
G36*
X111210761Y-97885326D02*
G01*
X111211658Y-97885330D01*
X111219919Y-97888786D01*
X111223317Y-97897071D01*
X111223211Y-97898599D01*
X111183834Y-98189589D01*
X111180513Y-98196293D01*
X111102642Y-98274164D01*
X111094369Y-98277591D01*
X111086096Y-98274164D01*
X111085315Y-98273301D01*
X110890253Y-98034952D01*
X110887665Y-98026379D01*
X110890992Y-98019310D01*
X111020844Y-97888154D01*
X111029099Y-97884687D01*
X111029120Y-97884687D01*
X111210761Y-97885326D01*
G37*
G04 #@! TD.AperFunction*
G04 #@! TD*
G04 #@! TA.AperFunction,Conductor*
G04 #@! TO.N,/RTS*
G36*
X111338752Y-96378107D02*
G01*
X111343047Y-96380836D01*
X111419833Y-96457622D01*
X111423260Y-96465895D01*
X111419833Y-96474168D01*
X111417059Y-96476222D01*
X111093064Y-96648746D01*
X111084151Y-96649610D01*
X111077238Y-96643918D01*
X111076780Y-96642956D01*
X111006388Y-96475215D01*
X111006348Y-96466262D01*
X111077453Y-96295519D01*
X111083797Y-96289200D01*
X111092231Y-96289015D01*
X111338752Y-96378107D01*
G37*
G04 #@! TD.AperFunction*
G04 #@! TD*
G04 #@! TA.AperFunction,Conductor*
G04 #@! TO.N,Net-(U7-~{RST})*
G36*
X111521871Y-103419479D02*
G01*
X111527818Y-103425603D01*
X111599100Y-103595473D01*
X111599141Y-103604428D01*
X111599100Y-103604527D01*
X111527818Y-103774396D01*
X111521456Y-103780699D01*
X111512922Y-103780823D01*
X111353466Y-103721039D01*
X111207592Y-103666346D01*
X111201049Y-103660233D01*
X111200000Y-103655391D01*
X111200000Y-103544608D01*
X111203427Y-103536335D01*
X111207590Y-103533654D01*
X111512924Y-103419175D01*
X111521871Y-103419479D01*
G37*
G04 #@! TD.AperFunction*
G04 #@! TD*
G04 #@! TA.AperFunction,Conductor*
G04 #@! TO.N,/GPIO11-~{LEDB}*
G36*
X103643674Y-94477990D02*
G01*
X103722009Y-94556325D01*
X103725436Y-94564598D01*
X103724387Y-94569440D01*
X103589434Y-94866289D01*
X103582890Y-94872402D01*
X103574355Y-94872277D01*
X103516326Y-94848553D01*
X103403837Y-94802564D01*
X103397476Y-94796261D01*
X103397435Y-94796162D01*
X103390360Y-94778856D01*
X103327722Y-94625641D01*
X103327763Y-94616689D01*
X103333709Y-94610565D01*
X103630561Y-94475611D01*
X103639508Y-94475308D01*
X103643674Y-94477990D01*
G37*
G04 #@! TD.AperFunction*
G04 #@! TD*
G04 #@! TA.AperFunction,Conductor*
G04 #@! TO.N,/SPI_~{WP}-IO2*
G36*
X131278672Y-102122689D02*
G01*
X131357007Y-102201024D01*
X131360434Y-102209297D01*
X131359385Y-102214139D01*
X131224432Y-102510988D01*
X131217888Y-102517101D01*
X131209353Y-102516976D01*
X131151324Y-102493252D01*
X131038835Y-102447263D01*
X131032474Y-102440960D01*
X131032433Y-102440861D01*
X131025358Y-102423555D01*
X130962720Y-102270340D01*
X130962761Y-102261388D01*
X130968707Y-102255264D01*
X131265559Y-102120310D01*
X131274506Y-102120007D01*
X131278672Y-102122689D01*
G37*
G04 #@! TD.AperFunction*
G04 #@! TD*
G04 #@! TA.AperFunction,Conductor*
G04 #@! TO.N,/SPI_SCK*
G36*
X128669434Y-102175614D02*
G01*
X128966286Y-102310568D01*
X128972399Y-102317112D01*
X128972274Y-102325647D01*
X128902561Y-102496165D01*
X128896258Y-102502526D01*
X128896159Y-102502567D01*
X128725641Y-102572280D01*
X128716686Y-102572239D01*
X128710562Y-102566292D01*
X128575608Y-102269441D01*
X128575305Y-102260494D01*
X128577985Y-102256330D01*
X128656323Y-102177992D01*
X128664595Y-102174566D01*
X128669434Y-102175614D01*
G37*
G04 #@! TD.AperFunction*
G04 #@! TD*
G04 #@! TA.AperFunction,Conductor*
G04 #@! TO.N,/GPIO0-BOOT*
G36*
X112225641Y-106527721D02*
G01*
X112378856Y-106590360D01*
X112396162Y-106597435D01*
X112402523Y-106603738D01*
X112402564Y-106603837D01*
X112472277Y-106774355D01*
X112472236Y-106783310D01*
X112466289Y-106789434D01*
X112169440Y-106924387D01*
X112160491Y-106924691D01*
X112156325Y-106922009D01*
X112077990Y-106843674D01*
X112074563Y-106835401D01*
X112075611Y-106830563D01*
X112210565Y-106533709D01*
X112217109Y-106527597D01*
X112225641Y-106527721D01*
G37*
G04 #@! TD.AperFunction*
G04 #@! TD*
G04 #@! TA.AperFunction,Conductor*
G04 #@! TO.N,/USB_N*
G36*
X105374396Y-98872167D02*
G01*
X105380699Y-98878529D01*
X105380824Y-98887063D01*
X105266347Y-99192393D01*
X105260234Y-99198937D01*
X105255392Y-99199986D01*
X105144608Y-99199986D01*
X105136335Y-99196559D01*
X105133653Y-99192393D01*
X105019175Y-98887061D01*
X105019479Y-98878114D01*
X105025601Y-98872168D01*
X105195474Y-98800884D01*
X105204428Y-98800844D01*
X105374396Y-98872167D01*
G37*
G04 #@! TD.AperFunction*
G04 #@! TD*
G04 #@! TA.AperFunction,Conductor*
G04 #@! TO.N,/GPIO25*
G36*
X120692407Y-95333653D02*
G01*
X120698951Y-95339766D01*
X120700000Y-95344608D01*
X120700000Y-95455391D01*
X120696573Y-95463664D01*
X120692407Y-95466346D01*
X120387077Y-95580824D01*
X120378128Y-95580520D01*
X120372181Y-95574396D01*
X120300898Y-95404525D01*
X120300858Y-95395573D01*
X120300871Y-95395540D01*
X120372182Y-95225601D01*
X120378542Y-95219300D01*
X120387075Y-95219175D01*
X120692407Y-95333653D01*
G37*
G04 #@! TD.AperFunction*
G04 #@! TD*
G04 #@! TA.AperFunction,Conductor*
G04 #@! TO.N,+3V3*
G36*
X114016280Y-96967636D02*
G01*
X114018839Y-96969573D01*
X114181839Y-97132573D01*
X114185266Y-97140846D01*
X114181839Y-97149119D01*
X114181189Y-97149722D01*
X113919606Y-97374390D01*
X113911097Y-97377180D01*
X113903752Y-97373828D01*
X113770988Y-97242385D01*
X113768390Y-97238499D01*
X113698421Y-97067351D01*
X113698462Y-97058396D01*
X113704823Y-97052093D01*
X113706058Y-97051667D01*
X114007389Y-96966586D01*
X114016280Y-96967636D01*
G37*
G04 #@! TD.AperFunction*
G04 #@! TD*
G04 #@! TA.AperFunction,Conductor*
G04 #@! TO.N,/SPI_~{CS}*
G36*
X132226668Y-99128141D02*
G01*
X132395471Y-99197148D01*
X132401833Y-99203451D01*
X132401862Y-99203521D01*
X132472127Y-99374072D01*
X132472110Y-99383027D01*
X132465881Y-99389299D01*
X132255129Y-99478773D01*
X132221573Y-99493020D01*
X132215691Y-99495517D01*
X132211119Y-99496447D01*
X132102915Y-99496447D01*
X132094642Y-99493020D01*
X132091215Y-99484747D01*
X132091855Y-99480930D01*
X132187619Y-99203451D01*
X132211188Y-99135156D01*
X132217127Y-99128454D01*
X132226065Y-99127914D01*
X132226668Y-99128141D01*
G37*
G04 #@! TD.AperFunction*
G04 #@! TD*
G04 #@! TA.AperFunction,Conductor*
G04 #@! TO.N,/SPI_~{HLD}-IO3*
G36*
X129105535Y-103053866D02*
G01*
X129109764Y-103061759D01*
X129109822Y-103062877D01*
X129110466Y-103245802D01*
X129107068Y-103254087D01*
X129106998Y-103254157D01*
X128976116Y-103383738D01*
X128967826Y-103387124D01*
X128960157Y-103384210D01*
X128923038Y-103351565D01*
X128725972Y-103178249D01*
X128722024Y-103170214D01*
X128724914Y-103161738D01*
X128725411Y-103161208D01*
X128803455Y-103083164D01*
X128810565Y-103079797D01*
X129096963Y-103051276D01*
X129105535Y-103053866D01*
G37*
G04 #@! TD.AperFunction*
G04 #@! TD*
G04 #@! TA.AperFunction,Conductor*
G04 #@! TO.N,/SPI_CIPO-IO1*
G36*
X130361313Y-104063030D02*
G01*
X130531476Y-104133135D01*
X130537820Y-104139455D01*
X130537849Y-104139526D01*
X130607042Y-104308785D01*
X130607001Y-104317739D01*
X130600639Y-104324042D01*
X130600481Y-104324105D01*
X130260734Y-104457242D01*
X130251781Y-104457070D01*
X130245572Y-104450618D01*
X130244765Y-104446349D01*
X130244765Y-104338645D01*
X130245525Y-104334496D01*
X130255277Y-104308785D01*
X130345954Y-104069712D01*
X130352092Y-104063194D01*
X130361042Y-104062923D01*
X130361313Y-104063030D01*
G37*
G04 #@! TD.AperFunction*
G04 #@! TD*
M02*
