G04 #@! TF.GenerationSoftware,KiCad,Pcbnew,8.0.6*
G04 #@! TF.CreationDate,2024-11-11T10:15:46+01:00*
G04 #@! TF.ProjectId,V1,56312e6b-6963-4616-945f-706362585858,r0.1*
G04 #@! TF.SameCoordinates,Original*
G04 #@! TF.FileFunction,Paste,Top*
G04 #@! TF.FilePolarity,Positive*
%FSLAX46Y46*%
G04 Gerber Fmt 4.6, Leading zero omitted, Abs format (unit mm)*
G04 Created by KiCad (PCBNEW 8.0.6) date 2024-11-11 10:15:46*
%MOMM*%
%LPD*%
G01*
G04 APERTURE LIST*
G04 Aperture macros list*
%AMRoundRect*
0 Rectangle with rounded corners*
0 $1 Rounding radius*
0 $2 $3 $4 $5 $6 $7 $8 $9 X,Y pos of 4 corners*
0 Add a 4 corners polygon primitive as box body*
4,1,4,$2,$3,$4,$5,$6,$7,$8,$9,$2,$3,0*
0 Add four circle primitives for the rounded corners*
1,1,$1+$1,$2,$3*
1,1,$1+$1,$4,$5*
1,1,$1+$1,$6,$7*
1,1,$1+$1,$8,$9*
0 Add four rect primitives between the rounded corners*
20,1,$1+$1,$2,$3,$4,$5,0*
20,1,$1+$1,$4,$5,$6,$7,0*
20,1,$1+$1,$6,$7,$8,$9,0*
20,1,$1+$1,$8,$9,$2,$3,0*%
G04 Aperture macros list end*
%ADD10R,0.550000X0.550000*%
%ADD11RoundRect,0.174375X0.253125X-0.174375X0.253125X0.174375X-0.253125X0.174375X-0.253125X-0.174375X0*%
%ADD12RoundRect,0.147500X0.172500X-0.147500X0.172500X0.147500X-0.172500X0.147500X-0.172500X-0.147500X0*%
%ADD13RoundRect,0.075000X-0.550000X0.225000X-0.550000X-0.225000X0.550000X-0.225000X0.550000X0.225000X0*%
%ADD14RoundRect,0.075000X-0.550000X0.075000X-0.550000X-0.075000X0.550000X-0.075000X0.550000X0.075000X0*%
%ADD15RoundRect,0.218750X0.256250X-0.218750X0.256250X0.218750X-0.256250X0.218750X-0.256250X-0.218750X0*%
%ADD16RoundRect,0.147500X-0.172500X0.147500X-0.172500X-0.147500X0.172500X-0.147500X0.172500X0.147500X0*%
%ADD17RoundRect,0.147500X0.147500X0.172500X-0.147500X0.172500X-0.147500X-0.172500X0.147500X-0.172500X0*%
%ADD18RoundRect,0.225000X-0.225000X-0.225000X0.225000X-0.225000X0.225000X0.225000X-0.225000X0.225000X0*%
%ADD19RoundRect,0.062500X-0.337500X-0.062500X0.337500X-0.062500X0.337500X0.062500X-0.337500X0.062500X0*%
%ADD20RoundRect,0.062500X-0.062500X-0.337500X0.062500X-0.337500X0.062500X0.337500X-0.062500X0.337500X0*%
%ADD21RoundRect,0.135000X0.135000X0.185000X-0.135000X0.185000X-0.135000X-0.185000X0.135000X-0.185000X0*%
%ADD22RoundRect,0.172500X0.262500X0.172500X-0.262500X0.172500X-0.262500X-0.172500X0.262500X-0.172500X0*%
%ADD23RoundRect,0.093750X0.093750X0.106250X-0.093750X0.106250X-0.093750X-0.106250X0.093750X-0.106250X0*%
%ADD24RoundRect,0.150000X0.650000X0.150000X-0.650000X0.150000X-0.650000X-0.150000X0.650000X-0.150000X0*%
%ADD25RoundRect,0.135000X-0.185000X0.135000X-0.185000X-0.135000X0.185000X-0.135000X0.185000X0.135000X0*%
%ADD26RoundRect,0.135000X-0.135000X-0.185000X0.135000X-0.185000X0.135000X0.185000X-0.135000X0.185000X0*%
%ADD27RoundRect,0.218750X-0.218750X-0.256250X0.218750X-0.256250X0.218750X0.256250X-0.218750X0.256250X0*%
%ADD28R,0.500000X0.400000*%
%ADD29R,0.500000X0.300000*%
%ADD30R,0.600000X1.100000*%
%ADD31RoundRect,0.147500X-0.147500X-0.172500X0.147500X-0.172500X0.147500X0.172500X-0.147500X0.172500X0*%
%ADD32RoundRect,0.140000X-0.140000X-0.170000X0.140000X-0.170000X0.140000X0.170000X-0.140000X0.170000X0*%
%ADD33RoundRect,0.135000X0.185000X-0.135000X0.185000X0.135000X-0.185000X0.135000X-0.185000X-0.135000X0*%
%ADD34RoundRect,0.200000X-0.250000X0.200000X-0.250000X-0.200000X0.250000X-0.200000X0.250000X0.200000X0*%
%ADD35RoundRect,0.140000X0.170000X-0.140000X0.170000X0.140000X-0.170000X0.140000X-0.170000X-0.140000X0*%
%ADD36RoundRect,0.135000X0.540000X0.540000X-0.540000X0.540000X-0.540000X-0.540000X0.540000X-0.540000X0*%
%ADD37RoundRect,0.218750X-0.218750X-0.381250X0.218750X-0.381250X0.218750X0.381250X-0.218750X0.381250X0*%
%ADD38R,0.850000X0.200000*%
%ADD39R,0.200000X0.850000*%
%ADD40R,4.350000X4.350000*%
%ADD41RoundRect,0.150000X0.825000X0.150000X-0.825000X0.150000X-0.825000X-0.150000X0.825000X-0.150000X0*%
%ADD42RoundRect,0.225000X-0.250000X0.225000X-0.250000X-0.225000X0.250000X-0.225000X0.250000X0.225000X0*%
%ADD43RoundRect,0.079500X-0.079500X-0.100500X0.079500X-0.100500X0.079500X0.100500X-0.079500X0.100500X0*%
G04 APERTURE END LIST*
D10*
G04 #@! TO.C,SW1*
X112575000Y-108075000D03*
X112575000Y-107325000D03*
X109925000Y-107325000D03*
X109925000Y-108075000D03*
G04 #@! TD*
D11*
G04 #@! TO.C,D3*
X102700000Y-93387500D03*
X102700000Y-92212500D03*
G04 #@! TD*
D12*
G04 #@! TO.C,C9*
X119500000Y-94485000D03*
X119500000Y-93515000D03*
G04 #@! TD*
D13*
G04 #@! TO.C,J1*
X106245000Y-96250000D03*
X106245000Y-97050000D03*
D14*
X106245000Y-98250000D03*
X106245000Y-99250000D03*
X106245000Y-99750000D03*
X106245000Y-100750000D03*
D13*
X106245000Y-101950000D03*
X106245000Y-102750000D03*
X106245000Y-102750000D03*
X106245000Y-101950000D03*
D14*
X106245000Y-101250000D03*
X106245000Y-100250000D03*
X106245000Y-98750000D03*
X106245000Y-97750000D03*
D13*
X106245000Y-97050000D03*
X106245000Y-96250000D03*
G04 #@! TD*
D15*
G04 #@! TO.C,C19*
X123200000Y-99987500D03*
X123200000Y-98412500D03*
G04 #@! TD*
D16*
G04 #@! TO.C,R13*
X101200000Y-92315000D03*
X101200000Y-93285000D03*
G04 #@! TD*
D17*
G04 #@! TO.C,R10*
X112085000Y-105600000D03*
X111115000Y-105600000D03*
G04 #@! TD*
D12*
G04 #@! TO.C,C12*
X113800000Y-96685000D03*
X113800000Y-95715000D03*
G04 #@! TD*
D18*
G04 #@! TO.C,U7*
X109880000Y-98880000D03*
X109880000Y-100000000D03*
X109880000Y-101120000D03*
X111000000Y-98880000D03*
X111000000Y-100000000D03*
X111000000Y-101120000D03*
X112120000Y-98880000D03*
X112120000Y-100000000D03*
X112120000Y-101120000D03*
D19*
X108550000Y-98500000D03*
X108550000Y-99000000D03*
X108550000Y-99500000D03*
X108550000Y-100000000D03*
X108550000Y-100500000D03*
X108550000Y-101000000D03*
X108550000Y-101500000D03*
D20*
X109500000Y-102450000D03*
X110000000Y-102450000D03*
X110500000Y-102450000D03*
X111000000Y-102450000D03*
X111500000Y-102450000D03*
X112000000Y-102450000D03*
X112500000Y-102450000D03*
D19*
X113450000Y-101500000D03*
X113450000Y-101000000D03*
X113450000Y-100500000D03*
X113450000Y-100000000D03*
X113450000Y-99500000D03*
X113450000Y-99000000D03*
X113450000Y-98500000D03*
D20*
X112500000Y-97550000D03*
X112000000Y-97550000D03*
X111500000Y-97550000D03*
X111000000Y-97550000D03*
X110500000Y-97550000D03*
X110000000Y-97550000D03*
X109500000Y-97550000D03*
G04 #@! TD*
D21*
G04 #@! TO.C,R1*
X114310000Y-105600000D03*
X113290000Y-105600000D03*
G04 #@! TD*
D22*
G04 #@! TO.C,U5*
X103300000Y-106800000D03*
X103300000Y-106000000D03*
D23*
X104187500Y-107050000D03*
X104187500Y-106400000D03*
X104187500Y-105750000D03*
X102412500Y-105750000D03*
X102412500Y-106400000D03*
X102412500Y-107050000D03*
G04 #@! TD*
D16*
G04 #@! TO.C,C3*
X115500000Y-104615000D03*
X115500000Y-105585000D03*
G04 #@! TD*
D24*
G04 #@! TO.C,U4*
X132200000Y-98605000D03*
X132200000Y-97335000D03*
X132200000Y-96065000D03*
X132200000Y-94795000D03*
X125000000Y-94795000D03*
X125000000Y-96065000D03*
X125000000Y-97335000D03*
X125000000Y-98605000D03*
G04 #@! TD*
D25*
G04 #@! TO.C,R16*
X110800000Y-103590000D03*
X110800000Y-104610000D03*
G04 #@! TD*
D26*
G04 #@! TO.C,R21*
X109890000Y-96200000D03*
X110910000Y-96200000D03*
G04 #@! TD*
D27*
G04 #@! TO.C,C14*
X120912500Y-94400000D03*
X122487500Y-94400000D03*
G04 #@! TD*
D28*
G04 #@! TO.C,RN1*
X133800000Y-104450000D03*
D29*
X133800000Y-104950000D03*
X133800000Y-105450000D03*
D28*
X133800000Y-105950000D03*
X134800000Y-105950000D03*
D29*
X134800000Y-105450000D03*
X134800000Y-104950000D03*
D28*
X134800000Y-104450000D03*
G04 #@! TD*
D30*
G04 #@! TO.C,Q1*
X113150000Y-94400000D03*
X115050000Y-94400000D03*
X114100000Y-92200000D03*
G04 #@! TD*
D16*
G04 #@! TO.C,L2*
X123100000Y-101215000D03*
X123100000Y-102185000D03*
G04 #@! TD*
D31*
G04 #@! TO.C,C11*
X124115000Y-102200000D03*
X125085000Y-102200000D03*
G04 #@! TD*
D32*
G04 #@! TO.C,C20*
X108020000Y-104500000D03*
X108980000Y-104500000D03*
G04 #@! TD*
D10*
G04 #@! TO.C,SW2*
X114425000Y-107425000D03*
X114425000Y-108175000D03*
X117075000Y-108175000D03*
X117075000Y-107425000D03*
G04 #@! TD*
D12*
G04 #@! TO.C,C4*
X120200000Y-106185000D03*
X120200000Y-105215000D03*
G04 #@! TD*
D25*
G04 #@! TO.C,R8*
X105400000Y-105390000D03*
X105400000Y-106410000D03*
G04 #@! TD*
D33*
G04 #@! TO.C,R22*
X112900000Y-104610000D03*
X112900000Y-103590000D03*
G04 #@! TD*
D31*
G04 #@! TO.C,C2*
X129115000Y-100100000D03*
X130085000Y-100100000D03*
G04 #@! TD*
D17*
G04 #@! TO.C,C1*
X128085000Y-100100000D03*
X127115000Y-100100000D03*
G04 #@! TD*
D31*
G04 #@! TO.C,C10*
X124115000Y-101200000D03*
X125085000Y-101200000D03*
G04 #@! TD*
D34*
G04 #@! TO.C,Y1*
X118725000Y-104375000D03*
X117075000Y-104375000D03*
X117075000Y-105625000D03*
X118725000Y-105625000D03*
G04 #@! TD*
D32*
G04 #@! TO.C,C18*
X108040000Y-103530000D03*
X109000000Y-103530000D03*
G04 #@! TD*
D31*
G04 #@! TO.C,C15*
X124515000Y-100200000D03*
X125485000Y-100200000D03*
G04 #@! TD*
D33*
G04 #@! TO.C,R17*
X109800000Y-104610000D03*
X109800000Y-103590000D03*
G04 #@! TD*
D35*
G04 #@! TO.C,C17*
X121200000Y-106180000D03*
X121200000Y-105220000D03*
G04 #@! TD*
D30*
G04 #@! TO.C,Q2*
X109650000Y-94400000D03*
X111550000Y-94400000D03*
X110600000Y-92200000D03*
G04 #@! TD*
D36*
G04 #@! TO.C,AE1*
X122525000Y-103625000D03*
X124675000Y-105775000D03*
X124675000Y-103625000D03*
X122525000Y-105775000D03*
G04 #@! TD*
D35*
G04 #@! TO.C,C6*
X107700000Y-106380000D03*
X107700000Y-105420000D03*
G04 #@! TD*
D37*
G04 #@! TO.C,L1*
X105537500Y-107800000D03*
X107662500Y-107800000D03*
G04 #@! TD*
D25*
G04 #@! TO.C,R18*
X111900000Y-103590000D03*
X111900000Y-104610000D03*
G04 #@! TD*
D38*
G04 #@! TO.C,U3*
X121350000Y-101500000D03*
X121350000Y-101100000D03*
X121350000Y-100700000D03*
X121350000Y-100300000D03*
X121350000Y-99900000D03*
X121350000Y-99500000D03*
X121350000Y-99100000D03*
X121350000Y-98700000D03*
X121350000Y-98300000D03*
X121350000Y-97900000D03*
X121350000Y-97500000D03*
X121350000Y-97100000D03*
D39*
X120600000Y-96350000D03*
X120200000Y-96350000D03*
X119800000Y-96350000D03*
X119400000Y-96350000D03*
X119000000Y-96350000D03*
X118600000Y-96350000D03*
X118200000Y-96350000D03*
X117800000Y-96350000D03*
X117400000Y-96350000D03*
X117000000Y-96350000D03*
X116600000Y-96350000D03*
X116200000Y-96350000D03*
D38*
X115450000Y-97100000D03*
X115450000Y-97500000D03*
X115450000Y-97900000D03*
X115450000Y-98300000D03*
X115450000Y-98700000D03*
X115450000Y-99100000D03*
X115450000Y-99500000D03*
X115450000Y-99900000D03*
X115450000Y-100300000D03*
X115450000Y-100700000D03*
X115450000Y-101100000D03*
X115450000Y-101500000D03*
D39*
X116200000Y-102250000D03*
X116600000Y-102250000D03*
X117000000Y-102250000D03*
X117400000Y-102250000D03*
X117800000Y-102250000D03*
X118200000Y-102250000D03*
X118600000Y-102250000D03*
X119000000Y-102250000D03*
X119400000Y-102250000D03*
X119800000Y-102250000D03*
X120200000Y-102250000D03*
X120600000Y-102250000D03*
D40*
X118400000Y-99300000D03*
G04 #@! TD*
D41*
G04 #@! TO.C,U2*
X131875000Y-105405000D03*
X131875000Y-104135000D03*
X131875000Y-102865000D03*
X131875000Y-101595000D03*
X126925000Y-101595000D03*
X126925000Y-102865000D03*
X126925000Y-104135000D03*
X126925000Y-105405000D03*
G04 #@! TD*
D16*
G04 #@! TO.C,C13*
X114000000Y-103515000D03*
X114000000Y-104485000D03*
G04 #@! TD*
D42*
G04 #@! TO.C,C5*
X101100000Y-105925000D03*
X101100000Y-107475000D03*
G04 #@! TD*
D33*
G04 #@! TO.C,R7*
X106600000Y-106410000D03*
X106600000Y-105390000D03*
G04 #@! TD*
D21*
G04 #@! TO.C,R15*
X121210000Y-104400000D03*
X120190000Y-104400000D03*
G04 #@! TD*
D43*
G04 #@! TO.C,C16*
X120455000Y-103500000D03*
X121145000Y-103500000D03*
G04 #@! TD*
D21*
G04 #@! TO.C,R20*
X112910000Y-96200000D03*
X111890000Y-96200000D03*
G04 #@! TD*
D35*
G04 #@! TO.C,C7*
X108900000Y-106380000D03*
X108900000Y-105420000D03*
G04 #@! TD*
M02*
