G04 #@! TF.GenerationSoftware,KiCad,Pcbnew,8.0.6*
G04 #@! TF.CreationDate,2024-11-11T10:15:46+01:00*
G04 #@! TF.ProjectId,V1,56312e6b-6963-4616-945f-706362585858,r0.1*
G04 #@! TF.SameCoordinates,Original*
G04 #@! TF.FileFunction,AssemblyDrawing,Top*
%FSLAX46Y46*%
G04 Gerber Fmt 4.6, Leading zero omitted, Abs format (unit mm)*
G04 Created by KiCad (PCBNEW 8.0.6) date 2024-11-11 10:15:46*
%MOMM*%
%LPD*%
G01*
G04 APERTURE LIST*
%ADD10C,0.254000*%
%ADD11C,0.150000*%
%ADD12C,0.040000*%
%ADD13C,0.080000*%
%ADD14C,0.075000*%
%ADD15C,0.060000*%
%ADD16C,0.200000*%
%ADD17C,0.100000*%
G04 APERTURE END LIST*
D10*
X109806666Y-108213842D02*
X109988095Y-108274318D01*
X109988095Y-108274318D02*
X110290476Y-108274318D01*
X110290476Y-108274318D02*
X110411428Y-108213842D01*
X110411428Y-108213842D02*
X110471904Y-108153365D01*
X110471904Y-108153365D02*
X110532381Y-108032413D01*
X110532381Y-108032413D02*
X110532381Y-107911461D01*
X110532381Y-107911461D02*
X110471904Y-107790508D01*
X110471904Y-107790508D02*
X110411428Y-107730032D01*
X110411428Y-107730032D02*
X110290476Y-107669556D01*
X110290476Y-107669556D02*
X110048571Y-107609080D01*
X110048571Y-107609080D02*
X109927619Y-107548603D01*
X109927619Y-107548603D02*
X109867142Y-107488127D01*
X109867142Y-107488127D02*
X109806666Y-107367175D01*
X109806666Y-107367175D02*
X109806666Y-107246222D01*
X109806666Y-107246222D02*
X109867142Y-107125270D01*
X109867142Y-107125270D02*
X109927619Y-107064794D01*
X109927619Y-107064794D02*
X110048571Y-107004318D01*
X110048571Y-107004318D02*
X110350952Y-107004318D01*
X110350952Y-107004318D02*
X110532381Y-107064794D01*
X110955714Y-107004318D02*
X111258095Y-108274318D01*
X111258095Y-108274318D02*
X111500000Y-107367175D01*
X111500000Y-107367175D02*
X111741905Y-108274318D01*
X111741905Y-108274318D02*
X112044286Y-107004318D01*
X113193334Y-108274318D02*
X112467619Y-108274318D01*
X112830476Y-108274318D02*
X112830476Y-107004318D01*
X112830476Y-107004318D02*
X112709524Y-107185746D01*
X112709524Y-107185746D02*
X112588572Y-107306699D01*
X112588572Y-107306699D02*
X112467619Y-107367175D01*
D11*
X103071428Y-104159580D02*
X103023809Y-104207200D01*
X103023809Y-104207200D02*
X102880952Y-104254819D01*
X102880952Y-104254819D02*
X102785714Y-104254819D01*
X102785714Y-104254819D02*
X102642857Y-104207200D01*
X102642857Y-104207200D02*
X102547619Y-104111961D01*
X102547619Y-104111961D02*
X102500000Y-104016723D01*
X102500000Y-104016723D02*
X102452381Y-103826247D01*
X102452381Y-103826247D02*
X102452381Y-103683390D01*
X102452381Y-103683390D02*
X102500000Y-103492914D01*
X102500000Y-103492914D02*
X102547619Y-103397676D01*
X102547619Y-103397676D02*
X102642857Y-103302438D01*
X102642857Y-103302438D02*
X102785714Y-103254819D01*
X102785714Y-103254819D02*
X102880952Y-103254819D01*
X102880952Y-103254819D02*
X103023809Y-103302438D01*
X103023809Y-103302438D02*
X103071428Y-103350057D01*
X103500000Y-104254819D02*
X103500000Y-103254819D01*
X103500000Y-103254819D02*
X103880952Y-103254819D01*
X103880952Y-103254819D02*
X103976190Y-103302438D01*
X103976190Y-103302438D02*
X104023809Y-103350057D01*
X104023809Y-103350057D02*
X104071428Y-103445295D01*
X104071428Y-103445295D02*
X104071428Y-103588152D01*
X104071428Y-103588152D02*
X104023809Y-103683390D01*
X104023809Y-103683390D02*
X103976190Y-103731009D01*
X103976190Y-103731009D02*
X103880952Y-103778628D01*
X103880952Y-103778628D02*
X103500000Y-103778628D01*
X104452381Y-103350057D02*
X104500000Y-103302438D01*
X104500000Y-103302438D02*
X104595238Y-103254819D01*
X104595238Y-103254819D02*
X104833333Y-103254819D01*
X104833333Y-103254819D02*
X104928571Y-103302438D01*
X104928571Y-103302438D02*
X104976190Y-103350057D01*
X104976190Y-103350057D02*
X105023809Y-103445295D01*
X105023809Y-103445295D02*
X105023809Y-103540533D01*
X105023809Y-103540533D02*
X104976190Y-103683390D01*
X104976190Y-103683390D02*
X104404762Y-104254819D01*
X104404762Y-104254819D02*
X105023809Y-104254819D01*
X105976190Y-104254819D02*
X105404762Y-104254819D01*
X105690476Y-104254819D02*
X105690476Y-103254819D01*
X105690476Y-103254819D02*
X105595238Y-103397676D01*
X105595238Y-103397676D02*
X105500000Y-103492914D01*
X105500000Y-103492914D02*
X105404762Y-103540533D01*
X106595238Y-103254819D02*
X106690476Y-103254819D01*
X106690476Y-103254819D02*
X106785714Y-103302438D01*
X106785714Y-103302438D02*
X106833333Y-103350057D01*
X106833333Y-103350057D02*
X106880952Y-103445295D01*
X106880952Y-103445295D02*
X106928571Y-103635771D01*
X106928571Y-103635771D02*
X106928571Y-103873866D01*
X106928571Y-103873866D02*
X106880952Y-104064342D01*
X106880952Y-104064342D02*
X106833333Y-104159580D01*
X106833333Y-104159580D02*
X106785714Y-104207200D01*
X106785714Y-104207200D02*
X106690476Y-104254819D01*
X106690476Y-104254819D02*
X106595238Y-104254819D01*
X106595238Y-104254819D02*
X106500000Y-104207200D01*
X106500000Y-104207200D02*
X106452381Y-104159580D01*
X106452381Y-104159580D02*
X106404762Y-104064342D01*
X106404762Y-104064342D02*
X106357143Y-103873866D01*
X106357143Y-103873866D02*
X106357143Y-103635771D01*
X106357143Y-103635771D02*
X106404762Y-103445295D01*
X106404762Y-103445295D02*
X106452381Y-103350057D01*
X106452381Y-103350057D02*
X106500000Y-103302438D01*
X106500000Y-103302438D02*
X106595238Y-103254819D01*
X107309524Y-103350057D02*
X107357143Y-103302438D01*
X107357143Y-103302438D02*
X107452381Y-103254819D01*
X107452381Y-103254819D02*
X107690476Y-103254819D01*
X107690476Y-103254819D02*
X107785714Y-103302438D01*
X107785714Y-103302438D02*
X107833333Y-103350057D01*
X107833333Y-103350057D02*
X107880952Y-103445295D01*
X107880952Y-103445295D02*
X107880952Y-103540533D01*
X107880952Y-103540533D02*
X107833333Y-103683390D01*
X107833333Y-103683390D02*
X107261905Y-104254819D01*
X107261905Y-104254819D02*
X107880952Y-104254819D01*
X108309524Y-104254819D02*
X108309524Y-103254819D01*
X108309524Y-103254819D02*
X108880952Y-104254819D01*
X108880952Y-104254819D02*
X108880952Y-103254819D01*
X109357143Y-103873866D02*
X110119048Y-103873866D01*
X110547619Y-103969104D02*
X111023809Y-103969104D01*
X110452381Y-104254819D02*
X110785714Y-103254819D01*
X110785714Y-103254819D02*
X111119047Y-104254819D01*
X111357143Y-104254819D02*
X111880952Y-103588152D01*
X111357143Y-103588152D02*
X111880952Y-104254819D01*
X112166667Y-104254819D02*
X112690476Y-103588152D01*
X112166667Y-103588152D02*
X112690476Y-104254819D01*
X113071429Y-103873866D02*
X113833334Y-103873866D01*
X114214286Y-104254819D02*
X114738095Y-103588152D01*
X114214286Y-103588152D02*
X114738095Y-104254819D01*
X115785714Y-104350057D02*
X115690476Y-104302438D01*
X115690476Y-104302438D02*
X115595238Y-104207200D01*
X115595238Y-104207200D02*
X115452381Y-104064342D01*
X115452381Y-104064342D02*
X115357143Y-104016723D01*
X115357143Y-104016723D02*
X115261905Y-104016723D01*
X115309524Y-104254819D02*
X115214286Y-104207200D01*
X115214286Y-104207200D02*
X115119048Y-104111961D01*
X115119048Y-104111961D02*
X115071429Y-103921485D01*
X115071429Y-103921485D02*
X115071429Y-103588152D01*
X115071429Y-103588152D02*
X115119048Y-103397676D01*
X115119048Y-103397676D02*
X115214286Y-103302438D01*
X115214286Y-103302438D02*
X115309524Y-103254819D01*
X115309524Y-103254819D02*
X115500000Y-103254819D01*
X115500000Y-103254819D02*
X115595238Y-103302438D01*
X115595238Y-103302438D02*
X115690476Y-103397676D01*
X115690476Y-103397676D02*
X115738095Y-103588152D01*
X115738095Y-103588152D02*
X115738095Y-103921485D01*
X115738095Y-103921485D02*
X115690476Y-104111961D01*
X115690476Y-104111961D02*
X115595238Y-104207200D01*
X115595238Y-104207200D02*
X115500000Y-104254819D01*
X115500000Y-104254819D02*
X115309524Y-104254819D01*
X116500000Y-103731009D02*
X116166667Y-103731009D01*
X116166667Y-104254819D02*
X116166667Y-103254819D01*
X116166667Y-103254819D02*
X116642857Y-103254819D01*
X117023810Y-104254819D02*
X117023810Y-103254819D01*
X117023810Y-103254819D02*
X117595238Y-104254819D01*
X117595238Y-104254819D02*
X117595238Y-103254819D01*
X118023810Y-103350057D02*
X118071429Y-103302438D01*
X118071429Y-103302438D02*
X118166667Y-103254819D01*
X118166667Y-103254819D02*
X118404762Y-103254819D01*
X118404762Y-103254819D02*
X118500000Y-103302438D01*
X118500000Y-103302438D02*
X118547619Y-103350057D01*
X118547619Y-103350057D02*
X118595238Y-103445295D01*
X118595238Y-103445295D02*
X118595238Y-103540533D01*
X118595238Y-103540533D02*
X118547619Y-103683390D01*
X118547619Y-103683390D02*
X117976191Y-104254819D01*
X117976191Y-104254819D02*
X118595238Y-104254819D01*
X119166667Y-103683390D02*
X119071429Y-103635771D01*
X119071429Y-103635771D02*
X119023810Y-103588152D01*
X119023810Y-103588152D02*
X118976191Y-103492914D01*
X118976191Y-103492914D02*
X118976191Y-103445295D01*
X118976191Y-103445295D02*
X119023810Y-103350057D01*
X119023810Y-103350057D02*
X119071429Y-103302438D01*
X119071429Y-103302438D02*
X119166667Y-103254819D01*
X119166667Y-103254819D02*
X119357143Y-103254819D01*
X119357143Y-103254819D02*
X119452381Y-103302438D01*
X119452381Y-103302438D02*
X119500000Y-103350057D01*
X119500000Y-103350057D02*
X119547619Y-103445295D01*
X119547619Y-103445295D02*
X119547619Y-103492914D01*
X119547619Y-103492914D02*
X119500000Y-103588152D01*
X119500000Y-103588152D02*
X119452381Y-103635771D01*
X119452381Y-103635771D02*
X119357143Y-103683390D01*
X119357143Y-103683390D02*
X119166667Y-103683390D01*
X119166667Y-103683390D02*
X119071429Y-103731009D01*
X119071429Y-103731009D02*
X119023810Y-103778628D01*
X119023810Y-103778628D02*
X118976191Y-103873866D01*
X118976191Y-103873866D02*
X118976191Y-104064342D01*
X118976191Y-104064342D02*
X119023810Y-104159580D01*
X119023810Y-104159580D02*
X119071429Y-104207200D01*
X119071429Y-104207200D02*
X119166667Y-104254819D01*
X119166667Y-104254819D02*
X119357143Y-104254819D01*
X119357143Y-104254819D02*
X119452381Y-104207200D01*
X119452381Y-104207200D02*
X119500000Y-104159580D01*
X119500000Y-104159580D02*
X119547619Y-104064342D01*
X119547619Y-104064342D02*
X119547619Y-103873866D01*
X119547619Y-103873866D02*
X119500000Y-103778628D01*
X119500000Y-103778628D02*
X119452381Y-103731009D01*
X119452381Y-103731009D02*
X119357143Y-103683390D01*
X110238095Y-99454819D02*
X110238095Y-100264342D01*
X110238095Y-100264342D02*
X110285714Y-100359580D01*
X110285714Y-100359580D02*
X110333333Y-100407200D01*
X110333333Y-100407200D02*
X110428571Y-100454819D01*
X110428571Y-100454819D02*
X110619047Y-100454819D01*
X110619047Y-100454819D02*
X110714285Y-100407200D01*
X110714285Y-100407200D02*
X110761904Y-100359580D01*
X110761904Y-100359580D02*
X110809523Y-100264342D01*
X110809523Y-100264342D02*
X110809523Y-99454819D01*
X111190476Y-99454819D02*
X111857142Y-99454819D01*
X111857142Y-99454819D02*
X111428571Y-100454819D01*
X113204761Y-104884819D02*
X112633333Y-104884819D01*
X112919047Y-104884819D02*
X112919047Y-103884819D01*
X112919047Y-103884819D02*
X112823809Y-104027676D01*
X112823809Y-104027676D02*
X112728571Y-104122914D01*
X112728571Y-104122914D02*
X112633333Y-104170533D01*
X113823809Y-103884819D02*
X113919047Y-103884819D01*
X113919047Y-103884819D02*
X114014285Y-103932438D01*
X114014285Y-103932438D02*
X114061904Y-103980057D01*
X114061904Y-103980057D02*
X114109523Y-104075295D01*
X114109523Y-104075295D02*
X114157142Y-104265771D01*
X114157142Y-104265771D02*
X114157142Y-104503866D01*
X114157142Y-104503866D02*
X114109523Y-104694342D01*
X114109523Y-104694342D02*
X114061904Y-104789580D01*
X114061904Y-104789580D02*
X114014285Y-104837200D01*
X114014285Y-104837200D02*
X113919047Y-104884819D01*
X113919047Y-104884819D02*
X113823809Y-104884819D01*
X113823809Y-104884819D02*
X113728571Y-104837200D01*
X113728571Y-104837200D02*
X113680952Y-104789580D01*
X113680952Y-104789580D02*
X113633333Y-104694342D01*
X113633333Y-104694342D02*
X113585714Y-104503866D01*
X113585714Y-104503866D02*
X113585714Y-104265771D01*
X113585714Y-104265771D02*
X113633333Y-104075295D01*
X113633333Y-104075295D02*
X113680952Y-103980057D01*
X113680952Y-103980057D02*
X113728571Y-103932438D01*
X113728571Y-103932438D02*
X113823809Y-103884819D01*
X114585714Y-104884819D02*
X114585714Y-103884819D01*
X114680952Y-104503866D02*
X114966666Y-104884819D01*
X114966666Y-104218152D02*
X114585714Y-104599104D01*
D12*
X113756667Y-105718200D02*
X113670000Y-105594391D01*
X113608095Y-105718200D02*
X113608095Y-105458200D01*
X113608095Y-105458200D02*
X113707143Y-105458200D01*
X113707143Y-105458200D02*
X113731905Y-105470581D01*
X113731905Y-105470581D02*
X113744286Y-105482962D01*
X113744286Y-105482962D02*
X113756667Y-105507724D01*
X113756667Y-105507724D02*
X113756667Y-105544867D01*
X113756667Y-105544867D02*
X113744286Y-105569629D01*
X113744286Y-105569629D02*
X113731905Y-105582010D01*
X113731905Y-105582010D02*
X113707143Y-105594391D01*
X113707143Y-105594391D02*
X113608095Y-105594391D01*
X114004286Y-105718200D02*
X113855714Y-105718200D01*
X113930000Y-105718200D02*
X113930000Y-105458200D01*
X113930000Y-105458200D02*
X113905238Y-105495343D01*
X113905238Y-105495343D02*
X113880476Y-105520105D01*
X113880476Y-105520105D02*
X113855714Y-105532486D01*
D11*
X99657143Y-103904819D02*
X100228571Y-103904819D01*
X99942857Y-104904819D02*
X99942857Y-103904819D01*
X100561905Y-104904819D02*
X100561905Y-103904819D01*
X100561905Y-103904819D02*
X100942857Y-103904819D01*
X100942857Y-103904819D02*
X101038095Y-103952438D01*
X101038095Y-103952438D02*
X101085714Y-104000057D01*
X101085714Y-104000057D02*
X101133333Y-104095295D01*
X101133333Y-104095295D02*
X101133333Y-104238152D01*
X101133333Y-104238152D02*
X101085714Y-104333390D01*
X101085714Y-104333390D02*
X101038095Y-104381009D01*
X101038095Y-104381009D02*
X100942857Y-104428628D01*
X100942857Y-104428628D02*
X100561905Y-104428628D01*
X101514286Y-104857200D02*
X101657143Y-104904819D01*
X101657143Y-104904819D02*
X101895238Y-104904819D01*
X101895238Y-104904819D02*
X101990476Y-104857200D01*
X101990476Y-104857200D02*
X102038095Y-104809580D01*
X102038095Y-104809580D02*
X102085714Y-104714342D01*
X102085714Y-104714342D02*
X102085714Y-104619104D01*
X102085714Y-104619104D02*
X102038095Y-104523866D01*
X102038095Y-104523866D02*
X101990476Y-104476247D01*
X101990476Y-104476247D02*
X101895238Y-104428628D01*
X101895238Y-104428628D02*
X101704762Y-104381009D01*
X101704762Y-104381009D02*
X101609524Y-104333390D01*
X101609524Y-104333390D02*
X101561905Y-104285771D01*
X101561905Y-104285771D02*
X101514286Y-104190533D01*
X101514286Y-104190533D02*
X101514286Y-104095295D01*
X101514286Y-104095295D02*
X101561905Y-104000057D01*
X101561905Y-104000057D02*
X101609524Y-103952438D01*
X101609524Y-103952438D02*
X101704762Y-103904819D01*
X101704762Y-103904819D02*
X101942857Y-103904819D01*
X101942857Y-103904819D02*
X102085714Y-103952438D01*
X102942857Y-103904819D02*
X102752381Y-103904819D01*
X102752381Y-103904819D02*
X102657143Y-103952438D01*
X102657143Y-103952438D02*
X102609524Y-104000057D01*
X102609524Y-104000057D02*
X102514286Y-104142914D01*
X102514286Y-104142914D02*
X102466667Y-104333390D01*
X102466667Y-104333390D02*
X102466667Y-104714342D01*
X102466667Y-104714342D02*
X102514286Y-104809580D01*
X102514286Y-104809580D02*
X102561905Y-104857200D01*
X102561905Y-104857200D02*
X102657143Y-104904819D01*
X102657143Y-104904819D02*
X102847619Y-104904819D01*
X102847619Y-104904819D02*
X102942857Y-104857200D01*
X102942857Y-104857200D02*
X102990476Y-104809580D01*
X102990476Y-104809580D02*
X103038095Y-104714342D01*
X103038095Y-104714342D02*
X103038095Y-104476247D01*
X103038095Y-104476247D02*
X102990476Y-104381009D01*
X102990476Y-104381009D02*
X102942857Y-104333390D01*
X102942857Y-104333390D02*
X102847619Y-104285771D01*
X102847619Y-104285771D02*
X102657143Y-104285771D01*
X102657143Y-104285771D02*
X102561905Y-104333390D01*
X102561905Y-104333390D02*
X102514286Y-104381009D01*
X102514286Y-104381009D02*
X102466667Y-104476247D01*
X103419048Y-104000057D02*
X103466667Y-103952438D01*
X103466667Y-103952438D02*
X103561905Y-103904819D01*
X103561905Y-103904819D02*
X103800000Y-103904819D01*
X103800000Y-103904819D02*
X103895238Y-103952438D01*
X103895238Y-103952438D02*
X103942857Y-104000057D01*
X103942857Y-104000057D02*
X103990476Y-104095295D01*
X103990476Y-104095295D02*
X103990476Y-104190533D01*
X103990476Y-104190533D02*
X103942857Y-104333390D01*
X103942857Y-104333390D02*
X103371429Y-104904819D01*
X103371429Y-104904819D02*
X103990476Y-104904819D01*
X104371429Y-104000057D02*
X104419048Y-103952438D01*
X104419048Y-103952438D02*
X104514286Y-103904819D01*
X104514286Y-103904819D02*
X104752381Y-103904819D01*
X104752381Y-103904819D02*
X104847619Y-103952438D01*
X104847619Y-103952438D02*
X104895238Y-104000057D01*
X104895238Y-104000057D02*
X104942857Y-104095295D01*
X104942857Y-104095295D02*
X104942857Y-104190533D01*
X104942857Y-104190533D02*
X104895238Y-104333390D01*
X104895238Y-104333390D02*
X104323810Y-104904819D01*
X104323810Y-104904819D02*
X104942857Y-104904819D01*
X105419048Y-104904819D02*
X105609524Y-104904819D01*
X105609524Y-104904819D02*
X105704762Y-104857200D01*
X105704762Y-104857200D02*
X105752381Y-104809580D01*
X105752381Y-104809580D02*
X105847619Y-104666723D01*
X105847619Y-104666723D02*
X105895238Y-104476247D01*
X105895238Y-104476247D02*
X105895238Y-104095295D01*
X105895238Y-104095295D02*
X105847619Y-104000057D01*
X105847619Y-104000057D02*
X105800000Y-103952438D01*
X105800000Y-103952438D02*
X105704762Y-103904819D01*
X105704762Y-103904819D02*
X105514286Y-103904819D01*
X105514286Y-103904819D02*
X105419048Y-103952438D01*
X105419048Y-103952438D02*
X105371429Y-104000057D01*
X105371429Y-104000057D02*
X105323810Y-104095295D01*
X105323810Y-104095295D02*
X105323810Y-104333390D01*
X105323810Y-104333390D02*
X105371429Y-104428628D01*
X105371429Y-104428628D02*
X105419048Y-104476247D01*
X105419048Y-104476247D02*
X105514286Y-104523866D01*
X105514286Y-104523866D02*
X105704762Y-104523866D01*
X105704762Y-104523866D02*
X105800000Y-104476247D01*
X105800000Y-104476247D02*
X105847619Y-104428628D01*
X105847619Y-104428628D02*
X105895238Y-104333390D01*
X106514286Y-103904819D02*
X106609524Y-103904819D01*
X106609524Y-103904819D02*
X106704762Y-103952438D01*
X106704762Y-103952438D02*
X106752381Y-104000057D01*
X106752381Y-104000057D02*
X106800000Y-104095295D01*
X106800000Y-104095295D02*
X106847619Y-104285771D01*
X106847619Y-104285771D02*
X106847619Y-104523866D01*
X106847619Y-104523866D02*
X106800000Y-104714342D01*
X106800000Y-104714342D02*
X106752381Y-104809580D01*
X106752381Y-104809580D02*
X106704762Y-104857200D01*
X106704762Y-104857200D02*
X106609524Y-104904819D01*
X106609524Y-104904819D02*
X106514286Y-104904819D01*
X106514286Y-104904819D02*
X106419048Y-104857200D01*
X106419048Y-104857200D02*
X106371429Y-104809580D01*
X106371429Y-104809580D02*
X106323810Y-104714342D01*
X106323810Y-104714342D02*
X106276191Y-104523866D01*
X106276191Y-104523866D02*
X106276191Y-104285771D01*
X106276191Y-104285771D02*
X106323810Y-104095295D01*
X106323810Y-104095295D02*
X106371429Y-104000057D01*
X106371429Y-104000057D02*
X106419048Y-103952438D01*
X106419048Y-103952438D02*
X106514286Y-103904819D01*
D13*
X102919047Y-106127149D02*
X102919047Y-106531911D01*
X102919047Y-106531911D02*
X102942857Y-106579530D01*
X102942857Y-106579530D02*
X102966666Y-106603340D01*
X102966666Y-106603340D02*
X103014285Y-106627149D01*
X103014285Y-106627149D02*
X103109523Y-106627149D01*
X103109523Y-106627149D02*
X103157142Y-106603340D01*
X103157142Y-106603340D02*
X103180952Y-106579530D01*
X103180952Y-106579530D02*
X103204761Y-106531911D01*
X103204761Y-106531911D02*
X103204761Y-106127149D01*
X103680952Y-106127149D02*
X103442857Y-106127149D01*
X103442857Y-106127149D02*
X103419048Y-106365244D01*
X103419048Y-106365244D02*
X103442857Y-106341435D01*
X103442857Y-106341435D02*
X103490476Y-106317625D01*
X103490476Y-106317625D02*
X103609524Y-106317625D01*
X103609524Y-106317625D02*
X103657143Y-106341435D01*
X103657143Y-106341435D02*
X103680952Y-106365244D01*
X103680952Y-106365244D02*
X103704762Y-106412863D01*
X103704762Y-106412863D02*
X103704762Y-106531911D01*
X103704762Y-106531911D02*
X103680952Y-106579530D01*
X103680952Y-106579530D02*
X103657143Y-106603340D01*
X103657143Y-106603340D02*
X103609524Y-106627149D01*
X103609524Y-106627149D02*
X103490476Y-106627149D01*
X103490476Y-106627149D02*
X103442857Y-106603340D01*
X103442857Y-106603340D02*
X103419048Y-106579530D01*
D11*
X109180057Y-106076189D02*
X109132438Y-106028570D01*
X109132438Y-106028570D02*
X109084819Y-105933332D01*
X109084819Y-105933332D02*
X109084819Y-105695237D01*
X109084819Y-105695237D02*
X109132438Y-105599999D01*
X109132438Y-105599999D02*
X109180057Y-105552380D01*
X109180057Y-105552380D02*
X109275295Y-105504761D01*
X109275295Y-105504761D02*
X109370533Y-105504761D01*
X109370533Y-105504761D02*
X109513390Y-105552380D01*
X109513390Y-105552380D02*
X110084819Y-106123808D01*
X110084819Y-106123808D02*
X110084819Y-105504761D01*
X109180057Y-105123808D02*
X109132438Y-105076189D01*
X109132438Y-105076189D02*
X109084819Y-104980951D01*
X109084819Y-104980951D02*
X109084819Y-104742856D01*
X109084819Y-104742856D02*
X109132438Y-104647618D01*
X109132438Y-104647618D02*
X109180057Y-104599999D01*
X109180057Y-104599999D02*
X109275295Y-104552380D01*
X109275295Y-104552380D02*
X109370533Y-104552380D01*
X109370533Y-104552380D02*
X109513390Y-104599999D01*
X109513390Y-104599999D02*
X110084819Y-105171427D01*
X110084819Y-105171427D02*
X110084819Y-104552380D01*
X109989580Y-104123808D02*
X110037200Y-104076189D01*
X110037200Y-104076189D02*
X110084819Y-104123808D01*
X110084819Y-104123808D02*
X110037200Y-104171427D01*
X110037200Y-104171427D02*
X109989580Y-104123808D01*
X109989580Y-104123808D02*
X110084819Y-104123808D01*
X110084819Y-103123809D02*
X110084819Y-103695237D01*
X110084819Y-103409523D02*
X109084819Y-103409523D01*
X109084819Y-103409523D02*
X109227676Y-103504761D01*
X109227676Y-103504761D02*
X109322914Y-103599999D01*
X109322914Y-103599999D02*
X109370533Y-103695237D01*
X110084819Y-102695237D02*
X109084819Y-102695237D01*
X110084819Y-102123809D02*
X109513390Y-102552380D01*
X109084819Y-102123809D02*
X109656247Y-102695237D01*
D12*
X110918200Y-104267142D02*
X110794391Y-104353809D01*
X110918200Y-104415714D02*
X110658200Y-104415714D01*
X110658200Y-104415714D02*
X110658200Y-104316666D01*
X110658200Y-104316666D02*
X110670581Y-104291904D01*
X110670581Y-104291904D02*
X110682962Y-104279523D01*
X110682962Y-104279523D02*
X110707724Y-104267142D01*
X110707724Y-104267142D02*
X110744867Y-104267142D01*
X110744867Y-104267142D02*
X110769629Y-104279523D01*
X110769629Y-104279523D02*
X110782010Y-104291904D01*
X110782010Y-104291904D02*
X110794391Y-104316666D01*
X110794391Y-104316666D02*
X110794391Y-104415714D01*
X110918200Y-104019523D02*
X110918200Y-104168095D01*
X110918200Y-104093809D02*
X110658200Y-104093809D01*
X110658200Y-104093809D02*
X110695343Y-104118571D01*
X110695343Y-104118571D02*
X110720105Y-104143333D01*
X110720105Y-104143333D02*
X110732486Y-104168095D01*
X110658200Y-103796666D02*
X110658200Y-103846190D01*
X110658200Y-103846190D02*
X110670581Y-103870952D01*
X110670581Y-103870952D02*
X110682962Y-103883333D01*
X110682962Y-103883333D02*
X110720105Y-103908095D01*
X110720105Y-103908095D02*
X110769629Y-103920476D01*
X110769629Y-103920476D02*
X110868677Y-103920476D01*
X110868677Y-103920476D02*
X110893439Y-103908095D01*
X110893439Y-103908095D02*
X110905820Y-103895714D01*
X110905820Y-103895714D02*
X110918200Y-103870952D01*
X110918200Y-103870952D02*
X110918200Y-103821428D01*
X110918200Y-103821428D02*
X110905820Y-103796666D01*
X110905820Y-103796666D02*
X110893439Y-103784285D01*
X110893439Y-103784285D02*
X110868677Y-103771904D01*
X110868677Y-103771904D02*
X110806772Y-103771904D01*
X110806772Y-103771904D02*
X110782010Y-103784285D01*
X110782010Y-103784285D02*
X110769629Y-103796666D01*
X110769629Y-103796666D02*
X110757248Y-103821428D01*
X110757248Y-103821428D02*
X110757248Y-103870952D01*
X110757248Y-103870952D02*
X110769629Y-103895714D01*
X110769629Y-103895714D02*
X110782010Y-103908095D01*
X110782010Y-103908095D02*
X110806772Y-103920476D01*
D11*
X109709523Y-97824819D02*
X109138095Y-97824819D01*
X109423809Y-97824819D02*
X109423809Y-96824819D01*
X109423809Y-96824819D02*
X109328571Y-96967676D01*
X109328571Y-96967676D02*
X109233333Y-97062914D01*
X109233333Y-97062914D02*
X109138095Y-97110533D01*
X110328571Y-96824819D02*
X110423809Y-96824819D01*
X110423809Y-96824819D02*
X110519047Y-96872438D01*
X110519047Y-96872438D02*
X110566666Y-96920057D01*
X110566666Y-96920057D02*
X110614285Y-97015295D01*
X110614285Y-97015295D02*
X110661904Y-97205771D01*
X110661904Y-97205771D02*
X110661904Y-97443866D01*
X110661904Y-97443866D02*
X110614285Y-97634342D01*
X110614285Y-97634342D02*
X110566666Y-97729580D01*
X110566666Y-97729580D02*
X110519047Y-97777200D01*
X110519047Y-97777200D02*
X110423809Y-97824819D01*
X110423809Y-97824819D02*
X110328571Y-97824819D01*
X110328571Y-97824819D02*
X110233333Y-97777200D01*
X110233333Y-97777200D02*
X110185714Y-97729580D01*
X110185714Y-97729580D02*
X110138095Y-97634342D01*
X110138095Y-97634342D02*
X110090476Y-97443866D01*
X110090476Y-97443866D02*
X110090476Y-97205771D01*
X110090476Y-97205771D02*
X110138095Y-97015295D01*
X110138095Y-97015295D02*
X110185714Y-96920057D01*
X110185714Y-96920057D02*
X110233333Y-96872438D01*
X110233333Y-96872438D02*
X110328571Y-96824819D01*
X111090476Y-97824819D02*
X111090476Y-96824819D01*
X111661904Y-97824819D02*
X111233333Y-97253390D01*
X111661904Y-96824819D02*
X111090476Y-97396247D01*
D12*
X110232857Y-96318200D02*
X110146190Y-96194391D01*
X110084285Y-96318200D02*
X110084285Y-96058200D01*
X110084285Y-96058200D02*
X110183333Y-96058200D01*
X110183333Y-96058200D02*
X110208095Y-96070581D01*
X110208095Y-96070581D02*
X110220476Y-96082962D01*
X110220476Y-96082962D02*
X110232857Y-96107724D01*
X110232857Y-96107724D02*
X110232857Y-96144867D01*
X110232857Y-96144867D02*
X110220476Y-96169629D01*
X110220476Y-96169629D02*
X110208095Y-96182010D01*
X110208095Y-96182010D02*
X110183333Y-96194391D01*
X110183333Y-96194391D02*
X110084285Y-96194391D01*
X110331904Y-96082962D02*
X110344285Y-96070581D01*
X110344285Y-96070581D02*
X110369047Y-96058200D01*
X110369047Y-96058200D02*
X110430952Y-96058200D01*
X110430952Y-96058200D02*
X110455714Y-96070581D01*
X110455714Y-96070581D02*
X110468095Y-96082962D01*
X110468095Y-96082962D02*
X110480476Y-96107724D01*
X110480476Y-96107724D02*
X110480476Y-96132486D01*
X110480476Y-96132486D02*
X110468095Y-96169629D01*
X110468095Y-96169629D02*
X110319523Y-96318200D01*
X110319523Y-96318200D02*
X110480476Y-96318200D01*
X110728095Y-96318200D02*
X110579523Y-96318200D01*
X110653809Y-96318200D02*
X110653809Y-96058200D01*
X110653809Y-96058200D02*
X110629047Y-96095343D01*
X110629047Y-96095343D02*
X110604285Y-96120105D01*
X110604285Y-96120105D02*
X110579523Y-96132486D01*
D11*
X133704761Y-107754819D02*
X133133333Y-107754819D01*
X133419047Y-107754819D02*
X133419047Y-106754819D01*
X133419047Y-106754819D02*
X133323809Y-106897676D01*
X133323809Y-106897676D02*
X133228571Y-106992914D01*
X133228571Y-106992914D02*
X133133333Y-107040533D01*
X134323809Y-106754819D02*
X134419047Y-106754819D01*
X134419047Y-106754819D02*
X134514285Y-106802438D01*
X134514285Y-106802438D02*
X134561904Y-106850057D01*
X134561904Y-106850057D02*
X134609523Y-106945295D01*
X134609523Y-106945295D02*
X134657142Y-107135771D01*
X134657142Y-107135771D02*
X134657142Y-107373866D01*
X134657142Y-107373866D02*
X134609523Y-107564342D01*
X134609523Y-107564342D02*
X134561904Y-107659580D01*
X134561904Y-107659580D02*
X134514285Y-107707200D01*
X134514285Y-107707200D02*
X134419047Y-107754819D01*
X134419047Y-107754819D02*
X134323809Y-107754819D01*
X134323809Y-107754819D02*
X134228571Y-107707200D01*
X134228571Y-107707200D02*
X134180952Y-107659580D01*
X134180952Y-107659580D02*
X134133333Y-107564342D01*
X134133333Y-107564342D02*
X134085714Y-107373866D01*
X134085714Y-107373866D02*
X134085714Y-107135771D01*
X134085714Y-107135771D02*
X134133333Y-106945295D01*
X134133333Y-106945295D02*
X134180952Y-106850057D01*
X134180952Y-106850057D02*
X134228571Y-106802438D01*
X134228571Y-106802438D02*
X134323809Y-106754819D01*
X135085714Y-107754819D02*
X135085714Y-106754819D01*
X135180952Y-107373866D02*
X135466666Y-107754819D01*
X135466666Y-107088152D02*
X135085714Y-107469104D01*
D14*
X134527409Y-105545238D02*
X134289314Y-105711904D01*
X134527409Y-105830952D02*
X134027409Y-105830952D01*
X134027409Y-105830952D02*
X134027409Y-105640476D01*
X134027409Y-105640476D02*
X134051219Y-105592857D01*
X134051219Y-105592857D02*
X134075028Y-105569047D01*
X134075028Y-105569047D02*
X134122647Y-105545238D01*
X134122647Y-105545238D02*
X134194076Y-105545238D01*
X134194076Y-105545238D02*
X134241695Y-105569047D01*
X134241695Y-105569047D02*
X134265504Y-105592857D01*
X134265504Y-105592857D02*
X134289314Y-105640476D01*
X134289314Y-105640476D02*
X134289314Y-105830952D01*
X134527409Y-105330952D02*
X134027409Y-105330952D01*
X134027409Y-105330952D02*
X134527409Y-105045238D01*
X134527409Y-105045238D02*
X134027409Y-105045238D01*
X134527409Y-104545237D02*
X134527409Y-104830951D01*
X134527409Y-104688094D02*
X134027409Y-104688094D01*
X134027409Y-104688094D02*
X134098838Y-104735713D01*
X134098838Y-104735713D02*
X134146457Y-104783332D01*
X134146457Y-104783332D02*
X134170266Y-104830951D01*
D10*
X114795270Y-93420952D02*
X114734794Y-93541904D01*
X114734794Y-93541904D02*
X114613842Y-93662857D01*
X114613842Y-93662857D02*
X114432413Y-93844285D01*
X114432413Y-93844285D02*
X114371937Y-93965238D01*
X114371937Y-93965238D02*
X114371937Y-94086190D01*
X114674318Y-94025714D02*
X114613842Y-94146666D01*
X114613842Y-94146666D02*
X114492889Y-94267619D01*
X114492889Y-94267619D02*
X114250984Y-94328095D01*
X114250984Y-94328095D02*
X113827651Y-94328095D01*
X113827651Y-94328095D02*
X113585746Y-94267619D01*
X113585746Y-94267619D02*
X113464794Y-94146666D01*
X113464794Y-94146666D02*
X113404318Y-94025714D01*
X113404318Y-94025714D02*
X113404318Y-93783809D01*
X113404318Y-93783809D02*
X113464794Y-93662857D01*
X113464794Y-93662857D02*
X113585746Y-93541904D01*
X113585746Y-93541904D02*
X113827651Y-93481428D01*
X113827651Y-93481428D02*
X114250984Y-93481428D01*
X114250984Y-93481428D02*
X114492889Y-93541904D01*
X114492889Y-93541904D02*
X114613842Y-93662857D01*
X114613842Y-93662857D02*
X114674318Y-93783809D01*
X114674318Y-93783809D02*
X114674318Y-94025714D01*
X114674318Y-92271904D02*
X114674318Y-92997619D01*
X114674318Y-92634762D02*
X113404318Y-92634762D01*
X113404318Y-92634762D02*
X113585746Y-92755714D01*
X113585746Y-92755714D02*
X113706699Y-92876666D01*
X113706699Y-92876666D02*
X113767175Y-92997619D01*
D11*
X107095238Y-105448152D02*
X107095238Y-106114819D01*
X106857143Y-105067200D02*
X106619048Y-105781485D01*
X106619048Y-105781485D02*
X107238095Y-105781485D01*
X107619048Y-106019580D02*
X107666667Y-106067200D01*
X107666667Y-106067200D02*
X107619048Y-106114819D01*
X107619048Y-106114819D02*
X107571429Y-106067200D01*
X107571429Y-106067200D02*
X107619048Y-106019580D01*
X107619048Y-106019580D02*
X107619048Y-106114819D01*
X108000000Y-105114819D02*
X108666666Y-105114819D01*
X108666666Y-105114819D02*
X108238095Y-106114819D01*
X109476190Y-105448152D02*
X109476190Y-106114819D01*
X109047619Y-105448152D02*
X109047619Y-105971961D01*
X109047619Y-105971961D02*
X109095238Y-106067200D01*
X109095238Y-106067200D02*
X109190476Y-106114819D01*
X109190476Y-106114819D02*
X109333333Y-106114819D01*
X109333333Y-106114819D02*
X109428571Y-106067200D01*
X109428571Y-106067200D02*
X109476190Y-106019580D01*
X110285714Y-105591009D02*
X109952381Y-105591009D01*
X109952381Y-106114819D02*
X109952381Y-105114819D01*
X109952381Y-105114819D02*
X110428571Y-105114819D01*
D12*
X108339285Y-104589765D02*
X108327381Y-104601670D01*
X108327381Y-104601670D02*
X108291666Y-104613574D01*
X108291666Y-104613574D02*
X108267857Y-104613574D01*
X108267857Y-104613574D02*
X108232143Y-104601670D01*
X108232143Y-104601670D02*
X108208333Y-104577860D01*
X108208333Y-104577860D02*
X108196428Y-104554050D01*
X108196428Y-104554050D02*
X108184524Y-104506431D01*
X108184524Y-104506431D02*
X108184524Y-104470717D01*
X108184524Y-104470717D02*
X108196428Y-104423098D01*
X108196428Y-104423098D02*
X108208333Y-104399289D01*
X108208333Y-104399289D02*
X108232143Y-104375479D01*
X108232143Y-104375479D02*
X108267857Y-104363574D01*
X108267857Y-104363574D02*
X108291666Y-104363574D01*
X108291666Y-104363574D02*
X108327381Y-104375479D01*
X108327381Y-104375479D02*
X108339285Y-104387384D01*
X108434524Y-104387384D02*
X108446428Y-104375479D01*
X108446428Y-104375479D02*
X108470238Y-104363574D01*
X108470238Y-104363574D02*
X108529762Y-104363574D01*
X108529762Y-104363574D02*
X108553571Y-104375479D01*
X108553571Y-104375479D02*
X108565476Y-104387384D01*
X108565476Y-104387384D02*
X108577381Y-104411193D01*
X108577381Y-104411193D02*
X108577381Y-104435003D01*
X108577381Y-104435003D02*
X108565476Y-104470717D01*
X108565476Y-104470717D02*
X108422619Y-104613574D01*
X108422619Y-104613574D02*
X108577381Y-104613574D01*
X108732142Y-104363574D02*
X108755952Y-104363574D01*
X108755952Y-104363574D02*
X108779761Y-104375479D01*
X108779761Y-104375479D02*
X108791666Y-104387384D01*
X108791666Y-104387384D02*
X108803571Y-104411193D01*
X108803571Y-104411193D02*
X108815476Y-104458812D01*
X108815476Y-104458812D02*
X108815476Y-104518336D01*
X108815476Y-104518336D02*
X108803571Y-104565955D01*
X108803571Y-104565955D02*
X108791666Y-104589765D01*
X108791666Y-104589765D02*
X108779761Y-104601670D01*
X108779761Y-104601670D02*
X108755952Y-104613574D01*
X108755952Y-104613574D02*
X108732142Y-104613574D01*
X108732142Y-104613574D02*
X108708333Y-104601670D01*
X108708333Y-104601670D02*
X108696428Y-104589765D01*
X108696428Y-104589765D02*
X108684523Y-104565955D01*
X108684523Y-104565955D02*
X108672619Y-104518336D01*
X108672619Y-104518336D02*
X108672619Y-104458812D01*
X108672619Y-104458812D02*
X108684523Y-104411193D01*
X108684523Y-104411193D02*
X108696428Y-104387384D01*
X108696428Y-104387384D02*
X108708333Y-104375479D01*
X108708333Y-104375479D02*
X108732142Y-104363574D01*
D10*
X113806666Y-108313842D02*
X113988095Y-108374318D01*
X113988095Y-108374318D02*
X114290476Y-108374318D01*
X114290476Y-108374318D02*
X114411428Y-108313842D01*
X114411428Y-108313842D02*
X114471904Y-108253365D01*
X114471904Y-108253365D02*
X114532381Y-108132413D01*
X114532381Y-108132413D02*
X114532381Y-108011461D01*
X114532381Y-108011461D02*
X114471904Y-107890508D01*
X114471904Y-107890508D02*
X114411428Y-107830032D01*
X114411428Y-107830032D02*
X114290476Y-107769556D01*
X114290476Y-107769556D02*
X114048571Y-107709080D01*
X114048571Y-107709080D02*
X113927619Y-107648603D01*
X113927619Y-107648603D02*
X113867142Y-107588127D01*
X113867142Y-107588127D02*
X113806666Y-107467175D01*
X113806666Y-107467175D02*
X113806666Y-107346222D01*
X113806666Y-107346222D02*
X113867142Y-107225270D01*
X113867142Y-107225270D02*
X113927619Y-107164794D01*
X113927619Y-107164794D02*
X114048571Y-107104318D01*
X114048571Y-107104318D02*
X114350952Y-107104318D01*
X114350952Y-107104318D02*
X114532381Y-107164794D01*
X114955714Y-107104318D02*
X115258095Y-108374318D01*
X115258095Y-108374318D02*
X115500000Y-107467175D01*
X115500000Y-107467175D02*
X115741905Y-108374318D01*
X115741905Y-108374318D02*
X116044286Y-107104318D01*
X116467619Y-107225270D02*
X116528095Y-107164794D01*
X116528095Y-107164794D02*
X116649048Y-107104318D01*
X116649048Y-107104318D02*
X116951429Y-107104318D01*
X116951429Y-107104318D02*
X117072381Y-107164794D01*
X117072381Y-107164794D02*
X117132857Y-107225270D01*
X117132857Y-107225270D02*
X117193334Y-107346222D01*
X117193334Y-107346222D02*
X117193334Y-107467175D01*
X117193334Y-107467175D02*
X117132857Y-107648603D01*
X117132857Y-107648603D02*
X116407143Y-108374318D01*
X116407143Y-108374318D02*
X117193334Y-108374318D01*
D11*
X104684819Y-106971428D02*
X104684819Y-107542856D01*
X104684819Y-107257142D02*
X103684819Y-107257142D01*
X103684819Y-107257142D02*
X103827676Y-107352380D01*
X103827676Y-107352380D02*
X103922914Y-107447618D01*
X103922914Y-107447618D02*
X103970533Y-107542856D01*
X103684819Y-106352380D02*
X103684819Y-106257142D01*
X103684819Y-106257142D02*
X103732438Y-106161904D01*
X103732438Y-106161904D02*
X103780057Y-106114285D01*
X103780057Y-106114285D02*
X103875295Y-106066666D01*
X103875295Y-106066666D02*
X104065771Y-106019047D01*
X104065771Y-106019047D02*
X104303866Y-106019047D01*
X104303866Y-106019047D02*
X104494342Y-106066666D01*
X104494342Y-106066666D02*
X104589580Y-106114285D01*
X104589580Y-106114285D02*
X104637200Y-106161904D01*
X104637200Y-106161904D02*
X104684819Y-106257142D01*
X104684819Y-106257142D02*
X104684819Y-106352380D01*
X104684819Y-106352380D02*
X104637200Y-106447618D01*
X104637200Y-106447618D02*
X104589580Y-106495237D01*
X104589580Y-106495237D02*
X104494342Y-106542856D01*
X104494342Y-106542856D02*
X104303866Y-106590475D01*
X104303866Y-106590475D02*
X104065771Y-106590475D01*
X104065771Y-106590475D02*
X103875295Y-106542856D01*
X103875295Y-106542856D02*
X103780057Y-106495237D01*
X103780057Y-106495237D02*
X103732438Y-106447618D01*
X103732438Y-106447618D02*
X103684819Y-106352380D01*
X103684819Y-105399999D02*
X103684819Y-105304761D01*
X103684819Y-105304761D02*
X103732438Y-105209523D01*
X103732438Y-105209523D02*
X103780057Y-105161904D01*
X103780057Y-105161904D02*
X103875295Y-105114285D01*
X103875295Y-105114285D02*
X104065771Y-105066666D01*
X104065771Y-105066666D02*
X104303866Y-105066666D01*
X104303866Y-105066666D02*
X104494342Y-105114285D01*
X104494342Y-105114285D02*
X104589580Y-105161904D01*
X104589580Y-105161904D02*
X104637200Y-105209523D01*
X104637200Y-105209523D02*
X104684819Y-105304761D01*
X104684819Y-105304761D02*
X104684819Y-105399999D01*
X104684819Y-105399999D02*
X104637200Y-105495237D01*
X104637200Y-105495237D02*
X104589580Y-105542856D01*
X104589580Y-105542856D02*
X104494342Y-105590475D01*
X104494342Y-105590475D02*
X104303866Y-105638094D01*
X104303866Y-105638094D02*
X104065771Y-105638094D01*
X104065771Y-105638094D02*
X103875295Y-105590475D01*
X103875295Y-105590475D02*
X103780057Y-105542856D01*
X103780057Y-105542856D02*
X103732438Y-105495237D01*
X103732438Y-105495237D02*
X103684819Y-105399999D01*
X104684819Y-104638094D02*
X103684819Y-104638094D01*
X104303866Y-104542856D02*
X104684819Y-104257142D01*
X104018152Y-104257142D02*
X104399104Y-104638094D01*
D12*
X105518200Y-105943332D02*
X105394391Y-106029999D01*
X105518200Y-106091904D02*
X105258200Y-106091904D01*
X105258200Y-106091904D02*
X105258200Y-105992856D01*
X105258200Y-105992856D02*
X105270581Y-105968094D01*
X105270581Y-105968094D02*
X105282962Y-105955713D01*
X105282962Y-105955713D02*
X105307724Y-105943332D01*
X105307724Y-105943332D02*
X105344867Y-105943332D01*
X105344867Y-105943332D02*
X105369629Y-105955713D01*
X105369629Y-105955713D02*
X105382010Y-105968094D01*
X105382010Y-105968094D02*
X105394391Y-105992856D01*
X105394391Y-105992856D02*
X105394391Y-106091904D01*
X105369629Y-105794761D02*
X105357248Y-105819523D01*
X105357248Y-105819523D02*
X105344867Y-105831904D01*
X105344867Y-105831904D02*
X105320105Y-105844285D01*
X105320105Y-105844285D02*
X105307724Y-105844285D01*
X105307724Y-105844285D02*
X105282962Y-105831904D01*
X105282962Y-105831904D02*
X105270581Y-105819523D01*
X105270581Y-105819523D02*
X105258200Y-105794761D01*
X105258200Y-105794761D02*
X105258200Y-105745237D01*
X105258200Y-105745237D02*
X105270581Y-105720475D01*
X105270581Y-105720475D02*
X105282962Y-105708094D01*
X105282962Y-105708094D02*
X105307724Y-105695713D01*
X105307724Y-105695713D02*
X105320105Y-105695713D01*
X105320105Y-105695713D02*
X105344867Y-105708094D01*
X105344867Y-105708094D02*
X105357248Y-105720475D01*
X105357248Y-105720475D02*
X105369629Y-105745237D01*
X105369629Y-105745237D02*
X105369629Y-105794761D01*
X105369629Y-105794761D02*
X105382010Y-105819523D01*
X105382010Y-105819523D02*
X105394391Y-105831904D01*
X105394391Y-105831904D02*
X105419153Y-105844285D01*
X105419153Y-105844285D02*
X105468677Y-105844285D01*
X105468677Y-105844285D02*
X105493439Y-105831904D01*
X105493439Y-105831904D02*
X105505820Y-105819523D01*
X105505820Y-105819523D02*
X105518200Y-105794761D01*
X105518200Y-105794761D02*
X105518200Y-105745237D01*
X105518200Y-105745237D02*
X105505820Y-105720475D01*
X105505820Y-105720475D02*
X105493439Y-105708094D01*
X105493439Y-105708094D02*
X105468677Y-105695713D01*
X105468677Y-105695713D02*
X105419153Y-105695713D01*
X105419153Y-105695713D02*
X105394391Y-105708094D01*
X105394391Y-105708094D02*
X105382010Y-105720475D01*
X105382010Y-105720475D02*
X105369629Y-105745237D01*
D11*
X114524819Y-104790476D02*
X114524819Y-105361904D01*
X114524819Y-105076190D02*
X113524819Y-105076190D01*
X113524819Y-105076190D02*
X113667676Y-105171428D01*
X113667676Y-105171428D02*
X113762914Y-105266666D01*
X113762914Y-105266666D02*
X113810533Y-105361904D01*
X113524819Y-104171428D02*
X113524819Y-104076190D01*
X113524819Y-104076190D02*
X113572438Y-103980952D01*
X113572438Y-103980952D02*
X113620057Y-103933333D01*
X113620057Y-103933333D02*
X113715295Y-103885714D01*
X113715295Y-103885714D02*
X113905771Y-103838095D01*
X113905771Y-103838095D02*
X114143866Y-103838095D01*
X114143866Y-103838095D02*
X114334342Y-103885714D01*
X114334342Y-103885714D02*
X114429580Y-103933333D01*
X114429580Y-103933333D02*
X114477200Y-103980952D01*
X114477200Y-103980952D02*
X114524819Y-104076190D01*
X114524819Y-104076190D02*
X114524819Y-104171428D01*
X114524819Y-104171428D02*
X114477200Y-104266666D01*
X114477200Y-104266666D02*
X114429580Y-104314285D01*
X114429580Y-104314285D02*
X114334342Y-104361904D01*
X114334342Y-104361904D02*
X114143866Y-104409523D01*
X114143866Y-104409523D02*
X113905771Y-104409523D01*
X113905771Y-104409523D02*
X113715295Y-104361904D01*
X113715295Y-104361904D02*
X113620057Y-104314285D01*
X113620057Y-104314285D02*
X113572438Y-104266666D01*
X113572438Y-104266666D02*
X113524819Y-104171428D01*
X114524819Y-103409523D02*
X113524819Y-103409523D01*
X114524819Y-102838095D02*
X113953390Y-103266666D01*
X113524819Y-102838095D02*
X114096247Y-103409523D01*
D12*
X113018200Y-104267142D02*
X112894391Y-104353809D01*
X113018200Y-104415714D02*
X112758200Y-104415714D01*
X112758200Y-104415714D02*
X112758200Y-104316666D01*
X112758200Y-104316666D02*
X112770581Y-104291904D01*
X112770581Y-104291904D02*
X112782962Y-104279523D01*
X112782962Y-104279523D02*
X112807724Y-104267142D01*
X112807724Y-104267142D02*
X112844867Y-104267142D01*
X112844867Y-104267142D02*
X112869629Y-104279523D01*
X112869629Y-104279523D02*
X112882010Y-104291904D01*
X112882010Y-104291904D02*
X112894391Y-104316666D01*
X112894391Y-104316666D02*
X112894391Y-104415714D01*
X112782962Y-104168095D02*
X112770581Y-104155714D01*
X112770581Y-104155714D02*
X112758200Y-104130952D01*
X112758200Y-104130952D02*
X112758200Y-104069047D01*
X112758200Y-104069047D02*
X112770581Y-104044285D01*
X112770581Y-104044285D02*
X112782962Y-104031904D01*
X112782962Y-104031904D02*
X112807724Y-104019523D01*
X112807724Y-104019523D02*
X112832486Y-104019523D01*
X112832486Y-104019523D02*
X112869629Y-104031904D01*
X112869629Y-104031904D02*
X113018200Y-104180476D01*
X113018200Y-104180476D02*
X113018200Y-104019523D01*
X112782962Y-103920476D02*
X112770581Y-103908095D01*
X112770581Y-103908095D02*
X112758200Y-103883333D01*
X112758200Y-103883333D02*
X112758200Y-103821428D01*
X112758200Y-103821428D02*
X112770581Y-103796666D01*
X112770581Y-103796666D02*
X112782962Y-103784285D01*
X112782962Y-103784285D02*
X112807724Y-103771904D01*
X112807724Y-103771904D02*
X112832486Y-103771904D01*
X112832486Y-103771904D02*
X112869629Y-103784285D01*
X112869629Y-103784285D02*
X113018200Y-103932857D01*
X113018200Y-103932857D02*
X113018200Y-103771904D01*
D11*
X106877143Y-104144819D02*
X106972381Y-104144819D01*
X106972381Y-104144819D02*
X107067619Y-104192438D01*
X107067619Y-104192438D02*
X107115238Y-104240057D01*
X107115238Y-104240057D02*
X107162857Y-104335295D01*
X107162857Y-104335295D02*
X107210476Y-104525771D01*
X107210476Y-104525771D02*
X107210476Y-104763866D01*
X107210476Y-104763866D02*
X107162857Y-104954342D01*
X107162857Y-104954342D02*
X107115238Y-105049580D01*
X107115238Y-105049580D02*
X107067619Y-105097200D01*
X107067619Y-105097200D02*
X106972381Y-105144819D01*
X106972381Y-105144819D02*
X106877143Y-105144819D01*
X106877143Y-105144819D02*
X106781905Y-105097200D01*
X106781905Y-105097200D02*
X106734286Y-105049580D01*
X106734286Y-105049580D02*
X106686667Y-104954342D01*
X106686667Y-104954342D02*
X106639048Y-104763866D01*
X106639048Y-104763866D02*
X106639048Y-104525771D01*
X106639048Y-104525771D02*
X106686667Y-104335295D01*
X106686667Y-104335295D02*
X106734286Y-104240057D01*
X106734286Y-104240057D02*
X106781905Y-104192438D01*
X106781905Y-104192438D02*
X106877143Y-104144819D01*
X107639048Y-105049580D02*
X107686667Y-105097200D01*
X107686667Y-105097200D02*
X107639048Y-105144819D01*
X107639048Y-105144819D02*
X107591429Y-105097200D01*
X107591429Y-105097200D02*
X107639048Y-105049580D01*
X107639048Y-105049580D02*
X107639048Y-105144819D01*
X108639047Y-105144819D02*
X108067619Y-105144819D01*
X108353333Y-105144819D02*
X108353333Y-104144819D01*
X108353333Y-104144819D02*
X108258095Y-104287676D01*
X108258095Y-104287676D02*
X108162857Y-104382914D01*
X108162857Y-104382914D02*
X108067619Y-104430533D01*
X109496190Y-104478152D02*
X109496190Y-105144819D01*
X109067619Y-104478152D02*
X109067619Y-105001961D01*
X109067619Y-105001961D02*
X109115238Y-105097200D01*
X109115238Y-105097200D02*
X109210476Y-105144819D01*
X109210476Y-105144819D02*
X109353333Y-105144819D01*
X109353333Y-105144819D02*
X109448571Y-105097200D01*
X109448571Y-105097200D02*
X109496190Y-105049580D01*
X110305714Y-104621009D02*
X109972381Y-104621009D01*
X109972381Y-105144819D02*
X109972381Y-104144819D01*
X109972381Y-104144819D02*
X110448571Y-104144819D01*
D12*
X108359285Y-103619765D02*
X108347381Y-103631670D01*
X108347381Y-103631670D02*
X108311666Y-103643574D01*
X108311666Y-103643574D02*
X108287857Y-103643574D01*
X108287857Y-103643574D02*
X108252143Y-103631670D01*
X108252143Y-103631670D02*
X108228333Y-103607860D01*
X108228333Y-103607860D02*
X108216428Y-103584050D01*
X108216428Y-103584050D02*
X108204524Y-103536431D01*
X108204524Y-103536431D02*
X108204524Y-103500717D01*
X108204524Y-103500717D02*
X108216428Y-103453098D01*
X108216428Y-103453098D02*
X108228333Y-103429289D01*
X108228333Y-103429289D02*
X108252143Y-103405479D01*
X108252143Y-103405479D02*
X108287857Y-103393574D01*
X108287857Y-103393574D02*
X108311666Y-103393574D01*
X108311666Y-103393574D02*
X108347381Y-103405479D01*
X108347381Y-103405479D02*
X108359285Y-103417384D01*
X108597381Y-103643574D02*
X108454524Y-103643574D01*
X108525952Y-103643574D02*
X108525952Y-103393574D01*
X108525952Y-103393574D02*
X108502143Y-103429289D01*
X108502143Y-103429289D02*
X108478333Y-103453098D01*
X108478333Y-103453098D02*
X108454524Y-103465003D01*
X108740238Y-103500717D02*
X108716428Y-103488812D01*
X108716428Y-103488812D02*
X108704523Y-103476908D01*
X108704523Y-103476908D02*
X108692619Y-103453098D01*
X108692619Y-103453098D02*
X108692619Y-103441193D01*
X108692619Y-103441193D02*
X108704523Y-103417384D01*
X108704523Y-103417384D02*
X108716428Y-103405479D01*
X108716428Y-103405479D02*
X108740238Y-103393574D01*
X108740238Y-103393574D02*
X108787857Y-103393574D01*
X108787857Y-103393574D02*
X108811666Y-103405479D01*
X108811666Y-103405479D02*
X108823571Y-103417384D01*
X108823571Y-103417384D02*
X108835476Y-103441193D01*
X108835476Y-103441193D02*
X108835476Y-103453098D01*
X108835476Y-103453098D02*
X108823571Y-103476908D01*
X108823571Y-103476908D02*
X108811666Y-103488812D01*
X108811666Y-103488812D02*
X108787857Y-103500717D01*
X108787857Y-103500717D02*
X108740238Y-103500717D01*
X108740238Y-103500717D02*
X108716428Y-103512622D01*
X108716428Y-103512622D02*
X108704523Y-103524527D01*
X108704523Y-103524527D02*
X108692619Y-103548336D01*
X108692619Y-103548336D02*
X108692619Y-103595955D01*
X108692619Y-103595955D02*
X108704523Y-103619765D01*
X108704523Y-103619765D02*
X108716428Y-103631670D01*
X108716428Y-103631670D02*
X108740238Y-103643574D01*
X108740238Y-103643574D02*
X108787857Y-103643574D01*
X108787857Y-103643574D02*
X108811666Y-103631670D01*
X108811666Y-103631670D02*
X108823571Y-103619765D01*
X108823571Y-103619765D02*
X108835476Y-103595955D01*
X108835476Y-103595955D02*
X108835476Y-103548336D01*
X108835476Y-103548336D02*
X108823571Y-103524527D01*
X108823571Y-103524527D02*
X108811666Y-103512622D01*
X108811666Y-103512622D02*
X108787857Y-103500717D01*
D11*
X110758152Y-105599999D02*
X111424819Y-105599999D01*
X110377200Y-105838094D02*
X111091485Y-106076189D01*
X111091485Y-106076189D02*
X111091485Y-105457142D01*
X110424819Y-105171427D02*
X110424819Y-104504761D01*
X110424819Y-104504761D02*
X111424819Y-104933332D01*
X111329580Y-104123808D02*
X111377200Y-104076189D01*
X111377200Y-104076189D02*
X111424819Y-104123808D01*
X111424819Y-104123808D02*
X111377200Y-104171427D01*
X111377200Y-104171427D02*
X111329580Y-104123808D01*
X111329580Y-104123808D02*
X111424819Y-104123808D01*
X110424819Y-103171428D02*
X110424819Y-103647618D01*
X110424819Y-103647618D02*
X110901009Y-103695237D01*
X110901009Y-103695237D02*
X110853390Y-103647618D01*
X110853390Y-103647618D02*
X110805771Y-103552380D01*
X110805771Y-103552380D02*
X110805771Y-103314285D01*
X110805771Y-103314285D02*
X110853390Y-103219047D01*
X110853390Y-103219047D02*
X110901009Y-103171428D01*
X110901009Y-103171428D02*
X110996247Y-103123809D01*
X110996247Y-103123809D02*
X111234342Y-103123809D01*
X111234342Y-103123809D02*
X111329580Y-103171428D01*
X111329580Y-103171428D02*
X111377200Y-103219047D01*
X111377200Y-103219047D02*
X111424819Y-103314285D01*
X111424819Y-103314285D02*
X111424819Y-103552380D01*
X111424819Y-103552380D02*
X111377200Y-103647618D01*
X111377200Y-103647618D02*
X111329580Y-103695237D01*
X111424819Y-102695237D02*
X110424819Y-102695237D01*
X111424819Y-102123809D02*
X110853390Y-102552380D01*
X110424819Y-102123809D02*
X110996247Y-102695237D01*
D12*
X109918200Y-104267142D02*
X109794391Y-104353809D01*
X109918200Y-104415714D02*
X109658200Y-104415714D01*
X109658200Y-104415714D02*
X109658200Y-104316666D01*
X109658200Y-104316666D02*
X109670581Y-104291904D01*
X109670581Y-104291904D02*
X109682962Y-104279523D01*
X109682962Y-104279523D02*
X109707724Y-104267142D01*
X109707724Y-104267142D02*
X109744867Y-104267142D01*
X109744867Y-104267142D02*
X109769629Y-104279523D01*
X109769629Y-104279523D02*
X109782010Y-104291904D01*
X109782010Y-104291904D02*
X109794391Y-104316666D01*
X109794391Y-104316666D02*
X109794391Y-104415714D01*
X109918200Y-104019523D02*
X109918200Y-104168095D01*
X109918200Y-104093809D02*
X109658200Y-104093809D01*
X109658200Y-104093809D02*
X109695343Y-104118571D01*
X109695343Y-104118571D02*
X109720105Y-104143333D01*
X109720105Y-104143333D02*
X109732486Y-104168095D01*
X109658200Y-103932857D02*
X109658200Y-103759523D01*
X109658200Y-103759523D02*
X109918200Y-103870952D01*
D11*
X122814819Y-106771428D02*
X122814819Y-107342856D01*
X122814819Y-107057142D02*
X121814819Y-107057142D01*
X121814819Y-107057142D02*
X121957676Y-107152380D01*
X121957676Y-107152380D02*
X122052914Y-107247618D01*
X122052914Y-107247618D02*
X122100533Y-107342856D01*
X121814819Y-106152380D02*
X121814819Y-106057142D01*
X121814819Y-106057142D02*
X121862438Y-105961904D01*
X121862438Y-105961904D02*
X121910057Y-105914285D01*
X121910057Y-105914285D02*
X122005295Y-105866666D01*
X122005295Y-105866666D02*
X122195771Y-105819047D01*
X122195771Y-105819047D02*
X122433866Y-105819047D01*
X122433866Y-105819047D02*
X122624342Y-105866666D01*
X122624342Y-105866666D02*
X122719580Y-105914285D01*
X122719580Y-105914285D02*
X122767200Y-105961904D01*
X122767200Y-105961904D02*
X122814819Y-106057142D01*
X122814819Y-106057142D02*
X122814819Y-106152380D01*
X122814819Y-106152380D02*
X122767200Y-106247618D01*
X122767200Y-106247618D02*
X122719580Y-106295237D01*
X122719580Y-106295237D02*
X122624342Y-106342856D01*
X122624342Y-106342856D02*
X122433866Y-106390475D01*
X122433866Y-106390475D02*
X122195771Y-106390475D01*
X122195771Y-106390475D02*
X122005295Y-106342856D01*
X122005295Y-106342856D02*
X121910057Y-106295237D01*
X121910057Y-106295237D02*
X121862438Y-106247618D01*
X121862438Y-106247618D02*
X121814819Y-106152380D01*
X122148152Y-105390475D02*
X122814819Y-105390475D01*
X122243390Y-105390475D02*
X122195771Y-105342856D01*
X122195771Y-105342856D02*
X122148152Y-105247618D01*
X122148152Y-105247618D02*
X122148152Y-105104761D01*
X122148152Y-105104761D02*
X122195771Y-105009523D01*
X122195771Y-105009523D02*
X122291009Y-104961904D01*
X122291009Y-104961904D02*
X122814819Y-104961904D01*
X122291009Y-104152380D02*
X122291009Y-104485713D01*
X122814819Y-104485713D02*
X121814819Y-104485713D01*
X121814819Y-104485713D02*
X121814819Y-104009523D01*
D12*
X121289765Y-105860714D02*
X121301670Y-105872618D01*
X121301670Y-105872618D02*
X121313574Y-105908333D01*
X121313574Y-105908333D02*
X121313574Y-105932142D01*
X121313574Y-105932142D02*
X121301670Y-105967856D01*
X121301670Y-105967856D02*
X121277860Y-105991666D01*
X121277860Y-105991666D02*
X121254050Y-106003571D01*
X121254050Y-106003571D02*
X121206431Y-106015475D01*
X121206431Y-106015475D02*
X121170717Y-106015475D01*
X121170717Y-106015475D02*
X121123098Y-106003571D01*
X121123098Y-106003571D02*
X121099289Y-105991666D01*
X121099289Y-105991666D02*
X121075479Y-105967856D01*
X121075479Y-105967856D02*
X121063574Y-105932142D01*
X121063574Y-105932142D02*
X121063574Y-105908333D01*
X121063574Y-105908333D02*
X121075479Y-105872618D01*
X121075479Y-105872618D02*
X121087384Y-105860714D01*
X121313574Y-105622618D02*
X121313574Y-105765475D01*
X121313574Y-105694047D02*
X121063574Y-105694047D01*
X121063574Y-105694047D02*
X121099289Y-105717856D01*
X121099289Y-105717856D02*
X121123098Y-105741666D01*
X121123098Y-105741666D02*
X121135003Y-105765475D01*
X121063574Y-105539285D02*
X121063574Y-105372619D01*
X121063574Y-105372619D02*
X121313574Y-105479761D01*
D10*
X111295270Y-93420952D02*
X111234794Y-93541904D01*
X111234794Y-93541904D02*
X111113842Y-93662857D01*
X111113842Y-93662857D02*
X110932413Y-93844285D01*
X110932413Y-93844285D02*
X110871937Y-93965238D01*
X110871937Y-93965238D02*
X110871937Y-94086190D01*
X111174318Y-94025714D02*
X111113842Y-94146666D01*
X111113842Y-94146666D02*
X110992889Y-94267619D01*
X110992889Y-94267619D02*
X110750984Y-94328095D01*
X110750984Y-94328095D02*
X110327651Y-94328095D01*
X110327651Y-94328095D02*
X110085746Y-94267619D01*
X110085746Y-94267619D02*
X109964794Y-94146666D01*
X109964794Y-94146666D02*
X109904318Y-94025714D01*
X109904318Y-94025714D02*
X109904318Y-93783809D01*
X109904318Y-93783809D02*
X109964794Y-93662857D01*
X109964794Y-93662857D02*
X110085746Y-93541904D01*
X110085746Y-93541904D02*
X110327651Y-93481428D01*
X110327651Y-93481428D02*
X110750984Y-93481428D01*
X110750984Y-93481428D02*
X110992889Y-93541904D01*
X110992889Y-93541904D02*
X111113842Y-93662857D01*
X111113842Y-93662857D02*
X111174318Y-93783809D01*
X111174318Y-93783809D02*
X111174318Y-94025714D01*
X110025270Y-92997619D02*
X109964794Y-92937143D01*
X109964794Y-92937143D02*
X109904318Y-92816190D01*
X109904318Y-92816190D02*
X109904318Y-92513809D01*
X109904318Y-92513809D02*
X109964794Y-92392857D01*
X109964794Y-92392857D02*
X110025270Y-92332381D01*
X110025270Y-92332381D02*
X110146222Y-92271904D01*
X110146222Y-92271904D02*
X110267175Y-92271904D01*
X110267175Y-92271904D02*
X110448603Y-92332381D01*
X110448603Y-92332381D02*
X111174318Y-93058095D01*
X111174318Y-93058095D02*
X111174318Y-92271904D01*
D11*
X108410057Y-107542856D02*
X108362438Y-107495237D01*
X108362438Y-107495237D02*
X108314819Y-107399999D01*
X108314819Y-107399999D02*
X108314819Y-107161904D01*
X108314819Y-107161904D02*
X108362438Y-107066666D01*
X108362438Y-107066666D02*
X108410057Y-107019047D01*
X108410057Y-107019047D02*
X108505295Y-106971428D01*
X108505295Y-106971428D02*
X108600533Y-106971428D01*
X108600533Y-106971428D02*
X108743390Y-107019047D01*
X108743390Y-107019047D02*
X109314819Y-107590475D01*
X109314819Y-107590475D02*
X109314819Y-106971428D01*
X108410057Y-106590475D02*
X108362438Y-106542856D01*
X108362438Y-106542856D02*
X108314819Y-106447618D01*
X108314819Y-106447618D02*
X108314819Y-106209523D01*
X108314819Y-106209523D02*
X108362438Y-106114285D01*
X108362438Y-106114285D02*
X108410057Y-106066666D01*
X108410057Y-106066666D02*
X108505295Y-106019047D01*
X108505295Y-106019047D02*
X108600533Y-106019047D01*
X108600533Y-106019047D02*
X108743390Y-106066666D01*
X108743390Y-106066666D02*
X109314819Y-106638094D01*
X109314819Y-106638094D02*
X109314819Y-106019047D01*
X108648152Y-105590475D02*
X109648152Y-105590475D01*
X108695771Y-105590475D02*
X108648152Y-105495237D01*
X108648152Y-105495237D02*
X108648152Y-105304761D01*
X108648152Y-105304761D02*
X108695771Y-105209523D01*
X108695771Y-105209523D02*
X108743390Y-105161904D01*
X108743390Y-105161904D02*
X108838628Y-105114285D01*
X108838628Y-105114285D02*
X109124342Y-105114285D01*
X109124342Y-105114285D02*
X109219580Y-105161904D01*
X109219580Y-105161904D02*
X109267200Y-105209523D01*
X109267200Y-105209523D02*
X109314819Y-105304761D01*
X109314819Y-105304761D02*
X109314819Y-105495237D01*
X109314819Y-105495237D02*
X109267200Y-105590475D01*
X108791009Y-104352380D02*
X108791009Y-104685713D01*
X109314819Y-104685713D02*
X108314819Y-104685713D01*
X108314819Y-104685713D02*
X108314819Y-104209523D01*
D12*
X107789765Y-105941666D02*
X107801670Y-105953570D01*
X107801670Y-105953570D02*
X107813574Y-105989285D01*
X107813574Y-105989285D02*
X107813574Y-106013094D01*
X107813574Y-106013094D02*
X107801670Y-106048808D01*
X107801670Y-106048808D02*
X107777860Y-106072618D01*
X107777860Y-106072618D02*
X107754050Y-106084523D01*
X107754050Y-106084523D02*
X107706431Y-106096427D01*
X107706431Y-106096427D02*
X107670717Y-106096427D01*
X107670717Y-106096427D02*
X107623098Y-106084523D01*
X107623098Y-106084523D02*
X107599289Y-106072618D01*
X107599289Y-106072618D02*
X107575479Y-106048808D01*
X107575479Y-106048808D02*
X107563574Y-106013094D01*
X107563574Y-106013094D02*
X107563574Y-105989285D01*
X107563574Y-105989285D02*
X107575479Y-105953570D01*
X107575479Y-105953570D02*
X107587384Y-105941666D01*
X107563574Y-105727380D02*
X107563574Y-105774999D01*
X107563574Y-105774999D02*
X107575479Y-105798808D01*
X107575479Y-105798808D02*
X107587384Y-105810713D01*
X107587384Y-105810713D02*
X107623098Y-105834523D01*
X107623098Y-105834523D02*
X107670717Y-105846427D01*
X107670717Y-105846427D02*
X107765955Y-105846427D01*
X107765955Y-105846427D02*
X107789765Y-105834523D01*
X107789765Y-105834523D02*
X107801670Y-105822618D01*
X107801670Y-105822618D02*
X107813574Y-105798808D01*
X107813574Y-105798808D02*
X107813574Y-105751189D01*
X107813574Y-105751189D02*
X107801670Y-105727380D01*
X107801670Y-105727380D02*
X107789765Y-105715475D01*
X107789765Y-105715475D02*
X107765955Y-105703570D01*
X107765955Y-105703570D02*
X107706431Y-105703570D01*
X107706431Y-105703570D02*
X107682622Y-105715475D01*
X107682622Y-105715475D02*
X107670717Y-105727380D01*
X107670717Y-105727380D02*
X107658812Y-105751189D01*
X107658812Y-105751189D02*
X107658812Y-105798808D01*
X107658812Y-105798808D02*
X107670717Y-105822618D01*
X107670717Y-105822618D02*
X107682622Y-105834523D01*
X107682622Y-105834523D02*
X107706431Y-105846427D01*
D11*
X104623810Y-108900057D02*
X104671429Y-108852438D01*
X104671429Y-108852438D02*
X104766667Y-108804819D01*
X104766667Y-108804819D02*
X105004762Y-108804819D01*
X105004762Y-108804819D02*
X105100000Y-108852438D01*
X105100000Y-108852438D02*
X105147619Y-108900057D01*
X105147619Y-108900057D02*
X105195238Y-108995295D01*
X105195238Y-108995295D02*
X105195238Y-109090533D01*
X105195238Y-109090533D02*
X105147619Y-109233390D01*
X105147619Y-109233390D02*
X104576191Y-109804819D01*
X104576191Y-109804819D02*
X105195238Y-109804819D01*
X105623810Y-109709580D02*
X105671429Y-109757200D01*
X105671429Y-109757200D02*
X105623810Y-109804819D01*
X105623810Y-109804819D02*
X105576191Y-109757200D01*
X105576191Y-109757200D02*
X105623810Y-109709580D01*
X105623810Y-109709580D02*
X105623810Y-109804819D01*
X106052381Y-108900057D02*
X106100000Y-108852438D01*
X106100000Y-108852438D02*
X106195238Y-108804819D01*
X106195238Y-108804819D02*
X106433333Y-108804819D01*
X106433333Y-108804819D02*
X106528571Y-108852438D01*
X106528571Y-108852438D02*
X106576190Y-108900057D01*
X106576190Y-108900057D02*
X106623809Y-108995295D01*
X106623809Y-108995295D02*
X106623809Y-109090533D01*
X106623809Y-109090533D02*
X106576190Y-109233390D01*
X106576190Y-109233390D02*
X106004762Y-109804819D01*
X106004762Y-109804819D02*
X106623809Y-109804819D01*
X107480952Y-109138152D02*
X107480952Y-109804819D01*
X107052381Y-109138152D02*
X107052381Y-109661961D01*
X107052381Y-109661961D02*
X107100000Y-109757200D01*
X107100000Y-109757200D02*
X107195238Y-109804819D01*
X107195238Y-109804819D02*
X107338095Y-109804819D01*
X107338095Y-109804819D02*
X107433333Y-109757200D01*
X107433333Y-109757200D02*
X107480952Y-109709580D01*
X107957143Y-109804819D02*
X107957143Y-108804819D01*
X107957143Y-109281009D02*
X108528571Y-109281009D01*
X108528571Y-109804819D02*
X108528571Y-108804819D01*
D13*
X106516666Y-108027149D02*
X106278571Y-108027149D01*
X106278571Y-108027149D02*
X106278571Y-107527149D01*
X106945238Y-108027149D02*
X106659524Y-108027149D01*
X106802381Y-108027149D02*
X106802381Y-107527149D01*
X106802381Y-107527149D02*
X106754762Y-107598578D01*
X106754762Y-107598578D02*
X106707143Y-107646197D01*
X106707143Y-107646197D02*
X106659524Y-107670006D01*
D11*
X110280057Y-104885713D02*
X110232438Y-104838094D01*
X110232438Y-104838094D02*
X110184819Y-104742856D01*
X110184819Y-104742856D02*
X110184819Y-104504761D01*
X110184819Y-104504761D02*
X110232438Y-104409523D01*
X110232438Y-104409523D02*
X110280057Y-104361904D01*
X110280057Y-104361904D02*
X110375295Y-104314285D01*
X110375295Y-104314285D02*
X110470533Y-104314285D01*
X110470533Y-104314285D02*
X110613390Y-104361904D01*
X110613390Y-104361904D02*
X111184819Y-104933332D01*
X111184819Y-104933332D02*
X111184819Y-104314285D01*
X111184819Y-103885713D02*
X110184819Y-103885713D01*
X111184819Y-103314285D02*
X110613390Y-103742856D01*
X110184819Y-103314285D02*
X110756247Y-103885713D01*
D12*
X112018200Y-104267142D02*
X111894391Y-104353809D01*
X112018200Y-104415714D02*
X111758200Y-104415714D01*
X111758200Y-104415714D02*
X111758200Y-104316666D01*
X111758200Y-104316666D02*
X111770581Y-104291904D01*
X111770581Y-104291904D02*
X111782962Y-104279523D01*
X111782962Y-104279523D02*
X111807724Y-104267142D01*
X111807724Y-104267142D02*
X111844867Y-104267142D01*
X111844867Y-104267142D02*
X111869629Y-104279523D01*
X111869629Y-104279523D02*
X111882010Y-104291904D01*
X111882010Y-104291904D02*
X111894391Y-104316666D01*
X111894391Y-104316666D02*
X111894391Y-104415714D01*
X112018200Y-104019523D02*
X112018200Y-104168095D01*
X112018200Y-104093809D02*
X111758200Y-104093809D01*
X111758200Y-104093809D02*
X111795343Y-104118571D01*
X111795343Y-104118571D02*
X111820105Y-104143333D01*
X111820105Y-104143333D02*
X111832486Y-104168095D01*
X111869629Y-103870952D02*
X111857248Y-103895714D01*
X111857248Y-103895714D02*
X111844867Y-103908095D01*
X111844867Y-103908095D02*
X111820105Y-103920476D01*
X111820105Y-103920476D02*
X111807724Y-103920476D01*
X111807724Y-103920476D02*
X111782962Y-103908095D01*
X111782962Y-103908095D02*
X111770581Y-103895714D01*
X111770581Y-103895714D02*
X111758200Y-103870952D01*
X111758200Y-103870952D02*
X111758200Y-103821428D01*
X111758200Y-103821428D02*
X111770581Y-103796666D01*
X111770581Y-103796666D02*
X111782962Y-103784285D01*
X111782962Y-103784285D02*
X111807724Y-103771904D01*
X111807724Y-103771904D02*
X111820105Y-103771904D01*
X111820105Y-103771904D02*
X111844867Y-103784285D01*
X111844867Y-103784285D02*
X111857248Y-103796666D01*
X111857248Y-103796666D02*
X111869629Y-103821428D01*
X111869629Y-103821428D02*
X111869629Y-103870952D01*
X111869629Y-103870952D02*
X111882010Y-103895714D01*
X111882010Y-103895714D02*
X111894391Y-103908095D01*
X111894391Y-103908095D02*
X111919153Y-103920476D01*
X111919153Y-103920476D02*
X111968677Y-103920476D01*
X111968677Y-103920476D02*
X111993439Y-103908095D01*
X111993439Y-103908095D02*
X112005820Y-103895714D01*
X112005820Y-103895714D02*
X112018200Y-103870952D01*
X112018200Y-103870952D02*
X112018200Y-103821428D01*
X112018200Y-103821428D02*
X112005820Y-103796666D01*
X112005820Y-103796666D02*
X111993439Y-103784285D01*
X111993439Y-103784285D02*
X111968677Y-103771904D01*
X111968677Y-103771904D02*
X111919153Y-103771904D01*
X111919153Y-103771904D02*
X111894391Y-103784285D01*
X111894391Y-103784285D02*
X111882010Y-103796666D01*
X111882010Y-103796666D02*
X111869629Y-103821428D01*
D10*
X117432380Y-98604318D02*
X117432380Y-99632413D01*
X117432380Y-99632413D02*
X117492857Y-99753365D01*
X117492857Y-99753365D02*
X117553333Y-99813842D01*
X117553333Y-99813842D02*
X117674285Y-99874318D01*
X117674285Y-99874318D02*
X117916190Y-99874318D01*
X117916190Y-99874318D02*
X118037142Y-99813842D01*
X118037142Y-99813842D02*
X118097619Y-99753365D01*
X118097619Y-99753365D02*
X118158095Y-99632413D01*
X118158095Y-99632413D02*
X118158095Y-98604318D01*
X118641904Y-98604318D02*
X119428095Y-98604318D01*
X119428095Y-98604318D02*
X119004761Y-99088127D01*
X119004761Y-99088127D02*
X119186190Y-99088127D01*
X119186190Y-99088127D02*
X119307142Y-99148603D01*
X119307142Y-99148603D02*
X119367618Y-99209080D01*
X119367618Y-99209080D02*
X119428095Y-99330032D01*
X119428095Y-99330032D02*
X119428095Y-99632413D01*
X119428095Y-99632413D02*
X119367618Y-99753365D01*
X119367618Y-99753365D02*
X119307142Y-99813842D01*
X119307142Y-99813842D02*
X119186190Y-99874318D01*
X119186190Y-99874318D02*
X118823333Y-99874318D01*
X118823333Y-99874318D02*
X118702380Y-99813842D01*
X118702380Y-99813842D02*
X118641904Y-99753365D01*
D11*
X100124819Y-107342857D02*
X100124819Y-107914285D01*
X100124819Y-107628571D02*
X99124819Y-107628571D01*
X99124819Y-107628571D02*
X99267676Y-107723809D01*
X99267676Y-107723809D02*
X99362914Y-107819047D01*
X99362914Y-107819047D02*
X99410533Y-107914285D01*
X99124819Y-106723809D02*
X99124819Y-106628571D01*
X99124819Y-106628571D02*
X99172438Y-106533333D01*
X99172438Y-106533333D02*
X99220057Y-106485714D01*
X99220057Y-106485714D02*
X99315295Y-106438095D01*
X99315295Y-106438095D02*
X99505771Y-106390476D01*
X99505771Y-106390476D02*
X99743866Y-106390476D01*
X99743866Y-106390476D02*
X99934342Y-106438095D01*
X99934342Y-106438095D02*
X100029580Y-106485714D01*
X100029580Y-106485714D02*
X100077200Y-106533333D01*
X100077200Y-106533333D02*
X100124819Y-106628571D01*
X100124819Y-106628571D02*
X100124819Y-106723809D01*
X100124819Y-106723809D02*
X100077200Y-106819047D01*
X100077200Y-106819047D02*
X100029580Y-106866666D01*
X100029580Y-106866666D02*
X99934342Y-106914285D01*
X99934342Y-106914285D02*
X99743866Y-106961904D01*
X99743866Y-106961904D02*
X99505771Y-106961904D01*
X99505771Y-106961904D02*
X99315295Y-106914285D01*
X99315295Y-106914285D02*
X99220057Y-106866666D01*
X99220057Y-106866666D02*
X99172438Y-106819047D01*
X99172438Y-106819047D02*
X99124819Y-106723809D01*
X99458152Y-105533333D02*
X100124819Y-105533333D01*
X99458152Y-105961904D02*
X99981961Y-105961904D01*
X99981961Y-105961904D02*
X100077200Y-105914285D01*
X100077200Y-105914285D02*
X100124819Y-105819047D01*
X100124819Y-105819047D02*
X100124819Y-105676190D01*
X100124819Y-105676190D02*
X100077200Y-105580952D01*
X100077200Y-105580952D02*
X100029580Y-105533333D01*
D15*
X101243832Y-106766666D02*
X101262880Y-106785714D01*
X101262880Y-106785714D02*
X101281927Y-106842856D01*
X101281927Y-106842856D02*
X101281927Y-106880952D01*
X101281927Y-106880952D02*
X101262880Y-106938095D01*
X101262880Y-106938095D02*
X101224784Y-106976190D01*
X101224784Y-106976190D02*
X101186689Y-106995237D01*
X101186689Y-106995237D02*
X101110499Y-107014285D01*
X101110499Y-107014285D02*
X101053356Y-107014285D01*
X101053356Y-107014285D02*
X100977165Y-106995237D01*
X100977165Y-106995237D02*
X100939070Y-106976190D01*
X100939070Y-106976190D02*
X100900975Y-106938095D01*
X100900975Y-106938095D02*
X100881927Y-106880952D01*
X100881927Y-106880952D02*
X100881927Y-106842856D01*
X100881927Y-106842856D02*
X100900975Y-106785714D01*
X100900975Y-106785714D02*
X100920022Y-106766666D01*
X100881927Y-106404761D02*
X100881927Y-106595237D01*
X100881927Y-106595237D02*
X101072403Y-106614285D01*
X101072403Y-106614285D02*
X101053356Y-106595237D01*
X101053356Y-106595237D02*
X101034308Y-106557142D01*
X101034308Y-106557142D02*
X101034308Y-106461904D01*
X101034308Y-106461904D02*
X101053356Y-106423809D01*
X101053356Y-106423809D02*
X101072403Y-106404761D01*
X101072403Y-106404761D02*
X101110499Y-106385714D01*
X101110499Y-106385714D02*
X101205737Y-106385714D01*
X101205737Y-106385714D02*
X101243832Y-106404761D01*
X101243832Y-106404761D02*
X101262880Y-106423809D01*
X101262880Y-106423809D02*
X101281927Y-106461904D01*
X101281927Y-106461904D02*
X101281927Y-106557142D01*
X101281927Y-106557142D02*
X101262880Y-106595237D01*
X101262880Y-106595237D02*
X101243832Y-106614285D01*
D11*
X107558152Y-107066666D02*
X108224819Y-107066666D01*
X107177200Y-107304761D02*
X107891485Y-107542856D01*
X107891485Y-107542856D02*
X107891485Y-106923809D01*
X107224819Y-106066666D02*
X107224819Y-106542856D01*
X107224819Y-106542856D02*
X107701009Y-106590475D01*
X107701009Y-106590475D02*
X107653390Y-106542856D01*
X107653390Y-106542856D02*
X107605771Y-106447618D01*
X107605771Y-106447618D02*
X107605771Y-106209523D01*
X107605771Y-106209523D02*
X107653390Y-106114285D01*
X107653390Y-106114285D02*
X107701009Y-106066666D01*
X107701009Y-106066666D02*
X107796247Y-106019047D01*
X107796247Y-106019047D02*
X108034342Y-106019047D01*
X108034342Y-106019047D02*
X108129580Y-106066666D01*
X108129580Y-106066666D02*
X108177200Y-106114285D01*
X108177200Y-106114285D02*
X108224819Y-106209523D01*
X108224819Y-106209523D02*
X108224819Y-106447618D01*
X108224819Y-106447618D02*
X108177200Y-106542856D01*
X108177200Y-106542856D02*
X108129580Y-106590475D01*
X107224819Y-105685713D02*
X107224819Y-105066666D01*
X107224819Y-105066666D02*
X107605771Y-105399999D01*
X107605771Y-105399999D02*
X107605771Y-105257142D01*
X107605771Y-105257142D02*
X107653390Y-105161904D01*
X107653390Y-105161904D02*
X107701009Y-105114285D01*
X107701009Y-105114285D02*
X107796247Y-105066666D01*
X107796247Y-105066666D02*
X108034342Y-105066666D01*
X108034342Y-105066666D02*
X108129580Y-105114285D01*
X108129580Y-105114285D02*
X108177200Y-105161904D01*
X108177200Y-105161904D02*
X108224819Y-105257142D01*
X108224819Y-105257142D02*
X108224819Y-105542856D01*
X108224819Y-105542856D02*
X108177200Y-105638094D01*
X108177200Y-105638094D02*
X108129580Y-105685713D01*
X108224819Y-104638094D02*
X107224819Y-104638094D01*
X107843866Y-104542856D02*
X108224819Y-104257142D01*
X107558152Y-104257142D02*
X107939104Y-104638094D01*
D12*
X106718200Y-105943332D02*
X106594391Y-106029999D01*
X106718200Y-106091904D02*
X106458200Y-106091904D01*
X106458200Y-106091904D02*
X106458200Y-105992856D01*
X106458200Y-105992856D02*
X106470581Y-105968094D01*
X106470581Y-105968094D02*
X106482962Y-105955713D01*
X106482962Y-105955713D02*
X106507724Y-105943332D01*
X106507724Y-105943332D02*
X106544867Y-105943332D01*
X106544867Y-105943332D02*
X106569629Y-105955713D01*
X106569629Y-105955713D02*
X106582010Y-105968094D01*
X106582010Y-105968094D02*
X106594391Y-105992856D01*
X106594391Y-105992856D02*
X106594391Y-106091904D01*
X106458200Y-105856666D02*
X106458200Y-105683332D01*
X106458200Y-105683332D02*
X106718200Y-105794761D01*
D11*
X119438095Y-102780057D02*
X119485714Y-102732438D01*
X119485714Y-102732438D02*
X119580952Y-102684819D01*
X119580952Y-102684819D02*
X119819047Y-102684819D01*
X119819047Y-102684819D02*
X119914285Y-102732438D01*
X119914285Y-102732438D02*
X119961904Y-102780057D01*
X119961904Y-102780057D02*
X120009523Y-102875295D01*
X120009523Y-102875295D02*
X120009523Y-102970533D01*
X120009523Y-102970533D02*
X119961904Y-103113390D01*
X119961904Y-103113390D02*
X119390476Y-103684819D01*
X119390476Y-103684819D02*
X120009523Y-103684819D01*
X120628571Y-102684819D02*
X120723809Y-102684819D01*
X120723809Y-102684819D02*
X120819047Y-102732438D01*
X120819047Y-102732438D02*
X120866666Y-102780057D01*
X120866666Y-102780057D02*
X120914285Y-102875295D01*
X120914285Y-102875295D02*
X120961904Y-103065771D01*
X120961904Y-103065771D02*
X120961904Y-103303866D01*
X120961904Y-103303866D02*
X120914285Y-103494342D01*
X120914285Y-103494342D02*
X120866666Y-103589580D01*
X120866666Y-103589580D02*
X120819047Y-103637200D01*
X120819047Y-103637200D02*
X120723809Y-103684819D01*
X120723809Y-103684819D02*
X120628571Y-103684819D01*
X120628571Y-103684819D02*
X120533333Y-103637200D01*
X120533333Y-103637200D02*
X120485714Y-103589580D01*
X120485714Y-103589580D02*
X120438095Y-103494342D01*
X120438095Y-103494342D02*
X120390476Y-103303866D01*
X120390476Y-103303866D02*
X120390476Y-103065771D01*
X120390476Y-103065771D02*
X120438095Y-102875295D01*
X120438095Y-102875295D02*
X120485714Y-102780057D01*
X120485714Y-102780057D02*
X120533333Y-102732438D01*
X120533333Y-102732438D02*
X120628571Y-102684819D01*
X121390476Y-103684819D02*
X121390476Y-102684819D01*
X121961904Y-103684819D02*
X121533333Y-103113390D01*
X121961904Y-102684819D02*
X121390476Y-103256247D01*
D12*
X120532857Y-104518200D02*
X120446190Y-104394391D01*
X120384285Y-104518200D02*
X120384285Y-104258200D01*
X120384285Y-104258200D02*
X120483333Y-104258200D01*
X120483333Y-104258200D02*
X120508095Y-104270581D01*
X120508095Y-104270581D02*
X120520476Y-104282962D01*
X120520476Y-104282962D02*
X120532857Y-104307724D01*
X120532857Y-104307724D02*
X120532857Y-104344867D01*
X120532857Y-104344867D02*
X120520476Y-104369629D01*
X120520476Y-104369629D02*
X120508095Y-104382010D01*
X120508095Y-104382010D02*
X120483333Y-104394391D01*
X120483333Y-104394391D02*
X120384285Y-104394391D01*
X120780476Y-104518200D02*
X120631904Y-104518200D01*
X120706190Y-104518200D02*
X120706190Y-104258200D01*
X120706190Y-104258200D02*
X120681428Y-104295343D01*
X120681428Y-104295343D02*
X120656666Y-104320105D01*
X120656666Y-104320105D02*
X120631904Y-104332486D01*
X121015714Y-104258200D02*
X120891904Y-104258200D01*
X120891904Y-104258200D02*
X120879523Y-104382010D01*
X120879523Y-104382010D02*
X120891904Y-104369629D01*
X120891904Y-104369629D02*
X120916666Y-104357248D01*
X120916666Y-104357248D02*
X120978571Y-104357248D01*
X120978571Y-104357248D02*
X121003333Y-104369629D01*
X121003333Y-104369629D02*
X121015714Y-104382010D01*
X121015714Y-104382010D02*
X121028095Y-104406772D01*
X121028095Y-104406772D02*
X121028095Y-104468677D01*
X121028095Y-104468677D02*
X121015714Y-104493439D01*
X121015714Y-104493439D02*
X121003333Y-104505820D01*
X121003333Y-104505820D02*
X120978571Y-104518200D01*
X120978571Y-104518200D02*
X120916666Y-104518200D01*
X120916666Y-104518200D02*
X120891904Y-104505820D01*
X120891904Y-104505820D02*
X120879523Y-104493439D01*
D11*
X118871429Y-104004819D02*
X119490476Y-104004819D01*
X119490476Y-104004819D02*
X119157143Y-104385771D01*
X119157143Y-104385771D02*
X119300000Y-104385771D01*
X119300000Y-104385771D02*
X119395238Y-104433390D01*
X119395238Y-104433390D02*
X119442857Y-104481009D01*
X119442857Y-104481009D02*
X119490476Y-104576247D01*
X119490476Y-104576247D02*
X119490476Y-104814342D01*
X119490476Y-104814342D02*
X119442857Y-104909580D01*
X119442857Y-104909580D02*
X119395238Y-104957200D01*
X119395238Y-104957200D02*
X119300000Y-105004819D01*
X119300000Y-105004819D02*
X119014286Y-105004819D01*
X119014286Y-105004819D02*
X118919048Y-104957200D01*
X118919048Y-104957200D02*
X118871429Y-104909580D01*
X119919048Y-104909580D02*
X119966667Y-104957200D01*
X119966667Y-104957200D02*
X119919048Y-105004819D01*
X119919048Y-105004819D02*
X119871429Y-104957200D01*
X119871429Y-104957200D02*
X119919048Y-104909580D01*
X119919048Y-104909580D02*
X119919048Y-105004819D01*
X120300000Y-104004819D02*
X120919047Y-104004819D01*
X120919047Y-104004819D02*
X120585714Y-104385771D01*
X120585714Y-104385771D02*
X120728571Y-104385771D01*
X120728571Y-104385771D02*
X120823809Y-104433390D01*
X120823809Y-104433390D02*
X120871428Y-104481009D01*
X120871428Y-104481009D02*
X120919047Y-104576247D01*
X120919047Y-104576247D02*
X120919047Y-104814342D01*
X120919047Y-104814342D02*
X120871428Y-104909580D01*
X120871428Y-104909580D02*
X120823809Y-104957200D01*
X120823809Y-104957200D02*
X120728571Y-105004819D01*
X120728571Y-105004819D02*
X120442857Y-105004819D01*
X120442857Y-105004819D02*
X120347619Y-104957200D01*
X120347619Y-104957200D02*
X120300000Y-104909580D01*
X121347619Y-104338152D02*
X121347619Y-105004819D01*
X121347619Y-104433390D02*
X121395238Y-104385771D01*
X121395238Y-104385771D02*
X121490476Y-104338152D01*
X121490476Y-104338152D02*
X121633333Y-104338152D01*
X121633333Y-104338152D02*
X121728571Y-104385771D01*
X121728571Y-104385771D02*
X121776190Y-104481009D01*
X121776190Y-104481009D02*
X121776190Y-105004819D01*
X122585714Y-104481009D02*
X122252381Y-104481009D01*
X122252381Y-105004819D02*
X122252381Y-104004819D01*
X122252381Y-104004819D02*
X122728571Y-104004819D01*
D12*
X120639285Y-102909765D02*
X120627381Y-102921670D01*
X120627381Y-102921670D02*
X120591666Y-102933574D01*
X120591666Y-102933574D02*
X120567857Y-102933574D01*
X120567857Y-102933574D02*
X120532143Y-102921670D01*
X120532143Y-102921670D02*
X120508333Y-102897860D01*
X120508333Y-102897860D02*
X120496428Y-102874050D01*
X120496428Y-102874050D02*
X120484524Y-102826431D01*
X120484524Y-102826431D02*
X120484524Y-102790717D01*
X120484524Y-102790717D02*
X120496428Y-102743098D01*
X120496428Y-102743098D02*
X120508333Y-102719289D01*
X120508333Y-102719289D02*
X120532143Y-102695479D01*
X120532143Y-102695479D02*
X120567857Y-102683574D01*
X120567857Y-102683574D02*
X120591666Y-102683574D01*
X120591666Y-102683574D02*
X120627381Y-102695479D01*
X120627381Y-102695479D02*
X120639285Y-102707384D01*
X120877381Y-102933574D02*
X120734524Y-102933574D01*
X120805952Y-102933574D02*
X120805952Y-102683574D01*
X120805952Y-102683574D02*
X120782143Y-102719289D01*
X120782143Y-102719289D02*
X120758333Y-102743098D01*
X120758333Y-102743098D02*
X120734524Y-102755003D01*
X121091666Y-102683574D02*
X121044047Y-102683574D01*
X121044047Y-102683574D02*
X121020238Y-102695479D01*
X121020238Y-102695479D02*
X121008333Y-102707384D01*
X121008333Y-102707384D02*
X120984523Y-102743098D01*
X120984523Y-102743098D02*
X120972619Y-102790717D01*
X120972619Y-102790717D02*
X120972619Y-102885955D01*
X120972619Y-102885955D02*
X120984523Y-102909765D01*
X120984523Y-102909765D02*
X120996428Y-102921670D01*
X120996428Y-102921670D02*
X121020238Y-102933574D01*
X121020238Y-102933574D02*
X121067857Y-102933574D01*
X121067857Y-102933574D02*
X121091666Y-102921670D01*
X121091666Y-102921670D02*
X121103571Y-102909765D01*
X121103571Y-102909765D02*
X121115476Y-102885955D01*
X121115476Y-102885955D02*
X121115476Y-102826431D01*
X121115476Y-102826431D02*
X121103571Y-102802622D01*
X121103571Y-102802622D02*
X121091666Y-102790717D01*
X121091666Y-102790717D02*
X121067857Y-102778812D01*
X121067857Y-102778812D02*
X121020238Y-102778812D01*
X121020238Y-102778812D02*
X120996428Y-102790717D01*
X120996428Y-102790717D02*
X120984523Y-102802622D01*
X120984523Y-102802622D02*
X120972619Y-102826431D01*
D11*
X111709523Y-95484819D02*
X111138095Y-95484819D01*
X111423809Y-95484819D02*
X111423809Y-94484819D01*
X111423809Y-94484819D02*
X111328571Y-94627676D01*
X111328571Y-94627676D02*
X111233333Y-94722914D01*
X111233333Y-94722914D02*
X111138095Y-94770533D01*
X112328571Y-94484819D02*
X112423809Y-94484819D01*
X112423809Y-94484819D02*
X112519047Y-94532438D01*
X112519047Y-94532438D02*
X112566666Y-94580057D01*
X112566666Y-94580057D02*
X112614285Y-94675295D01*
X112614285Y-94675295D02*
X112661904Y-94865771D01*
X112661904Y-94865771D02*
X112661904Y-95103866D01*
X112661904Y-95103866D02*
X112614285Y-95294342D01*
X112614285Y-95294342D02*
X112566666Y-95389580D01*
X112566666Y-95389580D02*
X112519047Y-95437200D01*
X112519047Y-95437200D02*
X112423809Y-95484819D01*
X112423809Y-95484819D02*
X112328571Y-95484819D01*
X112328571Y-95484819D02*
X112233333Y-95437200D01*
X112233333Y-95437200D02*
X112185714Y-95389580D01*
X112185714Y-95389580D02*
X112138095Y-95294342D01*
X112138095Y-95294342D02*
X112090476Y-95103866D01*
X112090476Y-95103866D02*
X112090476Y-94865771D01*
X112090476Y-94865771D02*
X112138095Y-94675295D01*
X112138095Y-94675295D02*
X112185714Y-94580057D01*
X112185714Y-94580057D02*
X112233333Y-94532438D01*
X112233333Y-94532438D02*
X112328571Y-94484819D01*
X113090476Y-95484819D02*
X113090476Y-94484819D01*
X113661904Y-95484819D02*
X113233333Y-94913390D01*
X113661904Y-94484819D02*
X113090476Y-95056247D01*
D12*
X112232857Y-96318200D02*
X112146190Y-96194391D01*
X112084285Y-96318200D02*
X112084285Y-96058200D01*
X112084285Y-96058200D02*
X112183333Y-96058200D01*
X112183333Y-96058200D02*
X112208095Y-96070581D01*
X112208095Y-96070581D02*
X112220476Y-96082962D01*
X112220476Y-96082962D02*
X112232857Y-96107724D01*
X112232857Y-96107724D02*
X112232857Y-96144867D01*
X112232857Y-96144867D02*
X112220476Y-96169629D01*
X112220476Y-96169629D02*
X112208095Y-96182010D01*
X112208095Y-96182010D02*
X112183333Y-96194391D01*
X112183333Y-96194391D02*
X112084285Y-96194391D01*
X112331904Y-96082962D02*
X112344285Y-96070581D01*
X112344285Y-96070581D02*
X112369047Y-96058200D01*
X112369047Y-96058200D02*
X112430952Y-96058200D01*
X112430952Y-96058200D02*
X112455714Y-96070581D01*
X112455714Y-96070581D02*
X112468095Y-96082962D01*
X112468095Y-96082962D02*
X112480476Y-96107724D01*
X112480476Y-96107724D02*
X112480476Y-96132486D01*
X112480476Y-96132486D02*
X112468095Y-96169629D01*
X112468095Y-96169629D02*
X112319523Y-96318200D01*
X112319523Y-96318200D02*
X112480476Y-96318200D01*
X112641428Y-96058200D02*
X112666190Y-96058200D01*
X112666190Y-96058200D02*
X112690952Y-96070581D01*
X112690952Y-96070581D02*
X112703333Y-96082962D01*
X112703333Y-96082962D02*
X112715714Y-96107724D01*
X112715714Y-96107724D02*
X112728095Y-96157248D01*
X112728095Y-96157248D02*
X112728095Y-96219153D01*
X112728095Y-96219153D02*
X112715714Y-96268677D01*
X112715714Y-96268677D02*
X112703333Y-96293439D01*
X112703333Y-96293439D02*
X112690952Y-96305820D01*
X112690952Y-96305820D02*
X112666190Y-96318200D01*
X112666190Y-96318200D02*
X112641428Y-96318200D01*
X112641428Y-96318200D02*
X112616666Y-96305820D01*
X112616666Y-96305820D02*
X112604285Y-96293439D01*
X112604285Y-96293439D02*
X112591904Y-96268677D01*
X112591904Y-96268677D02*
X112579523Y-96219153D01*
X112579523Y-96219153D02*
X112579523Y-96157248D01*
X112579523Y-96157248D02*
X112591904Y-96107724D01*
X112591904Y-96107724D02*
X112604285Y-96082962D01*
X112604285Y-96082962D02*
X112616666Y-96070581D01*
X112616666Y-96070581D02*
X112641428Y-96058200D01*
D11*
X109610057Y-107780951D02*
X109562438Y-107733332D01*
X109562438Y-107733332D02*
X109514819Y-107638094D01*
X109514819Y-107638094D02*
X109514819Y-107399999D01*
X109514819Y-107399999D02*
X109562438Y-107304761D01*
X109562438Y-107304761D02*
X109610057Y-107257142D01*
X109610057Y-107257142D02*
X109705295Y-107209523D01*
X109705295Y-107209523D02*
X109800533Y-107209523D01*
X109800533Y-107209523D02*
X109943390Y-107257142D01*
X109943390Y-107257142D02*
X110514819Y-107828570D01*
X110514819Y-107828570D02*
X110514819Y-107209523D01*
X110419580Y-106780951D02*
X110467200Y-106733332D01*
X110467200Y-106733332D02*
X110514819Y-106780951D01*
X110514819Y-106780951D02*
X110467200Y-106828570D01*
X110467200Y-106828570D02*
X110419580Y-106780951D01*
X110419580Y-106780951D02*
X110514819Y-106780951D01*
X109610057Y-106352380D02*
X109562438Y-106304761D01*
X109562438Y-106304761D02*
X109514819Y-106209523D01*
X109514819Y-106209523D02*
X109514819Y-105971428D01*
X109514819Y-105971428D02*
X109562438Y-105876190D01*
X109562438Y-105876190D02*
X109610057Y-105828571D01*
X109610057Y-105828571D02*
X109705295Y-105780952D01*
X109705295Y-105780952D02*
X109800533Y-105780952D01*
X109800533Y-105780952D02*
X109943390Y-105828571D01*
X109943390Y-105828571D02*
X110514819Y-106399999D01*
X110514819Y-106399999D02*
X110514819Y-105780952D01*
X109848152Y-104923809D02*
X110514819Y-104923809D01*
X109848152Y-105352380D02*
X110371961Y-105352380D01*
X110371961Y-105352380D02*
X110467200Y-105304761D01*
X110467200Y-105304761D02*
X110514819Y-105209523D01*
X110514819Y-105209523D02*
X110514819Y-105066666D01*
X110514819Y-105066666D02*
X110467200Y-104971428D01*
X110467200Y-104971428D02*
X110419580Y-104923809D01*
X109991009Y-104114285D02*
X109991009Y-104447618D01*
X110514819Y-104447618D02*
X109514819Y-104447618D01*
X109514819Y-104447618D02*
X109514819Y-103971428D01*
D12*
X108989765Y-105941666D02*
X109001670Y-105953570D01*
X109001670Y-105953570D02*
X109013574Y-105989285D01*
X109013574Y-105989285D02*
X109013574Y-106013094D01*
X109013574Y-106013094D02*
X109001670Y-106048808D01*
X109001670Y-106048808D02*
X108977860Y-106072618D01*
X108977860Y-106072618D02*
X108954050Y-106084523D01*
X108954050Y-106084523D02*
X108906431Y-106096427D01*
X108906431Y-106096427D02*
X108870717Y-106096427D01*
X108870717Y-106096427D02*
X108823098Y-106084523D01*
X108823098Y-106084523D02*
X108799289Y-106072618D01*
X108799289Y-106072618D02*
X108775479Y-106048808D01*
X108775479Y-106048808D02*
X108763574Y-106013094D01*
X108763574Y-106013094D02*
X108763574Y-105989285D01*
X108763574Y-105989285D02*
X108775479Y-105953570D01*
X108775479Y-105953570D02*
X108787384Y-105941666D01*
X108763574Y-105858332D02*
X108763574Y-105691666D01*
X108763574Y-105691666D02*
X109013574Y-105798808D01*
D16*
G04 #@! TO.C,SW1*
X109950000Y-106900000D02*
X112550000Y-106900000D01*
X109950000Y-108500000D02*
X109950000Y-106900000D01*
X112550000Y-106900000D02*
X112550000Y-108500000D01*
X112550000Y-108500000D02*
X109950000Y-108500000D01*
D17*
G04 #@! TO.C,D3*
X102300000Y-92000000D02*
X102300000Y-93300000D01*
X102300000Y-93300000D02*
X102600000Y-93600000D01*
X102600000Y-93600000D02*
X103100000Y-93600000D01*
X103100000Y-92000000D02*
X102300000Y-92000000D01*
X103100000Y-93600000D02*
X103100000Y-92000000D01*
G04 #@! TO.C,C9*
X119250000Y-93500000D02*
X119750000Y-93500000D01*
X119250000Y-94500000D02*
X119250000Y-93500000D01*
X119750000Y-93500000D02*
X119750000Y-94500000D01*
X119750000Y-94500000D02*
X119250000Y-94500000D01*
G04 #@! TO.C,J1*
X98750000Y-95030000D02*
X98750000Y-103970000D01*
X106050000Y-95030000D02*
X98750000Y-95030000D01*
X106050000Y-95030000D02*
X106050000Y-103970000D01*
X106050000Y-103970000D02*
X98750000Y-103970000D01*
G04 #@! TO.C,C19*
X122800000Y-98400000D02*
X123600000Y-98400000D01*
X122800000Y-100000000D02*
X122800000Y-98400000D01*
X123600000Y-98400000D02*
X123600000Y-100000000D01*
X123600000Y-100000000D02*
X122800000Y-100000000D01*
G04 #@! TO.C,R13*
X100950000Y-92300000D02*
X101450000Y-92300000D01*
X100950000Y-93300000D02*
X100950000Y-92300000D01*
X101450000Y-92300000D02*
X101450000Y-93300000D01*
X101450000Y-93300000D02*
X100950000Y-93300000D01*
G04 #@! TO.C,R10*
X111100000Y-105350000D02*
X112100000Y-105350000D01*
X111100000Y-105850000D02*
X111100000Y-105350000D01*
X112100000Y-105350000D02*
X112100000Y-105850000D01*
X112100000Y-105850000D02*
X111100000Y-105850000D01*
G04 #@! TO.C,C12*
X113550000Y-95700000D02*
X114050000Y-95700000D01*
X113550000Y-96700000D02*
X113550000Y-95700000D01*
X114050000Y-95700000D02*
X114050000Y-96700000D01*
X114050000Y-96700000D02*
X113550000Y-96700000D01*
G04 #@! TO.C,U7*
X108500000Y-98500000D02*
X109500000Y-97500000D01*
X108500000Y-102500000D02*
X108500000Y-98500000D01*
X109500000Y-97500000D02*
X113500000Y-97500000D01*
X113500000Y-97500000D02*
X113500000Y-102500000D01*
X113500000Y-102500000D02*
X108500000Y-102500000D01*
G04 #@! TO.C,R1*
X113275000Y-105330000D02*
X114325000Y-105330000D01*
X113275000Y-105870000D02*
X113275000Y-105330000D01*
X114325000Y-105330000D02*
X114325000Y-105870000D01*
X114325000Y-105870000D02*
X113275000Y-105870000D01*
G04 #@! TO.C,U5*
X102300000Y-105400000D02*
X104300000Y-105400000D01*
X102300000Y-107400000D02*
X102300000Y-105400000D01*
X103800000Y-107400000D02*
X102300000Y-107400000D01*
X104300000Y-105400000D02*
X104300000Y-106900000D01*
X104300000Y-106900000D02*
X103800000Y-107400000D01*
G04 #@! TO.C,C3*
X115250000Y-104600000D02*
X115750000Y-104600000D01*
X115250000Y-105600000D02*
X115250000Y-104600000D01*
X115750000Y-104600000D02*
X115750000Y-105600000D01*
X115750000Y-105600000D02*
X115250000Y-105600000D01*
G04 #@! TO.C,U4*
X125985000Y-94085000D02*
X131215000Y-94085000D01*
X125985000Y-99315000D02*
X125985000Y-94085000D01*
X130215000Y-99315000D02*
X125985000Y-99315000D01*
X131215000Y-94085000D02*
X131215000Y-98315000D01*
X131215000Y-98315000D02*
X130215000Y-99315000D01*
G04 #@! TO.C,R16*
X110530000Y-103575000D02*
X111070000Y-103575000D01*
X110530000Y-104625000D02*
X110530000Y-103575000D01*
X111070000Y-103575000D02*
X111070000Y-104625000D01*
X111070000Y-104625000D02*
X110530000Y-104625000D01*
G04 #@! TO.C,R21*
X109875000Y-95930000D02*
X110925000Y-95930000D01*
X109875000Y-96470000D02*
X109875000Y-95930000D01*
X110925000Y-95930000D02*
X110925000Y-96470000D01*
X110925000Y-96470000D02*
X109875000Y-96470000D01*
G04 #@! TO.C,C14*
X120900000Y-94000000D02*
X122500000Y-94000000D01*
X120900000Y-94800000D02*
X120900000Y-94000000D01*
X122500000Y-94000000D02*
X122500000Y-94800000D01*
X122500000Y-94800000D02*
X120900000Y-94800000D01*
G04 #@! TO.C,RN1*
X133800000Y-104200000D02*
X134800000Y-104200000D01*
X133800000Y-106200000D02*
X133800000Y-104200000D01*
X134800000Y-104200000D02*
X134800000Y-106200000D01*
X134800000Y-106200000D02*
X133800000Y-106200000D01*
G04 #@! TO.C,Q1*
X112650000Y-92650000D02*
X115550000Y-92650000D01*
X112650000Y-93950000D02*
X112650000Y-92650000D01*
X113600000Y-93950000D02*
X112650000Y-93000000D01*
X115550000Y-92650000D02*
X115550000Y-93950000D01*
X115550000Y-93950000D02*
X112650000Y-93950000D01*
G04 #@! TO.C,L2*
X122850000Y-101200000D02*
X123350000Y-101200000D01*
X122850000Y-102200000D02*
X122850000Y-101200000D01*
X123350000Y-101200000D02*
X123350000Y-102200000D01*
X123350000Y-102200000D02*
X122850000Y-102200000D01*
G04 #@! TO.C,C11*
X124100000Y-101950000D02*
X125100000Y-101950000D01*
X124100000Y-102450000D02*
X124100000Y-101950000D01*
X125100000Y-101950000D02*
X125100000Y-102450000D01*
X125100000Y-102450000D02*
X124100000Y-102450000D01*
G04 #@! TO.C,C20*
X108000000Y-104250000D02*
X109000000Y-104250000D01*
X108000000Y-104750000D02*
X108000000Y-104250000D01*
X109000000Y-104250000D02*
X109000000Y-104750000D01*
X109000000Y-104750000D02*
X108000000Y-104750000D01*
D16*
G04 #@! TO.C,SW2*
X114450000Y-107000000D02*
X117050000Y-107000000D01*
X114450000Y-108600000D02*
X114450000Y-107000000D01*
X117050000Y-107000000D02*
X117050000Y-108600000D01*
X117050000Y-108600000D02*
X114450000Y-108600000D01*
D17*
G04 #@! TO.C,C4*
X119950000Y-105200000D02*
X120450000Y-105200000D01*
X119950000Y-106200000D02*
X119950000Y-105200000D01*
X120450000Y-105200000D02*
X120450000Y-106200000D01*
X120450000Y-106200000D02*
X119950000Y-106200000D01*
G04 #@! TO.C,R8*
X105130000Y-105375000D02*
X105670000Y-105375000D01*
X105130000Y-106425000D02*
X105130000Y-105375000D01*
X105670000Y-105375000D02*
X105670000Y-106425000D01*
X105670000Y-106425000D02*
X105130000Y-106425000D01*
G04 #@! TO.C,R22*
X112630000Y-103575000D02*
X113170000Y-103575000D01*
X112630000Y-104625000D02*
X112630000Y-103575000D01*
X113170000Y-103575000D02*
X113170000Y-104625000D01*
X113170000Y-104625000D02*
X112630000Y-104625000D01*
G04 #@! TO.C,C2*
X129100000Y-99850000D02*
X130100000Y-99850000D01*
X129100000Y-100350000D02*
X129100000Y-99850000D01*
X130100000Y-99850000D02*
X130100000Y-100350000D01*
X130100000Y-100350000D02*
X129100000Y-100350000D01*
G04 #@! TO.C,C1*
X127100000Y-99850000D02*
X128100000Y-99850000D01*
X127100000Y-100350000D02*
X127100000Y-99850000D01*
X128100000Y-99850000D02*
X128100000Y-100350000D01*
X128100000Y-100350000D02*
X127100000Y-100350000D01*
G04 #@! TO.C,C10*
X124100000Y-100950000D02*
X125100000Y-100950000D01*
X124100000Y-101450000D02*
X124100000Y-100950000D01*
X125100000Y-100950000D02*
X125100000Y-101450000D01*
X125100000Y-101450000D02*
X124100000Y-101450000D01*
G04 #@! TO.C,Y1*
X116650000Y-104000000D02*
X116650000Y-106000000D01*
X118650000Y-104000000D02*
X116650000Y-104000000D01*
X119150000Y-104500000D02*
X118650000Y-104000000D01*
X119150000Y-104500000D02*
X119150000Y-106000000D01*
X119150000Y-106000000D02*
X116650000Y-106000000D01*
G04 #@! TO.C,C18*
X108020000Y-103280000D02*
X109020000Y-103280000D01*
X108020000Y-103780000D02*
X108020000Y-103280000D01*
X109020000Y-103280000D02*
X109020000Y-103780000D01*
X109020000Y-103780000D02*
X108020000Y-103780000D01*
G04 #@! TO.C,C15*
X124500000Y-99950000D02*
X125500000Y-99950000D01*
X124500000Y-100450000D02*
X124500000Y-99950000D01*
X125500000Y-99950000D02*
X125500000Y-100450000D01*
X125500000Y-100450000D02*
X124500000Y-100450000D01*
G04 #@! TO.C,R17*
X109530000Y-103575000D02*
X110070000Y-103575000D01*
X109530000Y-104625000D02*
X109530000Y-103575000D01*
X110070000Y-103575000D02*
X110070000Y-104625000D01*
X110070000Y-104625000D02*
X109530000Y-104625000D01*
G04 #@! TO.C,C17*
X120950000Y-105200000D02*
X121450000Y-105200000D01*
X120950000Y-106200000D02*
X120950000Y-105200000D01*
X121450000Y-105200000D02*
X121450000Y-106200000D01*
X121450000Y-106200000D02*
X120950000Y-106200000D01*
G04 #@! TO.C,Q2*
X109150000Y-92650000D02*
X112050000Y-92650000D01*
X109150000Y-93950000D02*
X109150000Y-92650000D01*
X110100000Y-93950000D02*
X109150000Y-93000000D01*
X112050000Y-92650000D02*
X112050000Y-93950000D01*
X112050000Y-93950000D02*
X109150000Y-93950000D01*
G04 #@! TO.C,C6*
X107450000Y-105400000D02*
X107950000Y-105400000D01*
X107450000Y-106400000D02*
X107450000Y-105400000D01*
X107950000Y-105400000D02*
X107950000Y-106400000D01*
X107950000Y-106400000D02*
X107450000Y-106400000D01*
G04 #@! TO.C,L1*
X105600000Y-107350000D02*
X107600000Y-107350000D01*
X105600000Y-108250000D02*
X105600000Y-107350000D01*
X107600000Y-107350000D02*
X107600000Y-108250000D01*
X107600000Y-108250000D02*
X105600000Y-108250000D01*
G04 #@! TO.C,R18*
X111630000Y-103575000D02*
X112170000Y-103575000D01*
X111630000Y-104625000D02*
X111630000Y-103575000D01*
X112170000Y-103575000D02*
X112170000Y-104625000D01*
X112170000Y-104625000D02*
X111630000Y-104625000D01*
G04 #@! TO.C,U3*
X115400000Y-96300000D02*
X121400000Y-96300000D01*
X115400000Y-102300000D02*
X115400000Y-96300000D01*
X121400000Y-96300000D02*
X121400000Y-102300000D01*
X121400000Y-101900000D02*
X121000000Y-102300000D01*
X121400000Y-102300000D02*
X115400000Y-102300000D01*
G04 #@! TO.C,U2*
X127450000Y-101050000D02*
X131350000Y-101050000D01*
X127450000Y-105950000D02*
X127450000Y-101050000D01*
X130375000Y-105950000D02*
X127450000Y-105950000D01*
X131350000Y-101050000D02*
X131350000Y-104975000D01*
X131350000Y-104975000D02*
X130375000Y-105950000D01*
G04 #@! TO.C,C13*
X113750000Y-103500000D02*
X114250000Y-103500000D01*
X113750000Y-104500000D02*
X113750000Y-103500000D01*
X114250000Y-103500000D02*
X114250000Y-104500000D01*
X114250000Y-104500000D02*
X113750000Y-104500000D01*
G04 #@! TO.C,C5*
X100700000Y-105900000D02*
X101500000Y-105900000D01*
X100700000Y-107500000D02*
X100700000Y-105900000D01*
X101500000Y-105900000D02*
X101500000Y-107500000D01*
X101500000Y-107500000D02*
X100700000Y-107500000D01*
G04 #@! TO.C,R7*
X106330000Y-105375000D02*
X106870000Y-105375000D01*
X106330000Y-106425000D02*
X106330000Y-105375000D01*
X106870000Y-105375000D02*
X106870000Y-106425000D01*
X106870000Y-106425000D02*
X106330000Y-106425000D01*
G04 #@! TO.C,R15*
X120175000Y-104130000D02*
X121225000Y-104130000D01*
X120175000Y-104670000D02*
X120175000Y-104130000D01*
X121225000Y-104130000D02*
X121225000Y-104670000D01*
X121225000Y-104670000D02*
X120175000Y-104670000D01*
G04 #@! TO.C,C16*
X120500000Y-103350000D02*
X121100000Y-103350000D01*
X120500000Y-103650000D02*
X120500000Y-103350000D01*
X121100000Y-103350000D02*
X121100000Y-103650000D01*
X121100000Y-103650000D02*
X120500000Y-103650000D01*
G04 #@! TO.C,R20*
X111875000Y-95930000D02*
X112925000Y-95930000D01*
X111875000Y-96470000D02*
X111875000Y-95930000D01*
X112925000Y-95930000D02*
X112925000Y-96470000D01*
X112925000Y-96470000D02*
X111875000Y-96470000D01*
G04 #@! TO.C,C7*
X108650000Y-105400000D02*
X109150000Y-105400000D01*
X108650000Y-106400000D02*
X108650000Y-105400000D01*
X109150000Y-105400000D02*
X109150000Y-106400000D01*
X109150000Y-106400000D02*
X108650000Y-106400000D01*
G04 #@! TD*
M02*
