%TF.GenerationSoftware,KiCad,Pcbnew,8.0.6*%
%TF.CreationDate,2024-11-11T10:15:46+01:00*%
%TF.ProjectId,V1,56312e6b-6963-4616-945f-706362585858,r0.1*%
%TF.SameCoordinates,Original*%
%TF.FileFunction,Drillmap*%
%TF.FilePolarity,Positive*%
%FSLAX45Y45*%
G04 Gerber Fmt 4.5, Leading zero omitted, Abs format (unit mm)*
G04 Created by KiCad (PCBNEW 8.0.6) date 2024-11-11 10:15:46*
%MOMM*%
%LPD*%
G01*
G04 APERTURE LIST*
%ADD10C,0.150000*%
%ADD11C,0.200000*%
%ADD12C,0.100000*%
G04 APERTURE END LIST*
D10*
X10130000Y-9110000D02*
X13426000Y-9110000D01*
X13556000Y-9240000D02*
X13556000Y-10760000D01*
X10000000Y-10760000D02*
X10000000Y-9240000D01*
X13426000Y-10890000D02*
X10130000Y-10890000D01*
X13556000Y-10760000D02*
G75*
G02*
X13426000Y-10890000I-130000J0D01*
G01*
X10000000Y-9240000D02*
G75*
G02*
X10130000Y-9110000I130000J0D01*
G01*
X10130000Y-10890000D02*
G75*
G02*
X10000000Y-10760000I0J130000D01*
G01*
X13426000Y-9110000D02*
G75*
G02*
X13556000Y-9240000I0J-130000D01*
G01*
D11*
D12*
X10467500Y-9628500D02*
X10532500Y-9693500D01*
X10532500Y-9628500D02*
X10467500Y-9693500D01*
X10467500Y-10206500D02*
X10532500Y-10271500D01*
X10532500Y-10206500D02*
X10467500Y-10271500D01*
D11*
X10253277Y-11208984D02*
X10253277Y-11008984D01*
X10253277Y-11008984D02*
X10300896Y-11008984D01*
X10300896Y-11008984D02*
X10329467Y-11018508D01*
X10329467Y-11018508D02*
X10348515Y-11037555D01*
X10348515Y-11037555D02*
X10358039Y-11056603D01*
X10358039Y-11056603D02*
X10367563Y-11094698D01*
X10367563Y-11094698D02*
X10367563Y-11123270D01*
X10367563Y-11123270D02*
X10358039Y-11161365D01*
X10358039Y-11161365D02*
X10348515Y-11180412D01*
X10348515Y-11180412D02*
X10329467Y-11199460D01*
X10329467Y-11199460D02*
X10300896Y-11208984D01*
X10300896Y-11208984D02*
X10253277Y-11208984D01*
X10453277Y-11208984D02*
X10453277Y-11075650D01*
X10453277Y-11113746D02*
X10462801Y-11094698D01*
X10462801Y-11094698D02*
X10472324Y-11085174D01*
X10472324Y-11085174D02*
X10491372Y-11075650D01*
X10491372Y-11075650D02*
X10510420Y-11075650D01*
X10577086Y-11208984D02*
X10577086Y-11075650D01*
X10577086Y-11008984D02*
X10567563Y-11018508D01*
X10567563Y-11018508D02*
X10577086Y-11028031D01*
X10577086Y-11028031D02*
X10586610Y-11018508D01*
X10586610Y-11018508D02*
X10577086Y-11008984D01*
X10577086Y-11008984D02*
X10577086Y-11028031D01*
X10700896Y-11208984D02*
X10681848Y-11199460D01*
X10681848Y-11199460D02*
X10672324Y-11180412D01*
X10672324Y-11180412D02*
X10672324Y-11008984D01*
X10805658Y-11208984D02*
X10786610Y-11199460D01*
X10786610Y-11199460D02*
X10777086Y-11180412D01*
X10777086Y-11180412D02*
X10777086Y-11008984D01*
X11034229Y-11208984D02*
X11034229Y-11008984D01*
X11034229Y-11008984D02*
X11100896Y-11151841D01*
X11100896Y-11151841D02*
X11167563Y-11008984D01*
X11167563Y-11008984D02*
X11167563Y-11208984D01*
X11348515Y-11208984D02*
X11348515Y-11104222D01*
X11348515Y-11104222D02*
X11338991Y-11085174D01*
X11338991Y-11085174D02*
X11319943Y-11075650D01*
X11319943Y-11075650D02*
X11281848Y-11075650D01*
X11281848Y-11075650D02*
X11262801Y-11085174D01*
X11348515Y-11199460D02*
X11329467Y-11208984D01*
X11329467Y-11208984D02*
X11281848Y-11208984D01*
X11281848Y-11208984D02*
X11262801Y-11199460D01*
X11262801Y-11199460D02*
X11253277Y-11180412D01*
X11253277Y-11180412D02*
X11253277Y-11161365D01*
X11253277Y-11161365D02*
X11262801Y-11142317D01*
X11262801Y-11142317D02*
X11281848Y-11132793D01*
X11281848Y-11132793D02*
X11329467Y-11132793D01*
X11329467Y-11132793D02*
X11348515Y-11123270D01*
X11443753Y-11075650D02*
X11443753Y-11275650D01*
X11443753Y-11085174D02*
X11462801Y-11075650D01*
X11462801Y-11075650D02*
X11500896Y-11075650D01*
X11500896Y-11075650D02*
X11519943Y-11085174D01*
X11519943Y-11085174D02*
X11529467Y-11094698D01*
X11529467Y-11094698D02*
X11538991Y-11113746D01*
X11538991Y-11113746D02*
X11538991Y-11170889D01*
X11538991Y-11170889D02*
X11529467Y-11189936D01*
X11529467Y-11189936D02*
X11519943Y-11199460D01*
X11519943Y-11199460D02*
X11500896Y-11208984D01*
X11500896Y-11208984D02*
X11462801Y-11208984D01*
X11462801Y-11208984D02*
X11443753Y-11199460D01*
X11624705Y-11189936D02*
X11634229Y-11199460D01*
X11634229Y-11199460D02*
X11624705Y-11208984D01*
X11624705Y-11208984D02*
X11615182Y-11199460D01*
X11615182Y-11199460D02*
X11624705Y-11189936D01*
X11624705Y-11189936D02*
X11624705Y-11208984D01*
X11624705Y-11085174D02*
X11634229Y-11094698D01*
X11634229Y-11094698D02*
X11624705Y-11104222D01*
X11624705Y-11104222D02*
X11615182Y-11094698D01*
X11615182Y-11094698D02*
X11624705Y-11085174D01*
X11624705Y-11085174D02*
X11624705Y-11104222D01*
D12*
X9927500Y-11505000D02*
X9992500Y-11570000D01*
X9992500Y-11505000D02*
X9927500Y-11570000D01*
D11*
X10291372Y-11428984D02*
X10310420Y-11428984D01*
X10310420Y-11428984D02*
X10329467Y-11438508D01*
X10329467Y-11438508D02*
X10338991Y-11448031D01*
X10338991Y-11448031D02*
X10348515Y-11467079D01*
X10348515Y-11467079D02*
X10358039Y-11505174D01*
X10358039Y-11505174D02*
X10358039Y-11552793D01*
X10358039Y-11552793D02*
X10348515Y-11590888D01*
X10348515Y-11590888D02*
X10338991Y-11609936D01*
X10338991Y-11609936D02*
X10329467Y-11619460D01*
X10329467Y-11619460D02*
X10310420Y-11628984D01*
X10310420Y-11628984D02*
X10291372Y-11628984D01*
X10291372Y-11628984D02*
X10272324Y-11619460D01*
X10272324Y-11619460D02*
X10262801Y-11609936D01*
X10262801Y-11609936D02*
X10253277Y-11590888D01*
X10253277Y-11590888D02*
X10243753Y-11552793D01*
X10243753Y-11552793D02*
X10243753Y-11505174D01*
X10243753Y-11505174D02*
X10253277Y-11467079D01*
X10253277Y-11467079D02*
X10262801Y-11448031D01*
X10262801Y-11448031D02*
X10272324Y-11438508D01*
X10272324Y-11438508D02*
X10291372Y-11428984D01*
X10443753Y-11609936D02*
X10453277Y-11619460D01*
X10453277Y-11619460D02*
X10443753Y-11628984D01*
X10443753Y-11628984D02*
X10434229Y-11619460D01*
X10434229Y-11619460D02*
X10443753Y-11609936D01*
X10443753Y-11609936D02*
X10443753Y-11628984D01*
X10624705Y-11428984D02*
X10586610Y-11428984D01*
X10586610Y-11428984D02*
X10567563Y-11438508D01*
X10567563Y-11438508D02*
X10558039Y-11448031D01*
X10558039Y-11448031D02*
X10538991Y-11476603D01*
X10538991Y-11476603D02*
X10529467Y-11514698D01*
X10529467Y-11514698D02*
X10529467Y-11590888D01*
X10529467Y-11590888D02*
X10538991Y-11609936D01*
X10538991Y-11609936D02*
X10548515Y-11619460D01*
X10548515Y-11619460D02*
X10567563Y-11628984D01*
X10567563Y-11628984D02*
X10605658Y-11628984D01*
X10605658Y-11628984D02*
X10624705Y-11619460D01*
X10624705Y-11619460D02*
X10634229Y-11609936D01*
X10634229Y-11609936D02*
X10643753Y-11590888D01*
X10643753Y-11590888D02*
X10643753Y-11543269D01*
X10643753Y-11543269D02*
X10634229Y-11524222D01*
X10634229Y-11524222D02*
X10624705Y-11514698D01*
X10624705Y-11514698D02*
X10605658Y-11505174D01*
X10605658Y-11505174D02*
X10567563Y-11505174D01*
X10567563Y-11505174D02*
X10548515Y-11514698D01*
X10548515Y-11514698D02*
X10538991Y-11524222D01*
X10538991Y-11524222D02*
X10529467Y-11543269D01*
X10824705Y-11428984D02*
X10729467Y-11428984D01*
X10729467Y-11428984D02*
X10719944Y-11524222D01*
X10719944Y-11524222D02*
X10729467Y-11514698D01*
X10729467Y-11514698D02*
X10748515Y-11505174D01*
X10748515Y-11505174D02*
X10796134Y-11505174D01*
X10796134Y-11505174D02*
X10815182Y-11514698D01*
X10815182Y-11514698D02*
X10824705Y-11524222D01*
X10824705Y-11524222D02*
X10834229Y-11543269D01*
X10834229Y-11543269D02*
X10834229Y-11590888D01*
X10834229Y-11590888D02*
X10824705Y-11609936D01*
X10824705Y-11609936D02*
X10815182Y-11619460D01*
X10815182Y-11619460D02*
X10796134Y-11628984D01*
X10796134Y-11628984D02*
X10748515Y-11628984D01*
X10748515Y-11628984D02*
X10729467Y-11619460D01*
X10729467Y-11619460D02*
X10719944Y-11609936D01*
X10958039Y-11428984D02*
X10977086Y-11428984D01*
X10977086Y-11428984D02*
X10996134Y-11438508D01*
X10996134Y-11438508D02*
X11005658Y-11448031D01*
X11005658Y-11448031D02*
X11015182Y-11467079D01*
X11015182Y-11467079D02*
X11024705Y-11505174D01*
X11024705Y-11505174D02*
X11024705Y-11552793D01*
X11024705Y-11552793D02*
X11015182Y-11590888D01*
X11015182Y-11590888D02*
X11005658Y-11609936D01*
X11005658Y-11609936D02*
X10996134Y-11619460D01*
X10996134Y-11619460D02*
X10977086Y-11628984D01*
X10977086Y-11628984D02*
X10958039Y-11628984D01*
X10958039Y-11628984D02*
X10938991Y-11619460D01*
X10938991Y-11619460D02*
X10929467Y-11609936D01*
X10929467Y-11609936D02*
X10919944Y-11590888D01*
X10919944Y-11590888D02*
X10910420Y-11552793D01*
X10910420Y-11552793D02*
X10910420Y-11505174D01*
X10910420Y-11505174D02*
X10919944Y-11467079D01*
X10919944Y-11467079D02*
X10929467Y-11448031D01*
X10929467Y-11448031D02*
X10938991Y-11438508D01*
X10938991Y-11438508D02*
X10958039Y-11428984D01*
X11110420Y-11628984D02*
X11110420Y-11495650D01*
X11110420Y-11514698D02*
X11119944Y-11505174D01*
X11119944Y-11505174D02*
X11138991Y-11495650D01*
X11138991Y-11495650D02*
X11167563Y-11495650D01*
X11167563Y-11495650D02*
X11186610Y-11505174D01*
X11186610Y-11505174D02*
X11196134Y-11524222D01*
X11196134Y-11524222D02*
X11196134Y-11628984D01*
X11196134Y-11524222D02*
X11205658Y-11505174D01*
X11205658Y-11505174D02*
X11224705Y-11495650D01*
X11224705Y-11495650D02*
X11253277Y-11495650D01*
X11253277Y-11495650D02*
X11272324Y-11505174D01*
X11272324Y-11505174D02*
X11281848Y-11524222D01*
X11281848Y-11524222D02*
X11281848Y-11628984D01*
X11377086Y-11628984D02*
X11377086Y-11495650D01*
X11377086Y-11514698D02*
X11386610Y-11505174D01*
X11386610Y-11505174D02*
X11405658Y-11495650D01*
X11405658Y-11495650D02*
X11434229Y-11495650D01*
X11434229Y-11495650D02*
X11453277Y-11505174D01*
X11453277Y-11505174D02*
X11462801Y-11524222D01*
X11462801Y-11524222D02*
X11462801Y-11628984D01*
X11462801Y-11524222D02*
X11472324Y-11505174D01*
X11472324Y-11505174D02*
X11491372Y-11495650D01*
X11491372Y-11495650D02*
X11519943Y-11495650D01*
X11519943Y-11495650D02*
X11538991Y-11505174D01*
X11538991Y-11505174D02*
X11548515Y-11524222D01*
X11548515Y-11524222D02*
X11548515Y-11628984D01*
X11938991Y-11419460D02*
X11767563Y-11676603D01*
X12196134Y-11428984D02*
X12215182Y-11428984D01*
X12215182Y-11428984D02*
X12234229Y-11438508D01*
X12234229Y-11438508D02*
X12243753Y-11448031D01*
X12243753Y-11448031D02*
X12253277Y-11467079D01*
X12253277Y-11467079D02*
X12262801Y-11505174D01*
X12262801Y-11505174D02*
X12262801Y-11552793D01*
X12262801Y-11552793D02*
X12253277Y-11590888D01*
X12253277Y-11590888D02*
X12243753Y-11609936D01*
X12243753Y-11609936D02*
X12234229Y-11619460D01*
X12234229Y-11619460D02*
X12215182Y-11628984D01*
X12215182Y-11628984D02*
X12196134Y-11628984D01*
X12196134Y-11628984D02*
X12177086Y-11619460D01*
X12177086Y-11619460D02*
X12167563Y-11609936D01*
X12167563Y-11609936D02*
X12158039Y-11590888D01*
X12158039Y-11590888D02*
X12148515Y-11552793D01*
X12148515Y-11552793D02*
X12148515Y-11505174D01*
X12148515Y-11505174D02*
X12158039Y-11467079D01*
X12158039Y-11467079D02*
X12167563Y-11448031D01*
X12167563Y-11448031D02*
X12177086Y-11438508D01*
X12177086Y-11438508D02*
X12196134Y-11428984D01*
X12348515Y-11609936D02*
X12358039Y-11619460D01*
X12358039Y-11619460D02*
X12348515Y-11628984D01*
X12348515Y-11628984D02*
X12338991Y-11619460D01*
X12338991Y-11619460D02*
X12348515Y-11609936D01*
X12348515Y-11609936D02*
X12348515Y-11628984D01*
X12481848Y-11428984D02*
X12500896Y-11428984D01*
X12500896Y-11428984D02*
X12519944Y-11438508D01*
X12519944Y-11438508D02*
X12529467Y-11448031D01*
X12529467Y-11448031D02*
X12538991Y-11467079D01*
X12538991Y-11467079D02*
X12548515Y-11505174D01*
X12548515Y-11505174D02*
X12548515Y-11552793D01*
X12548515Y-11552793D02*
X12538991Y-11590888D01*
X12538991Y-11590888D02*
X12529467Y-11609936D01*
X12529467Y-11609936D02*
X12519944Y-11619460D01*
X12519944Y-11619460D02*
X12500896Y-11628984D01*
X12500896Y-11628984D02*
X12481848Y-11628984D01*
X12481848Y-11628984D02*
X12462801Y-11619460D01*
X12462801Y-11619460D02*
X12453277Y-11609936D01*
X12453277Y-11609936D02*
X12443753Y-11590888D01*
X12443753Y-11590888D02*
X12434229Y-11552793D01*
X12434229Y-11552793D02*
X12434229Y-11505174D01*
X12434229Y-11505174D02*
X12443753Y-11467079D01*
X12443753Y-11467079D02*
X12453277Y-11448031D01*
X12453277Y-11448031D02*
X12462801Y-11438508D01*
X12462801Y-11438508D02*
X12481848Y-11428984D01*
X12624706Y-11448031D02*
X12634229Y-11438508D01*
X12634229Y-11438508D02*
X12653277Y-11428984D01*
X12653277Y-11428984D02*
X12700896Y-11428984D01*
X12700896Y-11428984D02*
X12719944Y-11438508D01*
X12719944Y-11438508D02*
X12729467Y-11448031D01*
X12729467Y-11448031D02*
X12738991Y-11467079D01*
X12738991Y-11467079D02*
X12738991Y-11486127D01*
X12738991Y-11486127D02*
X12729467Y-11514698D01*
X12729467Y-11514698D02*
X12615182Y-11628984D01*
X12615182Y-11628984D02*
X12738991Y-11628984D01*
X12919944Y-11428984D02*
X12824706Y-11428984D01*
X12824706Y-11428984D02*
X12815182Y-11524222D01*
X12815182Y-11524222D02*
X12824706Y-11514698D01*
X12824706Y-11514698D02*
X12843753Y-11505174D01*
X12843753Y-11505174D02*
X12891372Y-11505174D01*
X12891372Y-11505174D02*
X12910420Y-11514698D01*
X12910420Y-11514698D02*
X12919944Y-11524222D01*
X12919944Y-11524222D02*
X12929467Y-11543269D01*
X12929467Y-11543269D02*
X12929467Y-11590888D01*
X12929467Y-11590888D02*
X12919944Y-11609936D01*
X12919944Y-11609936D02*
X12910420Y-11619460D01*
X12910420Y-11619460D02*
X12891372Y-11628984D01*
X12891372Y-11628984D02*
X12843753Y-11628984D01*
X12843753Y-11628984D02*
X12824706Y-11619460D01*
X12824706Y-11619460D02*
X12815182Y-11609936D01*
X13100896Y-11428984D02*
X13062801Y-11428984D01*
X13062801Y-11428984D02*
X13043753Y-11438508D01*
X13043753Y-11438508D02*
X13034229Y-11448031D01*
X13034229Y-11448031D02*
X13015182Y-11476603D01*
X13015182Y-11476603D02*
X13005658Y-11514698D01*
X13005658Y-11514698D02*
X13005658Y-11590888D01*
X13005658Y-11590888D02*
X13015182Y-11609936D01*
X13015182Y-11609936D02*
X13024706Y-11619460D01*
X13024706Y-11619460D02*
X13043753Y-11628984D01*
X13043753Y-11628984D02*
X13081848Y-11628984D01*
X13081848Y-11628984D02*
X13100896Y-11619460D01*
X13100896Y-11619460D02*
X13110420Y-11609936D01*
X13110420Y-11609936D02*
X13119944Y-11590888D01*
X13119944Y-11590888D02*
X13119944Y-11543269D01*
X13119944Y-11543269D02*
X13110420Y-11524222D01*
X13110420Y-11524222D02*
X13100896Y-11514698D01*
X13100896Y-11514698D02*
X13081848Y-11505174D01*
X13081848Y-11505174D02*
X13043753Y-11505174D01*
X13043753Y-11505174D02*
X13024706Y-11514698D01*
X13024706Y-11514698D02*
X13015182Y-11524222D01*
X13015182Y-11524222D02*
X13005658Y-11543269D01*
X13196134Y-11428984D02*
X13196134Y-11467079D01*
X13272325Y-11428984D02*
X13272325Y-11467079D01*
X13567563Y-11705174D02*
X13558039Y-11695650D01*
X13558039Y-11695650D02*
X13538991Y-11667079D01*
X13538991Y-11667079D02*
X13529468Y-11648031D01*
X13529468Y-11648031D02*
X13519944Y-11619460D01*
X13519944Y-11619460D02*
X13510420Y-11571841D01*
X13510420Y-11571841D02*
X13510420Y-11533746D01*
X13510420Y-11533746D02*
X13519944Y-11486127D01*
X13519944Y-11486127D02*
X13529468Y-11457555D01*
X13529468Y-11457555D02*
X13538991Y-11438508D01*
X13538991Y-11438508D02*
X13558039Y-11409936D01*
X13558039Y-11409936D02*
X13567563Y-11400412D01*
X13634229Y-11448031D02*
X13643753Y-11438508D01*
X13643753Y-11438508D02*
X13662801Y-11428984D01*
X13662801Y-11428984D02*
X13710420Y-11428984D01*
X13710420Y-11428984D02*
X13729468Y-11438508D01*
X13729468Y-11438508D02*
X13738991Y-11448031D01*
X13738991Y-11448031D02*
X13748515Y-11467079D01*
X13748515Y-11467079D02*
X13748515Y-11486127D01*
X13748515Y-11486127D02*
X13738991Y-11514698D01*
X13738991Y-11514698D02*
X13624706Y-11628984D01*
X13624706Y-11628984D02*
X13748515Y-11628984D01*
X13986610Y-11628984D02*
X13986610Y-11428984D01*
X14072325Y-11628984D02*
X14072325Y-11524222D01*
X14072325Y-11524222D02*
X14062801Y-11505174D01*
X14062801Y-11505174D02*
X14043753Y-11495650D01*
X14043753Y-11495650D02*
X14015182Y-11495650D01*
X14015182Y-11495650D02*
X13996134Y-11505174D01*
X13996134Y-11505174D02*
X13986610Y-11514698D01*
X14196134Y-11628984D02*
X14177087Y-11619460D01*
X14177087Y-11619460D02*
X14167563Y-11609936D01*
X14167563Y-11609936D02*
X14158039Y-11590888D01*
X14158039Y-11590888D02*
X14158039Y-11533746D01*
X14158039Y-11533746D02*
X14167563Y-11514698D01*
X14167563Y-11514698D02*
X14177087Y-11505174D01*
X14177087Y-11505174D02*
X14196134Y-11495650D01*
X14196134Y-11495650D02*
X14224706Y-11495650D01*
X14224706Y-11495650D02*
X14243753Y-11505174D01*
X14243753Y-11505174D02*
X14253277Y-11514698D01*
X14253277Y-11514698D02*
X14262801Y-11533746D01*
X14262801Y-11533746D02*
X14262801Y-11590888D01*
X14262801Y-11590888D02*
X14253277Y-11609936D01*
X14253277Y-11609936D02*
X14243753Y-11619460D01*
X14243753Y-11619460D02*
X14224706Y-11628984D01*
X14224706Y-11628984D02*
X14196134Y-11628984D01*
X14377087Y-11628984D02*
X14358039Y-11619460D01*
X14358039Y-11619460D02*
X14348515Y-11600412D01*
X14348515Y-11600412D02*
X14348515Y-11428984D01*
X14529468Y-11619460D02*
X14510420Y-11628984D01*
X14510420Y-11628984D02*
X14472325Y-11628984D01*
X14472325Y-11628984D02*
X14453277Y-11619460D01*
X14453277Y-11619460D02*
X14443753Y-11600412D01*
X14443753Y-11600412D02*
X14443753Y-11524222D01*
X14443753Y-11524222D02*
X14453277Y-11505174D01*
X14453277Y-11505174D02*
X14472325Y-11495650D01*
X14472325Y-11495650D02*
X14510420Y-11495650D01*
X14510420Y-11495650D02*
X14529468Y-11505174D01*
X14529468Y-11505174D02*
X14538991Y-11524222D01*
X14538991Y-11524222D02*
X14538991Y-11543269D01*
X14538991Y-11543269D02*
X14443753Y-11562317D01*
X14615182Y-11619460D02*
X14634230Y-11628984D01*
X14634230Y-11628984D02*
X14672325Y-11628984D01*
X14672325Y-11628984D02*
X14691372Y-11619460D01*
X14691372Y-11619460D02*
X14700896Y-11600412D01*
X14700896Y-11600412D02*
X14700896Y-11590888D01*
X14700896Y-11590888D02*
X14691372Y-11571841D01*
X14691372Y-11571841D02*
X14672325Y-11562317D01*
X14672325Y-11562317D02*
X14643753Y-11562317D01*
X14643753Y-11562317D02*
X14624706Y-11552793D01*
X14624706Y-11552793D02*
X14615182Y-11533746D01*
X14615182Y-11533746D02*
X14615182Y-11524222D01*
X14615182Y-11524222D02*
X14624706Y-11505174D01*
X14624706Y-11505174D02*
X14643753Y-11495650D01*
X14643753Y-11495650D02*
X14672325Y-11495650D01*
X14672325Y-11495650D02*
X14691372Y-11505174D01*
X14767563Y-11705174D02*
X14777087Y-11695650D01*
X14777087Y-11695650D02*
X14796134Y-11667079D01*
X14796134Y-11667079D02*
X14805658Y-11648031D01*
X14805658Y-11648031D02*
X14815182Y-11619460D01*
X14815182Y-11619460D02*
X14824706Y-11571841D01*
X14824706Y-11571841D02*
X14824706Y-11533746D01*
X14824706Y-11533746D02*
X14815182Y-11486127D01*
X14815182Y-11486127D02*
X14805658Y-11457555D01*
X14805658Y-11457555D02*
X14796134Y-11438508D01*
X14796134Y-11438508D02*
X14777087Y-11409936D01*
X14777087Y-11409936D02*
X14767563Y-11400412D01*
X15129468Y-11705174D02*
X15119944Y-11695650D01*
X15119944Y-11695650D02*
X15100896Y-11667079D01*
X15100896Y-11667079D02*
X15091372Y-11648031D01*
X15091372Y-11648031D02*
X15081849Y-11619460D01*
X15081849Y-11619460D02*
X15072325Y-11571841D01*
X15072325Y-11571841D02*
X15072325Y-11533746D01*
X15072325Y-11533746D02*
X15081849Y-11486127D01*
X15081849Y-11486127D02*
X15091372Y-11457555D01*
X15091372Y-11457555D02*
X15100896Y-11438508D01*
X15100896Y-11438508D02*
X15119944Y-11409936D01*
X15119944Y-11409936D02*
X15129468Y-11400412D01*
X15205658Y-11495650D02*
X15205658Y-11628984D01*
X15205658Y-11514698D02*
X15215182Y-11505174D01*
X15215182Y-11505174D02*
X15234230Y-11495650D01*
X15234230Y-11495650D02*
X15262801Y-11495650D01*
X15262801Y-11495650D02*
X15281849Y-11505174D01*
X15281849Y-11505174D02*
X15291372Y-11524222D01*
X15291372Y-11524222D02*
X15291372Y-11628984D01*
X15415182Y-11628984D02*
X15396134Y-11619460D01*
X15396134Y-11619460D02*
X15386611Y-11609936D01*
X15386611Y-11609936D02*
X15377087Y-11590888D01*
X15377087Y-11590888D02*
X15377087Y-11533746D01*
X15377087Y-11533746D02*
X15386611Y-11514698D01*
X15386611Y-11514698D02*
X15396134Y-11505174D01*
X15396134Y-11505174D02*
X15415182Y-11495650D01*
X15415182Y-11495650D02*
X15443753Y-11495650D01*
X15443753Y-11495650D02*
X15462801Y-11505174D01*
X15462801Y-11505174D02*
X15472325Y-11514698D01*
X15472325Y-11514698D02*
X15481849Y-11533746D01*
X15481849Y-11533746D02*
X15481849Y-11590888D01*
X15481849Y-11590888D02*
X15472325Y-11609936D01*
X15472325Y-11609936D02*
X15462801Y-11619460D01*
X15462801Y-11619460D02*
X15443753Y-11628984D01*
X15443753Y-11628984D02*
X15415182Y-11628984D01*
X15538992Y-11495650D02*
X15615182Y-11495650D01*
X15567563Y-11428984D02*
X15567563Y-11600412D01*
X15567563Y-11600412D02*
X15577087Y-11619460D01*
X15577087Y-11619460D02*
X15596134Y-11628984D01*
X15596134Y-11628984D02*
X15615182Y-11628984D01*
X15834230Y-11495650D02*
X15834230Y-11695650D01*
X15834230Y-11505174D02*
X15853277Y-11495650D01*
X15853277Y-11495650D02*
X15891373Y-11495650D01*
X15891373Y-11495650D02*
X15910420Y-11505174D01*
X15910420Y-11505174D02*
X15919944Y-11514698D01*
X15919944Y-11514698D02*
X15929468Y-11533746D01*
X15929468Y-11533746D02*
X15929468Y-11590888D01*
X15929468Y-11590888D02*
X15919944Y-11609936D01*
X15919944Y-11609936D02*
X15910420Y-11619460D01*
X15910420Y-11619460D02*
X15891373Y-11628984D01*
X15891373Y-11628984D02*
X15853277Y-11628984D01*
X15853277Y-11628984D02*
X15834230Y-11619460D01*
X16043753Y-11628984D02*
X16024706Y-11619460D01*
X16024706Y-11619460D02*
X16015182Y-11600412D01*
X16015182Y-11600412D02*
X16015182Y-11428984D01*
X16205658Y-11628984D02*
X16205658Y-11524222D01*
X16205658Y-11524222D02*
X16196134Y-11505174D01*
X16196134Y-11505174D02*
X16177087Y-11495650D01*
X16177087Y-11495650D02*
X16138992Y-11495650D01*
X16138992Y-11495650D02*
X16119944Y-11505174D01*
X16205658Y-11619460D02*
X16186611Y-11628984D01*
X16186611Y-11628984D02*
X16138992Y-11628984D01*
X16138992Y-11628984D02*
X16119944Y-11619460D01*
X16119944Y-11619460D02*
X16110420Y-11600412D01*
X16110420Y-11600412D02*
X16110420Y-11581365D01*
X16110420Y-11581365D02*
X16119944Y-11562317D01*
X16119944Y-11562317D02*
X16138992Y-11552793D01*
X16138992Y-11552793D02*
X16186611Y-11552793D01*
X16186611Y-11552793D02*
X16205658Y-11543269D01*
X16272325Y-11495650D02*
X16348515Y-11495650D01*
X16300896Y-11428984D02*
X16300896Y-11600412D01*
X16300896Y-11600412D02*
X16310420Y-11619460D01*
X16310420Y-11619460D02*
X16329468Y-11628984D01*
X16329468Y-11628984D02*
X16348515Y-11628984D01*
X16491373Y-11619460D02*
X16472325Y-11628984D01*
X16472325Y-11628984D02*
X16434230Y-11628984D01*
X16434230Y-11628984D02*
X16415182Y-11619460D01*
X16415182Y-11619460D02*
X16405658Y-11600412D01*
X16405658Y-11600412D02*
X16405658Y-11524222D01*
X16405658Y-11524222D02*
X16415182Y-11505174D01*
X16415182Y-11505174D02*
X16434230Y-11495650D01*
X16434230Y-11495650D02*
X16472325Y-11495650D01*
X16472325Y-11495650D02*
X16491373Y-11505174D01*
X16491373Y-11505174D02*
X16500896Y-11524222D01*
X16500896Y-11524222D02*
X16500896Y-11543269D01*
X16500896Y-11543269D02*
X16405658Y-11562317D01*
X16672325Y-11628984D02*
X16672325Y-11428984D01*
X16672325Y-11619460D02*
X16653277Y-11628984D01*
X16653277Y-11628984D02*
X16615182Y-11628984D01*
X16615182Y-11628984D02*
X16596134Y-11619460D01*
X16596134Y-11619460D02*
X16586611Y-11609936D01*
X16586611Y-11609936D02*
X16577087Y-11590888D01*
X16577087Y-11590888D02*
X16577087Y-11533746D01*
X16577087Y-11533746D02*
X16586611Y-11514698D01*
X16586611Y-11514698D02*
X16596134Y-11505174D01*
X16596134Y-11505174D02*
X16615182Y-11495650D01*
X16615182Y-11495650D02*
X16653277Y-11495650D01*
X16653277Y-11495650D02*
X16672325Y-11505174D01*
X16748515Y-11705174D02*
X16758039Y-11695650D01*
X16758039Y-11695650D02*
X16777087Y-11667079D01*
X16777087Y-11667079D02*
X16786611Y-11648031D01*
X16786611Y-11648031D02*
X16796135Y-11619460D01*
X16796135Y-11619460D02*
X16805658Y-11571841D01*
X16805658Y-11571841D02*
X16805658Y-11533746D01*
X16805658Y-11533746D02*
X16796135Y-11486127D01*
X16796135Y-11486127D02*
X16786611Y-11457555D01*
X16786611Y-11457555D02*
X16777087Y-11438508D01*
X16777087Y-11438508D02*
X16758039Y-11409936D01*
X16758039Y-11409936D02*
X16748515Y-11400412D01*
M02*
